<?xml version="1.0" encoding="utf-8"?>
<!-- Generator: Adobe Illustrator 23.0.3, SVG Export Plug-In . SVG Version: 6.00 Build 0)  -->
<svg version="1.1" id="emoji" xmlns="http://www.w3.org/2000/svg" xmlns:xlink="http://www.w3.org/1999/xlink" x="0px" y="0px"
	 viewBox="0 0 72 72" style="enable-background:new 0 0 72 72;" xml:space="preserve">
<style type="text/css">
	.st0{fill:none;}
	.st1{fill:#D0CFCE;stroke:#D0CFCE;stroke-width:2;stroke-miterlimit:10;}
	.st2{fill:#3352A3;}
	.st3{fill:#FFFFFF;}
	.st4{fill:none;stroke:#000000;stroke-width:2;stroke-linecap:round;stroke-linejoin:round;stroke-miterlimit:10;}
	.st5{fill:#FCEA2B;stroke:#000000;stroke-width:2;stroke-linecap:round;stroke-linejoin:round;stroke-miterlimit:10;}
	.st6{fill:none;stroke:#000000;stroke-width:2.0785;stroke-linecap:round;stroke-linejoin:round;stroke-miterlimit:10;}
</style>
<g id="color">
	<line class="st0" x1="50.3" y1="55" x2="53.1" y2="59.9"/>
	<line class="st0" x1="21.7" y1="55" x2="18.9" y2="59.9"/>
	<path class="st1" d="M36,19"/>
	<path class="st1" d="M36,19"/>
	<path class="st2" d="M46.2,14.8c2.3-4.6,4.3-4.1,6.2-4.3c1.3-0.2,6.5,3.2,6.5,6.6s-2.2,4.7-3.6,5.5"/>
	<path class="st2" d="M25.3,14.8c-2.3-4.6-4.3-4.1-6.2-4.3c-1.3-0.2-6.5,3.2-6.5,6.6s2.2,4.7,3.6,5.5"/>
	<circle class="st3" cx="36" cy="36.3" r="23"/>
	<line class="st0" x1="36" y1="19" x2="36" y2="36"/>
	<line class="st0" x1="36" y1="35.9" x2="30" y2="46.3"/>
</g>
<g id="hair">
</g>
<g id="skin">
</g>
<g id="skin-shadow">
</g>
<g id="line">
	<path class="st4" d="M36,12.6"/>
	<path class="st4" d="M36,19.1"/>
	<path class="st4" d="M36,19.2"/>
	<path class="st4" d="M36,12.8"/>
	<line class="st4" x1="50.3" y1="55" x2="53.1" y2="59.9"/>
	<line class="st4" x1="21.7" y1="55" x2="18.9" y2="59.9"/>
	<path class="st4" d="M48.8,12.6c1-0.9,2.2-1.4,3.6-1.4c3,0,5.5,2.5,5.5,5.5c0,1.1-0.3,2.1-0.9,3"/>
	<path class="st4" d="M23.2,12.6c-1-0.9-2.2-1.4-3.6-1.4c-3,0-5.5,2.5-5.5,5.5c0,1.1,0.3,2.1,0.9,3"/>
	<circle class="st5" cx="36" cy="36.3" r="23"/>
	<line class="st4" x1="36" y1="19" x2="36" y2="36"/>
	<line class="st6" x1="36" y1="35.9" x2="30" y2="46.3"/>
</g>
</svg>
