<svg xmlns="http://www.w3.org/2000/svg" viewBox="0 0 612 263.52"><defs><style>.cls-1{fill:#fff;}.cls-2{fill:#231f20;}.cls-3{fill:#a31957;}.cls-4{fill:#3352a3;}.cls-5{fill:#555758;}.cls-6{fill:#8c3a1c;}.cls-7{fill:#17733b;}</style></defs><title>drawpileArtboard 1</title><g id="Layer_8" data-name="Layer 8"><rect class="cls-1" width="612" height="263.52"/></g><g id="Card_BAcks" data-name="Card BAcks"><path class="cls-2" d="M24.1,94.56v37c0,14,6.21,19.93,14.55,19.93,9.27,0,15.2-6.12,15.2-19.93v-37H62V131C62,150.16,51.9,158,38.38,158,25.59,158,16,150.71,16,131.35V94.56Z"/><path class="cls-2" d="M76,157V94.56h8.8l20,31.6A176.7,176.7,0,0,1,116,146.45l.19-.09c-.74-8.34-.93-15.94-.93-25.67V94.56h7.6V157h-8.16L94.9,125.32a198.47,198.47,0,0,1-11.67-20.85l-.28.1c.46,7.87.65,15.38.65,25.76V157Z"/><path class="cls-3" d="M164.32,86.61v6.92h-8q-4.49,0-6.22,1.81t-1.75,6.52v4.48H162.1v6.47H148.39v47.28q0,8.46-3.93,12.33T132,176.29H124.1v-6.92h8c3,0,5.06-.61,6.22-1.81S140,164.18,140,161V112.81h-8v-6.47h8v-3.53q0-8.46,3.94-12.33t12.49-3.87Z"/><path class="cls-2" d="M177.66,94.56v37c0,14,6.21,19.93,14.55,19.93,9.27,0,15.2-6.12,15.2-19.93v-37h8.15V131c0,19.18-10.1,27.05-23.63,27.05-12.79,0-22.42-7.32-22.42-26.68V94.56Z"/><path class="cls-4" d="M269.87,88.7a30.77,30.77,0,0,0-18.66,6.22q-8.44,6.24-8.45,19.18v64.48H228V112.73q0-18,11-27.27t31-9.27q19.69,0,30.81,9.27t11.11,27.27v65.85H297V114.1q0-12.45-8.32-18.93A29.8,29.8,0,0,0,269.87,88.7Z"/><path class="cls-2" d="M324.27,95.39a115.61,115.61,0,0,1,17.14-1.3c11.59,0,19.83,2.69,25.3,7.79s8.8,12.32,8.8,22.42-3.15,18.54-9,24.28-15.48,9-27.62,9a131,131,0,0,1-14.64-.74Zm8.06,55.23a51,51,0,0,0,8.16.46c17.23,0,26.59-9.63,26.59-26.5.09-14.73-8.25-24.09-25.3-24.09a46.07,46.07,0,0,0-9.45.83Z"/><path class="cls-5" d="M379.67,157l25.79-67.55h10.36L441.57,157Zm30.95-58.55-18.55,51h37.14Z"/><path class="cls-6" d="M450.75,105.57q0-9.06,5.41-14t15.27-5q9.42,0,14.37,5.25t5.09,15.38q-6.84.36-10.63,3a8,8,0,0,0-3.8,6.94,6.62,6.62,0,0,0,1.31,4,15.41,15.41,0,0,0,4.25,3.73l2.58,1.68q7.51,4.79,9.68,8a13.46,13.46,0,0,1,2.18,7.73q0,7.78-5.1,11.93t-14.63,4.14a32.76,32.76,0,0,1-6-.57,50.09,50.09,0,0,1-6.38-1.65v-7.42a46.06,46.06,0,0,0,6.79,2,29.94,29.94,0,0,0,6.11.66q5.25,0,8-2.15a7.51,7.51,0,0,0,2.72-6.27,8.07,8.07,0,0,0-1.34-4.75c-.89-1.27-2.86-2.83-5.9-4.7L476.54,131a19.39,19.39,0,0,1-6.31-5.73,12.93,12.93,0,0,1-2-7.17,13.31,13.31,0,0,1,3.78-9.64q3.78-3.88,10.61-5.2a10.06,10.06,0,0,0-3.32-7.2,12.08,12.08,0,0,0-8.08-2.53q-5.88,0-9,3.15t-3.08,9.07V157h-8.46Z"/><path class="cls-2" d="M507.75,94.56h8.06v55.69H542.5V157H507.75Z"/><path class="cls-7" d="M553.54,89.46h41.68v7.69H553.54Zm0,59.86h41.68V157H553.54Zm4.75-32.17h32.18v7.69H558.29Z"/></g></svg>