<svg xmlns="http://www.w3.org/2000/svg" xmlns:xlink="http://www.w3.org/1999/xlink" viewBox="0 0 612 263.52"><defs><style>.cls-1,.cls-4,.cls-8{fill:#fff;}.cls-2{fill:url(#linear-gradient);}.cls-3{fill:#231f20;}.cls-4,.cls-5,.cls-7,.cls-8{stroke:#1d1c1a;stroke-linecap:round;stroke-width:2px;}.cls-4,.cls-5{stroke-miterlimit:10;}.cls-5,.cls-7{fill:none;}.cls-6{fill:#5c9d43;}.cls-7,.cls-8{stroke-linejoin:round;}</style><linearGradient id="linear-gradient" x1="-0.57" y1="131.76" x2="612" y2="131.76" gradientUnits="userSpaceOnUse"><stop offset="0" stop-color="#f1f1f2"/><stop offset="0.03" stop-color="#f0c9da"/><stop offset="0.06" stop-color="#ef9fc1"/><stop offset="0.09" stop-color="#ee7aab"/><stop offset="0.13" stop-color="#ed5d9a"/><stop offset="0.16" stop-color="#ed468c"/><stop offset="0.2" stop-color="#ec3682"/><stop offset="0.25" stop-color="#ec2c7d"/><stop offset="0.31" stop-color="#ec297b"/><stop offset="0.48" stop-color="#ec1c24"/><stop offset="0.65" stop-color="#754c28"/><stop offset="0.77" stop-color="#2e3191"/><stop offset="0.8" stop-color="#323593"/><stop offset="0.84" stop-color="#3d4098"/><stop offset="0.87" stop-color="#4f52a2"/><stop offset="0.9" stop-color="#6a6caf"/><stop offset="0.93" stop-color="#8b8dbf"/><stop offset="0.96" stop-color="#b5b6d4"/><stop offset="0.99" stop-color="#e5e5ec"/><stop offset="1" stop-color="#f1f1f2"/></linearGradient></defs><title>eventcardArtboard 1</title><g id="Layer_8" data-name="Layer 8"><rect class="cls-1" width="612" height="263.52"/></g><g id="Event_Cards" data-name="Event Cards"><g id="Event_Card_Backgrounds" data-name="Event Card Backgrounds"><path class="cls-2" d="M602,10V253.52H9.43V10H602M612,0H-.57V263.52H612V0Z"/></g><g id="Budget_Cuts" data-name="Budget Cuts"><path class="cls-3" d="M39.68,179.67h1.07v14.2H39.68Z"/><path class="cls-3" d="M46.92,180.2v3h3.91V184H46.92v6.4a3.16,3.16,0,0,0,.34,1.7,2.3,2.3,0,0,0,2,1.07h1.53v.74H49.35a3.76,3.76,0,0,1-2.39-.76,3.28,3.28,0,0,1-1-2.75V184H44.59v-.74H46v-3Z"/><path class="cls-3" d="M61.28,179.08h.95v14.79h-.95Z"/><path class="cls-3" d="M71.4,183a4.29,4.29,0,0,1,3.48,1.53,6.07,6.07,0,0,1,1.29,4,6.15,6.15,0,0,1-1.29,4.13,4.28,4.28,0,0,1-3.48,1.52,4.37,4.37,0,0,1-3.51-1.51,6.23,6.23,0,0,1-1.28-4.14,6,6,0,0,1,1.29-4.06A4.35,4.35,0,0,1,71.4,183Zm0,.77A3.35,3.35,0,0,0,68.63,185a5.44,5.44,0,0,0-1,3.5,5.59,5.59,0,0,0,1,3.55,3.63,3.63,0,0,0,5.57,0,5.57,5.57,0,0,0,1-3.55,5.45,5.45,0,0,0-1-3.49A3.33,3.33,0,0,0,71.41,183.73Z"/><path class="cls-3" d="M84.5,183A4.3,4.3,0,0,1,88,184.49a6.07,6.07,0,0,1,1.28,4A6.15,6.15,0,0,1,88,192.67a4.3,4.3,0,0,1-3.48,1.52A4.37,4.37,0,0,1,81,192.68a6.23,6.23,0,0,1-1.27-4.14A6.08,6.08,0,0,1,81,184.48,4.37,4.37,0,0,1,84.5,183Zm0,.77A3.32,3.32,0,0,0,81.73,185a5.45,5.45,0,0,0-1,3.5,5.59,5.59,0,0,0,1,3.55,3.64,3.64,0,0,0,5.58,0,5.63,5.63,0,0,0,1-3.55,5.51,5.51,0,0,0-1-3.49A3.33,3.33,0,0,0,84.51,183.73Z"/><path class="cls-3" d="M94.48,179.08h1v9l5.74-4.84h1.29l-6,5,6.16,5.62h-1.23l-6-5.46v5.46h-1Z"/><path class="cls-3" d="M112.46,183.53v1a8.06,8.06,0,0,0-1.25-.58,10.33,10.33,0,0,0-1.79-.19,4.65,4.65,0,0,0-2.55.6,1.91,1.91,0,0,0-.71,1.7,1.45,1.45,0,0,0,.66,1.26,5.56,5.56,0,0,0,2,.76l.65.13a6.54,6.54,0,0,1,2.48.95,2.25,2.25,0,0,1,1,1.8,3,3,0,0,1-1,2.37,5.27,5.27,0,0,1-3.32.85,8.52,8.52,0,0,1-1.94-.17c-.52-.14-1.08-.3-1.66-.5v-1.09a11.61,11.61,0,0,0,1.62.76,8.84,8.84,0,0,0,2,.24,3.94,3.94,0,0,0,2.46-.63,2.07,2.07,0,0,0,.81-1.69,1.49,1.49,0,0,0-.54-1.28,6.5,6.5,0,0,0-2.46-.93l-.66-.14a5.66,5.66,0,0,1-2.21-.89,2.09,2.09,0,0,1-1-1.73,2.61,2.61,0,0,1,1.15-2.4,5.16,5.16,0,0,1,2.83-.74,8.64,8.64,0,0,1,2,.15A9.71,9.71,0,0,1,112.46,183.53Z"/><path class="cls-3" d="M124,179.08h1v14.79h-1Z"/><path class="cls-3" d="M130,179.08H131v1.19H130Zm0,4.14H131v10.65H130Z"/><path class="cls-3" d="M137.06,179.08h1v9l5.74-4.84h1.3l-6,5,6.16,5.62H144l-6-5.46v5.46h-1Z"/><path class="cls-3" d="M156.75,188.11v.55H148a4.83,4.83,0,0,0,1.08,3.59,5,5,0,0,0,3.55,1.14,7.57,7.57,0,0,0,1.64-.24,10.46,10.46,0,0,0,2-.74v.92a12.81,12.81,0,0,1-2.09.61,9.41,9.41,0,0,1-1.7.21,4.91,4.91,0,0,1-5.48-5.49,5.88,5.88,0,0,1,1.34-4.24,5,5,0,0,1,3.81-1.46,4.21,4.21,0,0,1,3.42,1.38A5.92,5.92,0,0,1,156.75,188.11Zm-1-.19a4.29,4.29,0,0,0-1.09-3.27,3.37,3.37,0,0,0-2.49-.92,4.45,4.45,0,0,0-2.89,1,4.61,4.61,0,0,0-1.28,3.24Z"/><path class="cls-3" d="M168.82,180.2v3h3.9V184h-3.9v6.4a3.07,3.07,0,0,0,.34,1.7,2.3,2.3,0,0,0,2,1.07h1.52v.74h-1.47a3.8,3.8,0,0,1-2.4-.76,3.28,3.28,0,0,1-1-2.75V184h-1.38v-.74h1.38v-3Z"/><path class="cls-3" d="M185,187.44v6.43h-.95V187.5a4.42,4.42,0,0,0-.75-2.91,2.89,2.89,0,0,0-2.28-.86,3.91,3.91,0,0,0-2.77,1,4.19,4.19,0,0,0-1,3.17v6h-.95V179.08h.95v6.11a3.48,3.48,0,0,1,1.17-1.46,4.64,4.64,0,0,1,2.85-.77A3.48,3.48,0,0,1,184,184.1,4.85,4.85,0,0,1,185,187.44Z"/><path class="cls-3" d="M198.83,188.11v.55h-8.75a4.83,4.83,0,0,0,1.08,3.59,5,5,0,0,0,3.55,1.14,7.49,7.49,0,0,0,1.64-.24,10,10,0,0,0,2-.74v.92a12.81,12.81,0,0,1-2.09.61,9.41,9.41,0,0,1-1.7.21,4.91,4.91,0,0,1-5.48-5.49,5.93,5.93,0,0,1,1.34-4.24,5,5,0,0,1,3.81-1.46,4.21,4.21,0,0,1,3.42,1.38A5.92,5.92,0,0,1,198.83,188.11Zm-1-.19a4.29,4.29,0,0,0-1.1-3.27,3.37,3.37,0,0,0-2.49-.92,4.4,4.4,0,0,0-2.88,1,4.57,4.57,0,0,0-1.29,3.24Z"/><path class="cls-3" d="M210.07,179.67h1.52l7.46,13v-13h1v14.2h-1.46l-7.5-13.06v13.06h-1.05Z"/><path class="cls-3" d="M226,179.67h1.07v14.2H226Z"/><path class="cls-3" d="M232.46,179.67h1v6.24h8.6v-6.24h1v14.2h-1v-7.19h-8.6v7.19h-1Z"/><path class="cls-3" d="M263.94,187.44v6.43H263V187.5a4.42,4.42,0,0,0-.75-2.91,2.9,2.9,0,0,0-2.28-.86,3.91,3.91,0,0,0-2.77,1,4.19,4.19,0,0,0-1,3.17v6h-1V179.08h1v6.11a3.48,3.48,0,0,1,1.17-1.46,4.64,4.64,0,0,1,2.85-.77,3.46,3.46,0,0,1,2.72,1.14A4.85,4.85,0,0,1,263.94,187.44Z"/><path class="cls-3" d="M276.94,187.79v6.08H276V191a4.46,4.46,0,0,1-2.1,2.7,5,5,0,0,1-2.07.47,4.05,4.05,0,0,1-2.71-.85,3.49,3.49,0,0,1,.3-5.15,6.91,6.91,0,0,1,4.21-1H276V187a3.2,3.2,0,0,0-.88-2.33,3.79,3.79,0,0,0-2.86-.92,6.36,6.36,0,0,0-2,.35,8.2,8.2,0,0,0-1.71.88V184a7.19,7.19,0,0,1,1.71-.74,8.44,8.44,0,0,1,2.22-.32,4.91,4.91,0,0,1,3.35,1.14C276.56,184.76,276.94,186,276.94,187.79Zm-3.54.07a5.6,5.6,0,0,0-3.29.75,2.57,2.57,0,0,0-1,2.2,2.27,2.27,0,0,0,.83,2,3.68,3.68,0,0,0,5.09-1.1,6.5,6.5,0,0,0,1-3.18v-.66Z"/><path class="cls-3" d="M288.44,183.53v1a8.54,8.54,0,0,0-1.25-.58,10.33,10.33,0,0,0-1.79-.19,4.68,4.68,0,0,0-2.56.6,1.94,1.94,0,0,0-.71,1.7,1.46,1.46,0,0,0,.67,1.26,5.56,5.56,0,0,0,2,.76l.65.13a6.54,6.54,0,0,1,2.48.95,2.24,2.24,0,0,1,1,1.8,3,3,0,0,1-1,2.37,5.21,5.21,0,0,1-3.31.85,8.52,8.52,0,0,1-1.94-.17c-.53-.14-1.08-.3-1.67-.5v-1.09a11.51,11.51,0,0,0,1.63.76,8.78,8.78,0,0,0,2,.24,3.94,3.94,0,0,0,2.46-.63,2.06,2.06,0,0,0,.8-1.69,1.48,1.48,0,0,0-.53-1.28,6.64,6.64,0,0,0-2.46-.93l-.66-.14a5.78,5.78,0,0,1-2.22-.89,2.08,2.08,0,0,1-.95-1.73,2.61,2.61,0,0,1,1.15-2.4,5.16,5.16,0,0,1,2.83-.74,8.7,8.7,0,0,1,2,.15A9.71,9.71,0,0,1,288.44,183.53Z"/><path class="cls-3" d="M305,179.08v.74h-1.34a2.3,2.3,0,0,0-1.61.5,2.54,2.54,0,0,0-.68,2v.94h3.11V184h-3.11v9.91h-1V184h-1.81v-.74h1.81v-.74a3,3,0,0,1,3.27-3.4Z"/><path class="cls-3" d="M316.59,188.11v.55h-8.76a4.83,4.83,0,0,0,1.09,3.59,5,5,0,0,0,3.55,1.14,7.57,7.57,0,0,0,1.64-.24,10.46,10.46,0,0,0,2-.74v.92a12.64,12.64,0,0,1-2.1.61,9.32,9.32,0,0,1-1.69.21,4.91,4.91,0,0,1-5.48-5.49,5.92,5.92,0,0,1,1.33-4.24A5,5,0,0,1,312,183a4.21,4.21,0,0,1,3.42,1.38A5.92,5.92,0,0,1,316.59,188.11Zm-1-.19a4.29,4.29,0,0,0-1.09-3.27,3.37,3.37,0,0,0-2.49-.92,4.45,4.45,0,0,0-2.89,1,4.61,4.61,0,0,0-1.28,3.24Z"/><path class="cls-3" d="M319.71,183.22h1l2.71,9.49,2.69-9.49h1.2l2.71,9.54,2.7-9.54h1l-3,10.65h-1.32l-2.65-9.34L324,193.87h-1.3Z"/><path class="cls-3" d="M347.2,188.11v.55h-8.76a4.79,4.79,0,0,0,1.09,3.59,5,5,0,0,0,3.55,1.14,7.57,7.57,0,0,0,1.64-.24,10.46,10.46,0,0,0,2-.74v.92a12.81,12.81,0,0,1-2.09.61,9.51,9.51,0,0,1-1.7.21,4.91,4.91,0,0,1-5.48-5.49,5.88,5.88,0,0,1,1.34-4.24,5,5,0,0,1,3.81-1.46,4.21,4.21,0,0,1,3.42,1.38A5.92,5.92,0,0,1,347.2,188.11Zm-1-.19a4.29,4.29,0,0,0-1.09-3.27,3.37,3.37,0,0,0-2.49-.92,4.45,4.45,0,0,0-2.89,1,4.61,4.61,0,0,0-1.28,3.24Z"/><path class="cls-3" d="M357.64,184a2.76,2.76,0,0,0-.62-.18,5.4,5.4,0,0,0-.89-.06,3.85,3.85,0,0,0-2.9,1.2,4.82,4.82,0,0,0-.91,3.33v5.61h-.93V183.22h.93v2a4.27,4.27,0,0,1,1.3-1.45,4.6,4.6,0,0,1,2.72-.81c.27,0,.5,0,.7,0a2.4,2.4,0,0,1,.6.07Z"/><path class="cls-3" d="M374.79,185.65v-6.57h.93v14.79h-.93v-2.41a4.62,4.62,0,0,1-1.41,1.9,4,4,0,0,1-2.19.79,4.38,4.38,0,0,1-3.41-1.54,6.73,6.73,0,0,1,0-8.11,4.38,4.38,0,0,1,3.41-1.54,4,4,0,0,1,2.19.79A4.62,4.62,0,0,1,374.79,185.65Zm-7.37,2.9a4.86,4.86,0,0,0,1.2,3.71,3.33,3.33,0,0,0,5,0,6.41,6.41,0,0,0,0-7.41,3.33,3.33,0,0,0-5,0A4.85,4.85,0,0,0,367.42,188.55Z"/><path class="cls-3" d="M384.78,183a4.29,4.29,0,0,1,3.48,1.53,6.07,6.07,0,0,1,1.29,4,6.15,6.15,0,0,1-1.29,4.13,4.28,4.28,0,0,1-3.48,1.52,4.37,4.37,0,0,1-3.51-1.51,6.23,6.23,0,0,1-1.28-4.14,6,6,0,0,1,1.29-4.06A4.35,4.35,0,0,1,384.78,183Zm0,.77A3.35,3.35,0,0,0,382,185a5.44,5.44,0,0,0-1,3.5,5.59,5.59,0,0,0,1,3.55,3.63,3.63,0,0,0,5.57,0,5.57,5.57,0,0,0,1-3.55,5.45,5.45,0,0,0-1-3.49A3.33,3.33,0,0,0,384.79,183.73Z"/><path class="cls-3" d="M393.81,179.08h.94v14.79h-.94Z"/><path class="cls-3" d="M399.86,179.08h.94v14.79h-.94Z"/><path class="cls-3" d="M414.06,187.79v6.08h-.94V191a4.46,4.46,0,0,1-2.1,2.7,5.09,5.09,0,0,1-2.07.47,4.05,4.05,0,0,1-2.71-.85,3.49,3.49,0,0,1,.3-5.15,6.89,6.89,0,0,1,4.21-1h2.35V187a3.2,3.2,0,0,0-.88-2.33,3.79,3.79,0,0,0-2.86-.92,6.36,6.36,0,0,0-2,.35,8.2,8.2,0,0,0-1.71.88V184a7.19,7.19,0,0,1,1.71-.74,8.43,8.43,0,0,1,2.21-.32,5,5,0,0,1,3.36,1.14C413.67,184.76,414.06,186,414.06,187.79Zm-3.54.07a5.6,5.6,0,0,0-3.29.75,2.55,2.55,0,0,0-1,2.2,2.27,2.27,0,0,0,.83,2,3.68,3.68,0,0,0,5.09-1.1,6.5,6.5,0,0,0,1-3.18v-.66Z"/><path class="cls-3" d="M425.29,184a2.76,2.76,0,0,0-.62-.18,5.4,5.4,0,0,0-.89-.06,3.86,3.86,0,0,0-2.9,1.2,4.82,4.82,0,0,0-.91,3.33v5.61H419V183.22H420v2a4.27,4.27,0,0,1,1.3-1.45A4.62,4.62,0,0,1,424,183c.27,0,.5,0,.7,0a2.4,2.4,0,0,1,.6.07Z"/><path class="cls-3" d="M434.42,183.53v1a8.54,8.54,0,0,0-1.25-.58,10.33,10.33,0,0,0-1.79-.19,4.68,4.68,0,0,0-2.56.6,1.94,1.94,0,0,0-.71,1.7,1.46,1.46,0,0,0,.67,1.26,5.56,5.56,0,0,0,2,.76l.65.13a6.54,6.54,0,0,1,2.48.95,2.22,2.22,0,0,1,1,1.8,3,3,0,0,1-1,2.37,5.21,5.21,0,0,1-3.31.85,8.52,8.52,0,0,1-1.94-.17c-.53-.14-1.08-.3-1.67-.5v-1.09a11.51,11.51,0,0,0,1.63.76,8.78,8.78,0,0,0,2,.24,3.94,3.94,0,0,0,2.46-.63,2.06,2.06,0,0,0,.8-1.69,1.48,1.48,0,0,0-.53-1.28,6.64,6.64,0,0,0-2.46-.93l-.66-.14a5.78,5.78,0,0,1-2.22-.89,2.11,2.11,0,0,1-.95-1.73,2.61,2.61,0,0,1,1.15-2.4,5.16,5.16,0,0,1,2.83-.74,8.64,8.64,0,0,1,2,.15A9.71,9.71,0,0,1,434.42,183.53Z"/><path class="cls-3" d="M447,180.2v3h3.9V184H447v6.4a3.07,3.07,0,0,0,.34,1.7,2.3,2.3,0,0,0,2,1.07h1.52v.74h-1.47a3.8,3.8,0,0,1-2.4-.76,3.28,3.28,0,0,1-1-2.75V184h-1.38v-.74H446v-3Z"/><path class="cls-3" d="M458.49,183a4.29,4.29,0,0,1,3.48,1.53,6.07,6.07,0,0,1,1.29,4,6.15,6.15,0,0,1-1.29,4.13,4.28,4.28,0,0,1-3.48,1.52,4.37,4.37,0,0,1-3.51-1.51,6.23,6.23,0,0,1-1.28-4.14,6,6,0,0,1,1.29-4.06A4.35,4.35,0,0,1,458.49,183Zm0,.77a3.35,3.35,0,0,0-2.78,1.31,5.44,5.44,0,0,0-1,3.5,5.59,5.59,0,0,0,1,3.55,3.63,3.63,0,0,0,5.57,0,5.57,5.57,0,0,0,1-3.55,5.45,5.45,0,0,0-1-3.49A3.32,3.32,0,0,0,458.5,183.73Z"/><path class="cls-3" d="M483,192.55c0,2.21-.45,3.66-1.37,4.34a5.59,5.59,0,0,1-3.47,1,12.52,12.52,0,0,1-1.88-.13,10.82,10.82,0,0,1-1.72-.43v-1a7.4,7.4,0,0,0,1.65.62,7,7,0,0,0,1.65.2,6.08,6.08,0,0,0,3-.68c.82-.45,1.24-1.66,1.24-3.64V191.2a4.2,4.2,0,0,1-1.17,1.72,3.76,3.76,0,0,1-2.54,1,4.28,4.28,0,0,1-3.42-1.43,7.2,7.2,0,0,1,0-8.05,4.28,4.28,0,0,1,3.42-1.43,3.74,3.74,0,0,1,2.41.82,5.05,5.05,0,0,1,1.3,1.7v-2.26H483Zm-.94-4.13a5.4,5.4,0,0,0-1-3.44,3.65,3.65,0,0,0-5.45,0,6.57,6.57,0,0,0,0,6.87,3.65,3.65,0,0,0,5.45,0A5.37,5.37,0,0,0,482.08,188.42Z"/><path class="cls-3" d="M491.33,183a4.29,4.29,0,0,1,3.48,1.53,6.07,6.07,0,0,1,1.29,4,6.15,6.15,0,0,1-1.29,4.13,4.28,4.28,0,0,1-3.48,1.52,4.37,4.37,0,0,1-3.51-1.51,6.23,6.23,0,0,1-1.28-4.14,6,6,0,0,1,1.29-4.06A4.35,4.35,0,0,1,491.33,183Zm0,.77a3.35,3.35,0,0,0-2.78,1.31,5.44,5.44,0,0,0-1,3.5,5.59,5.59,0,0,0,1,3.55,3.63,3.63,0,0,0,5.57,0,5.57,5.57,0,0,0,1-3.55,5.45,5.45,0,0,0-1-3.49A3.33,3.33,0,0,0,491.34,183.73Z"/><path class="cls-3" d="M515.4,187.79v6.08h-.94V191a4.46,4.46,0,0,1-2.1,2.7,5,5,0,0,1-2.07.47,4.05,4.05,0,0,1-2.71-.85,3.49,3.49,0,0,1,.3-5.15,6.91,6.91,0,0,1,4.21-1h2.35V187a3.23,3.23,0,0,0-.87-2.33,3.82,3.82,0,0,0-2.87-.92,6.36,6.36,0,0,0-2,.35A8.45,8.45,0,0,0,507,185V184a7.55,7.55,0,0,1,1.71-.74,8.44,8.44,0,0,1,2.22-.32,5,5,0,0,1,3.36,1.14Q515.4,185.09,515.4,187.79Zm-3.53.07a5.62,5.62,0,0,0-3.3.75,2.57,2.57,0,0,0-1,2.2,2.25,2.25,0,0,0,.84,2,3.66,3.66,0,0,0,5.08-1.1,6.5,6.5,0,0,0,1-3.18v-.66Z"/><path class="cls-3" d="M526.63,184a2.76,2.76,0,0,0-.62-.18,5.35,5.35,0,0,0-.88-.06,3.87,3.87,0,0,0-2.91,1.2,4.88,4.88,0,0,0-.9,3.33v5.61h-.93V183.22h.93v2a4.35,4.35,0,0,1,1.29-1.45,4.62,4.62,0,0,1,2.72-.81c.27,0,.5,0,.7,0a2.35,2.35,0,0,1,.6.07Z"/><path class="cls-3" d="M532.84,183a4.29,4.29,0,0,1,3.48,1.53,6.07,6.07,0,0,1,1.29,4,6.15,6.15,0,0,1-1.29,4.13,4.28,4.28,0,0,1-3.48,1.52,4.37,4.37,0,0,1-3.52-1.51,6.23,6.23,0,0,1-1.27-4.14,6.08,6.08,0,0,1,1.28-4.06A4.37,4.37,0,0,1,532.84,183Zm0,.77a3.33,3.33,0,0,0-2.78,1.31,5.44,5.44,0,0,0-1,3.5,5.59,5.59,0,0,0,1,3.55,3.63,3.63,0,0,0,5.57,0,5.63,5.63,0,0,0,1-3.55,5.51,5.51,0,0,0-1-3.49A3.33,3.33,0,0,0,532.85,183.73Z"/><path class="cls-3" d="M541.74,189.65v-6.43h1v6.37a4.55,4.55,0,0,0,.72,2.92,2.65,2.65,0,0,0,2.12.85,4.39,4.39,0,0,0,2.8-.92,3.82,3.82,0,0,0,1.18-3.2v-6h.94v10.65h-.94v-2a3.79,3.79,0,0,1-1.33,1.49,5,5,0,0,1-2.69.77,3.58,3.58,0,0,1-2.73-1.08A4.78,4.78,0,0,1,541.74,189.65Z"/><path class="cls-3" d="M564.14,187.44v6.43h-.95V187.5a4.55,4.55,0,0,0-.72-2.92,2.65,2.65,0,0,0-2.12-.85,4.41,4.41,0,0,0-2.81.92,3.84,3.84,0,0,0-1.17,3.2v6h-1V183.22h1v2a3.79,3.79,0,0,1,1.33-1.49,5,5,0,0,1,2.69-.77,3.58,3.58,0,0,1,2.73,1.08A4.78,4.78,0,0,1,564.14,187.44Z"/><path class="cls-3" d="M576.65,185.65v-6.57h.92v14.79h-.92v-2.41a4.72,4.72,0,0,1-1.42,1.9,4,4,0,0,1-2.19.79,4.38,4.38,0,0,1-3.41-1.54,6.73,6.73,0,0,1,0-8.11A4.38,4.38,0,0,1,573,183a4,4,0,0,1,2.19.79A4.72,4.72,0,0,1,576.65,185.65Zm-7.38,2.9a4.86,4.86,0,0,0,1.2,3.71,3.33,3.33,0,0,0,5,0,6.41,6.41,0,0,0,0-7.41,3.33,3.33,0,0,0-5,0A4.85,4.85,0,0,0,569.27,188.55Z"/><path class="cls-3" d="M41.18,200.6v3h3.9v.74h-3.9v6.4a3.07,3.07,0,0,0,.34,1.7,2.27,2.27,0,0,0,2,1.07h1.53v.74H43.61a3.8,3.8,0,0,1-2.4-.76,3.28,3.28,0,0,1-1-2.75v-6.4H38.84v-.74h1.38v-3Z"/><path class="cls-3" d="M57.35,207.84v6.43h-1V207.9a4.42,4.42,0,0,0-.75-2.91,2.86,2.86,0,0,0-2.27-.85,3.89,3.89,0,0,0-2.78,1,4.16,4.16,0,0,0-1,3.16v6h-.94V199.48h.94v6.11a3.43,3.43,0,0,1,1.18-1.45,4.55,4.55,0,0,1,2.84-.77,3.47,3.47,0,0,1,2.73,1.13A4.85,4.85,0,0,1,57.35,207.84Z"/><path class="cls-3" d="M62.18,199.48h.94v1.19h-.94Zm0,4.14h.94v10.65h-.94Z"/><path class="cls-3" d="M74.78,203.94v1a6.76,6.76,0,0,0-1.25-.57,8.68,8.68,0,0,0-1.79-.19,4.69,4.69,0,0,0-2.56.59,1.94,1.94,0,0,0-.71,1.7,1.45,1.45,0,0,0,.67,1.26,5.56,5.56,0,0,0,2,.76l.65.13a6.54,6.54,0,0,1,2.48.95,2.22,2.22,0,0,1,1,1.8,3,3,0,0,1-1,2.37,5.15,5.15,0,0,1-3.31.85,9.27,9.27,0,0,1-1.94-.16c-.53-.14-1.08-.31-1.67-.51v-1.09a10.41,10.41,0,0,0,1.63.76,8.79,8.79,0,0,0,2,.25,3.94,3.94,0,0,0,2.46-.64,2.06,2.06,0,0,0,.8-1.69,1.48,1.48,0,0,0-.53-1.28,6.64,6.64,0,0,0-2.46-.93l-.66-.14a5.78,5.78,0,0,1-2.22-.89,2.08,2.08,0,0,1-1-1.73,2.63,2.63,0,0,1,1.15-2.4,5.16,5.16,0,0,1,2.83-.73,8.81,8.81,0,0,1,2,.14A8.49,8.49,0,0,1,74.78,203.94Z"/><path class="cls-3" d="M90.21,215.26a4.88,4.88,0,0,1-1.32,2A3.11,3.11,0,0,1,87,218H85.6v-.74h1.21a2,2,0,0,0,1.31-.45,4.16,4.16,0,0,0,1.21-1.7l.34-.79-4.61-10.65h1l4.1,9.49,4.11-9.49h1Z"/><path class="cls-3" d="M108,208.51v.55H99.23a4.87,4.87,0,0,0,1.08,3.6,5,5,0,0,0,3.56,1.14,7.62,7.62,0,0,0,1.63-.25,10,10,0,0,0,2-.74v.92a11.64,11.64,0,0,1-2.09.61,9.31,9.31,0,0,1-1.7.21,4.91,4.91,0,0,1-5.48-5.49,5.94,5.94,0,0,1,1.34-4.24,5,5,0,0,1,3.81-1.45,4.23,4.23,0,0,1,3.42,1.37A5.87,5.87,0,0,1,108,208.51Zm-1-.19a4.32,4.32,0,0,0-1.09-3.27,3.39,3.39,0,0,0-2.5-.91,4.38,4.38,0,0,0-2.88,1,4.63,4.63,0,0,0-1.29,3.23Z"/><path class="cls-3" d="M120.31,208.2v6.07h-.94v-2.89a4.46,4.46,0,0,1-2.1,2.7,5,5,0,0,1-2.07.47,4,4,0,0,1-2.71-.85,3.49,3.49,0,0,1,.3-5.15,6.91,6.91,0,0,1,4.21-1h2.35v-.17a3.23,3.23,0,0,0-.87-2.33,3.83,3.83,0,0,0-2.87-.91,6.34,6.34,0,0,0-2,.34,8.2,8.2,0,0,0-1.71.88v-.94a8,8,0,0,1,1.71-.74,8.42,8.42,0,0,1,2.22-.31,5,5,0,0,1,3.36,1.14Q120.31,205.49,120.31,208.2Zm-3.53.06a5.62,5.62,0,0,0-3.3.75,2.59,2.59,0,0,0-1,2.2,2.28,2.28,0,0,0,.84,2,3.33,3.33,0,0,0,2,.59,3.28,3.28,0,0,0,3.11-1.7,6.47,6.47,0,0,0,1-3.18v-.66Z"/><path class="cls-3" d="M131.54,204.37a2.76,2.76,0,0,0-.62-.18,5.49,5.49,0,0,0-.88-.05,3.9,3.9,0,0,0-2.91,1.19,4.88,4.88,0,0,0-.9,3.33v5.61h-.93V203.62h.93v2a4.24,4.24,0,0,1,1.29-1.45,4.62,4.62,0,0,1,2.72-.8l.7,0a2.9,2.9,0,0,1,.6.07Z"/><path class="cls-3" d="M132.64,213.07h1.05v1.2h-1.05Z"/><path class="cls-3" d="M150.1,200.08h1.35l5.88,14.19h-1.17l-1.83-4.46h-7.18l-1.83,4.46h-1.09Zm.66,1-3.29,8H154Z"/><path class="cls-3" d="M167.14,203.94v1a6.81,6.81,0,0,0-1.24-.57,8.68,8.68,0,0,0-1.79-.19,4.69,4.69,0,0,0-2.56.59,1.94,1.94,0,0,0-.71,1.7,1.43,1.43,0,0,0,.67,1.26,5.49,5.49,0,0,0,2,.76l.65.13a6.54,6.54,0,0,1,2.48.95,2.24,2.24,0,0,1,1,1.8,3,3,0,0,1-1,2.37,5.15,5.15,0,0,1-3.31.85,9.2,9.2,0,0,1-1.94-.16c-.53-.14-1.09-.31-1.67-.51v-1.09a10.41,10.41,0,0,0,1.63.76,8.79,8.79,0,0,0,2,.25,3.94,3.94,0,0,0,2.46-.64,2.08,2.08,0,0,0,.8-1.69,1.51,1.51,0,0,0-.53-1.28,6.63,6.63,0,0,0-2.47-.93l-.65-.14a5.78,5.78,0,0,1-2.22-.89,2.09,2.09,0,0,1-1-1.73,2.63,2.63,0,0,1,1.16-2.4,5.16,5.16,0,0,1,2.83-.73,8.93,8.93,0,0,1,2,.14A8,8,0,0,1,167.14,203.94Z"/><path class="cls-3" d="M178.69,199.48h.95v14.79h-.95Z"/><path class="cls-3" d="M188.81,203.37a4.28,4.28,0,0,1,3.48,1.52,7.13,7.13,0,0,1,0,8.18,4.28,4.28,0,0,1-3.48,1.52,4.35,4.35,0,0,1-3.51-1.51A6.13,6.13,0,0,1,184,209a6,6,0,0,1,1.29-4.07A4.33,4.33,0,0,1,188.81,203.37Zm0,.77a3.33,3.33,0,0,0-2.78,1.3,5.44,5.44,0,0,0-1,3.5,5.57,5.57,0,0,0,1,3.55,3.62,3.62,0,0,0,5.57,0,5.57,5.57,0,0,0,1-3.55,5.47,5.47,0,0,0-1-3.49A3.32,3.32,0,0,0,188.82,204.14Z"/><path class="cls-3" d="M206.55,207.84v6.43h-1V207.9a4.57,4.57,0,0,0-.72-2.92,2.64,2.64,0,0,0-2.12-.84,4.38,4.38,0,0,0-2.8.91,3.82,3.82,0,0,0-1.18,3.2v6h-.94V203.62h.94v2a3.7,3.7,0,0,1,1.33-1.48,4.88,4.88,0,0,1,2.69-.77,3.57,3.57,0,0,1,2.73,1.07A4.78,4.78,0,0,1,206.55,207.84Z"/><path class="cls-3" d="M220,213c0,2.21-.46,3.66-1.37,4.34a5.64,5.64,0,0,1-3.48,1,12.52,12.52,0,0,1-1.88-.13,11.09,11.09,0,0,1-1.72-.43v-1a7.59,7.59,0,0,0,1.65.62,7,7,0,0,0,1.66.2,6.06,6.06,0,0,0,2.95-.67c.83-.45,1.24-1.67,1.24-3.65V211.6a4.11,4.11,0,0,1-1.17,1.72,3.76,3.76,0,0,1-2.54,1,4.28,4.28,0,0,1-3.42-1.43,7.18,7.18,0,0,1,0-8,4.25,4.25,0,0,1,3.42-1.43,3.73,3.73,0,0,1,2.41.81,5.05,5.05,0,0,1,1.3,1.7v-2.26H220Zm-.95-4.13a5.37,5.37,0,0,0-1-3.43,3.62,3.62,0,0,0-5.44,0,6.49,6.49,0,0,0,0,6.86,3.64,3.64,0,0,0,5.44,0A5.37,5.37,0,0,0,219.06,208.82Z"/><path class="cls-3" d="M239.28,208.2v6.07h-.93v-2.89a4.46,4.46,0,0,1-2.1,2.7,5.09,5.09,0,0,1-2.07.47,4,4,0,0,1-2.71-.85,3.49,3.49,0,0,1,.3-5.15,6.89,6.89,0,0,1,4.21-1h2.35v-.17a3.2,3.2,0,0,0-.88-2.33,3.8,3.8,0,0,0-2.86-.91,6.34,6.34,0,0,0-2,.34,8.2,8.2,0,0,0-1.71.88v-.94a7.62,7.62,0,0,1,1.71-.74,8.4,8.4,0,0,1,2.21-.31,5,5,0,0,1,3.36,1.14Q239.28,205.49,239.28,208.2Zm-3.53.06a5.6,5.6,0,0,0-3.29.75,2.56,2.56,0,0,0-1,2.2,2.28,2.28,0,0,0,.83,2,3.38,3.38,0,0,0,2,.59,3.29,3.29,0,0,0,3.11-1.7,6.47,6.47,0,0,0,1-3.18v-.66Z"/><path class="cls-3" d="M250.78,203.94v1a6.81,6.81,0,0,0-1.24-.57,8.68,8.68,0,0,0-1.79-.19,4.69,4.69,0,0,0-2.56.59,1.94,1.94,0,0,0-.71,1.7,1.43,1.43,0,0,0,.67,1.26,5.49,5.49,0,0,0,2,.76l.65.13a6.54,6.54,0,0,1,2.48.95,2.24,2.24,0,0,1,1,1.8,3,3,0,0,1-1,2.37,5.15,5.15,0,0,1-3.31.85,9.2,9.2,0,0,1-1.94-.16c-.53-.14-1.09-.31-1.67-.51v-1.09a10.41,10.41,0,0,0,1.63.76,8.79,8.79,0,0,0,2,.25,3.94,3.94,0,0,0,2.46-.64,2.08,2.08,0,0,0,.8-1.69,1.51,1.51,0,0,0-.53-1.28,6.63,6.63,0,0,0-2.47-.93l-.65-.14a5.78,5.78,0,0,1-2.22-.89,2.09,2.09,0,0,1-1-1.73,2.63,2.63,0,0,1,1.16-2.4,5.16,5.16,0,0,1,2.83-.73,8.93,8.93,0,0,1,2,.14A8,8,0,0,1,250.78,203.94Z"/><path class="cls-3" d="M263.33,200.6v3h3.9v.74h-3.9v6.4a3.07,3.07,0,0,0,.34,1.7,2.28,2.28,0,0,0,2,1.07h1.52v.74h-1.47a3.8,3.8,0,0,1-2.4-.76,3.28,3.28,0,0,1-1-2.75v-6.4H261v-.74h1.38v-3Z"/><path class="cls-3" d="M279.5,207.84v6.43h-.94V207.9a4.36,4.36,0,0,0-.76-2.91,2.86,2.86,0,0,0-2.27-.85,3.87,3.87,0,0,0-2.77,1,4.16,4.16,0,0,0-1,3.16v6h-.95V199.48h.95v6.11a3.4,3.4,0,0,1,1.17-1.45,4.55,4.55,0,0,1,2.84-.77,3.47,3.47,0,0,1,2.73,1.13A4.85,4.85,0,0,1,279.5,207.84Z"/><path class="cls-3" d="M284.33,199.48h.95v1.19h-.95Zm0,4.14h.95v10.65h-.95Z"/><path class="cls-3" d="M296.93,203.94v1a6.76,6.76,0,0,0-1.25-.57,8.68,8.68,0,0,0-1.79-.19,4.65,4.65,0,0,0-2.55.59,1.91,1.91,0,0,0-.71,1.7,1.43,1.43,0,0,0,.67,1.26,5.51,5.51,0,0,0,2,.76l.65.13a6.6,6.6,0,0,1,2.49.95,2.27,2.27,0,0,1,1,1.8,3,3,0,0,1-1,2.37,5.18,5.18,0,0,1-3.32.85,9.27,9.27,0,0,1-1.94-.16c-.52-.14-1.08-.31-1.66-.51v-1.09a10.47,10.47,0,0,0,1.62.76,8.86,8.86,0,0,0,2,.25,3.94,3.94,0,0,0,2.46-.64,2.07,2.07,0,0,0,.81-1.69,1.49,1.49,0,0,0-.54-1.28,6.5,6.5,0,0,0-2.46-.93l-.66-.14a5.66,5.66,0,0,1-2.21-.89,2.09,2.09,0,0,1-1-1.73,2.63,2.63,0,0,1,1.15-2.4,5.16,5.16,0,0,1,2.83-.73,8.81,8.81,0,0,1,2,.14A8.49,8.49,0,0,1,296.93,203.94Z"/><path class="cls-3" d="M316.38,204.14v.93a7.9,7.9,0,0,0-1.42-.66,6.7,6.7,0,0,0-1.83-.27,4.67,4.67,0,0,0-3.57,1.17,6.67,6.67,0,0,0,0,7.31,4.67,4.67,0,0,0,3.57,1.18,6.45,6.45,0,0,0,1.63-.21,8.23,8.23,0,0,0,1.62-.61v.88a8.68,8.68,0,0,1-1.64.52,9,9,0,0,1-1.69.17,6,6,0,0,1-4-1.27c-1-.85-1.49-2.29-1.49-4.32s.49-3.48,1.49-4.33a6.06,6.06,0,0,1,4-1.26,7.94,7.94,0,0,1,1.75.21A6.46,6.46,0,0,1,316.38,204.14Z"/><path class="cls-3" d="M328.41,208.2v6.07h-.94v-2.89a4.46,4.46,0,0,1-2.1,2.7,5,5,0,0,1-2.07.47,4,4,0,0,1-2.71-.85,3.49,3.49,0,0,1,.3-5.15,6.91,6.91,0,0,1,4.21-1h2.35v-.17a3.23,3.23,0,0,0-.87-2.33,3.83,3.83,0,0,0-2.87-.91,6.34,6.34,0,0,0-2,.34,8.2,8.2,0,0,0-1.71.88v-.94a7.62,7.62,0,0,1,1.71-.74,8.42,8.42,0,0,1,2.22-.31,5,5,0,0,1,3.36,1.14Q328.41,205.49,328.41,208.2Zm-3.53.06a5.62,5.62,0,0,0-3.3.75,2.59,2.59,0,0,0-1,2.2,2.28,2.28,0,0,0,.84,2,3.33,3.33,0,0,0,2,.59,3.29,3.29,0,0,0,3.11-1.7,6.47,6.47,0,0,0,1-3.18v-.66Z"/><path class="cls-3" d="M339.64,204.37a2.76,2.76,0,0,0-.62-.18,5.49,5.49,0,0,0-.88-.05,3.9,3.9,0,0,0-2.91,1.19,4.88,4.88,0,0,0-.9,3.33v5.61h-.93V203.62h.93v2a4.35,4.35,0,0,1,1.29-1.45,4.62,4.62,0,0,1,2.72-.8l.7,0a2.9,2.9,0,0,1,.6.07Z"/><path class="cls-3" d="M349.53,206.06v-6.58h.93v14.79h-.93v-2.41a4.55,4.55,0,0,1-1.41,1.9,4,4,0,0,1-2.19.79,4.38,4.38,0,0,1-3.41-1.54,6.71,6.71,0,0,1,0-8.1,4.35,4.35,0,0,1,3.41-1.54,4,4,0,0,1,2.19.78A4.59,4.59,0,0,1,349.53,206.06Zm-7.37,2.9a4.89,4.89,0,0,0,1.19,3.7,3.34,3.34,0,0,0,5,0,6.41,6.41,0,0,0,0-7.41,3.36,3.36,0,0,0-5,0A4.92,4.92,0,0,0,342.16,209Z"/><path class="cls-3" d="M362.32,199.48h.95v1.19h-.95Zm0,4.14h.95v10.65h-.95Z"/><path class="cls-3" d="M374.92,203.94v1a6.81,6.81,0,0,0-1.24-.57,8.68,8.68,0,0,0-1.79-.19,4.69,4.69,0,0,0-2.56.59,1.94,1.94,0,0,0-.71,1.7,1.43,1.43,0,0,0,.67,1.26,5.49,5.49,0,0,0,2,.76l.65.13a6.54,6.54,0,0,1,2.48.95,2.24,2.24,0,0,1,1,1.8,3,3,0,0,1-1,2.37,5.15,5.15,0,0,1-3.31.85,9.2,9.2,0,0,1-1.94-.16c-.53-.14-1.09-.31-1.67-.51v-1.09a10.41,10.41,0,0,0,1.63.76,8.79,8.79,0,0,0,2,.25,3.94,3.94,0,0,0,2.46-.64,2.08,2.08,0,0,0,.8-1.69,1.51,1.51,0,0,0-.53-1.28,6.63,6.63,0,0,0-2.47-.93l-.65-.14a5.78,5.78,0,0,1-2.22-.89,2.09,2.09,0,0,1-1-1.73,2.63,2.63,0,0,1,1.16-2.4,5.16,5.16,0,0,1,2.83-.73,8.93,8.93,0,0,1,2,.14A8,8,0,0,1,374.92,203.94Z"/><path class="cls-3" d="M390.54,203.37a4.28,4.28,0,0,1,3.48,1.52,7.13,7.13,0,0,1,0,8.18,4.28,4.28,0,0,1-3.48,1.52,4.34,4.34,0,0,1-3.51-1.51,6.13,6.13,0,0,1-1.28-4.13,6,6,0,0,1,1.29-4.07A4.33,4.33,0,0,1,390.54,203.37Zm0,.77a3.33,3.33,0,0,0-2.78,1.3,5.44,5.44,0,0,0-1,3.5,5.57,5.57,0,0,0,1,3.55,3.62,3.62,0,0,0,5.57,0,5.57,5.57,0,0,0,1-3.55,5.47,5.47,0,0,0-1-3.49A3.32,3.32,0,0,0,390.55,204.14Z"/><path class="cls-3" d="M408.28,207.84v6.43h-.95V207.9a4.57,4.57,0,0,0-.72-2.92,2.64,2.64,0,0,0-2.12-.84,4.38,4.38,0,0,0-2.8.91,3.85,3.85,0,0,0-1.18,3.2v6h-.94V203.62h.94v2a3.7,3.7,0,0,1,1.33-1.48,4.88,4.88,0,0,1,2.69-.77,3.57,3.57,0,0,1,2.73,1.07A4.78,4.78,0,0,1,408.28,207.84Z"/><path class="cls-3" d="M421,200.6v3h3.9v.74H421v6.4a3.07,3.07,0,0,0,.34,1.7,2.29,2.29,0,0,0,2,1.07h1.52v.74h-1.47a3.8,3.8,0,0,1-2.4-.76,3.28,3.28,0,0,1-1-2.75v-6.4h-1.38v-.74h1.38v-3Z"/><path class="cls-3" d="M437.19,207.84v6.43h-.94V207.9a4.42,4.42,0,0,0-.75-2.91,2.9,2.9,0,0,0-2.28-.85,3.87,3.87,0,0,0-2.77,1,4.16,4.16,0,0,0-1,3.16v6h-.95V199.48h.95v6.11a3.4,3.4,0,0,1,1.17-1.45,4.58,4.58,0,0,1,2.85-.77,3.45,3.45,0,0,1,2.72,1.13A4.85,4.85,0,0,1,437.19,207.84Z"/><path class="cls-3" d="M451,208.51v.55h-8.75a4.87,4.87,0,0,0,1.08,3.6,5,5,0,0,0,3.55,1.14,7.7,7.7,0,0,0,1.64-.25,10,10,0,0,0,2-.74v.92a11.89,11.89,0,0,1-2.09.61,9.41,9.41,0,0,1-1.7.21,4.9,4.9,0,0,1-5.48-5.49,5.9,5.9,0,0,1,1.34-4.24,5,5,0,0,1,3.81-1.45,4.23,4.23,0,0,1,3.42,1.37A5.92,5.92,0,0,1,451,208.51Zm-1-.19a4.29,4.29,0,0,0-1.09-3.27,3.36,3.36,0,0,0-2.49-.91,4.39,4.39,0,0,0-2.89,1,4.59,4.59,0,0,0-1.28,3.23Z"/><path class="cls-3" d="M463.1,200.6v3H467v.74h-3.9v6.4a3.07,3.07,0,0,0,.34,1.7,2.3,2.3,0,0,0,2,1.07H467v.74h-1.47a3.8,3.8,0,0,1-2.4-.76,3.28,3.28,0,0,1-1-2.75v-6.4h-1.38v-.74h1.38v-3Z"/><path class="cls-3" d="M478.71,208.2v6.07h-.94v-2.89a4.46,4.46,0,0,1-2.1,2.7,5,5,0,0,1-2.07.47,4,4,0,0,1-2.71-.85,3.49,3.49,0,0,1,.3-5.15,6.91,6.91,0,0,1,4.21-1h2.35v-.17a3.23,3.23,0,0,0-.87-2.33,3.83,3.83,0,0,0-2.87-.91,6.34,6.34,0,0,0-2,.34,8.2,8.2,0,0,0-1.71.88v-.94a7.62,7.62,0,0,1,1.71-.74,8.42,8.42,0,0,1,2.22-.31,5,5,0,0,1,3.36,1.14Q478.71,205.49,478.71,208.2Zm-3.53.06a5.62,5.62,0,0,0-3.3.75,2.59,2.59,0,0,0-1,2.2,2.28,2.28,0,0,0,.84,2,3.33,3.33,0,0,0,2,.59,3.29,3.29,0,0,0,3.11-1.7,6.47,6.47,0,0,0,1-3.18v-.66Z"/><path class="cls-3" d="M484.63,206.06a4.59,4.59,0,0,1,1.41-1.91,4,4,0,0,1,2.19-.78,4.35,4.35,0,0,1,3.41,1.54,6.71,6.71,0,0,1,0,8.1,4.38,4.38,0,0,1-3.41,1.54,4,4,0,0,1-2.19-.79,4.55,4.55,0,0,1-1.41-1.9v2.41h-.93V199.48h.93ZM492,209a4.92,4.92,0,0,0-1.19-3.71,3.36,3.36,0,0,0-5,0,6.41,6.41,0,0,0,0,7.41,3.34,3.34,0,0,0,5,0A4.89,4.89,0,0,0,492,209Z"/><path class="cls-3" d="M497.26,199.48h.95v14.79h-.95Z"/><path class="cls-3" d="M512.3,208.51v.55h-8.75a4.87,4.87,0,0,0,1.08,3.6,5,5,0,0,0,3.55,1.14,7.7,7.7,0,0,0,1.64-.25,10.46,10.46,0,0,0,2-.74v.92a11.89,11.89,0,0,1-2.09.61,9.41,9.41,0,0,1-1.7.21,4.9,4.9,0,0,1-5.48-5.49,5.9,5.9,0,0,1,1.34-4.24,5,5,0,0,1,3.81-1.45,4.23,4.23,0,0,1,3.42,1.37A5.92,5.92,0,0,1,512.3,208.51Zm-1-.19a4.29,4.29,0,0,0-1.09-3.27,3.36,3.36,0,0,0-2.49-.91,4.39,4.39,0,0,0-2.89,1,4.59,4.59,0,0,0-1.28,3.23Z"/><path class="cls-3" d="M516.91,213.07h1v.42l-.82,3h-.63l.41-3Z"/><path class="cls-3" d="M539.26,208.51v.55H530.5a4.87,4.87,0,0,0,1.08,3.6,5,5,0,0,0,3.56,1.14,7.7,7.7,0,0,0,1.64-.25,10.15,10.15,0,0,0,2-.74v.92a11.64,11.64,0,0,1-2.09.61,9.31,9.31,0,0,1-1.7.21,4.91,4.91,0,0,1-5.48-5.49,5.94,5.94,0,0,1,1.34-4.24,5,5,0,0,1,3.81-1.45,4.22,4.22,0,0,1,3.42,1.37A5.87,5.87,0,0,1,539.26,208.51Zm-1-.19a4.29,4.29,0,0,0-1.09-3.27,3.37,3.37,0,0,0-2.5-.91,4.38,4.38,0,0,0-2.88,1,4.63,4.63,0,0,0-1.29,3.23Z"/><path class="cls-3" d="M551.58,208.2v6.07h-.94v-2.89a4.46,4.46,0,0,1-2.1,2.7,5,5,0,0,1-2.07.47,4,4,0,0,1-2.71-.85,3.49,3.49,0,0,1,.3-5.15,6.91,6.91,0,0,1,4.21-1h2.35v-.17a3.23,3.23,0,0,0-.87-2.33,3.83,3.83,0,0,0-2.87-.91,6.34,6.34,0,0,0-2,.34,8.2,8.2,0,0,0-1.71.88v-.94a7.82,7.82,0,0,1,1.71-.74,8.42,8.42,0,0,1,2.22-.31,5,5,0,0,1,3.36,1.14Q551.58,205.49,551.58,208.2Zm-3.53.06a5.62,5.62,0,0,0-3.3.75,2.59,2.59,0,0,0-1,2.2,2.28,2.28,0,0,0,.84,2,3.33,3.33,0,0,0,2,.59,3.28,3.28,0,0,0,3.11-1.7,6.47,6.47,0,0,0,1-3.18v-.66Z"/><path class="cls-3" d="M564.45,204.14v.93a7.56,7.56,0,0,0-1.41-.66,6.76,6.76,0,0,0-1.83-.27,4.68,4.68,0,0,0-3.58,1.17,6.72,6.72,0,0,0,0,7.31,4.69,4.69,0,0,0,3.58,1.18,6.37,6.37,0,0,0,1.62-.21,8,8,0,0,0,1.62-.61v.88a8.46,8.46,0,0,1-1.64.52,8.89,8.89,0,0,1-1.69.17,6,6,0,0,1-4-1.27q-1.5-1.28-1.5-4.32c0-2,.5-3.48,1.5-4.33a6,6,0,0,1,4-1.26,7.87,7.87,0,0,1,1.75.21A6.32,6.32,0,0,1,564.45,204.14Z"/><path class="cls-3" d="M577.05,207.84v6.43h-.95V207.9a4.42,4.42,0,0,0-.75-2.91,2.86,2.86,0,0,0-2.27-.85,3.89,3.89,0,0,0-2.78,1,4.16,4.16,0,0,0-1,3.16v6h-.94V199.48h.94v6.11a3.43,3.43,0,0,1,1.18-1.45,4.55,4.55,0,0,1,2.84-.77A3.47,3.47,0,0,1,576,204.5,4.85,4.85,0,0,1,577.05,207.84Z"/><path class="cls-3" d="M101.43,233.35c0,2.21-.46,3.66-1.37,4.35a5.65,5.65,0,0,1-3.47,1,12.56,12.56,0,0,1-1.89-.13,11.09,11.09,0,0,1-1.72-.43v-1a7.78,7.78,0,0,0,1.65.62,7.11,7.11,0,0,0,1.66.2,6,6,0,0,0,2.95-.67c.83-.45,1.24-1.67,1.24-3.65V232a4.18,4.18,0,0,1-1.16,1.72,3.8,3.8,0,0,1-2.55.95,4.25,4.25,0,0,1-3.42-1.43,7.23,7.23,0,0,1,0-8,4.25,4.25,0,0,1,3.42-1.43,3.71,3.71,0,0,1,2.41.81,5,5,0,0,1,1.3,1.71V224h1Zm-1-4.13a5.37,5.37,0,0,0-1-3.43,3.63,3.63,0,0,0-5.45,0,6.49,6.49,0,0,0,0,6.86,3.65,3.65,0,0,0,5.45,0A5.37,5.37,0,0,0,100.48,229.22Z"/><path class="cls-3" d="M111.93,224.77a2.76,2.76,0,0,0-.62-.18,5.55,5.55,0,0,0-.89-.05,3.89,3.89,0,0,0-2.9,1.19,4.88,4.88,0,0,0-.91,3.33v5.61h-.92V224h.92v2a4.27,4.27,0,0,1,1.3-1.45,4.69,4.69,0,0,1,2.72-.8l.7,0a2.9,2.9,0,0,1,.6.07Z"/><path class="cls-3" d="M122.68,228.6v6.07h-.94v-2.89a4.43,4.43,0,0,1-2.1,2.7,5.09,5.09,0,0,1-2.07.47,4,4,0,0,1-2.71-.85,3.49,3.49,0,0,1,.3-5.15,6.89,6.89,0,0,1,4.21-1h2.35v-.17a3.2,3.2,0,0,0-.88-2.33,3.79,3.79,0,0,0-2.86-.91,6.34,6.34,0,0,0-2,.34,8.2,8.2,0,0,0-1.71.88v-.94a7.62,7.62,0,0,1,1.71-.74,8.4,8.4,0,0,1,2.21-.31,5,5,0,0,1,3.36,1.14C122.29,225.56,122.68,226.79,122.68,228.6Zm-3.54.06a5.6,5.6,0,0,0-3.29.75,2.56,2.56,0,0,0-1,2.2,2.3,2.3,0,0,0,.83,2,3.38,3.38,0,0,0,2,.59,3.29,3.29,0,0,0,3.11-1.7,6.47,6.47,0,0,0,1-3.18v-.66Z"/><path class="cls-3" d="M136.36,228.24v6.43h-1V228.3a4.57,4.57,0,0,0-.72-2.92,2.64,2.64,0,0,0-2.12-.84,4.38,4.38,0,0,0-2.8.91,3.82,3.82,0,0,0-1.18,3.2v6h-1V224h1v2a3.7,3.7,0,0,1,1.33-1.48,4.88,4.88,0,0,1,2.69-.77,3.57,3.57,0,0,1,2.73,1.07A4.78,4.78,0,0,1,136.36,228.24Z"/><path class="cls-3" d="M142.2,221v3h3.91v.74H142.2v6.4a3.23,3.23,0,0,0,.34,1.71,2.29,2.29,0,0,0,2,1.06h1.53v.74h-1.48a3.8,3.8,0,0,1-2.4-.76,3.28,3.28,0,0,1-1-2.75v-6.4h-1.38V224h1.38v-3Z"/><path class="cls-3" d="M162.82,224.77a2.76,2.76,0,0,0-.62-.18,5.49,5.49,0,0,0-.88-.05,3.9,3.9,0,0,0-2.91,1.19,4.88,4.88,0,0,0-.9,3.33v5.61h-.93V224h.93v2a4.35,4.35,0,0,1,1.29-1.45,4.69,4.69,0,0,1,2.72-.8l.7,0a2.9,2.9,0,0,1,.6.07Z"/><path class="cls-3" d="M174,228.91v.55h-8.76a4.87,4.87,0,0,0,1.09,3.6,5,5,0,0,0,3.55,1.14,7.7,7.7,0,0,0,1.64-.25,10.46,10.46,0,0,0,2-.74v.92a11.89,11.89,0,0,1-2.09.61,9.41,9.41,0,0,1-1.7.21,4.9,4.9,0,0,1-5.48-5.49,5.9,5.9,0,0,1,1.34-4.24,5,5,0,0,1,3.81-1.45,4.23,4.23,0,0,1,3.42,1.37A5.92,5.92,0,0,1,174,228.91Zm-1-.19a4.29,4.29,0,0,0-1.09-3.27,3.36,3.36,0,0,0-2.49-.91,4.39,4.39,0,0,0-2.89,1,4.59,4.59,0,0,0-1.28,3.23Z"/><path class="cls-3" d="M177.08,224h1l2.71,9.49,2.69-9.49h1.21l2.7,9.54,2.7-9.54h1l-3,10.65h-1.31l-2.66-9.34-2.65,9.34h-1.3Z"/><path class="cls-3" d="M203.71,228.6v6.07h-.93v-2.89a4.43,4.43,0,0,1-2.1,2.7,5.09,5.09,0,0,1-2.07.47,4,4,0,0,1-2.71-.85,3.49,3.49,0,0,1,.3-5.15,6.89,6.89,0,0,1,4.21-1h2.35v-.17a3.2,3.2,0,0,0-.88-2.33,3.8,3.8,0,0,0-2.86-.91,6.34,6.34,0,0,0-2,.34,8.2,8.2,0,0,0-1.71.88v-.94a7.62,7.62,0,0,1,1.71-.74,8.4,8.4,0,0,1,2.21-.31,5,5,0,0,1,3.36,1.14Q203.71,225.89,203.71,228.6Zm-3.53.06a5.6,5.6,0,0,0-3.29.75,2.56,2.56,0,0,0-1,2.2,2.28,2.28,0,0,0,.83,2,3.38,3.38,0,0,0,2,.59,3.29,3.29,0,0,0,3.11-1.7,6.47,6.47,0,0,0,1-3.18v-.66Z"/><path class="cls-3" d="M215,224.77a2.76,2.76,0,0,0-.62-.18,5.63,5.63,0,0,0-.89-.05,3.88,3.88,0,0,0-2.9,1.19,4.82,4.82,0,0,0-.91,3.33v5.61h-.93V224h.93v2a4.27,4.27,0,0,1,1.3-1.45,4.67,4.67,0,0,1,2.72-.8l.7,0a3,3,0,0,1,.6.07Z"/><path class="cls-3" d="M224.84,226.46v-6.58h.93v14.79h-.93v-2.41a4.55,4.55,0,0,1-1.41,1.9,4,4,0,0,1-2.2.79,4.39,4.39,0,0,1-3.41-1.54,6.71,6.71,0,0,1,0-8.1,4.36,4.36,0,0,1,3.41-1.54,4,4,0,0,1,2.2.78A4.59,4.59,0,0,1,224.84,226.46Zm-7.38,2.9a4.85,4.85,0,0,0,1.2,3.7,3.33,3.33,0,0,0,5,0,6.36,6.36,0,0,0,0-7.41,3.35,3.35,0,0,0-5,0A4.88,4.88,0,0,0,217.46,229.36Z"/><path class="cls-3" d="M237.29,224.34v1a7.09,7.09,0,0,0-1.25-.57,8.68,8.68,0,0,0-1.79-.19,4.78,4.78,0,0,0-2.56.59,1.94,1.94,0,0,0-.71,1.7,1.43,1.43,0,0,0,.67,1.26,5.49,5.49,0,0,0,2,.76l.65.14a6.39,6.39,0,0,1,2.48.94,2.24,2.24,0,0,1,1,1.8,3,3,0,0,1-1,2.37,5.15,5.15,0,0,1-3.31.85,9.27,9.27,0,0,1-1.94-.16c-.53-.14-1.08-.31-1.67-.51v-1.09a10.41,10.41,0,0,0,1.63.76,8.79,8.79,0,0,0,2,.25,3.94,3.94,0,0,0,2.46-.64,2.08,2.08,0,0,0,.8-1.69,1.51,1.51,0,0,0-.53-1.28,6.64,6.64,0,0,0-2.46-.93l-.66-.14a5.78,5.78,0,0,1-2.22-.89,2.09,2.09,0,0,1-1-1.73,2.63,2.63,0,0,1,1.16-2.4,5.16,5.16,0,0,1,2.83-.73,8.93,8.93,0,0,1,2,.14A9.76,9.76,0,0,1,237.29,224.34Z"/><path class="cls-3" d="M249,233.9h8.78v.77H247.9v-1l3.83-3.68q1.43-1.32,2.58-2.46a10.65,10.65,0,0,0,1.43-1.63,2.9,2.9,0,0,0,.36-1.54,3.41,3.41,0,0,0-1.09-2.64,3.75,3.75,0,0,0-2.56-.72,6.27,6.27,0,0,0-2.36.55,17.76,17.76,0,0,0-2,1.09v-1a11.28,11.28,0,0,1,1.75-.87,7,7,0,0,1,2.59-.55,5.62,5.62,0,0,1,3.33.94,3.57,3.57,0,0,1,1.31,3.11,4,4,0,0,1-.35,1.65,7.09,7.09,0,0,1-1.3,1.86c-.17.18-.72.71-1.64,1.59Z"/><path class="cls-3" d="M274.3,219.88v.74H273a2.35,2.35,0,0,0-1.61.5,2.54,2.54,0,0,0-.68,2V224h3.11v.74h-3.11v9.91h-.95v-9.91H267.9V224h1.82v-.74a3.4,3.4,0,0,1,.87-2.59,3.36,3.36,0,0,1,2.39-.81Z"/><path class="cls-3" d="M285.94,228.91v.55h-8.75a4.87,4.87,0,0,0,1.08,3.6,5,5,0,0,0,3.55,1.14,7.7,7.7,0,0,0,1.64-.25,10,10,0,0,0,2-.74v.92a11.89,11.89,0,0,1-2.09.61,9.41,9.41,0,0,1-1.7.21,4.9,4.9,0,0,1-5.48-5.49,5.94,5.94,0,0,1,1.34-4.24,5,5,0,0,1,3.81-1.45,4.23,4.23,0,0,1,3.42,1.37A5.92,5.92,0,0,1,285.94,228.91Zm-1-.19a4.29,4.29,0,0,0-1.09-3.27,3.36,3.36,0,0,0-2.49-.91,4.35,4.35,0,0,0-2.88,1,4.55,4.55,0,0,0-1.29,3.23Z"/><path class="cls-3" d="M289.07,224h1l2.71,9.49,2.68-9.49h1.21l2.71,9.54,2.7-9.54h1l-3,10.65H298.7L296,225.33l-2.65,9.34H292.1Z"/><path class="cls-3" d="M316.55,228.91v.55H307.8a4.87,4.87,0,0,0,1.08,3.6,5,5,0,0,0,3.55,1.14,7.61,7.61,0,0,0,1.64-.25,10,10,0,0,0,2-.74v.92a11.89,11.89,0,0,1-2.09.61,9.41,9.41,0,0,1-1.7.21,4.9,4.9,0,0,1-5.48-5.49,5.94,5.94,0,0,1,1.34-4.24,5,5,0,0,1,3.81-1.45,4.23,4.23,0,0,1,3.42,1.37A5.92,5.92,0,0,1,316.55,228.91Zm-.95-.19a4.29,4.29,0,0,0-1.1-3.27,3.36,3.36,0,0,0-2.49-.91,4.35,4.35,0,0,0-2.88,1,4.55,4.55,0,0,0-1.29,3.23Z"/><path class="cls-3" d="M327,224.77a2.76,2.76,0,0,0-.62-.18,5.49,5.49,0,0,0-.88-.05,3.9,3.9,0,0,0-2.91,1.19,4.88,4.88,0,0,0-.9,3.33v5.61h-.93V224h.93v2a4.35,4.35,0,0,1,1.29-1.45,4.69,4.69,0,0,1,2.72-.8l.7,0a2.9,2.9,0,0,1,.6.07Z"/><path class="cls-3" d="M337.43,232.26v6.46h-.92V224h.92v2.44a4.69,4.69,0,0,1,1.42-1.91,4,4,0,0,1,2.19-.78,4.35,4.35,0,0,1,3.41,1.54,6.71,6.71,0,0,1,0,8.1A4.38,4.38,0,0,1,341,235a4,4,0,0,1-2.19-.79A4.65,4.65,0,0,1,337.43,232.26Zm7.38-2.9a4.92,4.92,0,0,0-1.19-3.71,3.36,3.36,0,0,0-5,0,6.41,6.41,0,0,0,0,7.41,3.34,3.34,0,0,0,5,0A4.89,4.89,0,0,0,344.81,229.36Z"/><path class="cls-3" d="M354.13,223.77a4.32,4.32,0,0,1,3.49,1.52,7.17,7.17,0,0,1,0,8.18,4.32,4.32,0,0,1-3.49,1.53,4.37,4.37,0,0,1-3.51-1.52,6.18,6.18,0,0,1-1.27-4.13,6.05,6.05,0,0,1,1.28-4.07A4.36,4.36,0,0,1,354.13,223.77Zm0,.77a3.34,3.34,0,0,0-2.79,1.3,5.5,5.5,0,0,0-1,3.5,5.57,5.57,0,0,0,1,3.55,3.63,3.63,0,0,0,5.58,0,5.63,5.63,0,0,0,1-3.55,5.53,5.53,0,0,0-1-3.49A3.32,3.32,0,0,0,354.15,224.54Z"/><path class="cls-3" d="M363.14,219.88h.95v1.19h-.95Zm0,4.14h.95v10.65h-.95Z"/><path class="cls-3" d="M377.93,228.24v6.43H377V228.3a4.57,4.57,0,0,0-.72-2.92,2.64,2.64,0,0,0-2.12-.84,4.41,4.41,0,0,0-2.81.91,3.84,3.84,0,0,0-1.17,3.2v6h-1V224h1v2a3.7,3.7,0,0,1,1.33-1.48,4.88,4.88,0,0,1,2.69-.77,3.57,3.57,0,0,1,2.73,1.07A4.78,4.78,0,0,1,377.93,228.24Z"/><path class="cls-3" d="M383.77,221v3h3.9v.74h-3.9v6.4a3.13,3.13,0,0,0,.34,1.71,2.29,2.29,0,0,0,2,1.06h1.52v.74H386.2a3.8,3.8,0,0,1-2.4-.76,3.28,3.28,0,0,1-1-2.75v-6.4h-1.38V224h1.38v-3Z"/><path class="cls-3" d="M397.76,224.34v1a6.81,6.81,0,0,0-1.24-.57,8.71,8.71,0,0,0-1.8-.19,4.76,4.76,0,0,0-2.55.59,1.94,1.94,0,0,0-.71,1.7,1.43,1.43,0,0,0,.67,1.26,5.49,5.49,0,0,0,2,.76l.65.14a6.39,6.39,0,0,1,2.48.94,2.27,2.27,0,0,1,1,1.8,3,3,0,0,1-1,2.37A5.18,5.18,0,0,1,394,235a9.16,9.16,0,0,1-1.93-.16c-.53-.14-1.09-.31-1.67-.51v-1.09a10.41,10.41,0,0,0,1.63.76,8.79,8.79,0,0,0,2,.25,3.94,3.94,0,0,0,2.46-.64,2.08,2.08,0,0,0,.8-1.69,1.49,1.49,0,0,0-.54-1.28,6.5,6.5,0,0,0-2.46-.93l-.66-.14a5.8,5.8,0,0,1-2.21-.89,2.09,2.09,0,0,1-1-1.73,2.63,2.63,0,0,1,1.16-2.4,5.13,5.13,0,0,1,2.83-.73,8.77,8.77,0,0,1,2,.14A9.76,9.76,0,0,1,397.76,224.34Z"/><path class="cls-3" d="M410.31,221v3h3.9v.74h-3.9v6.4a3.13,3.13,0,0,0,.34,1.71,2.27,2.27,0,0,0,2,1.06h1.52v.74h-1.47a3.8,3.8,0,0,1-2.4-.76,3.28,3.28,0,0,1-1-2.75v-6.4H408V224h1.38v-3Z"/><path class="cls-3" d="M426.48,228.24v6.43h-1V228.3a4.42,4.42,0,0,0-.75-2.91,2.86,2.86,0,0,0-2.27-.85,3.91,3.91,0,0,0-2.78,1,4.16,4.16,0,0,0-1,3.16v6h-.94V219.88h.94V226a3.49,3.49,0,0,1,1.18-1.45,4.55,4.55,0,0,1,2.84-.77,3.47,3.47,0,0,1,2.73,1.13A4.85,4.85,0,0,1,426.48,228.24Z"/><path class="cls-3" d="M439.47,228.6v6.07h-.93v-2.89a4.43,4.43,0,0,1-2.1,2.7,5.09,5.09,0,0,1-2.07.47,4,4,0,0,1-2.71-.85A3.49,3.49,0,0,1,432,229a6.89,6.89,0,0,1,4.21-1h2.35v-.17a3.24,3.24,0,0,0-.88-2.33,3.8,3.8,0,0,0-2.86-.91,6.34,6.34,0,0,0-2,.34,8.2,8.2,0,0,0-1.71.88v-.94a7.62,7.62,0,0,1,1.71-.74,8.4,8.4,0,0,1,2.21-.31,5,5,0,0,1,3.36,1.14Q439.47,225.89,439.47,228.6Zm-3.53.06a5.6,5.6,0,0,0-3.29.75,2.56,2.56,0,0,0-1,2.2,2.28,2.28,0,0,0,.83,2,3.38,3.38,0,0,0,2,.59,3.29,3.29,0,0,0,3.11-1.7,6.47,6.47,0,0,0,1-3.18v-.66Z"/><path class="cls-3" d="M453.16,228.24v6.43h-1V228.3a4.57,4.57,0,0,0-.72-2.92,2.64,2.64,0,0,0-2.12-.84,4.36,4.36,0,0,0-2.8.91,3.82,3.82,0,0,0-1.18,3.2v6h-.95V224h.95v2a3.7,3.7,0,0,1,1.33-1.48,4.88,4.88,0,0,1,2.69-.77,3.57,3.57,0,0,1,2.73,1.07A4.78,4.78,0,0,1,453.16,228.24Z"/><path class="cls-3" d="M464.77,230.45V224h1v6.37a4.53,4.53,0,0,0,.72,2.92,2.62,2.62,0,0,0,2.12.85,4.47,4.47,0,0,0,2.81-.91,3.88,3.88,0,0,0,1.17-3.21v-6h.95v10.65h-.95v-2a3.73,3.73,0,0,1-1.33,1.49,5,5,0,0,1-2.69.77,3.58,3.58,0,0,1-2.73-1.08A4.78,4.78,0,0,1,464.77,230.45Z"/><path class="cls-3" d="M485,224.34v1a7.09,7.09,0,0,0-1.25-.57,8.68,8.68,0,0,0-1.79-.19,4.78,4.78,0,0,0-2.56.59,1.94,1.94,0,0,0-.71,1.7,1.45,1.45,0,0,0,.67,1.26,5.56,5.56,0,0,0,2,.76l.65.14a6.39,6.39,0,0,1,2.48.94,2.22,2.22,0,0,1,1,1.8,3,3,0,0,1-1,2.37,5.15,5.15,0,0,1-3.31.85,9.27,9.27,0,0,1-1.94-.16c-.53-.14-1.08-.31-1.67-.51v-1.09a10.41,10.41,0,0,0,1.63.76,8.79,8.79,0,0,0,2,.25,3.94,3.94,0,0,0,2.46-.64,2.06,2.06,0,0,0,.8-1.69,1.51,1.51,0,0,0-.53-1.28,6.64,6.64,0,0,0-2.46-.93l-.66-.14a5.78,5.78,0,0,1-2.22-.89,2.08,2.08,0,0,1-.95-1.73,2.63,2.63,0,0,1,1.15-2.4,5.16,5.16,0,0,1,2.83-.73,8.87,8.87,0,0,1,2,.14A9.76,9.76,0,0,1,485,224.34Z"/><path class="cls-3" d="M489.51,230.45V224h.95v6.37a4.53,4.53,0,0,0,.72,2.92,2.62,2.62,0,0,0,2.12.85,4.47,4.47,0,0,0,2.81-.91,3.88,3.88,0,0,0,1.17-3.21v-6h1v10.65h-1v-2a3.73,3.73,0,0,1-1.33,1.49,5,5,0,0,1-2.69.77,3.58,3.58,0,0,1-2.73-1.08A4.78,4.78,0,0,1,489.51,230.45Z"/><path class="cls-3" d="M511.34,228.6v6.07h-.93v-2.89a4.4,4.4,0,0,1-2.11,2.7,5,5,0,0,1-2.07.47,4,4,0,0,1-2.71-.85,3.52,3.52,0,0,1,.3-5.15,7,7,0,0,1,4.22-1h2.34v-.17a3.23,3.23,0,0,0-.87-2.33,3.8,3.8,0,0,0-2.86-.91,6.3,6.3,0,0,0-2,.34,8.2,8.2,0,0,0-1.71.88v-.94a7.62,7.62,0,0,1,1.71-.74,8.35,8.35,0,0,1,2.21-.31,5,5,0,0,1,3.36,1.14Q511.34,225.89,511.34,228.6Zm-3.53.06a5.66,5.66,0,0,0-3.3.75,2.59,2.59,0,0,0-1,2.2,2.28,2.28,0,0,0,.84,2,3.34,3.34,0,0,0,2,.59,3.3,3.3,0,0,0,3.11-1.7,6.45,6.45,0,0,0,.95-3.18v-.66Z"/><path class="cls-3" d="M516.31,219.88h1v14.79h-1Z"/><path class="cls-3" d="M522.79,233.47h1.06v1.2h-1.06Z"/><path class="cls-3" d="M69.19,109h5.36a5.49,5.49,0,0,1,3.67,1.09,4.41,4.41,0,0,1,0,6.21,5.49,5.49,0,0,1-3.67,1.09H72.42v4.46H69.19Zm3.23,2.4V115H74.2a2.1,2.1,0,0,0,1.46-.47,1.72,1.72,0,0,0,.51-1.33,1.7,1.7,0,0,0-.51-1.32,2.1,2.1,0,0,0-1.46-.47Z"/><path class="cls-3" d="M81.64,108.46h3v13.39h-3Z"/><path class="cls-3" d="M96.32,116.35v5.5h-3v-1.43a4,4,0,0,1-1.36,1.27,3.88,3.88,0,0,1-1.84.4,3.3,3.3,0,0,1-2.37-.87,3,3,0,0,1-.91-2.27A2.81,2.81,0,0,1,88,116.47a6.33,6.33,0,0,1,3.57-.79h1.77v-.24a1.17,1.17,0,0,0-.57-1.08A3.51,3.51,0,0,0,91,114a7.81,7.81,0,0,0-1.8.2,5.94,5.94,0,0,0-1.55.6v-2.35a19.11,19.11,0,0,1,2-.37,15.67,15.67,0,0,1,1.94-.12,5.35,5.35,0,0,1,3.67,1A4.33,4.33,0,0,1,96.32,116.35Zm-4.59,1.16a2.45,2.45,0,0,0-1.41.33,1.08,1.08,0,0,0-.48,1,1.17,1.17,0,0,0,.38.92,1.59,1.59,0,0,0,1.07.33,1.85,1.85,0,0,0,1.42-.63,2.17,2.17,0,0,0,.58-1.56v-.35Z"/><path class="cls-3" d="M106.69,112.51V115a4.49,4.49,0,0,0-1.23-.63,4,4,0,0,0-1.28-.21,2.52,2.52,0,0,0-2,.75,3.52,3.52,0,0,0,0,4.21,2.52,2.52,0,0,0,2,.75,4.23,4.23,0,0,0,1.34-.21,4,4,0,0,0,1.17-.64v2.52a8,8,0,0,1-1.43.4,7.9,7.9,0,0,1-1.45.13,5.62,5.62,0,0,1-4-1.33,5.55,5.55,0,0,1,0-7.44,5.57,5.57,0,0,1,4-1.34,7.74,7.74,0,0,1,1.45.13A8.24,8.24,0,0,1,106.69,112.51Z"/><path class="cls-3" d="M118.65,117v.88h-7a2.31,2.31,0,0,0,.76,1.63,2.79,2.79,0,0,0,1.83.54,7,7,0,0,0,1.94-.29,9.76,9.76,0,0,0,2-.87v2.37a12.23,12.23,0,0,1-2.13.62,11,11,0,0,1-2.13.21,5.6,5.6,0,0,1-4-1.32,5.64,5.64,0,0,1,0-7.44,5.26,5.26,0,0,1,3.82-1.35,4.7,4.7,0,0,1,3.55,1.37A5,5,0,0,1,118.65,117Zm-3.08-1a2,2,0,0,0-.5-1.42,1.7,1.7,0,0,0-1.31-.54,2,2,0,0,0-1.41.51,2.36,2.36,0,0,0-.68,1.45Z"/><path class="cls-3" d="M130.18,109.47v2.74h3.1v2.2h-3.1v4.09a1.24,1.24,0,0,0,.26.91,1.63,1.63,0,0,0,1,.23H133v2.21h-2.58a3.44,3.44,0,0,1-2.52-.77,3.6,3.6,0,0,1-.75-2.58v-4.09h-1.49v-2.2h1.49v-2.74Z"/><path class="cls-3" d="M144.55,116v5.87h-3v-4.48c0-.84,0-1.42-.05-1.74a1.86,1.86,0,0,0-.19-.69,1.27,1.27,0,0,0-.48-.47,1.4,1.4,0,0,0-.68-.17,1.74,1.74,0,0,0-1.48.74,3.47,3.47,0,0,0-.54,2.06v4.75h-3V108.46h3v5.16a4.69,4.69,0,0,1,1.45-1.24,3.53,3.53,0,0,1,1.68-.4,3,3,0,0,1,2.47,1A4.6,4.6,0,0,1,144.55,116Z"/><path class="cls-3" d="M147.34,108.46h3V111h-3Zm0,3.75h3v9.64h-3Z"/><path class="cls-3" d="M160.55,112.51v2.34a11.59,11.59,0,0,0-1.86-.62A7.43,7.43,0,0,0,157,114a2.92,2.92,0,0,0-1.27.22.72.72,0,0,0-.41.68.63.63,0,0,0,.31.57,2.89,2.89,0,0,0,1.13.29l.52.08a6.26,6.26,0,0,1,3.11,1,2.71,2.71,0,0,1,.8,2.16,2.64,2.64,0,0,1-1.11,2.31,5.76,5.76,0,0,1-3.31.77,12.81,12.81,0,0,1-1.92-.15,15.6,15.6,0,0,1-2-.45v-2.34a8.48,8.48,0,0,0,1.84.67,8.25,8.25,0,0,0,1.91.23,2.88,2.88,0,0,0,1.33-.25.81.81,0,0,0,.45-.74.71.71,0,0,0-.31-.62,3.24,3.24,0,0,0-1.22-.31l-.53-.07a5.34,5.34,0,0,1-2.81-1,3.08,3.08,0,0,1,.22-4.38,5.33,5.33,0,0,1,3.14-.74,11.91,11.91,0,0,1,1.74.13A17.37,17.37,0,0,1,160.55,112.51Z"/><path class="cls-3" d="M177,112.51V115a4.58,4.58,0,0,0-1.22-.63,4,4,0,0,0-1.28-.21,2.54,2.54,0,0,0-2,.75,3.52,3.52,0,0,0,0,4.21,2.54,2.54,0,0,0,2,.75,4.27,4.27,0,0,0,1.34-.21A4,4,0,0,0,177,119v2.52a7.9,7.9,0,0,1-1.42.4,8,8,0,0,1-1.46.13,5.63,5.63,0,0,1-4-1.33,5.55,5.55,0,0,1,0-7.44,5.59,5.59,0,0,1,4-1.34,7.93,7.93,0,0,1,1.46.13A8.39,8.39,0,0,1,177,112.51Z"/><path class="cls-3" d="M188.39,116.35v5.5h-3v-1.43a3.86,3.86,0,0,1-1.36,1.27,3.82,3.82,0,0,1-1.84.4,3.3,3.3,0,0,1-2.37-.87,3,3,0,0,1-.91-2.27,2.81,2.81,0,0,1,1.14-2.48,6.33,6.33,0,0,1,3.57-.79h1.77v-.24a1.18,1.18,0,0,0-.56-1.08,3.58,3.58,0,0,0-1.75-.34,7.81,7.81,0,0,0-1.8.2,5.94,5.94,0,0,0-1.55.6v-2.35a19.11,19.11,0,0,1,2-.37,15.79,15.79,0,0,1,1.94-.12,5.33,5.33,0,0,1,3.67,1A4.33,4.33,0,0,1,188.39,116.35Zm-4.59,1.16a2.49,2.49,0,0,0-1.41.33,1.08,1.08,0,0,0-.48,1,1.17,1.17,0,0,0,.38.92,1.59,1.59,0,0,0,1.07.33,1.85,1.85,0,0,0,1.42-.63,2.17,2.17,0,0,0,.58-1.56v-.35Z"/><path class="cls-3" d="M198.16,114.83a4.41,4.41,0,0,0-.79-.28,3.48,3.48,0,0,0-.79-.09,2.18,2.18,0,0,0-1.78.77,3.31,3.31,0,0,0-.62,2.18v4.44h-3v-9.64h3v1.58a3.82,3.82,0,0,1,1.32-1.38,3.57,3.57,0,0,1,1.81-.43h.32l.52.06Z"/><path class="cls-3" d="M206,113.62v-5.16h3v13.39h-3v-1.4a4.09,4.09,0,0,1-1.37,1.25,3.71,3.71,0,0,1-1.73.39,3.47,3.47,0,0,1-2.85-1.41,6.54,6.54,0,0,1,0-7.29,3.47,3.47,0,0,1,2.85-1.41,3.62,3.62,0,0,1,1.73.4A4.16,4.16,0,0,1,206,113.62Zm-2,6.24a1.7,1.7,0,0,0,1.48-.72A3.66,3.66,0,0,0,206,117a3.62,3.62,0,0,0-.51-2.1,1.7,1.7,0,0,0-1.48-.73,1.66,1.66,0,0,0-1.45.73,3.62,3.62,0,0,0-.51,2.1,3.66,3.66,0,0,0,.51,2.1A1.66,1.66,0,0,0,204.05,119.86Z"/><path class="cls-3" d="M222.38,112a5.15,5.15,0,0,1,3.79,1.34,5.75,5.75,0,0,1,0,7.43,6,6,0,0,1-7.59,0,5.69,5.69,0,0,1,0-7.43A5.17,5.17,0,0,1,222.38,112Zm0,2.2a1.74,1.74,0,0,0-1.52.74,4.51,4.51,0,0,0,0,4.24,1.93,1.93,0,0,0,3,0,4.58,4.58,0,0,0,0-4.24A1.72,1.72,0,0,0,222.38,114.18Z"/><path class="cls-3" d="M239.15,116v5.87h-3v-4.5a16.27,16.27,0,0,0-.06-1.72,1.7,1.7,0,0,0-.18-.69,1.27,1.27,0,0,0-.48-.47,1.41,1.41,0,0,0-.69-.17,1.72,1.72,0,0,0-1.47.74,3.47,3.47,0,0,0-.54,2.06v4.75h-3v-9.64h3v1.41a4.66,4.66,0,0,1,1.44-1.24,3.57,3.57,0,0,1,1.69-.4,3,3,0,0,1,2.47,1A4.6,4.6,0,0,1,239.15,116Z"/><path class="cls-3" d="M251.19,109.47v2.74h3.09v2.2h-3.09v4.09a1.24,1.24,0,0,0,.26.91,1.63,1.63,0,0,0,1,.23H254v2.21h-2.57a3.41,3.41,0,0,1-2.52-.77,3.6,3.6,0,0,1-.75-2.58v-4.09h-1.49v-2.2h1.49v-2.74Z"/><path class="cls-3" d="M265.56,116v5.87h-3v-4.48a16.59,16.59,0,0,0-.06-1.74,1.7,1.7,0,0,0-.18-.69,1.27,1.27,0,0,0-.48-.47,1.41,1.41,0,0,0-.69-.17,1.72,1.72,0,0,0-1.47.74,3.47,3.47,0,0,0-.54,2.06v4.75h-3V108.46h3v5.16a4.66,4.66,0,0,1,1.44-1.24,3.57,3.57,0,0,1,1.69-.4,3,3,0,0,1,2.47,1A4.6,4.6,0,0,1,265.56,116Z"/><path class="cls-3" d="M277.72,117v.88h-7a2.35,2.35,0,0,0,.76,1.63,2.81,2.81,0,0,0,1.83.54,7,7,0,0,0,1.95-.29,9.47,9.47,0,0,0,2-.87v2.37a11.74,11.74,0,0,1-2.13.62,11,11,0,0,1-2.12.21,5.58,5.58,0,0,1-4-1.32,5.64,5.64,0,0,1,0-7.44,5.24,5.24,0,0,1,3.82-1.35,4.66,4.66,0,0,1,3.54,1.37A5,5,0,0,1,277.72,117Zm-3.08-1a2,2,0,0,0-.5-1.42,1.7,1.7,0,0,0-1.31-.54,2,2,0,0,0-1.41.51,2.36,2.36,0,0,0-.69,1.45Z"/><path class="cls-3" d="M289.25,109.47v2.74h3.09v2.2h-3.09v4.09a1.19,1.19,0,0,0,.26.91,1.63,1.63,0,0,0,1,.23h1.54v2.21h-2.57a3.45,3.45,0,0,1-2.53-.77,3.65,3.65,0,0,1-.74-2.58v-4.09h-1.49v-2.2h1.49v-2.74Z"/><path class="cls-3" d="M303,116.35v5.5h-3v-1.43a4,4,0,0,1-1.36,1.27,3.88,3.88,0,0,1-1.84.4,3.28,3.28,0,0,1-2.37-.87,3,3,0,0,1-.91-2.27,2.81,2.81,0,0,1,1.14-2.48,6.33,6.33,0,0,1,3.57-.79H300v-.24a1.17,1.17,0,0,0-.57-1.08,3.51,3.51,0,0,0-1.74-.34,7.81,7.81,0,0,0-1.8.2,5.8,5.8,0,0,0-1.55.6v-2.35a18.92,18.92,0,0,1,1.94-.37,16,16,0,0,1,1.95-.12,5.35,5.35,0,0,1,3.67,1A4.33,4.33,0,0,1,303,116.35Zm-4.59,1.16a2.5,2.5,0,0,0-1.42.33,1.1,1.1,0,0,0-.47,1,1.17,1.17,0,0,0,.38.92,1.58,1.58,0,0,0,1.06.33,1.87,1.87,0,0,0,1.43-.63,2.21,2.21,0,0,0,.58-1.56v-.35Z"/><path class="cls-3" d="M308.76,113.62a4.19,4.19,0,0,1,1.38-1.24,3.6,3.6,0,0,1,1.74-.4,3.5,3.5,0,0,1,2.85,1.41,6.49,6.49,0,0,1,0,7.29,3.5,3.5,0,0,1-2.85,1.41,3.6,3.6,0,0,1-1.74-.4,4.19,4.19,0,0,1-1.38-1.24v1.4h-3V108.46h3Zm2,6.24a1.68,1.68,0,0,0,1.47-.72,3.66,3.66,0,0,0,.51-2.1,3.62,3.62,0,0,0-.51-2.1,1.69,1.69,0,0,0-1.47-.73,1.73,1.73,0,0,0-1.48.73,4.48,4.48,0,0,0,0,4.19A1.7,1.7,0,0,0,310.76,119.86Z"/><path class="cls-3" d="M318.05,108.46h3v13.39h-3Z"/><path class="cls-3" d="M333.31,117v.88h-7a2.31,2.31,0,0,0,.76,1.63,2.81,2.81,0,0,0,1.83.54,7.09,7.09,0,0,0,1.95-.29,9.47,9.47,0,0,0,2-.87v2.37a12.23,12.23,0,0,1-2.13.62,11,11,0,0,1-2.13.21,5.57,5.57,0,0,1-4-1.32,4.88,4.88,0,0,1-1.41-3.73,4.94,4.94,0,0,1,1.38-3.71,5.26,5.26,0,0,1,3.82-1.35,4.69,4.69,0,0,1,3.55,1.37A5,5,0,0,1,333.31,117Zm-3.09-1a2,2,0,0,0-.49-1.42,1.71,1.71,0,0,0-1.31-.54,2,2,0,0,0-1.42.51,2.36,2.36,0,0,0-.68,1.45Z"/><path class="cls-3" d="M350.35,116.35v5.5h-3v-1.43a3.53,3.53,0,0,1-3.19,1.67,3.27,3.27,0,0,1-2.37-.87,3,3,0,0,1-.91-2.27,2.82,2.82,0,0,1,1.13-2.48,6.33,6.33,0,0,1,3.57-.79h1.77v-.24a1.16,1.16,0,0,0-.56-1.08A3.58,3.58,0,0,0,345,114a7.94,7.94,0,0,0-1.8.2,5.87,5.87,0,0,0-1.54.6v-2.35a18.42,18.42,0,0,1,1.94-.37,15.91,15.91,0,0,1,1.94-.12,5.38,5.38,0,0,1,3.68,1A4.33,4.33,0,0,1,350.35,116.35Zm-4.58,1.16a2.5,2.5,0,0,0-1.42.33,1.07,1.07,0,0,0-.47,1,1.14,1.14,0,0,0,.38.92,1.56,1.56,0,0,0,1.06.33,1.87,1.87,0,0,0,1.43-.63,2.21,2.21,0,0,0,.57-1.56v-.35Z"/><path class="cls-3" d="M360.47,112.51v2.34a11.59,11.59,0,0,0-1.86-.62,7.43,7.43,0,0,0-1.69-.21,2.92,2.92,0,0,0-1.27.22.72.72,0,0,0-.41.68.63.63,0,0,0,.31.57,2.89,2.89,0,0,0,1.13.29l.52.08a6.26,6.26,0,0,1,3.11,1,2.71,2.71,0,0,1,.8,2.16,2.64,2.64,0,0,1-1.11,2.31,5.76,5.76,0,0,1-3.31.77,13,13,0,0,1-1.93-.15,15.82,15.82,0,0,1-2-.45v-2.34a8.48,8.48,0,0,0,1.84.67,8.25,8.25,0,0,0,1.91.23,2.88,2.88,0,0,0,1.33-.25.8.8,0,0,0,.44-.74.7.7,0,0,0-.3-.62,3.3,3.3,0,0,0-1.22-.31l-.53-.07a5.34,5.34,0,0,1-2.81-1,3.09,3.09,0,0,1,.21-4.38,5.36,5.36,0,0,1,3.15-.74,11.91,11.91,0,0,1,1.74.13A17.37,17.37,0,0,1,360.47,112.51Z"/><path class="cls-3" d="M369.33,108.46h3V111h-3Zm0,3.75h3v9.64h-3Z"/><path class="cls-3" d="M381.39,108.46v2h-1.66a1.27,1.27,0,0,0-.88.24,1.09,1.09,0,0,0-.25.82v.67h2.56v2.2H378.6v7.44h-3v-7.44H374.1v-2.2h1.49v-.67a2.91,2.91,0,0,1,.86-2.33,3.94,3.94,0,0,1,2.65-.75Z"/><path class="cls-3" d="M388.65,108.46h3V111h-3Zm0,3.75h3v9.64h-3Z"/><path class="cls-3" d="M397.81,109.47v2.74h3.1v2.2h-3.1v4.09a1.24,1.24,0,0,0,.26.91,1.63,1.63,0,0,0,1,.23h1.55v2.21h-2.58a3.44,3.44,0,0,1-2.52-.77,3.6,3.6,0,0,1-.75-2.58v-4.09h-1.49v-2.2h1.49v-2.74Z"/><path class="cls-3" d="M407.88,112.21h2.91l1.58,6.64,1.58-6.64h2.51l1.58,6.57,1.59-6.57h2.92l-2.48,9.64H416.8l-1.6-6.63-1.57,6.63h-3.28Z"/><path class="cls-3" d="M434,117v.88h-7a2.27,2.27,0,0,0,.76,1.63,2.77,2.77,0,0,0,1.83.54,7,7,0,0,0,1.94-.29,9.76,9.76,0,0,0,2-.87v2.37a12.23,12.23,0,0,1-2.13.62,11,11,0,0,1-2.13.21,5.58,5.58,0,0,1-4-1.32,5.64,5.64,0,0,1,0-7.44,5.24,5.24,0,0,1,3.82-1.35,4.7,4.7,0,0,1,3.55,1.37A5,5,0,0,1,434,117Zm-3.08-1a2,2,0,0,0-.5-1.42,1.7,1.7,0,0,0-1.31-.54,2,2,0,0,0-1.41.51A2.42,2.42,0,0,0,427,116Z"/><path class="cls-3" d="M443.21,114.83a4.41,4.41,0,0,0-.79-.28,3.48,3.48,0,0,0-.79-.09,2.18,2.18,0,0,0-1.78.77,3.37,3.37,0,0,0-.62,2.18v4.44h-3v-9.64h3v1.58a3.76,3.76,0,0,1,1.33-1.38,3.53,3.53,0,0,1,1.8-.43h.32l.52.06Z"/><path class="cls-3" d="M454.07,117v.88h-7a2.35,2.35,0,0,0,.76,1.63,2.82,2.82,0,0,0,1.84.54,7,7,0,0,0,1.94-.29,9.76,9.76,0,0,0,2-.87v2.37a12.23,12.23,0,0,1-2.13.62,11.14,11.14,0,0,1-2.13.21,5.58,5.58,0,0,1-4-1.32,5.64,5.64,0,0,1,0-7.44A5.24,5.24,0,0,1,449.2,112a4.66,4.66,0,0,1,3.54,1.37A5,5,0,0,1,454.07,117ZM451,116a2,2,0,0,0-.5-1.42,1.7,1.7,0,0,0-1.31-.54,2,2,0,0,0-1.41.51,2.36,2.36,0,0,0-.69,1.45Z"/><path class="cls-3" d="M471.12,116.35v5.5h-3v-1.43a4,4,0,0,1-1.36,1.27,3.88,3.88,0,0,1-1.84.4,3.3,3.3,0,0,1-2.37-.87,3,3,0,0,1-.91-2.27,2.81,2.81,0,0,1,1.14-2.48,6.33,6.33,0,0,1,3.57-.79h1.77v-.24a1.17,1.17,0,0,0-.57-1.08,3.51,3.51,0,0,0-1.74-.34,7.81,7.81,0,0,0-1.8.2,5.8,5.8,0,0,0-1.55.6v-2.35a18.92,18.92,0,0,1,1.94-.37,16,16,0,0,1,1.95-.12,5.35,5.35,0,0,1,3.67,1A4.33,4.33,0,0,1,471.12,116.35Zm-4.59,1.16a2.45,2.45,0,0,0-1.41.33,1.08,1.08,0,0,0-.48,1,1.17,1.17,0,0,0,.38.92,1.58,1.58,0,0,0,1.06.33,1.85,1.85,0,0,0,1.43-.63,2.17,2.17,0,0,0,.58-1.56v-.35Z"/><path class="cls-3" d="M486.27,120.21a4.16,4.16,0,0,1-1.37,1.24,3.71,3.71,0,0,1-1.73.4,3.51,3.51,0,0,1-2.84-1.39,6.15,6.15,0,0,1,0-7.08,3.51,3.51,0,0,1,2.84-1.39,3.71,3.71,0,0,1,1.73.4,4.09,4.09,0,0,1,1.37,1.25v-1.43h3v8.66a4.43,4.43,0,0,1-1.43,3.55,6.21,6.21,0,0,1-4.15,1.23,10.45,10.45,0,0,1-1.7-.14,10.1,10.1,0,0,1-1.66-.42v-2.4a7.18,7.18,0,0,0,1.55.69,5.29,5.29,0,0,0,1.52.23,3,3,0,0,0,2.16-.66,2.79,2.79,0,0,0,.69-2.08Zm-2-6a1.71,1.71,0,0,0-1.45.71,4.21,4.21,0,0,0,0,4,1.7,1.7,0,0,0,1.46.69,1.73,1.73,0,0,0,1.47-.71,3.33,3.33,0,0,0,.52-2,3.38,3.38,0,0,0-.52-2A1.73,1.73,0,0,0,484.28,114.21Z"/><path class="cls-3" d="M499.15,114.83a4.41,4.41,0,0,0-.79-.28,3.48,3.48,0,0,0-.79-.09,2.18,2.18,0,0,0-1.78.77,3.37,3.37,0,0,0-.62,2.18v4.44h-3v-9.64h3v1.58a3.84,3.84,0,0,1,1.33-1.38,3.53,3.53,0,0,1,1.8-.43h.33l.51.06Z"/><path class="cls-3" d="M509.44,116.35v5.5h-3v-1.43a4,4,0,0,1-1.36,1.27,3.88,3.88,0,0,1-1.84.4,3.3,3.3,0,0,1-2.37-.87,3,3,0,0,1-.91-2.27,2.81,2.81,0,0,1,1.14-2.48,6.31,6.31,0,0,1,3.57-.79h1.77v-.24a1.17,1.17,0,0,0-.57-1.08,3.53,3.53,0,0,0-1.74-.34,7.81,7.81,0,0,0-1.8.2,5.8,5.8,0,0,0-1.55.6v-2.35a18.92,18.92,0,0,1,1.94-.37,16,16,0,0,1,1.95-.12,5.35,5.35,0,0,1,3.67,1A4.33,4.33,0,0,1,509.44,116.35Zm-4.59,1.16a2.5,2.5,0,0,0-1.42.33,1.1,1.1,0,0,0-.47,1,1.17,1.17,0,0,0,.38.92,1.58,1.58,0,0,0,1.06.33,1.87,1.87,0,0,0,1.43-.63,2.21,2.21,0,0,0,.58-1.56v-.35Z"/><path class="cls-3" d="M521.66,116v5.87h-3v-4.5c0-.83,0-1.4,0-1.72a1.86,1.86,0,0,0-.19-.69,1.27,1.27,0,0,0-.48-.47,1.4,1.4,0,0,0-.68-.17,1.74,1.74,0,0,0-1.48.74,3.47,3.47,0,0,0-.54,2.06v4.75h-3v-9.64h3v1.41a4.69,4.69,0,0,1,1.45-1.24,3.53,3.53,0,0,1,1.68-.4,3,3,0,0,1,2.47,1A4.6,4.6,0,0,1,521.66,116Z"/><path class="cls-3" d="M527.73,109.47v2.74h3.09v2.2h-3.09v4.09a1.19,1.19,0,0,0,.26.91,1.62,1.62,0,0,0,1,.23h1.55v2.21H528a3.45,3.45,0,0,1-2.53-.77,3.65,3.65,0,0,1-.74-2.58v-4.09h-1.49v-2.2h1.49v-2.74Z"/><path class="cls-3" d="M533,118.52h3v3.33h-3Z"/><path class="cls-3" d="M101.42,127.55h3.23v12.84h-3.23Z"/><path class="cls-3" d="M111,128v2.74h3.1V133H111V137a1.24,1.24,0,0,0,.26.91,1.56,1.56,0,0,0,1,.24h1.55v2.2h-2.58a3.42,3.42,0,0,1-2.52-.76,3.63,3.63,0,0,1-.75-2.59V133h-1.49v-2.2h1.49V128Z"/><path class="cls-3" d="M129.19,131.06v2.34a10.68,10.68,0,0,0-1.86-.62,7.43,7.43,0,0,0-1.69-.21,2.75,2.75,0,0,0-1.27.22.72.72,0,0,0-.42.68.64.64,0,0,0,.31.56,2.92,2.92,0,0,0,1.14.3l.52.07a6.26,6.26,0,0,1,3.11,1,2.71,2.71,0,0,1,.79,2.16,2.65,2.65,0,0,1-1.11,2.32,5.81,5.81,0,0,1-3.3.77,12.84,12.84,0,0,1-1.93-.15,15.82,15.82,0,0,1-2-.45V137.7a8.29,8.29,0,0,0,1.84.67,8.17,8.17,0,0,0,1.91.22,2.68,2.68,0,0,0,1.32-.25.79.79,0,0,0,.45-.74.67.67,0,0,0-.31-.61,3.14,3.14,0,0,0-1.22-.32l-.53-.06a5.5,5.5,0,0,1-2.81-1,3.12,3.12,0,0,1,.22-4.39,5.4,5.4,0,0,1,3.14-.74,13.35,13.35,0,0,1,1.74.13A17.68,17.68,0,0,1,129.19,131.06Z"/><path class="cls-3" d="M135.36,128v2.74h3.09V133h-3.09V137a1.24,1.24,0,0,0,.25.91,1.6,1.6,0,0,0,1,.24h1.55v2.2h-2.57a3.45,3.45,0,0,1-2.53-.76,3.68,3.68,0,0,1-.74-2.59V133h-1.49v-2.2h1.49V128Z"/><path class="cls-3" d="M149.09,134.89v5.5h-3V139a4,4,0,0,1-1.36,1.28,3.88,3.88,0,0,1-1.84.4,3.27,3.27,0,0,1-2.37-.87,3,3,0,0,1-.91-2.27,2.82,2.82,0,0,1,1.14-2.49,6.37,6.37,0,0,1,3.57-.79h1.77V134a1.17,1.17,0,0,0-.57-1.07,3.53,3.53,0,0,0-1.74-.34,7.81,7.81,0,0,0-1.8.2,6.14,6.14,0,0,0-1.55.59V131a16.51,16.51,0,0,1,1.94-.36,16,16,0,0,1,1.95-.13,5.4,5.4,0,0,1,3.67,1A4.35,4.35,0,0,1,149.09,134.89Zm-4.59,1.17a2.59,2.59,0,0,0-1.42.32,1.11,1.11,0,0,0-.47,1,1.15,1.15,0,0,0,.38.91,1.58,1.58,0,0,0,1.06.33,1.86,1.86,0,0,0,1.43-.62,2.25,2.25,0,0,0,.58-1.56v-.35Z"/><path class="cls-3" d="M150.05,130.76h3l2.52,6.53,2.14-6.53h3l-4,10.54a5.08,5.08,0,0,1-1.38,2.25,3.22,3.22,0,0,1-2.09.64h-1.74v-2h.94a1.9,1.9,0,0,0,1.11-.25,1.62,1.62,0,0,0,.54-.89l.09-.27Z"/><path class="cls-3" d="M169.81,131.06v2.34a10.68,10.68,0,0,0-1.86-.62,7.43,7.43,0,0,0-1.69-.21,2.75,2.75,0,0,0-1.27.22.72.72,0,0,0-.42.68.63.63,0,0,0,.32.56,2.8,2.8,0,0,0,1.13.3l.52.07a6.26,6.26,0,0,1,3.11,1,2.71,2.71,0,0,1,.79,2.16,2.66,2.66,0,0,1-1.1,2.32,5.86,5.86,0,0,1-3.31.77,12.94,12.94,0,0,1-1.93-.15,15.82,15.82,0,0,1-2-.45V137.7a8.29,8.29,0,0,0,3.75.89,2.76,2.76,0,0,0,1.33-.25.8.8,0,0,0,.44-.74.68.68,0,0,0-.3-.61,3.26,3.26,0,0,0-1.23-.32l-.53-.06a5.5,5.5,0,0,1-2.81-1,3.12,3.12,0,0,1,.22-4.39,5.43,5.43,0,0,1,3.14-.74,13.5,13.5,0,0,1,1.75.13A18,18,0,0,1,169.81,131.06Z"/><path class="cls-3" d="M182,128v2.74h3.1V133H182V137a1.24,1.24,0,0,0,.26.91,1.56,1.56,0,0,0,1,.24h1.55v2.2h-2.58a3.44,3.44,0,0,1-2.52-.76,3.63,3.63,0,0,1-.75-2.59V133h-1.49v-2.2h1.49V128Z"/><path class="cls-3" d="M196.32,134.52v5.87h-3v-4.47c0-.84,0-1.42-.05-1.74a1.92,1.92,0,0,0-.19-.7,1.35,1.35,0,0,0-.48-.47,1.39,1.39,0,0,0-.68-.16,1.71,1.71,0,0,0-1.48.74,3.45,3.45,0,0,0-.54,2.06v4.74h-3V127h3v5.16a4.73,4.73,0,0,1,1.45-1.25,3.65,3.65,0,0,1,1.68-.4,3,3,0,0,1,2.47,1A4.57,4.57,0,0,1,196.32,134.52Z"/><path class="cls-3" d="M208.48,135.55v.88h-7a2.27,2.27,0,0,0,.76,1.62,2.77,2.77,0,0,0,1.83.54,7,7,0,0,0,1.94-.28,10.39,10.39,0,0,0,2-.88v2.38a13.16,13.16,0,0,1-2.13.62,11,11,0,0,1-2.13.21,5.56,5.56,0,0,1-4-1.33,4.87,4.87,0,0,1-1.41-3.73,4.94,4.94,0,0,1,1.39-3.71,5.26,5.26,0,0,1,3.82-1.35,4.74,4.74,0,0,1,3.55,1.37A5,5,0,0,1,208.48,135.55Zm-3.08-1a2,2,0,0,0-.5-1.41,1.7,1.7,0,0,0-1.31-.54,2,2,0,0,0-1.41.5,2.38,2.38,0,0,0-.68,1.45Z"/><path class="cls-3" d="M217.74,133.38a3.75,3.75,0,0,0-.79-.28,3.48,3.48,0,0,0-.79-.09,2.17,2.17,0,0,0-1.78.76,3.41,3.41,0,0,0-.62,2.18v4.44h-3v-9.63h3v1.58a3.84,3.84,0,0,1,1.33-1.38,3.53,3.53,0,0,1,1.8-.44l.33,0,.51.05Z"/><path class="cls-3" d="M228.6,135.55v.88h-7a2.27,2.27,0,0,0,.76,1.62,2.77,2.77,0,0,0,1.83.54,7,7,0,0,0,1.94-.28,10.39,10.39,0,0,0,2-.88v2.38a13.16,13.16,0,0,1-2.13.62,11,11,0,0,1-2.13.21,5.56,5.56,0,0,1-4-1.33,4.87,4.87,0,0,1-1.41-3.73,4.94,4.94,0,0,1,1.39-3.71,5.24,5.24,0,0,1,3.82-1.35,4.74,4.74,0,0,1,3.55,1.37A5,5,0,0,1,228.6,135.55Zm-3.08-1a2,2,0,0,0-.5-1.41,1.7,1.7,0,0,0-1.31-.54,2,2,0,0,0-1.41.5,2.45,2.45,0,0,0-.69,1.45Z"/><path class="cls-3" d="M236.85,127h3v2.51h-3Zm0,3.75h3v9.63h-3Z"/><path class="cls-3" d="M252.17,134.52v5.87h-3V135.9c0-.83,0-1.4-.05-1.72a1.92,1.92,0,0,0-.19-.7,1.35,1.35,0,0,0-.48-.47,1.39,1.39,0,0,0-.68-.16,1.71,1.71,0,0,0-1.48.74,3.45,3.45,0,0,0-.54,2.06v4.74h-3v-9.63h3v1.41a4.73,4.73,0,0,1,1.45-1.25,3.65,3.65,0,0,1,1.68-.4,3,3,0,0,1,2.47,1A4.57,4.57,0,0,1,252.17,134.52Z"/><path class="cls-3" d="M263.93,139v5.06h-3v-13.3h3v1.41a4.22,4.22,0,0,1,1.38-1.25,3.75,3.75,0,0,1,1.74-.4,3.5,3.5,0,0,1,2.85,1.42,6.49,6.49,0,0,1,0,7.29,3.5,3.5,0,0,1-2.85,1.41,3.63,3.63,0,0,1-1.74-.4A4.3,4.3,0,0,1,263.93,139Zm2-6.24a1.69,1.69,0,0,0-1.48.73,3.6,3.6,0,0,0-.52,2.09,3.66,3.66,0,0,0,.52,2.1,1.71,1.71,0,0,0,1.48.72,1.68,1.68,0,0,0,1.47-.72,4.58,4.58,0,0,0,0-4.2A1.68,1.68,0,0,0,265.93,132.76Z"/><path class="cls-3" d="M273.22,127h3v13.38h-3Z"/><path class="cls-3" d="M287.9,134.89v5.5h-3V139a3.51,3.51,0,0,1-3.19,1.68,3.31,3.31,0,0,1-2.38-.87,3,3,0,0,1-.9-2.27,2.82,2.82,0,0,1,1.13-2.49,6.42,6.42,0,0,1,3.57-.79h1.77V134a1.18,1.18,0,0,0-.56-1.07,3.58,3.58,0,0,0-1.75-.34,7.94,7.94,0,0,0-1.8.2,6.07,6.07,0,0,0-1.54.59V131a16.14,16.14,0,0,1,1.94-.36,15.94,15.94,0,0,1,1.94-.13,5.38,5.38,0,0,1,3.67,1A4.31,4.31,0,0,1,287.9,134.89Zm-4.58,1.17a2.59,2.59,0,0,0-1.42.32,1.1,1.1,0,0,0-.48,1,1.12,1.12,0,0,0,.39.91,1.56,1.56,0,0,0,1.06.33,1.84,1.84,0,0,0,1.42-.62,2.2,2.2,0,0,0,.58-1.56v-.35Z"/><path class="cls-3" d="M298.27,131.06v2.51a4.62,4.62,0,0,0-1.22-.64,4.28,4.28,0,0,0-1.28-.2,2.55,2.55,0,0,0-2,.75,2.94,2.94,0,0,0-.7,2.1,3,3,0,0,0,.7,2.11,2.55,2.55,0,0,0,2,.75,4,4,0,0,0,1.34-.22,3.74,3.74,0,0,0,1.16-.63v2.52a7.9,7.9,0,0,1-1.42.4,8,8,0,0,1-1.46.13,5.59,5.59,0,0,1-4-1.34,5.55,5.55,0,0,1,0-7.44,5.64,5.64,0,0,1,4-1.34,7.94,7.94,0,0,1,1.46.14A8.14,8.14,0,0,1,298.27,131.06Z"/><path class="cls-3" d="M310.24,135.55v.88h-7a2.27,2.27,0,0,0,.76,1.62,2.81,2.81,0,0,0,1.83.54,7.07,7.07,0,0,0,1.95-.28,10.07,10.07,0,0,0,2-.88v2.38a13.16,13.16,0,0,1-2.13.62,11,11,0,0,1-2.13.21,5.53,5.53,0,0,1-4-1.33,4.87,4.87,0,0,1-1.41-3.73,5,5,0,0,1,1.38-3.71,5.26,5.26,0,0,1,3.82-1.35,4.72,4.72,0,0,1,3.55,1.37A5,5,0,0,1,310.24,135.55Zm-3.09-1a2,2,0,0,0-.49-1.41,1.71,1.71,0,0,0-1.31-.54,2.05,2.05,0,0,0-1.42.5,2.38,2.38,0,0,0-.68,1.45Z"/><path class="cls-3" d="M323,130.52a5.13,5.13,0,0,1,3.79,1.35,5.75,5.75,0,0,1,0,7.43,5.17,5.17,0,0,1-3.79,1.34,5.23,5.23,0,0,1-3.8-1.34,5.72,5.72,0,0,1,0-7.43A5.19,5.19,0,0,1,323,130.52Zm0,2.21a1.75,1.75,0,0,0-1.52.73,4.58,4.58,0,0,0,0,4.24,1.76,1.76,0,0,0,1.52.74,1.74,1.74,0,0,0,1.51-.74,4.66,4.66,0,0,0,0-4.24A1.73,1.73,0,0,0,323,132.73Z"/><path class="cls-3" d="M336.46,127v2H334.8a1.33,1.33,0,0,0-.88.23,1.11,1.11,0,0,0-.25.83v.67h2.56V133h-2.56v7.43h-3V133h-1.49v-2.2h1.49v-.67a2.94,2.94,0,0,1,.85-2.33,4,4,0,0,1,2.66-.75Z"/><path class="cls-3" d="M352.52,134.89v5.5h-3V139a3.9,3.9,0,0,1-1.36,1.28,3.82,3.82,0,0,1-1.84.4,3.3,3.3,0,0,1-2.37-.87,3,3,0,0,1-.91-2.27,2.82,2.82,0,0,1,1.14-2.49,6.42,6.42,0,0,1,3.57-.79h1.77V134a1.18,1.18,0,0,0-.56-1.07,3.58,3.58,0,0,0-1.75-.34,7.81,7.81,0,0,0-1.8.2,6.29,6.29,0,0,0-1.55.59V131a16.67,16.67,0,0,1,1.95-.36,15.8,15.8,0,0,1,1.94-.13,5.38,5.38,0,0,1,3.67,1A4.35,4.35,0,0,1,352.52,134.89Zm-4.59,1.17a2.56,2.56,0,0,0-1.41.32,1.1,1.1,0,0,0-.48,1,1.15,1.15,0,0,0,.38.91,1.59,1.59,0,0,0,1.07.33,1.84,1.84,0,0,0,1.42-.62,2.2,2.2,0,0,0,.58-1.56v-.35Z"/><path class="cls-3" d="M367.67,138.76A4.17,4.17,0,0,1,366.3,140a3.65,3.65,0,0,1-1.73.39,3.5,3.5,0,0,1-2.84-1.39,6.15,6.15,0,0,1,0-7.08,3.72,3.72,0,0,1,4.57-1,4.07,4.07,0,0,1,1.37,1.24v-1.42h3v8.66a4.43,4.43,0,0,1-1.43,3.55,6.19,6.19,0,0,1-4.15,1.22,10.55,10.55,0,0,1-1.7-.13,11.6,11.6,0,0,1-1.66-.43v-2.4a7.24,7.24,0,0,0,1.55.7,5.29,5.29,0,0,0,1.52.23,3,3,0,0,0,2.16-.67,2.75,2.75,0,0,0,.69-2.07Zm-2-6a1.7,1.7,0,0,0-1.45.71,3.27,3.27,0,0,0-.52,2,3.4,3.4,0,0,0,.5,2,1.88,1.88,0,0,0,2.93,0,4.07,4.07,0,0,0,0-4A1.73,1.73,0,0,0,365.69,132.76Z"/><path class="cls-3" d="M380.55,133.38a3.75,3.75,0,0,0-.79-.28A3.39,3.39,0,0,0,379,133a2.16,2.16,0,0,0-1.78.76,3.35,3.35,0,0,0-.63,2.18v4.44h-3v-9.63h3v1.58A3.93,3.93,0,0,1,377.9,131a3.53,3.53,0,0,1,1.8-.44l.33,0,.51.05Z"/><path class="cls-3" d="M390.84,134.89v5.5h-3V139a3.9,3.9,0,0,1-1.36,1.28,3.85,3.85,0,0,1-1.84.4,3.3,3.3,0,0,1-2.37-.87,3,3,0,0,1-.91-2.27,2.82,2.82,0,0,1,1.14-2.49,6.42,6.42,0,0,1,3.57-.79h1.77V134a1.18,1.18,0,0,0-.56-1.07,3.58,3.58,0,0,0-1.75-.34,7.81,7.81,0,0,0-1.8.2,6.29,6.29,0,0,0-1.55.59V131a16.67,16.67,0,0,1,2-.36,15.8,15.8,0,0,1,1.94-.13,5.38,5.38,0,0,1,3.67,1A4.35,4.35,0,0,1,390.84,134.89Zm-4.59,1.17a2.56,2.56,0,0,0-1.41.32,1.1,1.1,0,0,0-.48,1,1.15,1.15,0,0,0,.38.91,1.59,1.59,0,0,0,1.07.33,1.84,1.84,0,0,0,1.42-.62,2.2,2.2,0,0,0,.58-1.56v-.35Z"/><path class="cls-3" d="M403.07,134.52v5.87h-3V135.9a16.27,16.27,0,0,0-.06-1.72,1.92,1.92,0,0,0-.19-.7,1.21,1.21,0,0,0-.48-.47,1.39,1.39,0,0,0-.68-.16,1.71,1.71,0,0,0-1.48.74,3.45,3.45,0,0,0-.53,2.06v4.74h-3v-9.63h3v1.41a4.59,4.59,0,0,1,1.44-1.25,3.66,3.66,0,0,1,1.69-.4,3,3,0,0,1,2.46,1A4.57,4.57,0,0,1,403.07,134.52Z"/><path class="cls-3" d="M409.13,128v2.74h3.1V133h-3.1V137a1.24,1.24,0,0,0,.26.91,1.56,1.56,0,0,0,1,.24H412v2.2h-2.57a3.42,3.42,0,0,1-2.52-.76,3.63,3.63,0,0,1-.75-2.59V133h-1.49v-2.2h1.49V128Z"/><path class="cls-3" d="M419.93,136.64v-5.88h3v1c0,.52,0,1.18,0,2s0,1.31,0,1.57a16.28,16.28,0,0,0,.06,1.68,2,2,0,0,0,.2.74,1.38,1.38,0,0,0,.49.47,1.48,1.48,0,0,0,.68.16,1.74,1.74,0,0,0,1.48-.74,3.51,3.51,0,0,0,.53-2.06v-4.75h3v9.63h-3V139a4.68,4.68,0,0,1-1.44,1.24,3.46,3.46,0,0,1-1.67.4,3,3,0,0,1-2.47-1A4.56,4.56,0,0,1,419.93,136.64Z"/><path class="cls-3" d="M441.7,134.52v5.87h-3V135.9c0-.83,0-1.4-.05-1.72a1.92,1.92,0,0,0-.19-.7A1.35,1.35,0,0,0,438,133a1.39,1.39,0,0,0-.68-.16,1.71,1.71,0,0,0-1.48.74,3.45,3.45,0,0,0-.54,2.06v4.74h-3v-9.63h3v1.41a4.73,4.73,0,0,1,1.45-1.25,3.65,3.65,0,0,1,1.68-.4,3,3,0,0,1,2.47,1A4.57,4.57,0,0,1,441.7,134.52Z"/><path class="cls-3" d="M447.77,128v2.74h3.09V133h-3.09V137a1.19,1.19,0,0,0,.26.91,1.54,1.54,0,0,0,1,.24h1.55v2.2H448a3.45,3.45,0,0,1-2.53-.76,3.68,3.68,0,0,1-.74-2.59V133h-1.49v-2.2h1.49V128Z"/><path class="cls-3" d="M452.7,127h3v2.51h-3Zm0,3.75h3v9.63h-3Z"/><path class="cls-3" d="M458.58,127h3v13.38h-3Z"/><path class="cls-3" d="M479.23,134.89v5.5h-3V139a3.9,3.9,0,0,1-1.36,1.28,3.85,3.85,0,0,1-1.84.4,3.3,3.3,0,0,1-2.37-.87,3,3,0,0,1-.91-2.27,2.82,2.82,0,0,1,1.14-2.49,6.42,6.42,0,0,1,3.57-.79h1.77V134a1.18,1.18,0,0,0-.56-1.07,3.58,3.58,0,0,0-1.75-.34,7.81,7.81,0,0,0-1.8.2,6.29,6.29,0,0,0-1.55.59V131a16.67,16.67,0,0,1,1.95-.36,15.8,15.8,0,0,1,1.94-.13,5.38,5.38,0,0,1,3.67,1A4.35,4.35,0,0,1,479.23,134.89Zm-4.59,1.17a2.56,2.56,0,0,0-1.41.32,1.1,1.1,0,0,0-.48,1,1.15,1.15,0,0,0,.38.91,1.59,1.59,0,0,0,1.07.33,1.84,1.84,0,0,0,1.42-.62,2.2,2.2,0,0,0,.58-1.56v-.35Z"/><path class="cls-3" d="M488.12,127.55h5.36a5.49,5.49,0,0,1,3.67,1.09,4.41,4.41,0,0,1,0,6.21,5.54,5.54,0,0,1-3.67,1.09h-2.13v4.45h-3.23Zm3.23,2.4v3.59h1.78a2.12,2.12,0,0,0,1.46-.47,1.73,1.73,0,0,0,.51-1.33,1.7,1.7,0,0,0-.51-1.33,2.11,2.11,0,0,0-1.46-.46Z"/><path class="cls-3" d="M500.7,127.55h3.23v12.84H500.7Z"/><path class="cls-3" d="M167.37,155.19V149.3h3v1c0,.52,0,1.17,0,2s0,1.32,0,1.58a16.19,16.19,0,0,0,.06,1.67,2,2,0,0,0,.2.75,1.36,1.36,0,0,0,1.17.63,1.72,1.72,0,0,0,1.47-.74,3.45,3.45,0,0,0,.54-2.06V149.3h3v9.64h-3v-1.4a4.59,4.59,0,0,1-1.44,1.25,3.61,3.61,0,0,1-1.67.4,3,3,0,0,1-2.48-1A4.51,4.51,0,0,1,167.37,155.19Z"/><path class="cls-3" d="M187,149.6v2.34a11.59,11.59,0,0,0-1.86-.62,8,8,0,0,0-1.69-.2,2.78,2.78,0,0,0-1.27.22.7.7,0,0,0-.41.67.63.63,0,0,0,.31.57,2.89,2.89,0,0,0,1.13.29l.52.08a6.26,6.26,0,0,1,3.11,1,2.71,2.71,0,0,1,.8,2.16,2.62,2.62,0,0,1-1.11,2.31,5.76,5.76,0,0,1-3.31.78,12.81,12.81,0,0,1-1.92-.15,14.18,14.18,0,0,1-2-.46v-2.33a9,9,0,0,0,1.84.67,8.23,8.23,0,0,0,1.91.22,2.76,2.76,0,0,0,1.33-.25.79.79,0,0,0,.44-.74.68.68,0,0,0-.3-.61,3.19,3.19,0,0,0-1.22-.32l-.53-.07a5.44,5.44,0,0,1-2.81-1,2.65,2.65,0,0,1-.81-2.12,2.61,2.61,0,0,1,1-2.27,5.46,5.46,0,0,1,3.15-.74,11.91,11.91,0,0,1,1.74.13A19.86,19.86,0,0,1,187,149.6Z"/><path class="cls-3" d="M199.3,154.09V155h-7a2.29,2.29,0,0,0,.76,1.63,2.81,2.81,0,0,0,1.83.54,7,7,0,0,0,1.94-.29,9.54,9.54,0,0,0,2-.87v2.37a12.27,12.27,0,0,1-2.13.63,11,11,0,0,1-2.13.21,5.58,5.58,0,0,1-4-1.33,4.85,4.85,0,0,1-1.42-3.73,5,5,0,0,1,1.39-3.71,5.26,5.26,0,0,1,3.82-1.35,4.74,4.74,0,0,1,3.55,1.37A5,5,0,0,1,199.3,154.09Zm-3.09-1a2,2,0,0,0-.5-1.41,1.7,1.7,0,0,0-1.31-.54,2,2,0,0,0-1.41.5,2.38,2.38,0,0,0-.68,1.45Z"/><path class="cls-3" d="M208.9,149.6v2.34a11.17,11.17,0,0,0-1.85-.62,8.09,8.09,0,0,0-1.7-.2,2.78,2.78,0,0,0-1.27.22.71.71,0,0,0-.41.67.63.63,0,0,0,.31.57,2.94,2.94,0,0,0,1.13.29l.52.08a6.26,6.26,0,0,1,3.11,1,2.71,2.71,0,0,1,.8,2.16,2.62,2.62,0,0,1-1.11,2.31,5.76,5.76,0,0,1-3.31.78,12.81,12.81,0,0,1-1.92-.15,14.81,14.81,0,0,1-2-.46v-2.33a9,9,0,0,0,1.84.67,8.26,8.26,0,0,0,1.92.22,2.74,2.74,0,0,0,1.32-.25.8.8,0,0,0,.45-.74.69.69,0,0,0-.31-.61,3.19,3.19,0,0,0-1.22-.32l-.53-.07a5.44,5.44,0,0,1-2.81-1,2.65,2.65,0,0,1-.81-2.12,2.6,2.6,0,0,1,1-2.27,5.4,5.4,0,0,1,3.14-.74,11.91,11.91,0,0,1,1.74.13A19.86,19.86,0,0,1,208.9,149.6Z"/><path class="cls-3" d="M221.05,146.57v2.73h3.09v2.2h-3.09v4.09a1.24,1.24,0,0,0,.25.91,1.6,1.6,0,0,0,1,.24h1.55v2.2h-2.57a3.49,3.49,0,0,1-2.53-.76,3.68,3.68,0,0,1-.74-2.59V151.5h-1.49v-2.2H218v-2.73Z"/><path class="cls-3" d="M235.42,153.07v5.87h-3v-4.48a16.23,16.23,0,0,0-.06-1.73,1.89,1.89,0,0,0-.18-.7,1.27,1.27,0,0,0-.48-.47,1.44,1.44,0,0,0-.69-.17,1.72,1.72,0,0,0-1.48.75,3.51,3.51,0,0,0-.53,2.06v4.74h-3V145.55h3v5.16a4.68,4.68,0,0,1,1.44-1.24,3.54,3.54,0,0,1,1.69-.4,3,3,0,0,1,2.46,1A4.56,4.56,0,0,1,235.42,153.07Z"/><path class="cls-3" d="M247.58,154.09V155h-7a2.29,2.29,0,0,0,.76,1.63,2.81,2.81,0,0,0,1.83.54,7.09,7.09,0,0,0,1.95-.29,9.47,9.47,0,0,0,2-.87v2.37A12.27,12.27,0,0,1,245,159a11,11,0,0,1-2.13.21,5.58,5.58,0,0,1-4-1.33,4.88,4.88,0,0,1-1.41-3.73,5,5,0,0,1,1.38-3.71,5.26,5.26,0,0,1,3.83-1.35,4.72,4.72,0,0,1,3.54,1.37A5,5,0,0,1,247.58,154.09Zm-3.09-1a2,2,0,0,0-.49-1.41,1.71,1.71,0,0,0-1.31-.54,2.05,2.05,0,0,0-1.42.5,2.38,2.38,0,0,0-.68,1.45Z"/><path class="cls-3" d="M249.85,145.55h3v2.51h-3Zm0,3.75h3v9.64h-3Z"/><path class="cls-3" d="M262.71,151.93a3.67,3.67,0,0,0-.78-.28,3.48,3.48,0,0,0-.79-.09,2.16,2.16,0,0,0-1.78.76,3.33,3.33,0,0,0-.63,2.18v4.44h-3V149.3h3v1.58a3.93,3.93,0,0,1,1.33-1.38,3.54,3.54,0,0,1,1.81-.43h.32l.51.06Z"/><path class="cls-3" d="M273.46,146.57v2.73h3.09v2.2h-3.09v4.09a1.24,1.24,0,0,0,.25.91,1.6,1.6,0,0,0,1,.24h1.55v2.2h-2.57a3.49,3.49,0,0,1-2.53-.76,3.68,3.68,0,0,1-.74-2.59V151.5H269v-2.2h1.49v-2.73Z"/><path class="cls-3" d="M278.29,155.19V149.3h3v2.93c0,.79,0,1.32,0,1.58a16.19,16.19,0,0,0,.06,1.67,1.85,1.85,0,0,0,.2.75,1.25,1.25,0,0,0,.48.46,1.4,1.4,0,0,0,.68.17,1.74,1.74,0,0,0,1.48-.74,3.45,3.45,0,0,0,.53-2.06V149.3h3v9.64h-3v-1.4a4.68,4.68,0,0,1-1.43,1.25,3.65,3.65,0,0,1-1.68.4,3,3,0,0,1-2.47-1A4.51,4.51,0,0,1,278.29,155.19Z"/><path class="cls-3" d="M297.59,151.93a3.67,3.67,0,0,0-.78-.28,3.48,3.48,0,0,0-.79-.09,2.17,2.17,0,0,0-1.78.76,3.33,3.33,0,0,0-.62,2.18v4.44h-3V149.3h3v1.58a3.82,3.82,0,0,1,1.32-1.38,3.54,3.54,0,0,1,1.81-.43h.32l.51.06Z"/><path class="cls-3" d="M308.53,153.07v5.87h-3v-4.49a16.14,16.14,0,0,0-.06-1.72,1.86,1.86,0,0,0-.19-.7,1.15,1.15,0,0,0-.48-.47,1.4,1.4,0,0,0-.68-.17,1.72,1.72,0,0,0-1.48.75,3.43,3.43,0,0,0-.53,2.06v4.74h-3V149.3h3v1.41a4.68,4.68,0,0,1,1.44-1.24,3.54,3.54,0,0,1,1.69-.4,3,3,0,0,1,2.46,1A4.62,4.62,0,0,1,308.53,153.07Z"/><path class="cls-3" d="M320.57,146.57v2.73h3.09v2.2h-3.09v4.09a1.24,1.24,0,0,0,.25.91,1.58,1.58,0,0,0,1,.24h1.55v2.2h-2.57a3.49,3.49,0,0,1-2.53-.76,3.63,3.63,0,0,1-.74-2.59V151.5h-1.5v-2.2h1.5v-2.73Z"/><path class="cls-3" d="M330,149.07a5.19,5.19,0,0,1,3.79,1.34,5.75,5.75,0,0,1,0,7.43,6,6,0,0,1-7.59,0,5.72,5.72,0,0,1,0-7.43A5.23,5.23,0,0,1,330,149.07Zm0,2.2a1.75,1.75,0,0,0-1.52.74,4.58,4.58,0,0,0,0,4.24A1.74,1.74,0,0,0,330,157a1.7,1.7,0,0,0,1.5-.73,4.58,4.58,0,0,0,0-4.24A1.71,1.71,0,0,0,330,151.27Z"/><path class="cls-3" d="M349.66,150.71v-5.16h3v13.39h-3v-1.4a4.09,4.09,0,0,1-1.37,1.25,3.71,3.71,0,0,1-1.73.4,3.48,3.48,0,0,1-2.85-1.42,6.52,6.52,0,0,1,0-7.28,3.45,3.45,0,0,1,2.85-1.42,3.59,3.59,0,0,1,1.73.4A4.27,4.27,0,0,1,349.66,150.71Zm-2,6.24a1.7,1.7,0,0,0,1.48-.72,4.58,4.58,0,0,0,0-4.2,1.7,1.7,0,0,0-1.48-.72,1.66,1.66,0,0,0-1.45.72,4.58,4.58,0,0,0,0,4.2A1.66,1.66,0,0,0,347.67,157Z"/><path class="cls-3" d="M355.56,145.55h3v2.51h-3Zm0,3.75h3v9.64h-3Z"/><path class="cls-3" d="M368.77,149.6v2.34a11.59,11.59,0,0,0-1.86-.62,8,8,0,0,0-1.69-.2,2.78,2.78,0,0,0-1.27.22.7.7,0,0,0-.41.67.63.63,0,0,0,.31.57,2.89,2.89,0,0,0,1.13.29l.52.08a6.26,6.26,0,0,1,3.11,1,2.71,2.71,0,0,1,.8,2.16,2.62,2.62,0,0,1-1.11,2.31,5.76,5.76,0,0,1-3.31.78,13,13,0,0,1-1.93-.15,14.36,14.36,0,0,1-2-.46v-2.33a9,9,0,0,0,1.84.67,8.23,8.23,0,0,0,1.91.22,2.76,2.76,0,0,0,1.33-.25.79.79,0,0,0,.44-.74.68.68,0,0,0-.3-.61,3.25,3.25,0,0,0-1.22-.32l-.53-.07a5.44,5.44,0,0,1-2.81-1,2.65,2.65,0,0,1-.81-2.12,2.61,2.61,0,0,1,1-2.27,5.43,5.43,0,0,1,3.14-.74,11.94,11.94,0,0,1,1.75.13A19.86,19.86,0,0,1,368.77,149.6Z"/><path class="cls-3" d="M379.25,149.6v2.52a4.83,4.83,0,0,0-1.23-.64,4,4,0,0,0-1.28-.21,2.52,2.52,0,0,0-2,.76,3.5,3.5,0,0,0,0,4.2,2.55,2.55,0,0,0,2,.75,4.23,4.23,0,0,0,1.34-.21,3.94,3.94,0,0,0,1.17-.64v2.52a8,8,0,0,1-1.43.4,7.91,7.91,0,0,1-1.45.14,5.6,5.6,0,0,1-4-1.34,5.53,5.53,0,0,1,0-7.44,5.6,5.6,0,0,1,4-1.34,7.82,7.82,0,0,1,1.45.13A9.55,9.55,0,0,1,379.25,149.6Z"/><path class="cls-3" d="M390.63,153.44v5.5h-3v-1.43a4.09,4.09,0,0,1-1.36,1.28,4,4,0,0,1-1.84.4,3.23,3.23,0,0,1-2.37-.88,3,3,0,0,1-.91-2.26,2.82,2.82,0,0,1,1.14-2.49,6.29,6.29,0,0,1,3.57-.79h1.77v-.24a1.15,1.15,0,0,0-.57-1.07,3.44,3.44,0,0,0-1.75-.34,7.27,7.27,0,0,0-1.79.2,6.14,6.14,0,0,0-1.55.59v-2.35a18.92,18.92,0,0,1,1.94-.37,16,16,0,0,1,1.95-.12,5.35,5.35,0,0,1,3.67,1A4.33,4.33,0,0,1,390.63,153.44Zm-4.58,1.16a2.5,2.5,0,0,0-1.42.33,1.11,1.11,0,0,0-.47,1,1.17,1.17,0,0,0,.38.92,1.56,1.56,0,0,0,1.06.33,1.89,1.89,0,0,0,1.43-.62,2.25,2.25,0,0,0,.58-1.57v-.35Z"/><path class="cls-3" d="M400.4,151.93a3.75,3.75,0,0,0-.79-.28,3.39,3.39,0,0,0-.78-.09,2.16,2.16,0,0,0-1.78.76,3.33,3.33,0,0,0-.63,2.18v4.44h-3V149.3h3v1.58a3.93,3.93,0,0,1,1.33-1.38,3.53,3.53,0,0,1,1.8-.43h.33l.51.06Z"/><path class="cls-3" d="M408.28,150.71v-5.16h3v13.39h-3v-1.4a4.07,4.07,0,0,1-1.36,1.25,3.72,3.72,0,0,1-1.74.4,3.5,3.5,0,0,1-2.85-1.42,6.52,6.52,0,0,1,0-7.28,3.48,3.48,0,0,1,2.85-1.42,3.59,3.59,0,0,1,1.73.4A4.17,4.17,0,0,1,408.28,150.71Zm-2,6.24a1.7,1.7,0,0,0,1.48-.72,4.66,4.66,0,0,0,0-4.2,1.86,1.86,0,0,0-2.94,0,4.58,4.58,0,0,0,0,4.2A1.68,1.68,0,0,0,406.3,157Z"/><path class="cls-3" d="M420.16,145.55h3v2.51h-3Zm0,3.75h3v9.64h-3Z"/><path class="cls-3" d="M429.32,146.57v2.73h3.09v2.2h-3.09v4.09a1.24,1.24,0,0,0,.25.91,1.58,1.58,0,0,0,1,.24h1.55v2.2h-2.57a3.49,3.49,0,0,1-2.53-.76,3.68,3.68,0,0,1-.74-2.59V151.5h-1.49v-2.2h1.49v-2.73Z"/><path class="cls-3" d="M434.55,155.61h3v3.33h-3Z"/><path d="M248.35,63.77V37.09h13.83c5.49,0,8.36,2.89,8.36,6.93a6.19,6.19,0,0,1-3.76,5.88V50a6.65,6.65,0,0,1,5.09,6.57c0,4.16-2.92,7.22-8.54,7.22ZM254,41.94v6h7.47c2.34,0,3.45-1.31,3.45-3s-.89-3-3.5-3Zm0,10.61V59h8.35c2.65,0,3.71-1.43,3.71-3.19s-1.32-3.22-3.66-3.22Z"/><path d="M294.18,37.09h5.53V53.16c0,6.82-4.33,11.14-12.11,11.14S275.31,60,275.31,53.16V37.09H281V53.16c0,4,2.21,6.33,6.58,6.33s6.63-2.37,6.63-6.33Z"/><path d="M304.92,63.77V37.09h10.26c10.12,0,15.42,5.34,15.42,13.34s-5.3,13.34-15.42,13.34ZM315.18,59c6.67,0,9.68-3.35,9.68-8.53s-3-8.49-9.68-8.49h-4.6V59Z"/><path d="M357.25,45.57c-1.54-2.57-4.55-4.16-8.26-4.16-5.75,0-9.64,3.8-9.64,9s3.89,9.06,9.64,9.06c4.55,0,7.87-2,9.19-5.47v-.08h-11V49.29h17.11v2.48c-.67,7.31-6.86,12.53-15.34,12.53-9,0-15.39-5.87-15.39-13.87S340,36.56,349,36.56c7.07,0,12.51,3.59,14.54,9Z"/><path d="M374.18,52.55V59h15.65v4.81H368.52V37.09h21.31v4.85H374.18v6h13.08v4.65Z"/><path d="M401.67,63.77V41.94h-8.62V37.09H416v4.85h-8.62V63.77Z"/><path d="M295.49,78.28c-1.37-3.22-4.64-5.34-8.93-5.34-5.75,0-9.64,3.79-9.64,9S280.81,91,286.56,91c4.29,0,7.56-2.16,8.93-5.38h6c-1.64,6.08-7.34,10.2-14.9,10.2-9,0-15.38-5.88-15.38-13.87s6.36-13.88,15.38-13.88c7.56,0,13.26,4.13,14.9,10.2Z"/><path d="M324,68.61h5.52V84.69c0,6.81-4.33,11.14-12.11,11.14s-12.29-4.29-12.29-11.14V68.61h5.66V84.69c0,4,2.21,6.32,6.59,6.32S324,88.65,324,84.69Z"/><path d="M341.63,95.3V73.47H333V68.61h22.9v4.86h-8.62V95.3Z"/><path d="M373.5,76.33c-.05-2-1.68-3.51-4.82-3.51s-4.78,1.59-4.78,3.55c0,5.55,15.43.4,15.43,11.09,0,5.19-4.29,8.41-10.74,8.41S358,92.73,357.85,87.63h5.52c.05,2.12,1.77,3.55,5.22,3.55s5.21-1.43,5.21-3.55c0-5.55-15.38-.45-15.38-11.1,0-4.94,4.07-8.41,10.21-8.41,6,0,10,3.31,10.21,8.21Z"/><path d="M383.35,92.61a3.5,3.5,0,1,1,3.49,3.22A3.34,3.34,0,0,1,383.35,92.61Zm1.24-5.68-.71-18.32h5.92l-.71,18.32Z"/><g id="_" data-name=""><polygon class="cls-1" points="41.66 56.91 67.35 33.19 108.18 70.88 82.48 94.6 41.66 56.91"/><g id="_2" data-name=""><path class="cls-4" d="M26.17,99.46a3.75,3.75,0,0,0,2.62.93s18,.19,28.26-8.94l.4-.38a8.28,8.28,0,0,0,0-12.29,10.06,10.06,0,0,0-13.32,0l-18,16.39A2.69,2.69,0,0,0,26.17,99.46Z"/><line class="cls-5" x1="32.62" y1="100.02" x2="32.62" y2="100.02"/><path class="cls-4" d="M42.52,92.38c.2,1.49-.81,3.73-2.63,5.59a12.5,12.5,0,0,1-1.81,1.49"/><path class="cls-4" d="M34.24,97.41a5,5,0,0,1-1.62,2.8"/><ellipse class="cls-6" cx="67.43" cy="38.72" rx="4.64" ry="4.29"/><ellipse class="cls-6" cx="103.12" cy="70.71" rx="4.64" ry="4.29"/><ellipse class="cls-6" cx="47.02" cy="57.53" rx="4.64" ry="4.29"/><ellipse class="cls-6" cx="81.84" cy="89.57" rx="4.64" ry="4.29"/><polygon class="cls-6" points="106.84 69.81 104.41 72.05 65.44 36.08 67.87 33.84 106.84 69.81"/><polygon class="cls-6" points="83.17 90.97 80.74 93.22 41.78 57.24 44.2 55 83.17 90.97"/><polygon class="cls-6" points="67.98 32.97 70.41 35.21 44.29 59.32 41.86 57.08 67.98 32.97"/><polygon class="cls-6" points="105.86 68.11 108.28 70.35 82.16 94.46 79.74 92.22 105.86 68.11"/><ellipse class="cls-6" cx="74.86" cy="63.48" rx="11.02" ry="18.1" transform="translate(-21.89 80.02) rotate(-50)"/><path class="cls-7" d="M80.87,93.12,43.12,58.28a1.71,1.71,0,0,1,0-2.61L65.73,34.8a2.06,2.06,0,0,1,2.83,0L106.1,69.46a1.71,1.71,0,0,1,0,2.61L83.7,93.12A2.59,2.59,0,0,1,80.87,93.12Z"/><path class="cls-8" d="M93.59,59.21,70,81l-.2.19A1.36,1.36,0,0,1,68.35,81L55.84,69.46a1.06,1.06,0,0,1-.2-1.31c0-.18.2-.18.2-.18L79.46,46.16l.2-.18a1.32,1.32,0,0,1,1.41.18L93.59,57.72c.4.37.4.74.2,1.3A.19.19,0,0,1,93.59,59.21Z"/><path class="cls-4" d="M113.37,19a3.17,3.17,0,0,1,1,2.42s.2,16.58-9.69,26.09l-.4.37a10.07,10.07,0,0,1-13.33,0,8.31,8.31,0,0,1,0-12.3l17.77-16.4A3.09,3.09,0,0,1,113.37,19Z"/><line class="cls-5" x1="113.98" y1="24.92" x2="113.98" y2="24.92"/><path class="cls-4" d="M105.7,34.05c1.61.19,4-.74,6-2.42A12,12,0,0,0,113.37,30"/><path class="cls-4" d="M111.15,26.41a5.79,5.79,0,0,0,3-1.49"/></g></g></g></g></svg>