<svg xmlns="http://www.w3.org/2000/svg" xmlns:xlink="http://www.w3.org/1999/xlink" viewBox="0 0 430.8 286.8"><defs><style>.cls-1{isolation:isolate;}.cls-2{opacity:0.4;mix-blend-mode:multiply;}.cls-10,.cls-3,.cls-6{fill:#fff;}.cls-4{fill:url(#linear-gradient);}.cls-5{fill:#231f20;}.cls-10,.cls-6,.cls-7,.cls-9{stroke:#1d1c1a;stroke-linecap:round;stroke-width:2px;}.cls-6,.cls-7{stroke-miterlimit:10;}.cls-7,.cls-9{fill:none;}.cls-8{fill:#5c9d43;}.cls-10,.cls-9{stroke-linejoin:round;}</style><linearGradient id="linear-gradient" x1="-2.327" y1="142.86" x2="414" y2="142.86" gradientTransform="matrix(1, 0, 0, -1, 6.6, 283)" gradientUnits="userSpaceOnUse"><stop offset="0" stop-color="#e6e6e6"/><stop offset="0.005" stop-color="#cdd7d1"/><stop offset="0.015" stop-color="#a2bcac"/><stop offset="0.025" stop-color="#7ba58c"/><stop offset="0.037" stop-color="#5b9171"/><stop offset="0.049" stop-color="#41815a"/><stop offset="0.062" stop-color="#2c7449"/><stop offset="0.077" stop-color="#1e6c3d"/><stop offset="0.095" stop-color="#166736"/><stop offset="0.125" stop-color="#136534"/><stop offset="0.4" stop-color="#3352a3"/><stop offset="0.6" stop-color="#a31957"/><stop offset="0.875" stop-color="#8c3a1c"/><stop offset="0.906" stop-color="#8d3c1f"/><stop offset="0.924" stop-color="#914327"/><stop offset="0.939" stop-color="#974f35"/><stop offset="0.952" stop-color="#a0614a"/><stop offset="0.965" stop-color="#ac7764"/><stop offset="0.976" stop-color="#ba9384"/><stop offset="0.987" stop-color="#ccb3ab"/><stop offset="0.997" stop-color="#dfd8d6"/><stop offset="1" stop-color="#e6e6e6"/></linearGradient></defs><title>eventCard</title><g class="cls-1"><g id="Layer_1" data-name="Layer 1"><g id="Event_Cards" data-name="Event Cards"><g class="cls-2"><rect x="3.084" y="10.284" width="417.43" height="273.43"/><path d="M410.231,13.369V280.631H-1.031V13.369H410.231M416.4,7.2H-7.2V286.8H416.4V7.2Z" transform="translate(7.2)"/></g><rect class="cls-3" x="10.284" y="3.084" width="417.43" height="273.43"/><path d="M417.431,6.169V273.431H6.169V6.169H417.431M423.6,0H0V279.6H423.6V0Z" transform="translate(7.2)"/><path class="cls-3" d="M22.871,274.5c-9.8,0-17.771-11.739-17.771-26.166V27.666C5.1,13.238,13.072,1.5,22.871,1.5H404.329c9.8,0,17.771,11.738,17.771,26.166V248.334c0,14.427-7.972,26.166-17.771,26.166Z" transform="translate(7.2)"/><path class="cls-3" d="M22.87,3H404.33c8.985,0,16.27,11.044,16.27,24.666V248.334c0,13.622-7.285,24.666-16.27,24.666H22.87C13.885,273,6.6,261.956,6.6,248.334V27.666C6.6,14.044,13.885,3,22.87,3Z" transform="translate(7.2)"/><path class="cls-4" d="M400.629,21.41a15.518,15.518,0,0,1,.971,5.667V247.744a15.513,15.513,0,0,1-.971,5.666H26.571a15.513,15.513,0,0,1-.971-5.666V27.077a15.518,15.518,0,0,1,.971-5.667H400.629m3.7-19H9c-8.985,0-2.4,11.044-2.4,24.667V247.744C6.6,261.366.015,279.6,9,279.6H404.33c11.458,0,16.27,3.27,16.27-31.856V9.01c0-13.623-7.284-6.6-16.27-6.6Z" transform="translate(7.2)"/><g id="_02_budget" data-name=" 02 budget"><path class="cls-5" d="M64.24,150.763h.86v12.393h-.86Z" transform="translate(7.2)"/><path class="cls-5" d="M69.926,151.219v2.64h3.146v.648H69.926v5.587a2.9,2.9,0,0,0,.274,1.485,1.809,1.809,0,0,0,1.643.93h1.229v.647H71.885a2.921,2.921,0,0,1-1.934-.664,2.994,2.994,0,0,1-.8-2.4v-5.587h-1.11v-.648h1.113v-2.64Z" transform="translate(7.2)"/><path class="cls-5" d="M81.19,150.24h.764v12.916H81.19Z" transform="translate(7.2)"/><path class="cls-5" d="M89.192,153.635A3.357,3.357,0,0,1,92,154.963a6.67,6.67,0,0,1,0,7.147,3.357,3.357,0,0,1-2.805,1.328,3.408,3.408,0,0,1-2.831-1.319,5.731,5.731,0,0,1-1.029-3.611,5.6,5.6,0,0,1,1.038-3.553A3.4,3.4,0,0,1,89.192,153.635Zm.008.672a2.616,2.616,0,0,0-2.241,1.138,5.049,5.049,0,0,0-.83,3.055,5.179,5.179,0,0,0,.822,3.1,2.783,2.783,0,0,0,4.49,0,5.182,5.182,0,0,0,.83-3.1,5.084,5.084,0,0,0-.83-3.047,2.613,2.613,0,0,0-2.241-1.146Z" transform="translate(7.2)"/><path class="cls-5" d="M99.593,153.635a3.357,3.357,0,0,1,2.8,1.328,6.67,6.67,0,0,1,0,7.147,3.357,3.357,0,0,1-2.8,1.328,3.408,3.408,0,0,1-2.831-1.319,5.731,5.731,0,0,1-1.029-3.611,5.6,5.6,0,0,1,1.037-3.553A3.4,3.4,0,0,1,99.593,153.635Zm.008.672a2.616,2.616,0,0,0-2.241,1.138,5.049,5.049,0,0,0-.83,3.055,5.187,5.187,0,0,0,.821,3.1,2.784,2.784,0,0,0,4.491,0,5.191,5.191,0,0,0,.83-3.1,5.084,5.084,0,0,0-.83-3.047,2.613,2.613,0,0,0-2.242-1.146Z" transform="translate(7.2)"/><path class="cls-5" d="M107.487,150.24h.772v7.844l4.623-4.225h1.046l-4.806,4.391,4.964,4.906H113.1l-4.839-4.765v4.765h-.772Z" transform="translate(7.2)"/><path class="cls-5" d="M121.822,154.133v.838a6.527,6.527,0,0,0-1-.5,7.242,7.242,0,0,0-1.445-.166,3.541,3.541,0,0,0-2.058.523,1.737,1.737,0,0,0-.573,1.478,1.3,1.3,0,0,0,.54,1.1,4.209,4.209,0,0,0,1.635.664l.523.116a5.029,5.029,0,0,1,2,.821,2.015,2.015,0,0,1,.83,1.579,2.726,2.726,0,0,1-.78,2.066,3.972,3.972,0,0,1-2.673.738,6.54,6.54,0,0,1-1.56-.14q-.64-.183-1.345-.44v-.955a8.035,8.035,0,0,0,1.312.664,6.374,6.374,0,0,0,1.626.216,2.974,2.974,0,0,0,1.984-.556,1.867,1.867,0,0,0,.648-1.478,1.347,1.347,0,0,0-.432-1.112,5.084,5.084,0,0,0-1.984-.814l-.531-.124a4.438,4.438,0,0,1-1.785-.772,1.88,1.88,0,0,1-.772-1.51,2.363,2.363,0,0,1,.93-2.1,3.929,3.929,0,0,1,2.283-.639,6.823,6.823,0,0,1,1.594.125A7.6,7.6,0,0,1,121.822,154.133Z" transform="translate(7.2)"/><path class="cls-5" d="M130.82,150.24h.764v12.916h-.764Z" transform="translate(7.2)"/><path class="cls-5" d="M135.527,150.24h.763v1.046h-.763Zm0,3.619h.763v9.3h-.763Z" transform="translate(7.2)"/><path class="cls-5" d="M141.038,150.24h.772v7.844l4.624-4.225h1.046l-4.806,4.391,4.964,4.906h-.988l-4.84-4.765v4.765h-.772Z" transform="translate(7.2)"/><path class="cls-5" d="M156.752,158.126v.481H149.7a4.461,4.461,0,0,0,.872,3.138,3.805,3.805,0,0,0,2.864,1,5.459,5.459,0,0,0,1.319-.216,7.477,7.477,0,0,0,1.644-.647v.805a9.113,9.113,0,0,1-1.685.532,7.038,7.038,0,0,1-1.37.181,4.221,4.221,0,0,1-3.237-1.162,5.061,5.061,0,0,1-1.179-3.627,5.463,5.463,0,0,1,1.079-3.7,3.853,3.853,0,0,1,3.072-1.27,3.263,3.263,0,0,1,2.755,1.2A5.428,5.428,0,0,1,156.752,158.126Zm-.772-.166a3.961,3.961,0,0,0-.88-2.856,2.605,2.605,0,0,0-2.009-.8,3.378,3.378,0,0,0-2.324.83,4.2,4.2,0,0,0-1.038,2.823Z" transform="translate(7.2)"/><path class="cls-5" d="M166.173,151.219v2.64h3.146v.648h-3.146v5.587a2.914,2.914,0,0,0,.274,1.485,1.811,1.811,0,0,0,1.644.93h1.228v.647h-1.187a2.921,2.921,0,0,1-1.934-.664,3,3,0,0,1-.8-2.4v-5.587h-1.112v-.648H165.4v-2.64Z" transform="translate(7.2)"/><path class="cls-5" d="M179.056,157.545v5.611h-.764v-5.562a4.091,4.091,0,0,0-.606-2.54,2.218,2.218,0,0,0-1.834-.747,3,3,0,0,0-2.233.83,3.839,3.839,0,0,0-.822,2.765v5.254h-.763V150.24h.763v5.338a3,3,0,0,1,.947-1.271,3.5,3.5,0,0,1,2.291-.672,2.716,2.716,0,0,1,2.2.988A4.5,4.5,0,0,1,179.056,157.545Z" transform="translate(7.2)"/><path class="cls-5" d="M190.055,158.126v.481H183a4.456,4.456,0,0,0,.872,3.138,3.807,3.807,0,0,0,2.863,1,5.475,5.475,0,0,0,1.32-.216,7.546,7.546,0,0,0,1.644-.647v.805a9.189,9.189,0,0,1-1.685.532,7.038,7.038,0,0,1-1.37.181,4.221,4.221,0,0,1-3.237-1.162,5.061,5.061,0,0,1-1.179-3.627,5.463,5.463,0,0,1,1.079-3.7,3.851,3.851,0,0,1,3.071-1.27,3.265,3.265,0,0,1,2.756,1.2A5.444,5.444,0,0,1,190.055,158.126Zm-.772-.166a3.961,3.961,0,0,0-.88-2.856,2.605,2.605,0,0,0-2.009-.8,3.378,3.378,0,0,0-2.324.83,4.194,4.194,0,0,0-1.038,2.823Z" transform="translate(7.2)"/><path class="cls-5" d="M202.672,150.24v.647h-1.079a1.771,1.771,0,0,0-1.295.441,2.314,2.314,0,0,0-.548,1.709v.822h2.507v.648H199.75v8.649h-.772v-8.649h-1.461v-.648h1.461v-.647a3.1,3.1,0,0,1,.7-2.258,2.572,2.572,0,0,1,1.926-.714Z" transform="translate(7.2)"/><path class="cls-5" d="M211.9,158.126v.481h-7.055a4.466,4.466,0,0,0,.871,3.138,3.805,3.805,0,0,0,2.864,1,5.475,5.475,0,0,0,1.32-.216,7.519,7.519,0,0,0,1.643-.647v.805a9.113,9.113,0,0,1-1.685.532,7.018,7.018,0,0,1-1.369.181,4.223,4.223,0,0,1-3.238-1.162,5.065,5.065,0,0,1-1.178-3.627,5.451,5.451,0,0,1,1.079-3.7,3.851,3.851,0,0,1,3.071-1.27,3.268,3.268,0,0,1,2.756,1.2A5.444,5.444,0,0,1,211.9,158.126Zm-.772-.166a3.96,3.96,0,0,0-.88-2.856,2.6,2.6,0,0,0-2.008-.8,3.382,3.382,0,0,0-2.325.83,4.2,4.2,0,0,0-1.037,2.823Z" transform="translate(7.2)"/><path class="cls-5" d="M221.29,155.984V150.24h.748v12.916h-.748v-2.108a3.986,3.986,0,0,1-1.136,1.66,3.044,3.044,0,0,1-1.769.688,3.4,3.4,0,0,1-2.747-1.344,6.253,6.253,0,0,1,0-7.072,3.4,3.4,0,0,1,2.747-1.345,3.045,3.045,0,0,1,1.769.689A3.986,3.986,0,0,1,221.29,155.984Zm-5.943,2.531a4.5,4.5,0,0,0,.963,3.239,2.565,2.565,0,0,0,3.6.414,2.615,2.615,0,0,0,.414-.414,5.966,5.966,0,0,0,0-6.475,2.562,2.562,0,0,0-3.6-.419,2.6,2.6,0,0,0-.419.419,4.489,4.489,0,0,0-.963,3.236Z" transform="translate(7.2)"/><path class="cls-5" d="M233.152,158.126v.481H226.1a4.466,4.466,0,0,0,.871,3.138,3.811,3.811,0,0,0,2.863,1,5.475,5.475,0,0,0,1.321-.216,7.469,7.469,0,0,0,1.643-.647v.805a9.2,9.2,0,0,1-1.684.532,7.038,7.038,0,0,1-1.37.181,4.219,4.219,0,0,1-3.238-1.162,5.065,5.065,0,0,1-1.178-3.627,5.451,5.451,0,0,1,1.079-3.7,3.851,3.851,0,0,1,3.071-1.27,3.265,3.265,0,0,1,2.756,1.2A5.442,5.442,0,0,1,233.152,158.126Zm-.772-.166a3.96,3.96,0,0,0-.88-2.856,2.6,2.6,0,0,0-2.008-.8,3.382,3.382,0,0,0-2.325.83,4.2,4.2,0,0,0-1.037,2.823Z" transform="translate(7.2)"/><path class="cls-5" d="M241.412,154.515a2.139,2.139,0,0,0-.5-.158,4.253,4.253,0,0,0-.713-.05,3,3,0,0,0-2.341,1.046,4.474,4.474,0,0,0-.731,2.906v4.9h-.747v-9.3h.747V155.6a3.6,3.6,0,0,1,1.046-1.261,3.524,3.524,0,0,1,2.192-.706,5.588,5.588,0,0,1,.564.025,1.911,1.911,0,0,1,.482.059Z" transform="translate(7.2)"/><path class="cls-5" d="M249.919,157.851v5.305h-.756v-2.523A3.341,3.341,0,0,1,245.8,163.4a3.084,3.084,0,0,1-2.183-.738,3.232,3.232,0,0,1,.24-4.5,5.277,5.277,0,0,1,3.4-.872h1.893v-.149a2.631,2.631,0,0,0-3.013-2.831,4.783,4.783,0,0,0-1.627.3,6.576,6.576,0,0,0-1.379.773v-.823a5.865,5.865,0,0,1,1.379-.647,6.27,6.27,0,0,1,1.784-.274,3.8,3.8,0,0,1,2.706,1A4.346,4.346,0,0,1,249.919,157.851Zm-2.847.059a4.255,4.255,0,0,0-2.657.656,2.315,2.315,0,0,0-.813,1.917,2.058,2.058,0,0,0,.673,1.743,2.544,2.544,0,0,0,1.594.515,2.608,2.608,0,0,0,2.5-1.478,6.022,6.022,0,0,0,.773-2.781v-.572Z" transform="translate(7.2)"/><path class="cls-5" d="M253.771,150.24h.764v12.916h-.764Z" transform="translate(7.2)"/><path class="cls-5" d="M270.837,162q0,2.9-1.1,3.794a4.3,4.3,0,0,1-2.8.9,9.531,9.531,0,0,1-1.519-.116,7.925,7.925,0,0,1-1.386-.373v-.872a6.079,6.079,0,0,0,1.328.54,5.239,5.239,0,0,0,1.336.174,4.6,4.6,0,0,0,2.383-.59q1-.589,1-3.179v-1.452a3.656,3.656,0,0,1-.938,1.5,2.92,2.92,0,0,1-2.051.83,3.314,3.314,0,0,1-2.756-1.249,6.734,6.734,0,0,1,0-7.022,3.317,3.317,0,0,1,2.756-1.25,2.85,2.85,0,0,1,1.943.714,4.239,4.239,0,0,1,1.046,1.486v-1.976h.763Zm-.763-3.6a4.984,4.984,0,0,0-.785-3,2.792,2.792,0,0,0-3.92-.471,2.836,2.836,0,0,0-.471.471,6.12,6.12,0,0,0,0,5.993,2.792,2.792,0,0,0,3.92.471,2.836,2.836,0,0,0,.471-.471A4.977,4.977,0,0,0,270.074,158.4Z" transform="translate(7.2)"/><path class="cls-5" d="M277.378,153.635a3.357,3.357,0,0,1,2.805,1.328,6.67,6.67,0,0,1,0,7.147,3.357,3.357,0,0,1-2.805,1.328,3.411,3.411,0,0,1-2.831-1.319,5.731,5.731,0,0,1-1.029-3.611,5.6,5.6,0,0,1,1.038-3.553A3.4,3.4,0,0,1,277.378,153.635Zm.008.672a2.616,2.616,0,0,0-2.241,1.138,5.049,5.049,0,0,0-.83,3.055,5.187,5.187,0,0,0,.821,3.1,2.784,2.784,0,0,0,4.491,0,5.182,5.182,0,0,0,.83-3.1,5.077,5.077,0,0,0-.83-3.047,2.613,2.613,0,0,0-2.241-1.146Z" transform="translate(7.2)"/><path class="cls-5" d="M283.653,153.859h.8l3.147,8.459,3.145-8.459h.806l-3.462,9.3h-.978Z" transform="translate(7.2)"/><path class="cls-5" d="M301.806,158.126v.481h-7.055a4.466,4.466,0,0,0,.871,3.138,3.805,3.805,0,0,0,2.864,1,5.475,5.475,0,0,0,1.32-.216,7.477,7.477,0,0,0,1.644-.647v.805a9.189,9.189,0,0,1-1.685.532,7.028,7.028,0,0,1-1.37.181,4.217,4.217,0,0,1-3.237-1.162,5.06,5.06,0,0,1-1.179-3.627,5.457,5.457,0,0,1,1.079-3.7,3.851,3.851,0,0,1,3.071-1.27,3.265,3.265,0,0,1,2.756,1.2A5.444,5.444,0,0,1,301.806,158.126Zm-.771-.166a3.96,3.96,0,0,0-.88-2.856,2.605,2.605,0,0,0-2.009-.8,3.378,3.378,0,0,0-2.324.83,4.188,4.188,0,0,0-1.037,2.823Z" transform="translate(7.2)"/><path class="cls-5" d="M310.066,154.515a2.124,2.124,0,0,0-.5-.158,4.265,4.265,0,0,0-.714-.05,3,3,0,0,0-2.341,1.046,4.48,4.48,0,0,0-.73,2.906v4.9h-.747v-9.3h.747V155.6a3.566,3.566,0,0,1,1.046-1.261,3.519,3.519,0,0,1,2.191-.706,5.588,5.588,0,0,1,.564.025,1.911,1.911,0,0,1,.482.059Z" transform="translate(7.2)"/><path class="cls-5" d="M318.731,157.545v5.611h-.764v-5.562a4.211,4.211,0,0,0-.581-2.547,2.041,2.041,0,0,0-1.71-.74,3.37,3.37,0,0,0-2.258.8,3.518,3.518,0,0,0-.946,2.8v5.254h-.764v-9.3h.764V155.6a3.193,3.193,0,0,1,1.07-1.3,3.755,3.755,0,0,1,2.167-.672,2.785,2.785,0,0,1,2.2.938A4.437,4.437,0,0,1,318.731,157.545Z" transform="translate(7.2)"/><path class="cls-5" d="M329.174,155.885a3.305,3.305,0,0,1,1.362-1.694,3.821,3.821,0,0,1,2.091-.556,2.429,2.429,0,0,1,1.943.855,4.745,4.745,0,0,1,.738,3.055v5.611h-.755v-5.562a4.493,4.493,0,0,0-.531-2.606,1.7,1.7,0,0,0-1.411-.681,3.5,3.5,0,0,0-2.258.788,3.384,3.384,0,0,0-1.07,2.807v5.254h-.764v-5.562a4.632,4.632,0,0,0-.516-2.573,1.661,1.661,0,0,0-1.427-.714,3.476,3.476,0,0,0-2.258.8,3.377,3.377,0,0,0-1.071,2.8v5.254h-.763v-9.3h.763V155.6a3.2,3.2,0,0,1,1.262-1.444,4.012,4.012,0,0,1,2.117-.523,2.639,2.639,0,0,1,1.569.548A3.276,3.276,0,0,1,329.174,155.885Z" transform="translate(7.2)"/><path class="cls-5" d="M346.29,158.126v.481h-7.054a4.466,4.466,0,0,0,.871,3.138,3.807,3.807,0,0,0,2.863,1,5.475,5.475,0,0,0,1.32-.216,7.477,7.477,0,0,0,1.644-.647v.805a9.113,9.113,0,0,1-1.685.532,7.028,7.028,0,0,1-1.37.181,4.221,4.221,0,0,1-3.237-1.162,5.061,5.061,0,0,1-1.179-3.627,5.463,5.463,0,0,1,1.079-3.7,3.854,3.854,0,0,1,3.072-1.27,3.268,3.268,0,0,1,2.756,1.2A5.437,5.437,0,0,1,346.29,158.126Zm-.771-.166a3.96,3.96,0,0,0-.88-2.856,2.605,2.605,0,0,0-2.009-.8,3.378,3.378,0,0,0-2.324.83,4.193,4.193,0,0,0-1.037,2.823Z" transform="translate(7.2)"/><path class="cls-5" d="M356.526,157.545v5.611h-.764v-5.562a4.211,4.211,0,0,0-.581-2.547,2.041,2.041,0,0,0-1.71-.74,3.37,3.37,0,0,0-2.258.8,3.518,3.518,0,0,0-.946,2.8v5.254H349.5v-9.3h.764V155.6a3.172,3.172,0,0,1,1.07-1.3,3.755,3.755,0,0,1,2.167-.672,2.78,2.78,0,0,1,2.2.938A4.427,4.427,0,0,1,356.526,157.545Z" transform="translate(7.2)"/><path class="cls-5" d="M361.081,151.219v2.64h3.147v.648h-3.147v5.587a2.9,2.9,0,0,0,.275,1.485,1.809,1.809,0,0,0,1.643.93h1.229v.647H363.04a2.924,2.924,0,0,1-1.933-.664,3,3,0,0,1-.8-2.4v-5.587H359.2v-.648h1.112v-2.64Z" transform="translate(7.2)"/><path class="cls-5" d="M70.98,173.984a3.982,3.982,0,0,1,1.137-1.66,3.042,3.042,0,0,1,1.768-.689,3.407,3.407,0,0,1,2.748,1.345,6.257,6.257,0,0,1,0,7.072,3.4,3.4,0,0,1-2.748,1.344,3.041,3.041,0,0,1-1.768-.688,3.982,3.982,0,0,1-1.137-1.66v2.108h-.747V168.24h.747Zm5.943,2.531a4.489,4.489,0,0,0-.963-3.236,2.561,2.561,0,0,0-4.017,0,5.966,5.966,0,0,0,0,6.475,2.564,2.564,0,0,0,4.017,0A4.5,4.5,0,0,0,76.923,176.515Z" transform="translate(7.2)"/><path class="cls-5" d="M80.908,177.47v-5.611h.763v5.562a4.23,4.23,0,0,0,.581,2.548,2.043,2.043,0,0,0,1.71.739,3.37,3.37,0,0,0,2.258-.8,3.518,3.518,0,0,0,.946-2.8v-5.254h.764v9.3h-.764v-1.743a3.18,3.18,0,0,1-1.07,1.295,3.745,3.745,0,0,1-2.167.673,2.784,2.784,0,0,1-2.2-.939A4.43,4.43,0,0,1,80.908,177.47Z" transform="translate(7.2)"/><path class="cls-5" d="M97.957,173.984V168.24H98.7v12.916h-.747v-2.108a3.973,3.973,0,0,1-1.137,1.66,3.041,3.041,0,0,1-1.768.688,3.4,3.4,0,0,1-2.747-1.344,6.253,6.253,0,0,1,0-7.072,3.4,3.4,0,0,1,2.747-1.345,3.042,3.042,0,0,1,1.768.689A3.966,3.966,0,0,1,97.957,173.984Zm-5.943,2.531a4.5,4.5,0,0,0,.963,3.239,2.565,2.565,0,0,0,3.6.414,2.615,2.615,0,0,0,.414-.414,5.97,5.97,0,0,0,0-6.475,2.562,2.562,0,0,0-3.6-.419,2.6,2.6,0,0,0-.419.419A4.489,4.489,0,0,0,92.014,176.515Z" transform="translate(7.2)"/><path class="cls-5" d="M109.512,180q0,2.9-1.1,3.794a4.3,4.3,0,0,1-2.8.9,9.531,9.531,0,0,1-1.519-.116,7.912,7.912,0,0,1-1.387-.373v-.872a6.116,6.116,0,0,0,1.329.54,5.239,5.239,0,0,0,1.336.174,4.594,4.594,0,0,0,2.382-.59q1-.589,1-3.179v-1.452a3.656,3.656,0,0,1-.938,1.5,2.918,2.918,0,0,1-2.05.83,3.314,3.314,0,0,1-2.756-1.249,6.738,6.738,0,0,1,0-7.022,3.317,3.317,0,0,1,2.756-1.25,2.85,2.85,0,0,1,1.943.714,4.236,4.236,0,0,1,1.045,1.486v-1.976h.764Zm-.764-3.6a4.99,4.99,0,0,0-.784-3,2.792,2.792,0,0,0-3.92-.471,2.836,2.836,0,0,0-.471.471,6.11,6.11,0,0,0,0,5.993,2.792,2.792,0,0,0,3.92.471,2.836,2.836,0,0,0,.471-.471A4.969,4.969,0,0,0,108.748,176.4Z" transform="translate(7.2)"/><path class="cls-5" d="M120.021,176.126v.481h-7.056a4.461,4.461,0,0,0,.872,3.138,3.805,3.805,0,0,0,2.864,1,5.459,5.459,0,0,0,1.319-.216,7.477,7.477,0,0,0,1.644-.647v.805a9.113,9.113,0,0,1-1.685.532,7.038,7.038,0,0,1-1.37.181,4.221,4.221,0,0,1-3.237-1.162,5.061,5.061,0,0,1-1.179-3.627,5.463,5.463,0,0,1,1.079-3.7,3.853,3.853,0,0,1,3.072-1.27,3.268,3.268,0,0,1,2.756,1.2A5.444,5.444,0,0,1,120.021,176.126Zm-.772-.166a3.961,3.961,0,0,0-.88-2.856,2.605,2.605,0,0,0-2.009-.8,3.384,3.384,0,0,0-2.324.83A4.2,4.2,0,0,0,113,175.957Z" transform="translate(7.2)"/><path class="cls-5" d="M124.038,169.219v2.64h3.146v.648h-3.146v5.587a2.914,2.914,0,0,0,.274,1.485,1.811,1.811,0,0,0,1.644.93h1.228v.647H126a2.926,2.926,0,0,1-1.934-.664,3,3,0,0,1-.8-2.4v-5.587h-1.113v-.648h1.113v-2.64Z" transform="translate(7.2)"/><path class="cls-5" d="M137.145,176.126v.481H130.09a4.466,4.466,0,0,0,.871,3.138,3.805,3.805,0,0,0,2.864,1,5.475,5.475,0,0,0,1.32-.216,7.469,7.469,0,0,0,1.643-.647v.805a9.038,9.038,0,0,1-1.685.532,7.018,7.018,0,0,1-1.369.181,4.225,4.225,0,0,1-3.238-1.162,5.065,5.065,0,0,1-1.178-3.627,5.463,5.463,0,0,1,1.079-3.7,3.851,3.851,0,0,1,3.071-1.27,3.268,3.268,0,0,1,2.756,1.2A5.444,5.444,0,0,1,137.145,176.126Zm-.772-.166a3.961,3.961,0,0,0-.879-2.856,2.609,2.609,0,0,0-2.009-.8,3.378,3.378,0,0,0-2.324.83,4.194,4.194,0,0,0-1.038,2.823Z" transform="translate(7.2)"/><path class="cls-5" d="M146.534,173.984V168.24h.747v12.916h-.747v-2.108a3.984,3.984,0,0,1-1.138,1.66,3.041,3.041,0,0,1-1.768.688,3.4,3.4,0,0,1-2.747-1.344,6.253,6.253,0,0,1,0-7.072,3.4,3.4,0,0,1,2.747-1.345,3.035,3.035,0,0,1,1.768.689A3.984,3.984,0,0,1,146.534,173.984Zm-5.944,2.531a4.5,4.5,0,0,0,.963,3.239,2.565,2.565,0,0,0,3.6.414,2.615,2.615,0,0,0,.414-.414,5.97,5.97,0,0,0,0-6.475,2.562,2.562,0,0,0-3.6-.419,2.6,2.6,0,0,0-.419.419A4.489,4.489,0,0,0,140.59,176.515Z" transform="translate(7.2)"/><path class="cls-5" d="M156.553,168.24h.763v12.916h-.763Z" transform="translate(7.2)"/><path class="cls-5" d="M168.522,176.126v.481h-7.055a4.466,4.466,0,0,0,.871,3.138,3.805,3.805,0,0,0,2.864,1,5.475,5.475,0,0,0,1.32-.216,7.469,7.469,0,0,0,1.643-.647v.805a9.038,9.038,0,0,1-1.685.532,7.018,7.018,0,0,1-1.369.181,4.225,4.225,0,0,1-3.238-1.162,5.065,5.065,0,0,1-1.178-3.627,5.463,5.463,0,0,1,1.079-3.7,3.851,3.851,0,0,1,3.071-1.27,3.268,3.268,0,0,1,2.756,1.2A5.444,5.444,0,0,1,168.522,176.126Zm-.772-.166a3.961,3.961,0,0,0-.879-2.856,2.609,2.609,0,0,0-2.009-.8,3.378,3.378,0,0,0-2.324.83,4.194,4.194,0,0,0-1.038,2.823Z" transform="translate(7.2)"/><path class="cls-5" d="M177,172.133v.838a6.527,6.527,0,0,0-1-.5,7.232,7.232,0,0,0-1.444-.166,3.545,3.545,0,0,0-2.059.523,1.737,1.737,0,0,0-.573,1.478,1.3,1.3,0,0,0,.54,1.1,4.224,4.224,0,0,0,1.635.664l.523.116a5.044,5.044,0,0,1,2,.821,2.016,2.016,0,0,1,.83,1.579,2.726,2.726,0,0,1-.781,2.066,3.971,3.971,0,0,1-2.672.738,6.549,6.549,0,0,1-1.561-.14q-.639-.183-1.345-.44v-.955a8.156,8.156,0,0,0,1.312.664,6.388,6.388,0,0,0,1.627.216,2.974,2.974,0,0,0,1.984-.556,1.869,1.869,0,0,0,.647-1.478,1.347,1.347,0,0,0-.432-1.112,5.086,5.086,0,0,0-1.983-.814l-.532-.124a4.434,4.434,0,0,1-1.784-.772,1.877,1.877,0,0,1-.772-1.51,2.369,2.369,0,0,1,.929-2.1,3.929,3.929,0,0,1,2.283-.639,6.823,6.823,0,0,1,1.594.125A7.613,7.613,0,0,1,177,172.133Z" transform="translate(7.2)"/><path class="cls-5" d="M185.854,172.133v.838a6.527,6.527,0,0,0-1-.5,7.232,7.232,0,0,0-1.444-.166,3.545,3.545,0,0,0-2.059.523,1.737,1.737,0,0,0-.573,1.478,1.3,1.3,0,0,0,.54,1.1,4.224,4.224,0,0,0,1.635.664l.523.116a5.044,5.044,0,0,1,2,.821,2.019,2.019,0,0,1,.83,1.579,2.726,2.726,0,0,1-.781,2.066,3.971,3.971,0,0,1-2.672.738,6.549,6.549,0,0,1-1.561-.14q-.639-.183-1.345-.44v-.955a8.156,8.156,0,0,0,1.312.664,6.388,6.388,0,0,0,1.627.216,2.974,2.974,0,0,0,1.984-.556,1.869,1.869,0,0,0,.647-1.478,1.347,1.347,0,0,0-.432-1.112,5.086,5.086,0,0,0-1.983-.814l-.532-.124a4.434,4.434,0,0,1-1.784-.772,1.877,1.877,0,0,1-.772-1.51,2.369,2.369,0,0,1,.929-2.1,3.929,3.929,0,0,1,2.283-.639,6.823,6.823,0,0,1,1.594.125A7.613,7.613,0,0,1,185.854,172.133Z" transform="translate(7.2)"/><path class="cls-5" d="M201.543,173.885a3.313,3.313,0,0,1,1.361-1.694,3.824,3.824,0,0,1,2.092-.556,2.427,2.427,0,0,1,1.942.855,4.732,4.732,0,0,1,.739,3.055v5.611h-.755v-5.562a4.5,4.5,0,0,0-.531-2.606,1.7,1.7,0,0,0-1.412-.681,3.5,3.5,0,0,0-2.257.788,3.384,3.384,0,0,0-1.071,2.807v5.254h-.764v-5.562a4.633,4.633,0,0,0-.515-2.573,1.661,1.661,0,0,0-1.427-.714,3.476,3.476,0,0,0-2.258.8,3.374,3.374,0,0,0-1.071,2.8v5.254h-.764v-9.3h.764V173.6a3.2,3.2,0,0,1,1.262-1.444,4.022,4.022,0,0,1,2.117-.523,2.636,2.636,0,0,1,1.568.548A3.28,3.28,0,0,1,201.543,173.885Z" transform="translate(7.2)"/><path class="cls-5" d="M214.692,171.635a3.357,3.357,0,0,1,2.8,1.328,6.662,6.662,0,0,1,0,7.147,3.355,3.355,0,0,1-2.8,1.328,3.408,3.408,0,0,1-2.831-1.319,5.732,5.732,0,0,1-1.03-3.611,5.59,5.59,0,0,1,1.039-3.553A3.4,3.4,0,0,1,214.692,171.635Zm.008.672a2.616,2.616,0,0,0-2.242,1.138,5.049,5.049,0,0,0-.83,3.055,5.181,5.181,0,0,0,.822,3.1,2.784,2.784,0,0,0,4.491,0,5.182,5.182,0,0,0,.83-3.1,5.084,5.084,0,0,0-.83-3.047,2.613,2.613,0,0,0-2.241-1.146Z" transform="translate(7.2)"/><path class="cls-5" d="M228.836,175.545v5.611h-.763v-5.562a4.219,4.219,0,0,0-.581-2.547,2.041,2.041,0,0,0-1.71-.74,3.37,3.37,0,0,0-2.258.8,3.518,3.518,0,0,0-.946,2.8v5.254h-.764v-9.3h.764V173.6a3.172,3.172,0,0,1,1.07-1.3,3.748,3.748,0,0,1,2.167-.672,2.781,2.781,0,0,1,2.2.938A4.431,4.431,0,0,1,228.836,175.545Z" transform="translate(7.2)"/><path class="cls-5" d="M239.834,176.126v.481H232.78a4.466,4.466,0,0,0,.871,3.138,3.8,3.8,0,0,0,2.863,1,5.475,5.475,0,0,0,1.32-.216,7.477,7.477,0,0,0,1.644-.647v.805a9.113,9.113,0,0,1-1.685.532,7.028,7.028,0,0,1-1.37.181,4.221,4.221,0,0,1-3.237-1.162,5.061,5.061,0,0,1-1.179-3.627,5.463,5.463,0,0,1,1.079-3.7,3.854,3.854,0,0,1,3.072-1.27,3.266,3.266,0,0,1,2.755,1.2A5.429,5.429,0,0,1,239.834,176.126Zm-.771-.166a3.96,3.96,0,0,0-.88-2.856,2.605,2.605,0,0,0-2.009-.8,3.378,3.378,0,0,0-2.324.83,4.193,4.193,0,0,0-1.037,2.823Z" transform="translate(7.2)"/><path class="cls-5" d="M246.185,182.019a4.291,4.291,0,0,1-1.071,1.71,2.391,2.391,0,0,1-1.51.64h-1.138v-.649h.972a1.585,1.585,0,0,0,1.062-.389,3.688,3.688,0,0,0,.971-1.486l.274-.689-3.71-9.3h.813l3.3,8.284,3.311-8.284h.806Z" transform="translate(7.2)"/><path class="cls-5" d="M262.512,168.24v.647h-1.079a1.775,1.775,0,0,0-1.3.441,2.314,2.314,0,0,0-.548,1.709v.822h2.51v.648h-2.51v8.649h-.772v-8.649h-1.461v-.648h1.461v-.647a3.094,3.094,0,0,1,.706-2.258,2.568,2.568,0,0,1,1.926-.714Z" transform="translate(7.2)"/><path class="cls-5" d="M267.775,171.635a3.357,3.357,0,0,1,2.8,1.328,6.662,6.662,0,0,1,0,7.147,3.355,3.355,0,0,1-2.8,1.328,3.408,3.408,0,0,1-2.831-1.319,5.732,5.732,0,0,1-1.03-3.611,5.59,5.59,0,0,1,1.039-3.553A3.4,3.4,0,0,1,267.775,171.635Zm.008.672a2.616,2.616,0,0,0-2.242,1.138,5.049,5.049,0,0,0-.83,3.055,5.188,5.188,0,0,0,.822,3.1,2.784,2.784,0,0,0,4.491,0,5.182,5.182,0,0,0,.83-3.1,5.084,5.084,0,0,0-.83-3.047,2.613,2.613,0,0,0-2.241-1.146Z" transform="translate(7.2)"/><path class="cls-5" d="M279.943,172.515a2.124,2.124,0,0,0-.5-.158,4.265,4.265,0,0,0-.714-.05,3,3,0,0,0-2.341,1.046,4.48,4.48,0,0,0-.73,2.906v4.9h-.747v-9.3h.747V173.6a3.583,3.583,0,0,1,1.045-1.261,3.524,3.524,0,0,1,2.192-.706,5.588,5.588,0,0,1,.564.025,1.916,1.916,0,0,1,.482.059Z" transform="translate(7.2)"/><path class="cls-5" d="M292.335,172.515a2.124,2.124,0,0,0-.5-.158,4.162,4.162,0,0,0-.714-.05,3,3,0,0,0-2.34,1.046,4.474,4.474,0,0,0-.731,2.906v4.9H287.3v-9.3h.747V173.6a3.6,3.6,0,0,1,1.046-1.261,3.521,3.521,0,0,1,2.191-.706,5.607,5.607,0,0,1,.565.025,1.9,1.9,0,0,1,.481.059Z" transform="translate(7.2)"/><path class="cls-5" d="M301.15,176.126v.481H294.1a4.466,4.466,0,0,0,.871,3.138,3.811,3.811,0,0,0,2.863,1,5.475,5.475,0,0,0,1.321-.216,7.469,7.469,0,0,0,1.643-.647v.805a9.127,9.127,0,0,1-1.684.532,7.028,7.028,0,0,1-1.37.181,4.219,4.219,0,0,1-3.238-1.162,5.065,5.065,0,0,1-1.178-3.627,5.457,5.457,0,0,1,1.079-3.7,3.851,3.851,0,0,1,3.071-1.27,3.265,3.265,0,0,1,2.756,1.2A5.433,5.433,0,0,1,301.15,176.126Zm-.772-.166a3.96,3.96,0,0,0-.88-2.856,2.6,2.6,0,0,0-2.008-.8,3.382,3.382,0,0,0-2.325.83,4.2,4.2,0,0,0-1.037,2.823Z" transform="translate(7.2)"/><path class="cls-5" d="M309.625,172.133v.838a6.667,6.667,0,0,0-1-.5,7.232,7.232,0,0,0-1.444-.166,3.541,3.541,0,0,0-2.058.523,1.734,1.734,0,0,0-.574,1.478,1.3,1.3,0,0,0,.54,1.1,4.209,4.209,0,0,0,1.635.664l.524.116a5.05,5.05,0,0,1,2,.821,2.019,2.019,0,0,1,.83,1.579,2.726,2.726,0,0,1-.781,2.066,3.971,3.971,0,0,1-2.672.738,6.549,6.549,0,0,1-1.561-.14q-.639-.183-1.345-.44v-.955a8.035,8.035,0,0,0,1.312.664,6.388,6.388,0,0,0,1.627.216,2.974,2.974,0,0,0,1.984-.556,1.866,1.866,0,0,0,.647-1.478,1.347,1.347,0,0,0-.432-1.112,5.086,5.086,0,0,0-1.983-.814l-.532-.124a4.434,4.434,0,0,1-1.784-.772,1.876,1.876,0,0,1-.772-1.51,2.363,2.363,0,0,1,.929-2.1A3.929,3.929,0,0,1,307,171.63a6.811,6.811,0,0,1,1.593.125A7.613,7.613,0,0,1,309.625,172.133Z" transform="translate(7.2)"/><path class="cls-5" d="M320.466,176.126v.481h-7.054a4.466,4.466,0,0,0,.871,3.138,3.8,3.8,0,0,0,2.863,1,5.475,5.475,0,0,0,1.32-.216,7.477,7.477,0,0,0,1.644-.647v.805a9.189,9.189,0,0,1-1.685.532,7.028,7.028,0,0,1-1.37.181,4.217,4.217,0,0,1-3.237-1.162,5.061,5.061,0,0,1-1.179-3.627,5.457,5.457,0,0,1,1.079-3.7,3.851,3.851,0,0,1,3.071-1.27,3.265,3.265,0,0,1,2.756,1.2A5.431,5.431,0,0,1,320.466,176.126Zm-.771-.166a3.96,3.96,0,0,0-.88-2.856,2.605,2.605,0,0,0-2.009-.8,3.378,3.378,0,0,0-2.324.83,4.193,4.193,0,0,0-1.037,2.823Z" transform="translate(7.2)"/><path class="cls-5" d="M330.246,175.851v5.305h-.756v-2.523a3.342,3.342,0,0,1-3.362,2.763,3.089,3.089,0,0,1-2.183-.738,3.232,3.232,0,0,1,.24-4.5,5.275,5.275,0,0,1,3.4-.872h1.893v-.149a2.631,2.631,0,0,0-3.013-2.831,4.783,4.783,0,0,0-1.627.3,6.576,6.576,0,0,0-1.379.773v-.823a5.905,5.905,0,0,1,1.379-.647,6.282,6.282,0,0,1,1.785-.274,3.8,3.8,0,0,1,2.706,1A4.351,4.351,0,0,1,330.246,175.851Zm-2.848.059a4.254,4.254,0,0,0-2.656.656,2.319,2.319,0,0,0-.814,1.917,2.058,2.058,0,0,0,.673,1.743,2.544,2.544,0,0,0,1.594.515,2.609,2.609,0,0,0,2.506-1.478,6.021,6.021,0,0,0,.772-2.781v-.572Z" transform="translate(7.2)"/><path class="cls-5" d="M339.144,172.515a2.124,2.124,0,0,0-.5-.158,4.265,4.265,0,0,0-.714-.05,3,3,0,0,0-2.341,1.046,4.48,4.48,0,0,0-.73,2.906v4.9h-.747v-9.3h.747V173.6a3.566,3.566,0,0,1,1.046-1.261,3.519,3.519,0,0,1,2.191-.706,5.607,5.607,0,0,1,.565.025,1.9,1.9,0,0,1,.481.059Z" transform="translate(7.2)"/><path class="cls-5" d="M347.079,172.307v.814a5.767,5.767,0,0,0-1.137-.572,4.914,4.914,0,0,0-1.478-.242,3.587,3.587,0,0,0-2.881,1.03,6.27,6.27,0,0,0,0,6.375,3.588,3.588,0,0,0,2.881,1.029,4.81,4.81,0,0,0,1.312-.183,5.768,5.768,0,0,0,1.3-.531v.772a6.344,6.344,0,0,1-1.32.449,6.418,6.418,0,0,1-1.361.148,4.617,4.617,0,0,1-3.246-1.1,6.531,6.531,0,0,1,0-7.554,4.613,4.613,0,0,1,3.246-1.1,5.751,5.751,0,0,1,1.411.191A4.944,4.944,0,0,1,347.079,172.307Z" transform="translate(7.2)"/><path class="cls-5" d="M357.081,175.545v5.611h-.763v-5.562a4.084,4.084,0,0,0-.607-2.54,2.218,2.218,0,0,0-1.834-.747,3,3,0,0,0-2.232.83,3.839,3.839,0,0,0-.822,2.765v5.254h-.764V168.24h.764v5.338a2.973,2.973,0,0,1,.946-1.271,3.5,3.5,0,0,1,2.291-.672,2.719,2.719,0,0,1,2.2.988A4.5,4.5,0,0,1,357.081,175.545Z" transform="translate(7.2)"/><path class="cls-5" d="M56.952,186.24v.647h-1.08a1.768,1.768,0,0,0-1.294.441,2.314,2.314,0,0,0-.548,1.709v.822h2.507v.648H54.03v8.649h-.772v-8.649H51.8v-.648h1.461v-.647a3.1,3.1,0,0,1,.7-2.258,2.572,2.572,0,0,1,1.926-.714Z" transform="translate(7.2)"/><path class="cls-5" d="M58.836,195.47v-5.611H59.6v5.562a4.215,4.215,0,0,0,.581,2.548,2.043,2.043,0,0,0,1.71.739,3.373,3.373,0,0,0,2.257-.8,3.515,3.515,0,0,0,.947-2.8v-5.254h.763v9.3H65.1v-1.743a3.175,3.175,0,0,1-1.071,1.295,3.745,3.745,0,0,1-2.167.673,2.778,2.778,0,0,1-2.2-.939A4.42,4.42,0,0,1,58.836,195.47Z" transform="translate(7.2)"/><path class="cls-5" d="M76.732,193.545v5.611h-.763v-5.562a4.219,4.219,0,0,0-.581-2.547,2.043,2.043,0,0,0-1.71-.74,3.37,3.37,0,0,0-2.258.8,3.518,3.518,0,0,0-.946,2.8v5.254H69.71v-9.3h.764V191.6a3.172,3.172,0,0,1,1.07-1.3,3.748,3.748,0,0,1,2.167-.672,2.781,2.781,0,0,1,2.2.938A4.431,4.431,0,0,1,76.732,193.545Z" transform="translate(7.2)"/><path class="cls-5" d="M86.66,191.984V186.24h.747v12.916H86.66v-2.108a3.982,3.982,0,0,1-1.137,1.66,3.041,3.041,0,0,1-1.768.688,3.4,3.4,0,0,1-2.748-1.344,6.257,6.257,0,0,1,0-7.072,3.407,3.407,0,0,1,2.748-1.345,3.042,3.042,0,0,1,1.768.689A3.982,3.982,0,0,1,86.66,191.984Zm-5.943,2.531a4.5,4.5,0,0,0,.963,3.239,2.564,2.564,0,0,0,4.017,0,5.966,5.966,0,0,0,0-6.475,2.561,2.561,0,0,0-4.017,0A4.489,4.489,0,0,0,80.717,194.515Z" transform="translate(7.2)"/><path class="cls-5" d="M91.259,186.24h.763v1.046h-.763Zm0,3.619h.763v9.3h-.763Z" transform="translate(7.2)"/><path class="cls-5" d="M103.021,193.545v5.611h-.764v-5.562a4.219,4.219,0,0,0-.581-2.547,2.039,2.039,0,0,0-1.71-.74,3.375,3.375,0,0,0-2.258.8,3.518,3.518,0,0,0-.946,2.8v5.254H96v-9.3h.764V191.6a3.167,3.167,0,0,1,1.071-1.3,3.75,3.75,0,0,1,2.166-.672,2.78,2.78,0,0,1,2.2.938A4.425,4.425,0,0,1,103.021,193.545Z" transform="translate(7.2)"/><path class="cls-5" d="M113.712,198q0,2.9-1.1,3.794a4.3,4.3,0,0,1-2.8.9,9.531,9.531,0,0,1-1.519-.116,7.925,7.925,0,0,1-1.386-.373v-.872a6.079,6.079,0,0,0,1.328.54,5.239,5.239,0,0,0,1.336.174,4.6,4.6,0,0,0,2.383-.59q1-.589,1-3.179v-1.452a3.666,3.666,0,0,1-.938,1.5,2.92,2.92,0,0,1-2.051.83,3.314,3.314,0,0,1-2.756-1.249,6.738,6.738,0,0,1,0-7.022,3.317,3.317,0,0,1,2.756-1.25,2.85,2.85,0,0,1,1.943.714,4.252,4.252,0,0,1,1.046,1.486v-1.976h.763Zm-.763-3.6a4.984,4.984,0,0,0-.785-3,2.792,2.792,0,0,0-3.92-.471,2.836,2.836,0,0,0-.471.471,6.12,6.12,0,0,0,0,5.993,2.792,2.792,0,0,0,3.92.471,2.836,2.836,0,0,0,.471-.471A4.977,4.977,0,0,0,112.949,194.4Z" transform="translate(7.2)"/><path class="cls-5" d="M123.183,187.219v2.64h3.146v.648h-3.146v5.587a2.914,2.914,0,0,0,.274,1.485,1.811,1.811,0,0,0,1.644.93h1.228v.647h-1.187a2.926,2.926,0,0,1-1.934-.664,3,3,0,0,1-.8-2.4v-5.587H121.3v-.648h1.113v-2.64Z" transform="translate(7.2)"/><path class="cls-5" d="M136.066,193.545v5.611H135.3v-5.562a4.1,4.1,0,0,0-.606-2.54,2.224,2.224,0,0,0-1.835-.747,3,3,0,0,0-2.233.83,3.839,3.839,0,0,0-.821,2.765v5.254h-.764V186.24h.764v5.338a2.987,2.987,0,0,1,.946-1.271,3.5,3.5,0,0,1,2.291-.672,2.719,2.719,0,0,1,2.2.988A4.5,4.5,0,0,1,136.066,193.545Z" transform="translate(7.2)"/><path class="cls-5" d="M139.8,186.24h.763v1.046H139.8Zm0,3.619h.763v9.3H139.8Z" transform="translate(7.2)"/><path class="cls-5" d="M149.8,190.133v.838a6.573,6.573,0,0,0-1-.5,7.242,7.242,0,0,0-1.445-.166,3.541,3.541,0,0,0-2.058.523,1.737,1.737,0,0,0-.573,1.478,1.3,1.3,0,0,0,.54,1.1,4.209,4.209,0,0,0,1.635.664l.523.116a5.029,5.029,0,0,1,2,.821,2.015,2.015,0,0,1,.83,1.579,2.726,2.726,0,0,1-.78,2.066,3.972,3.972,0,0,1-2.673.738,6.54,6.54,0,0,1-1.56-.14q-.641-.183-1.345-.44v-.955a8.146,8.146,0,0,0,1.311.664,6.388,6.388,0,0,0,1.627.216,2.974,2.974,0,0,0,1.984-.556,1.867,1.867,0,0,0,.648-1.478,1.347,1.347,0,0,0-.432-1.112,5.084,5.084,0,0,0-1.984-.814l-.531-.124a4.438,4.438,0,0,1-1.785-.772,1.88,1.88,0,0,1-.772-1.51,2.363,2.363,0,0,1,.93-2.1,3.929,3.929,0,0,1,2.283-.639,6.823,6.823,0,0,1,1.594.125A7.6,7.6,0,0,1,149.8,190.133Z" transform="translate(7.2)"/><path class="cls-5" d="M161.94,200.019a4.291,4.291,0,0,1-1.071,1.71,2.4,2.4,0,0,1-1.511.64h-1.137v-.649h.971a1.588,1.588,0,0,0,1.063-.389,3.671,3.671,0,0,0,.971-1.486l.274-.689-3.711-9.3h.811l3.3,8.284,3.312-8.284h.805Z" transform="translate(7.2)"/><path class="cls-5" d="M176.109,194.126v.481h-7.055a4.466,4.466,0,0,0,.871,3.138,3.805,3.805,0,0,0,2.864,1,5.475,5.475,0,0,0,1.32-.216,7.469,7.469,0,0,0,1.643-.647v.805a9.113,9.113,0,0,1-1.685.532,7.018,7.018,0,0,1-1.369.181,4.223,4.223,0,0,1-3.238-1.162,5.065,5.065,0,0,1-1.178-3.627,5.463,5.463,0,0,1,1.079-3.7,3.851,3.851,0,0,1,3.071-1.27,3.268,3.268,0,0,1,2.756,1.2A5.444,5.444,0,0,1,176.109,194.126Zm-.772-.166a3.96,3.96,0,0,0-.88-2.856,2.6,2.6,0,0,0-2.008-.8,3.382,3.382,0,0,0-2.325.83,4.2,4.2,0,0,0-1.037,2.823Z" transform="translate(7.2)"/><path class="cls-5" d="M185.888,193.851v5.305h-.756v-2.523a3.341,3.341,0,0,1-3.362,2.763,3.089,3.089,0,0,1-2.183-.738,3.23,3.23,0,0,1,.241-4.5,5.274,5.274,0,0,1,3.4-.872h1.893v-.149a2.63,2.63,0,0,0-2.391-2.85,2.6,2.6,0,0,0-.623.019,4.783,4.783,0,0,0-1.627.3,6.537,6.537,0,0,0-1.377.773v-.823a5.851,5.851,0,0,1,1.377-.647,6.282,6.282,0,0,1,1.785-.274,3.8,3.8,0,0,1,2.706,1A4.347,4.347,0,0,1,185.888,193.851Zm-2.848.059a4.254,4.254,0,0,0-2.656.656,2.315,2.315,0,0,0-.813,1.917,2.06,2.06,0,0,0,.672,1.743,2.55,2.55,0,0,0,1.594.515,2.611,2.611,0,0,0,2.507-1.478,6.045,6.045,0,0,0,.772-2.781v-.572Z" transform="translate(7.2)"/><path class="cls-5" d="M194.786,190.515a2.124,2.124,0,0,0-.5-.158,4.265,4.265,0,0,0-.714-.05,3,3,0,0,0-2.341,1.046,4.48,4.48,0,0,0-.73,2.906v4.9h-.747v-9.3h.747V191.6a3.566,3.566,0,0,1,1.046-1.261,3.513,3.513,0,0,1,2.191-.706,5.607,5.607,0,0,1,.565.025,1.9,1.9,0,0,1,.481.059Z" transform="translate(7.2)"/><path class="cls-5" d="M195.517,198.11h.846v1.046h-.846Z" transform="translate(7.2)"/><path class="cls-5" d="M205.228,186.763h.855l2.831,11.414,2.822-11.414h1.047l2.8,11.347,2.823-11.347h.855l-3.08,12.393H215l-2.74-11.04-2.731,11.04H208.3Z" transform="translate(7.2)"/><path class="cls-5" d="M229.807,193.545v5.611h-.764v-5.562a4.091,4.091,0,0,0-.606-2.54,2.218,2.218,0,0,0-1.834-.747,3,3,0,0,0-2.232.83,3.833,3.833,0,0,0-.823,2.765v5.254h-.763V186.24h.763v5.338a2.97,2.97,0,0,1,.947-1.271,3.5,3.5,0,0,1,2.291-.672,2.719,2.719,0,0,1,2.2.988A4.5,4.5,0,0,1,229.807,193.545Z" transform="translate(7.2)"/><path class="cls-5" d="M233.542,186.24h.764v1.046h-.764Zm0,3.619h.764v9.3h-.764Z" transform="translate(7.2)"/><path class="cls-5" d="M238.283,186.24h.763v12.916h-.763Z" transform="translate(7.2)"/><path class="cls-5" d="M250.251,194.126v.481H243.2a4.466,4.466,0,0,0,.871,3.138,3.8,3.8,0,0,0,2.863,1,5.467,5.467,0,0,0,1.32-.216,7.477,7.477,0,0,0,1.644-.647v.805a9.113,9.113,0,0,1-1.685.532,7.028,7.028,0,0,1-1.37.181,4.216,4.216,0,0,1-3.243-1.166,5.061,5.061,0,0,1-1.179-3.627,5.463,5.463,0,0,1,1.079-3.7,3.853,3.853,0,0,1,3.072-1.27,3.266,3.266,0,0,1,2.755,1.2A5.428,5.428,0,0,1,250.251,194.126Zm-.771-.166a3.959,3.959,0,0,0-.88-2.86,2.605,2.605,0,0,0-2.009-.8,3.378,3.378,0,0,0-2.324.83,4.193,4.193,0,0,0-1.037,2.823Z" transform="translate(7.2)"/><path class="cls-5" d="M259.673,187.219v2.64h3.147v.648h-3.147v5.587a2.9,2.9,0,0,0,.275,1.485,1.809,1.809,0,0,0,1.643.93h1.229v.647h-1.188a2.919,2.919,0,0,1-1.933-.664,2.994,2.994,0,0,1-.8-2.4v-5.587h-1.113v-.648H258.9v-2.64Z" transform="translate(7.2)"/><path class="cls-5" d="M272.557,193.545v5.611h-.764v-5.562a4.091,4.091,0,0,0-.606-2.54,2.218,2.218,0,0,0-1.834-.747,3,3,0,0,0-2.232.83,3.833,3.833,0,0,0-.823,2.765v5.254h-.763V186.24h.763v5.338a2.97,2.97,0,0,1,.947-1.271,3.5,3.5,0,0,1,2.291-.672,2.719,2.719,0,0,1,2.2.988A4.5,4.5,0,0,1,272.557,193.545Z" transform="translate(7.2)"/><path class="cls-5" d="M276.292,186.24h.764v1.046h-.764Zm0,3.619h.764v9.3h-.764Z" transform="translate(7.2)"/><path class="cls-5" d="M286.3,190.133v.838a6.573,6.573,0,0,0-1-.5,7.222,7.222,0,0,0-1.443-.166,3.545,3.545,0,0,0-2.059.523,1.737,1.737,0,0,0-.573,1.478,1.3,1.3,0,0,0,.54,1.1,4.209,4.209,0,0,0,1.635.664l.523.116a5.044,5.044,0,0,1,2,.821,2.02,2.02,0,0,1,.831,1.579,2.726,2.726,0,0,1-.781,2.066,3.972,3.972,0,0,1-2.673.738,6.54,6.54,0,0,1-1.56-.14q-.639-.183-1.345-.44v-.955a8.035,8.035,0,0,0,1.312.664,6.388,6.388,0,0,0,1.627.216,2.972,2.972,0,0,0,1.984-.556,1.865,1.865,0,0,0,.646-1.478,1.346,1.346,0,0,0-.431-1.112,5.069,5.069,0,0,0-1.984-.814l-.531-.124a4.434,4.434,0,0,1-1.784-.772,1.876,1.876,0,0,1-.772-1.51,2.363,2.363,0,0,1,.929-2.1,3.936,3.936,0,0,1,2.282-.639,6.819,6.819,0,0,1,1.594.125A7.6,7.6,0,0,1,286.3,190.133Z" transform="translate(7.2)"/><path class="cls-5" d="M301.662,190.307v.814a5.831,5.831,0,0,0-1.138-.572,4.914,4.914,0,0,0-1.478-.242,3.587,3.587,0,0,0-2.881,1.03,6.27,6.27,0,0,0,0,6.375,3.588,3.588,0,0,0,2.881,1.029,4.81,4.81,0,0,0,1.312-.183,5.768,5.768,0,0,0,1.3-.531v.772a6.314,6.314,0,0,1-2.682.6,4.622,4.622,0,0,1-3.246-1.1,6.531,6.531,0,0,1,0-7.554,4.622,4.622,0,0,1,3.246-1.1,5.751,5.751,0,0,1,1.411.191A4.958,4.958,0,0,1,301.662,190.307Z" transform="translate(7.2)"/><path class="cls-5" d="M311.207,193.851v5.305h-.755v-2.523a3.342,3.342,0,0,1-3.362,2.763,3.084,3.084,0,0,1-2.183-.738,3.232,3.232,0,0,1,.24-4.5,5.274,5.274,0,0,1,3.395-.872h1.893v-.149a2.631,2.631,0,0,0-3.013-2.831,4.783,4.783,0,0,0-1.627.3,6.576,6.576,0,0,0-1.379.773v-.823a5.905,5.905,0,0,1,1.379-.647,6.27,6.27,0,0,1,1.784-.274,3.8,3.8,0,0,1,2.707,1A4.347,4.347,0,0,1,311.207,193.851Zm-2.847.059a4.254,4.254,0,0,0-2.656.656,2.319,2.319,0,0,0-.814,1.917,2.058,2.058,0,0,0,.673,1.743,2.544,2.544,0,0,0,1.594.515,2.609,2.609,0,0,0,2.506-1.478,6.021,6.021,0,0,0,.772-2.781v-.572Z" transform="translate(7.2)"/><path class="cls-5" d="M320.105,190.515a2.124,2.124,0,0,0-.5-.158,4.265,4.265,0,0,0-.714-.05,3,3,0,0,0-2.341,1.046,4.48,4.48,0,0,0-.73,2.906v4.9h-.747v-9.3h.747V191.6a3.566,3.566,0,0,1,1.046-1.261,3.519,3.519,0,0,1,2.191-.706,5.588,5.588,0,0,1,.564.025,1.911,1.911,0,0,1,.482.059Z" transform="translate(7.2)"/><path class="cls-5" d="M327.924,191.984V186.24h.747v12.916h-.747v-2.108a3.986,3.986,0,0,1-1.136,1.66,3.044,3.044,0,0,1-1.769.688,3.4,3.4,0,0,1-2.747-1.344,6.253,6.253,0,0,1,0-7.072,3.4,3.4,0,0,1,2.747-1.345,3.045,3.045,0,0,1,1.769.689A3.986,3.986,0,0,1,327.924,191.984Zm-5.943,2.531a4.5,4.5,0,0,0,.963,3.239,2.564,2.564,0,0,0,4.017,0,5.966,5.966,0,0,0,0-6.475,2.561,2.561,0,0,0-4.017,0A4.489,4.489,0,0,0,321.981,194.515Z" transform="translate(7.2)"/><path class="cls-5" d="M337.926,186.24h.764v1.046h-.764Zm0,3.619h.764v9.3h-.764Z" transform="translate(7.2)"/><path class="cls-5" d="M347.928,190.133v.838a6.573,6.573,0,0,0-1-.5,7.222,7.222,0,0,0-1.443-.166,3.545,3.545,0,0,0-2.059.523,1.733,1.733,0,0,0-.573,1.478,1.3,1.3,0,0,0,.54,1.1,4.209,4.209,0,0,0,1.635.664l.523.116a5.044,5.044,0,0,1,2,.821,2.015,2.015,0,0,1,.83,1.579,2.726,2.726,0,0,1-.78,2.066,3.972,3.972,0,0,1-2.673.738,6.54,6.54,0,0,1-1.56-.14q-.639-.183-1.345-.44v-.955a8.146,8.146,0,0,0,1.311.664,6.388,6.388,0,0,0,1.627.216,2.975,2.975,0,0,0,1.985-.556,1.87,1.87,0,0,0,.646-1.478,1.346,1.346,0,0,0-.431-1.112,5.084,5.084,0,0,0-1.984-.814l-.531-.124a4.434,4.434,0,0,1-1.784-.772,1.875,1.875,0,0,1-.773-1.51,2.363,2.363,0,0,1,.93-2.1,3.936,3.936,0,0,1,2.282-.639,6.823,6.823,0,0,1,1.594.125A7.6,7.6,0,0,1,347.928,190.133Z" transform="translate(7.2)"/><path class="cls-5" d="M360.206,189.635a3.357,3.357,0,0,1,2.805,1.328,6.67,6.67,0,0,1,0,7.147,3.355,3.355,0,0,1-2.805,1.328,3.411,3.411,0,0,1-2.831-1.319,5.731,5.731,0,0,1-1.029-3.611,5.6,5.6,0,0,1,1.038-3.553A3.4,3.4,0,0,1,360.206,189.635Zm.008.672a2.616,2.616,0,0,0-2.241,1.138,5.049,5.049,0,0,0-.83,3.055,5.187,5.187,0,0,0,.821,3.1,2.784,2.784,0,0,0,4.491,0,5.183,5.183,0,0,0,.831-3.1,5.078,5.078,0,0,0-.831-3.047,2.61,2.61,0,0,0-2.241-1.146Z" transform="translate(7.2)"/><path class="cls-5" d="M374.35,193.545v5.611h-.764v-5.562a4.211,4.211,0,0,0-.581-2.547,2.039,2.039,0,0,0-1.71-.74,3.368,3.368,0,0,0-2.257.8,3.515,3.515,0,0,0-.947,2.8v5.254h-.763v-9.3h.763V191.6a3.182,3.182,0,0,1,1.071-1.3,3.755,3.755,0,0,1,2.167-.672,2.781,2.781,0,0,1,2.2.938A4.431,4.431,0,0,1,374.35,193.545Z" transform="translate(7.2)"/><path class="cls-5" d="M56.67,205.219v2.64h3.146v.648H56.67v5.587a2.9,2.9,0,0,0,.274,1.485,1.809,1.809,0,0,0,1.643.93h1.229v.647H58.629a2.921,2.921,0,0,1-1.934-.664,2.994,2.994,0,0,1-.8-2.4v-5.587H54.786v-.648H55.9v-2.64Z" transform="translate(7.2)"/><path class="cls-5" d="M69.553,211.545v5.611h-.764v-5.562a4.091,4.091,0,0,0-.606-2.54,2.222,2.222,0,0,0-1.834-.747,3,3,0,0,0-2.233.83,3.839,3.839,0,0,0-.822,2.765v5.254H62.53V204.24h.764v5.338a2.987,2.987,0,0,1,.946-1.271,3.5,3.5,0,0,1,2.291-.672,2.716,2.716,0,0,1,2.2.988A4.5,4.5,0,0,1,69.553,211.545Z" transform="translate(7.2)"/><path class="cls-5" d="M80.551,212.126v.481H73.5a4.466,4.466,0,0,0,.871,3.138,3.805,3.805,0,0,0,2.864,1,5.475,5.475,0,0,0,1.32-.216,7.469,7.469,0,0,0,1.643-.647v.805a9.113,9.113,0,0,1-1.685.532,7.018,7.018,0,0,1-1.369.181,4.219,4.219,0,0,1-3.238-1.162,5.065,5.065,0,0,1-1.178-3.627,5.451,5.451,0,0,1,1.079-3.7,3.851,3.851,0,0,1,3.071-1.27,3.268,3.268,0,0,1,2.756,1.2A5.434,5.434,0,0,1,80.551,212.126Zm-.772-.166a3.96,3.96,0,0,0-.88-2.856,2.6,2.6,0,0,0-2.008-.8,3.382,3.382,0,0,0-2.325.83,4.2,4.2,0,0,0-1.037,2.823Z" transform="translate(7.2)"/><path class="cls-5" d="M89.973,205.219v2.64h3.146v.648H89.973v5.587a2.913,2.913,0,0,0,.273,1.485,1.811,1.811,0,0,0,1.644.93h1.229v.647H91.932A2.924,2.924,0,0,1,90,216.492a3,3,0,0,1-.8-2.4v-5.587H88.088v-.648H89.2v-2.64Z" transform="translate(7.2)"/><path class="cls-5" d="M102.4,211.851v5.305h-.756v-2.523a3.341,3.341,0,0,1-3.361,2.763,3.084,3.084,0,0,1-2.183-.738,3.232,3.232,0,0,1,.24-4.5,5.274,5.274,0,0,1,3.395-.872h1.893v-.149a2.631,2.631,0,0,0-3.013-2.831,4.783,4.783,0,0,0-1.627.3,6.544,6.544,0,0,0-1.378.773v-.823a5.8,5.8,0,0,1,1.378-.647,6.27,6.27,0,0,1,1.784-.274,3.8,3.8,0,0,1,2.706,1A4.347,4.347,0,0,1,102.4,211.851Zm-2.847.059a4.255,4.255,0,0,0-2.657.656,2.315,2.315,0,0,0-.813,1.917,2.06,2.06,0,0,0,.672,1.743,2.55,2.55,0,0,0,1.594.515,2.611,2.611,0,0,0,2.507-1.478,6.021,6.021,0,0,0,.772-2.781v-.572Z" transform="translate(7.2)"/><path class="cls-5" d="M107.014,209.984a4,4,0,0,1,1.137-1.66,3.042,3.042,0,0,1,1.768-.689,3.407,3.407,0,0,1,2.748,1.345,6.253,6.253,0,0,1,0,7.072,3.4,3.4,0,0,1-2.748,1.344,3.041,3.041,0,0,1-1.768-.688,4,4,0,0,1-1.137-1.66v2.108h-.747V204.24h.747Zm5.943,2.531a4.489,4.489,0,0,0-.962-3.236,2.562,2.562,0,0,0-3.6-.419,2.6,2.6,0,0,0-.419.419,5.966,5.966,0,0,0,0,6.475,2.565,2.565,0,0,0,3.6.414,2.615,2.615,0,0,0,.414-.414A4.5,4.5,0,0,0,112.957,212.515Z" transform="translate(7.2)"/><path class="cls-5" d="M117.041,204.24h.764v12.916h-.764Z" transform="translate(7.2)"/><path class="cls-5" d="M129.011,212.126v.481h-7.056a4.461,4.461,0,0,0,.872,3.138,3.805,3.805,0,0,0,2.864,1,5.475,5.475,0,0,0,1.32-.216,7.469,7.469,0,0,0,1.643-.647v.805a9.113,9.113,0,0,1-1.685.532,7.018,7.018,0,0,1-1.369.181,4.219,4.219,0,0,1-3.238-1.162,5.07,5.07,0,0,1-1.179-3.627,5.457,5.457,0,0,1,1.08-3.7,3.851,3.851,0,0,1,3.071-1.27,3.268,3.268,0,0,1,2.756,1.2A5.444,5.444,0,0,1,129.011,212.126Zm-.772-.166a3.96,3.96,0,0,0-.88-2.856,2.605,2.605,0,0,0-2.009-.8,3.384,3.384,0,0,0-2.324.83,4.2,4.2,0,0,0-1.037,2.823Z" transform="translate(7.2)"/><path class="cls-5" d="M132.572,216.11h.839v.365l-.656,2.657h-.515l.332-2.657Z" transform="translate(7.2)"/><path class="cls-5" d="M150.278,212.126v.481h-7.056a4.461,4.461,0,0,0,.872,3.138,3.807,3.807,0,0,0,2.863,1,5.475,5.475,0,0,0,1.32-.216,7.546,7.546,0,0,0,1.644-.647v.805a9.189,9.189,0,0,1-1.685.532,7.038,7.038,0,0,1-1.37.181,4.221,4.221,0,0,1-3.237-1.162,5.061,5.061,0,0,1-1.179-3.627,5.463,5.463,0,0,1,1.079-3.7,3.851,3.851,0,0,1,3.071-1.27,3.265,3.265,0,0,1,2.756,1.2A5.436,5.436,0,0,1,150.278,212.126Zm-.772-.166a3.961,3.961,0,0,0-.88-2.856,2.605,2.605,0,0,0-2.009-.8,3.378,3.378,0,0,0-2.324.83,4.194,4.194,0,0,0-1.038,2.823Z" transform="translate(7.2)"/><path class="cls-5" d="M160.056,211.851v5.305H159.3v-2.523a3.342,3.342,0,0,1-3.362,2.763,3.089,3.089,0,0,1-2.183-.738,3.232,3.232,0,0,1,.24-4.5,5.277,5.277,0,0,1,3.4-.872h1.892v-.149a2.63,2.63,0,0,0-2.387-2.851,2.676,2.676,0,0,0-.626.02,4.783,4.783,0,0,0-1.627.3,6.544,6.544,0,0,0-1.378.773v-.823a5.84,5.84,0,0,1,1.378-.647,6.282,6.282,0,0,1,1.785-.274,3.8,3.8,0,0,1,2.706,1A4.346,4.346,0,0,1,160.056,211.851Zm-2.847.059a4.254,4.254,0,0,0-2.656.656,2.313,2.313,0,0,0-.814,1.917,2.058,2.058,0,0,0,.673,1.743,2.547,2.547,0,0,0,1.593.515,2.611,2.611,0,0,0,2.507-1.478,6.021,6.021,0,0,0,.772-2.781v-.572Z" transform="translate(7.2)"/><path class="cls-5" d="M170.274,208.307v.814a5.767,5.767,0,0,0-1.137-.572,4.907,4.907,0,0,0-1.477-.242,3.58,3.58,0,0,0-2.881,1.03,6.27,6.27,0,0,0,0,6.375,3.588,3.588,0,0,0,2.881,1.029,4.8,4.8,0,0,0,1.311-.183,5.768,5.768,0,0,0,1.3-.531v.772a6.344,6.344,0,0,1-1.32.449,6.418,6.418,0,0,1-1.361.148,4.609,4.609,0,0,1-3.245-1.1,6.527,6.527,0,0,1,0-7.554,4.613,4.613,0,0,1,3.245-1.1,5.751,5.751,0,0,1,1.411.191A4.908,4.908,0,0,1,170.274,208.307Z" transform="translate(7.2)"/><path class="cls-5" d="M180.277,211.545v5.611h-.764v-5.562a4.091,4.091,0,0,0-.606-2.54,2.221,2.221,0,0,0-1.834-.747,3,3,0,0,0-2.233.83,3.839,3.839,0,0,0-.822,2.765v5.254h-.764V204.24h.764v5.338a2.987,2.987,0,0,1,.946-1.271,3.5,3.5,0,0,1,2.291-.672,2.716,2.716,0,0,1,2.2.988A4.5,4.5,0,0,1,180.277,211.545Z" transform="translate(7.2)"/><path class="cls-5" d="M195.857,215.3l.581-3.245h-2.474l.233-1.378h3.951l-.963,5.454a8.483,8.483,0,0,1-2.162.934,8.693,8.693,0,0,1-2.362.327,4.217,4.217,0,0,1-3.283-1.295,5.134,5.134,0,0,1-1.183-3.6,9.421,9.421,0,0,1,.718-3.649,7.905,7.905,0,0,1,2-2.884,5.393,5.393,0,0,1,1.743-1.076,5.985,5.985,0,0,1,2.108-.352,6.7,6.7,0,0,1,3.836,1.182l-.3,1.784a4.546,4.546,0,0,0-1.577-1.191,4.6,4.6,0,0,0-1.926-.411,4.223,4.223,0,0,0-2.095.5,4.82,4.82,0,0,0-1.615,1.557,7.388,7.388,0,0,0-.955,2.112,8.994,8.994,0,0,0-.348,2.478,3.757,3.757,0,0,0,.8,2.611,3.077,3.077,0,0,0,2.387.875,6.225,6.225,0,0,0,1.531-.187A5.189,5.189,0,0,0,195.857,215.3Z" transform="translate(7.2)"/><path class="cls-5" d="M206.183,209.27a1.828,1.828,0,0,0-.481-.19,2.35,2.35,0,0,0-.573-.067,2.5,2.5,0,0,0-1.926.925,4.89,4.89,0,0,0-1.087,2.478l-.847,4.74H199.9l1.636-9.3h1.378l-.266,1.444a3.952,3.952,0,0,1,1.3-1.237,3.278,3.278,0,0,1,2.059-.4,2.667,2.667,0,0,1,.431.1Z" transform="translate(7.2)"/><path class="cls-5" d="M213.861,211.851l-.93,5.305h-1.377l.248-1.411a4.016,4.016,0,0,1-1.373,1.241,3.626,3.626,0,0,1-1.723.41,2.293,2.293,0,0,1-1.751-.725,2.617,2.617,0,0,1-.681-1.865,3.138,3.138,0,0,1,1.166-2.572,4.984,4.984,0,0,1,3.225-.947h1.911l.074-.406a1.436,1.436,0,0,0,.025-.146c0-.053.008-.134.008-.245a1.357,1.357,0,0,0-.545-1.149,2.474,2.474,0,0,0-1.522-.412,5.261,5.261,0,0,0-1.378.192,7.5,7.5,0,0,0-1.453.572l.241-1.41a8.85,8.85,0,0,1,1.523-.486,6.715,6.715,0,0,1,1.441-.162,3.2,3.2,0,0,1,2.25.714,2.692,2.692,0,0,1,.771,2.075c0,.183-.014.4-.037.643S213.912,211.575,213.861,211.851Zm-1.485.631H211a4.837,4.837,0,0,0-2.494.5,1.7,1.7,0,0,0-.809,1.556,1.429,1.429,0,0,0,1.285,1.56,1.4,1.4,0,0,0,.275,0,2.592,2.592,0,0,0,1.954-.891,4.632,4.632,0,0,0,1.11-2.387Z" transform="translate(7.2)"/><path class="cls-5" d="M223.54,211.545l-.98,5.611h-1.386l.98-5.553q.066-.39.107-.689a3.76,3.76,0,0,0,.042-.473,1.458,1.458,0,0,0-.4-1.088,1.516,1.516,0,0,0-1.1-.39,2.569,2.569,0,0,0-1.908.818A4.125,4.125,0,0,0,217.845,212l-.921,5.154h-1.37l1.619-9.3h1.378l-.282,1.461a4.172,4.172,0,0,1,1.387-1.245,3.483,3.483,0,0,1,1.693-.44,2.212,2.212,0,0,1,1.714.664,2.664,2.664,0,0,1,.61,1.868q0,.3-.033.639C223.618,211.033,223.584,211.279,223.54,211.545Z" transform="translate(7.2)"/><path class="cls-5" d="M231.177,207.859l-.208,1.188H228.23l-.889,5.047c-.033.187-.056.345-.07.472q-.018.15-.021.3a.95.95,0,0,0,.287.771,1.425,1.425,0,0,0,.925.242h1.387l-.232,1.278H228.3a2.7,2.7,0,0,1-1.83-.531,2.038,2.038,0,0,1-.6-1.611,3.453,3.453,0,0,1,.026-.419c.015-.152.038-.32.066-.5l.888-5.047h-1.16l.216-1.188h1.145l.465-2.64h1.37l-.457,2.64Z" transform="translate(7.2)"/><path class="cls-5" d="M243.079,208.515a2.124,2.124,0,0,0-.5-.158,4.253,4.253,0,0,0-.713-.05,3,3,0,0,0-2.341,1.046,4.474,4.474,0,0,0-.731,2.906v4.9h-.747v-9.3h.747V209.6a3.6,3.6,0,0,1,1.046-1.261,3.524,3.524,0,0,1,2.192-.706,5.588,5.588,0,0,1,.564.025,1.9,1.9,0,0,1,.481.059Z" transform="translate(7.2)"/><path class="cls-5" d="M251.894,212.126v.481h-7.055a4.466,4.466,0,0,0,.871,3.138,3.805,3.805,0,0,0,2.864,1,5.475,5.475,0,0,0,1.32-.216,7.477,7.477,0,0,0,1.644-.647v.805a9.189,9.189,0,0,1-1.685.532,7.028,7.028,0,0,1-1.37.181,4.217,4.217,0,0,1-3.237-1.162,5.06,5.06,0,0,1-1.179-3.627,5.457,5.457,0,0,1,1.079-3.7,3.851,3.851,0,0,1,3.071-1.27,3.265,3.265,0,0,1,2.756,1.2A5.444,5.444,0,0,1,251.894,212.126Zm-.772-.166a3.961,3.961,0,0,0-.879-2.856,2.609,2.609,0,0,0-2.009-.8,3.378,3.378,0,0,0-2.324.83,4.194,4.194,0,0,0-1.038,2.823Z" transform="translate(7.2)"/><path class="cls-5" d="M254.26,207.859h.788l2.184,8.284,2.166-8.284h.972l2.182,8.326,2.176-8.326h.788l-2.433,9.3h-1.062l-2.141-8.151-2.134,8.151H256.7Z" transform="translate(7.2)"/><path class="cls-5" d="M275.578,211.851v5.305h-.756v-2.523a3.342,3.342,0,0,1-3.362,2.763,3.089,3.089,0,0,1-2.183-.738,3.232,3.232,0,0,1,.24-4.5,5.277,5.277,0,0,1,3.4-.872h1.892v-.149a2.631,2.631,0,0,0-3.013-2.831,4.783,4.783,0,0,0-1.627.3,6.544,6.544,0,0,0-1.378.773v-.823a5.84,5.84,0,0,1,1.378-.647,6.282,6.282,0,0,1,1.785-.274,3.8,3.8,0,0,1,2.706,1A4.346,4.346,0,0,1,275.578,211.851Zm-2.848.059a4.254,4.254,0,0,0-2.656.656,2.319,2.319,0,0,0-.814,1.917,2.058,2.058,0,0,0,.673,1.743,2.544,2.544,0,0,0,1.594.515,2.609,2.609,0,0,0,2.506-1.478,6.021,6.021,0,0,0,.772-2.781v-.572Z" transform="translate(7.2)"/><path class="cls-5" d="M284.476,208.515a2.124,2.124,0,0,0-.5-.158,4.265,4.265,0,0,0-.714-.05,3,3,0,0,0-2.341,1.046,4.48,4.48,0,0,0-.73,2.906v4.9h-.747v-9.3h.747V209.6a3.566,3.566,0,0,1,1.046-1.261,3.519,3.519,0,0,1,2.191-.706,5.607,5.607,0,0,1,.565.025,1.9,1.9,0,0,1,.481.059Z" transform="translate(7.2)"/><path class="cls-5" d="M292.294,209.984V204.24h.747v12.916h-.747v-2.108a3.986,3.986,0,0,1-1.136,1.66,3.044,3.044,0,0,1-1.769.688,3.4,3.4,0,0,1-2.747-1.344,6.253,6.253,0,0,1,0-7.072,3.4,3.4,0,0,1,2.747-1.345,3.045,3.045,0,0,1,1.769.689A3.986,3.986,0,0,1,292.294,209.984Zm-5.943,2.531a4.5,4.5,0,0,0,.963,3.239,2.564,2.564,0,0,0,4.017,0,5.959,5.959,0,0,0,0-6.475,2.561,2.561,0,0,0-4.017,0A4.489,4.489,0,0,0,286.351,212.515Z" transform="translate(7.2)"/><path class="cls-5" d="M302.172,208.133v.838a6.573,6.573,0,0,0-1-.5,7.222,7.222,0,0,0-1.443-.166,3.545,3.545,0,0,0-2.059.523,1.737,1.737,0,0,0-.573,1.478,1.3,1.3,0,0,0,.54,1.1,4.209,4.209,0,0,0,1.635.664l.523.116a5.044,5.044,0,0,1,2,.821,2.02,2.02,0,0,1,.831,1.579,2.726,2.726,0,0,1-.781,2.066,3.972,3.972,0,0,1-2.673.738,6.54,6.54,0,0,1-1.56-.14q-.639-.183-1.345-.44v-.955a8.035,8.035,0,0,0,1.312.664,6.388,6.388,0,0,0,1.627.216,2.974,2.974,0,0,0,1.984-.556,1.865,1.865,0,0,0,.646-1.478,1.346,1.346,0,0,0-.431-1.112,5.069,5.069,0,0,0-1.984-.814l-.531-.124a4.434,4.434,0,0,1-1.784-.772,1.876,1.876,0,0,1-.772-1.51,2.363,2.363,0,0,1,.929-2.1,3.936,3.936,0,0,1,2.282-.639,6.823,6.823,0,0,1,1.594.125A7.6,7.6,0,0,1,302.172,208.133Z" transform="translate(7.2)"/><path class="cls-5" d="M311.769,216.475h2.739V205.527l-3.4,1.361v-.763l3.379-1.362h.846v11.712h2.74v.681h-6.309Z" transform="translate(7.2)"/><path class="cls-5" d="M331.393,204.24v.647h-1.079a1.769,1.769,0,0,0-1.3.441,2.314,2.314,0,0,0-.548,1.709v.822h2.507v.648h-2.507v8.649H327.7v-8.649h-1.461v-.648H327.7v-.647a3.094,3.094,0,0,1,.706-2.258,2.565,2.565,0,0,1,1.925-.714Z" transform="translate(7.2)"/><path class="cls-5" d="M340.622,212.126v.481h-7.054a4.466,4.466,0,0,0,.871,3.138,3.807,3.807,0,0,0,2.863,1,5.475,5.475,0,0,0,1.32-.216,7.477,7.477,0,0,0,1.644-.647v.805a9.113,9.113,0,0,1-1.685.532,7.028,7.028,0,0,1-1.37.181,4.221,4.221,0,0,1-3.237-1.162,5.061,5.061,0,0,1-1.179-3.627,5.463,5.463,0,0,1,1.079-3.7,3.854,3.854,0,0,1,3.072-1.27,3.268,3.268,0,0,1,2.756,1.2A5.437,5.437,0,0,1,340.622,212.126Zm-.771-.166a3.96,3.96,0,0,0-.88-2.856,2.605,2.605,0,0,0-2.009-.8,3.378,3.378,0,0,0-2.324.83,4.191,4.191,0,0,0-1.038,2.826Z" transform="translate(7.2)"/><path class="cls-5" d="M342.989,207.859h.788l2.183,8.284,2.166-8.284h.972l2.183,8.326,2.175-8.326h.789l-2.433,9.3h-1.063l-2.14-8.151-2.134,8.151h-1.046Z" transform="translate(7.2)"/><path class="cls-5" d="M364.986,212.126v.481h-7.055a4.466,4.466,0,0,0,.871,3.138,3.811,3.811,0,0,0,2.863,1,5.475,5.475,0,0,0,1.321-.216,7.469,7.469,0,0,0,1.643-.647v.805a9.2,9.2,0,0,1-1.684.532,7.028,7.028,0,0,1-1.37.181,4.219,4.219,0,0,1-3.238-1.162,5.065,5.065,0,0,1-1.178-3.627,5.457,5.457,0,0,1,1.079-3.7,3.851,3.851,0,0,1,3.071-1.27,3.265,3.265,0,0,1,2.756,1.2A5.444,5.444,0,0,1,364.986,212.126Zm-.772-.166a3.96,3.96,0,0,0-.88-2.856,2.6,2.6,0,0,0-2.008-.8,3.382,3.382,0,0,0-2.325.83,4.193,4.193,0,0,0-1.037,2.823Z" transform="translate(7.2)"/><path class="cls-5" d="M373.246,208.515a2.139,2.139,0,0,0-.5-.158,4.253,4.253,0,0,0-.713-.05,3,3,0,0,0-2.341,1.046,4.474,4.474,0,0,0-.731,2.906v4.9h-.747v-9.3h.747V209.6a3.6,3.6,0,0,1,1.046-1.261,3.524,3.524,0,0,1,2.192-.706,5.588,5.588,0,0,1,.564.025,1.916,1.916,0,0,1,.482.059Z" transform="translate(7.2)"/><path class="cls-5" d="M143.985,222.763h3.5a3.169,3.169,0,0,1,2.32.789,3.1,3.1,0,0,1,.8,2.307,4.213,4.213,0,0,1-1.179,3.18,4.587,4.587,0,0,1-3.32,1.137h-1.893l-.88,4.98h-1.51Zm1.27,1.377-.805,4.658h1.9a2.576,2.576,0,0,0,1.972-.731,2.944,2.944,0,0,0,.684-2.092,1.861,1.861,0,0,0-.465-1.352,1.741,1.741,0,0,0-1.311-.483Z" transform="translate(7.2)"/><path class="cls-5" d="M158.844,229.851l-.93,5.305h-1.378l.249-1.411a4.019,4.019,0,0,1-1.374,1.241,3.62,3.62,0,0,1-1.722.41,2.3,2.3,0,0,1-1.752-.725,2.626,2.626,0,0,1-.68-1.865,3.135,3.135,0,0,1,1.166-2.572,4.978,4.978,0,0,1,3.225-.947h1.909l.075-.406a1.036,1.036,0,0,0,.025-.146c0-.053.008-.134.008-.245a1.356,1.356,0,0,0-.544-1.149,2.477,2.477,0,0,0-1.523-.412,5.261,5.261,0,0,0-1.378.192,7.567,7.567,0,0,0-1.453.572l.241-1.41a8.85,8.85,0,0,1,1.523-.486,6.779,6.779,0,0,1,1.441-.162,3.2,3.2,0,0,1,2.249.714,2.683,2.683,0,0,1,.772,2.075c0,.183-.013.4-.037.643S158.893,229.575,158.844,229.851Zm-1.486.631H155.98a4.839,4.839,0,0,0-2.5.5,1.7,1.7,0,0,0-.809,1.556,1.431,1.431,0,0,0,1.289,1.56,1.373,1.373,0,0,0,.272,0,2.6,2.6,0,0,0,1.954-.891,4.627,4.627,0,0,0,1.109-2.387Z" transform="translate(7.2)"/><path class="cls-5" d="M163.334,227.27a3.865,3.865,0,0,1,1.308-1.219,3.378,3.378,0,0,1,1.672-.416,2.355,2.355,0,0,1,1.988.934,4.235,4.235,0,0,1,.71,2.618,7.834,7.834,0,0,1-.44,2.628,7.124,7.124,0,0,1-1.27,2.237,3.824,3.824,0,0,1-1.245,1,3.249,3.249,0,0,1-1.457.348,2.606,2.606,0,0,1-1.494-.41,2.437,2.437,0,0,1-.905-1.225l-.863,4.931h-1.37l2.25-12.833h1.369Zm4.259,2.158a3.124,3.124,0,0,0-.477-1.868,1.6,1.6,0,0,0-1.374-.646,2.173,2.173,0,0,0-1.171.347,3.285,3.285,0,0,0-.988,1.014,5.654,5.654,0,0,0-.676,1.585,7,7,0,0,0-.253,1.843,2.907,2.907,0,0,0,.477,1.789,1.6,1.6,0,0,0,1.357.627,2.261,2.261,0,0,0,1.2-.341,2.915,2.915,0,0,0,.954-.987,6.222,6.222,0,0,0,.685-1.6,6.462,6.462,0,0,0,.266-1.763Z" transform="translate(7.2)"/><path class="cls-5" d="M178.259,230.873h-6.391c-.028.21-.047.376-.059.5s-.016.226-.016.315a2.389,2.389,0,0,0,.639,1.784,2.45,2.45,0,0,0,1.8.631,6.26,6.26,0,0,0,1.7-.223,5.683,5.683,0,0,0,1.49-.656l-.266,1.51a7.377,7.377,0,0,1-1.527.5,7.678,7.678,0,0,1-1.6.166,3.639,3.639,0,0,1-2.677-.925,3.534,3.534,0,0,1-.934-2.627,7.694,7.694,0,0,1,.465-2.7,6.667,6.667,0,0,1,1.369-2.228,3.959,3.959,0,0,1,1.387-.947,4.458,4.458,0,0,1,1.71-.332,2.866,2.866,0,0,1,2.257.947,3.683,3.683,0,0,1,.839,2.539,7.718,7.718,0,0,1-.046.818C178.366,230.229,178.32,230.541,178.259,230.873Zm-1.195-1.2c.016-.088.029-.179.037-.273s.013-.188.013-.283a2.3,2.3,0,0,0-.535-1.6,1.876,1.876,0,0,0-1.458-.59,2.6,2.6,0,0,0-1.8.719,4.43,4.43,0,0,0-1.183,2.037Z" transform="translate(7.2)"/><path class="cls-5" d="M185.946,227.27a1.821,1.821,0,0,0-.482-.19,2.3,2.3,0,0,0-.572-.067,2.5,2.5,0,0,0-1.926.925,4.9,4.9,0,0,0-1.088,2.478l-.846,4.74h-1.37l1.635-9.3h1.378l-.265,1.444a3.943,3.943,0,0,1,1.3-1.237,3.276,3.276,0,0,1,2.058-.4,2.654,2.654,0,0,1,.432.1Z" transform="translate(7.2)"/><path class="cls-5" d="M193.541,223.219v2.64h3.146v.648h-3.146v5.587a2.914,2.914,0,0,0,.274,1.485,1.811,1.811,0,0,0,1.644.93h1.228v.647H195.5a2.926,2.926,0,0,1-1.934-.664,3,3,0,0,1-.8-2.4v-5.587h-1.112v-.648h1.112v-2.64Z" transform="translate(7.2)"/><path class="cls-5" d="M206.424,229.545v5.611h-.763v-5.562a4.1,4.1,0,0,0-.606-2.54,2.224,2.224,0,0,0-1.835-.747,3,3,0,0,0-2.233.83,3.839,3.839,0,0,0-.822,2.765v5.254H199.4V222.24h.763v5.338a3,3,0,0,1,.947-1.271,3.5,3.5,0,0,1,2.291-.672,2.716,2.716,0,0,1,2.2.988A4.5,4.5,0,0,1,206.424,229.545Z" transform="translate(7.2)"/><path class="cls-5" d="M216.743,229.851v5.305h-.756v-2.523a3.342,3.342,0,0,1-3.362,2.763,3.089,3.089,0,0,1-2.183-.738,3.232,3.232,0,0,1,.24-4.5,5.277,5.277,0,0,1,3.4-.872h1.892v-.149a2.631,2.631,0,0,0-3.013-2.831,4.783,4.783,0,0,0-1.627.3,6.544,6.544,0,0,0-1.378.773v-.823a5.858,5.858,0,0,1,1.378-.647,6.282,6.282,0,0,1,1.785-.274,3.8,3.8,0,0,1,2.706,1A4.346,4.346,0,0,1,216.743,229.851Zm-2.848.059a4.254,4.254,0,0,0-2.656.656,2.319,2.319,0,0,0-.814,1.917,2.058,2.058,0,0,0,.673,1.743,2.544,2.544,0,0,0,1.594.515,2.609,2.609,0,0,0,2.506-1.478,6.021,6.021,0,0,0,.772-2.781v-.572Z" transform="translate(7.2)"/><path class="cls-5" d="M227.616,229.545v5.611h-.764v-5.562a4.211,4.211,0,0,0-.581-2.547,2.041,2.041,0,0,0-1.71-.74,3.37,3.37,0,0,0-2.258.8,3.518,3.518,0,0,0-.946,2.8v5.254h-.764v-9.3h.764V227.6a3.172,3.172,0,0,1,1.07-1.3,3.748,3.748,0,0,1,2.167-.672,2.78,2.78,0,0,1,2.2.938A4.426,4.426,0,0,1,227.616,229.545Z" transform="translate(7.2)"/><path class="cls-5" d="M236.671,231.47v-5.611h.764v5.562a4.215,4.215,0,0,0,.581,2.548,2.043,2.043,0,0,0,1.71.739,3.37,3.37,0,0,0,2.258-.8,3.518,3.518,0,0,0,.946-2.8v-5.254h.764v9.3h-.764v-1.743a3.175,3.175,0,0,1-1.071,1.295,3.744,3.744,0,0,1-2.166.673,2.776,2.776,0,0,1-2.2-.939A4.417,4.417,0,0,1,236.671,231.47Z" transform="translate(7.2)"/><path class="cls-5" d="M252.808,226.133v.838a6.573,6.573,0,0,0-1-.5,7.222,7.222,0,0,0-1.443-.166,3.545,3.545,0,0,0-2.059.523,1.733,1.733,0,0,0-.573,1.478,1.3,1.3,0,0,0,.54,1.1,4.209,4.209,0,0,0,1.635.664l.523.116a5.044,5.044,0,0,1,2,.821,2.015,2.015,0,0,1,.83,1.579,2.726,2.726,0,0,1-.78,2.066,3.972,3.972,0,0,1-2.673.738,6.54,6.54,0,0,1-1.56-.14q-.639-.183-1.345-.44v-.955a8.146,8.146,0,0,0,1.311.664,6.388,6.388,0,0,0,1.627.216,2.975,2.975,0,0,0,1.985-.556,1.87,1.87,0,0,0,.646-1.478,1.346,1.346,0,0,0-.431-1.112,5.084,5.084,0,0,0-1.984-.814l-.531-.124a4.434,4.434,0,0,1-1.784-.772,1.873,1.873,0,0,1-.773-1.51,2.363,2.363,0,0,1,.93-2.1,3.936,3.936,0,0,1,2.282-.639,6.823,6.823,0,0,1,1.594.125A7.736,7.736,0,0,1,252.808,226.133Z" transform="translate(7.2)"/><path class="cls-5" d="M256.3,231.47v-5.611h.764v5.562a4.215,4.215,0,0,0,.581,2.548,2.043,2.043,0,0,0,1.71.739,3.37,3.37,0,0,0,2.258-.8,3.518,3.518,0,0,0,.946-2.8v-5.254h.764v9.3h-.764v-1.743a3.182,3.182,0,0,1-1.071,1.295,3.744,3.744,0,0,1-2.166.673,2.778,2.778,0,0,1-2.2-.939A4.422,4.422,0,0,1,256.3,231.47Z" transform="translate(7.2)"/><path class="cls-5" d="M273.743,229.851v5.305h-.756v-2.523a3.342,3.342,0,0,1-3.362,2.763,3.089,3.089,0,0,1-2.183-.738,3.232,3.232,0,0,1,.24-4.5,5.277,5.277,0,0,1,3.4-.872h1.892v-.149a2.631,2.631,0,0,0-3.013-2.831,4.783,4.783,0,0,0-1.627.3,6.544,6.544,0,0,0-1.378.773v-.823a5.84,5.84,0,0,1,1.378-.647,6.282,6.282,0,0,1,1.785-.274,3.8,3.8,0,0,1,2.706,1A4.346,4.346,0,0,1,273.743,229.851Zm-2.848.059a4.254,4.254,0,0,0-2.656.656,2.319,2.319,0,0,0-.814,1.917,2.058,2.058,0,0,0,.673,1.743,2.544,2.544,0,0,0,1.594.515,2.609,2.609,0,0,0,2.506-1.478,6.021,6.021,0,0,0,.772-2.781v-.572Z" transform="translate(7.2)"/><path class="cls-5" d="M277.593,222.24h.764v12.916h-.764Z" transform="translate(7.2)"/><path class="cls-5" d="M282.664,234.11h.847v1.046h-.847Z" transform="translate(7.2)"/><path d="M199.748,67.529V47.251h9.705c3.845,0,5.86,2.2,5.86,5.271a4.743,4.743,0,0,1-2.635,4.465v.062a4.992,4.992,0,0,1,3.565,4.992c0,3.162-2.046,5.488-5.984,5.488Zm3.969-16.589v4.528h5.24a2.16,2.16,0,0,0,2.418-2.264c0-1.3-.62-2.264-2.449-2.264Zm0,8.062V63.87h5.86a2.288,2.288,0,0,0,2.583-1.949,2.239,2.239,0,0,0,.017-.47,2.377,2.377,0,0,0-2.3-2.457,2.262,2.262,0,0,0-.273.006Z" transform="translate(7.2)"/><path d="M232.176,47.251h3.876V59.467c0,5.178-3.039,8.464-8.5,8.464-5.55,0-8.619-3.255-8.619-8.464V47.251H222.9V59.467c0,3.007,1.549,4.806,4.619,4.806,3.132,0,4.651-1.8,4.651-4.806Z" transform="translate(7.2)"/><path d="M239.986,67.529V47.251h7.193c7.1,0,10.821,4.061,10.821,10.138s-3.72,10.14-10.821,10.14Zm7.193-3.659c4.682,0,6.791-2.543,6.791-6.481s-2.109-6.449-6.791-6.449h-3.225V63.87Z" transform="translate(7.2)"/><path d="M276.972,53.7a6.4,6.4,0,0,0-5.8-3.163,6.52,6.52,0,0,0-6.763,6.268q-.01.291,0,.584a6.545,6.545,0,0,0,6.193,6.879c.189.01.377.011.566,0,3.195,0,5.52-1.519,6.449-4.155v-.062h-7.689V56.521h12v1.892c-.465,5.55-4.807,9.518-10.76,9.518-6.324,0-10.789-4.464-10.789-10.542s4.465-10.542,10.789-10.542c4.961,0,8.776,2.729,10.2,6.853Z" transform="translate(7.2)"/><path d="M289.121,59v4.87H300.1v3.659H285.152V47.251H300.1V50.94H289.121v4.528H298.3V59Z" transform="translate(7.2)"/><path d="M308.681,67.529V50.94h-6.046V47.251H318.7V50.94h-6.05V67.529Z" transform="translate(7.2)"/><path d="M232.952,78.6a6.45,6.45,0,0,0-6.263-4.062,6.868,6.868,0,1,0,6.263,9.643h4.185c-1.147,4.62-5.146,7.751-10.448,7.751-6.325,0-10.79-4.464-10.79-10.542s4.465-10.542,10.79-10.542c5.3,0,9.3,3.132,10.448,7.752Z" transform="translate(7.2)"/><path d="M253.255,71.251h3.876V83.467c0,5.178-3.038,8.464-8.5,8.464-5.551,0-8.62-3.255-8.62-8.464V71.251h3.969V83.467c0,3.007,1.55,4.806,4.62,4.806,3.131,0,4.65-1.8,4.65-4.806Z" transform="translate(7.2)"/><path d="M265.871,91.529V74.94h-6.046V71.251h16.061V74.94h-6.047V91.529Z" transform="translate(7.2)"/><path d="M288.5,77.111c-.03-1.551-1.177-2.667-3.38-2.667-2.232,0-3.347,1.21-3.347,2.7,0,4.217,10.82.31,10.82,8.433,0,3.938-3.008,6.388-7.534,6.388-4.5,0-7.441-2.388-7.534-6.264H281.4c.031,1.613,1.24,2.7,3.659,2.7,2.449,0,3.659-1.085,3.659-2.7,0-4.216-10.791-.341-10.791-8.433,0-3.752,2.854-6.387,7.163-6.387,4.186,0,7.007,2.511,7.162,6.232Z" transform="translate(7.2)"/><path d="M295.692,89.482a2.434,2.434,0,1,1,0,.03Zm.868-4.309-.5-13.922h4.154l-.5,13.922Z" transform="translate(7.2)"/><g id="Place_this_card_on_the_table_as_if_it_were_a_grant._It_stays_there_in_place_of_a_grant_until_a_PI_u" data-name="Place this card on the table as if it were a grant. It stays there in place of a grant until a PI u"><path class="cls-5" d="M67.192,105.794h5.054a4.921,4.921,0,0,1,3.462,1.112,4.778,4.778,0,0,1,0,6.345,4.921,4.921,0,0,1-3.462,1.112h-2v4.553H67.2Zm3.05,2.452v3.665H71.92a1.868,1.868,0,0,0,1.371-.479,2.142,2.142,0,0,0,0-2.712,1.875,1.875,0,0,0-1.371-.474Z" transform="translate(7.2)"/><path class="cls-5" d="M78.934,105.24h2.83v13.676h-2.83Z" transform="translate(7.2)"/><path class="cls-5" d="M92.777,113.3v5.616H89.92v-1.459a3.832,3.832,0,0,1-1.283,1.305,3.434,3.434,0,0,1-1.731.409,2.962,2.962,0,0,1-2.237-.892,3.209,3.209,0,0,1-.857-2.316,2.972,2.972,0,0,1,1.072-2.54,5.616,5.616,0,0,1,3.366-.809h1.67v-.246a1.212,1.212,0,0,0-.531-1.094,3.072,3.072,0,0,0-1.648-.347,6.763,6.763,0,0,0-1.7.2,5.519,5.519,0,0,0-1.459.606v-2.4a14.886,14.886,0,0,1,1.833-.374,13.364,13.364,0,0,1,1.832-.127,4.8,4.8,0,0,1,3.463,1.05A4.648,4.648,0,0,1,92.777,113.3Zm-4.324,1.186a2.223,2.223,0,0,0-1.336.334,1.153,1.153,0,0,0-.449.984,1.219,1.219,0,0,0,.361.936,1.4,1.4,0,0,0,1,.339,1.7,1.7,0,0,0,1.344-.637,2.371,2.371,0,0,0,.545-1.6v-.36Z" transform="translate(7.2)"/><path class="cls-5" d="M102.559,109.38v2.566a4.277,4.277,0,0,0-1.156-.65,3.527,3.527,0,0,0-1.208-.211,2.3,2.3,0,0,0-1.846.769,3.832,3.832,0,0,0,0,4.3,2.3,2.3,0,0,0,1.846.769,3.638,3.638,0,0,0,1.265-.22,3.578,3.578,0,0,0,1.1-.65v2.575a7.171,7.171,0,0,1-1.345.408,7.013,7.013,0,0,1-1.371.137A5.048,5.048,0,0,1,96.09,117.8a6.018,6.018,0,0,1,0-7.6,5.047,5.047,0,0,1,3.753-1.366,6.936,6.936,0,0,1,1.371.136A7.431,7.431,0,0,1,102.559,109.38Z" transform="translate(7.2)"/><path class="cls-5" d="M113.844,113.968v.9h-6.618a2.411,2.411,0,0,0,.716,1.661,2.5,2.5,0,0,0,1.727.554,6.066,6.066,0,0,0,1.833-.3,8.774,8.774,0,0,0,1.92-.892v2.426a11.215,11.215,0,0,1-2.008.637,9.548,9.548,0,0,1-2.008.216,5,5,0,0,1-3.74-1.358A5.212,5.212,0,0,1,104.334,114a5.278,5.278,0,0,1,1.31-3.788,4.73,4.73,0,0,1,3.6-1.38,4.273,4.273,0,0,1,3.345,1.4A5.391,5.391,0,0,1,113.844,113.968Zm-2.909-1.046a2.147,2.147,0,0,0-.47-1.446,1.546,1.546,0,0,0-1.235-.549,1.8,1.8,0,0,0-1.332.514,2.508,2.508,0,0,0-.646,1.481Z" transform="translate(7.2)"/><path class="cls-5" d="M124.716,106.277v2.8h2.918v2.25h-2.918V115.5a1.322,1.322,0,0,0,.242.927,1.407,1.407,0,0,0,.971.242h1.459v2.25h-2.426a3.089,3.089,0,0,1-2.382-.778,3.928,3.928,0,0,1-.7-2.641v-4.175h-1.406v-2.25h1.406v-2.8Z" transform="translate(7.2)"/><path class="cls-5" d="M138.269,112.922v5.994h-2.848v-4.571q0-1.292-.052-1.775a2.064,2.064,0,0,0-.176-.712,1.212,1.212,0,0,0-1.1-.65,1.586,1.586,0,0,0-1.393.76,3.772,3.772,0,0,0-.5,2.1v4.843h-2.83V105.24h2.83v5.273a4.537,4.537,0,0,1,1.362-1.27,3.175,3.175,0,0,1,1.591-.408,2.74,2.74,0,0,1,2.325,1.046A4.96,4.96,0,0,1,138.269,112.922Z" transform="translate(7.2)"/><path class="cls-5" d="M140.9,105.24h2.83v2.566H140.9Zm0,3.832h2.83v9.844H140.9Z" transform="translate(7.2)"/><path class="cls-5" d="M153.36,109.38v2.39a9.818,9.818,0,0,0-1.754-.633,6.655,6.655,0,0,0-1.595-.21,2.492,2.492,0,0,0-1.2.224.741.741,0,0,0-.391.69.661.661,0,0,0,.3.58,2.6,2.6,0,0,0,1.068.3l.492.08a5.618,5.618,0,0,1,2.931,1.01,2.891,2.891,0,0,1,.751,2.206,2.779,2.779,0,0,1-1.045,2.365,5.144,5.144,0,0,1-3.121.791,11.267,11.267,0,0,1-1.815-.154,14.048,14.048,0,0,1-1.92-.462v-2.39a7.571,7.571,0,0,0,1.736.685,7.24,7.24,0,0,0,1.806.229,2.44,2.44,0,0,0,1.248-.255.828.828,0,0,0,.422-.756.718.718,0,0,0-.29-.628,2.826,2.826,0,0,0-1.151-.321l-.5-.07a4.9,4.9,0,0,1-2.65-.976,2.825,2.825,0,0,1-.761-2.162,2.76,2.76,0,0,1,.967-2.32,4.784,4.784,0,0,1,2.962-.756,10.773,10.773,0,0,1,1.644.132A15.839,15.839,0,0,1,153.36,109.38Z" transform="translate(7.2)"/><path class="cls-5" d="M168.872,109.38v2.566a4.286,4.286,0,0,0-1.155-.65,3.537,3.537,0,0,0-1.209-.211,2.3,2.3,0,0,0-1.845.769,3.828,3.828,0,0,0,0,4.3,2.3,2.3,0,0,0,1.845.769,3.644,3.644,0,0,0,1.266-.22,3.578,3.578,0,0,0,1.1-.65v2.575a7.161,7.161,0,0,1-1.344.408,7.013,7.013,0,0,1-1.371.137A5.046,5.046,0,0,1,162.4,117.8a6.013,6.013,0,0,1,0-7.6,5.043,5.043,0,0,1,3.753-1.366,6.936,6.936,0,0,1,1.371.136A7.461,7.461,0,0,1,168.872,109.38Z" transform="translate(7.2)"/><path class="cls-5" d="M179.613,113.3v5.616h-2.857v-1.459a3.832,3.832,0,0,1-1.283,1.305,3.434,3.434,0,0,1-1.731.409,2.962,2.962,0,0,1-2.237-.892,3.2,3.2,0,0,1-.857-2.316,2.972,2.972,0,0,1,1.072-2.54,5.616,5.616,0,0,1,3.366-.809h1.67v-.246a1.212,1.212,0,0,0-.531-1.094,3.072,3.072,0,0,0-1.648-.347,6.763,6.763,0,0,0-1.7.2,5.519,5.519,0,0,0-1.459.606v-2.4a14.886,14.886,0,0,1,1.833-.374,13.364,13.364,0,0,1,1.832-.127,4.8,4.8,0,0,1,3.463,1.05A4.648,4.648,0,0,1,179.613,113.3Zm-4.325,1.186a2.218,2.218,0,0,0-1.335.334,1.153,1.153,0,0,0-.449.984,1.219,1.219,0,0,0,.361.936,1.4,1.4,0,0,0,1,.339,1.7,1.7,0,0,0,1.344-.637,2.371,2.371,0,0,0,.545-1.6v-.36Z" transform="translate(7.2)"/><path class="cls-5" d="M188.824,111.753a3.523,3.523,0,0,0-.743-.286,3.049,3.049,0,0,0-.743-.092,1.978,1.978,0,0,0-1.678.778,3.63,3.63,0,0,0-.589,2.228v4.535h-2.83v-9.844h2.83v1.617a3.819,3.819,0,0,1,1.252-1.41,3.137,3.137,0,0,1,1.7-.444,2.53,2.53,0,0,1,.307.013c.107.013.273.028.484.057Z" transform="translate(7.2)"/><path class="cls-5" d="M196.259,110.513V105.24h2.848v13.676h-2.848v-1.424a4.021,4.021,0,0,1-1.292,1.274,3.307,3.307,0,0,1-4.32-1.041,7.122,7.122,0,0,1,0-7.444,3.3,3.3,0,0,1,4.316-1.038A4.1,4.1,0,0,1,196.259,110.513Zm-1.872,6.373a1.559,1.559,0,0,0,1.393-.739,5.038,5.038,0,0,0,0-4.289,1.559,1.559,0,0,0-1.393-.738,1.543,1.543,0,0,0-1.375.738,5.038,5.038,0,0,0,0,4.289A1.543,1.543,0,0,0,194.387,116.886Z" transform="translate(7.2)"/><path class="cls-5" d="M211.666,108.835a4.66,4.66,0,0,1,3.578,1.371,6.259,6.259,0,0,1,0,7.594,5.358,5.358,0,0,1-7.159,0,6.207,6.207,0,0,1,0-7.594A4.693,4.693,0,0,1,211.666,108.835Zm0,2.25a1.6,1.6,0,0,0-1.432.751,5.016,5.016,0,0,0,0,4.333,1.605,1.605,0,0,0,1.432.752,1.588,1.588,0,0,0,1.42-.752,5.051,5.051,0,0,0,0-4.333A1.588,1.588,0,0,0,211.666,111.085Z" transform="translate(7.2)"/><path class="cls-5" d="M227.487,112.922v5.994h-2.848v-4.588q0-1.275-.053-1.758a2.041,2.041,0,0,0-.175-.712,1.215,1.215,0,0,0-1.1-.65,1.588,1.588,0,0,0-1.394.76,3.776,3.776,0,0,0-.5,2.1v4.843h-2.83v-9.844h2.83v1.441a4.552,4.552,0,0,1,1.363-1.27,3.175,3.175,0,0,1,1.591-.408,2.74,2.74,0,0,1,2.325,1.046A4.964,4.964,0,0,1,227.487,112.922Z" transform="translate(7.2)"/><path class="cls-5" d="M238.842,106.277v2.8h2.918v2.25h-2.918V115.5a1.326,1.326,0,0,0,.241.927,1.41,1.41,0,0,0,.972.242h1.459v2.25h-2.426a3.09,3.09,0,0,1-2.382-.778,3.928,3.928,0,0,1-.7-2.641v-4.175H234.6v-2.25H236v-2.8Z" transform="translate(7.2)"/><path class="cls-5" d="M252.4,112.922v5.994h-2.848v-4.571q0-1.292-.052-1.775a2.064,2.064,0,0,0-.176-.712,1.212,1.212,0,0,0-1.1-.65,1.586,1.586,0,0,0-1.393.76,3.772,3.772,0,0,0-.5,2.1v4.843H243.5V105.24h2.83v5.273a4.537,4.537,0,0,1,1.362-1.27,3.175,3.175,0,0,1,1.591-.408,2.741,2.741,0,0,1,2.316,1.046A4.963,4.963,0,0,1,252.4,112.922Z" transform="translate(7.2)"/><path class="cls-5" d="M263.865,113.968v.9h-6.619a2.408,2.408,0,0,0,.717,1.661,2.5,2.5,0,0,0,1.727.554,6.064,6.064,0,0,0,1.832-.3,8.781,8.781,0,0,0,1.921-.892v2.426a11.225,11.225,0,0,1-2.009.637,9.548,9.548,0,0,1-2.008.216,5,5,0,0,1-3.74-1.358,5.214,5.214,0,0,1-1.331-3.81,5.277,5.277,0,0,1,1.309-3.788,4.733,4.733,0,0,1,3.6-1.38,4.271,4.271,0,0,1,3.344,1.4A5.389,5.389,0,0,1,263.865,113.968Zm-2.91-1.046a2.147,2.147,0,0,0-.47-1.446,1.546,1.546,0,0,0-1.235-.549,1.8,1.8,0,0,0-1.332.514,2.513,2.513,0,0,0-.645,1.481Z" transform="translate(7.2)"/><path class="cls-5" d="M274.737,106.277v2.8h2.918v2.25h-2.918V115.5a1.326,1.326,0,0,0,.241.927,1.409,1.409,0,0,0,.972.242h1.459v2.25h-2.426a3.09,3.09,0,0,1-2.382-.778,3.922,3.922,0,0,1-.7-2.641v-4.175H270.5v-2.25h1.4v-2.8Z" transform="translate(7.2)"/><path class="cls-5" d="M287.683,113.3v5.616h-2.856v-1.459a3.826,3.826,0,0,1-1.284,1.305,3.434,3.434,0,0,1-1.731.409,2.965,2.965,0,0,1-2.237-.892,3.209,3.209,0,0,1-.857-2.316,2.975,2.975,0,0,1,1.072-2.54,5.612,5.612,0,0,1,3.367-.809h1.67v-.246a1.211,1.211,0,0,0-.532-1.094,3.072,3.072,0,0,0-1.648-.347,6.717,6.717,0,0,0-1.7.2,5.519,5.519,0,0,0-1.459.606v-2.4a14.886,14.886,0,0,1,1.833-.374,13.208,13.208,0,0,1,1.832-.127,4.8,4.8,0,0,1,3.463,1.05A4.648,4.648,0,0,1,287.683,113.3Zm-4.324,1.186a2.223,2.223,0,0,0-1.336.334,1.149,1.149,0,0,0-.448.984,1.218,1.218,0,0,0,.36.936,1.4,1.4,0,0,0,1,.339,1.705,1.705,0,0,0,1.345-.637,2.371,2.371,0,0,0,.545-1.6v-.36Z" transform="translate(7.2)"/><path class="cls-5" d="M293.141,110.513a4.074,4.074,0,0,1,1.3-1.27,3.3,3.3,0,0,1,4.324,1.038,7.092,7.092,0,0,1,0,7.444,3.3,3.3,0,0,1-4.324,1.037,4.064,4.064,0,0,1-1.3-1.27v1.424h-2.83V105.24h2.83Zm1.881,6.373a1.56,1.56,0,0,0,1.393-.739,5.038,5.038,0,0,0,0-4.289,1.681,1.681,0,0,0-2.787,0,4.948,4.948,0,0,0,0,4.28A1.572,1.572,0,0,0,295.022,116.886Z" transform="translate(7.2)"/><path class="cls-5" d="M301.9,105.24h2.83v13.676H301.9Z" transform="translate(7.2)"/><path class="cls-5" d="M316.291,113.968v.9h-6.618a2.408,2.408,0,0,0,.717,1.661,2.5,2.5,0,0,0,1.727.554,6.064,6.064,0,0,0,1.832-.3,8.781,8.781,0,0,0,1.921-.892v2.426a11.225,11.225,0,0,1-2.009.637,9.548,9.548,0,0,1-2.008.216,5,5,0,0,1-3.74-1.358,5.214,5.214,0,0,1-1.331-3.81,5.277,5.277,0,0,1,1.309-3.788,4.732,4.732,0,0,1,3.6-1.38,4.269,4.269,0,0,1,3.343,1.4A5.389,5.389,0,0,1,316.291,113.968Zm-2.909-1.046a2.147,2.147,0,0,0-.47-1.446,1.546,1.546,0,0,0-1.235-.549,1.8,1.8,0,0,0-1.332.514,2.513,2.513,0,0,0-.645,1.481Z" transform="translate(7.2)"/><path class="cls-5" d="M332.367,113.3v5.616H329.51v-1.459a3.832,3.832,0,0,1-1.283,1.305,3.434,3.434,0,0,1-1.731.409,2.97,2.97,0,0,1-2.238-.892,3.209,3.209,0,0,1-.856-2.316,2.972,2.972,0,0,1,1.072-2.54,5.616,5.616,0,0,1,3.366-.809h1.67v-.246a1.213,1.213,0,0,0-.531-1.094,3.077,3.077,0,0,0-1.649-.347,6.763,6.763,0,0,0-1.7.2,5.519,5.519,0,0,0-1.459.606v-2.4a14.886,14.886,0,0,1,1.833-.374,13.364,13.364,0,0,1,1.832-.127,4.8,4.8,0,0,1,3.463,1.05A4.653,4.653,0,0,1,332.367,113.3Zm-4.325,1.186a2.223,2.223,0,0,0-1.336.334,1.154,1.154,0,0,0-.448.984,1.219,1.219,0,0,0,.361.936,1.4,1.4,0,0,0,1,.339,1.7,1.7,0,0,0,1.344-.637,2.371,2.371,0,0,0,.545-1.6v-.36Z" transform="translate(7.2)"/><path class="cls-5" d="M341.912,109.38v2.39a9.846,9.846,0,0,0-1.754-.633,6.655,6.655,0,0,0-1.6-.21,2.492,2.492,0,0,0-1.2.224.741.741,0,0,0-.391.69.662.662,0,0,0,.3.58,2.591,2.591,0,0,0,1.067.3l.493.08a5.614,5.614,0,0,1,2.93,1.01,2.891,2.891,0,0,1,.752,2.206,2.777,2.777,0,0,1-1.046,2.365,5.132,5.132,0,0,1-3.12.791,11.254,11.254,0,0,1-1.814-.154,14.1,14.1,0,0,1-1.921-.462v-2.39a7.581,7.581,0,0,0,1.735.685,7.242,7.242,0,0,0,1.807.229,2.44,2.44,0,0,0,1.248-.255.828.828,0,0,0,.422-.756.718.718,0,0,0-.29-.628,2.835,2.835,0,0,0-1.152-.321l-.5-.07a4.889,4.889,0,0,1-2.649-.976,2.825,2.825,0,0,1-.761-2.162,2.76,2.76,0,0,1,.967-2.32,4.784,4.784,0,0,1,2.962-.756,10.76,10.76,0,0,1,1.643.132A15.737,15.737,0,0,1,341.912,109.38Z" transform="translate(7.2)"/><path class="cls-5" d="M350.27,105.24h2.83v2.566h-2.83Zm0,3.832h2.83v9.844h-2.83Z" transform="translate(7.2)"/><path class="cls-5" d="M361.643,105.24v2.065h-1.564a1.148,1.148,0,0,0-.835.242,1.176,1.176,0,0,0-.238.839v.686h2.417v2.25h-2.417v7.594h-2.839v-7.594h-1.406v-2.25h1.406v-.686a3.145,3.145,0,0,1,.809-2.377,3.526,3.526,0,0,1,2.5-.769Z" transform="translate(7.2)"/><path class="cls-5" d="M143.129,123.24h2.83v2.566h-2.83Zm0,3.832h2.83v9.844h-2.83Z" transform="translate(7.2)"/><path class="cls-5" d="M151.769,124.277v2.8h2.918v2.25h-2.918V133.5a1.322,1.322,0,0,0,.242.927,1.4,1.4,0,0,0,.971.242h1.459v2.25h-2.426a3.094,3.094,0,0,1-2.382-.778,3.922,3.922,0,0,1-.7-2.641v-4.175h-1.406v-2.25h1.406v-2.8Z" transform="translate(7.2)"/><path class="cls-5" d="M161.261,127.072h2.751l1.485,6.785,1.5-6.785h2.364l1.494,6.715,1.494-6.715H175.1l-2.338,9.844h-3.085l-1.5-6.768-1.485,6.768h-3.1Z" transform="translate(7.2)"/><path class="cls-5" d="M185.853,131.968v.9h-6.618a2.411,2.411,0,0,0,.716,1.661,2.5,2.5,0,0,0,1.727.554,6.1,6.1,0,0,0,1.833-.294,8.777,8.777,0,0,0,1.92-.893v2.426a11.215,11.215,0,0,1-2.008.637,9.624,9.624,0,0,1-2.009.216,4.988,4.988,0,0,1-3.739-1.359A5.206,5.206,0,0,1,176.343,132a5.278,5.278,0,0,1,1.31-3.788,4.73,4.73,0,0,1,3.6-1.38,4.271,4.271,0,0,1,3.344,1.4A5.392,5.392,0,0,1,185.853,131.968Zm-2.909-1.046a2.147,2.147,0,0,0-.47-1.446,1.55,1.55,0,0,0-1.235-.549,1.8,1.8,0,0,0-1.332.514,2.5,2.5,0,0,0-.646,1.481Z" transform="translate(7.2)"/><path class="cls-5" d="M194.58,129.753a3.536,3.536,0,0,0-.742-.286,3.055,3.055,0,0,0-.743-.092,1.981,1.981,0,0,0-1.679.778,3.643,3.643,0,0,0-.588,2.228v4.535H188v-9.844h2.831v1.617a3.819,3.819,0,0,1,1.252-1.41,3.137,3.137,0,0,1,1.7-.444,2.538,2.538,0,0,1,.307.013c.107.013.273.028.484.057Z" transform="translate(7.2)"/><path class="cls-5" d="M204.829,131.968v.9H198.21a2.417,2.417,0,0,0,.717,1.661,2.5,2.5,0,0,0,1.727.554,6.1,6.1,0,0,0,1.832-.294,8.785,8.785,0,0,0,1.921-.893v2.426a11.225,11.225,0,0,1-2.009.637,9.615,9.615,0,0,1-2.008.216,5,5,0,0,1-3.74-1.359A5.21,5.21,0,0,1,195.319,132a5.277,5.277,0,0,1,1.309-3.788,4.732,4.732,0,0,1,3.6-1.38,4.272,4.272,0,0,1,3.344,1.4A5.388,5.388,0,0,1,204.829,131.968Zm-2.91-1.046a2.145,2.145,0,0,0-.47-1.446,1.546,1.546,0,0,0-1.235-.549,1.8,1.8,0,0,0-1.331.514,2.5,2.5,0,0,0-.646,1.481Z" transform="translate(7.2)"/><path class="cls-5" d="M220.9,131.3v5.616h-2.857v-1.459a3.809,3.809,0,0,1-1.283,1.3,3.414,3.414,0,0,1-1.731.41,2.962,2.962,0,0,1-2.237-.892,3.209,3.209,0,0,1-.857-2.316,2.972,2.972,0,0,1,1.072-2.54,5.623,5.623,0,0,1,3.366-.809h1.67v-.246a1.213,1.213,0,0,0-.531-1.094,3.072,3.072,0,0,0-1.648-.347,6.763,6.763,0,0,0-1.7.2,5.519,5.519,0,0,0-1.459.606v-2.4a14.886,14.886,0,0,1,1.833-.374,13.364,13.364,0,0,1,1.832-.127,4.8,4.8,0,0,1,3.463,1.05A4.649,4.649,0,0,1,220.9,131.3Zm-4.325,1.186a2.218,2.218,0,0,0-1.335.334,1.153,1.153,0,0,0-.449.984,1.219,1.219,0,0,0,.361.936,1.4,1.4,0,0,0,1,.339,1.7,1.7,0,0,0,1.344-.638,2.359,2.359,0,0,0,.545-1.595v-.36Z" transform="translate(7.2)"/><path class="cls-5" d="M238.842,135.94a10.084,10.084,0,0,1-2.4.927,11.1,11.1,0,0,1-2.663.3,5.377,5.377,0,0,1-3.951-1.419,5.2,5.2,0,0,1-1.437-3.872,9.678,9.678,0,0,1,.448-2.984,8.2,8.2,0,0,1,1.345-2.545,6.986,6.986,0,0,1,2.575-2.1,7.918,7.918,0,0,1,3.393-.7,9.557,9.557,0,0,1,2.131.246,10.915,10.915,0,0,1,2.123.73l-.466,2.716a8.434,8.434,0,0,0-1.89-.932A5.813,5.813,0,0,0,236.2,126a4.156,4.156,0,0,0-3.323,1.511,5.8,5.8,0,0,0-1.283,3.885,3.635,3.635,0,0,0,.747,2.443,2.631,2.631,0,0,0,2.11.871,5.973,5.973,0,0,0,1.775-.273l.457-2.549h-1.863l.387-2.267h4.737Z" transform="translate(7.2)"/><path class="cls-5" d="M249.424,129.753a2.48,2.48,0,0,0-.654-.282,2.918,2.918,0,0,0-.761-.1,2.354,2.354,0,0,0-1.8.773,4.244,4.244,0,0,0-.963,2.233l-.809,4.535H241.6l1.723-9.844h2.847l-.307,1.688a4.035,4.035,0,0,1,1.4-1.429,3.594,3.594,0,0,1,1.867-.5c.106,0,.221.006.348.017s.273.03.443.053Z" transform="translate(7.2)"/><path class="cls-5" d="M258.837,131.3l-.993,5.616h-2.83l.237-1.459a4.825,4.825,0,0,1-1.472,1.3,3.515,3.515,0,0,1-1.683.417,2.719,2.719,0,0,1-2-.726,2.613,2.613,0,0,1-.738-1.955,3.409,3.409,0,0,1,1.3-2.879,6.134,6.134,0,0,1,3.776-1h1.67l.035-.246c.012-.082.018-.141.021-.176s0-.067,0-.1a.956.956,0,0,0-.492-.874,2.92,2.92,0,0,0-1.468-.294,7.107,7.107,0,0,0-1.7.2,6.925,6.925,0,0,0-1.586.606l.422-2.4a13.9,13.9,0,0,1,1.819-.374,14.242,14.242,0,0,1,1.925-.127,4.71,4.71,0,0,1,2.927.751,2.731,2.731,0,0,1,.958,2.29q0,.3-.035.655A7.674,7.674,0,0,1,258.837,131.3Zm-4.421,1.186a2.884,2.884,0,0,0-1.6.365,1.218,1.218,0,0,0-.54,1.076,1.107,1.107,0,0,0,.321.844,1.222,1.222,0,0,0,.883.308,1.975,1.975,0,0,0,1.45-.585,3.009,3.009,0,0,0,.782-1.648l.062-.36Z" transform="translate(7.2)"/><path class="cls-5" d="M270.456,130.922l-1.054,5.994h-2.839l.9-5.133c.065-.334.113-.616.145-.848a4.391,4.391,0,0,0,.049-.549,1.246,1.246,0,0,0-.282-.871,1.014,1.014,0,0,0-.791-.307,1.9,1.9,0,0,0-1.507.76,4.538,4.538,0,0,0-.874,2.105l-.853,4.843h-2.839l1.723-9.844h2.848l-.264,1.441a5.884,5.884,0,0,1,1.573-1.265,3.512,3.512,0,0,1,1.652-.413,2.462,2.462,0,0,1,1.895.712,2.835,2.835,0,0,1,.663,2q0,.281-.035.624T270.456,130.922Z" transform="translate(7.2)"/><path class="cls-5" d="M277.365,124.277l-.484,2.8h2.9l-.405,2.25h-2.9l-.721,4.166c-.023.094-.039.173-.049.237s-.011.123-.012.185a.669.669,0,0,0,.241.58,1.431,1.431,0,0,0,.813.176h1.468l-.4,2.25h-2.382a2.857,2.857,0,0,1-1.956-.6,2.187,2.187,0,0,1-.672-1.723c0-.164.007-.339.022-.527a5.471,5.471,0,0,1,.075-.571l.729-4.175h-1.4l.387-2.25h1.415l.483-2.8Z" transform="translate(7.2)"/><path class="cls-5" d="M280.933,133.514h2.848v3.4h-2.848Z" transform="translate(7.2)"/></g><g id="_" data-name=" "><polygon class="cls-3" points="75.189 62.575 90.317 47.909 114.355 71.211 99.226 85.877 75.189 62.575"/><g id="_2" data-name=" 2"><path class="cls-6" d="M58.865,88.883a2.167,2.167,0,0,0,1.545.576s10.579.115,16.641-5.531l.237-.23a5.307,5.307,0,0,0,.095-7.5c-.031-.032-.063-.064-.095-.095a5.722,5.722,0,0,0-7.844,0L58.865,86.233a1.718,1.718,0,0,0-.231,2.419A1.739,1.739,0,0,0,58.865,88.883Z" transform="translate(7.2)"/><line class="cls-7" x1="69.868" y1="89.229" x2="69.868" y2="89.229"/><path class="cls-6" d="M68.493,84.505a4.921,4.921,0,0,1-1.546,3.456,7.568,7.568,0,0,1-1.069.922" transform="translate(7.2)"/><path class="cls-6" d="M63.619,87.616a3.142,3.142,0,0,1-.951,1.728" transform="translate(7.2)"/><ellipse class="cls-8" cx="90.363" cy="51.326" rx="2.734" ry="2.65"/><ellipse class="cls-8" cx="111.375" cy="71.106" rx="2.734" ry="2.65"/><ellipse class="cls-8" cx="78.347" cy="62.959" rx="2.734" ry="2.65"/><ellipse class="cls-8" cx="98.846" cy="82.766" rx="2.734" ry="2.65"/><polygon class="cls-8" points="113.567 70.55 112.138 71.935 89.193 49.692 90.622 48.307 113.567 70.55"/><polygon class="cls-8" points="99.631 83.637 98.203 85.022 75.258 62.779 76.686 61.394 99.631 83.637"/><polygon class="cls-8" points="90.689 47.769 92.118 49.154 76.737 64.064 75.308 62.679 90.689 47.769"/><polygon class="cls-8" points="112.989 69.497 114.418 70.882 99.038 85.792 97.609 84.407 112.989 69.497"/><ellipse class="cls-8" cx="87.538" cy="66.635" rx="6.667" ry="10.889" transform="matrix(0.683, -0.731, 0.731, 0.683, -13.71, 85.132)"/><path class="cls-9" d="M91.076,84.965,68.849,63.418a1.091,1.091,0,0,1-.072-1.541q.034-.038.072-.072L82.162,48.9a1.174,1.174,0,0,1,1.66,0l0,0,22.108,21.432a1.089,1.089,0,0,1,.075,1.538q-.036.039-.075.075L92.741,84.965A1.462,1.462,0,0,1,91.076,84.965Z" transform="translate(7.2)"/><path class="cls-10" d="M98.565,63.994,84.658,77.476l-.119.115a.751.751,0,0,1-.832-.115l-7.369-7.144a.666.666,0,0,1-.119-.807.114.114,0,0,1,.115-.115h0L90.244,55.928l.119-.115a.751.751,0,0,1,.832.115l7.37,7.144a.666.666,0,0,1,.119.807.114.114,0,0,1-.113.115Z" transform="translate(7.2)"/><path class="cls-6" d="M110.213,39.1a2.027,2.027,0,0,1,.6,1.5s.118,10.255-5.706,16.132l-.238.23a5.72,5.72,0,0,1-7.844,0,5.306,5.306,0,0,1-.1-7.5c.032-.033.064-.065.1-.1l10.459-10.14a1.766,1.766,0,0,1,2.471-.362A1.712,1.712,0,0,1,110.213,39.1Z" transform="translate(7.2)"/><line class="cls-7" x1="117.77" y1="42.793" x2="117.77" y2="42.793"/><path class="cls-6" d="M105.7,48.439a5.242,5.242,0,0,0,3.565-1.5,7.477,7.477,0,0,0,.951-1.037" transform="translate(7.2)"/><path class="cls-6" d="M108.906,43.714a3.292,3.292,0,0,0,1.783-.921" transform="translate(7.2)"/></g></g></g></g><path d="M417.431,6.169V273.431H6.169V6.169H417.431M423.6,0H0V279.6H423.6V0Z" transform="translate(7.2)"/></g></g></svg>