<svg id="Card_Fronts" data-name="Card Fronts" xmlns="http://www.w3.org/2000/svg" viewBox="0 0 306 396"><defs><style>.cls-1{fill:#fff;}.cls-2{fill:#231f20;}.cls-3{fill:#e366a6;}.cls-4,.cls-5,.cls-6{fill:none;stroke:#fff;stroke-width:2px;}.cls-4,.cls-6{stroke-miterlimit:10;}.cls-5,.cls-6{stroke-linecap:round;}.cls-5{stroke-linejoin:round;}</style></defs><title>goalCard_01_competitor</title><g id="Layer_8" data-name="Layer 8"><rect class="cls-1" width="306" height="396"/></g><path class="cls-2" d="M33.5,395.75c66.44-1.58,211.44-8.17,245.66-35.54,19.92-18.94,25.2-82.56,26.59-114.34V395.75Z" transform="translate(0 0)"/><path class="cls-3" d="M305.5,256.08V395.5h-253c20.38-.65,44.88-1.72,70.13-3.49,37.25-2.62,68.82-6.21,93.85-10.69,31.34-5.62,52.47-12.65,62.83-20.94,11.29-10.73,19.29-36.36,23.78-76.19,1.13-10,1.88-19.67,2.38-28.11m.5-28.59S306,334.35,279,360C234,396,0,396,0,396H306V227.49Z" transform="translate(0 0)"/><path class="cls-2" d="M.25.25H303.18C282.22,4,149.08,28.3,107.91,44.77,41,76.38,4.78,156.71.25,167.27Z" transform="translate(0 0)"/><path class="cls-3" d="M300.38.5c-27.86,5-152.89,28.17-192.59,44.05C70.49,62.18,43,94.9,26.59,119.24A307.34,307.34,0,0,0,.5,166.06V.5H300.38M306,0H0V168.51S36,79,108,45C153,27,306,0,306,0Z" transform="translate(0 0)"/><g id="_01_competitor" data-name="01_competitor"><path class="cls-2" d="M30.47,198.65h1.19l4.77,7,4.73-7h1.17l-5.41,8V214h-1v-7.3Z" transform="translate(0 0)"/><path class="cls-2" d="M46.57,202.19A4.17,4.17,0,0,1,50,203.83a8.25,8.25,0,0,1,0,8.83,4.15,4.15,0,0,1-3.47,1.64,4.21,4.21,0,0,1-3.5-1.63,7.1,7.1,0,0,1-1.27-4.46,7,7,0,0,1,1.28-4.39A4.23,4.23,0,0,1,46.57,202.19Zm0,.83a3.24,3.24,0,0,0-2.77,1.41,6.27,6.27,0,0,0-1,3.77,6.46,6.46,0,0,0,1,3.84,3.45,3.45,0,0,0,5.55,0,6.45,6.45,0,0,0,1-3.84,6.3,6.3,0,0,0-1-3.76A3.25,3.25,0,0,0,46.58,203Z" transform="translate(0 0)"/><path class="cls-2" d="M55.35,209.4v-6.93h.94v6.87a5.21,5.21,0,0,0,.72,3.15,2.52,2.52,0,0,0,2.11.91,4.19,4.19,0,0,0,2.79-1A4.36,4.36,0,0,0,63.08,209v-6.49H64V214h-.94V211.8a3.92,3.92,0,0,1-1.32,1.6,4.59,4.59,0,0,1-2.68.83,3.43,3.43,0,0,1-2.72-1.16A5.49,5.49,0,0,1,55.35,209.4Z" transform="translate(0 0)"/><path class="cls-2" d="M74.62,202.47h1l2.7,10.23L81,202.47h1.2l2.69,10.29,2.69-10.29h1l-3,11.49H84.21l-2.65-10.07L78.93,214H77.64Z" transform="translate(0 0)"/><path class="cls-2" d="M92.93,198h.94v1.29h-.94Zm0,4.47h.94V214h-.94Z" transform="translate(0 0)"/><path class="cls-2" d="M107.56,207V214h-.94v-6.88a5.18,5.18,0,0,0-.72-3.14,2.52,2.52,0,0,0-2.11-.92,4.14,4.14,0,0,0-2.79,1,4.32,4.32,0,0,0-1.17,3.45V214h-.94V202.47h.94v2.15a3.91,3.91,0,0,1,1.32-1.6,4.67,4.67,0,0,1,2.68-.83,3.46,3.46,0,0,1,2.72,1.16A5.51,5.51,0,0,1,107.56,207Z" transform="translate(0 0)"/><path class="cls-2" d="M119.06,198H120v1.29h-.94Zm0,4.47H120V214h-.94Z" transform="translate(0 0)"/><path class="cls-2" d="M130,198v.8h-1.33a2.2,2.2,0,0,0-1.6.54,2.89,2.89,0,0,0-.68,2.12v1h3.1v.8h-3.1V214h-.95V203.27h-1.81v-.8h1.81v-.8a3.82,3.82,0,0,1,.87-2.79,3.18,3.18,0,0,1,2.38-.88Z" transform="translate(0 0)"/><path class="cls-2" d="M143.17,215a5.32,5.32,0,0,1-1.32,2.11,2.93,2.93,0,0,1-1.86.79h-1.41v-.8h1.2a1.94,1.94,0,0,0,1.31-.48,4.49,4.49,0,0,0,1.2-1.83l.34-.85-4.58-11.49h1l4.08,10.23,4.09-10.23h1Z" transform="translate(0 0)"/><path class="cls-2" d="M155.88,202.19a4.17,4.17,0,0,1,3.47,1.64,8.25,8.25,0,0,1,0,8.83,4.15,4.15,0,0,1-3.47,1.64,4.22,4.22,0,0,1-3.5-1.63,7.1,7.1,0,0,1-1.27-4.46,6.89,6.89,0,0,1,1.29-4.39A4.2,4.2,0,0,1,155.88,202.19Zm0,.83a3.24,3.24,0,0,0-2.77,1.41,6.27,6.27,0,0,0-1,3.77,6.46,6.46,0,0,0,1,3.84,3.45,3.45,0,0,0,5.55,0,6.45,6.45,0,0,0,1-3.84,6.3,6.3,0,0,0-1-3.76A3.25,3.25,0,0,0,155.89,203Z" transform="translate(0 0)"/><path class="cls-2" d="M164.66,209.4v-6.93h.94v6.87a5.21,5.21,0,0,0,.72,3.15,2.52,2.52,0,0,0,2.11.91,4.19,4.19,0,0,0,2.79-1,4.36,4.36,0,0,0,1.17-3.46v-6.49h1V214h-1V211.8a3.84,3.84,0,0,1-1.32,1.6,4.59,4.59,0,0,1-2.68.83,3.39,3.39,0,0,1-2.71-1.16A5.44,5.44,0,0,1,164.66,209.4Z" transform="translate(0 0)"/><path class="cls-2" d="M193.65,207V214h-.94v-6.88A5,5,0,0,0,192,204a2.73,2.73,0,0,0-2.26-.93,3.7,3.7,0,0,0-2.76,1,4.71,4.71,0,0,0-1,3.41V214H185V198h.94v6.59a3.77,3.77,0,0,1,1.17-1.57,4.34,4.34,0,0,1,2.83-.83,3.37,3.37,0,0,1,2.72,1.22A5.61,5.61,0,0,1,193.65,207Z" transform="translate(0 0)"/><path class="cls-2" d="M206.5,207.4V214h-.93v-3.12a4.12,4.12,0,0,1-4.15,3.41,3.82,3.82,0,0,1-2.7-.91,4,4,0,0,1,.3-5.56,6.48,6.48,0,0,1,4.19-1.07h2.34v-.19a3.25,3.25,0,0,0-3.72-3.5,6,6,0,0,0-2,.37,8,8,0,0,0-1.7,1v-1a7.35,7.35,0,0,1,1.7-.8,8,8,0,0,1,2.2-.34,4.71,4.71,0,0,1,3.35,1.23C206.12,204.13,206.5,205.46,206.5,207.4Zm-3.51.07a5.24,5.24,0,0,0-3.28.82,2.85,2.85,0,0,0-1,2.36,2.57,2.57,0,0,0,.83,2.16,3.16,3.16,0,0,0,2,.63,3.24,3.24,0,0,0,3.1-1.82,7.53,7.53,0,0,0,1-3.44v-.71Z" transform="translate(0 0)"/><path class="cls-2" d="M210.32,202.47h1l3.9,10.45,3.89-10.45h1L215.81,214H214.6Z" transform="translate(0 0)"/><path class="cls-2" d="M232.85,207.74v.6h-8.72q0,2.76,1.08,3.87a4.7,4.7,0,0,0,3.54,1.23,7.14,7.14,0,0,0,1.63-.26,9.83,9.83,0,0,0,2-.8v1a11.16,11.16,0,0,1-2.08.66,8.65,8.65,0,0,1-1.69.22,5.24,5.24,0,0,1-4-1.43,6.28,6.28,0,0,1-1.46-4.48,6.8,6.8,0,0,1,1.33-4.58,4.79,4.79,0,0,1,3.8-1.57,4,4,0,0,1,3.4,1.49A6.71,6.71,0,0,1,232.85,207.74Zm-.95-.2a4.91,4.91,0,0,0-1.09-3.53,3.22,3.22,0,0,0-2.48-1,4.19,4.19,0,0,0-2.87,1,5.18,5.18,0,0,0-1.28,3.49Z" transform="translate(0 0)"/><path class="cls-2" d="M244.7,199.21v3.26h3.88v.8H244.7v6.9A3.55,3.55,0,0,0,245,212a2.24,2.24,0,0,0,2,1.15h1.51v.8h-1.46a3.6,3.6,0,0,1-2.39-.83,3.67,3.67,0,0,1-1-3v-6.9h-1.38v-.8h1.38v-3.26Z" transform="translate(0 0)"/><path class="cls-2" d="M260.72,207V214h-.94v-6.88A5,5,0,0,0,259,204a2.75,2.75,0,0,0-2.27-.93,3.74,3.74,0,0,0-2.76,1,4.76,4.76,0,0,0-1,3.41V214h-1V198h1v6.59a3.77,3.77,0,0,1,1.17-1.57,4.34,4.34,0,0,1,2.83-.83,3.35,3.35,0,0,1,2.71,1.22A5.55,5.55,0,0,1,260.72,207Z" transform="translate(0 0)"/><path class="cls-2" d="M274.41,207.74v.6h-8.72q0,2.76,1.08,3.87a4.7,4.7,0,0,0,3.54,1.23,7.14,7.14,0,0,0,1.63-.26,9.83,9.83,0,0,0,2-.8v1a11.16,11.16,0,0,1-2.08.66,8.65,8.65,0,0,1-1.69.22,5.22,5.22,0,0,1-4-1.43,6.28,6.28,0,0,1-1.46-4.48,6.75,6.75,0,0,1,1.33-4.58,4.79,4.79,0,0,1,3.8-1.57,4,4,0,0,1,3.4,1.49A6.71,6.71,0,0,1,274.41,207.74Zm-1-.2a4.91,4.91,0,0,0-1.09-3.53,3.22,3.22,0,0,0-2.48-1,4.19,4.19,0,0,0-2.87,1,5.18,5.18,0,0,0-1.28,3.49Z" transform="translate(0 0)"/><path class="cls-2" d="M27.15,228V235H26.2v-6.88a5,5,0,0,0-.75-3.13,2.73,2.73,0,0,0-2.26-.93,3.74,3.74,0,0,0-2.76,1,4.71,4.71,0,0,0-1,3.41V235h-.94V219h.94v6.59A3.77,3.77,0,0,1,20.58,224a4.36,4.36,0,0,1,2.83-.83,3.37,3.37,0,0,1,2.72,1.22A5.55,5.55,0,0,1,27.15,228Z" transform="translate(0 0)"/><path class="cls-2" d="M31.87,219h.94v1.29h-.94Zm0,4.47h.94V235h-.94Z" transform="translate(0 0)"/><path class="cls-2" d="M46.4,233.53q0,3.58-1.37,4.69a5.34,5.34,0,0,1-3.45,1.1,11.3,11.3,0,0,1-1.88-.14,9.79,9.79,0,0,1-1.71-.46v-1.08a7.76,7.76,0,0,0,1.64.67,6.55,6.55,0,0,0,1.65.21,5.63,5.63,0,0,0,2.94-.73c.82-.48,1.23-1.79,1.23-3.92v-1.8a4.51,4.51,0,0,1-1.15,1.86,3.67,3.67,0,0,1-2.54,1,4.09,4.09,0,0,1-3.4-1.55,8.31,8.31,0,0,1,0-8.67,4.09,4.09,0,0,1,3.4-1.55,3.51,3.51,0,0,1,2.4.89,5.18,5.18,0,0,1,1.29,1.83v-2.44h.95Zm-.95-4.45a6.23,6.23,0,0,0-1-3.71,3.45,3.45,0,0,0-5.43,0,7.56,7.56,0,0,0,0,7.41,3.47,3.47,0,0,0,5.43,0A6.19,6.19,0,0,0,45.45,229.08Z" transform="translate(0 0)"/><path class="cls-2" d="M59.21,228V235h-1v-6.88a5.1,5.1,0,0,0-.74-3.13,2.75,2.75,0,0,0-2.27-.93,3.74,3.74,0,0,0-2.76,1,4.71,4.71,0,0,0-1,3.41V235h-.95V219h.95v6.59A3.61,3.61,0,0,1,52.65,224a4.32,4.32,0,0,1,2.83-.83,3.35,3.35,0,0,1,2.71,1.22A5.55,5.55,0,0,1,59.21,228Z" transform="translate(0 0)"/><path class="cls-2" d="M72.9,228.74v.6H64.18q0,2.76,1.08,3.87a4.7,4.7,0,0,0,3.54,1.23,7.14,7.14,0,0,0,1.63-.26,9.83,9.83,0,0,0,2-.8v1a11.16,11.16,0,0,1-2.08.66,8.73,8.73,0,0,1-1.7.22,5.21,5.21,0,0,1-4-1.43,6.23,6.23,0,0,1-1.46-4.48,6.75,6.75,0,0,1,1.33-4.58,4.79,4.79,0,0,1,3.8-1.57,4,4,0,0,1,3.4,1.49A6.71,6.71,0,0,1,72.9,228.74Zm-1-.2A4.91,4.91,0,0,0,70.86,225a3.22,3.22,0,0,0-2.48-1,4.17,4.17,0,0,0-2.87,1,5.18,5.18,0,0,0-1.29,3.49Z" transform="translate(0 0)"/><path class="cls-2" d="M83.47,223.81v1a8.11,8.11,0,0,0-1.24-.61,8.44,8.44,0,0,0-1.78-.21,4.36,4.36,0,0,0-2.54.65,2.13,2.13,0,0,0-.71,1.83,1.6,1.6,0,0,0,.66,1.36,5.37,5.37,0,0,0,2,.82l.65.14a6.14,6.14,0,0,1,2.47,1,2.51,2.51,0,0,1,1,1.95,3.35,3.35,0,0,1-1,2.55,4.88,4.88,0,0,1-3.3.91,8.42,8.42,0,0,1-1.93-.17c-.52-.15-1.08-.33-1.66-.54v-1.18a11.69,11.69,0,0,0,1.62.82,8.28,8.28,0,0,0,2,.26,3.69,3.69,0,0,0,2.45-.68,2.3,2.3,0,0,0,.8-1.83,1.66,1.66,0,0,0-.53-1.37,6.25,6.25,0,0,0-2.45-1l-.66-.15a5.51,5.51,0,0,1-2.2-1,2.3,2.3,0,0,1-1-1.86A3,3,0,0,1,77.4,224a4.93,4.93,0,0,1,2.82-.79,8.43,8.43,0,0,1,2,.16A9.27,9.27,0,0,1,83.47,223.81Z" transform="translate(0 0)"/><path class="cls-2" d="M89,220.21v3.26H92.9v.8H89v6.9a3.55,3.55,0,0,0,.34,1.84,2.24,2.24,0,0,0,2,1.15H92.9v.8H91.43a3.6,3.6,0,0,1-2.39-.83,3.7,3.7,0,0,1-1-3v-6.9H86.68v-.8h1.38v-3.26Z" transform="translate(0 0)"/><path class="cls-2" d="M111.81,228V235h-.94v-6.88a5.18,5.18,0,0,0-.72-3.14A2.52,2.52,0,0,0,108,224a4.14,4.14,0,0,0-2.79,1,4.32,4.32,0,0,0-1.17,3.45V235h-.94V223.47h.94v2.15a4.07,4.07,0,0,1,1.32-1.6,4.67,4.67,0,0,1,2.68-.83,3.46,3.46,0,0,1,2.72,1.16A5.51,5.51,0,0,1,111.81,228Z" transform="translate(0 0)"/><path class="cls-2" d="M116.43,230.4v-6.93h.94v6.87a5.21,5.21,0,0,0,.72,3.15,2.52,2.52,0,0,0,2.11.91,4.19,4.19,0,0,0,2.79-1,4.36,4.36,0,0,0,1.17-3.46v-6.49h.94V235h-.94V232.8a3.92,3.92,0,0,1-1.32,1.6,4.59,4.59,0,0,1-2.68.83,3.43,3.43,0,0,1-2.72-1.16A5.49,5.49,0,0,1,116.43,230.4Z" transform="translate(0 0)"/><path class="cls-2" d="M138.23,226a4.15,4.15,0,0,1,1.68-2.09,4.75,4.75,0,0,1,2.59-.69,3,3,0,0,1,2.4,1.06,5.92,5.92,0,0,1,.91,3.77V235h-.93v-6.88a5.51,5.51,0,0,0-.66-3.21,2.09,2.09,0,0,0-1.74-.85,4.3,4.3,0,0,0-2.79,1,4.18,4.18,0,0,0-1.33,3.46V235h-.94v-6.88a5.62,5.62,0,0,0-.64-3.17A2,2,0,0,0,135,224a4.29,4.29,0,0,0-2.79,1,4.16,4.16,0,0,0-1.32,3.45V235H130V223.47h.94v2.15a3.9,3.9,0,0,1,1.56-1.78,5,5,0,0,1,2.61-.65,3.27,3.27,0,0,1,1.94.68A4.07,4.07,0,0,1,138.23,226Z" transform="translate(0 0)"/><path class="cls-2" d="M151.47,226.1a4.91,4.91,0,0,1,1.41-2.06,3.79,3.79,0,0,1,2.18-.85,4.23,4.23,0,0,1,3.4,1.67,7.73,7.73,0,0,1,0,8.73,4.22,4.22,0,0,1-3.4,1.66,3.73,3.73,0,0,1-2.18-.85,4.86,4.86,0,0,1-1.41-2.05V235h-.92V219h.92Zm7.34,3.12a5.58,5.58,0,0,0-1.18-4,3.17,3.17,0,0,0-5,0,7.37,7.37,0,0,0,0,8,3.17,3.17,0,0,0,5,0A5.56,5.56,0,0,0,158.81,229.22Z" transform="translate(0 0)"/><path class="cls-2" d="M172.92,228.74v.6H164.2q0,2.76,1.08,3.87a4.69,4.69,0,0,0,3.53,1.23,7.06,7.06,0,0,0,1.63-.26,9.62,9.62,0,0,0,2-.8v1a10.93,10.93,0,0,1-2.08.66,8.56,8.56,0,0,1-1.69.22,5.25,5.25,0,0,1-4-1.43,6.27,6.27,0,0,1-1.45-4.48,6.75,6.75,0,0,1,1.33-4.58,4.77,4.77,0,0,1,3.79-1.57,4.05,4.05,0,0,1,3.41,1.49A6.71,6.71,0,0,1,172.92,228.74Zm-1-.2a4.91,4.91,0,0,0-1.08-3.53,3.22,3.22,0,0,0-2.49-1,4.19,4.19,0,0,0-2.87,1,5.18,5.18,0,0,0-1.28,3.49Z" transform="translate(0 0)"/><path class="cls-2" d="M183.22,224.28a2.6,2.6,0,0,0-.61-.19,4.35,4.35,0,0,0-.88-.07,3.73,3.73,0,0,0-2.9,1.3,5.52,5.52,0,0,0-.9,3.59V235H177V223.47h.92v2.15a4.49,4.49,0,0,1,1.29-1.55,4.32,4.32,0,0,1,2.71-.88c.27,0,.5,0,.7,0a2.33,2.33,0,0,1,.59.08Z" transform="translate(0 0)"/><path class="cls-2" d="M196.56,223.19a4.14,4.14,0,0,1,3.46,1.64,8.2,8.2,0,0,1,0,8.83,4.12,4.12,0,0,1-3.46,1.64,4.21,4.21,0,0,1-3.5-1.63,7,7,0,0,1-1.27-4.46,7,7,0,0,1,1.28-4.39A4.23,4.23,0,0,1,196.56,223.19Zm0,.83a3.24,3.24,0,0,0-2.77,1.41,6.27,6.27,0,0,0-1,3.77,6.39,6.39,0,0,0,1,3.84,3.45,3.45,0,0,0,5.55,0,6.45,6.45,0,0,0,1-3.84,6.3,6.3,0,0,0-1-3.76A3.25,3.25,0,0,0,196.57,224Z" transform="translate(0 0)"/><path class="cls-2" d="M210.4,219v.8h-1.33a2.2,2.2,0,0,0-1.6.54,2.89,2.89,0,0,0-.68,2.12v1h3.1v.8h-3.1V235h-.95V224.27H204v-.8h1.81v-.8a3.82,3.82,0,0,1,.87-2.79,3.18,3.18,0,0,1,2.38-.88Z" transform="translate(0 0)"/><path class="cls-2" d="M220.68,232.35v7h-.92V223.47h.92v2.63a4.91,4.91,0,0,1,1.41-2.06,3.79,3.79,0,0,1,2.18-.85,4.19,4.19,0,0,1,3.39,1.67,7.68,7.68,0,0,1,0,8.73,4.18,4.18,0,0,1-3.39,1.66,3.73,3.73,0,0,1-2.18-.85A4.86,4.86,0,0,1,220.68,232.35Zm7.34-3.13a5.53,5.53,0,0,0-1.19-4,3.16,3.16,0,0,0-5,0,7.37,7.37,0,0,0,0,8,3.16,3.16,0,0,0,5,0A5.51,5.51,0,0,0,228,229.22Z" transform="translate(0 0)"/><path class="cls-2" d="M241.29,228.4V235h-.94v-3.12a4.71,4.71,0,0,1-2.09,2.91,4.76,4.76,0,0,1-2.06.5,3.82,3.82,0,0,1-2.7-.91,3.57,3.57,0,0,1-1-2.71,3.5,3.5,0,0,1,1.28-2.85,6.48,6.48,0,0,1,4.19-1.07h2.34v-.19a3.25,3.25,0,0,0-3.72-3.5,6,6,0,0,0-2,.37,8,8,0,0,0-1.7,1v-1a7.35,7.35,0,0,1,1.7-.8,8,8,0,0,1,2.2-.34,4.71,4.71,0,0,1,3.35,1.23C240.91,225.13,241.29,226.46,241.29,228.4Zm-3.52.07a5.24,5.24,0,0,0-3.28.82,2.85,2.85,0,0,0-1,2.36,2.57,2.57,0,0,0,.83,2.16,3.18,3.18,0,0,0,2,.63,3.24,3.24,0,0,0,3.1-1.82,7.53,7.53,0,0,0,1-3.44v-.71Z" transform="translate(0 0)"/><path class="cls-2" d="M247.09,232.35v7h-.92V223.47h.92v2.63A4.91,4.91,0,0,1,248.5,224a3.79,3.79,0,0,1,2.18-.85,4.19,4.19,0,0,1,3.39,1.67,7.68,7.68,0,0,1,0,8.73,4.18,4.18,0,0,1-3.39,1.66,3.73,3.73,0,0,1-2.18-.85A4.86,4.86,0,0,1,247.09,232.35Zm7.34-3.13a5.53,5.53,0,0,0-1.19-4,3.16,3.16,0,0,0-5,0,7.37,7.37,0,0,0,0,8,3.16,3.16,0,0,0,5,0A5.51,5.51,0,0,0,254.43,229.22Z" transform="translate(0 0)"/><path class="cls-2" d="M268.53,228.74v.6h-8.71q0,2.76,1.08,3.87a4.69,4.69,0,0,0,3.53,1.23,7.06,7.06,0,0,0,1.63-.26,9.62,9.62,0,0,0,2-.8v1A10.93,10.93,0,0,1,266,235a8.56,8.56,0,0,1-1.69.22,5.25,5.25,0,0,1-4-1.43,6.27,6.27,0,0,1-1.45-4.48,6.75,6.75,0,0,1,1.33-4.58,4.77,4.77,0,0,1,3.79-1.57,4.05,4.05,0,0,1,3.41,1.49A6.71,6.71,0,0,1,268.53,228.74Zm-.95-.2a4.86,4.86,0,0,0-1.09-3.53,3.19,3.19,0,0,0-2.48-1,4.19,4.19,0,0,0-2.87,1,5.18,5.18,0,0,0-1.28,3.49Z" transform="translate(0 0)"/><path class="cls-2" d="M278.84,224.28a2.6,2.6,0,0,0-.61-.19,4.45,4.45,0,0,0-.89-.07,3.72,3.72,0,0,0-2.89,1.3,5.52,5.52,0,0,0-.9,3.59V235h-.92V223.47h.92v2.15a4.49,4.49,0,0,1,1.29-1.55,4.32,4.32,0,0,1,2.71-.88c.27,0,.5,0,.7,0a2.33,2.33,0,0,1,.59.08Z" transform="translate(0 0)"/><path class="cls-2" d="M287.85,223.81v1a9.19,9.19,0,0,0-1.24-.61,8.54,8.54,0,0,0-1.79-.21,4.38,4.38,0,0,0-2.54.65,2.15,2.15,0,0,0-.71,1.83,1.59,1.59,0,0,0,.67,1.36,5.23,5.23,0,0,0,2,.82l.65.14a6.2,6.2,0,0,1,2.47,1,2.47,2.47,0,0,1,1,1.95,3.38,3.38,0,0,1-1,2.55,4.91,4.91,0,0,1-3.3.91,8.42,8.42,0,0,1-1.93-.17c-.53-.15-1.08-.33-1.66-.54v-1.18a10.63,10.63,0,0,0,1.62.82,8.15,8.15,0,0,0,2,.26,3.73,3.73,0,0,0,2.45-.68,2.34,2.34,0,0,0,.8-1.83,1.63,1.63,0,0,0-.54-1.37,6.25,6.25,0,0,0-2.45-1l-.65-.15a5.56,5.56,0,0,1-2.21-1,2.32,2.32,0,0,1-.95-1.86,2.93,2.93,0,0,1,1.15-2.6,4.88,4.88,0,0,1,2.82-.79,8.5,8.5,0,0,1,2,.16A10.31,10.31,0,0,1,287.85,223.81Z" transform="translate(0 0)"/><path class="cls-2" d="M12.61,240h.94v1.29h-.94Zm0,4.47h.94V256h-.94Z" transform="translate(0 0)"/><path class="cls-2" d="M27.24,249V256H26.3v-6.88a5.18,5.18,0,0,0-.72-3.14,2.52,2.52,0,0,0-2.11-.92,4.14,4.14,0,0,0-2.79,1,4.32,4.32,0,0,0-1.17,3.45V256h-.94V244.47h.94v2.15a4.07,4.07,0,0,1,1.32-1.6,4.67,4.67,0,0,1,2.68-.83,3.46,3.46,0,0,1,2.72,1.16A5.51,5.51,0,0,1,27.24,249Z" transform="translate(0 0)"/><path class="cls-2" d="M42.64,257a5.21,5.21,0,0,1-1.33,2.11,2.91,2.91,0,0,1-1.86.79H38v-.8h1.2a2,2,0,0,0,1.32-.48,4.7,4.7,0,0,0,1.2-1.83l.33-.85-4.58-11.49h1L42.6,254.7l4.09-10.23h1Z" transform="translate(0 0)"/><path class="cls-2" d="M55.34,244.19a4.16,4.16,0,0,1,3.47,1.64,8.25,8.25,0,0,1,0,8.83,4.13,4.13,0,0,1-3.47,1.64,4.19,4.19,0,0,1-3.49-1.63,7,7,0,0,1-1.27-4.46,6.89,6.89,0,0,1,1.28-4.39A4.2,4.2,0,0,1,55.34,244.19Zm0,.83a3.22,3.22,0,0,0-2.76,1.41,6.2,6.2,0,0,0-1,3.77,6.46,6.46,0,0,0,1,3.84,3.45,3.45,0,0,0,5.55,0,6.38,6.38,0,0,0,1-3.84,6.23,6.23,0,0,0-1-3.76A3.23,3.23,0,0,0,55.35,245Z" transform="translate(0 0)"/><path class="cls-2" d="M64.12,251.4v-6.93h.95v6.87a5.3,5.3,0,0,0,.71,3.15,2.54,2.54,0,0,0,2.12.91,4.22,4.22,0,0,0,2.79-1A4.36,4.36,0,0,0,71.85,251v-6.49h1V256h-1V253.8a3.84,3.84,0,0,1-1.32,1.6,4.56,4.56,0,0,1-2.67.83,3.4,3.4,0,0,1-2.72-1.16A5.44,5.44,0,0,1,64.12,251.4Z" transform="translate(0 0)"/><path class="cls-2" d="M83.9,245.28a2.87,2.87,0,0,0-.62-.19,4.35,4.35,0,0,0-.88-.07,3.71,3.71,0,0,0-2.89,1.3,5.46,5.46,0,0,0-.91,3.59V256h-.92V244.47h.92v2.15a4.41,4.41,0,0,1,1.3-1.55,4.27,4.27,0,0,1,2.7-.88c.27,0,.5,0,.7,0a2.41,2.41,0,0,1,.6.08Z" transform="translate(0 0)"/><path class="cls-2" d="M94.12,253.35v7H93.2V244.47h.92v2.63A4.91,4.91,0,0,1,95.53,245a3.79,3.79,0,0,1,2.18-.85,4.23,4.23,0,0,1,3.4,1.67,7.73,7.73,0,0,1,0,8.73,4.22,4.22,0,0,1-3.4,1.66,3.73,3.73,0,0,1-2.18-.85A4.86,4.86,0,0,1,94.12,253.35Zm7.35-3.13a5.58,5.58,0,0,0-1.19-4,3.17,3.17,0,0,0-5,0,7.37,7.37,0,0,0,0,8,3.17,3.17,0,0,0,5,0A5.56,5.56,0,0,0,101.47,250.22Z" transform="translate(0 0)"/><path class="cls-2" d="M110.67,244.19a4.15,4.15,0,0,1,3.46,1.64,8.25,8.25,0,0,1,0,8.83,4.13,4.13,0,0,1-3.46,1.64,4.2,4.2,0,0,1-3.5-1.63,7,7,0,0,1-1.27-4.46,6.89,6.89,0,0,1,1.28-4.39A4.22,4.22,0,0,1,110.67,244.19Zm0,.83a3.22,3.22,0,0,0-2.77,1.41,6.2,6.2,0,0,0-1,3.77,6.39,6.39,0,0,0,1,3.84,3.44,3.44,0,0,0,5.54,0,6.38,6.38,0,0,0,1-3.84,6.23,6.23,0,0,0-1-3.76A3.22,3.22,0,0,0,110.68,245Z" transform="translate(0 0)"/><path class="cls-2" d="M125.8,245.28a2.6,2.6,0,0,0-.61-.19,4.41,4.41,0,0,0-.88-.07,3.73,3.73,0,0,0-2.9,1.3,5.52,5.52,0,0,0-.9,3.59V256h-.92V244.47h.92v2.15a4.49,4.49,0,0,1,1.29-1.55,4.32,4.32,0,0,1,2.71-.88c.27,0,.5,0,.7,0a2.33,2.33,0,0,1,.59.08Z" transform="translate(0 0)"/><path class="cls-2" d="M129.3,241.21v3.26h3.89v.8H129.3v6.9a3.55,3.55,0,0,0,.34,1.84,2.24,2.24,0,0,0,2,1.15h1.52v.8h-1.47a3.6,3.6,0,0,1-2.39-.83,3.7,3.7,0,0,1-1-3v-6.9H127v-.8h1.38v-3.26Z" transform="translate(0 0)"/><path class="cls-2" d="M141.59,240v.8h-1.34a2.21,2.21,0,0,0-1.6.54,2.88,2.88,0,0,0-.67,2.12v1h3.09v.8H138V256h-1V245.27h-1.8v-.8H137v-.8a3.78,3.78,0,0,1,.88-2.79,3.14,3.14,0,0,1,2.37-.88Z" transform="translate(0 0)"/><path class="cls-2" d="M148.19,244.19a4.16,4.16,0,0,1,3.47,1.64,8.25,8.25,0,0,1,0,8.83,4.13,4.13,0,0,1-3.47,1.64,4.19,4.19,0,0,1-3.49-1.63,7,7,0,0,1-1.27-4.46,6.89,6.89,0,0,1,1.28-4.39A4.2,4.2,0,0,1,148.19,244.19Zm0,.83a3.21,3.21,0,0,0-2.76,1.41,6.2,6.2,0,0,0-1,3.77,6.46,6.46,0,0,0,1,3.84,3.45,3.45,0,0,0,5.55,0,6.38,6.38,0,0,0,1-3.84,6.23,6.23,0,0,0-1-3.76A3.23,3.23,0,0,0,148.2,245Z" transform="translate(0 0)"/><path class="cls-2" d="M157.1,240H158v16h-.94Z" transform="translate(0 0)"/><path class="cls-2" d="M163,240h1v1.29h-1Zm0,4.47h1V256h-1Z" transform="translate(0 0)"/><path class="cls-2" d="M173,244.19a4.16,4.16,0,0,1,3.47,1.64,8.25,8.25,0,0,1,0,8.83A4.13,4.13,0,0,1,173,256.3a4.19,4.19,0,0,1-3.49-1.63,7,7,0,0,1-1.27-4.46,6.89,6.89,0,0,1,1.28-4.39A4.2,4.2,0,0,1,173,244.19Zm0,.83a3.22,3.22,0,0,0-2.76,1.41,6.2,6.2,0,0,0-1,3.77,6.46,6.46,0,0,0,1,3.84,3.45,3.45,0,0,0,5.55,0,6.38,6.38,0,0,0,1-3.84,6.23,6.23,0,0,0-1-3.76A3.23,3.23,0,0,0,173,245Z" transform="translate(0 0)"/><path class="cls-2" d="M196.82,249.4V256h-.94v-3.12a4.12,4.12,0,0,1-4.15,3.41,3.78,3.78,0,0,1-2.69-.91,4,4,0,0,1,.29-5.56,6.52,6.52,0,0,1,4.2-1.07h2.33v-.19A3.65,3.65,0,0,0,195,246a3.59,3.59,0,0,0-2.85-1,6.12,6.12,0,0,0-2,.37,8.27,8.27,0,0,0-1.7,1v-1a7.75,7.75,0,0,1,1.7-.8,8,8,0,0,1,2.21-.34,4.7,4.7,0,0,1,3.34,1.23C196.44,246.13,196.82,247.46,196.82,249.4Zm-3.52.07a5.24,5.24,0,0,0-3.28.82,2.85,2.85,0,0,0-1,2.36,2.54,2.54,0,0,0,.84,2.16,3.13,3.13,0,0,0,2,.63,3.24,3.24,0,0,0,3.1-1.82,7.4,7.4,0,0,0,1-3.44v-.71Z" transform="translate(0 0)"/><path class="cls-2" d="M202.68,241.21v3.26h3.88v.8h-3.88v6.9A3.68,3.68,0,0,0,203,254a2.26,2.26,0,0,0,2,1.15h1.52v.8H205.1a3.58,3.58,0,0,1-2.39-.83,3.67,3.67,0,0,1-1-3v-6.9h-1.37v-.8h1.37v-3.26Z" transform="translate(0 0)"/><path class="cls-2" d="M217.8,241.21v3.26h3.88v.8H217.8v6.9a3.68,3.68,0,0,0,.33,1.84,2.27,2.27,0,0,0,2,1.15h1.51v.8h-1.46a3.58,3.58,0,0,1-2.39-.83,3.67,3.67,0,0,1-1-3v-6.9h-1.37v-.8h1.37v-3.26Z" transform="translate(0 0)"/><path class="cls-2" d="M233.82,249V256h-.95v-6.88a5,5,0,0,0-.75-3.13,2.73,2.73,0,0,0-2.26-.93,3.74,3.74,0,0,0-2.76,1,4.71,4.71,0,0,0-1,3.41V256h-.94V240h.94v6.59a3.77,3.77,0,0,1,1.17-1.57,4.36,4.36,0,0,1,2.83-.83,3.37,3.37,0,0,1,2.72,1.22A5.55,5.55,0,0,1,233.82,249Z" transform="translate(0 0)"/><path class="cls-2" d="M247.51,249.74v.6h-8.72q0,2.76,1.08,3.87a4.7,4.7,0,0,0,3.54,1.23,7.14,7.14,0,0,0,1.63-.26,9.83,9.83,0,0,0,2-.8v1A11.16,11.16,0,0,1,245,256a8.73,8.73,0,0,1-1.7.22,5.25,5.25,0,0,1-4-1.43,6.27,6.27,0,0,1-1.45-4.48,6.75,6.75,0,0,1,1.33-4.58,4.77,4.77,0,0,1,3.79-1.57,4.05,4.05,0,0,1,3.41,1.49A6.71,6.71,0,0,1,247.51,249.74Zm-1-.2a4.91,4.91,0,0,0-1.08-3.53,3.22,3.22,0,0,0-2.48-1,4.22,4.22,0,0,0-2.88,1,5.23,5.23,0,0,0-1.28,3.49Z" transform="translate(0 0)"/><path class="cls-2" d="M267.31,249.74v.6H258.6c0,1.84.36,3.13,1.07,3.87a4.71,4.71,0,0,0,3.54,1.23,7.14,7.14,0,0,0,1.63-.26,9.83,9.83,0,0,0,2-.8v1a11.16,11.16,0,0,1-2.08.66,8.65,8.65,0,0,1-1.69.22,5.24,5.24,0,0,1-4-1.43,6.28,6.28,0,0,1-1.46-4.48,6.75,6.75,0,0,1,1.34-4.58,4.76,4.76,0,0,1,3.79-1.57,4,4,0,0,1,3.4,1.49A6.71,6.71,0,0,1,267.31,249.74Zm-.95-.2a4.86,4.86,0,0,0-1.09-3.53,3.2,3.2,0,0,0-2.48-1,4.19,4.19,0,0,0-2.87,1,5.18,5.18,0,0,0-1.28,3.49Z" transform="translate(0 0)"/><path class="cls-2" d="M280.06,249V256h-.94v-6.88a5.18,5.18,0,0,0-.72-3.14,2.52,2.52,0,0,0-2.11-.92,4.14,4.14,0,0,0-2.79,1,4.32,4.32,0,0,0-1.17,3.45V256h-.94V244.47h.94v2.15a3.91,3.91,0,0,1,1.32-1.6,4.67,4.67,0,0,1,2.68-.83,3.46,3.46,0,0,1,2.72,1.16A5.51,5.51,0,0,1,280.06,249Z" transform="translate(0 0)"/><path class="cls-2" d="M292.43,247.1V240h.92v16h-.92v-2.61A4.86,4.86,0,0,1,291,255.4a3.73,3.73,0,0,1-2.18.85,4.18,4.18,0,0,1-3.39-1.66,7.68,7.68,0,0,1,0-8.73,4.19,4.19,0,0,1,3.39-1.67A3.79,3.79,0,0,1,291,245,4.91,4.91,0,0,1,292.43,247.1Zm-7.34,3.12a5.51,5.51,0,0,0,1.19,4,3.16,3.16,0,0,0,5,0,7.37,7.37,0,0,0,0-8,3.16,3.16,0,0,0-5,0A5.53,5.53,0,0,0,285.09,250.22Z" transform="translate(0 0)"/><path class="cls-2" d="M35.78,265.19a4.15,4.15,0,0,1,3.46,1.64,8.25,8.25,0,0,1,0,8.83,4.13,4.13,0,0,1-3.46,1.64,4.2,4.2,0,0,1-3.5-1.63A7,7,0,0,1,31,271.21a6.89,6.89,0,0,1,1.28-4.39A4.22,4.22,0,0,1,35.78,265.19Zm0,.83A3.22,3.22,0,0,0,33,267.43a6.2,6.2,0,0,0-1,3.77A6.39,6.39,0,0,0,33,275a3.44,3.44,0,0,0,5.54,0,6.38,6.38,0,0,0,1-3.84,6.23,6.23,0,0,0-1-3.76A3.23,3.23,0,0,0,35.79,266Z" transform="translate(0 0)"/><path class="cls-2" d="M49.62,261v.8H48.29a2.2,2.2,0,0,0-1.6.54,2.89,2.89,0,0,0-.68,2.12v1h3.1v.8H46V277h-.95V266.27H43.25v-.8h1.81v-.8a3.82,3.82,0,0,1,.87-2.79,3.16,3.16,0,0,1,2.38-.88Z" transform="translate(0 0)"/><path class="cls-2" d="M60,262.21v3.26h3.89v.8H60v6.9a3.55,3.55,0,0,0,.34,1.84,2.24,2.24,0,0,0,2,1.15h1.52v.8H62.37a3.6,3.6,0,0,1-2.39-.83,3.7,3.7,0,0,1-1-3v-6.9H57.62v-.8H59v-3.26Z" transform="translate(0 0)"/><path class="cls-2" d="M76,270V277H75v-6.88a5,5,0,0,0-.75-3.13A2.75,2.75,0,0,0,72,266a3.74,3.74,0,0,0-2.76,1,4.76,4.76,0,0,0-1,3.41V277H67.3V261h.94v6.59A3.77,3.77,0,0,1,69.41,266a4.34,4.34,0,0,1,2.83-.83A3.38,3.38,0,0,1,75,266.41,5.61,5.61,0,0,1,76,270Z" transform="translate(0 0)"/><path class="cls-2" d="M89.66,270.74v.6H81c0,1.84.36,3.13,1.07,3.87a4.71,4.71,0,0,0,3.54,1.23,7.14,7.14,0,0,0,1.63-.26,9.83,9.83,0,0,0,2-.8v1a11.16,11.16,0,0,1-2.08.66,8.65,8.65,0,0,1-1.69.22,5.24,5.24,0,0,1-4-1.43A6.28,6.28,0,0,1,80,271.34a6.75,6.75,0,0,1,1.34-4.58,4.76,4.76,0,0,1,3.79-1.57,4,4,0,0,1,3.4,1.49A6.71,6.71,0,0,1,89.66,270.74Zm-1-.2A4.86,4.86,0,0,0,87.62,267a3.2,3.2,0,0,0-2.48-1,4.19,4.19,0,0,0-2.87,1A5.18,5.18,0,0,0,81,270.54Z" transform="translate(0 0)"/><path class="cls-2" d="M109.09,275.53q0,3.59-1.37,4.69a5.34,5.34,0,0,1-3.45,1.1,11.22,11.22,0,0,1-1.88-.14,9.79,9.79,0,0,1-1.71-.46v-1.08a7.76,7.76,0,0,0,1.64.67,6.55,6.55,0,0,0,1.65.21,5.63,5.63,0,0,0,2.94-.73c.82-.48,1.23-1.79,1.23-3.92v-1.8a4.51,4.51,0,0,1-1.15,1.86,3.67,3.67,0,0,1-2.54,1,4.09,4.09,0,0,1-3.4-1.55,8.31,8.31,0,0,1,0-8.67,4.09,4.09,0,0,1,3.4-1.55,3.51,3.51,0,0,1,2.4.89,5.18,5.18,0,0,1,1.29,1.83v-2.44h1Zm-1-4.45a6.23,6.23,0,0,0-1-3.71,3.45,3.45,0,0,0-5.43,0,7.56,7.56,0,0,0,0,7.41,3.47,3.47,0,0,0,5.43,0A6.19,6.19,0,0,0,108.14,271.08Z" transform="translate(0 0)"/><path class="cls-2" d="M121.33,270.4V277h-.93v-3.12a4.12,4.12,0,0,1-4.15,3.41,3.8,3.8,0,0,1-2.7-.91,4,4,0,0,1,.3-5.56,6.48,6.48,0,0,1,4.19-1.07h2.34v-.19a3.25,3.25,0,0,0-3.72-3.5,6,6,0,0,0-2,.37,8.3,8.3,0,0,0-1.71,1v-1a7.6,7.6,0,0,1,1.71-.8,8,8,0,0,1,2.2-.34,4.68,4.68,0,0,1,3.34,1.23C121,267.13,121.33,268.46,121.33,270.4Zm-3.52.07a5.26,5.26,0,0,0-3.28.82,2.84,2.84,0,0,0-1,2.36,2.57,2.57,0,0,0,.83,2.16,3.16,3.16,0,0,0,2,.63,3.22,3.22,0,0,0,3.09-1.82,7.42,7.42,0,0,0,1-3.44v-.71Z" transform="translate(0 0)"/><path class="cls-2" d="M134.46,268a4.15,4.15,0,0,1,1.68-2.09,4.75,4.75,0,0,1,2.59-.69,3,3,0,0,1,2.4,1.06A5.92,5.92,0,0,1,142,270V277h-.94v-6.88a5.53,5.53,0,0,0-.65-3.21,2.09,2.09,0,0,0-1.74-.85,4.3,4.3,0,0,0-2.79,1,4.15,4.15,0,0,0-1.33,3.46V277h-.94v-6.88a5.62,5.62,0,0,0-.64-3.17,2,2,0,0,0-1.76-.89,4.29,4.29,0,0,0-2.79,1,4.16,4.16,0,0,0-1.32,3.45V277h-.94V265.47h.94v2.15a3.9,3.9,0,0,1,1.56-1.78,5,5,0,0,1,2.61-.65,3.27,3.27,0,0,1,1.94.68A4.07,4.07,0,0,1,134.46,268Z" transform="translate(0 0)"/><path class="cls-2" d="M155.71,270.74v.6H147q0,2.76,1.08,3.87a4.7,4.7,0,0,0,3.54,1.23,7.14,7.14,0,0,0,1.63-.26,9.83,9.83,0,0,0,2-.8v1a11.16,11.16,0,0,1-2.08.66,8.64,8.64,0,0,1-1.7.22,5.21,5.21,0,0,1-4-1.43,6.23,6.23,0,0,1-1.46-4.48,6.75,6.75,0,0,1,1.33-4.58,4.79,4.79,0,0,1,3.8-1.57,4,4,0,0,1,3.4,1.49A6.71,6.71,0,0,1,155.71,270.74Zm-1-.2a4.91,4.91,0,0,0-1.09-3.53,3.22,3.22,0,0,0-2.48-1,4.19,4.19,0,0,0-2.87,1,5.18,5.18,0,0,0-1.29,3.49Z" transform="translate(0 0)"/><path class="cls-2" d="M160.21,275.66h1V277h-1Z" transform="translate(0 0)"/><path class="cls-2" d="M177.44,261.65h1.34L184.63,277h-1.16l-1.83-4.81h-7.15L172.68,277h-1.09Zm.65,1-3.28,8.61h6.51Z" transform="translate(0 0)"/><path class="cls-2" d="M195.59,262.21v3.26h3.89v.8h-3.89v6.9a3.55,3.55,0,0,0,.34,1.84,2.24,2.24,0,0,0,2,1.15h1.52v.8H198a3.6,3.6,0,0,1-2.39-.83,3.67,3.67,0,0,1-1-3v-6.9h-1.38v-.8h1.38v-3.26Z" transform="translate(0 0)"/><path class="cls-2" d="M202.91,261h1v1.29h-1Zm0,4.47h1V277h-1Z" transform="translate(0 0)"/><path class="cls-2" d="M217.83,270.74v.6h-8.72q0,2.76,1.08,3.87a4.69,4.69,0,0,0,3.53,1.23,7.06,7.06,0,0,0,1.63-.26,9.62,9.62,0,0,0,2-.8v1a10.93,10.93,0,0,1-2.08.66,8.56,8.56,0,0,1-1.69.22,5.25,5.25,0,0,1-4-1.43,6.27,6.27,0,0,1-1.45-4.48,6.75,6.75,0,0,1,1.33-4.58,4.77,4.77,0,0,1,3.79-1.57,4.05,4.05,0,0,1,3.41,1.49A6.71,6.71,0,0,1,217.83,270.74Zm-1-.2a4.91,4.91,0,0,0-1.08-3.53,3.22,3.22,0,0,0-2.49-1,4.21,4.21,0,0,0-2.87,1,5.18,5.18,0,0,0-1.28,3.49Z" transform="translate(0 0)"/><path class="cls-2" d="M236.31,268.1V261h.92v16h-.92v-2.61a4.86,4.86,0,0,1-1.41,2,3.73,3.73,0,0,1-2.18.85,4.18,4.18,0,0,1-3.39-1.66,7.68,7.68,0,0,1,0-8.73,4.19,4.19,0,0,1,3.39-1.67,3.79,3.79,0,0,1,2.18.85A4.91,4.91,0,0,1,236.31,268.1ZM229,271.22a5.51,5.51,0,0,0,1.19,4,3.16,3.16,0,0,0,5,0,7.37,7.37,0,0,0,0-8,3.16,3.16,0,0,0-5,0A5.53,5.53,0,0,0,229,271.22Z" transform="translate(0 0)"/><path class="cls-2" d="M246.17,265.19a4.15,4.15,0,0,1,3.46,1.64,8.25,8.25,0,0,1,0,8.83,4.13,4.13,0,0,1-3.46,1.64,4.2,4.2,0,0,1-3.5-1.63,7,7,0,0,1-1.27-4.46,6.89,6.89,0,0,1,1.28-4.39A4.2,4.2,0,0,1,246.17,265.19Zm0,.83a3.22,3.22,0,0,0-2.76,1.41,6.2,6.2,0,0,0-1,3.77,6.39,6.39,0,0,0,1,3.84,3.44,3.44,0,0,0,5.54,0,6.38,6.38,0,0,0,1-3.84,6.23,6.23,0,0,0-1-3.76A3.23,3.23,0,0,0,246.17,266Z" transform="translate(0 0)"/><path class="cls-2" d="M264,270.74v.6H255.3q0,2.76,1.08,3.87a4.7,4.7,0,0,0,3.54,1.23,7.14,7.14,0,0,0,1.63-.26,9.83,9.83,0,0,0,2-.8v1a11.16,11.16,0,0,1-2.08.66,8.64,8.64,0,0,1-1.7.22,5.21,5.21,0,0,1-4-1.43,6.23,6.23,0,0,1-1.46-4.48,6.75,6.75,0,0,1,1.33-4.58,4.79,4.79,0,0,1,3.8-1.57,4,4,0,0,1,3.4,1.49A6.71,6.71,0,0,1,264,270.74Zm-.95-.2A4.91,4.91,0,0,0,262,267a3.22,3.22,0,0,0-2.48-1,4.19,4.19,0,0,0-2.87,1,5.23,5.23,0,0,0-1.29,3.49Z" transform="translate(0 0)"/><path class="cls-2" d="M274.59,265.81v1a8.11,8.11,0,0,0-1.24-.61,8.44,8.44,0,0,0-1.78-.21,4.36,4.36,0,0,0-2.54.65,2.13,2.13,0,0,0-.71,1.83,1.6,1.6,0,0,0,.66,1.36,5.37,5.37,0,0,0,2,.82l.65.14a6.14,6.14,0,0,1,2.47,1,2.51,2.51,0,0,1,1,2,3.35,3.35,0,0,1-1,2.55,4.88,4.88,0,0,1-3.3.91,8.42,8.42,0,0,1-1.93-.17c-.52-.15-1.08-.33-1.66-.54v-1.18a11.69,11.69,0,0,0,1.62.82,8.28,8.28,0,0,0,2,.26,3.69,3.69,0,0,0,2.45-.68,2.3,2.3,0,0,0,.8-1.83,1.66,1.66,0,0,0-.53-1.37,6.25,6.25,0,0,0-2.45-1l-.66-.15a5.51,5.51,0,0,1-2.2-1,2.3,2.3,0,0,1-1-1.86,3,3,0,0,1,1.15-2.6,4.93,4.93,0,0,1,2.82-.79,8.43,8.43,0,0,1,2,.16A9.27,9.27,0,0,1,274.59,265.81Z" transform="translate(0 0)"/><path class="cls-2" d="M63.1,291V298h-.94v-6.88a5.18,5.18,0,0,0-.72-3.14,2.52,2.52,0,0,0-2.11-.92,4.14,4.14,0,0,0-2.79,1,4.32,4.32,0,0,0-1.17,3.45V298h-.94V286.47h.94v2.15a4.07,4.07,0,0,1,1.32-1.6,4.67,4.67,0,0,1,2.68-.83,3.46,3.46,0,0,1,2.72,1.16A5.51,5.51,0,0,1,63.1,291Z" transform="translate(0 0)"/><path class="cls-2" d="M71.89,286.19a4.17,4.17,0,0,1,3.47,1.64,8.25,8.25,0,0,1,0,8.83,4.15,4.15,0,0,1-3.47,1.64,4.19,4.19,0,0,1-3.49-1.63,7,7,0,0,1-1.28-4.46,6.89,6.89,0,0,1,1.29-4.39A4.2,4.2,0,0,1,71.89,286.19Zm0,.83a3.24,3.24,0,0,0-2.77,1.41,6.27,6.27,0,0,0-1,3.77,6.46,6.46,0,0,0,1,3.84,3.45,3.45,0,0,0,5.55,0,6.45,6.45,0,0,0,1-3.84,6.3,6.3,0,0,0-1-3.76A3.25,3.25,0,0,0,71.9,287Z" transform="translate(0 0)"/><path class="cls-2" d="M81.79,283.21v3.26h3.89v.8H81.79v6.9a3.55,3.55,0,0,0,.34,1.84,2.24,2.24,0,0,0,2,1.15h1.52v.8H84.21a3.6,3.6,0,0,1-2.39-.83,3.67,3.67,0,0,1-1-3v-6.9H79.46v-.8h1.38v-3.26Z" transform="translate(0 0)"/><path class="cls-2" d="M103.78,287v1a7.68,7.68,0,0,0-1.41-.71,6,6,0,0,0-1.82-.3A4.44,4.44,0,0,0,97,288.3a5.94,5.94,0,0,0-1.08,3.92A6,6,0,0,0,97,296.17a4.43,4.43,0,0,0,3.56,1.27,5.92,5.92,0,0,0,1.62-.22,7.59,7.59,0,0,0,1.61-.66v.95a7.49,7.49,0,0,1-1.63.56,8.14,8.14,0,0,1-1.68.18,5.7,5.7,0,0,1-4-1.36c-1-.92-1.49-2.47-1.49-4.67s.5-3.75,1.49-4.66a5.7,5.7,0,0,1,4-1.37,6.92,6.92,0,0,1,1.74.24A6.21,6.21,0,0,1,103.78,287Z" transform="translate(0 0)"/><path class="cls-2" d="M111.62,286.19a4.15,4.15,0,0,1,3.46,1.64,8.25,8.25,0,0,1,0,8.83,4.13,4.13,0,0,1-3.46,1.64,4.2,4.2,0,0,1-3.5-1.63,7,7,0,0,1-1.27-4.46,6.89,6.89,0,0,1,1.28-4.39A4.22,4.22,0,0,1,111.62,286.19Zm0,.83a3.22,3.22,0,0,0-2.77,1.41,6.2,6.2,0,0,0-1,3.77,6.39,6.39,0,0,0,1,3.84,3.45,3.45,0,0,0,5.55,0,6.45,6.45,0,0,0,1-3.84,6.3,6.3,0,0,0-1-3.76A3.25,3.25,0,0,0,111.63,287Z" transform="translate(0 0)"/><path class="cls-2" d="M120.4,293.4v-6.93h.94v6.87a5.21,5.21,0,0,0,.72,3.15,2.52,2.52,0,0,0,2.11.91,4.19,4.19,0,0,0,2.79-1,4.36,4.36,0,0,0,1.17-3.46v-6.49h.94V298h-.94V295.8a3.94,3.94,0,0,1-1.33,1.6,4.54,4.54,0,0,1-2.67.83,3.41,3.41,0,0,1-2.72-1.16A5.44,5.44,0,0,1,120.4,293.4Z" transform="translate(0 0)"/><path class="cls-2" d="M142.61,291V298h-.94v-6.88a5.18,5.18,0,0,0-.72-3.14,2.52,2.52,0,0,0-2.11-.92,4.14,4.14,0,0,0-2.79,1,4.32,4.32,0,0,0-1.17,3.45V298h-.95V286.47h.95v2.15a3.91,3.91,0,0,1,1.32-1.6,4.67,4.67,0,0,1,2.68-.83,3.42,3.42,0,0,1,2.71,1.16A5.45,5.45,0,0,1,142.61,291Z" transform="translate(0 0)"/><path class="cls-2" d="M148.34,283.21v3.26h3.89v.8h-3.89v6.9a3.66,3.66,0,0,0,.34,1.84,2.25,2.25,0,0,0,2,1.15h1.52v.8h-1.47a3.62,3.62,0,0,1-2.39-.83,3.7,3.7,0,0,1-1-3v-6.9H146v-.8h1.37v-3.26Z" transform="translate(0 0)"/><path class="cls-2" d="M170.58,291.4V298h-.93v-3.12a4.14,4.14,0,0,1-4.16,3.41,3.78,3.78,0,0,1-2.69-.91,4,4,0,0,1,.29-5.56,6.54,6.54,0,0,1,4.2-1.07h2.34v-.19a3.66,3.66,0,0,0-.88-2.51,3.59,3.59,0,0,0-2.85-1,6.12,6.12,0,0,0-2,.37,8.54,8.54,0,0,0-1.7,1v-1a7.75,7.75,0,0,1,1.7-.8,8,8,0,0,1,2.21-.34,4.68,4.68,0,0,1,3.34,1.23C170.2,288.13,170.58,289.46,170.58,291.4Zm-3.52.07a5.24,5.24,0,0,0-3.28.82,2.84,2.84,0,0,0-1,2.36,2.54,2.54,0,0,0,.83,2.16,3.16,3.16,0,0,0,2,.63,3.23,3.23,0,0,0,3.09-1.82,7.42,7.42,0,0,0,1-3.44v-.71Z" transform="translate(0 0)"/><path class="cls-2" d="M181.94,286.81v1a8.11,8.11,0,0,0-1.24-.61,8.44,8.44,0,0,0-1.78-.21,4.36,4.36,0,0,0-2.54.65,2.13,2.13,0,0,0-.71,1.83,1.59,1.59,0,0,0,.67,1.36,5.23,5.23,0,0,0,2,.82l.64.14a6.14,6.14,0,0,1,2.47,1,2.51,2.51,0,0,1,1,2,3.35,3.35,0,0,1-1,2.55,4.88,4.88,0,0,1-3.3.91,8.42,8.42,0,0,1-1.93-.17c-.52-.15-1.08-.33-1.66-.54v-1.18a11.69,11.69,0,0,0,1.62.82,8.28,8.28,0,0,0,2,.26,3.69,3.69,0,0,0,2.45-.68,2.3,2.3,0,0,0,.8-1.83,1.63,1.63,0,0,0-.53-1.37,6.25,6.25,0,0,0-2.45-1l-.66-.15a5.51,5.51,0,0,1-2.2-1,2.29,2.29,0,0,1-1-1.86,3,3,0,0,1,1.14-2.6,4.93,4.93,0,0,1,2.82-.79,8.43,8.43,0,0,1,2,.16A9.27,9.27,0,0,1,181.94,286.81Z" transform="translate(0 0)"/><path class="cls-2" d="M201.38,291.4V298h-.93v-3.12a4.12,4.12,0,0,1-4.15,3.41,3.79,3.79,0,0,1-2.7-.91,4,4,0,0,1,.3-5.56,6.48,6.48,0,0,1,4.19-1.07h2.34v-.19a3.25,3.25,0,0,0-3.72-3.5,6,6,0,0,0-2,.37,8.3,8.3,0,0,0-1.71,1v-1a7.6,7.6,0,0,1,1.71-.8,8,8,0,0,1,2.2-.34,4.68,4.68,0,0,1,3.34,1.23C201,288.13,201.38,289.46,201.38,291.4Zm-3.52.07a5.26,5.26,0,0,0-3.28.82,2.84,2.84,0,0,0-1,2.36,2.54,2.54,0,0,0,.83,2.16,3.16,3.16,0,0,0,2,.63,3.23,3.23,0,0,0,3.09-1.82,7.42,7.42,0,0,0,1-3.44v-.71Z" transform="translate(0 0)"/><path class="cls-2" d="M212,286.47h1l2.7,10.23,2.68-10.23h1.2l2.69,10.29,2.69-10.29h1l-3,11.49h-1.31l-2.65-10.07L216.29,298H215Z" transform="translate(0 0)"/><path class="cls-2" d="M230.29,282h.94v1.29h-.94Zm0,4.47h.94V298h-.94Z" transform="translate(0 0)"/><path class="cls-2" d="M244.92,291V298H244v-6.88a5.18,5.18,0,0,0-.72-3.14,2.52,2.52,0,0,0-2.11-.92,4.14,4.14,0,0,0-2.79,1,4.32,4.32,0,0,0-1.17,3.45V298h-.94V286.47h.94v2.15a3.91,3.91,0,0,1,1.32-1.6,4.67,4.67,0,0,1,2.68-.83,3.46,3.46,0,0,1,2.72,1.16A5.51,5.51,0,0,1,244.92,291Z" transform="translate(0 0)"/><path class="cls-2" d="M250.09,296.66h1V298h-1Z" transform="translate(0 0)"/><path class="cls-2" d="M38.31,149.28v-6.07l-5.5-8.32h3.32l3.54,5.76h0l3.58-5.76h3.26l-5.44,8.25v6.14Z" transform="translate(0 0)"/><path class="cls-2" d="M51.53,149.57a5.73,5.73,0,1,1,0-11.45,5.73,5.73,0,1,1,0,11.45Zm3.19-5.73a3.2,3.2,0,1,0-3.19,3.28A3.08,3.08,0,0,0,54.72,143.84Z" transform="translate(0 0)"/><path class="cls-2" d="M67.33,138.41H70v5.65c0,3.63-2.16,5.51-5.37,5.51s-5.37-1.85-5.37-5.51v-5.65h2.62v5.65c0,2.07,1.1,3.06,2.75,3.06s2.75-1,2.75-3.06Z" transform="translate(0 0)"/><path class="cls-2" d="M72.69,140.9l-.37-6h2.82l-.38,6Z" transform="translate(0 0)"/><path class="cls-2" d="M84.44,143.07V143c0-1.76-.88-2.39-2.15-2.39s-2.16.63-2.16,2.39v6.32H77.51V143c0-3.27,1.94-4.84,4.78-4.84S87,139.69,87,143v.06Z" transform="translate(0 0)"/><path class="cls-2" d="M90.87,144.77v0a3,3,0,0,0,3.1,2.38,3,3,0,0,0,2.57-1h2.8A5.53,5.53,0,0,1,94,149.57a5.73,5.73,0,1,1,5.81-5.73v.93Zm.06-2.14v.05H97v-.05a3.23,3.23,0,0,0-6.07,0Z" transform="translate(0 0)"/><path class="cls-2" d="M115.68,149.28v-5.66c0-2.06-1.1-3.05-2.75-3.05s-2.75,1-2.75,3.05v5.66h-2.62v-5.66c0-3.63,2.16-5.5,5.37-5.5s5.37,1.85,5.37,5.5v5.66Z" transform="translate(0 0)"/><path class="cls-2" d="M126,149.57a5.73,5.73,0,1,1,5.85-5.73A5.58,5.58,0,0,1,126,149.57Zm3.19-5.73a3.2,3.2,0,1,0-3.19,3.28A3.08,3.08,0,0,0,129.17,143.84Z" transform="translate(0 0)"/><path class="cls-2" d="M142.55,145.1c0,3-1.81,4.47-4.45,4.47s-4.44-1.46-4.44-4.47V134.78h2.61v3.63h5.62v2.38h-5.62v4.31c0,1.45.75,2,1.83,2s1.83-.55,1.83-2v-.29h2.62Z" transform="translate(0 0)"/><path class="cls-2" d="M153.26,149.28h-2.62V133.66h2.62v6.2h0a3.62,3.62,0,0,1,3.19-1.74c2.51,0,4.89,1.63,4.89,5.5v5.66h-2.62v-5.66c0-2.06-1.1-3.05-2.75-3.05s-2.75,1-2.75,3.05Z" transform="translate(0 0)"/><path class="cls-2" d="M166,144.77v0a3,3,0,0,0,3.1,2.38,3,3,0,0,0,2.58-1h2.79a5.51,5.51,0,0,1-5.37,3.42,5.73,5.73,0,1,1,5.81-5.73v.93Zm.07-2.14v.05h6.07v-.05a3.23,3.23,0,0,0-6.07,0Z" transform="translate(0 0)"/><path class="cls-2" d="M183.62,143.07V143c0-1.76-.88-2.39-2.16-2.39s-2.15.63-2.15,2.39v6.32h-2.62V143c0-3.27,1.94-4.84,4.77-4.84s4.76,1.57,4.76,4.89v.06Z" transform="translate(0 0)"/><path class="cls-2" d="M190,144.77v0a3,3,0,0,0,3.1,2.38,3,3,0,0,0,2.58-1h2.79a5.51,5.51,0,0,1-5.37,3.42,5.73,5.73,0,1,1,5.81-5.73v.93Zm.07-2.14v.05h6.07v-.05a3.23,3.23,0,0,0-6.07,0Z" transform="translate(0 0)"/><path class="cls-2" d="M215.63,145.1c0,3-1.81,4.47-4.45,4.47s-4.44-1.46-4.44-4.47V134.78h2.62v3.63H215v2.38h-5.61v4.31c0,1.45.75,2,1.82,2s1.83-.55,1.83-2v-.29h2.62Z" transform="translate(0 0)"/><path class="cls-2" d="M222.82,149.57a5.73,5.73,0,1,1,5.86-5.73A5.58,5.58,0,0,1,222.82,149.57Zm3.19-5.73a3.2,3.2,0,1,0-3.19,3.28A3.08,3.08,0,0,0,226,143.84Z" transform="translate(0 0)"/><path class="cls-2" d="M243.48,149.28v-6.21c0-1.76-.95-2.5-2.2-2.5s-2.2.72-2.2,2.5v6.21h-2.62v-6.21c0-3.41,2-4.95,4.56-4.95a4.28,4.28,0,0,1,3.74,1.92h0a4.21,4.21,0,0,1,3.74-1.92c2.58,0,4.56,1.54,4.56,4.95v6.21h-2.62v-6.21c0-1.78-.93-2.5-2.2-2.5s-2.18.74-2.18,2.5v6.21Z" transform="translate(0 0)"/><path class="cls-2" d="M266.58,149.28h-2.4v-2h0a4,4,0,0,1-3.85,2.32,5.36,5.36,0,0,1-5.37-5.73,5.58,5.58,0,0,1,5.85-5.72,5.51,5.51,0,0,1,5.81,5.81ZM264,143.84a3.2,3.2,0,1,0-3.19,3.28A3.08,3.08,0,0,0,264,143.84Z" transform="translate(0 0)"/><path class="cls-2" d="M269.2,149.28V133.66h2.62v9.46h0l4.27-4.71h3.34l-5.1,5.32,5.3,5.55h-3.41l-4.4-4.86h0v4.86Z" transform="translate(0 0)"/><path class="cls-2" d="M282.86,144.77v0a3,3,0,0,0,3.1,2.38,3,3,0,0,0,2.58-1h2.79a5.51,5.51,0,0,1-5.37,3.42,5.73,5.73,0,1,1,5.81-5.73v.93Zm.06-2.14v.05H289v-.05a3.23,3.23,0,0,0-6.08,0Z" transform="translate(0 0)"/><path class="cls-2" d="M210.94,171.28V160.17c0-3.21,1.94-4.8,4.77-4.8s4.76,1.61,4.76,4.8v0h-2.6v0c0-1.7-.88-2.36-2.16-2.36s-2.15.69-2.15,2.36v1.76h5.59v2.37h-5.59v7Z" transform="translate(0 0)"/><path class="cls-2" d="M228.12,165.07V165c0-1.76-.88-2.39-2.15-2.39s-2.16.63-2.16,2.39v6.32h-2.62V165c0-3.27,1.94-4.84,4.78-4.84s4.75,1.57,4.75,4.89v.06Z" transform="translate(0 0)"/><path class="cls-2" d="M232.17,157.37a1.74,1.74,0,1,1,1.74,1.74A1.73,1.73,0,0,1,232.17,157.37Zm.44,13.91V160.41h2.62v10.87Z" transform="translate(0 0)"/><path class="cls-2" d="M240.18,166.77v0a3.38,3.38,0,0,0,5.67,1.34h2.8a5.53,5.53,0,0,1-5.37,3.42,5.73,5.73,0,1,1,5.81-5.73v.93Zm.06-2.14v.05h6.08v-.05a3.23,3.23,0,0,0-6.08,0Z" transform="translate(0 0)"/><path class="cls-2" d="M259,171.28v-5.66c0-2.06-1.1-3.05-2.75-3.05s-2.75,1-2.75,3.05v5.66h-2.62v-5.66c0-3.63,2.16-5.5,5.37-5.5s5.37,1.85,5.37,5.5v5.66Z" transform="translate(0 0)"/><path class="cls-2" d="M275.14,165.76a5.5,5.5,0,0,1-5.81,5.81,5.58,5.58,0,0,1-5.85-5.73,5.35,5.35,0,0,1,5.36-5.72,4.17,4.17,0,0,1,3.63,1.81h0v-6.27h2.62Zm-2.62.08a3.2,3.2,0,1,0-3.19,3.28A3.08,3.08,0,0,0,272.52,165.84Z" transform="translate(0 0)"/><path class="cls-2" d="M283.28,163.53c-.07-.66-.69-1.12-1.7-1.12s-1.74.53-1.74,1.26c0,1.91,6.27-.14,6.27,4.33,0,2.07-1.78,3.57-4.55,3.57s-4.51-1.48-4.58-3.5h2.64c0,.72.66,1.21,1.9,1.21s2-.53,2-1.28c0-1.91-6.27.24-6.27-4.33,0-2,1.7-3.55,4.34-3.55s4.27,1.5,4.33,3.41Z" transform="translate(0 0)"/><path class="cls-2" d="M287.85,169.83a1.74,1.74,0,1,1,1.74,1.74A1.73,1.73,0,0,1,287.85,169.83Z" transform="translate(0 0)"/><path d="M247.26,81V65h-5.85V61.38H257V65H251.1V81Z" transform="translate(0 0)"/><path d="M273.15,81V72.81h-9.39V81h-3.84V61.38h3.84v7.89h9.39V61.38H277V81Z" transform="translate(0 0)"/><path d="M285,72.75v4.71h10.62V81H281.16V61.38h14.46V65H285v4.38h8.88v3.42Z" transform="translate(0 0)"/><path d="M121.08,96.49A6.24,6.24,0,0,0,115,92.56a6.65,6.65,0,1,0,6.06,9.33h4c-1.11,4.47-5,7.5-10.11,7.5-6.12,0-10.44-4.32-10.44-10.2S108.9,89,115,89c5.13,0,9,3,10.11,7.5Z" transform="translate(0 0)"/><path d="M137.7,109.39c-6.12,0-10.44-4.32-10.44-10.2S131.58,89,137.7,89s10.44,4.32,10.44,10.2S143.82,109.39,137.7,109.39Zm6.54-10.2a6.54,6.54,0,1,0-6.54,6.66A6.31,6.31,0,0,0,144.24,99.19Z" transform="translate(0 0)"/><path d="M154.71,109h-3.84V96.37c0-5,3-7.38,6.84-7.38a6.07,6.07,0,0,1,5.55,3h.06a6,6,0,0,1,5.55-3c3.87,0,6.84,2.34,6.84,7.38V109h-3.84V96.37c0-2.7-1.44-3.81-3.33-3.81s-3.33,1.14-3.33,3.81V109h-3.84V96.37c0-2.67-1.44-3.81-3.33-3.81s-3.33,1.11-3.33,3.81Z" transform="translate(0 0)"/><path d="M179.43,109V89.38h8c5.1,0,7.38,2.82,7.38,6.66s-2.28,6.66-7.38,6.66h-4.17V109Zm8.07-9.84c2.55,0,3.42-1.32,3.42-3.12S190.05,93,187.5,93h-4.23v6.21Z" transform="translate(0 0)"/><path d="M201.45,100.75v4.71h10.62V109H197.61V89.38h14.46V93H201.45v4.38h8.88v3.42Z" transform="translate(0 0)"/><path d="M220.26,109V93h-5.85V89.38H230V93H224.1v16Z" transform="translate(0 0)"/><path d="M233,109V89.38h3.84V109Z" transform="translate(0 0)"/><path d="M245.64,109V93h-5.85V89.38h15.54V93h-5.85v16Z" transform="translate(0 0)"/><path d="M266.61,109.39c-6.12,0-10.44-4.32-10.44-10.2S260.49,89,266.61,89s10.44,4.32,10.44,10.2S272.73,109.39,266.61,109.39Zm6.54-10.2a6.54,6.54,0,1,0-6.54,6.66A6.31,6.31,0,0,0,273.15,99.19Z" transform="translate(0 0)"/><path d="M291.78,109l-4.17-6.63h-3.54V109h-3.84V89.38h8.22c5,0,7.17,2.73,7.17,6.48,0,2.88-1.29,5.16-4.08,6.06V102l4.8,7Zm-3.27-10.2c2.43,0,3.24-1.26,3.24-2.94S290.94,93,288.51,93h-4.44V98.8Z" transform="translate(0 0)"/><g id="_" data-name="🤼"><ellipse class="cls-4" cx="39.08" cy="12.31" rx="3.03" ry="3.31"/><path class="cls-5" d="M40.09,24.32l6.77,8.26a3.88,3.88,0,0,1,.41,3.64l-4.15,8.16A15.44,15.44,0,0,0,42,48.45L41.1,60.58c-.1,1.21.61,2.2,1.52,2.2a2.76,2.76,0,0,0,2.22-2.09l1.92-8.93a17,17,0,0,1,1.62-4l2.73-4.08a20,20,0,0,1,2.73-3.19l2.93-2.65a5.8,5.8,0,0,0,1.52-3.63h0A7.32,7.32,0,0,0,57,30.38L49.19,21" transform="translate(0 0)"/><path class="cls-5" d="M44.13,22.11" transform="translate(0 0)"/><path class="cls-5" d="M58.29,35.34l.81,9.92a32.81,32.81,0,0,0,.81,4.3l2.93,9c.41,1.1,0,2.1-.81,2.1a3.76,3.76,0,0,1-2.53-1.88l-4.24-8.37a18.88,18.88,0,0,1-1.32-4.08L53.23,42" transform="translate(0 0)"/><path class="cls-5" d="M49.19,21c-2-2.2-4.35-2.86-6.07-2.2A41.33,41.33,0,0,1,33,21c-2,0-5.06-1.1-8.09-3.3" transform="translate(0 0)"/><path class="cls-6" d="M31.09,16.82A3.2,3.2,0,0,0,32,14.4a3,3,0,1,0-6.07,0" transform="translate(0 0)"/><path class="cls-5" d="M25.22,27.84l-3.94,4.85a4.81,4.81,0,0,0-.71,3.75l2.73,9a14.91,14.91,0,0,1,.51,4.3l-.51,11C23.2,62,22.39,63,21.48,63a2.11,2.11,0,0,1-1.82-2.2l-.6-9.92a15,15,0,0,0-1-4.19l-1.21-2.76a13.24,13.24,0,0,0-2.43-3.41l-2.93-2.65A5.8,5.8,0,0,1,10,34.24h0a7.24,7.24,0,0,1,1.32-3.86L19.06,21" transform="translate(0 0)"/><path class="cls-5" d="M24,22.11" transform="translate(0 0)"/><path class="cls-5" d="M10.76,37.54v8.82a32.85,32.85,0,0,1-.4,4.41L9,58.48c-.2,1.21.31,2.21,1.12,2.21s1.82-1,2.12-2.1l1.92-6.83c.31-1.21.71-3.09.91-4.3l.71-4.41" transform="translate(0 0)"/><path class="cls-5" d="M19,21a8.38,8.38,0,0,1,2.94-2.42" transform="translate(0 0)"/><path class="cls-6" d="M24,22.11s5,4.41,7,4.41c1,0,3,0,4-5.51" transform="translate(0 0)"/></g></g></svg>