<?xml version="1.0" encoding="utf-8"?>
<!-- Generator: Adobe Illustrator 23.0.3, SVG Export Plug-In . SVG Version: 6.00 Build 0)  -->
<svg version="1.1" id="Layer_1" xmlns="http://www.w3.org/2000/svg" xmlns:xlink="http://www.w3.org/1999/xlink" x="0px" y="0px"
	 viewBox="0 0 198 270" style="enable-background:new 0 0 198 270;" xml:space="preserve">
<style type="text/css">
	.st0{opacity:0.4;}
	.st1{fill:#FFFFFF;}
	.st2{fill:none;}
	.st3{fill:#231F20;}
	.st4{fill:none;stroke:#000000;stroke-width:1.726;stroke-linejoin:round;}
	.st5{fill:none;stroke:#000000;stroke-width:1.726;stroke-linecap:round;stroke-linejoin:round;}
	.st6{fill:none;stroke:#000000;stroke-width:1.726;stroke-linecap:round;stroke-miterlimit:10;}
</style>
<title>goalCardFront</title>
<g id="Card_Fronts">
	<g>
		<g class="st0">
			<rect x="-7.2" y="7.2" width="198" height="270"/>
		</g>
		<g>
			<rect class="st1" width="198" height="270"/>
		</g>
	</g>
	<path d="M13.7,270H198V104.5c0,0-0.4,71.9-29.6,115.6C135,269.9,13.7,270,13.7,270z"/>
	<path d="M0,129.8V0h198c0,0-70.1,17.6-119.1,43.5C22.8,73.2,0,129.8,0,129.8z"/>
	<g>
		<g>
			<path class="st1" d="M19,31.4l-0.2-11.1l5.1-0.1c3.3-0.1,4.7,1.5,4.8,3.7s-1.4,3.8-4.6,3.9l-2.7,0l0.1,3.6L19,31.4z M24.1,25.7
				c1.6,0,2.2-0.8,2.1-1.8c0-1-0.6-1.7-2.2-1.7l-2.7,0l0.1,3.5L24.1,25.7z"/>
		</g>
		<g>
			<path class="st1" d="M32.4,27.9L32.4,27.9c0.4,1.2,1.5,2,2.7,1.8c0.8,0.1,1.6-0.2,2.2-0.8l2.4,0c-0.9,1.8-2.7,2.8-4.6,2.7
				c-3,0.1-5.1-1.8-5.2-4.3s2-4.5,5-4.5s5.1,1.8,5.1,4.3l0,0.7L32.4,27.9z M32.5,26.2L32.5,26.2l5.3-0.1v0c-0.4-1.1-1.5-1.7-2.7-1.6
				C33.9,24.4,32.9,25.1,32.5,26.2z"/>
		</g>
		<g>
			<path class="st1" d="M47.9,26.5L47.9,26.5c0.1-1-0.5-1.8-1.5-1.9c-0.2,0-0.3,0-0.5,0c-0.9-0.1-1.7,0.5-1.8,1.4c0,0.2,0,0.3,0,0.5
				l0.1,4.9l-2.3,0l-0.1-4.9c0-2.5,1.6-3.8,4.1-3.8s4.2,1.1,4.2,3.7v0.1L47.9,26.5z"/>
		</g>
		<g>
			<path class="st1" d="M56.7,25.3c-0.1-0.5-0.6-0.9-1.5-0.8c-1,0-1.5,0.4-1.5,1c0,1.5,5.4-0.2,5.5,3.3c0,1.6-1.5,2.8-3.9,2.8
				s-3.9-1.1-4-2.6l2.3,0c0,0.6,0.6,0.9,1.7,0.9c1.2,0,1.7-0.4,1.7-1c0-1.5-5.4,0.3-5.5-3.3c0-1.6,1.4-2.8,3.7-2.8s3.7,1.1,3.8,2.6
				L56.7,25.3z"/>
		</g>
		<g>
			<path class="st1" d="M65.9,31.5c-3,0.1-5.1-1.8-5.2-4.3s2-4.5,5-4.5c3-0.1,5.1,1.8,5.2,4.3S68.9,31.4,65.9,31.5z M68.6,27
				c0.1-1.5-1-2.9-2.6-3c-1.5-0.1-2.9,1-3,2.6c-0.1,1.5,1,2.9,2.6,3c0.1,0,0.2,0,0.3,0c1.4,0.1,2.6-0.9,2.7-2.3
				C68.6,27.2,68.6,27.1,68.6,27z"/>
		</g>
		<g>
			<path class="st1" d="M79.8,31.2l-0.1-4.4c-0.1-1.3-1.2-2.3-2.5-2.3C76,24.6,75,25.7,75,26.9l0.1,4.4l-2.3,0L72.7,27
				c0-2.8,1.8-4.3,4.6-4.3S82,24,82,26.8l0.1,4.4L79.8,31.2z"/>
		</g>
		<g>
			<path class="st1" d="M94,31.2l-2.1,0l0-1.6h0c-0.7,1.2-1.9,1.9-3.3,1.8c-2.4,0.2-4.5-1.6-4.7-4c0-0.1,0-0.2,0-0.3
				c0-2.5,2-4.5,5-4.5s5.1,1.7,5.1,4.4L94,31.2z M91.6,27c0.1-1.5-1-2.9-2.6-3c-1.5-0.1-2.9,1-3,2.6s1,2.9,2.6,3c0.1,0,0.2,0,0.3,0
				c1.4,0.1,2.6-0.9,2.7-2.3C91.6,27.2,91.6,27.1,91.6,27z"/>
		</g>
		<g>
			<path class="st1" d="M96.5,31.3l-0.2-12.1l2.3,0l0.2,12.1L96.5,31.3z"/>
		</g>
		<g>
			<path class="st1" d="M28.4,39.9c-0.8-1.1-2.2-1.8-3.6-1.7c-2.5,0-4.1,1.7-4.1,3.8s1.7,3.7,4.2,3.7c2,0,3.4-0.9,3.9-2.3v0
				l-4.7,0.1l0-1.9l7.4-0.1l0,1c-0.2,3-2.9,5.3-6.5,5.3c-3.9,0.1-6.7-2.3-6.8-5.7s2.7-5.8,6.6-5.9c3.1-0.1,5.4,1.4,6.4,3.6
				L28.4,39.9z"/>
		</g>
		<g>
			<path class="st1" d="M38.2,47.9c-3,0.1-5.1-1.8-5.2-4.3s2-4.5,5-4.5s5.1,1.8,5.2,4.3S41.2,47.8,38.2,47.9z M40.9,43.4
				c0-1.4-1.2-2.5-2.6-2.5c-0.1,0-0.2,0-0.2,0c-1.4-0.1-2.6,0.9-2.7,2.3c-0.1,1.4,0.9,2.6,2.3,2.7c0.2,0,0.3,0,0.5,0
				c1.4,0.1,2.6-0.9,2.7-2.3C40.9,43.6,40.9,43.5,40.9,43.4L40.9,43.4z"/>
		</g>
		<g>
			<path class="st1" d="M54.8,47.6l-2.1,0l0-1.6h0c-0.7,1.2-1.9,1.9-3.3,1.8c-2.4,0.2-4.5-1.6-4.7-4c0-0.1,0-0.2,0-0.3
				c0-2.5,2-4.5,5-4.5s5.1,1.7,5.1,4.4L54.8,47.6z M52.5,43.4c0.1-1.5-1-2.9-2.6-3c-1.5-0.1-2.9,1-3,2.6c-0.1,1.5,1,2.9,2.6,3
				c0.1,0,0.2,0,0.3,0c1.4,0.1,2.6-0.9,2.7-2.3C52.5,43.6,52.5,43.5,52.5,43.4z"/>
		</g>
		<g>
			<path class="st1" d="M57.3,47.6l-0.2-12.1l2.3,0l0.2,12.1L57.3,47.6z"/>
		</g>
	</g>
	<g id="competitor">
		<rect x="18" y="152.1" class="st2" width="161.3" height="99.9"/>
		<g>
			<g>
				<path class="st3" d="M18.3,152.5h6.7v0.5h-3v8.5h-0.6V153h-3V152.5z"/>
				<path class="st3" d="M26.8,154.6c0.8,0,1.5,0.3,1.9,1c1,1.6,1,3.6,0,5.2c-0.4,0.6-1.2,1-1.9,1c-0.8,0-1.5-0.3-2-1
					c-0.5-0.8-0.8-1.7-0.7-2.6c0-0.9,0.2-1.8,0.7-2.6C25.3,154.9,26,154.5,26.8,154.6z M26.8,155c-0.6,0-1.2,0.3-1.5,0.8
					c-0.4,0.7-0.6,1.4-0.6,2.2c0,0.8,0.2,1.6,0.6,2.3c0.6,0.9,1.7,1.1,2.6,0.5c0.2-0.1,0.4-0.3,0.5-0.5c0.4-0.7,0.6-1.5,0.6-2.3
					c0-0.8-0.2-1.6-0.6-2.2C28,155.3,27.4,155,26.8,155z"/>
				<path class="st3" d="M40,157.6v3.9h-0.5v-1.8c-0.2,0.7-0.6,1.3-1.2,1.7c-0.4,0.2-0.7,0.3-1.2,0.3c-0.6,0-1.1-0.2-1.5-0.5
					c-0.4-0.4-0.6-1-0.5-1.6c0-0.6,0.2-1.3,0.7-1.7c0.7-0.5,1.5-0.7,2.3-0.6h1.3v-0.1c0-0.5-0.2-1.1-0.5-1.5c-0.4-0.4-1-0.6-1.6-0.6
					c-0.4,0-0.8,0.1-1.1,0.2c-0.3,0.1-0.7,0.3-1,0.6v-0.6c0.3-0.2,0.6-0.4,1-0.5c0.4-0.1,0.8-0.2,1.2-0.2c0.7,0,1.4,0.2,1.9,0.7
					C39.8,156,40.1,156.8,40,157.6z M38,157.7c-0.6-0.1-1.3,0.1-1.8,0.5c-0.4,0.4-0.6,0.9-0.6,1.4c0,0.5,0.1,0.9,0.5,1.3
					c0.3,0.3,0.7,0.4,1.1,0.4c0.7,0,1.4-0.4,1.7-1.1c0.3-0.6,0.5-1.3,0.5-2v-0.4H38z"/>
				<path class="st3" d="M47,155v0.6c-0.2-0.2-0.5-0.3-0.8-0.4c-0.3-0.1-0.7-0.2-1-0.2c-0.7-0.1-1.5,0.2-2,0.8
					c-0.8,1.4-0.8,3.2,0,4.7c0.5,0.5,1.2,0.8,2,0.8c0.3,0,0.6,0,0.9-0.1c0.3-0.1,0.6-0.2,0.9-0.4v0.6c-0.6,0.3-1.2,0.4-1.9,0.4
					c-0.8,0-1.6-0.2-2.2-0.8c-1.1-1.7-1.1-3.8,0-5.5c0.6-0.6,1.4-0.8,2.2-0.8c0.3,0,0.7,0,1,0.1C46.4,154.8,46.7,154.9,47,155z"/>
				<path class="st3" d="M53.5,155v0.6c-0.2-0.2-0.5-0.3-0.8-0.4c-0.3-0.1-0.7-0.2-1-0.2c-0.7-0.1-1.5,0.2-2,0.8
					c-0.8,1.4-0.8,3.2,0,4.7c0.5,0.5,1.2,0.8,2,0.8c0.3,0,0.6,0,0.9-0.1c0.3-0.1,0.6-0.2,0.9-0.4v0.6c-0.6,0.3-1.2,0.4-1.9,0.4
					c-0.8,0-1.6-0.2-2.2-0.8c-1.1-1.7-1.1-3.8,0-5.5c0.6-0.6,1.4-0.8,2.2-0.8c0.3,0,0.7,0,1,0.1C52.9,154.8,53.2,154.9,53.5,155z"/>
				<path class="st3" d="M57.8,154.6c0.8,0,1.5,0.3,1.9,1c1,1.6,1,3.6,0,5.2c-0.4,0.6-1.2,1-1.9,1c-0.8,0-1.5-0.3-2-1
					c-0.5-0.8-0.8-1.7-0.7-2.6c0-0.9,0.2-1.8,0.7-2.6C56.3,154.9,57,154.5,57.8,154.6z M57.8,155c-0.6,0-1.2,0.3-1.5,0.8
					c-0.4,0.7-0.6,1.4-0.6,2.2c0,0.8,0.2,1.6,0.6,2.3c0.6,0.9,1.7,1.1,2.6,0.5c0.2-0.1,0.4-0.3,0.5-0.5c0.4-0.7,0.6-1.5,0.6-2.3
					c0-0.8-0.2-1.6-0.6-2.2C59,155.3,58.4,155,57.8,155L57.8,155z"/>
				<path class="st3" d="M67.3,156.2c0.2-0.5,0.5-0.9,0.9-1.2c0.4-0.3,0.9-0.4,1.4-0.4c0.5,0,1,0.2,1.3,0.6c0.4,0.7,0.6,1.5,0.5,2.2
					v4.1h-0.5v-4.1c0.1-0.7-0.1-1.3-0.4-1.9c-0.2-0.3-0.6-0.5-1-0.5c-0.6,0-1.1,0.2-1.6,0.6c-0.5,0.5-0.8,1.3-0.7,2v3.8h-0.5v-4.1
					c0.1-0.6-0.1-1.3-0.4-1.9c-0.2-0.3-0.6-0.5-1-0.5c-0.6,0-1.1,0.2-1.6,0.6c-0.5,0.5-0.8,1.3-0.7,2v3.8h-0.5v-6.8h0.5v1.3
					c0.2-0.4,0.5-0.8,0.9-1.1c0.4-0.3,0.9-0.4,1.5-0.4c0.4,0,0.8,0.1,1.1,0.4C67,155.3,67.2,155.7,67.3,156.2z"/>
				<path class="st3" d="M74.7,160v4.1h-0.5v-9.4h0.5v1.6c0.2-0.5,0.4-0.9,0.8-1.2c0.3-0.3,0.8-0.5,1.2-0.5c0.8,0,1.5,0.4,1.9,1
					c1,1.6,1,3.6,0,5.2c-0.4,0.6-1.1,1-1.9,1c-0.5,0-0.9-0.2-1.2-0.5C75.1,160.9,74.8,160.4,74.7,160z M78.8,158.1
					c0.1-0.8-0.2-1.7-0.7-2.4c-0.6-0.8-1.6-0.9-2.4-0.4c-0.1,0.1-0.3,0.2-0.4,0.4c-0.9,1.5-0.9,3.3,0,4.7c0.6,0.8,1.6,0.9,2.4,0.4
					c0.1-0.1,0.3-0.2,0.4-0.4C78.6,159.8,78.9,159,78.8,158.1z"/>
				<path class="st3" d="M81.6,152.1h0.5v9.4h-0.5V152.1z"/>
				<path class="st3" d="M84.9,152.1h0.5v0.8h-0.5V152.1z M84.9,154.7h0.5v6.8h-0.5V154.7z"/>
				<path class="st3" d="M91.8,154.9v0.6c-0.2-0.1-0.5-0.3-0.7-0.4c-0.3-0.1-0.7-0.1-1-0.1c-0.5,0-1,0.1-1.4,0.4
					c-0.3,0.3-0.4,0.7-0.4,1.1c0,0.3,0.1,0.6,0.4,0.8c0.3,0.2,0.7,0.4,1.1,0.5l0.4,0.1c0.5,0.1,1,0.3,1.4,0.6
					c0.4,0.3,0.6,0.7,0.6,1.2c0,0.6-0.2,1.1-0.5,1.5c-0.5,0.4-1.2,0.6-1.8,0.5c-0.4,0-0.7,0-1.1-0.1c-0.3-0.1-0.6-0.2-0.9-0.3v-0.7
					c0.3,0.2,0.6,0.4,0.9,0.5c0.4,0.1,0.7,0.2,1.1,0.2c0.5,0,1-0.1,1.4-0.4c0.3-0.3,0.5-0.7,0.4-1.1c0-0.3-0.1-0.6-0.3-0.8
					c-0.4-0.3-0.9-0.5-1.4-0.6l-0.4-0.1c-0.4-0.1-0.9-0.3-1.2-0.6c-0.3-0.3-0.5-0.7-0.5-1.1c-0.1-0.6,0.2-1.2,0.6-1.5
					c0.5-0.3,1-0.5,1.6-0.5c0.4,0,0.7,0,1.1,0.1C91.3,154.7,91.5,154.8,91.8,154.9z"/>
				<path class="st3" d="M99.1,157.4v4.1h-0.5v-4.1c0.1-0.6-0.1-1.3-0.4-1.9c-0.3-0.4-0.8-0.6-1.3-0.5c-0.6,0-1.1,0.2-1.5,0.6
					c-0.4,0.6-0.6,1.3-0.6,2v3.8h-0.5v-9.4h0.5v3.9c0.1-0.4,0.4-0.7,0.7-0.9c0.4-0.4,1-0.5,1.6-0.5c0.6,0,1.2,0.2,1.5,0.7
					C99,155.9,99.1,156.7,99.1,157.4z"/>
				<path class="st3" d="M106,152.8v1.9h2.2v0.5H106v4.1c0,0.4,0,0.7,0.2,1.1c0.2,0.4,0.7,0.7,1.1,0.7h0.8v0.5h-0.8
					c-0.5,0-1-0.2-1.3-0.5c-0.4-0.5-0.6-1.1-0.6-1.8v-4.1h-0.8v-0.5h0.8v-1.9H106z"/>
				<path class="st3" d="M114.9,157.4v4.1h-0.5v-4.1c0.1-0.6-0.1-1.3-0.4-1.9c-0.3-0.4-0.8-0.6-1.3-0.5c-0.6,0-1.1,0.2-1.5,0.6
					c-0.4,0.6-0.6,1.3-0.6,2v3.8H110v-9.4h0.5v3.9c0.1-0.4,0.4-0.7,0.7-0.9c0.4-0.4,1-0.5,1.6-0.5c0.6,0,1.2,0.2,1.5,0.7
					C114.7,155.9,114.9,156.7,114.9,157.4z"/>
				<path class="st3" d="M117.5,152.1h0.5v0.8h-0.5V152.1z M117.5,154.7h0.5v6.8h-0.5V154.7z"/>
				<path class="st3" d="M124.4,154.9v0.6c-0.2-0.1-0.5-0.3-0.7-0.4c-0.3-0.1-0.7-0.1-1-0.1c-0.5,0-1,0.1-1.4,0.4
					c-0.3,0.3-0.4,0.7-0.4,1.1c0,0.3,0.1,0.6,0.4,0.8c0.3,0.2,0.7,0.4,1.1,0.5l0.4,0.1c0.5,0.1,1,0.3,1.4,0.6
					c0.4,0.3,0.6,0.7,0.6,1.2c0,0.6-0.2,1.1-0.5,1.5c-0.5,0.4-1.2,0.6-1.8,0.5c-0.4,0-0.7,0-1.1-0.1c-0.3-0.1-0.6-0.2-0.9-0.3v-0.7
					c0.3,0.2,0.6,0.4,0.9,0.5c0.4,0.1,0.7,0.2,1.1,0.2c0.5,0,1-0.1,1.4-0.4c0.3-0.3,0.5-0.7,0.4-1.1c0-0.3-0.1-0.6-0.3-0.8
					c-0.4-0.3-0.9-0.5-1.4-0.6l-0.4-0.1c-0.4-0.1-0.9-0.3-1.2-0.6c-0.3-0.3-0.5-0.7-0.5-1.1c-0.1-0.6,0.2-1.2,0.6-1.5
					c0.5-0.3,1-0.5,1.6-0.5c0.4,0,0.7,0,1.1,0.1C123.9,154.7,124.1,154.8,124.4,154.9z"/>
				<path class="st3" d="M135.4,160.7c0,1.4-0.3,2.3-0.8,2.8c-0.5,0.4-1.2,0.7-1.9,0.7c-0.4,0-0.7,0-1-0.1c-0.3-0.1-0.6-0.2-1-0.3
					v-0.6c0.3,0.2,0.6,0.3,0.9,0.4c0.3,0.1,0.6,0.1,0.9,0.1c0.6,0,1.1-0.1,1.6-0.4c0.5-0.3,0.7-1.1,0.7-2.3v-1.1
					c-0.1,0.4-0.3,0.8-0.6,1.1c-0.4,0.4-0.9,0.6-1.4,0.6c-0.7,0-1.5-0.3-1.9-0.9c-0.9-1.6-0.9-3.5,0-5.1c0.4-0.6,1.2-0.9,1.9-0.9
					c0.5,0,1,0.2,1.3,0.5c0.3,0.3,0.6,0.7,0.7,1.1v-1.4h0.5L135.4,160.7z M134.9,158c0-0.8-0.1-1.5-0.5-2.2c-0.6-0.8-1.8-1-2.6-0.4
					c-0.2,0.1-0.3,0.3-0.4,0.4c-0.7,1.4-0.7,3,0,4.4c0.6,0.8,1.8,1,2.6,0.4c0.2-0.1,0.3-0.3,0.4-0.4
					C134.7,159.6,134.9,158.8,134.9,158L134.9,158z"/>
				<path class="st3" d="M139.9,154.6c0.8,0,1.5,0.3,1.9,1c1,1.6,1,3.6,0,5.2c-0.4,0.6-1.2,1-1.9,1c-0.8,0-1.5-0.3-2-1
					c-0.5-0.8-0.8-1.7-0.7-2.6c0-0.9,0.2-1.8,0.7-2.6C138.4,154.9,139.1,154.5,139.9,154.6z M139.9,155c-0.6,0-1.2,0.3-1.5,0.8
					c-0.4,0.7-0.6,1.4-0.6,2.2c0,0.8,0.2,1.6,0.6,2.3c0.6,0.9,1.7,1.1,2.6,0.5c0.2-0.1,0.4-0.3,0.5-0.5c0.4-0.7,0.6-1.5,0.6-2.3
					c0-0.8-0.2-1.6-0.6-2.2C141.1,155.3,140.5,155,139.9,155L139.9,155z"/>
				<path class="st3" d="M149.4,157.6v3.9h-0.5v-1.8c-0.2,0.7-0.6,1.3-1.2,1.7c-0.4,0.2-0.7,0.3-1.2,0.3c-0.6,0-1.1-0.2-1.5-0.5
					c-0.4-0.4-0.6-1-0.6-1.6c0-0.6,0.2-1.3,0.7-1.7c0.7-0.5,1.5-0.7,2.3-0.6h1.3v-0.1c0-0.5-0.2-1.1-0.5-1.5c-0.4-0.4-1-0.6-1.6-0.6
					c-0.4,0-0.8,0.1-1.1,0.2c-0.3,0.1-0.7,0.3-1,0.6v-0.6c0.3-0.2,0.6-0.4,1-0.5c0.4-0.1,0.8-0.2,1.2-0.2c0.7,0,1.4,0.2,1.9,0.7
					C149.2,156,149.4,156.8,149.4,157.6z M147.4,157.7c-0.6-0.1-1.3,0.1-1.8,0.5c-0.4,0.4-0.6,0.9-0.6,1.4c0,0.5,0.1,0.9,0.5,1.3
					c0.3,0.3,0.7,0.4,1.1,0.4c0.7,0,1.4-0.4,1.7-1.1c0.3-0.6,0.5-1.3,0.5-2v-0.4H147.4z"/>
				<path class="st3" d="M152,152.1h0.5v9.4H152V152.1z"/>
				<path class="st3" d="M155.5,160.7h0.6v0.3l-0.5,1.9h-0.4l0.2-1.9L155.5,160.7z"/>
			</g>
			<g>
				<path class="st3" d="M21.5,175.8c-0.1,0.5-0.4,0.9-0.7,1.2c-0.3,0.3-0.7,0.4-1,0.5h-0.8v-0.5h0.7c0.3,0,0.5-0.1,0.7-0.3
					c0.3-0.3,0.5-0.7,0.7-1.1l0.2-0.5l-2.6-6.8h0.6l2.3,6l2.3-6h0.6L21.5,175.8z"/>
				<path class="st3" d="M28.5,168.3c0.8,0,1.5,0.3,1.9,1c1,1.6,1,3.6,0,5.2c-0.4,0.6-1.2,1-1.9,1c-0.8,0-1.5-0.3-2-1
					c-0.5-0.8-0.8-1.7-0.7-2.6c0-0.9,0.2-1.8,0.7-2.6C27,168.6,27.8,168.2,28.5,168.3z M28.6,168.7c-0.6,0-1.2,0.3-1.5,0.8
					c-0.4,0.7-0.6,1.4-0.6,2.2c0,0.8,0.2,1.6,0.6,2.3c0.6,0.9,1.7,1.1,2.6,0.5c0.2-0.1,0.4-0.3,0.5-0.5c0.4-0.7,0.6-1.5,0.6-2.3
					c0-0.8-0.2-1.6-0.6-2.2C29.8,169,29.2,168.7,28.6,168.7z"/>
				<path class="st3" d="M33.4,172.5v-4.1h0.5v4.1c-0.1,0.6,0.1,1.3,0.4,1.9c0.3,0.4,0.7,0.6,1.2,0.5c0.6,0,1.1-0.2,1.6-0.6
					c0.5-0.6,0.7-1.3,0.7-2v-3.8h0.5v6.8h-0.5v-1.3c-0.2,0.4-0.4,0.7-0.7,0.9c-0.4,0.3-1,0.5-1.5,0.5c-0.6,0-1.1-0.2-1.5-0.7
					C33.5,174,33.3,173.3,33.4,172.5z"/>
				<path class="st3" d="M49.3,169.9c0.2-0.5,0.5-0.9,0.9-1.2c0.4-0.3,0.9-0.4,1.4-0.4c0.5,0,1,0.2,1.3,0.6c0.4,0.7,0.6,1.5,0.5,2.2
					v4.1H53v-4.1c0.1-0.7-0.1-1.3-0.4-1.9c-0.2-0.3-0.6-0.5-1-0.5c-0.6,0-1.1,0.2-1.6,0.6c-0.5,0.5-0.8,1.3-0.7,2v3.8h-0.5v-4.1
					c0.1-0.6-0.1-1.3-0.4-1.9c-0.2-0.3-0.6-0.5-1-0.5c-0.6,0-1.1,0.2-1.6,0.6c-0.5,0.5-0.8,1.3-0.7,2v3.8h-0.5v-6.8h0.5v1.3
					c0.2-0.4,0.5-0.8,0.9-1.1c0.4-0.3,0.9-0.4,1.5-0.4c0.4,0,0.8,0.1,1.1,0.4C48.9,169,49.2,169.4,49.3,169.9z"/>
				<path class="st3" d="M56,172.5v-4.1h0.5v4.1c-0.1,0.6,0.1,1.3,0.4,1.9c0.3,0.4,0.7,0.6,1.2,0.5c0.6,0,1.1-0.2,1.6-0.6
					c0.5-0.6,0.7-1.3,0.7-2v-3.8h0.5v6.8h-0.5v-1.3c-0.2,0.4-0.4,0.7-0.7,0.9c-0.4,0.3-1,0.5-1.5,0.5c-0.6,0-1.1-0.2-1.5-0.7
					C56.1,174,55.9,173.3,56,172.5z"/>
				<path class="st3" d="M67.2,168.6v0.6c-0.2-0.1-0.5-0.3-0.7-0.4c-0.3-0.1-0.7-0.1-1-0.1c-0.5,0-1,0.1-1.4,0.4
					c-0.3,0.3-0.4,0.7-0.4,1.1c0,0.3,0.1,0.6,0.4,0.8c0.3,0.2,0.7,0.4,1.1,0.5l0.4,0.1c0.5,0.1,1,0.3,1.4,0.6
					c0.4,0.3,0.6,0.7,0.6,1.2c0,0.6-0.2,1.1-0.5,1.5c-0.5,0.4-1.2,0.6-1.8,0.5c-0.4,0-0.7,0-1.1-0.1c-0.3-0.1-0.6-0.2-0.9-0.3v-0.7
					c0.3,0.2,0.6,0.4,0.9,0.5c0.4,0.1,0.7,0.2,1.1,0.2c0.5,0,1-0.1,1.4-0.4c0.3-0.3,0.5-0.7,0.4-1.1c0-0.3-0.1-0.6-0.3-0.8
					c-0.4-0.3-0.9-0.5-1.4-0.6l-0.4-0.1c-0.4-0.1-0.9-0.3-1.2-0.6c-0.3-0.3-0.5-0.7-0.5-1.1c-0.1-0.6,0.2-1.2,0.6-1.5
					c0.5-0.3,1-0.5,1.6-0.5c0.4,0,0.7,0,1.1,0.1C66.7,168.4,66.9,168.5,67.2,168.6z"/>
				<path class="st3" d="M70.2,166.5v1.9h2.2v0.5h-2.2v4.1c0,0.4,0,0.7,0.2,1.1c0.2,0.4,0.7,0.7,1.1,0.7h0.8v0.5h-0.8
					c-0.5,0-1-0.2-1.3-0.5c-0.4-0.5-0.6-1.1-0.6-1.8v-4.1h-0.8v-0.5h0.8v-1.9H70.2z"/>
				<path class="st3" d="M82.8,171.1v4.1h-0.5v-4.1c0.1-0.6-0.1-1.3-0.4-1.9c-0.3-0.4-0.8-0.6-1.3-0.5c-0.6,0-1.1,0.2-1.5,0.6
					c-0.4,0.6-0.6,1.3-0.6,2v3.8H78v-9.4h0.5v3.9c0.1-0.4,0.4-0.7,0.7-0.9c0.4-0.4,1-0.5,1.6-0.5c0.6,0,1.2,0.2,1.5,0.7
					C82.7,169.6,82.9,170.4,82.8,171.1z"/>
				<path class="st3" d="M89.9,171.3v3.9h-0.5v-1.8c-0.2,0.7-0.6,1.3-1.2,1.7c-0.4,0.2-0.8,0.3-1.2,0.3c-0.6,0-1.1-0.2-1.5-0.5
					c-0.4-0.4-0.6-1-0.6-1.6c0-0.6,0.2-1.3,0.7-1.7c0.7-0.5,1.5-0.7,2.3-0.6h1.3v-0.1c0-0.5-0.2-1.1-0.5-1.5c-0.4-0.4-1-0.6-1.6-0.6
					c-0.4,0-0.8,0.1-1.1,0.2c-0.3,0.1-0.7,0.3-1,0.6v-0.6c0.3-0.2,0.6-0.4,1-0.5c0.4-0.1,0.8-0.2,1.2-0.2c0.7,0,1.4,0.2,1.9,0.7
					C89.8,169.7,90,170.5,89.9,171.3z M88,171.4c-0.6-0.1-1.3,0.1-1.8,0.5c-0.4,0.4-0.6,0.9-0.6,1.4c0,0.5,0.1,0.9,0.5,1.3
					c0.3,0.3,0.7,0.4,1.1,0.4c0.7,0,1.4-0.4,1.7-1.1c0.3-0.6,0.5-1.3,0.5-2v-0.4H88z"/>
				<path class="st3" d="M92,168.4h0.6l2.2,6.2l2.2-6.2h0.6l-2.4,6.8h-0.7L92,168.4z"/>
				<path class="st3" d="M104.6,171.5v0.4h-4.9c-0.1,0.8,0.1,1.6,0.6,2.3c0.5,0.5,1.2,0.8,2,0.7c0.3,0,0.6-0.1,0.9-0.2
					c0.4-0.1,0.8-0.3,1.1-0.5v0.6c-0.4,0.2-0.8,0.3-1.2,0.4c-0.3,0.1-0.6,0.1-0.9,0.1c-0.8,0.1-1.7-0.2-2.2-0.8
					c-0.6-0.7-0.9-1.7-0.8-2.6c-0.1-1,0.2-1.9,0.7-2.7c0.5-0.6,1.3-1,2.1-0.9c0.7,0,1.5,0.3,1.9,0.9
					C104.4,169.9,104.6,170.7,104.6,171.5z M104,171.4c0.1-0.7-0.2-1.5-0.6-2.1c-0.4-0.4-0.9-0.6-1.4-0.6c-0.6,0-1.2,0.2-1.6,0.6
					c-0.5,0.6-0.7,1.3-0.7,2.1H104z"/>
				<path class="st3" d="M111.1,166.5v1.9h2.2v0.5h-2.2v4.1c0,0.4,0,0.7,0.2,1.1c0.2,0.4,0.7,0.7,1.1,0.7h0.8v0.5h-0.8
					c-0.5,0-1-0.2-1.3-0.5c-0.4-0.5-0.6-1.1-0.6-1.8v-4.1h-0.8v-0.5h0.8v-1.9H111.1z"/>
				<path class="st3" d="M120,171.1v4.1h-0.5v-4.1c0.1-0.6-0.1-1.3-0.4-1.9c-0.3-0.4-0.8-0.6-1.3-0.5c-0.6,0-1.1,0.2-1.5,0.6
					c-0.4,0.6-0.6,1.3-0.6,2v3.8h-0.5v-9.4h0.5v3.9c0.1-0.4,0.4-0.7,0.7-0.9c0.4-0.4,1-0.5,1.6-0.5c0.6,0,1.2,0.2,1.5,0.7
					C119.8,169.6,120,170.4,120,171.1z"/>
				<path class="st3" d="M127.6,171.5v0.4h-4.9c-0.1,0.8,0.1,1.6,0.6,2.3c0.5,0.5,1.2,0.8,2,0.7c0.3,0,0.6-0.1,0.9-0.2
					c0.4-0.1,0.8-0.3,1.1-0.5v0.6c-0.4,0.2-0.8,0.3-1.2,0.4c-0.3,0.1-0.6,0.1-0.9,0.1c-0.8,0.1-1.7-0.2-2.2-0.8
					c-0.6-0.7-0.9-1.7-0.8-2.6c-0.1-1,0.2-1.9,0.7-2.7c0.5-0.6,1.3-1,2.1-0.9c0.7,0,1.5,0.3,1.9,0.9
					C127.4,169.9,127.6,170.7,127.6,171.5z M127,171.4c0.1-0.7-0.2-1.5-0.6-2.1c-0.4-0.4-0.9-0.6-1.4-0.6c-0.6,0-1.2,0.2-1.6,0.6
					c-0.5,0.6-0.7,1.3-0.7,2.1H127z"/>
				<path class="st3" d="M138.4,171.1v4.1h-0.5v-4.1c0.1-0.6-0.1-1.3-0.4-1.9c-0.3-0.4-0.8-0.6-1.3-0.5c-0.6,0-1.1,0.2-1.5,0.6
					c-0.4,0.6-0.6,1.3-0.6,2v3.8h-0.5v-9.4h0.5v3.9c0.1-0.4,0.4-0.7,0.7-0.9c0.4-0.4,1-0.5,1.6-0.5c0.6,0,1.2,0.2,1.5,0.7
					C138.2,169.6,138.4,170.4,138.4,171.1z"/>
				<path class="st3" d="M140.9,165.8h0.5v0.8h-0.5V165.8z M140.9,168.4h0.5v6.8h-0.5V168.4z"/>
				<path class="st3" d="M149,174.4c0,1.4-0.3,2.3-0.8,2.8c-0.5,0.4-1.2,0.7-1.9,0.7c-0.4,0-0.7,0-1-0.1c-0.3-0.1-0.6-0.2-1-0.3
					v-0.6c0.3,0.2,0.6,0.3,0.9,0.4c0.3,0.1,0.6,0.1,0.9,0.1c0.6,0,1.1-0.1,1.6-0.4c0.5-0.3,0.7-1.1,0.7-2.3v-1.1
					c-0.1,0.4-0.3,0.8-0.6,1.1c-0.4,0.4-0.9,0.6-1.4,0.6c-0.7,0-1.5-0.3-1.9-0.9c-0.9-1.6-0.9-3.5,0-5.1c0.4-0.6,1.2-0.9,1.9-0.9
					c0.5,0,1,0.2,1.3,0.5c0.3,0.3,0.6,0.7,0.7,1.1v-1.4h0.5L149,174.4z M148.5,171.7c0-0.8-0.1-1.5-0.5-2.2c-0.6-0.8-1.8-1-2.6-0.4
					c-0.2,0.1-0.3,0.3-0.4,0.4c-0.7,1.4-0.7,3,0,4.4c0.6,0.8,1.8,1,2.6,0.4c0.2-0.1,0.3-0.3,0.4-0.4
					C148.3,173.3,148.5,172.5,148.5,171.7z"/>
				<path class="st3" d="M156.1,171.1v4.1h-0.5v-4.1c0.1-0.6-0.1-1.3-0.4-1.9c-0.3-0.4-0.8-0.6-1.3-0.5c-0.6,0-1.1,0.2-1.5,0.6
					c-0.4,0.6-0.6,1.3-0.6,2v3.8h-0.5v-9.4h0.5v3.9c0.1-0.4,0.4-0.7,0.7-0.9c0.4-0.4,1-0.5,1.6-0.5c0.6,0,1.2,0.2,1.5,0.7
					C156,169.6,156.2,170.4,156.1,171.1z"/>
				<path class="st3" d="M163.7,171.5v0.4h-4.9c-0.1,0.8,0.1,1.6,0.6,2.3c0.5,0.5,1.2,0.8,2,0.7c0.3,0,0.6-0.1,0.9-0.2
					c0.4-0.1,0.8-0.3,1.1-0.5v0.6c-0.4,0.2-0.8,0.3-1.2,0.4c-0.3,0.1-0.6,0.1-0.9,0.1c-0.8,0.1-1.7-0.2-2.2-0.8
					c-0.6-0.7-0.9-1.7-0.8-2.6c-0.1-1,0.2-1.9,0.7-2.7c0.5-0.6,1.3-1,2.1-0.9c0.7,0,1.5,0.3,1.9,0.9
					C163.5,169.9,163.8,170.7,163.7,171.5z M163.2,171.4c0.1-0.7-0.2-1.5-0.6-2.1c-0.4-0.4-0.9-0.6-1.4-0.6c-0.6,0-1.2,0.2-1.6,0.6
					c-0.5,0.6-0.7,1.3-0.7,2.1H163.2z"/>
				<path class="st3" d="M169.6,168.6v0.6c-0.2-0.1-0.5-0.3-0.7-0.4c-0.3-0.1-0.7-0.1-1-0.1c-0.5,0-1,0.1-1.4,0.4
					c-0.3,0.3-0.4,0.7-0.4,1.1c0,0.3,0.1,0.6,0.4,0.8c0.3,0.2,0.7,0.4,1.1,0.5l0.4,0.1c0.5,0.1,1,0.3,1.4,0.6
					c0.4,0.3,0.6,0.7,0.6,1.2c0,0.6-0.2,1.1-0.5,1.5c-0.5,0.4-1.2,0.6-1.8,0.5c-0.4,0-0.7,0-1.1-0.1c-0.3-0.1-0.6-0.2-0.9-0.3v-0.7
					c0.3,0.2,0.6,0.4,0.9,0.5c0.4,0.1,0.7,0.2,1.1,0.2c0.5,0,1-0.1,1.4-0.4c0.3-0.3,0.5-0.7,0.4-1.1c0-0.3-0.1-0.6-0.3-0.8
					c-0.4-0.3-0.9-0.5-1.4-0.6l-0.4-0.1c-0.4-0.1-0.9-0.3-1.2-0.6c-0.3-0.3-0.5-0.7-0.5-1.1c-0.1-0.6,0.2-1.2,0.6-1.5
					c0.5-0.3,1-0.5,1.6-0.5c0.4,0,0.7,0,1.1,0.1C169.1,168.4,169.3,168.5,169.6,168.6z"/>
				<path class="st3" d="M172.6,166.5v1.9h2.2v0.5h-2.2v4.1c0,0.4,0,0.7,0.2,1.1c0.2,0.4,0.7,0.7,1.1,0.7h0.8v0.5H174
					c-0.5,0-1-0.2-1.3-0.5c-0.4-0.5-0.6-1.1-0.6-1.8v-4.1h-0.8v-0.5h0.8v-1.9H172.6z"/>
			</g>
			<g>
				<path class="st3" d="M24.2,184.8v4.1h-0.5v-4.1c0.1-0.6-0.1-1.3-0.4-1.9c-0.3-0.4-0.7-0.6-1.2-0.5c-0.6,0-1.1,0.2-1.6,0.6
					c-0.5,0.6-0.7,1.3-0.7,2v3.8h-0.5v-6.8h0.5v1.3c0.2-0.4,0.4-0.7,0.7-0.9c0.4-0.3,1-0.5,1.5-0.5c0.6,0,1.1,0.2,1.5,0.7
					C24,183.3,24.2,184,24.2,184.8z"/>
				<path class="st3" d="M26.7,186.2v-4.1h0.5v4.1c-0.1,0.6,0.1,1.3,0.4,1.9c0.3,0.4,0.7,0.6,1.2,0.5c0.6,0,1.1-0.2,1.6-0.6
					c0.5-0.6,0.7-1.3,0.7-2v-3.8h0.5v6.8H31v-1.3c-0.2,0.4-0.4,0.7-0.7,0.9c-0.4,0.3-1,0.5-1.5,0.5c-0.6,0-1.1-0.2-1.5-0.7
					C26.8,187.8,26.6,187,26.7,186.2z"/>
				<path class="st3" d="M38.8,183.6c0.2-0.5,0.5-0.9,0.9-1.2c0.4-0.3,0.9-0.4,1.4-0.4c0.5,0,1,0.2,1.3,0.6c0.4,0.7,0.6,1.5,0.5,2.2
					v4.1h-0.5v-4.1c0.1-0.7-0.1-1.3-0.4-1.9c-0.2-0.3-0.6-0.5-1-0.5c-0.6,0-1.1,0.2-1.6,0.6c-0.5,0.5-0.8,1.3-0.7,2v3.8h-0.5v-4.1
					c0.1-0.6-0.1-1.3-0.4-1.9c-0.2-0.3-0.6-0.5-1-0.5c-0.6,0-1.1,0.2-1.6,0.6c-0.5,0.5-0.8,1.3-0.7,2v3.8h-0.5v-6.8h0.5v1.3
					c0.2-0.4,0.5-0.8,0.9-1.1c0.4-0.3,0.9-0.4,1.5-0.4c0.4,0,0.8,0.1,1.1,0.4C38.5,182.7,38.7,183.1,38.8,183.6z"/>
				<path class="st3" d="M46.2,183.7c0.2-0.5,0.4-0.9,0.8-1.2c0.3-0.3,0.8-0.5,1.2-0.5c0.8,0,1.5,0.4,1.9,1c1,1.6,1,3.6,0,5.2
					c-0.4,0.6-1.1,1-1.9,1c-0.5,0-0.9-0.2-1.2-0.5c-0.4-0.3-0.6-0.7-0.8-1.2v1.5h-0.5v-9.4h0.5V183.7z M50.3,185.5
					c0.1-0.8-0.2-1.7-0.7-2.4c-0.6-0.8-1.6-0.9-2.4-0.4c-0.1,0.1-0.3,0.2-0.4,0.4c-0.9,1.5-0.9,3.3,0,4.7c0.6,0.8,1.6,0.9,2.4,0.4
					c0.1-0.1,0.3-0.2,0.4-0.4C50.1,187.2,50.4,186.4,50.3,185.5z"/>
				<path class="st3" d="M58.1,185.2v0.4h-4.9c-0.1,0.8,0.1,1.6,0.6,2.3c0.5,0.5,1.2,0.8,2,0.7c0.3,0,0.6-0.1,0.9-0.2
					c0.4-0.1,0.8-0.3,1.1-0.5v0.6c-0.4,0.2-0.8,0.3-1.2,0.4c-0.3,0.1-0.6,0.1-0.9,0.1c-0.8,0.1-1.7-0.2-2.2-0.8
					c-0.6-0.7-0.9-1.7-0.8-2.6c-0.1-1,0.2-1.9,0.7-2.7c0.5-0.6,1.3-1,2.1-0.9c0.7,0,1.5,0.3,1.9,0.9
					C57.9,183.6,58.1,184.4,58.1,185.2z M57.6,185.1c0.1-0.7-0.2-1.5-0.6-2.1c-0.4-0.4-0.9-0.6-1.4-0.6c-0.6,0-1.2,0.2-1.6,0.6
					c-0.5,0.6-0.7,1.3-0.7,2.1H57.6z"/>
				<path class="st3" d="M63.8,182.6c-0.1-0.1-0.2-0.1-0.3-0.1c-0.2,0-0.3,0-0.5,0c-0.6,0-1.2,0.3-1.6,0.8c-0.4,0.6-0.6,1.4-0.5,2.1
					v3.6h-0.5v-6.8h0.5v1.3c0.2-0.4,0.4-0.7,0.7-0.9c0.4-0.3,1-0.5,1.5-0.5c0.1,0,0.3,0,0.4,0c0.1,0,0.2,0,0.3,0L63.8,182.6z"/>
				<path class="st3" d="M71.2,182c0.8,0,1.5,0.3,1.9,1c0.5,0.8,0.8,1.7,0.7,2.6c0.1,0.9-0.2,1.9-0.7,2.6c-0.4,0.6-1.2,1-1.9,1
					c-0.8,0-1.5-0.3-2-1c-0.5-0.8-0.8-1.7-0.7-2.6c0-0.9,0.2-1.8,0.7-2.6C69.7,182.3,70.4,181.9,71.2,182z M71.2,182.4
					c-0.6,0-1.2,0.3-1.5,0.8c-0.4,0.7-0.6,1.4-0.6,2.2c0,0.8,0.2,1.6,0.6,2.3c0.6,0.9,1.7,1.1,2.6,0.5c0.2-0.1,0.4-0.3,0.5-0.5
					c0.4-0.7,0.6-1.5,0.6-2.3c0-0.8-0.2-1.6-0.6-2.2C72.4,182.8,71.8,182.4,71.2,182.4z"/>
				<path class="st3" d="M78.8,179.5v0.5h-0.7c-0.3,0-0.7,0.1-0.9,0.3c-0.3,0.4-0.4,0.8-0.4,1.2v0.6h1.7v0.5h-1.7v6.3h-0.5v-6.3h-1
					v-0.5h1v-0.5c-0.1-0.6,0.1-1.2,0.5-1.6c0.3-0.4,0.8-0.5,1.3-0.5L78.8,179.5z"/>
			</g>
			<g>
				<path class="st3" d="M84,179.9h2.4c0.6,0,1.2,0.2,1.6,0.6c0.4,0.5,0.6,1.1,0.6,1.7c0.1,0.9-0.2,1.7-0.8,2.3
					c-0.6,0.6-1.4,0.9-2.3,0.8h-1.3l-0.6,3.6h-1L84,179.9z M84.9,180.9l-0.6,3.4h1.3c0.5,0,1-0.2,1.4-0.5c0.3-0.4,0.5-1,0.5-1.5
					c0-0.4-0.1-0.7-0.3-1c-0.2-0.2-0.6-0.4-0.9-0.4L84.9,180.9z"/>
				<path class="st3" d="M94.3,185l-0.6,3.9h-1l0.2-1c-0.2,0.4-0.6,0.7-0.9,0.9c-0.4,0.2-0.8,0.3-1.2,0.3c-0.5,0-0.9-0.2-1.2-0.5
					c-0.3-0.4-0.5-0.9-0.5-1.4c0-0.7,0.3-1.4,0.8-1.9c0.6-0.5,1.4-0.7,2.2-0.7h1.3l0.1-0.3c0,0,0-0.1,0-0.1c0,0,0-0.1,0-0.2
					c0-0.3-0.1-0.6-0.4-0.8c-0.3-0.2-0.7-0.3-1.1-0.3c-0.3,0-0.6,0-1,0.1c-0.3,0.1-0.7,0.2-1,0.4l0.2-1c0.3-0.2,0.7-0.3,1.1-0.4
					c0.3-0.1,0.7-0.1,1-0.1c0.6,0,1.1,0.1,1.6,0.5c0.4,0.4,0.6,1,0.5,1.5c0,0.1,0,0.3,0,0.5S94.3,184.8,94.3,185z M93.3,185.5h-1
					c-0.6,0-1.2,0.1-1.7,0.4c-0.4,0.3-0.6,0.7-0.6,1.1c0,0.3,0.1,0.6,0.3,0.8c0.2,0.2,0.5,0.3,0.8,0.3c0.5,0,1-0.2,1.4-0.7
					c0.4-0.5,0.7-1.1,0.8-1.7L93.3,185.5z"/>
				<path class="st3" d="M97.4,183.1c0.2-0.4,0.5-0.7,0.9-0.9c0.4-0.2,0.7-0.3,1.2-0.3c0.5,0,1.1,0.2,1.4,0.7
					c0.4,0.6,0.5,1.2,0.5,1.9c0,0.7-0.1,1.3-0.3,1.9c-0.2,0.6-0.5,1.1-0.9,1.6c-0.2,0.3-0.5,0.6-0.9,0.7c-0.3,0.2-0.7,0.3-1,0.3
					c-0.4,0-0.7-0.1-1-0.3c-0.3-0.2-0.5-0.5-0.6-0.9l-0.6,3.6h-0.9l1.6-9.4h0.9L97.4,183.1z M100.3,184.7c0-0.5-0.1-1-0.3-1.4
					c-0.2-0.3-0.6-0.5-0.9-0.5c-0.3,0-0.6,0.1-0.8,0.3c-0.3,0.2-0.5,0.4-0.7,0.7c-0.2,0.4-0.4,0.8-0.5,1.2c-0.1,0.4-0.2,0.9-0.2,1.3
					c0,0.5,0.1,0.9,0.3,1.3c0.2,0.3,0.6,0.5,0.9,0.5c0.3,0,0.6-0.1,0.8-0.2c0.3-0.2,0.5-0.4,0.7-0.7c0.2-0.4,0.4-0.8,0.5-1.2
					C100.3,185.6,100.3,185.2,100.3,184.7L100.3,184.7z"/>
				<path class="st3" d="M107.7,185.8h-4.4c0,0.2,0,0.3,0,0.4s0,0.2,0,0.2c0,0.5,0.1,0.9,0.4,1.3c0.3,0.3,0.8,0.5,1.2,0.5
					c0.4,0,0.8-0.1,1.2-0.2c0.4-0.1,0.7-0.3,1-0.5l-0.2,1.1c-0.3,0.2-0.7,0.3-1.1,0.4c-0.4,0.1-0.7,0.1-1.1,0.1
					c-0.7,0-1.4-0.2-1.8-0.7c-0.5-0.5-0.7-1.2-0.6-1.9c0-0.7,0.1-1.3,0.3-2c0.2-0.6,0.5-1.2,0.9-1.6c0.3-0.3,0.6-0.5,1-0.7
					c0.4-0.2,0.8-0.2,1.2-0.2c0.6,0,1.2,0.2,1.6,0.7c0.4,0.5,0.6,1.2,0.6,1.9c0,0.2,0,0.4,0,0.6S107.8,185.5,107.7,185.8z
					 M106.9,184.9c0-0.1,0-0.1,0-0.2s0-0.1,0-0.2c0-0.4-0.1-0.8-0.4-1.2c-0.3-0.3-0.6-0.4-1-0.4c-0.5,0-0.9,0.2-1.2,0.5
					c-0.4,0.4-0.7,0.9-0.8,1.5L106.9,184.9z"/>
				<path class="st3" d="M113,183.1c-0.1-0.1-0.2-0.1-0.3-0.1c-0.1,0-0.3,0-0.4,0c-0.5,0-1,0.3-1.3,0.7c-0.4,0.5-0.7,1.1-0.8,1.8
					l-0.6,3.5h-0.9l1.1-6.8h1l-0.2,1.1c0.2-0.4,0.5-0.7,0.9-0.9c0.3-0.2,0.7-0.3,1.1-0.3c0.1,0,0.2,0,0.3,0c0.1,0,0.2,0,0.3,0.1
					L113,183.1z"/>
				<path class="st3" d="M117.9,182.3l-0.2,1.1c-0.5-0.3-1.1-0.5-1.7-0.5c-0.4,0-0.8,0.1-1.2,0.3c-0.3,0.2-0.4,0.5-0.4,0.8
					c0,0.4,0.3,0.7,1,0.9l0.1,0l0.3,0.1c0.5,0.1,0.9,0.3,1.3,0.6c0.2,0.3,0.3,0.6,0.3,0.9c0,0.7-0.2,1.3-0.7,1.8
					c-0.5,0.5-1.2,0.7-1.9,0.7c-0.3,0-0.6,0-1-0.1c-0.4-0.1-0.7-0.2-1.1-0.3l0.2-1.2c0.3,0.2,0.7,0.4,1,0.5c0.3,0.1,0.6,0.2,1,0.2
					c0.4,0,0.8-0.1,1.1-0.4c0.3-0.2,0.4-0.5,0.4-0.9c0-0.4-0.4-0.7-1.1-0.9l-0.1,0l-0.3-0.1c-0.4-0.1-0.8-0.3-1.1-0.6
					c-0.2-0.3-0.3-0.6-0.3-0.9c0-0.6,0.2-1.3,0.7-1.7c0.5-0.4,1.2-0.7,1.9-0.6c0.3,0,0.6,0,0.9,0.1
					C117.3,182.1,117.6,182.2,117.9,182.3z"/>
			</g>
			<g>
				<path class="st3" d="M127.5,185v3.9H127v-1.8c-0.2,0.7-0.6,1.3-1.2,1.7c-0.4,0.2-0.7,0.3-1.2,0.3c-0.6,0-1.1-0.2-1.5-0.5
					c-0.4-0.4-0.6-1-0.6-1.6c0-0.6,0.2-1.3,0.7-1.7c0.7-0.5,1.5-0.7,2.3-0.6h1.3v-0.1c0-0.5-0.2-1.1-0.5-1.5c-0.4-0.4-1-0.6-1.6-0.6
					c-0.4,0-0.8,0.1-1.1,0.2c-0.3,0.1-0.7,0.3-1,0.6v-0.6c0.3-0.2,0.6-0.4,1-0.5c0.4-0.1,0.8-0.2,1.2-0.2c0.7,0,1.4,0.2,1.9,0.7
					C127.4,183.4,127.6,184.2,127.5,185z M125.6,185.1c-0.6-0.1-1.3,0.1-1.8,0.5c-0.4,0.4-0.6,0.9-0.6,1.4c0,0.5,0.1,0.9,0.5,1.3
					c0.3,0.3,0.7,0.4,1.1,0.4c0.7,0,1.4-0.4,1.7-1.1c0.3-0.6,0.5-1.3,0.5-2v-0.4L125.6,185.1z"/>
				<path class="st3" d="M130.7,180.2v1.9h2.2v0.5h-2.2v4.1c0,0.4,0,0.7,0.2,1.1c0.2,0.4,0.7,0.7,1.1,0.7h0.8v0.5h-0.8
					c-0.5,0-1-0.2-1.3-0.5c-0.4-0.5-0.6-1.1-0.6-1.8v-4.1h-0.8v-0.5h0.8v-1.9H130.7z"/>
				<path class="st3" d="M139.1,180.2v1.9h2.2v0.5h-2.2v4.1c0,0.4,0,0.7,0.2,1.1c0.2,0.4,0.7,0.7,1.1,0.7h0.8v0.5h-0.8
					c-0.5,0-1-0.2-1.3-0.5c-0.4-0.5-0.6-1.1-0.6-1.8v-4.1h-0.8v-0.5h0.8v-1.9H139.1z"/>
				<path class="st3" d="M148,184.8v4.1h-0.5v-4.1c0.1-0.6-0.1-1.3-0.4-1.9c-0.3-0.4-0.8-0.6-1.3-0.5c-0.6,0-1.1,0.2-1.5,0.6
					c-0.4,0.6-0.6,1.3-0.6,2v3.8h-0.5v-9.4h0.5v3.9c0.1-0.4,0.4-0.7,0.7-0.9c0.4-0.4,1-0.5,1.6-0.5c0.6,0,1.2,0.2,1.5,0.7
					C147.8,183.3,148,184.1,148,184.8z"/>
				<path class="st3" d="M155.6,185.2v0.4h-4.9c-0.1,0.8,0.1,1.6,0.6,2.3c0.5,0.5,1.2,0.8,2,0.7c0.3,0,0.6-0.1,0.9-0.2
					c0.4-0.1,0.8-0.3,1.1-0.5v0.6c-0.4,0.2-0.8,0.3-1.2,0.4c-0.3,0.1-0.6,0.1-0.9,0.1c-0.8,0.1-1.7-0.2-2.2-0.8
					c-0.6-0.7-0.9-1.7-0.8-2.6c-0.1-1,0.2-1.9,0.7-2.7c0.5-0.6,1.3-1,2.1-0.9c0.7,0,1.5,0.3,1.9,0.9
					C155.4,183.6,155.6,184.4,155.6,185.2z M155,185.1c0.1-0.7-0.2-1.5-0.6-2.1c-0.4-0.4-0.9-0.6-1.4-0.6c-0.6,0-1.2,0.2-1.6,0.6
					c-0.5,0.6-0.7,1.3-0.7,2.1H155z"/>
			</g>
			<g>
				<path class="st3" d="M24.3,198.9v0.4h-4.9c-0.1,0.8,0.1,1.6,0.6,2.3c0.5,0.5,1.2,0.8,2,0.7c0.3,0,0.6-0.1,0.9-0.2
					c0.4-0.1,0.8-0.3,1.1-0.5v0.6c-0.4,0.2-0.8,0.3-1.2,0.4c-0.3,0.1-0.6,0.1-0.9,0.1c-0.8,0.1-1.7-0.2-2.2-0.8
					c-0.6-0.8-0.9-1.7-0.8-2.6c-0.1-1,0.2-1.9,0.7-2.7c0.5-0.6,1.3-1,2.1-0.9c0.7,0,1.5,0.3,1.9,0.9
					C24.1,197.2,24.4,198.1,24.3,198.9z M23.8,198.8c0.1-0.7-0.2-1.5-0.6-2.1c-0.4-0.4-0.9-0.6-1.4-0.6c-0.6,0-1.2,0.2-1.6,0.6
					c-0.5,0.6-0.7,1.3-0.7,2.1H23.8z"/>
				<path class="st3" d="M31.4,198.5v4.1h-0.5v-4.1c0.1-0.6-0.1-1.3-0.4-1.9c-0.3-0.4-0.7-0.6-1.2-0.5c-0.6,0-1.1,0.2-1.6,0.6
					c-0.5,0.6-0.7,1.3-0.7,2v3.8h-0.5v-6.8h0.5v1.3c0.2-0.4,0.4-0.7,0.7-0.9c0.4-0.3,1-0.5,1.5-0.5c0.6,0,1.1,0.2,1.5,0.7
					C31.3,197,31.5,197.7,31.4,198.5z"/>
				<path class="st3" d="M38.3,197.4v-4.2h0.5v9.4h-0.5v-1.5c-0.2,0.5-0.4,0.9-0.8,1.2c-0.3,0.3-0.8,0.5-1.2,0.5
					c-0.8,0-1.5-0.4-1.9-1c-1-1.6-1-3.6,0-5.2c0.4-0.6,1.1-1,1.9-1c0.5,0,0.9,0.2,1.2,0.5C37.8,196.5,38.1,196.9,38.3,197.4z
					 M34.2,199.2c-0.1,0.8,0.2,1.7,0.7,2.4c0.6,0.8,1.6,0.9,2.4,0.4c0.1-0.1,0.3-0.2,0.4-0.4c0.9-1.5,0.9-3.3,0-4.7
					c-0.6-0.8-1.6-0.9-2.4-0.4c-0.1,0.1-0.3,0.2-0.4,0.4C34.3,197.5,34.1,198.4,34.2,199.2z"/>
				<path class="st3" d="M47.4,195.7c0.8,0,1.5,0.3,1.9,1c0.5,0.8,0.8,1.7,0.7,2.6c0.1,0.9-0.2,1.9-0.7,2.6c-0.4,0.6-1.2,1-1.9,1
					c-0.8,0-1.5-0.3-2-1c-0.5-0.8-0.8-1.7-0.7-2.6c0-0.9,0.2-1.8,0.7-2.6C45.9,196,46.7,195.6,47.4,195.7z M47.5,196.1
					c-0.6,0-1.2,0.3-1.5,0.8c-0.4,0.7-0.6,1.4-0.6,2.2c0,0.8,0.2,1.6,0.6,2.3c0.6,0.9,1.7,1.1,2.6,0.5c0.2-0.1,0.4-0.3,0.5-0.5
					c0.4-0.7,0.6-1.5,0.6-2.3c0-0.8-0.2-1.6-0.6-2.2C48.7,196.4,48.1,196.1,47.5,196.1z"/>
				<path class="st3" d="M55.1,193.2v0.5h-0.7c-0.3,0-0.7,0.1-0.9,0.3c-0.3,0.4-0.4,0.8-0.4,1.2v0.6h1.7v0.5h-1.7v6.3h-0.5v-6.3h-1
					v-0.5h1v-0.5c-0.1-0.6,0.1-1.2,0.5-1.6c0.3-0.4,0.8-0.5,1.3-0.5L55.1,193.2z"/>
				<path class="st3" d="M60.8,193.9v1.9H63v0.5h-2.2v4.1c0,0.4,0,0.7,0.2,1.1c0.2,0.4,0.7,0.7,1.1,0.7H63v0.5h-0.8
					c-0.5,0-1-0.2-1.3-0.5c-0.4-0.5-0.6-1.1-0.6-1.8v-4.1h-0.8v-0.5h0.8v-1.9H60.8z"/>
				<path class="st3" d="M69.7,198.5v4.1h-0.5v-4.1c0.1-0.6-0.1-1.3-0.4-1.9c-0.3-0.4-0.8-0.6-1.3-0.5c-0.6,0-1.1,0.2-1.5,0.6
					c-0.4,0.6-0.6,1.3-0.6,2v3.8h-0.5v-9.4h0.5v3.9c0.1-0.4,0.4-0.7,0.7-0.9c0.4-0.4,1-0.5,1.6-0.5c0.6,0,1.2,0.2,1.5,0.7
					C69.5,197,69.7,197.8,69.7,198.5z"/>
				<path class="st3" d="M77.3,198.9v0.4h-4.9c-0.1,0.8,0.1,1.6,0.6,2.3c0.5,0.5,1.2,0.8,2,0.7c0.3,0,0.6-0.1,0.9-0.2
					c0.4-0.1,0.8-0.3,1.1-0.5v0.6c-0.4,0.2-0.8,0.3-1.2,0.4c-0.3,0.1-0.6,0.1-0.9,0.1c-0.8,0.1-1.7-0.2-2.2-0.8
					c-0.6-0.8-0.9-1.7-0.8-2.6c-0.1-1,0.2-1.9,0.7-2.7c0.5-0.6,1.3-1,2.1-0.9c0.7,0,1.5,0.3,1.9,0.9
					C77.1,197.2,77.3,198.1,77.3,198.9z M76.8,198.8c0.1-0.7-0.2-1.5-0.6-2.1c-0.4-0.4-0.9-0.6-1.4-0.6c-0.6,0-1.2,0.2-1.6,0.6
					c-0.5,0.6-0.7,1.3-0.7,2.1H76.8z"/>
				<path class="st3" d="M88,201.8c0,1.4-0.3,2.3-0.8,2.8c-0.5,0.4-1.2,0.7-1.9,0.7c-0.4,0-0.7,0-1-0.1c-0.3-0.1-0.6-0.2-1-0.3v-0.6
					c0.3,0.2,0.6,0.3,0.9,0.4c0.3,0.1,0.6,0.1,0.9,0.1c0.6,0,1.1-0.1,1.6-0.4c0.5-0.3,0.7-1.1,0.7-2.3v-1.1
					c-0.1,0.4-0.3,0.8-0.6,1.1c-0.4,0.4-0.9,0.6-1.4,0.6c-0.7,0-1.5-0.3-1.9-0.9c-0.9-1.6-0.9-3.5,0-5.1c0.4-0.6,1.2-0.9,1.9-0.9
					c0.5,0,1,0.2,1.3,0.5c0.3,0.3,0.6,0.7,0.7,1.1v-1.4H88V201.8z M87.5,199.1c0-0.8-0.1-1.5-0.5-2.2c-0.6-0.8-1.8-1-2.6-0.4
					c-0.2,0.1-0.3,0.3-0.4,0.4c-0.7,1.4-0.7,3,0,4.4c0.6,0.8,1.8,1,2.6,0.4c0.2-0.1,0.3-0.3,0.4-0.4
					C87.4,200.7,87.5,199.9,87.5,199.1L87.5,199.1z"/>
				<path class="st3" d="M94.8,198.7v3.9h-0.5v-1.8c-0.2,0.7-0.6,1.3-1.2,1.7c-0.4,0.2-0.7,0.3-1.2,0.3c-0.6,0-1.1-0.2-1.5-0.5
					c-0.4-0.4-0.6-1-0.6-1.6c0-0.6,0.2-1.3,0.7-1.7c0.7-0.5,1.5-0.7,2.3-0.6h1.3v-0.1c0-0.5-0.2-1.1-0.5-1.5c-0.4-0.4-1-0.6-1.6-0.6
					c-0.4,0-0.8,0.1-1.1,0.2c-0.3,0.1-0.7,0.3-1,0.6v-0.6c0.3-0.2,0.6-0.4,1-0.5c0.4-0.1,0.8-0.2,1.2-0.2c0.7,0,1.4,0.2,1.9,0.7
					C94.7,197.1,94.9,197.9,94.8,198.7z M92.9,198.8c-0.6-0.1-1.3,0.1-1.8,0.5c-0.4,0.4-0.6,0.9-0.6,1.4c0,0.5,0.1,0.9,0.5,1.3
					c0.3,0.3,0.7,0.4,1.1,0.4c0.7,0,1.4-0.4,1.7-1.1c0.3-0.6,0.5-1.3,0.5-2v-0.4L92.9,198.8z"/>
				<path class="st3" d="M102.1,197.3c0.2-0.5,0.5-0.9,0.9-1.2c0.4-0.3,0.9-0.4,1.4-0.4c0.5,0,1,0.2,1.3,0.6
					c0.4,0.7,0.6,1.5,0.5,2.2v4.1h-0.5v-4.1c0.1-0.7-0.1-1.3-0.4-1.9c-0.2-0.3-0.6-0.5-1-0.5c-0.6,0-1.1,0.2-1.6,0.6
					c-0.5,0.5-0.8,1.3-0.7,2v3.8h-0.5v-4.1c0.1-0.6-0.1-1.3-0.4-1.9c-0.2-0.3-0.6-0.5-1-0.5c-0.6,0-1.1,0.2-1.6,0.6
					c-0.5,0.5-0.8,1.3-0.7,2v3.8h-0.5v-6.8H98v1.3c0.2-0.4,0.5-0.8,0.9-1.1c0.4-0.3,0.9-0.4,1.5-0.4c0.4,0,0.8,0.1,1.1,0.4
					C101.8,196.4,102,196.8,102.1,197.3z"/>
				<path class="st3" d="M113.9,198.9v0.4H109c-0.1,0.8,0.1,1.6,0.6,2.3c0.5,0.5,1.2,0.8,2,0.7c0.3,0,0.6-0.1,0.9-0.2
					c0.4-0.1,0.8-0.3,1.1-0.5v0.6c-0.4,0.2-0.8,0.3-1.2,0.4c-0.3,0.1-0.6,0.1-0.9,0.1c-0.8,0.1-1.7-0.2-2.2-0.8
					c-0.6-0.8-0.9-1.7-0.8-2.6c-0.1-1,0.2-1.9,0.7-2.7c0.5-0.6,1.3-1,2.1-0.9c0.7,0,1.5,0.3,1.9,0.9
					C113.7,197.2,114,198.1,113.9,198.9z M113.4,198.8c0.1-0.7-0.2-1.5-0.6-2.1c-0.4-0.4-0.9-0.6-1.4-0.6c-0.6,0-1.2,0.2-1.6,0.6
					c-0.5,0.6-0.7,1.3-0.7,2.1H113.4z"/>
				<path class="st3" d="M116.4,201.8h0.6v0.8h-0.6V201.8z"/>
				<path class="st3" d="M125.9,193.6h0.8l3.3,9h-0.7l-1-2.8h-4l-1,2.8h-0.6L125.9,193.6z M126.3,194.2l-1.8,5.1h3.6L126.3,194.2z"
					/>
				<path class="st3" d="M135.9,193.9v1.9h2.2v0.5h-2.2v4.1c0,0.4,0,0.7,0.2,1.1c0.2,0.4,0.7,0.7,1.1,0.7h0.8v0.5h-0.8
					c-0.5,0-1-0.2-1.3-0.5c-0.4-0.5-0.6-1.1-0.5-1.8v-4.1h-0.8v-0.5h0.8v-1.9H135.9z"/>
				<path class="st3" d="M140,193.2h0.5v0.8H140V193.2z M140,195.8h0.5v6.8H140V195.8z"/>
				<path class="st3" d="M148.2,198.9v0.4h-4.9c-0.1,0.8,0.1,1.6,0.6,2.3c0.5,0.5,1.2,0.8,2,0.7c0.3,0,0.6-0.1,0.9-0.2
					c0.4-0.1,0.8-0.3,1.1-0.5v0.6c-0.4,0.2-0.8,0.3-1.2,0.4c-0.3,0.1-0.6,0.1-0.9,0.1c-0.8,0.1-1.7-0.2-2.2-0.8
					c-0.6-0.8-0.9-1.7-0.8-2.6c-0.1-1,0.2-1.9,0.7-2.7c0.5-0.6,1.3-1,2.1-0.9c0.7,0,1.5,0.3,1.9,0.9
					C148.1,197.2,148.3,198.1,148.2,198.9z M147.7,198.8c0.1-0.7-0.2-1.5-0.6-2.1c-0.4-0.4-0.9-0.6-1.4-0.6c-0.6,0-1.2,0.2-1.6,0.6
					c-0.5,0.6-0.7,1.3-0.7,2.1H147.7z"/>
			</g>
			<g>
				<path class="st3" d="M23.6,211.2V207h0.5v9.4h-0.5v-1.5c-0.2,0.5-0.4,0.9-0.8,1.2c-0.3,0.3-0.8,0.5-1.2,0.5
					c-0.8,0-1.5-0.4-1.9-1c-1-1.6-1-3.6,0-5.2c0.4-0.6,1.1-1,1.9-1c0.5,0,0.9,0.2,1.2,0.5C23.2,210.3,23.4,210.7,23.6,211.2z
					 M19.5,213c-0.1,0.8,0.2,1.7,0.7,2.4c0.6,0.8,1.6,0.9,2.4,0.4c0.1-0.1,0.3-0.2,0.4-0.4c0.9-1.5,0.9-3.3,0-4.7
					c-0.6-0.8-1.6-0.9-2.4-0.4c-0.1,0.1-0.3,0.2-0.4,0.4C19.7,211.3,19.4,212.2,19.5,213L19.5,213z"/>
				<path class="st3" d="M29,209.5c0.8,0,1.5,0.3,1.9,1c0.5,0.8,0.8,1.7,0.7,2.6c0.1,0.9-0.2,1.9-0.7,2.6c-0.4,0.6-1.2,1-1.9,1
					c-0.8,0-1.5-0.3-2-1c-0.5-0.8-0.8-1.7-0.7-2.6c0-0.9,0.2-1.8,0.7-2.6C27.5,209.8,28.3,209.4,29,209.5z M29.1,209.9
					c-0.6,0-1.2,0.3-1.5,0.8c-0.4,0.7-0.6,1.4-0.6,2.2c0,0.8,0.2,1.6,0.6,2.3c0.6,0.9,1.7,1.1,2.6,0.5c0.2-0.1,0.4-0.3,0.5-0.5
					c0.4-0.7,0.6-1.5,0.6-2.3c0-0.8-0.2-1.6-0.6-2.2C30.3,210.3,29.7,209.9,29.1,209.9z"/>
				<path class="st3" d="M39,212.7v0.4h-4.9c-0.1,0.8,0.1,1.6,0.6,2.3c0.5,0.5,1.2,0.8,2,0.7c0.3,0,0.6-0.1,0.9-0.2
					c0.4-0.1,0.8-0.3,1.1-0.5v0.6c-0.4,0.2-0.8,0.3-1.2,0.4c-0.3,0.1-0.6,0.1-0.9,0.1c-0.8,0.1-1.7-0.2-2.2-0.8
					c-0.6-0.7-0.9-1.7-0.8-2.6c-0.1-1,0.2-1.9,0.7-2.7c0.5-0.6,1.3-1,2.1-0.9c0.7,0,1.5,0.3,1.9,0.9C38.8,211.1,39,211.9,39,212.7z
					 M38.4,212.6c0.1-0.7-0.2-1.5-0.6-2.1c-0.4-0.4-0.9-0.6-1.4-0.6c-0.6,0-1.2,0.2-1.6,0.6c-0.5,0.6-0.7,1.3-0.7,2.1H38.4z"/>
				<path class="st3" d="M44.8,209.8v0.6c-0.2-0.1-0.5-0.3-0.7-0.4c-0.3-0.1-0.7-0.1-1-0.1c-0.5,0-1,0.1-1.4,0.4
					c-0.3,0.3-0.4,0.7-0.4,1.1c0,0.3,0.1,0.6,0.4,0.8c0.3,0.2,0.7,0.4,1.1,0.5l0.4,0.1c0.5,0.1,1,0.3,1.4,0.6
					c0.4,0.3,0.6,0.7,0.6,1.2c0,0.6-0.2,1.1-0.5,1.5c-0.5,0.4-1.2,0.6-1.8,0.5c-0.4,0-0.7,0-1.1-0.1c-0.3-0.1-0.6-0.2-0.9-0.3v-0.7
					c0.3,0.2,0.6,0.4,0.9,0.5c0.4,0.1,0.7,0.2,1.1,0.2c0.5,0,1-0.1,1.4-0.4c0.3-0.3,0.5-0.7,0.4-1.1c0-0.3-0.1-0.6-0.3-0.8
					c-0.4-0.3-0.9-0.5-1.4-0.6l-0.4-0.1c-0.4-0.1-0.9-0.3-1.2-0.6c-0.3-0.3-0.5-0.7-0.5-1.1c-0.1-0.6,0.2-1.2,0.6-1.5
					c0.5-0.3,1-0.5,1.6-0.5c0.4,0,0.7,0,1.1,0.1C44.4,209.6,44.6,209.7,44.8,209.8z"/>
				<path class="st3" d="M55.9,212.3v4.1h-0.5v-4.1c0.1-0.6-0.1-1.3-0.4-1.9c-0.3-0.4-0.7-0.6-1.2-0.5c-0.6,0-1.1,0.2-1.6,0.6
					c-0.5,0.6-0.7,1.3-0.7,2v3.8H51v-6.8h0.5v1.3c0.2-0.4,0.4-0.7,0.7-0.9c0.4-0.3,1-0.5,1.5-0.5c0.6,0,1.1,0.2,1.5,0.7
					C55.8,210.8,56,211.5,55.9,212.3z"/>
				<path class="st3" d="M60.7,209.5c0.8,0,1.5,0.3,1.9,1c0.5,0.8,0.8,1.7,0.7,2.6c0.1,0.9-0.2,1.9-0.7,2.6c-0.4,0.6-1.2,1-1.9,1
					c-0.8,0-1.5-0.3-2-1c-0.5-0.8-0.8-1.7-0.7-2.6c0-0.9,0.2-1.8,0.7-2.6C59.2,209.8,60,209.4,60.7,209.5z M60.8,209.9
					c-0.6,0-1.2,0.3-1.5,0.8c-0.4,0.7-0.6,1.4-0.6,2.2c0,0.8,0.2,1.6,0.6,2.3c0.6,0.9,1.7,1.1,2.6,0.5c0.2-0.1,0.4-0.3,0.5-0.5
					c0.4-0.7,0.6-1.5,0.6-2.3c0-0.8-0.2-1.6-0.6-2.2C62,210.3,61.4,209.9,60.8,209.9z"/>
				<path class="st3" d="M66.2,207.7v1.9h2.2v0.5h-2.2v4.1c0,0.4,0,0.7,0.2,1.1c0.2,0.4,0.7,0.7,1.1,0.7h0.8v0.5h-0.8
					c-0.5,0-1-0.2-1.3-0.5c-0.4-0.5-0.6-1.1-0.6-1.8v-4.1h-0.8v-0.5h0.8v-1.9H66.2z"/>
				<path class="st3" d="M78.4,209.9v0.6c-0.2-0.2-0.5-0.3-0.8-0.4c-0.3-0.1-0.7-0.2-1-0.2c-0.7-0.1-1.5,0.2-2,0.8
					c-0.8,1.4-0.8,3.2,0,4.7c0.5,0.5,1.2,0.8,2,0.8c0.3,0,0.6,0,0.9-0.1c0.3-0.1,0.6-0.2,0.9-0.4v0.6c-0.6,0.3-1.2,0.4-1.9,0.4
					c-0.8,0-1.6-0.2-2.2-0.8c-1.1-1.7-1.1-3.8,0-5.5c0.6-0.6,1.4-0.8,2.2-0.8c0.3,0,0.7,0,1,0.1C77.8,209.7,78.1,209.8,78.4,209.9z"
					/>
				<path class="st3" d="M82.7,209.5c0.8,0,1.5,0.3,1.9,1c0.5,0.8,0.8,1.7,0.7,2.6c0.1,0.9-0.2,1.9-0.7,2.6c-0.4,0.6-1.2,1-1.9,1
					c-0.8,0-1.5-0.3-2-1c-0.5-0.8-0.8-1.7-0.7-2.6c0-0.9,0.2-1.8,0.7-2.6C81.2,209.8,82,209.4,82.7,209.5z M82.7,209.9
					c-0.6,0-1.2,0.3-1.5,0.8c-0.4,0.7-0.6,1.4-0.6,2.2c0,0.8,0.2,1.6,0.6,2.3c0.6,0.9,1.7,1.1,2.6,0.5c0.2-0.1,0.4-0.3,0.5-0.5
					c0.4-0.7,0.6-1.5,0.6-2.3c0-0.8-0.2-1.6-0.6-2.2C83.9,210.3,83.4,209.9,82.7,209.9L82.7,209.9z"/>
				<path class="st3" d="M87.6,213.7v-4.1h0.5v4.1c-0.1,0.6,0.1,1.3,0.4,1.9c0.3,0.4,0.7,0.6,1.2,0.5c0.6,0,1.1-0.2,1.6-0.6
					c0.5-0.6,0.7-1.3,0.7-2v-3.8h0.5v6.8h-0.5v-1.3c-0.2,0.4-0.4,0.7-0.7,0.9c-0.4,0.3-1,0.5-1.5,0.5c-0.6,0-1.1-0.2-1.5-0.7
					C87.7,215.2,87.5,214.5,87.6,213.7z"/>
				<path class="st3" d="M99.9,212.3v4.1h-0.5v-4.1c0.1-0.6-0.1-1.3-0.4-1.9c-0.3-0.4-0.7-0.6-1.2-0.5c-0.6,0-1.1,0.2-1.6,0.6
					c-0.5,0.6-0.7,1.3-0.7,2v3.8h-0.5v-6.8h0.5v1.3c0.2-0.4,0.4-0.7,0.7-0.9c0.4-0.3,1-0.5,1.5-0.5c0.6,0,1.1,0.2,1.5,0.7
					C99.8,210.8,100,211.5,99.9,212.3z"/>
				<path class="st3" d="M103.1,207.7v1.9h2.2v0.5h-2.2v4.1c0,0.4,0,0.7,0.2,1.1c0.2,0.4,0.7,0.7,1.1,0.7h0.8v0.5h-0.8
					c-0.5,0-1-0.2-1.3-0.5c-0.4-0.5-0.6-1.1-0.6-1.8v-4.1h-0.8v-0.5h0.8v-1.9H103.1z"/>
				<path class="st3" d="M115.4,212.5v3.9h-0.5v-1.8c-0.2,0.7-0.6,1.3-1.2,1.7c-0.4,0.2-0.7,0.3-1.2,0.3c-0.6,0-1.1-0.2-1.5-0.5
					c-0.4-0.4-0.6-1-0.6-1.6c0-0.6,0.2-1.3,0.7-1.7c0.7-0.5,1.5-0.7,2.3-0.6h1.3V212c0-0.5-0.2-1.1-0.5-1.5c-0.4-0.4-1-0.6-1.6-0.6
					c-0.4,0-0.8,0.1-1.1,0.2c-0.3,0.1-0.7,0.3-1,0.6v-0.6c0.3-0.2,0.6-0.4,1-0.5c0.4-0.1,0.8-0.2,1.2-0.2c0.7,0,1.4,0.2,1.9,0.7
					C115.3,210.9,115.5,211.7,115.4,212.5z M113.4,212.6c-0.6-0.1-1.3,0.1-1.8,0.5c-0.4,0.4-0.6,0.9-0.6,1.4c0,0.5,0.1,0.9,0.5,1.3
					c0.3,0.3,0.7,0.4,1.1,0.4c0.7,0,1.4-0.4,1.7-1.1c0.3-0.6,0.5-1.3,0.5-2v-0.4L113.4,212.6z"/>
				<path class="st3" d="M121.7,209.8v0.6c-0.2-0.1-0.5-0.3-0.7-0.4c-0.3-0.1-0.7-0.1-1-0.1c-0.5,0-1,0.1-1.4,0.4
					c-0.3,0.3-0.4,0.7-0.4,1.1c0,0.3,0.1,0.6,0.4,0.8c0.3,0.2,0.7,0.4,1.1,0.5l0.4,0.1c0.5,0.1,1,0.3,1.4,0.6
					c0.4,0.3,0.6,0.7,0.6,1.2c0,0.6-0.2,1.1-0.5,1.5c-0.5,0.4-1.2,0.6-1.8,0.5c-0.4,0-0.7,0-1.1-0.1c-0.3-0.1-0.6-0.2-0.9-0.3v-0.7
					c0.3,0.2,0.6,0.4,0.9,0.5c0.4,0.1,0.7,0.2,1.1,0.2c0.5,0,1-0.1,1.4-0.4c0.3-0.3,0.5-0.7,0.4-1.1c0-0.3-0.1-0.6-0.3-0.8
					c-0.4-0.3-0.9-0.5-1.4-0.6l-0.4-0.1c-0.4-0.1-0.9-0.3-1.2-0.6c-0.3-0.3-0.5-0.7-0.5-1.1c-0.1-0.6,0.2-1.2,0.6-1.5
					c0.5-0.3,1-0.5,1.6-0.5c0.4,0,0.7,0,1.1,0.1C121.2,209.6,121.5,209.7,121.7,209.8z"/>
				<path class="st3" d="M132.4,212.5v3.9h-0.5v-1.8c-0.2,0.7-0.6,1.3-1.2,1.7c-0.4,0.2-0.7,0.3-1.2,0.3c-0.6,0-1.1-0.2-1.5-0.5
					c-0.4-0.4-0.6-1-0.6-1.6c0-0.6,0.2-1.3,0.7-1.7c0.7-0.5,1.5-0.7,2.3-0.6h1.3V212c0-0.5-0.2-1.1-0.5-1.5c-0.4-0.4-1-0.6-1.6-0.6
					c-0.4,0-0.8,0.1-1.1,0.2c-0.3,0.1-0.7,0.3-1,0.6v-0.6c0.3-0.2,0.6-0.4,1-0.5c0.4-0.1,0.8-0.2,1.2-0.2c0.7,0,1.4,0.2,1.9,0.7
					C132.3,210.9,132.5,211.7,132.4,212.5z M130.5,212.6c-0.6-0.1-1.3,0.1-1.8,0.5c-0.4,0.4-0.6,0.9-0.6,1.4c0,0.5,0.1,0.9,0.5,1.3
					c0.3,0.3,0.7,0.4,1.1,0.4c0.7,0,1.4-0.4,1.7-1.1c0.3-0.6,0.5-1.3,0.5-2v-0.4L130.5,212.6z"/>
				<path class="st3" d="M138.3,209.6h0.5l1.5,6l1.5-6h0.7l1.5,6.1l1.5-6.1h0.5l-1.7,6.8h-0.7l-1.5-5.9l-1.5,5.9h-0.7L138.3,209.6z"
					/>
				<path class="st3" d="M148.4,207h0.5v0.8h-0.5V207z M148.4,209.6h0.5v6.8h-0.5V209.6z"/>
				<path class="st3" d="M156.6,212.3v4.1H156v-4.1c0.1-0.6-0.1-1.3-0.4-1.9c-0.3-0.4-0.7-0.6-1.2-0.5c-0.6,0-1.1,0.2-1.6,0.6
					c-0.5,0.6-0.7,1.3-0.7,2v3.8h-0.5v-6.8h0.5v1.3c0.2-0.4,0.4-0.7,0.7-0.9c0.4-0.3,1-0.5,1.5-0.5c0.6,0,1.1,0.2,1.5,0.7
					C156.4,210.8,156.6,211.5,156.6,212.3z"/>
				<path class="st3" d="M159.4,215.6h0.6v0.8h-0.6V215.6z"/>
			</g>
		</g>
		<rect x="19.1" y="99" class="st2" width="160.9" height="54.6"/>
		<g>
			<g>
				<path class="st3" d="M57.2,110.1V99.8h1.9v10.2H57.2z"/>
				<path class="st3" d="M61,104l0.6-2c-0.4-0.2-0.7-0.6-0.7-1.1c0-0.6,0.5-1.2,1.1-1.2c0.6,0,1.2,0.5,1.2,1.1c0,0,0,0.1,0,0.1
					c0,0.2-0.1,0.5-0.1,0.7L62,104L61,104z"/>
				<path class="st3" d="M69.1,110.1v-4.4c0-1.3-0.6-1.8-1.5-1.8c-0.9,0-1.5,0.5-1.5,1.8v4.4h-1.8v-4.4c0-2.4,1.3-3.5,3.1-3.5
					c1,0,2,0.5,2.5,1.4h0c0.5-0.9,1.5-1.4,2.5-1.4c1.7,0,3.1,1.1,3.1,3.5v4.4h-1.8v-4.4c0-1.3-0.6-1.8-1.5-1.8
					c-0.8,0-1.5,0.5-1.5,1.8v4.4H69.1z"/>
				<path class="st3" d="M86.5,110.1v-4c0-1.5-0.7-2.2-1.9-2.2s-1.9,0.7-1.9,2.2v4H81v-4c0-2.6,1.5-3.9,3.6-3.9s3.6,1.3,3.6,3.9v4
					H86.5z"/>
				<path class="st3" d="M93.3,110.3c-2.3,0.1-4.1-1.7-4.2-3.9c-0.1-2.3,1.7-4.1,3.9-4.2c2.3-0.1,4.1,1.7,4.2,3.9c0,0,0,0.1,0,0.1
					c0.1,2.1-1.5,4-3.7,4.1C93.5,110.3,93.4,110.3,93.3,110.3z M95.5,106.2c-0.1-1.2-1.1-2.1-2.3-2c-1.2,0.1-2.1,1.1-2,2.3
					c0.1,1.1,1,2,2.2,2c1.2,0,2.2-0.9,2.2-2.1C95.5,106.4,95.5,106.3,95.5,106.2L95.5,106.2z"/>
				<path class="st3" d="M104.4,107.1c0,2.1-1.2,3.2-3,3.2s-3-1-3-3.2v-7.3h1.8v2.6h3.8v1.7h-3.8v3.1c0,1,0.5,1.4,1.2,1.4
					s1.2-0.4,1.2-1.4v-0.2h1.8L104.4,107.1z"/>
				<path class="st3" d="M111.5,110.1h-1.8V99h1.8v4.4h0c0.4-0.8,1.3-1.3,2.2-1.2c1.7,0,3.3,1.2,3.3,3.9v4h-1.8v-4
					c0-1.5-0.7-2.2-1.9-2.2c-1.1,0-1.9,0.7-1.9,2.2L111.5,110.1z"/>
				<path class="st3" d="M120,106.9L120,106.9c0.2,1,1.1,1.8,2.1,1.7c0.7,0.1,1.3-0.2,1.7-0.7h1.9c-0.6,1.5-2,2.5-3.6,2.4
					c-2.3,0.1-4.1-1.7-4.2-3.9s1.7-4.1,3.9-4.2c2.3-0.1,4.1,1.7,4.2,3.9c0,0.1,0,0.1,0,0.2v0.7H120z M120,105.4L120,105.4l4.1,0v0
					c-0.3-1.1-1.5-1.8-2.7-1.4C120.8,104.1,120.3,104.7,120,105.4z"/>
				<path class="st3" d="M131.8,105.7L131.8,105.7c0-1.3-0.6-1.8-1.5-1.8s-1.5,0.5-1.5,1.7v4.5h-1.8v-4.5c0-2.3,1.3-3.4,3.2-3.4
					s3.2,1.1,3.2,3.5v0L131.8,105.7z"/>
				<path class="st3" d="M136.1,106.9L136.1,106.9c0.2,1,1.1,1.8,2.1,1.7c0.7,0.1,1.3-0.2,1.7-0.7h1.9c-0.6,1.5-2,2.5-3.6,2.4
					c-2.3,0.1-4.1-1.7-4.2-3.9c-0.1-2.3,1.7-4.1,3.9-4.2c2.3-0.1,4.1,1.7,4.2,3.9c0,0.1,0,0.1,0,0.2v0.7H136.1z M136.1,105.4
					L136.1,105.4l4.1,0v0c-0.3-1.1-1.5-1.8-2.7-1.4C136.9,104.1,136.4,104.7,136.1,105.4z"/>
			</g>
			<g>
				<path class="st3" d="M47.2,122.8c0,2.1-1.2,3.2-3,3.2s-3-1-3-3.2v-7.3h1.8v2.6h3.8v1.7h-3.8v3.1c0,1,0.5,1.4,1.2,1.4
					s1.2-0.4,1.2-1.4v-0.2h1.8L47.2,122.8z"/>
				<path class="st3" d="M51.9,126c-2.3,0.1-4.1-1.7-4.2-3.9c-0.1-2.3,1.7-4.1,3.9-4.2c2.3-0.1,4.1,1.7,4.2,3.9c0,0,0,0.1,0,0.1
					c0.1,2.1-1.5,4-3.7,4.1C52.1,126,52,126,51.9,126z M54.1,121.9c-0.1-1.2-1.1-2.1-2.3-2c-1.2,0.1-2.1,1.1-2,2.3
					c0.1,1.1,1,2,2.2,2c1.2,0,2.2-0.9,2.2-2.1C54.1,122,54.1,122,54.1,121.9z"/>
				<path class="st3" d="M65.7,125.8v-4.4c0-1.3-0.6-1.8-1.5-1.8c-0.9,0-1.5,0.5-1.5,1.8v4.4H61v-4.4c0-2.4,1.3-3.5,3.1-3.5
					c1,0,2,0.5,2.5,1.4h0c0.5-0.9,1.5-1.4,2.5-1.4c1.7,0,3.1,1.1,3.1,3.5v4.4h-1.8v-4.4c0-1.3-0.6-1.8-1.5-1.8s-1.5,0.5-1.5,1.8v4.4
					H65.7z"/>
				<path class="st3" d="M81.2,125.8h-1.6v-1.4h0c-0.4,1-1.5,1.7-2.6,1.6c-1.8,0-3.6-1.3-3.6-4.1c-0.1-2.1,1.5-4,3.7-4.1
					c0.1,0,0.2,0,0.3,0c2.1-0.1,3.9,1.6,3.9,3.7c0,0.1,0,0.3,0,0.4L81.2,125.8z M79.4,121.9c-0.1-1.2-1.1-2.1-2.3-2
					c-1.2,0.1-2.1,1.1-2,2.3c0.1,1.1,1,2,2.2,2c1.2,0,2.2-0.9,2.2-2.1C79.5,122,79.4,122,79.4,121.9z"/>
				<path class="st3" d="M82.9,125.8v-11.1h1.8v6.7h0l2.9-3.4h2.3l-3.4,3.8l3.6,3.9h-2.3l-3-3.5h0v3.5L82.9,125.8z"/>
				<path class="st3" d="M92,122.6L92,122.6c0.2,1,1.1,1.8,2.1,1.7c0.7,0.1,1.3-0.2,1.7-0.7h1.9c-0.6,1.5-2,2.5-3.6,2.4
					c-2.3,0.1-4.1-1.7-4.2-3.9s1.7-4.1,3.9-4.2c2.3-0.1,4.1,1.7,4.2,3.9c0,0.1,0,0.1,0,0.2v0.7H92z M92.1,121.1L92.1,121.1l4.1,0v0
					c-0.3-1.1-1.5-1.8-2.7-1.4C92.8,119.8,92.3,120.4,92.1,121.1z"/>
				<path class="st3" d="M103.4,125.8v-7.9c0-2.3,1.3-3.4,3.2-3.4s3.2,1.1,3.2,3.4v0h-1.8v0c0-1.2-0.6-1.7-1.5-1.7s-1.5,0.5-1.5,1.7
					v1.3h3.8v1.7h-3.8v5H103.4z"/>
				<path class="st3" d="M114.9,121.4L114.9,121.4c0-1.3-0.6-1.8-1.5-1.8s-1.5,0.5-1.5,1.7v4.5h-1.8v-4.5c0-2.3,1.3-3.4,3.2-3.4
					s3.2,1.1,3.2,3.5v0H114.9z"/>
				<path class="st3" d="M117.5,115.9c0-0.6,0.4-1.2,1.1-1.2c0.6,0,1.2,0.4,1.2,1.1c0,0.1,0,0.1,0,0.2c0,0.6-0.5,1.2-1.1,1.2
					s-1.2-0.5-1.2-1.1C117.5,116,117.5,115.9,117.5,115.9z M117.8,125.8V118h1.8v7.7H117.8z"/>
				<path class="st3" d="M122.9,122.6L122.9,122.6c0.2,1,1.1,1.8,2.1,1.7c0.7,0.1,1.3-0.2,1.7-0.7h1.9c-0.6,1.5-2,2.5-3.6,2.4
					c-2.3,0.1-4.1-1.7-4.2-3.9s1.7-4.1,3.9-4.2c2.3-0.1,4.1,1.7,4.2,3.9c0,0.1,0,0.1,0,0.2v0.7H122.9z M122.9,121.1L122.9,121.1
					l4.1,0v0c-0.3-1.1-1.5-1.8-2.7-1.4C123.7,119.8,123.1,120.4,122.9,121.1z"/>
				<path class="st3" d="M135.5,125.8v-4c0-1.5-0.7-2.2-1.9-2.2s-1.9,0.7-1.9,2.2v4H130v-4c0-2.6,1.5-3.9,3.6-3.9s3.6,1.3,3.6,3.9v4
					H135.5z"/>
				<path class="st3" d="M146.3,121.8c0.2,2.1-1.4,3.9-3.5,4.1c-0.1,0-0.3,0-0.4,0c-2.1,0-3.9-1.7-3.9-3.8c0-0.1,0-0.2,0-0.3
					c0-2.7,1.9-4.1,3.6-4.1c1,0,1.9,0.5,2.4,1.3h0v-4.5h1.8V121.8z M144.5,121.9c-0.1-1.2-1.1-2.1-2.3-2s-2.1,1.1-2,2.3
					c0.1,1.1,1,2,2.2,2c1.2,0,2.2-0.9,2.2-2.1C144.5,122,144.5,122,144.5,121.9L144.5,121.9z"/>
				<path class="st3" d="M151.7,120.3c0-0.5-0.5-0.8-1.1-0.8c-0.8,0-1.2,0.4-1.2,0.9c0,1.4,4.2-0.1,4.2,3.1c0,1.5-1.2,2.5-3.1,2.5
					s-3-1.1-3.1-2.5h1.8c0,0.5,0.4,0.9,1.3,0.9c0.9,0,1.3-0.4,1.3-0.9c0-1.4-4.2,0.2-4.2-3.1c0-1.5,1.1-2.5,2.9-2.5
					c1.4-0.2,2.7,0.9,2.9,2.3c0,0,0,0.1,0,0.1H151.7z"/>
				<path class="st3" d="M154.7,124.7c0-0.6,0.6-1.1,1.2-1.1s1.1,0.6,1.1,1.2c0,0.6-0.5,1.1-1.2,1.1
					C155.2,126,154.7,125.4,154.7,124.7C154.7,124.8,154.7,124.8,154.7,124.7z"/>
			</g>
		</g>
		<g>
			<g>
				<path d="M152.1,69.8v-9.4h-3.3v-2.1h8.6v2.1h-3.3v9.4H152.1z"/>
				<path d="M166.4,69.8V65h-5.2v4.8H159V58.3h2.1v4.6h5.2v-4.6h2.1v11.5H166.4z"/>
				<path d="M172.9,64.9v2.8h5.9v2.1h-8V58.3h8v2.1h-5.9v2.6h4.9v2L172.9,64.9z"/>
			</g>
			<g>
				<path d="M81.9,76.8c-0.5-1.4-1.9-2.4-3.4-2.3c-2.2,0.2-3.8,2-3.6,4.2c0.1,1.9,1.7,3.5,3.6,3.6c1.5,0,2.9-0.9,3.4-2.3h2.3
					c-0.6,2.6-2.9,4.5-5.6,4.4c-3.3,0-6-2.7-6-6s2.7-6,6-6c2.7-0.1,5.1,1.8,5.6,4.4L81.9,76.8z"/>
				<path d="M91,84.4c-3.3,0.1-6.1-2.5-6.2-5.8s2.5-6.1,5.8-6.2c3.3-0.1,6.1,2.5,6.2,5.8c0,0.1,0,0.1,0,0.2c0.2,3.1-2.2,5.8-5.4,6
					C91.3,84.4,91.2,84.4,91,84.4z M94.7,78.4c-0.1-2-1.9-3.5-3.9-3.4c-2,0.1-3.5,1.9-3.4,3.9c0.1,1.9,1.7,3.4,3.6,3.4
					c2,0,3.6-1.6,3.6-3.6C94.7,78.6,94.7,78.5,94.7,78.4L94.7,78.4z"/>
				<path d="M100.4,84.2h-2.1v-7.4c0-3,1.7-4.3,3.8-4.3c1.3-0.1,2.5,0.6,3.1,1.7h0c0.6-1.1,1.8-1.8,3.1-1.7c2.2,0,3.8,1.4,3.8,4.3
					v7.4h-2.1v-7.4c0-1.6-0.8-2.2-1.9-2.2s-1.9,0.7-1.9,2.2v7.4h-2.1v-7.4c0-1.6-0.8-2.2-1.9-2.2s-1.9,0.7-1.9,2.2L100.4,84.2z"/>
				<path d="M114.1,84.2V72.7h4.5c2.8,0,4.1,1.7,4.1,3.9s-1.3,3.9-4.1,3.9h-2.3v3.7L114.1,84.2z M118.5,78.4
					c0.9,0.1,1.7-0.5,1.9-1.4c0-0.2,0-0.3,0-0.5c0-1-0.5-1.8-1.9-1.8h-2.4v3.6L118.5,78.4z"/>
				<path d="M126.2,79.3v2.8h5.9v2.1h-8V72.7h8v2.1h-5.9v2.6h4.9v2H126.2z"/>
				<path d="M136.6,84.2v-9.4h-3.3v-2.1h8.6v2.1h-3.3v9.4L136.6,84.2z"/>
				<path d="M143.6,84.2V72.7h2.1v11.5H143.6z"/>
				<path d="M150.6,84.2v-9.4h-3.3v-2.1h8.6v2.1h-3.3v9.4L150.6,84.2z"/>
				<path d="M162.1,84.4c-3.3,0.1-6.1-2.5-6.2-5.8c-0.1-3.3,2.5-6.1,5.8-6.2c3.3-0.1,6.1,2.5,6.2,5.8c0,0.1,0,0.1,0,0.2
					c0.2,3.1-2.2,5.8-5.4,6C162.4,84.4,162.3,84.4,162.1,84.4z M165.8,78.4c-0.1-2-1.9-3.5-3.9-3.4c-2,0.1-3.5,1.9-3.4,3.9
					c0.1,1.9,1.7,3.4,3.6,3.4c2,0,3.6-1.6,3.6-3.6C165.8,78.6,165.8,78.5,165.8,78.4L165.8,78.4z"/>
				<path d="M176.1,84.2l-2.3-3.9h-2v3.9h-2.1V72.7h4.6c2.8,0,4,1.6,4,3.8c0.1,1.6-0.8,3-2.3,3.6v0l2.7,4.1L176.1,84.2z M174.2,78.2
					c1.4,0,1.8-0.7,1.8-1.7s-0.4-1.7-1.8-1.7h-2.5v3.4L174.2,78.2z"/>
			</g>
		</g>
		<g id="line">
			<path class="st4" d="M121.4,53.5h-12.9c1.5,2.3,2.7,4.7,3.7,7.3c0.2,0.5,0.4,1.1,0.6,1.6"/>
			<path class="st4" d="M143.3,62.3c0.2-0.5,0.4-1,0.6-1.6c1-2.5,2.3-5,3.7-7.3h-12.9"/>
			<path d="M133.2,43.6c0,0.9-0.8,1.7-1.7,1.7c-0.9,0-1.7-0.7-1.7-1.7c0,0,0,0,0,0c0-0.9,0.8-1.7,1.7-1.7
				C132.4,41.9,133.2,42.6,133.2,43.6C133.2,43.6,133.2,43.6,133.2,43.6"/>
			<path d="M126.3,43.6c0,0.9-0.8,1.7-1.7,1.7c-0.9,0-1.7-0.7-1.7-1.7c0,0,0,0,0,0c0-0.9,0.8-1.7,1.7-1.7
				C125.5,41.9,126.3,42.6,126.3,43.6C126.3,43.6,126.3,43.6,126.3,43.6"/>
			<path class="st5" d="M125.4,50.7c1.7,0.6,3.5,0.6,5.2,0"/>
			<path class="st5" d="M140,43v0.5c-0.4,3.9-1.4,6.9-3.2,6.9"/>
			<path class="st5" d="M116,40.1v-1.7c0-5.2,4.3-10.3,12.1-10.3s12.1,5.2,12.1,10.3v1.1"/>
			<path class="st5" d="M119.5,50.5c-1.7,0-2.6-2.5-3.1-6"/>
			<path class="st4" d="M137,40.4c-0.5-1.9-1.2-3.7-2-5.4c-6.9,0-8.7,2.6-13.9,0.9c-0.8,1.4-1.4,2.9-1.9,4.4"/>
			<path class="st4" d="M118.6,46.5c0.7,5.8,4.7,10,9.4,10c4.7,0,8.9-4.4,9.5-10.4"/>
			<path d="M133.2,43.6c0,0.9-0.8,1.7-1.7,1.7c-0.9,0-1.7-0.7-1.7-1.7c0,0,0,0,0,0c0-0.9,0.8-1.7,1.7-1.7
				C132.4,41.9,133.2,42.6,133.2,43.6C133.2,43.6,133.2,43.6,133.2,43.6"/>
			<path d="M126.3,43.6c0,0.9-0.8,1.7-1.7,1.7c-0.9,0-1.7-0.7-1.7-1.7c0,0,0,0,0,0c0-0.9,0.8-1.7,1.7-1.7
				C125.5,41.9,126.3,42.6,126.3,43.6C126.3,43.6,126.3,43.6,126.3,43.6"/>
			<path class="st6" d="M114.7,63.9c0.9-1.2,2.1-2.2,3.5-2.9c0.9-0.5,1.9-0.8,2.9-0.9"/>
			<path class="st6" d="M122.2,60.4c-3,1-5.2,3.4-5.9,6.5"/>
			<path class="st6" d="M141.6,64.1c-0.9-1.2-2.1-2.2-3.5-2.9c-0.9-0.5-1.9-0.8-2.9-0.9"/>
			<path class="st6" d="M134.1,60.7c3,1,5.2,3.4,5.9,6.5"/>
			<path class="st6" d="M133.6,61.3c1.5,1.6,2.7,3.4,3.6,5.4c0.4,0.8,0.7,1.7,1,2.6"/>
			<path class="st5" d="M111.6,69.3v-2.6c0-4.3,4.3-7.7,8.7-7.7c5.2,4.3,10.4,4.3,15.6,0c4.3,0,8.7,3.4,8.7,7.7v2.6"/>
			<path class="st6" d="M122.8,61.2c-1.6,1.6-2.8,3.4-3.7,5.4c-0.4,0.8-0.7,1.6-0.9,2.5"/>
			<path class="st5" d="M127.8,45.8c0,0-4.3,5.1-10.2,0c-0.3-0.3-0.5-0.6-0.8-0.9c0,0-0.4-0.5-0.8-1.1c-0.7-1.1-2.4-6.8-2.1-6.9
				c0.2-0.1,0.6,2.8,2.5,3.6c0.1,0.1,0.3,0.1,0.4,0.1c0.7,0.1,1.3,0.1,2-0.1c2-0.6,4.1-0.6,6.1-0.2c1.2,0.3,2.1,1.1,2.8,2.1l0,0
				c0.6-1,1.5-1.7,2.5-2.2c2.1-0.8,5.4-0.1,6.4,0.2c0.7,0.2,1.3,0.2,2,0.1c0.1,0,0.3-0.1,0.4-0.1c1.9-0.8,2.3-3.6,2.5-3.6
				c0.4,0.1-1.4,5.8-2.1,6.9c-0.4,0.6-0.8,1.1-0.8,1.1c-0.3,0.3-0.5,0.6-0.8,0.9c-1.4,1.5-3.5,2.4-5.6,2.3
				C130.5,47.9,128.9,47.1,127.8,45.8z"/>
		</g>
	</g>
</g>
<g id="White_Background_1_">
	<path d="M194,4v262H4V4H194 M198,0H0v270h198V0L198,0z"/>
</g>
</svg>
