<svg id="Card_Fronts" data-name="Card Fronts" xmlns="http://www.w3.org/2000/svg" viewBox="0 0 306 396"><defs><style>.cls-1{fill:#fff;}.cls-2{fill:#231f20;}.cls-3,.cls-4,.cls-5{fill:none;}.cls-3{stroke:#040406;}.cls-3,.cls-4{stroke-linecap:round;stroke-linejoin:round;}.cls-3,.cls-5{stroke-width:2px;}.cls-4,.cls-5{stroke:#010101;}.cls-4{stroke-width:1.97px;}.cls-5{stroke-miterlimit:10;}</style></defs><title>goalcardfrontArtboard 1</title><g id="Layer_8" data-name="Layer 8"><rect class="cls-1" width="306" height="396"/></g><g id="Networker"><path class="cls-2" d="M22.28,105.62V99.55l-5.5-8.32H20.1L23.64,97h.05l3.58-5.76h3.26l-5.44,8.25v6.14Z"/><path class="cls-2" d="M35.59,105.91a5.73,5.73,0,1,1,0-11.45,5.73,5.73,0,1,1,0,11.45Zm3.19-5.72a3.2,3.2,0,1,0-3.19,3.27A3.08,3.08,0,0,0,38.78,100.19Z"/><path class="cls-2" d="M51.47,94.75h2.62v5.65c0,3.64-2.15,5.51-5.37,5.51s-5.37-1.85-5.37-5.51V94.75H46v5.65c0,2.07,1.1,3.06,2.75,3.06s2.75-1,2.75-3.06Z"/><path class="cls-2" d="M63.38,99.41V99.3c0-1.76-.88-2.39-2.16-2.39s-2.16.63-2.16,2.39v6.32H56.44V99.3c0-3.27,1.94-4.84,4.78-4.84S66,96,66,99.35v.06Z"/><path class="cls-2" d="M80.65,105.62V99.41c0-1.76-1-2.5-2.21-2.5s-2.2.72-2.2,2.5v6.21H73.63V99.41c0-3.41,2-5,4.55-5a4.26,4.26,0,0,1,3.74,1.92h0a4.21,4.21,0,0,1,3.74-1.92c2.57,0,4.55,1.54,4.55,5v6.21H87.64V99.41c0-1.78-.92-2.5-2.2-2.5s-2.18.74-2.18,2.5v6.21Z"/><path class="cls-2" d="M98,105.91a5.73,5.73,0,1,1,5.86-5.72A5.58,5.58,0,0,1,98,105.91Zm3.19-5.72A3.2,3.2,0,1,0,98,103.46,3.08,3.08,0,0,0,101.21,100.19Z"/><path class="cls-2" d="M114.68,101.44c0,3-1.81,4.47-4.45,4.47s-4.44-1.46-4.44-4.47V91.12h2.62v3.63H114v2.38h-5.61v4.31c0,1.45.75,2,1.82,2s1.83-.55,1.83-2v-.29h2.62Z"/><path class="cls-2" d="M125.44,101.44c0,3-1.81,4.47-4.45,4.47s-4.44-1.46-4.44-4.47V91.12h2.62v3.63h5.61v2.38h-5.61v4.31c0,1.45.74,2,1.82,2s1.83-.55,1.83-2v-.29h2.62Z"/><path class="cls-2" d="M132.72,105.91a5.73,5.73,0,1,1,5.85-5.72A5.58,5.58,0,0,1,132.72,105.91Zm3.19-5.72a3.2,3.2,0,1,0-3.19,3.27A3.08,3.08,0,0,0,135.91,100.19Z"/><path class="cls-2" d="M140.48,96.77a1.74,1.74,0,1,1,1.74,1.74A1.73,1.73,0,0,1,140.48,96.77Zm0,7.4a1.74,1.74,0,1,1,1.74,1.74A1.73,1.73,0,0,1,140.48,104.17Z"/><path class="cls-2" d="M152.3,91.71A1.73,1.73,0,0,1,154,90a1.75,1.75,0,1,1-1.74,1.76Zm.44,13.91V94.75h2.62v10.87Z"/><path class="cls-2" d="M167,101.44c0,3-1.8,4.47-4.44,4.47s-4.45-1.46-4.45-4.47V91.12h2.62v3.63h5.61v2.38H160.7v4.31c0,1.45.75,2,1.83,2s1.82-.55,1.82-2v-.29H167Z"/><path class="cls-2" d="M169,97.13l.93-2.86a1.67,1.67,0,0,1-1.06-1.59,1.74,1.74,0,1,1,3.48,0,2.43,2.43,0,0,1-.22.93l-1.59,3.52Z"/><path class="cls-2" d="M180.13,97.87c-.07-.66-.68-1.12-1.7-1.12s-1.73.53-1.73,1.26c0,1.91,6.27-.14,6.27,4.33,0,2.07-1.79,3.57-4.56,3.57s-4.51-1.48-4.57-3.5h2.64c0,.72.66,1.21,1.89,1.21s2-.53,2-1.28c0-1.91-6.27.24-6.27-4.33,0-2.05,1.69-3.55,4.33-3.55s4.27,1.5,4.33,3.41Z"/><path class="cls-2" d="M199.07,105.62V100c0-2.06-1.1-3-2.75-3s-2.75,1-2.75,3v5.66H191V100c0-3.63,2.16-5.5,5.37-5.5s5.37,1.85,5.37,5.5v5.66Z"/><path class="cls-2" d="M209.45,105.91a5.73,5.73,0,1,1,5.86-5.72A5.58,5.58,0,0,1,209.45,105.91Zm3.19-5.72a3.2,3.2,0,1,0-3.19,3.27A3.08,3.08,0,0,0,212.64,100.19Z"/><path class="cls-2" d="M226.11,101.44c0,3-1.81,4.47-4.45,4.47s-4.44-1.46-4.44-4.47V91.12h2.62v3.63h5.61v2.38h-5.61v4.31c0,1.45.75,2,1.82,2s1.83-.55,1.83-2v-.29h2.62Z"/><path class="cls-2" d="M243.64,94.75V101c0,1.76,1,2.5,2.2,2.5s2.2-.72,2.2-2.5V94.75h2.62V101c0,3.41-2,5-4.55,5a4.26,4.26,0,0,1-3.74-1.92h-.05a4.21,4.21,0,0,1-3.74,1.92c-2.57,0-4.55-1.54-4.55-5V94.75h2.62V101c0,1.78.92,2.5,2.2,2.5s2.17-.74,2.17-2.5V94.75Z"/><path class="cls-2" d="M256,105.62h-2.61V90H256v6.2h0a3.62,3.62,0,0,1,3.19-1.74c2.51,0,4.88,1.63,4.88,5.5v5.66h-2.62V100c0-2.06-1.1-3-2.75-3s-2.75,1-2.75,3Z"/><path class="cls-2" d="M277.68,105.62h-2.4v-2h0a4,4,0,0,1-3.85,2.31,5.35,5.35,0,0,1-5.37-5.72,5.59,5.59,0,0,1,5.86-5.73,5.51,5.51,0,0,1,5.81,5.81Zm-2.62-5.43a3.2,3.2,0,1,0-3.19,3.27A3.08,3.08,0,0,0,275.06,100.19Z"/><path class="cls-2" d="M288.92,101.44c0,3-1.81,4.47-4.45,4.47s-4.44-1.46-4.44-4.47V91.12h2.62v3.63h5.61v2.38h-5.61v4.31c0,1.45.74,2,1.82,2s1.83-.55,1.83-2v-.29h2.62Z"/><path class="cls-2" d="M40.14,128h0a3.58,3.58,0,0,1-3.19,1.73c-2.51,0-4.89-1.62-4.89-5.5v-5.52h2.62v5.52c0,2.07,1.1,3.06,2.75,3.06s2.75-1,2.75-3.06v-5.52h2.62v10.5c0,3.78-2.4,5.3-5.41,5.3-2.53,0-4.62-1.17-5.24-3.74h2.62a2.53,2.53,0,0,0,2.62,1.47c1.78,0,2.79-.86,2.79-3Z"/><path class="cls-2" d="M50.88,129.91a5.73,5.73,0,1,1,0-11.45,5.73,5.73,0,1,1,0,11.45Zm3.19-5.72a3.2,3.2,0,1,0-3.19,3.27A3.08,3.08,0,0,0,54.07,124.19Z"/><path class="cls-2" d="M66.76,118.75h2.62v5.65c0,3.64-2.16,5.51-5.37,5.51s-5.37-1.85-5.37-5.51v-5.65h2.62v5.65c0,2.07,1.1,3.06,2.75,3.06s2.75-1,2.75-3.06Z"/><path class="cls-2" d="M78.13,129.62V114h2.62v9.46h0l4.27-4.71h3.34l-5.1,5.32,5.3,5.55H85.2l-4.4-4.86h0v4.86Z"/><path class="cls-2" d="M98.31,129.62V124c0-2.06-1.1-3-2.75-3s-2.75,1-2.75,3v5.66H90.19V124c0-3.63,2.16-5.5,5.37-5.5s5.37,1.85,5.37,5.5v5.66Z"/><path class="cls-2" d="M108.69,129.91a5.73,5.73,0,1,1,5.86-5.72A5.58,5.58,0,0,1,108.69,129.91Zm3.19-5.72a3.2,3.2,0,1,0-3.19,3.27A3.08,3.08,0,0,0,111.88,124.19Z"/><path class="cls-2" d="M126.07,118.75V125c0,1.76,1,2.5,2.2,2.5s2.21-.72,2.21-2.5v-6.21h2.61V125c0,3.41-2,5-4.55,5A4.26,4.26,0,0,1,124.8,128h0a4.21,4.21,0,0,1-3.74,1.92c-2.57,0-4.55-1.54-4.55-5v-6.21h2.62V125c0,1.78.92,2.5,2.2,2.5s2.18-.74,2.18-2.5v-6.21Z"/><path class="cls-2" d="M141.49,114h2.62v6.27h0a4.17,4.17,0,0,1,3.63-1.81,5.36,5.36,0,0,1,5.37,5.73,5.58,5.58,0,0,1-5.86,5.72,5.5,5.5,0,0,1-5.81-5.81Zm9,10.19a3.21,3.21,0,1,0-3.22,3.27A3.1,3.1,0,0,0,150.52,124.19Z"/><path class="cls-2" d="M163.19,118.75h2.62v5.65c0,3.64-2.16,5.51-5.37,5.51s-5.37-1.85-5.37-5.51v-5.65h2.62v5.65c0,2.07,1.1,3.06,2.75,3.06s2.75-1,2.75-3.06Z"/><path class="cls-2" d="M177.05,125.44c0,3-1.81,4.47-4.45,4.47s-4.44-1.46-4.44-4.47V115.12h2.62v3.63h5.61v2.38h-5.61v4.31c0,1.45.75,2,1.82,2s1.83-.55,1.83-2v-.29h2.62Z"/><path class="cls-2" d="M194.58,118.75V125c0,1.76.95,2.5,2.2,2.5s2.2-.72,2.2-2.5v-6.21h2.62V125c0,3.41-2,5-4.55,5a4.26,4.26,0,0,1-3.74-1.92h-.05a4.21,4.21,0,0,1-3.74,1.92c-2.57,0-4.55-1.54-4.55-5v-6.21h2.61V125c0,1.78.93,2.5,2.21,2.5s2.17-.74,2.17-2.5v-6.21Z"/><path class="cls-2" d="M206.92,129.62H204.3V114h2.62v6.2H207a3.61,3.61,0,0,1,3.19-1.74c2.51,0,4.88,1.63,4.88,5.5v5.66h-2.62V124c0-2.06-1.1-3-2.75-3s-2.75,1-2.75,3Z"/><path class="cls-2" d="M222.81,129.91a5.73,5.73,0,1,1,5.85-5.72A5.58,5.58,0,0,1,222.81,129.91Zm3.19-5.72a3.21,3.21,0,1,0-3.19,3.27A3.08,3.08,0,0,0,226,124.19Z"/><path class="cls-2" d="M244.74,128h0a3.58,3.58,0,0,1-3.19,1.73c-2.51,0-4.89-1.62-4.89-5.5v-5.52h2.62v5.52c0,2.07,1.1,3.06,2.75,3.06s2.75-1,2.75-3.06v-5.52h2.62v10.5c0,3.78-2.4,5.3-5.41,5.3-2.53,0-4.62-1.17-5.24-3.74h2.62a2.53,2.53,0,0,0,2.62,1.47c1.78,0,2.79-.86,2.79-3Z"/><path class="cls-2" d="M255.48,129.91a5.73,5.73,0,1,1,5.85-5.72A5.58,5.58,0,0,1,255.48,129.91Zm3.19-5.72a3.21,3.21,0,1,0-3.19,3.27A3.08,3.08,0,0,0,258.67,124.19Z"/><path class="cls-2" d="M271.36,118.75H274v5.65c0,3.64-2.16,5.51-5.37,5.51s-5.37-1.85-5.37-5.51v-5.65h2.62v5.65c0,2.07,1.1,3.06,2.75,3.06s2.75-1,2.75-3.06Z"/><path class="cls-2" d="M122.88,153.62V138h2.62v9.46h0l4.27-4.71h3.35l-5.11,5.32,5.31,5.55H130l-4.41-4.86h0v4.86Z"/><path class="cls-2" d="M143.06,153.62V148c0-2.06-1.1-3.05-2.75-3.05s-2.75,1-2.75,3.05v5.66h-2.62V148c0-3.63,2.15-5.5,5.37-5.5s5.37,1.85,5.37,5.5v5.66Z"/><path class="cls-2" d="M153.44,153.91a5.73,5.73,0,1,1,5.85-5.72A5.58,5.58,0,0,1,153.44,153.91Zm3.19-5.72a3.2,3.2,0,1,0-3.19,3.27A3.08,3.08,0,0,0,156.63,148.19Z"/><path class="cls-2" d="M170.82,142.75V149c0,1.76,1,2.5,2.2,2.5s2.2-.72,2.2-2.5v-6.21h2.62V149c0,3.41-2,4.95-4.55,4.95a4.26,4.26,0,0,1-3.74-1.92h-.05a4.21,4.21,0,0,1-3.74,1.92c-2.57,0-4.55-1.54-4.55-4.95v-6.21h2.62V149c0,1.78.92,2.5,2.2,2.5s2.17-.74,2.17-2.5v-6.21Z"/><path class="cls-2" d="M180,152.17a1.74,1.74,0,1,1,1.74,1.74A1.73,1.73,0,0,1,180,152.17Z"/><path class="cls-2" d="M32.71,207.65H33.9l4.77,7,4.73-7h1.17l-5.41,8V223h-1v-7.3Z"/><path class="cls-2" d="M48.9,211.19a4.15,4.15,0,0,1,3.46,1.64,8.25,8.25,0,0,1,0,8.83,4.13,4.13,0,0,1-3.46,1.64,4.2,4.2,0,0,1-3.5-1.63,7,7,0,0,1-1.27-4.46,6.89,6.89,0,0,1,1.28-4.39A4.2,4.2,0,0,1,48.9,211.19Zm0,.83a3.22,3.22,0,0,0-2.76,1.41,6.2,6.2,0,0,0-1,3.77,6.39,6.39,0,0,0,1,3.84,3.44,3.44,0,0,0,5.54,0,6.38,6.38,0,0,0,1-3.84,6.23,6.23,0,0,0-1-3.76A3.23,3.23,0,0,0,48.9,212Z"/><path class="cls-2" d="M57.76,218.4v-6.93h.94v6.87a5.21,5.21,0,0,0,.72,3.15,2.52,2.52,0,0,0,2.11.91,4.19,4.19,0,0,0,2.79-1A4.36,4.36,0,0,0,65.49,218v-6.49h.94V223h-.94V220.8a4,4,0,0,1-1.32,1.6,4.59,4.59,0,0,1-2.68.83,3.41,3.41,0,0,1-2.72-1.16A5.49,5.49,0,0,1,57.76,218.4Z"/><path class="cls-2" d="M77.2,211.47h1l2.7,10.23,2.67-10.23h1.2l2.7,10.29,2.69-10.29h1L88.1,223H86.78l-2.64-10.07L81.5,223H80.21Z"/><path class="cls-2" d="M95.59,207h.94v1.29h-.94Zm0,4.47h.94V223h-.94Z"/><path class="cls-2" d="M110.31,216V223h-1v-6.88a5.18,5.18,0,0,0-.72-3.14,2.51,2.51,0,0,0-2.11-.92,4.16,4.16,0,0,0-2.79,1,4.32,4.32,0,0,0-1.17,3.45V223h-.94V211.47h.94v2.15a4,4,0,0,1,1.33-1.6,4.63,4.63,0,0,1,2.67-.83,3.44,3.44,0,0,1,2.72,1.16A5.45,5.45,0,0,1,110.31,216Z"/><path class="cls-2" d="M122,207h1v1.29h-1Zm0,4.47h1V223h-1Z"/><path class="cls-2" d="M133,207v.8h-1.33a2.2,2.2,0,0,0-1.6.54,2.84,2.84,0,0,0-.68,2.12v1h3.1v.8h-3.1V223h-.95V212.27h-1.81v-.8h1.81v-.8a3.82,3.82,0,0,1,.87-2.79,3.15,3.15,0,0,1,2.38-.88Z"/><path class="cls-2" d="M146.34,224a5.32,5.32,0,0,1-1.32,2.11,3,3,0,0,1-1.87.79h-1.41v-.8h1.2a2,2,0,0,0,1.32-.48,4.7,4.7,0,0,0,1.2-1.83l.33-.85-4.58-11.49h1l4.08,10.23,4.09-10.23h1Z"/><path class="cls-2" d="M159.13,211.19a4.14,4.14,0,0,1,3.46,1.64,8.2,8.2,0,0,1,0,8.83,4.12,4.12,0,0,1-3.46,1.64,4.21,4.21,0,0,1-3.5-1.63,7.1,7.1,0,0,1-1.27-4.46,7,7,0,0,1,1.28-4.39A4.23,4.23,0,0,1,159.13,211.19Zm0,.83a3.24,3.24,0,0,0-2.77,1.41,6.27,6.27,0,0,0-1,3.77,6.39,6.39,0,0,0,1,3.84,3.45,3.45,0,0,0,5.55,0,6.45,6.45,0,0,0,1-3.84,6.3,6.3,0,0,0-1-3.76A3.25,3.25,0,0,0,159.14,212Z"/><path class="cls-2" d="M168,218.4v-6.93h.95v6.87a5.3,5.3,0,0,0,.71,3.15,2.54,2.54,0,0,0,2.12.91,4.22,4.22,0,0,0,2.79-1,4.39,4.39,0,0,0,1.16-3.46v-6.49h.95V223h-.95V220.8a3.84,3.84,0,0,1-1.32,1.6,4.58,4.58,0,0,1-2.67.83,3.4,3.4,0,0,1-2.72-1.16A5.44,5.44,0,0,1,168,218.4Z"/><path class="cls-2" d="M196.59,216.4V223h-.93v-3.12a4.14,4.14,0,0,1-4.16,3.41,3.78,3.78,0,0,1-2.69-.91,4,4,0,0,1,.29-5.56,6.54,6.54,0,0,1,4.2-1.07h2.34v-.19a3.66,3.66,0,0,0-.88-2.51,3.59,3.59,0,0,0-2.85-1,6.12,6.12,0,0,0-2,.37,8.54,8.54,0,0,0-1.7,1v-1a7.75,7.75,0,0,1,1.7-.8,8,8,0,0,1,2.21-.34,4.68,4.68,0,0,1,3.34,1.23C196.21,213.13,196.59,214.46,196.59,216.4Zm-3.52.07a5.24,5.24,0,0,0-3.28.82,2.84,2.84,0,0,0-1,2.36,2.54,2.54,0,0,0,.83,2.16,3.16,3.16,0,0,0,2,.63,3.23,3.23,0,0,0,3.09-1.82,7.42,7.42,0,0,0,1-3.44v-.71Z"/><path class="cls-2" d="M207.77,212.28a2.6,2.6,0,0,0-.61-.19,4.45,4.45,0,0,0-.89-.07,3.72,3.72,0,0,0-2.89,1.3,5.52,5.52,0,0,0-.9,3.59V223h-.92V211.47h.92v2.15a4.49,4.49,0,0,1,1.29-1.55,4.32,4.32,0,0,1,2.71-.88c.27,0,.5,0,.7,0a2.33,2.33,0,0,1,.59.08Z"/><path class="cls-2" d="M218.85,216.74v.6h-8.72q0,2.76,1.08,3.87a4.7,4.7,0,0,0,3.54,1.23,7.14,7.14,0,0,0,1.63-.26,9.83,9.83,0,0,0,2-.8v1a11.16,11.16,0,0,1-2.08.66,8.64,8.64,0,0,1-1.7.22,5.21,5.21,0,0,1-4-1.43,6.28,6.28,0,0,1-1.46-4.48,6.75,6.75,0,0,1,1.33-4.58,4.79,4.79,0,0,1,3.8-1.57,4,4,0,0,1,3.4,1.49A6.71,6.71,0,0,1,218.85,216.74Zm-.95-.2a4.91,4.91,0,0,0-1.09-3.53,3.22,3.22,0,0,0-2.48-1,4.19,4.19,0,0,0-2.87,1,5.23,5.23,0,0,0-1.29,3.49Z"/><path class="cls-2" d="M233.92,211.19a4.17,4.17,0,0,1,3.47,1.64,8.25,8.25,0,0,1,0,8.83,4.15,4.15,0,0,1-3.47,1.64,4.22,4.22,0,0,1-3.5-1.63,7.1,7.1,0,0,1-1.27-4.46,6.89,6.89,0,0,1,1.29-4.39A4.2,4.2,0,0,1,233.92,211.19Zm0,.83a3.24,3.24,0,0,0-2.77,1.41,6.27,6.27,0,0,0-1,3.77,6.46,6.46,0,0,0,1,3.84,3.45,3.45,0,0,0,5.55,0,6.45,6.45,0,0,0,1-3.84,6.3,6.3,0,0,0-1-3.76A3.25,3.25,0,0,0,233.93,212Z"/><path class="cls-2" d="M251.58,216V223h-.94v-6.88a5.18,5.18,0,0,0-.72-3.14,2.52,2.52,0,0,0-2.11-.92,4.14,4.14,0,0,0-2.79,1,4.32,4.32,0,0,0-1.17,3.45V223h-.94V211.47h.94v2.15a4.07,4.07,0,0,1,1.32-1.6,4.67,4.67,0,0,1,2.68-.83,3.44,3.44,0,0,1,2.72,1.16A5.51,5.51,0,0,1,251.58,216Z"/><path class="cls-2" d="M271.38,216.4V223h-.93v-3.12a4.12,4.12,0,0,1-4.15,3.41,3.79,3.79,0,0,1-2.7-.91,4,4,0,0,1,.3-5.56,6.48,6.48,0,0,1,4.19-1.07h2.34v-.19a3.25,3.25,0,0,0-3.72-3.5,6,6,0,0,0-2,.37,8.3,8.3,0,0,0-1.71,1v-1a7.6,7.6,0,0,1,1.71-.8,8,8,0,0,1,2.2-.34,4.68,4.68,0,0,1,3.34,1.23C271,213.13,271.38,214.46,271.38,216.4Zm-3.52.07a5.26,5.26,0,0,0-3.28.82,2.84,2.84,0,0,0-1,2.36,2.54,2.54,0,0,0,.83,2.16,3.16,3.16,0,0,0,2,.63,3.23,3.23,0,0,0,3.09-1.82,7.42,7.42,0,0,0,1-3.44v-.71Z"/><path class="cls-2" d="M26.12,237.81v1a8.11,8.11,0,0,0-1.24-.61A8.44,8.44,0,0,0,23.1,238a4.36,4.36,0,0,0-2.54.65,2.13,2.13,0,0,0-.71,1.83,1.59,1.59,0,0,0,.67,1.36,5.25,5.25,0,0,0,2,.82l.65.14a6.14,6.14,0,0,1,2.47,1,2.51,2.51,0,0,1,1,1.95,3.35,3.35,0,0,1-1,2.55,4.88,4.88,0,0,1-3.3.91,8.42,8.42,0,0,1-1.93-.17c-.52-.15-1.08-.33-1.66-.54v-1.18a11.69,11.69,0,0,0,1.62.82,8.28,8.28,0,0,0,2,.26,3.69,3.69,0,0,0,2.45-.68,2.3,2.3,0,0,0,.8-1.83,1.66,1.66,0,0,0-.53-1.37,6.25,6.25,0,0,0-2.45-1l-.66-.15a5.51,5.51,0,0,1-2.2-1,2.3,2.3,0,0,1-1-1.86,3,3,0,0,1,1.15-2.6,4.93,4.93,0,0,1,2.82-.79,8.43,8.43,0,0,1,2,.16A9.27,9.27,0,0,1,26.12,237.81Z"/><path class="cls-2" d="M30.73,233h.95v1.29h-.95Zm0,4.47h.95V249h-.95Z"/><path class="cls-2" d="M45.45,242V249h-.94v-6.88a5.18,5.18,0,0,0-.72-3.14,2.52,2.52,0,0,0-2.11-.92,4.14,4.14,0,0,0-2.79,1,4.32,4.32,0,0,0-1.17,3.45V249h-.95V237.47h.95v2.15A3.91,3.91,0,0,1,39,238a4.67,4.67,0,0,1,2.68-.83,3.46,3.46,0,0,1,2.72,1.16A5.51,5.51,0,0,1,45.45,242Z"/><path class="cls-2" d="M58.85,247.53q0,3.58-1.37,4.69a5.34,5.34,0,0,1-3.45,1.1,11.22,11.22,0,0,1-1.88-.14,9.79,9.79,0,0,1-1.71-.46v-1.08a7.76,7.76,0,0,0,1.64.67,6.55,6.55,0,0,0,1.65.21,5.63,5.63,0,0,0,2.94-.73c.82-.48,1.23-1.79,1.23-3.92v-1.8a4.42,4.42,0,0,1-1.16,1.86,3.63,3.63,0,0,1-2.53,1,4.09,4.09,0,0,1-3.4-1.55,8.31,8.31,0,0,1,0-8.67,4.09,4.09,0,0,1,3.4-1.55,3.51,3.51,0,0,1,2.4.89,5.18,5.18,0,0,1,1.29,1.83v-2.44h1Zm-1-4.45a6.15,6.15,0,0,0-1-3.71,3.44,3.44,0,0,0-5.42,0,7.56,7.56,0,0,0,0,7.41,3.46,3.46,0,0,0,5.42,0A6.12,6.12,0,0,0,57.9,243.08Z"/><path class="cls-2" d="M63.06,233h1v16h-1Z"/><path class="cls-2" d="M78,242.74v.6H69.32q0,2.76,1.08,3.87a4.7,4.7,0,0,0,3.54,1.23,7.14,7.14,0,0,0,1.63-.26,9.83,9.83,0,0,0,2-.8v1a11.16,11.16,0,0,1-2.08.66,8.65,8.65,0,0,1-1.69.22,5.24,5.24,0,0,1-4-1.43,6.28,6.28,0,0,1-1.46-4.48,6.75,6.75,0,0,1,1.33-4.58,4.79,4.79,0,0,1,3.8-1.57,4,4,0,0,1,3.4,1.49A6.71,6.71,0,0,1,78,242.74Zm-1-.2A4.91,4.91,0,0,0,76,239a3.22,3.22,0,0,0-2.48-1,4.19,4.19,0,0,0-2.87,1,5.18,5.18,0,0,0-1.28,3.49Z"/><path class="cls-2" d="M97.63,247.53q0,3.58-1.36,4.69a5.35,5.35,0,0,1-3.46,1.1,11.18,11.18,0,0,1-1.87-.14,9.79,9.79,0,0,1-1.71-.46v-1.08a7.76,7.76,0,0,0,1.64.67,6.55,6.55,0,0,0,1.65.21,5.63,5.63,0,0,0,2.94-.73c.82-.48,1.23-1.79,1.23-3.92v-1.8a4.52,4.52,0,0,1-1.16,1.86A3.63,3.63,0,0,1,93,249a4.08,4.08,0,0,1-3.4-1.55,8.25,8.25,0,0,1,0-8.67,4.08,4.08,0,0,1,3.4-1.55,3.51,3.51,0,0,1,2.4.89,5.18,5.18,0,0,1,1.29,1.83v-2.44h.94Zm-.94-4.45a6.15,6.15,0,0,0-1-3.71,3.44,3.44,0,0,0-5.42,0,7.56,7.56,0,0,0,0,7.41,3.46,3.46,0,0,0,5.42,0A6.12,6.12,0,0,0,96.69,243.08Z"/><path class="cls-2" d="M108.09,238.28a2.7,2.7,0,0,0-.62-.19,4.35,4.35,0,0,0-.88-.07,3.71,3.71,0,0,0-2.89,1.3,5.52,5.52,0,0,0-.9,3.59V249h-.93V237.47h.93v2.15a4.39,4.39,0,0,1,4-2.43c.27,0,.5,0,.7,0a2.35,2.35,0,0,1,.6.08Z"/><path class="cls-2" d="M118.79,242.4V249h-.94v-3.12a4.71,4.71,0,0,1-2.09,2.91,4.76,4.76,0,0,1-2.06.5,3.82,3.82,0,0,1-2.7-.91,3.57,3.57,0,0,1-1-2.71,3.53,3.53,0,0,1,1.28-2.85,6.48,6.48,0,0,1,4.19-1.07h2.34v-.19A3.65,3.65,0,0,0,117,239a3.59,3.59,0,0,0-2.85-1,6,6,0,0,0-2,.37,8.27,8.27,0,0,0-1.7,1v-1a7.54,7.54,0,0,1,1.7-.8,8,8,0,0,1,2.21-.34,4.7,4.7,0,0,1,3.34,1.23C118.41,239.13,118.79,240.46,118.79,242.4Zm-3.52.07a5.24,5.24,0,0,0-3.28.82,2.85,2.85,0,0,0-1,2.36,2.57,2.57,0,0,0,.83,2.16,3.18,3.18,0,0,0,2,.63,3.24,3.24,0,0,0,3.1-1.82,7.4,7.4,0,0,0,1-3.44v-.71Z"/><path class="cls-2" d="M132.41,242V249h-.95v-6.88a5.26,5.26,0,0,0-.71-3.14,2.54,2.54,0,0,0-2.12-.92,4.18,4.18,0,0,0-2.79,1,4.32,4.32,0,0,0-1.16,3.45V249h-1V237.47h1v2.15A3.91,3.91,0,0,1,126,238a4.63,4.63,0,0,1,2.67-.83,3.44,3.44,0,0,1,2.72,1.16A5.45,5.45,0,0,1,132.41,242Z"/><path class="cls-2" d="M138.23,234.21v3.26h3.88v.8h-3.88v6.9a3.68,3.68,0,0,0,.33,1.84,2.26,2.26,0,0,0,2,1.15h1.52v.8h-1.46a3.58,3.58,0,0,1-2.39-.83,3.67,3.67,0,0,1-1-3v-6.9H135.9v-.8h1.37v-3.26Z"/><path class="cls-2" d="M153.51,234.21v3.26h3.89v.8h-3.89v6.9a3.66,3.66,0,0,0,.34,1.84,2.25,2.25,0,0,0,2,1.15h1.52v.8h-1.47a3.62,3.62,0,0,1-2.39-.83,3.7,3.7,0,0,1-1-3v-6.9h-1.37v-.8h1.37v-3.26Z"/><path class="cls-2" d="M169.62,242V249h-1v-6.88a5,5,0,0,0-.75-3.13,2.71,2.71,0,0,0-2.26-.93,3.74,3.74,0,0,0-2.76,1,4.71,4.71,0,0,0-1,3.41V249h-.95V233h.95v6.59a3.66,3.66,0,0,1,1.16-1.57,4.36,4.36,0,0,1,2.83-.83,3.37,3.37,0,0,1,2.72,1.22A5.55,5.55,0,0,1,169.62,242Z"/><path class="cls-2" d="M182.55,242.4V249h-.93v-3.12a4.12,4.12,0,0,1-4.15,3.41,3.79,3.79,0,0,1-2.7-.91,4,4,0,0,1,.3-5.56,6.48,6.48,0,0,1,4.19-1.07h2.34v-.19a3.25,3.25,0,0,0-3.72-3.5,6,6,0,0,0-2,.37,8.3,8.3,0,0,0-1.71,1v-1a7.6,7.6,0,0,1,1.71-.8,8,8,0,0,1,2.2-.34,4.68,4.68,0,0,1,3.34,1.23C182.17,239.13,182.55,240.46,182.55,242.4Zm-3.52.07a5.26,5.26,0,0,0-3.28.82,2.84,2.84,0,0,0-1,2.36,2.54,2.54,0,0,0,.83,2.16,3.16,3.16,0,0,0,2,.63,3.23,3.23,0,0,0,3.09-1.82,7.42,7.42,0,0,0,1-3.44v-.71Z"/><path class="cls-2" d="M188.49,234.21v3.26h3.89v.8h-3.89v6.9a3.66,3.66,0,0,0,.34,1.84,2.25,2.25,0,0,0,2,1.15h1.52v.8h-1.47a3.62,3.62,0,0,1-2.39-.83,3.7,3.7,0,0,1-1-3v-6.9h-1.37v-.8h1.37v-3.26Z"/><path class="cls-2" d="M202.77,233h.94v1.29h-.94Zm0,4.47h.94V249h-.94Z"/><path class="cls-2" d="M217.48,242V249h-.94v-6.88a5.18,5.18,0,0,0-.72-3.14,2.52,2.52,0,0,0-2.11-.92,4.14,4.14,0,0,0-2.79,1,4.32,4.32,0,0,0-1.17,3.45V249h-.94V237.47h.94v2.15a4.07,4.07,0,0,1,1.32-1.6,4.67,4.67,0,0,1,2.68-.83,3.44,3.44,0,0,1,2.72,1.16A5.51,5.51,0,0,1,217.48,242Z"/><path class="cls-2" d="M230.17,238v1a7.65,7.65,0,0,0-1.4-.71,6.14,6.14,0,0,0-1.83-.3,4.44,4.44,0,0,0-3.56,1.28,6,6,0,0,0-1.07,3.92,6.07,6.07,0,0,0,1.07,3.95,4.43,4.43,0,0,0,3.56,1.27,5.92,5.92,0,0,0,1.62-.22,7.59,7.59,0,0,0,1.61-.66v.95a7.31,7.31,0,0,1-1.63.56,8.14,8.14,0,0,1-1.68.18,5.7,5.7,0,0,1-4-1.36c-1-.92-1.49-2.47-1.49-4.67s.5-3.75,1.49-4.66a5.7,5.7,0,0,1,4-1.37,6.86,6.86,0,0,1,1.74.24A6.21,6.21,0,0,1,230.17,238Z"/><path class="cls-2" d="M234,233h1v16h-1Z"/><path class="cls-2" d="M239.94,244.4v-6.93h.95v6.87a5.3,5.3,0,0,0,.71,3.15,2.54,2.54,0,0,0,2.12.91,4.18,4.18,0,0,0,2.78-1,4.36,4.36,0,0,0,1.17-3.46v-6.49h1V249h-1V246.8a3.84,3.84,0,0,1-1.32,1.6,4.59,4.59,0,0,1-2.68.83,3.39,3.39,0,0,1-2.71-1.16A5.44,5.44,0,0,1,239.94,244.4Z"/><path class="cls-2" d="M261.19,240.1V233h.93v16h-.93v-2.61a5,5,0,0,1-1.4,2.05,3.75,3.75,0,0,1-2.19.85,4.18,4.18,0,0,1-3.39-1.66,7.73,7.73,0,0,1,0-8.73,4.19,4.19,0,0,1,3.39-1.67,3.82,3.82,0,0,1,2.19.85A5,5,0,0,1,261.19,240.1Zm-7.34,3.12a5.56,5.56,0,0,0,1.19,4,3.16,3.16,0,0,0,5,0,7.37,7.37,0,0,0,0-8,3.16,3.16,0,0,0-5,0A5.58,5.58,0,0,0,253.85,243.22Z"/><path class="cls-2" d="M276,242.74v.6h-8.71q0,2.76,1.08,3.87a4.69,4.69,0,0,0,3.53,1.23,7.06,7.06,0,0,0,1.63-.26,9.62,9.62,0,0,0,2-.8v1a10.93,10.93,0,0,1-2.08.66,8.56,8.56,0,0,1-1.69.22,5.25,5.25,0,0,1-4-1.43,6.27,6.27,0,0,1-1.45-4.48,6.75,6.75,0,0,1,1.33-4.58,4.77,4.77,0,0,1,3.79-1.57,4.05,4.05,0,0,1,3.41,1.49A6.71,6.71,0,0,1,276,242.74Zm-.95-.2A4.86,4.86,0,0,0,274,239a3.19,3.19,0,0,0-2.48-1,4.19,4.19,0,0,0-2.87,1,5.18,5.18,0,0,0-1.28,3.49Z"/><path class="cls-2" d="M286.69,237.81v1a8.11,8.11,0,0,0-1.24-.61,8.44,8.44,0,0,0-1.78-.21,4.36,4.36,0,0,0-2.54.65,2.13,2.13,0,0,0-.71,1.83,1.6,1.6,0,0,0,.66,1.36,5.3,5.3,0,0,0,2,.82l.65.14a6.14,6.14,0,0,1,2.47,1,2.51,2.51,0,0,1,1,1.95,3.39,3.39,0,0,1-1,2.55,4.88,4.88,0,0,1-3.3.91,8.42,8.42,0,0,1-1.93-.17c-.52-.15-1.08-.33-1.66-.54v-1.18a11.69,11.69,0,0,0,1.62.82,8.28,8.28,0,0,0,2,.26,3.69,3.69,0,0,0,2.45-.68,2.3,2.3,0,0,0,.8-1.83,1.66,1.66,0,0,0-.53-1.37,6.25,6.25,0,0,0-2.45-1l-.66-.15a5.51,5.51,0,0,1-2.2-1,2.3,2.3,0,0,1-1-1.86,3,3,0,0,1,1.15-2.6,4.93,4.93,0,0,1,2.82-.79,8.43,8.43,0,0,1,2,.16A9.27,9.27,0,0,1,286.69,237.81Z"/><path class="cls-2" d="M28.8,268.74v.6H20.08q0,2.76,1.08,3.87a4.69,4.69,0,0,0,3.53,1.23,7.21,7.21,0,0,0,1.64-.26,9.83,9.83,0,0,0,2-.8v1a11.26,11.26,0,0,1-2.09.66,8.56,8.56,0,0,1-1.69.22,5.25,5.25,0,0,1-4-1.43,6.27,6.27,0,0,1-1.45-4.48,6.75,6.75,0,0,1,1.33-4.58,4.77,4.77,0,0,1,3.79-1.57,4.05,4.05,0,0,1,3.41,1.49A6.71,6.71,0,0,1,28.8,268.74Zm-1-.2A4.91,4.91,0,0,0,26.76,265a3.22,3.22,0,0,0-2.49-1,4.21,4.21,0,0,0-2.87,1,5.23,5.23,0,0,0-1.28,3.49Z"/><path class="cls-2" d="M31.91,263.47h1l3.9,10.45,3.89-10.45h1L37.39,275h-1.2Z"/><path class="cls-2" d="M54.52,268.74v.6H45.81c0,1.84.36,3.13,1.07,3.87a4.71,4.71,0,0,0,3.54,1.23,7.14,7.14,0,0,0,1.63-.26,9.83,9.83,0,0,0,2-.8v1A11.16,11.16,0,0,1,52,275a8.56,8.56,0,0,1-1.69.22,5.24,5.24,0,0,1-4-1.43,6.28,6.28,0,0,1-1.46-4.48,6.75,6.75,0,0,1,1.34-4.58A4.77,4.77,0,0,1,50,263.19a4,4,0,0,1,3.4,1.49A6.71,6.71,0,0,1,54.52,268.74Zm-1-.2A4.86,4.86,0,0,0,52.48,265,3.2,3.2,0,0,0,50,264a4.19,4.19,0,0,0-2.87,1,5.18,5.18,0,0,0-1.28,3.49Z"/><path class="cls-2" d="M64.91,264.28a2.6,2.6,0,0,0-.61-.19,4.35,4.35,0,0,0-.88-.07,3.71,3.71,0,0,0-2.89,1.3,5.46,5.46,0,0,0-.91,3.59v6H58.7V263.47h.92v2.15a4.41,4.41,0,0,1,1.3-1.55,4.27,4.27,0,0,1,2.7-.88c.27,0,.5,0,.7,0a2.33,2.33,0,0,1,.59.08Z"/><path class="cls-2" d="M71.38,276a5.32,5.32,0,0,1-1.32,2.11,3,3,0,0,1-1.87.79H66.78v-.8H68a2,2,0,0,0,1.32-.48,4.7,4.7,0,0,0,1.2-1.83l.33-.85-4.58-11.49h1l4.08,10.23,4.09-10.23h1Z"/><path class="cls-2" d="M87.17,259.65h4.17a4.93,4.93,0,0,1,3.47,1.1,5.11,5.11,0,0,1,0,6.51,4.89,4.89,0,0,1-3.47,1.11H88.19V275h-1Zm1,.85v7h3.15a3.64,3.64,0,0,0,2.65-.91,4.08,4.08,0,0,0,0-5.21,3.64,3.64,0,0,0-2.65-.91Z"/><path class="cls-2" d="M100,259.65h1.07V275H100Z"/><path class="cls-2" d="M106.65,273.66h1V275h-1Z"/><path class="cls-2" d="M118,259.65h1.19L124,266.7l4.74-7.05h1.17l-5.42,8V275h-1v-7.3Z"/><path class="cls-2" d="M134.23,263.19a4.14,4.14,0,0,1,3.46,1.64,8.2,8.2,0,0,1,0,8.83,4.12,4.12,0,0,1-3.46,1.64,4.21,4.21,0,0,1-3.5-1.63,7,7,0,0,1-1.27-4.46,7,7,0,0,1,1.28-4.39A4.23,4.23,0,0,1,134.23,263.19Zm0,.83a3.24,3.24,0,0,0-2.77,1.41,6.27,6.27,0,0,0-1,3.77,6.39,6.39,0,0,0,1,3.84,3.45,3.45,0,0,0,5.55,0,6.45,6.45,0,0,0,1-3.84,6.3,6.3,0,0,0-1-3.76A3.25,3.25,0,0,0,134.24,264Z"/><path class="cls-2" d="M143.09,270.4v-6.93H144v6.87a5.21,5.21,0,0,0,.72,3.15,2.52,2.52,0,0,0,2.11.91,4.19,4.19,0,0,0,2.79-1,4.36,4.36,0,0,0,1.17-3.46v-6.49h1V275h-1V272.8a3.84,3.84,0,0,1-1.32,1.6,4.59,4.59,0,0,1-2.68.83,3.39,3.39,0,0,1-2.71-1.16A5.44,5.44,0,0,1,143.09,270.4Z"/><path class="cls-2" d="M171.21,266.1V259h.92v16h-.92v-2.61a4.86,4.86,0,0,1-1.41,2,3.73,3.73,0,0,1-2.18.85,4.22,4.22,0,0,1-3.4-1.66,7.73,7.73,0,0,1,0-8.73,4.23,4.23,0,0,1,3.4-1.67,3.79,3.79,0,0,1,2.18.85A4.91,4.91,0,0,1,171.21,266.1Zm-7.35,3.12a5.56,5.56,0,0,0,1.19,4,3.17,3.17,0,0,0,5,0,7.37,7.37,0,0,0,0-8,3.17,3.17,0,0,0-5,0A5.58,5.58,0,0,0,163.86,269.22Z"/><path class="cls-2" d="M181.15,263.19a4.15,4.15,0,0,1,3.46,1.64,8.25,8.25,0,0,1,0,8.83,4.13,4.13,0,0,1-3.46,1.64,4.2,4.2,0,0,1-3.5-1.63,7,7,0,0,1-1.27-4.46,6.89,6.89,0,0,1,1.28-4.39A4.22,4.22,0,0,1,181.15,263.19Zm0,.83a3.22,3.22,0,0,0-2.77,1.41,6.2,6.2,0,0,0-1,3.77,6.39,6.39,0,0,0,1,3.84,3.44,3.44,0,0,0,5.54,0,6.38,6.38,0,0,0,1-3.84,6.23,6.23,0,0,0-1-3.76A3.22,3.22,0,0,0,181.16,264Z"/><path class="cls-2" d="M205.67,268V275h-.94v-6.88a5.18,5.18,0,0,0-.72-3.14,2.52,2.52,0,0,0-2.11-.92,4.14,4.14,0,0,0-2.79,1,4.32,4.32,0,0,0-1.17,3.45V275H197V263.47h.94v2.15a4.07,4.07,0,0,1,1.32-1.6,4.67,4.67,0,0,1,2.68-.83,3.46,3.46,0,0,1,2.72,1.16A5.51,5.51,0,0,1,205.67,268Z"/><path class="cls-2" d="M214.55,263.19a4.15,4.15,0,0,1,3.46,1.64,8.25,8.25,0,0,1,0,8.83,4.13,4.13,0,0,1-3.46,1.64,4.2,4.2,0,0,1-3.5-1.63,7,7,0,0,1-1.27-4.46,7,7,0,0,1,1.28-4.39A4.22,4.22,0,0,1,214.55,263.19Zm0,.83a3.22,3.22,0,0,0-2.77,1.41,6.2,6.2,0,0,0-1,3.77,6.39,6.39,0,0,0,1,3.84,3.45,3.45,0,0,0,5.55,0,6.45,6.45,0,0,0,1-3.84,6.3,6.3,0,0,0-1-3.76A3.25,3.25,0,0,0,214.56,264Z"/><path class="cls-2" d="M224.53,260.21v3.26h3.88v.8h-3.88v6.9a3.55,3.55,0,0,0,.34,1.84,2.24,2.24,0,0,0,2,1.15h1.51v.8H227a3.58,3.58,0,0,1-2.39-.83,3.67,3.67,0,0,1-1-3v-6.9H222.2v-.8h1.37v-3.26Z"/><path class="cls-2" d="M247.5,268V275h-.95v-6.88a5,5,0,0,0-.75-3.13,2.73,2.73,0,0,0-2.26-.93,3.74,3.74,0,0,0-2.76,1,4.71,4.71,0,0,0-1,3.41V275h-.94V259h.94v6.59a3.77,3.77,0,0,1,1.17-1.57,4.36,4.36,0,0,1,2.83-.83,3.37,3.37,0,0,1,2.72,1.22A5.55,5.55,0,0,1,247.5,268Z"/><path class="cls-2" d="M260.43,268.4V275h-.93v-3.12a4.12,4.12,0,0,1-4.15,3.41,3.79,3.79,0,0,1-2.7-.91,4,4,0,0,1,.3-5.56,6.48,6.48,0,0,1,4.19-1.07h2.34v-.19a3.25,3.25,0,0,0-3.72-3.5,6,6,0,0,0-2,.37,8.3,8.3,0,0,0-1.71,1v-1a7.6,7.6,0,0,1,1.71-.8,8,8,0,0,1,2.2-.34,4.68,4.68,0,0,1,3.34,1.23C260.05,265.13,260.43,266.46,260.43,268.4Zm-3.52.07a5.26,5.26,0,0,0-3.28.82,2.84,2.84,0,0,0-1,2.36,2.54,2.54,0,0,0,.83,2.16,3.16,3.16,0,0,0,2,.63,3.23,3.23,0,0,0,3.09-1.82,7.42,7.42,0,0,0,1-3.44v-.71Z"/><path class="cls-2" d="M264.33,263.47h1l3.89,10.45,3.89-10.45h1L269.82,275h-1.21Z"/><path class="cls-2" d="M287,268.74v.6h-8.72q0,2.76,1.08,3.87a4.69,4.69,0,0,0,3.53,1.23,7.06,7.06,0,0,0,1.63-.26,9.62,9.62,0,0,0,2-.8v1a10.93,10.93,0,0,1-2.08.66,8.56,8.56,0,0,1-1.69.22,5.25,5.25,0,0,1-4-1.43,6.27,6.27,0,0,1-1.45-4.48,6.75,6.75,0,0,1,1.33-4.58,4.77,4.77,0,0,1,3.79-1.57,4.05,4.05,0,0,1,3.41,1.49A6.71,6.71,0,0,1,287,268.74Zm-1-.2a4.91,4.91,0,0,0-1.08-3.53,3.22,3.22,0,0,0-2.49-1,4.21,4.21,0,0,0-2.87,1,5.18,5.18,0,0,0-1.28,3.49Z"/><path class="cls-2" d="M13.12,286.21v3.26H17v.8H13.12v6.9a3.55,3.55,0,0,0,.34,1.84,2.24,2.24,0,0,0,2,1.15H17v.8H15.54a3.6,3.6,0,0,1-2.39-.83,3.67,3.67,0,0,1-1-3v-6.9H10.79v-.8h1.38v-3.26Z"/><path class="cls-2" d="M24.6,289.19a4.14,4.14,0,0,1,3.46,1.64,8.2,8.2,0,0,1,0,8.83,4.12,4.12,0,0,1-3.46,1.64,4.21,4.21,0,0,1-3.5-1.63,7.1,7.1,0,0,1-1.27-4.46,7,7,0,0,1,1.28-4.39A4.23,4.23,0,0,1,24.6,289.19Zm0,.83a3.24,3.24,0,0,0-2.77,1.41,6.27,6.27,0,0,0-1,3.77,6.39,6.39,0,0,0,1,3.84,3.45,3.45,0,0,0,5.55,0,6.45,6.45,0,0,0,1-3.84,6.3,6.3,0,0,0-1-3.76A3.25,3.25,0,0,0,24.61,290Z"/><path class="cls-2" d="M41.39,292.1A4.91,4.91,0,0,1,42.8,290a3.79,3.79,0,0,1,2.18-.85,4.23,4.23,0,0,1,3.4,1.67,7.73,7.73,0,0,1,0,8.73,4.22,4.22,0,0,1-3.4,1.66,3.73,3.73,0,0,1-2.18-.85,4.86,4.86,0,0,1-1.41-2V301h-.92V285h.92Zm7.35,3.12a5.58,5.58,0,0,0-1.19-4,3.17,3.17,0,0,0-5,0,7.37,7.37,0,0,0,0,8,3.17,3.17,0,0,0,5,0A5.56,5.56,0,0,0,48.74,295.22Z"/><path class="cls-2" d="M62.92,294.74v.6H54.21c0,1.84.35,3.13,1.07,3.87a4.7,4.7,0,0,0,3.54,1.23,7.14,7.14,0,0,0,1.63-.26,9.83,9.83,0,0,0,2-.8v1a11.16,11.16,0,0,1-2.08.66,8.65,8.65,0,0,1-1.69.22,5.24,5.24,0,0,1-4-1.43,6.28,6.28,0,0,1-1.46-4.48,6.8,6.8,0,0,1,1.33-4.58,4.79,4.79,0,0,1,3.8-1.57,4,4,0,0,1,3.4,1.49A6.71,6.71,0,0,1,62.92,294.74Zm-1-.2A4.91,4.91,0,0,0,60.88,291a3.22,3.22,0,0,0-2.48-1,4.19,4.19,0,0,0-2.87,1,5.18,5.18,0,0,0-1.28,3.49Z"/><path class="cls-2" d="M74.94,286.21v3.26h3.88v.8H74.94v6.9a3.55,3.55,0,0,0,.34,1.84,2.24,2.24,0,0,0,2,1.15h1.51v.8H77.36a3.58,3.58,0,0,1-2.39-.83,3.67,3.67,0,0,1-1-3v-6.9H72.61v-.8H74v-3.26Z"/><path class="cls-2" d="M91,294V301H90.1v-6.88a5,5,0,0,0-.75-3.13,2.73,2.73,0,0,0-2.27-.93,3.7,3.7,0,0,0-2.75,1,4.71,4.71,0,0,0-1,3.41V301h-.94V285h.94v6.59A3.77,3.77,0,0,1,84.48,290a4.34,4.34,0,0,1,2.83-.83A3.38,3.38,0,0,1,90,290.41,5.61,5.61,0,0,1,91,294Z"/><path class="cls-2" d="M104.82,294.74v.6H96.1q0,2.76,1.08,3.87a4.69,4.69,0,0,0,3.53,1.23,7.21,7.21,0,0,0,1.64-.26,9.83,9.83,0,0,0,2-.8v1a11.26,11.26,0,0,1-2.09.66,8.56,8.56,0,0,1-1.69.22,5.25,5.25,0,0,1-4-1.43,6.27,6.27,0,0,1-1.45-4.48,6.75,6.75,0,0,1,1.33-4.58,4.77,4.77,0,0,1,3.79-1.57,4.05,4.05,0,0,1,3.41,1.49A6.71,6.71,0,0,1,104.82,294.74Zm-1-.2a4.91,4.91,0,0,0-1.08-3.53,3.22,3.22,0,0,0-2.49-1,4.21,4.21,0,0,0-2.87,1,5.18,5.18,0,0,0-1.28,3.49Z"/><path class="cls-2" d="M119.89,289.19a4.14,4.14,0,0,1,3.46,1.64,8.2,8.2,0,0,1,0,8.83,4.12,4.12,0,0,1-3.46,1.64,4.21,4.21,0,0,1-3.5-1.63,7,7,0,0,1-1.27-4.46,7,7,0,0,1,1.28-4.39A4.23,4.23,0,0,1,119.89,289.19Zm0,.83a3.24,3.24,0,0,0-2.77,1.41,6.27,6.27,0,0,0-1,3.77,6.39,6.39,0,0,0,1,3.84,3.45,3.45,0,0,0,5.55,0,6.45,6.45,0,0,0,1-3.84,6.3,6.3,0,0,0-1-3.76A3.25,3.25,0,0,0,119.9,290Z"/><path class="cls-2" d="M137.55,294V301h-.94v-6.88a5.18,5.18,0,0,0-.72-3.14,2.52,2.52,0,0,0-2.11-.92,4.14,4.14,0,0,0-2.79,1,4.32,4.32,0,0,0-1.17,3.45V301h-.95V289.47h.95v2.15a3.91,3.91,0,0,1,1.32-1.6,4.67,4.67,0,0,1,2.68-.83,3.42,3.42,0,0,1,2.71,1.16A5.45,5.45,0,0,1,137.55,294Z"/><path class="cls-2" d="M151.32,294.74v.6h-8.71q0,2.76,1.08,3.87a4.69,4.69,0,0,0,3.53,1.23,7.06,7.06,0,0,0,1.63-.26,9.62,9.62,0,0,0,2-.8v1a10.93,10.93,0,0,1-2.08.66,8.56,8.56,0,0,1-1.69.22,5.25,5.25,0,0,1-4-1.43,6.28,6.28,0,0,1-1.46-4.48,6.75,6.75,0,0,1,1.34-4.58,4.77,4.77,0,0,1,3.79-1.57,4.05,4.05,0,0,1,3.41,1.49A6.78,6.78,0,0,1,151.32,294.74Zm-.95-.2a4.86,4.86,0,0,0-1.09-3.53,3.19,3.19,0,0,0-2.48-1,4.19,4.19,0,0,0-2.87,1,5.18,5.18,0,0,0-1.28,3.49Z"/><path class="cls-2" d="M161.3,289.47h1L165,299.7l2.68-10.23h1.2l2.69,10.29,2.69-10.29h1l-3,11.49h-1.31l-2.65-10.07L165.61,301h-1.29Z"/><path class="cls-2" d="M188.39,294V301h-.95v-6.88a5,5,0,0,0-.75-3.13,2.73,2.73,0,0,0-2.26-.93,3.74,3.74,0,0,0-2.76,1,4.71,4.71,0,0,0-1,3.41V301h-.94V285h.94v6.59a3.77,3.77,0,0,1,1.17-1.57,4.36,4.36,0,0,1,2.83-.83,3.37,3.37,0,0,1,2.72,1.22A5.55,5.55,0,0,1,188.39,294Z"/><path class="cls-2" d="M197.26,289.19a4.17,4.17,0,0,1,3.47,1.64,8.25,8.25,0,0,1,0,8.83,4.15,4.15,0,0,1-3.47,1.64,4.21,4.21,0,0,1-3.5-1.63,7.1,7.1,0,0,1-1.27-4.46,7,7,0,0,1,1.28-4.39A4.23,4.23,0,0,1,197.26,289.19Zm0,.83a3.24,3.24,0,0,0-2.77,1.41,6.27,6.27,0,0,0-1,3.77,6.46,6.46,0,0,0,1,3.84,3.45,3.45,0,0,0,5.55,0,6.45,6.45,0,0,0,1-3.84,6.3,6.3,0,0,0-1-3.76A3.25,3.25,0,0,0,197.27,290Z"/><path class="cls-2" d="M213.09,285H214v1.29h-.95Zm0,4.47H214V301h-.95Z"/><path class="cls-2" d="M227.81,294V301h-.94v-6.88a5.18,5.18,0,0,0-.72-3.14A2.52,2.52,0,0,0,224,290a4.14,4.14,0,0,0-2.79,1,4.32,4.32,0,0,0-1.17,3.45V301h-1V289.47h1v2.15a3.91,3.91,0,0,1,1.32-1.6,4.67,4.67,0,0,1,2.68-.83,3.42,3.42,0,0,1,2.71,1.16A5.45,5.45,0,0,1,227.81,294Z"/><path class="cls-2" d="M232.61,285h.95v1.29h-.95Zm0,4.47h.95V301h-.95Z"/><path class="cls-2" d="M239.65,286.21v3.26h3.89v.8h-3.89v6.9A3.55,3.55,0,0,0,240,299a2.25,2.25,0,0,0,2,1.15h1.52v.8h-1.47a3.6,3.6,0,0,1-2.39-.83,3.7,3.7,0,0,1-1-3v-6.9h-1.38v-.8h1.38v-3.26Z"/><path class="cls-2" d="M247.06,285H248v1.29h-.94Zm0,4.47H248V301h-.94Z"/><path class="cls-2" d="M261.21,294.4V301h-.93v-3.12a4.12,4.12,0,0,1-4.15,3.41,3.82,3.82,0,0,1-2.7-.91,3.57,3.57,0,0,1-1-2.71,3.5,3.5,0,0,1,1.28-2.85,6.48,6.48,0,0,1,4.19-1.07h2.34v-.19a3.25,3.25,0,0,0-3.72-3.5,6,6,0,0,0-2,.37,8,8,0,0,0-1.7,1v-1a7.35,7.35,0,0,1,1.7-.8,8,8,0,0,1,2.2-.34,4.71,4.71,0,0,1,3.35,1.23C260.83,291.13,261.21,292.46,261.21,294.4Zm-3.51.07a5.24,5.24,0,0,0-3.28.82,2.85,2.85,0,0,0-1,2.36,2.57,2.57,0,0,0,.83,2.16,3.16,3.16,0,0,0,2,.63,3.24,3.24,0,0,0,3.1-1.82,7.53,7.53,0,0,0,.95-3.44v-.71Z"/><path class="cls-2" d="M267.16,286.21v3.26H271v.8h-3.88v6.9a3.55,3.55,0,0,0,.34,1.84,2.24,2.24,0,0,0,2,1.15H271v.8h-1.46a3.58,3.58,0,0,1-2.39-.83,3.67,3.67,0,0,1-1-3v-6.9h-1.37v-.8h1.37v-3.26Z"/><path class="cls-2" d="M283.54,294.74v.6h-8.72q0,2.76,1.08,3.87a4.69,4.69,0,0,0,3.53,1.23,7.21,7.21,0,0,0,1.64-.26,9.83,9.83,0,0,0,2-.8v1A11.26,11.26,0,0,1,281,301a8.56,8.56,0,0,1-1.69.22,5.25,5.25,0,0,1-4-1.43,6.27,6.27,0,0,1-1.45-4.48,6.75,6.75,0,0,1,1.33-4.58,4.77,4.77,0,0,1,3.79-1.57,4.05,4.05,0,0,1,3.41,1.49A6.71,6.71,0,0,1,283.54,294.74Zm-1-.2A4.91,4.91,0,0,0,281.5,291a3.22,3.22,0,0,0-2.49-1,4.21,4.21,0,0,0-2.87,1,5.18,5.18,0,0,0-1.28,3.49Z"/><path class="cls-2" d="M294.2,289.81v1a8.5,8.5,0,0,0-1.25-.61,8.35,8.35,0,0,0-1.78-.21,4.36,4.36,0,0,0-2.54.65,2.15,2.15,0,0,0-.71,1.83,1.59,1.59,0,0,0,.67,1.36,5.23,5.23,0,0,0,2,.82l.64.14a6.14,6.14,0,0,1,2.47,1,2.51,2.51,0,0,1,1,2,3.38,3.38,0,0,1-1,2.55,4.92,4.92,0,0,1-3.31.91,8.32,8.32,0,0,1-1.92-.17c-.53-.15-1.08-.33-1.67-.54v-1.18a11.69,11.69,0,0,0,1.62.82,8.28,8.28,0,0,0,2,.26,3.74,3.74,0,0,0,2.46-.68,2.33,2.33,0,0,0,.79-1.83,1.63,1.63,0,0,0-.53-1.37,6.25,6.25,0,0,0-2.45-1l-.66-.15a5.57,5.57,0,0,1-2.2-1,2.29,2.29,0,0,1-.95-1.86,2.93,2.93,0,0,1,1.15-2.6,4.87,4.87,0,0,1,2.81-.79,8.43,8.43,0,0,1,2,.16A9.9,9.9,0,0,1,294.2,289.81Z"/><path class="cls-2" d="M60.42,312.21v3.26H64.3v.8H60.42v6.9a3.55,3.55,0,0,0,.34,1.84,2.24,2.24,0,0,0,2,1.15H64.3v.8H62.84a3.58,3.58,0,0,1-2.39-.83,3.67,3.67,0,0,1-1-3v-6.9H58.09v-.8h1.37v-3.26Z"/><path class="cls-2" d="M76.52,320V327h-.94v-6.88a5,5,0,0,0-.75-3.13,2.75,2.75,0,0,0-2.27-.93,3.7,3.7,0,0,0-2.75,1,4.71,4.71,0,0,0-1,3.41V327h-.94V311h.94v6.59A3.77,3.77,0,0,1,70,316a4.34,4.34,0,0,1,2.83-.83,3.38,3.38,0,0,1,2.72,1.22A5.61,5.61,0,0,1,76.52,320Z"/><path class="cls-2" d="M81.32,311h1v1.29h-1Zm0,4.47h1V327h-1Z"/><path class="cls-2" d="M93.87,315.81v1a8.62,8.62,0,0,0-1.24-.61,8.44,8.44,0,0,0-1.78-.21,4.39,4.39,0,0,0-2.55.65,2.15,2.15,0,0,0-.71,1.83,1.61,1.61,0,0,0,.67,1.36,5.3,5.3,0,0,0,2,.82l.65.14a6.2,6.2,0,0,1,2.47,1,2.47,2.47,0,0,1,1,2,3.38,3.38,0,0,1-1,2.55,4.88,4.88,0,0,1-3.3.91,8.42,8.42,0,0,1-1.93-.17c-.53-.15-1.08-.33-1.66-.54v-1.18a10.63,10.63,0,0,0,1.62.82,8.28,8.28,0,0,0,2,.26,3.71,3.71,0,0,0,2.45-.68,2.34,2.34,0,0,0,.8-1.83,1.66,1.66,0,0,0-.53-1.37,6.32,6.32,0,0,0-2.45-1l-.66-.15a5.62,5.62,0,0,1-2.21-1,2.32,2.32,0,0,1-.95-1.86A2.93,2.93,0,0,1,87.8,316a4.88,4.88,0,0,1,2.82-.79,8.43,8.43,0,0,1,2,.16A10.31,10.31,0,0,1,93.87,315.81Z"/><path class="cls-2" d="M113.23,316v1a7.68,7.68,0,0,0-1.41-.71A6,6,0,0,0,110,316a4.42,4.42,0,0,0-3.56,1.28,5.94,5.94,0,0,0-1.08,3.92,6,6,0,0,0,1.08,3.95,4.42,4.42,0,0,0,3.56,1.27,5.92,5.92,0,0,0,1.62-.22,7.59,7.59,0,0,0,1.61-.66v.95a7.49,7.49,0,0,1-1.63.56,8.14,8.14,0,0,1-1.68.18,5.68,5.68,0,0,1-4-1.36c-1-.92-1.49-2.47-1.49-4.67s.5-3.75,1.49-4.66a5.69,5.69,0,0,1,4-1.37,7,7,0,0,1,1.74.24A6.36,6.36,0,0,1,113.23,316Z"/><path class="cls-2" d="M121.15,315.19a4.14,4.14,0,0,1,3.46,1.64,8.2,8.2,0,0,1,0,8.83,4.12,4.12,0,0,1-3.46,1.64,4.21,4.21,0,0,1-3.5-1.63,7,7,0,0,1-1.27-4.46,7,7,0,0,1,1.28-4.39A4.23,4.23,0,0,1,121.15,315.19Zm0,.83a3.24,3.24,0,0,0-2.77,1.41,6.27,6.27,0,0,0-1,3.77,6.39,6.39,0,0,0,1,3.84,3.45,3.45,0,0,0,5.55,0,6.45,6.45,0,0,0,1-3.84,6.3,6.3,0,0,0-1-3.76A3.25,3.25,0,0,0,121.16,316Z"/><path class="cls-2" d="M130.14,311h.94v16h-.94Z"/><path class="cls-2" d="M136.16,311h.94v16h-.94Z"/><path class="cls-2" d="M150.29,320.4V327h-.93v-3.12a4.12,4.12,0,0,1-4.15,3.41,3.8,3.8,0,0,1-2.7-.91,4,4,0,0,1,.3-5.56,6.48,6.48,0,0,1,4.19-1.07h2.34v-.19a3.25,3.25,0,0,0-3.72-3.5,6,6,0,0,0-2,.37,8.3,8.3,0,0,0-1.71,1v-1a7.6,7.6,0,0,1,1.71-.8,8,8,0,0,1,2.2-.34,4.67,4.67,0,0,1,3.34,1.23C149.91,317.13,150.29,318.46,150.29,320.4Zm-3.51.07a5.27,5.27,0,0,0-3.29.82,2.84,2.84,0,0,0-1,2.36,2.57,2.57,0,0,0,.83,2.16,3.16,3.16,0,0,0,2,.63,3.24,3.24,0,0,0,3.1-1.82,7.53,7.53,0,0,0,1-3.44v-.71Z"/><path class="cls-2" d="M156.18,318.1a4.91,4.91,0,0,1,1.41-2.06,3.79,3.79,0,0,1,2.18-.85,4.23,4.23,0,0,1,3.4,1.67,7.73,7.73,0,0,1,0,8.73,4.22,4.22,0,0,1-3.4,1.66,3.73,3.73,0,0,1-2.18-.85,4.86,4.86,0,0,1-1.41-2V327h-.92V311h.92Zm7.35,3.12a5.58,5.58,0,0,0-1.19-4,3.17,3.17,0,0,0-5,0,7.37,7.37,0,0,0,0,8,3.17,3.17,0,0,0,5,0A5.56,5.56,0,0,0,163.53,321.22Z"/><path class="cls-2" d="M172.81,315.19a4.17,4.17,0,0,1,3.47,1.64,8.25,8.25,0,0,1,0,8.83,4.15,4.15,0,0,1-3.47,1.64,4.21,4.21,0,0,1-3.5-1.63,7.1,7.1,0,0,1-1.27-4.46,7,7,0,0,1,1.28-4.39A4.23,4.23,0,0,1,172.81,315.19Zm0,.83a3.24,3.24,0,0,0-2.77,1.41,6.27,6.27,0,0,0-1,3.77,6.46,6.46,0,0,0,1,3.84,3.45,3.45,0,0,0,5.55,0,6.45,6.45,0,0,0,1-3.84,6.3,6.3,0,0,0-1-3.76A3.25,3.25,0,0,0,172.82,316Z"/><path class="cls-2" d="M188,316.28a2.76,2.76,0,0,0-.61-.19,4.45,4.45,0,0,0-.89-.07,3.72,3.72,0,0,0-2.89,1.3,5.52,5.52,0,0,0-.9,3.59v6h-.92V315.47h.92v2.15a4.49,4.49,0,0,1,1.29-1.55,4.32,4.32,0,0,1,2.71-.88c.26,0,.5,0,.7,0a2.33,2.33,0,0,1,.59.08Z"/><path class="cls-2" d="M198.73,320.4V327h-.93v-3.12a4.12,4.12,0,0,1-4.16,3.41,3.78,3.78,0,0,1-2.69-.91,4,4,0,0,1,.29-5.56,6.54,6.54,0,0,1,4.2-1.07h2.34v-.19a3.27,3.27,0,0,0-3.73-3.5,6.12,6.12,0,0,0-2,.37,8.54,8.54,0,0,0-1.7,1v-1a7.75,7.75,0,0,1,1.7-.8,8,8,0,0,1,2.21-.34,4.68,4.68,0,0,1,3.34,1.23C198.35,317.13,198.73,318.46,198.73,320.4Zm-3.52.07a5.26,5.26,0,0,0-3.28.82,2.84,2.84,0,0,0-1,2.36,2.54,2.54,0,0,0,.83,2.16,3.16,3.16,0,0,0,2,.63,3.23,3.23,0,0,0,3.09-1.82,7.42,7.42,0,0,0,1-3.44v-.71Z"/><path class="cls-2" d="M204.67,312.21v3.26h3.89v.8h-3.89v6.9A3.55,3.55,0,0,0,205,325a2.24,2.24,0,0,0,2,1.15h1.52v.8h-1.47a3.6,3.6,0,0,1-2.39-.83,3.7,3.7,0,0,1-1-3v-6.9h-1.38v-.8h1.38v-3.26Z"/><path class="cls-2" d="M212.08,311H213v1.29h-.94Zm0,4.47H213V327h-.94Z"/><path class="cls-2" d="M222.17,315.19a4.16,4.16,0,0,1,3.47,1.64,8.25,8.25,0,0,1,0,8.83,4.13,4.13,0,0,1-3.47,1.64,4.19,4.19,0,0,1-3.49-1.63,7,7,0,0,1-1.27-4.46,6.89,6.89,0,0,1,1.28-4.39A4.2,4.2,0,0,1,222.17,315.19Zm0,.83a3.21,3.21,0,0,0-2.76,1.41,6.2,6.2,0,0,0-1,3.77,6.46,6.46,0,0,0,1,3.84,3.45,3.45,0,0,0,5.55,0,6.38,6.38,0,0,0,1-3.84,6.23,6.23,0,0,0-1-3.76A3.23,3.23,0,0,0,222.18,316Z"/><path class="cls-2" d="M239.83,320V327h-.94v-6.88a5.18,5.18,0,0,0-.72-3.14,2.52,2.52,0,0,0-2.11-.92,4.14,4.14,0,0,0-2.79,1,4.32,4.32,0,0,0-1.17,3.45V327h-.94V315.47h.94v2.15a4.07,4.07,0,0,1,1.32-1.6,4.67,4.67,0,0,1,2.68-.83,3.44,3.44,0,0,1,2.72,1.16A5.46,5.46,0,0,1,239.83,320Z"/><path class="cls-2" d="M245.09,325.66h1V327h-1Z"/><path class="cls-2" d="M95.52,38.52V19.42H89.05V15.18h17.17v4.24H99.76v19.1Z"/><path class="cls-2" d="M124.38,38.52V28.77H114v9.75h-4.25V15.18H114v9.38h10.37V15.18h4.24V38.52Z"/><path class="cls-2" d="M137.73,28.7v5.61h11.74v4.21h-16V15.18h16v4.24H137.73v5.21h9.81V28.7Z"/><path class="cls-2" d="M104.07,71.83V57.77c0-3.47-1.66-5.5-5-5.5s-5,2-5,5.5V71.83H89.88V57.77c0-6,3.28-9.75,9.21-9.75s9.22,3.75,9.22,9.75V71.83Z"/><path class="cls-2" d="M116.92,62v5.61h11.73v4.21h-16V48.49h16v4.24H116.92v5.21h9.81V62Z"/><path class="cls-2" d="M138,71.83V52.73H131.5V48.49h17.17v4.24h-6.46v19.1Z"/><path class="cls-2" d="M174.92,48.49h4.24v15c0,6-3.28,8.78-7.56,8.78a6.61,6.61,0,0,1-6.13-3.53h-.07a6.57,6.57,0,0,1-6.13,3.53c-4.27,0-7.55-2.78-7.55-8.78v-15H156v15c0,3.21,1.59,4.53,3.68,4.53s3.68-1.35,3.68-4.53v-15h4.24v15c0,3.18,1.59,4.53,3.68,4.53s3.68-1.32,3.68-4.53Z"/><path class="cls-2" d="M194,72.29c-6.76,0-11.53-5.14-11.53-12.13S187.21,48,194,48s11.53,5.14,11.53,12.14S200.73,72.29,194,72.29Zm7.23-12.13c0-4.57-2.92-7.89-7.23-7.89s-7.22,3.32-7.22,7.89,2.91,7.92,7.22,7.92S201.2,64.73,201.2,60.16Z"/><path class="cls-2" d="M222,71.83l-4.61-7.89h-3.91v7.89h-4.24V48.49h9.08c5.5,0,7.92,3.24,7.92,7.71,0,3.42-1.43,6.13-4.51,7.2v.08l5.31,8.35Zm-3.61-12.14c2.68,0,3.57-1.5,3.57-3.49s-.89-3.47-3.57-3.47h-4.91v7Z"/><path class="cls-2" d="M230.45,71.83V48.49h4.25V58.62h.06l7.69-10.13h5.34l-9.22,11.45,9.55,11.89h-5.47l-7.89-10.42h-.06V71.83Z"/><path class="cls-2" d="M255.47,62v5.61h11.74v4.21h-16V48.49h16v4.24H255.47v5.21h9.81V62Z"/><path class="cls-2" d="M284.14,71.83l-4.61-7.89h-3.91v7.89h-4.24V48.49h9.08c5.5,0,7.92,3.24,7.92,7.71,0,3.42-1.43,6.13-4.51,7.2v.08l5.3,8.35Zm-3.61-12.14c2.68,0,3.57-1.5,3.57-3.49s-.89-3.47-3.57-3.47h-4.91v7Z"/><g id="_" data-name="🥂"><line class="cls-3" x1="20.47" y1="48.32" x2="20.47" y2="70.37"/><line class="cls-3" x1="9.96" y1="70.37" x2="30.99" y2="70.37"/><path class="cls-4" d="M9,10.92V13.6c0,18.7,5.16,33.76,11.47,33.76S31.94,32.3,31.94,13.6V10.92"/><line class="cls-3" x1="56.7" y1="48.12" x2="61.77" y2="69.51"/><line class="cls-3" x1="51.54" y1="72" x2="72" y2="67.11"/><path class="cls-4" d="M36.92,14.37c.19.86.38,1.73.57,2.68C41.79,35.18,50.3,48.7,56.42,47.16s7.65-17.35,3.34-35.48c-.19-.86-.47-1.82-.67-2.68"/><line class="cls-5" x1="9.96" y1="18.59" x2="30.99" y2="18.59"/><line class="cls-5" x1="39.59" y1="21.47" x2="60.62" y2="16.67"/></g></g></svg>