<svg id="Card_Backs" data-name="Card Backs" xmlns="http://www.w3.org/2000/svg" viewBox="0 0 198 270"><defs><style>.cls-1{opacity:0.25;}.cls-2{fill:#ad3224;}.cls-3{fill:#007065;}.cls-4{fill:#3352a2;}.cls-5{fill:#bf1e67;}.cls-6{fill:#17733b;}</style></defs><title>goalCard[back]</title><rect width="198" height="270"/><g class="cls-1"><path class="cls-2" d="M82.859,2.151a2.709,2.709,0,0,1,1.714-.874,2.073,2.073,0,0,1,1.617.672,1.731,1.731,0,0,1,.586,1.529,2.964,2.964,0,0,1-.941,1.67,5,5,0,0,0-1.115-.462,1.145,1.145,0,0,0-1.186.3.917.917,0,0,0-.27.561,2.289,2.289,0,0,0,.089.878l.118.47a4.571,4.571,0,0,1,.249,1.059A1.642,1.642,0,0,1,83.188,9.3a1.838,1.838,0,0,1-1.448.639,2.816,2.816,0,0,1-1.735-.96,2.32,2.32,0,0,1-.5-.631c-.1-.214-.187-.449-.275-.7l.4-.388a3.945,3.945,0,0,0,.216.738,2.922,2.922,0,0,0,.511.672,2.155,2.155,0,0,0,1.3.713,1.293,1.293,0,0,0,1.081-.412,1.6,1.6,0,0,0,.439-.8,4.24,4.24,0,0,0-.215-1.331L82.8,6.277a2.121,2.121,0,0,1-.05-1,1.507,1.507,0,0,1,.443-.755,1.446,1.446,0,0,1,1.215-.42,3.067,3.067,0,0,1,1.25.445,2.66,2.66,0,0,0,.663-1.282,1.312,1.312,0,0,0-.443-1.043,1.425,1.425,0,0,0-1.221-.441,2.5,2.5,0,0,0-1.427.775l-4.782,4.67-.393-.383Z"/></g><path class="cls-3" d="M56.585,11.2l-3.9-8.5.557-.544,8.7,3.809ZM53.407,2.836l3.44,7.432L61.03,6.183Z"/><path class="cls-4" d="M94.06,28.185a3.554,3.554,0,0,0,2.134-.634,2.343,2.343,0,0,0,.881-2.042V18.676h.99v6.973a2.9,2.9,0,0,1-1.273,2.625,4.926,4.926,0,0,1-5.464,0,2.9,2.9,0,0,1-1.272-2.625V18.676h.989v6.833a2.354,2.354,0,0,0,.873,2.036A3.52,3.52,0,0,0,94.06,28.185Z"/><g class="cls-1"><path class="cls-5" d="M73.508,21.024l-.329.321-.549-.536a1.289,1.289,0,0,0-.882-.424,1.676,1.676,0,0,0-1.148.577l-.418.408,1.275,1.245-.33.322-1.274-1.246L65.37,26.069a3.217,3.217,0,0,1-1.63,1.023,1.657,1.657,0,0,1-1.343-.577l-.3-.289.329-.321.2.2a1.526,1.526,0,0,0,.928.5q.453.028,1.415-.911l4.483-4.378-.743-.725.329-.322.743.726.33-.322a2.246,2.246,0,0,1,1.507-.771,1.869,1.869,0,0,1,1.342.6Z"/></g><g class="cls-1"><path class="cls-2" d="M15.62,20.372a2.579,2.579,0,0,1,.579-1.8,2.07,2.07,0,0,1,1.63-.642,1.81,1.81,0,0,1,1.522.677,2.934,2.934,0,0,1,.543,1.83,5.027,5.027,0,0,0-1.122.443,1.1,1.1,0,0,0-.621,1.032.915.915,0,0,0,.215.583,2.385,2.385,0,0,0,.7.56l.424.25a4.841,4.841,0,0,1,.943.577,1.649,1.649,0,0,1,.6,1.318,1.759,1.759,0,0,1-.561,1.452,2.847,2.847,0,0,1-1.923.518,2.41,2.41,0,0,1-.812-.1c-.223-.085-.457-.188-.7-.309v-.548a4.222,4.222,0,0,0,.686.374,3.11,3.11,0,0,0,.848.122A2.18,2.18,0,0,0,20,26.318a1.233,1.233,0,0,0,.465-1.037,1.58,1.58,0,0,0-.268-.869,4.385,4.385,0,0,0-1.116-.793l-.508-.291a2.239,2.239,0,0,1-.764-.677,1.5,1.5,0,0,1-.233-.839,1.381,1.381,0,0,1,.555-1.137,3.063,3.063,0,0,1,1.206-.548,2.63,2.63,0,0,0-.459-1.364,1.376,1.376,0,0,0-1.069-.432,1.417,1.417,0,0,0-1.182.531,2.392,2.392,0,0,0-.448,1.533V27H15.62Z"/></g><g class="cls-1"><path class="cls-4" d="M31.224,1.3a3.554,3.554,0,0,0-2.134.634,2.342,2.342,0,0,0-.881,2.042v6.833h-.99V3.836A2.9,2.9,0,0,1,28.492,1.21a4.926,4.926,0,0,1,5.464,0,2.9,2.9,0,0,1,1.272,2.626v6.973h-.989V3.976a2.357,2.357,0,0,0-.873-2.037A3.526,3.526,0,0,0,31.224,1.3Z"/></g><path class="cls-5" d="M3.82,11.555V11.1H4.6a1.293,1.293,0,0,0,.931-.309,1.6,1.6,0,0,0,.394-1.2V9.013h-1.8V8.558h1.8V2.367A3.068,3.068,0,0,1,6.333.519,1.655,1.655,0,0,1,7.7,0h.418V.455H7.832A1.542,1.542,0,0,0,6.817.746q-.341.293-.341,1.621V8.558H7.527v.455H6.476v.455a2.139,2.139,0,0,1-.507,1.585,1.869,1.869,0,0,1-1.385.5Z"/><path class="cls-6" d="M41.082,18.3h5.5v.454h-5.5Zm0,8.249h5.5V27h-5.5Zm.627-4.413h4.245v.454H41.709Z"/><path class="cls-2" d="M54.206,37.919a2.579,2.579,0,0,1,.579-1.8,2.07,2.07,0,0,1,1.63-.642,1.81,1.81,0,0,1,1.522.677,2.934,2.934,0,0,1,.543,1.83,5.027,5.027,0,0,0-1.122.443,1.1,1.1,0,0,0-.621,1.032.915.915,0,0,0,.215.583,2.385,2.385,0,0,0,.7.56l.424.25a4.841,4.841,0,0,1,.943.577,1.649,1.649,0,0,1,.6,1.318,1.759,1.759,0,0,1-.561,1.452,2.847,2.847,0,0,1-1.923.518,2.41,2.41,0,0,1-.812-.1c-.223-.085-.457-.188-.7-.309V43.76a4.222,4.222,0,0,0,.686.374,3.11,3.11,0,0,0,.848.122,2.18,2.18,0,0,0,1.433-.391,1.237,1.237,0,0,0,.466-1.037,1.589,1.589,0,0,0-.269-.869,4.385,4.385,0,0,0-1.116-.793l-.508-.291a2.239,2.239,0,0,1-.764-.677,1.5,1.5,0,0,1-.233-.839,1.381,1.381,0,0,1,.555-1.137,3.063,3.063,0,0,1,1.206-.548,2.63,2.63,0,0,0-.459-1.364,1.376,1.376,0,0,0-1.069-.432,1.417,1.417,0,0,0-1.182.531,2.392,2.392,0,0,0-.448,1.533v6.6h-.555Z"/><g class="cls-1"><path class="cls-4" d="M82.412,70a3.551,3.551,0,0,0-2.133.634,2.342,2.342,0,0,0-.882,2.042v6.833h-.989V72.532a2.9,2.9,0,0,1,1.272-2.626,4.926,4.926,0,0,1,5.464,0,2.9,2.9,0,0,1,1.273,2.626v6.973h-.99V72.672a2.357,2.357,0,0,0-.872-2.037A3.529,3.529,0,0,0,82.412,70Z"/></g><path class="cls-5" d="M54.583,80.251V79.8h.776a1.293,1.293,0,0,0,.931-.309,1.6,1.6,0,0,0,.394-1.2V77.71h-1.8v-.455h1.8V71.064a3.068,3.068,0,0,1,.412-1.848,1.655,1.655,0,0,1,1.367-.519h.418v.454H58.6a1.542,1.542,0,0,0-1.015.292q-.34.293-.341,1.621v6.191H58.29v.455H57.239v.454a2.14,2.14,0,0,1-.507,1.586,1.868,1.868,0,0,1-1.385.5Z"/><g class="cls-1"><path class="cls-6" d="M76.8,39.2l3.888-3.8.329.321-3.888,3.8Zm3.221,2.28,3-2.931.33.322-3,2.931Zm2.752,3.553,3.888-3.8.329.322-3.888,3.8Z"/></g><g class="cls-1"><path class="cls-3" d="M35.036,37.432l-3.4,8.7h-.788l-3.4-8.7Zm-3.809,8.11,2.949-7.632H28.26Z"/></g><path class="cls-4" d="M9.717,37.646a3.522,3.522,0,0,0-1.968-1.024,2.453,2.453,0,0,0-2.1.835L.7,42.288,0,41.605l5.049-4.93a3.037,3.037,0,0,1,2.8-.978A4.876,4.876,0,0,1,10.381,37a4.7,4.7,0,0,1,1.333,2.471,2.884,2.884,0,0,1-1,2.735L5.664,47.136l-.7-.684,4.948-4.831a2.35,2.35,0,0,0,.857-2.042A3.358,3.358,0,0,0,9.717,37.646Z"/><g class="cls-1"><path class="cls-5" d="M15.631,52.779l.328.321-.548.536a1.234,1.234,0,0,0-.435.862,1.61,1.61,0,0,0,.591,1.121l.419.409,1.274-1.245.329.321-1.275,1.245L20.8,60.727a3.117,3.117,0,0,1,1.047,1.591,1.582,1.582,0,0,1-.591,1.311l-.3.289-.33-.322.2-.2a1.464,1.464,0,0,0,.506-.907q.03-.441-.932-1.381l-4.483-4.378-.743.726-.329-.322.743-.725-.329-.322a2.15,2.15,0,0,1-.79-1.471,1.787,1.787,0,0,1,.616-1.312Z"/></g><path class="cls-2" d="M9.766,75.191a2.592,2.592,0,0,1,.894,1.673,1.972,1.972,0,0,1-.688,1.579,1.818,1.818,0,0,1-1.566.573A3.088,3.088,0,0,1,6.7,78.1a4.734,4.734,0,0,0,.472-1.089,1.081,1.081,0,0,0-.307-1.158.96.96,0,0,0-.575-.264,2.454,2.454,0,0,0-.9.087l-.481.115a4.792,4.792,0,0,1-1.085.243,1.726,1.726,0,0,1-1.376-.519A1.76,1.76,0,0,1,1.792,74.1,2.707,2.707,0,0,1,2.775,72.4a2.358,2.358,0,0,1,.646-.491c.219-.093.46-.183.721-.268l.4.388a4.232,4.232,0,0,0-.756.21,3.006,3.006,0,0,0-.688.5,2.083,2.083,0,0,0-.73,1.265,1.237,1.237,0,0,0,.422,1.056,1.658,1.658,0,0,0,.819.428,4.467,4.467,0,0,0,1.363-.21l.57-.144a2.294,2.294,0,0,1,1.03-.049,1.567,1.567,0,0,1,.773.432,1.372,1.372,0,0,1,.43,1.187,2.921,2.921,0,0,1-.455,1.221,2.773,2.773,0,0,0,1.312.647A1.382,1.382,0,0,0,9.7,78.142a1.351,1.351,0,0,0,.451-1.191,2.416,2.416,0,0,0-.794-1.394l-4.782-4.67.392-.384Z"/><g class="cls-1"><path class="cls-3" d="M71.83,54.579l-3.4,8.7h-.788l-3.4-8.7Zm-3.809,8.11,2.949-7.632H65.054Z"/></g><path class="cls-4" d="M47.173,54.794a3.533,3.533,0,0,0-1.968-1.025,2.453,2.453,0,0,0-2.1.836l-4.948,4.831-.7-.683,5.048-4.93a3.038,3.038,0,0,1,2.8-.978,4.876,4.876,0,0,1,2.531,1.3,4.689,4.689,0,0,1,1.333,2.471,2.885,2.885,0,0,1-1,2.735l-5.049,4.93-.7-.683,4.947-4.831a2.353,2.353,0,0,0,.859-2.043A3.37,3.37,0,0,0,47.173,54.794Z"/><g class="cls-1"><path class="cls-6" d="M27.088,75.1l3.887,3.8-.329.321-3.887-3.8Zm3.639-2.687,3,2.931-.329.321-3-2.931Zm2.334-3.146,3.888,3.8-.33.321-3.887-3.8Z"/></g><path class="cls-2" d="M91.556,55.066a2.579,2.579,0,0,1,.579-1.8,2.07,2.07,0,0,1,1.63-.642,1.81,1.81,0,0,1,1.522.677,2.934,2.934,0,0,1,.543,1.83,5.027,5.027,0,0,0-1.122.443,1.1,1.1,0,0,0-.621,1.032.915.915,0,0,0,.215.583,2.4,2.4,0,0,0,.7.56l.424.25a4.841,4.841,0,0,1,.943.577,1.649,1.649,0,0,1,.6,1.318,1.756,1.756,0,0,1-.561,1.452,2.847,2.847,0,0,1-1.923.518,2.41,2.41,0,0,1-.812-.1c-.223-.085-.457-.188-.7-.309v-.548a4.222,4.222,0,0,0,.686.374,3.11,3.11,0,0,0,.848.122,2.18,2.18,0,0,0,1.433-.391,1.237,1.237,0,0,0,.466-1.037,1.589,1.589,0,0,0-.269-.869,4.385,4.385,0,0,0-1.116-.793l-.508-.291a2.239,2.239,0,0,1-.764-.677,1.5,1.5,0,0,1-.233-.839,1.379,1.379,0,0,1,.556-1.137,3.051,3.051,0,0,1,1.205-.548,2.63,2.63,0,0,0-.459-1.364,1.376,1.376,0,0,0-1.069-.432,1.417,1.417,0,0,0-1.182.531,2.392,2.392,0,0,0-.448,1.533v6.605h-.555Z"/><g class="cls-1"><path class="cls-2" d="M68.465,89.988a2.7,2.7,0,0,1,1.714-.874,2.073,2.073,0,0,1,1.617.672,1.731,1.731,0,0,1,.586,1.529,2.967,2.967,0,0,1-.941,1.67,5,5,0,0,0-1.115-.462,1.143,1.143,0,0,0-1.186.3.915.915,0,0,0-.27.56,2.3,2.3,0,0,0,.088.878l.119.471a4.545,4.545,0,0,1,.249,1.059,1.642,1.642,0,0,1-.532,1.344,1.837,1.837,0,0,1-1.447.639,2.81,2.81,0,0,1-1.736-.961,2.324,2.324,0,0,1-.5-.63c-.1-.215-.187-.449-.275-.7l.4-.388a3.945,3.945,0,0,0,.216.738,2.922,2.922,0,0,0,.511.672,2.155,2.155,0,0,0,1.3.713,1.293,1.293,0,0,0,1.081-.412,1.6,1.6,0,0,0,.439-.8,4.177,4.177,0,0,0-.215-1.331l-.148-.557a2.139,2.139,0,0,1-.051-1.006,1.522,1.522,0,0,1,.444-.754,1.443,1.443,0,0,1,1.215-.42,3.053,3.053,0,0,1,1.25.445,2.664,2.664,0,0,0,.663-1.282,1.311,1.311,0,0,0-.444-1.043,1.422,1.422,0,0,0-1.22-.441,2.512,2.512,0,0,0-1.427.774l-4.782,4.671-.393-.383Z"/></g><path class="cls-6" d="M96.723,90.775h-5.5V90.32h5.5Zm0,8.249h-5.5v-.455h5.5ZM96.1,95.188H91.851v-.455H96.1Z"/><path class="cls-3" d="M43.62,99.036l-3.9-8.5.557-.545,8.7,3.809Zm-3.179-8.364,3.44,7.432,4.183-4.085Z"/><g class="cls-1"><path class="cls-4" d="M18.124,89.135a3.561,3.561,0,0,0-2.134.634,2.345,2.345,0,0,0-.881,2.042v6.833H14.12V91.672a2.9,2.9,0,0,1,1.272-2.626,4.926,4.926,0,0,1,5.464,0,2.9,2.9,0,0,1,1.273,2.626v6.972h-.99V91.811a2.357,2.357,0,0,0-.872-2.036A3.529,3.529,0,0,0,18.124,89.135Z"/></g><g class="cls-1"><path class="cls-5" d="M29.1,116.168v-.455h.776a1.3,1.3,0,0,0,.932-.309,1.606,1.606,0,0,0,.394-1.2v-.577h-1.8v-.455h1.8V106.98a3.076,3.076,0,0,1,.411-1.848,1.656,1.656,0,0,1,1.367-.519h.418v.455h-.286a1.542,1.542,0,0,0-1.015.291q-.341.293-.34,1.621v6.191H32.8v.455h-1.05v.455a2.135,2.135,0,0,1-.508,1.585,1.869,1.869,0,0,1-1.385.5Z"/></g><g class="cls-1"><path class="cls-3" d="M82.287,115.813l-3.9-8.5.557-.545,8.7,3.81Zm-3.178-8.364,3.44,7.432,4.183-4.085Z"/></g><path class="cls-4" d="M56.711,105.912a3.554,3.554,0,0,0-2.134.634,2.345,2.345,0,0,0-.881,2.042v6.833h-.99v-6.973a2.9,2.9,0,0,1,1.273-2.625,4.926,4.926,0,0,1,5.464,0,2.9,2.9,0,0,1,1.273,2.625v6.973h-.99v-6.833a2.356,2.356,0,0,0-.872-2.036A3.523,3.523,0,0,0,56.711,105.912Z"/><g class="cls-1"><path class="cls-2" d="M14.124,127.329a2.6,2.6,0,0,1-.9-1.673,1.98,1.98,0,0,1,.688-1.58,1.821,1.821,0,0,1,1.566-.572,3.078,3.078,0,0,1,1.71.919,4.682,4.682,0,0,0-.472,1.088,1.08,1.08,0,0,0,.307,1.158.954.954,0,0,0,.574.264,2.453,2.453,0,0,0,.9-.086l.481-.115a4.843,4.843,0,0,1,1.084-.244,1.725,1.725,0,0,1,1.377.52,1.757,1.757,0,0,1,.654,1.413,2.716,2.716,0,0,1-.984,1.7,2.393,2.393,0,0,1-.645.491c-.22.093-.46.182-.722.267l-.4-.388a4.244,4.244,0,0,0,.755-.209,3.022,3.022,0,0,0,.688-.5,2.083,2.083,0,0,0,.731-1.265,1.235,1.235,0,0,0-.422-1.056,1.672,1.672,0,0,0-.819-.429,4.444,4.444,0,0,0-1.363.211l-.57.144a2.309,2.309,0,0,1-1.03.049,1.565,1.565,0,0,1-.773-.433,1.371,1.371,0,0,1-.43-1.187,2.9,2.9,0,0,1,.455-1.22,2.766,2.766,0,0,0-1.313-.647,1.379,1.379,0,0,0-1.068.432,1.353,1.353,0,0,0-.451,1.192,2.414,2.414,0,0,0,.794,1.393l4.782,4.671-.392.383Z"/></g><path class="cls-6" d="M39.61,128.127l3.887,3.8-.329.322-3.888-3.8Zm3.639-2.688,3,2.931-.329.322-3-2.931Zm2.334-3.145,3.887,3.8-.329.322-3.888-3.8Z"/><path class="cls-4" d="M94.061,123.018a3.554,3.554,0,0,0-2.134.634,2.344,2.344,0,0,0-.881,2.042v6.833h-.99v-6.973a2.9,2.9,0,0,1,1.273-2.626,4.926,4.926,0,0,1,5.464,0,2.9,2.9,0,0,1,1.273,2.626v6.973h-.99v-6.833a2.359,2.359,0,0,0-.872-2.037A3.529,3.529,0,0,0,94.061,123.018Z"/><path class="cls-5" d="M65.89,133.273v-.454h.776a1.3,1.3,0,0,0,.932-.309,1.606,1.606,0,0,0,.394-1.2v-.577h-1.8v-.455h1.8v-6.191a3.066,3.066,0,0,1,.412-1.848,1.653,1.653,0,0,1,1.366-.519h.418v.454H69.9a1.542,1.542,0,0,0-1.015.292q-.341.291-.34,1.621v6.191H69.6v.455h-1.05v.454a2.136,2.136,0,0,1-.508,1.586,1.868,1.868,0,0,1-1.385.5Z"/><path class="cls-6" d="M1.984,111.021l3.888,3.8-.33.322-3.887-3.8Zm3.639-2.688,3,2.931-.329.321-3-2.93Zm2.334-3.145,3.887,3.8-.329.322-3.887-3.8Z"/><g class="cls-1"><path class="cls-2" d="M182.794,2.151a2.709,2.709,0,0,1,1.714-.874,2.074,2.074,0,0,1,1.616.672,1.729,1.729,0,0,1,.587,1.529,2.966,2.966,0,0,1-.941,1.67,5.069,5.069,0,0,0-1.115-.462,1.144,1.144,0,0,0-1.186.3.915.915,0,0,0-.27.56,2.289,2.289,0,0,0,.089.878l.118.47a4.569,4.569,0,0,1,.249,1.06,1.641,1.641,0,0,1-.532,1.343,1.838,1.838,0,0,1-1.448.639,2.818,2.818,0,0,1-1.735-.96,2.34,2.34,0,0,1-.5-.631q-.144-.321-.274-.7l.4-.387a3.945,3.945,0,0,0,.215.738,2.965,2.965,0,0,0,.511.672,2.165,2.165,0,0,0,1.295.713,1.294,1.294,0,0,0,1.081-.413,1.592,1.592,0,0,0,.439-.8,4.21,4.21,0,0,0-.215-1.332l-.148-.556a2.14,2.14,0,0,1-.051-1.006,1.513,1.513,0,0,1,.444-.754,1.442,1.442,0,0,1,1.215-.421,3.067,3.067,0,0,1,1.25.445,2.647,2.647,0,0,0,.662-1.282,1.308,1.308,0,0,0-.442-1.043,1.423,1.423,0,0,0-1.22-.441,2.505,2.505,0,0,0-1.427.775l-4.783,4.671L178,6.838Z"/></g><path class="cls-3" d="M156.52,11.2l-3.9-8.5.557-.544,8.7,3.808Zm-3.179-8.364,3.441,7.432,4.183-4.085Z"/><path class="cls-4" d="M194,28.185a3.557,3.557,0,0,0,2.135-.634,2.345,2.345,0,0,0,.88-2.042V18.676H198v6.973a2.9,2.9,0,0,1-1.273,2.625,4.926,4.926,0,0,1-5.464,0,2.9,2.9,0,0,1-1.272-2.625V18.676h.989v6.833a2.354,2.354,0,0,0,.873,2.036A3.52,3.52,0,0,0,194,28.185Z"/><g class="cls-1"><path class="cls-5" d="M173.443,21.024l-.329.322-.549-.536a1.29,1.29,0,0,0-.882-.425,1.676,1.676,0,0,0-1.148.577l-.418.408,1.275,1.245-.33.322-1.274-1.245L165.3,26.07a3.215,3.215,0,0,1-1.629,1.022,1.654,1.654,0,0,1-1.342-.577l-.295-.289.329-.321.2.2a1.529,1.529,0,0,0,.929.494q.452.03,1.414-.911l4.483-4.378-.743-.725.33-.322.743.726.329-.322a2.241,2.241,0,0,1,1.507-.771,1.872,1.872,0,0,1,1.342.6Z"/></g><g class="cls-1"><path class="cls-2" d="M115.555,20.372a2.579,2.579,0,0,1,.579-1.8,2.07,2.07,0,0,1,1.63-.642,1.81,1.81,0,0,1,1.522.677,2.928,2.928,0,0,1,.543,1.83,5.027,5.027,0,0,0-1.122.443,1.1,1.1,0,0,0-.621,1.032.915.915,0,0,0,.215.583,2.385,2.385,0,0,0,.7.56l.423.25a4.815,4.815,0,0,1,.944.577,1.649,1.649,0,0,1,.6,1.318,1.759,1.759,0,0,1-.561,1.452,2.847,2.847,0,0,1-1.923.518,2.406,2.406,0,0,1-.812-.1c-.223-.085-.457-.188-.7-.309v-.548a4.172,4.172,0,0,0,.687.374,3.1,3.1,0,0,0,.847.122,2.179,2.179,0,0,0,1.433-.391,1.24,1.24,0,0,0,.466-1.037,1.589,1.589,0,0,0-.269-.869,4.364,4.364,0,0,0-1.116-.793l-.508-.291a2.239,2.239,0,0,1-.764-.677,1.5,1.5,0,0,1-.233-.839,1.381,1.381,0,0,1,.556-1.137,3.051,3.051,0,0,1,1.2-.548,2.639,2.639,0,0,0-.459-1.364,1.376,1.376,0,0,0-1.069-.432,1.418,1.418,0,0,0-1.182.531,2.392,2.392,0,0,0-.448,1.533V27h-.555Z"/></g><g class="cls-1"><path class="cls-4" d="M131.159,1.3a3.559,3.559,0,0,0-2.135.634,2.344,2.344,0,0,0-.88,2.042v6.833h-.99V3.836a2.9,2.9,0,0,1,1.273-2.626,4.926,4.926,0,0,1,5.464,0,2.9,2.9,0,0,1,1.272,2.626v6.973h-.989V3.976a2.357,2.357,0,0,0-.873-2.037A3.526,3.526,0,0,0,131.159,1.3Z"/></g><path class="cls-5" d="M103.755,11.555V11.1h.776a1.293,1.293,0,0,0,.931-.309,1.6,1.6,0,0,0,.394-1.2V9.013h-1.8V8.558h1.8V2.367a3.075,3.075,0,0,1,.412-1.848A1.656,1.656,0,0,1,107.635,0h.418V.455h-.287a1.54,1.54,0,0,0-1.014.291q-.34.293-.341,1.621V8.558h1.051v.455h-1.051v.455a2.139,2.139,0,0,1-.507,1.585,1.869,1.869,0,0,1-1.385.5Z"/><path class="cls-6" d="M141.017,18.3h5.5v.454h-5.5Zm0,8.249h5.5V27h-5.5Zm.627-4.413h4.245v.454h-4.245Z"/><path class="cls-2" d="M154.142,37.919a2.579,2.579,0,0,1,.579-1.8,2.07,2.07,0,0,1,1.63-.642,1.812,1.812,0,0,1,1.522.677,2.934,2.934,0,0,1,.543,1.83,5.027,5.027,0,0,0-1.122.443,1.1,1.1,0,0,0-.621,1.032.909.909,0,0,0,.215.583,2.385,2.385,0,0,0,.7.56l.423.25a4.812,4.812,0,0,1,.943.577,1.643,1.643,0,0,1,.6,1.318,1.756,1.756,0,0,1-.561,1.452,2.844,2.844,0,0,1-1.922.518,2.406,2.406,0,0,1-.812-.1q-.334-.128-.7-.309V43.76a4.222,4.222,0,0,0,.686.374,3.11,3.11,0,0,0,.848.122,2.182,2.182,0,0,0,1.433-.391,1.24,1.24,0,0,0,.466-1.037,1.6,1.6,0,0,0-.269-.869,4.4,4.4,0,0,0-1.117-.793l-.507-.291a2.229,2.229,0,0,1-.764-.677,1.5,1.5,0,0,1-.233-.839,1.381,1.381,0,0,1,.555-1.137,3.063,3.063,0,0,1,1.206-.548,2.639,2.639,0,0,0-.459-1.364,1.377,1.377,0,0,0-1.069-.432,1.416,1.416,0,0,0-1.182.531,2.386,2.386,0,0,0-.448,1.533v6.6h-.555Z"/><g class="cls-1"><path class="cls-4" d="M182.347,70a3.556,3.556,0,0,0-2.134.634,2.344,2.344,0,0,0-.881,2.042v6.833h-.989V72.532a2.9,2.9,0,0,1,1.272-2.626,4.926,4.926,0,0,1,5.464,0,2.9,2.9,0,0,1,1.273,2.626v6.973h-.989V72.672a2.357,2.357,0,0,0-.873-2.037A3.529,3.529,0,0,0,182.347,70Z"/></g><path class="cls-5" d="M154.517,80.251V79.8h.776a1.3,1.3,0,0,0,.932-.309,1.606,1.606,0,0,0,.393-1.2V77.71h-1.8v-.455h1.8V71.064a3.075,3.075,0,0,1,.412-1.848A1.656,1.656,0,0,1,158.4,68.7h.419v.454h-.287a1.542,1.542,0,0,0-1.015.292q-.341.293-.34,1.621v6.191h1.05v.455h-1.05v.454a2.14,2.14,0,0,1-.508,1.586,1.868,1.868,0,0,1-1.385.5Z"/><g class="cls-1"><path class="cls-6" d="M176.732,39.2l3.889-3.8.329.322-3.888,3.8Zm3.221,2.28,3-2.931.329.321-3,2.931Zm2.752,3.553,3.888-3.8.33.322-3.888,3.8Z"/></g><g class="cls-1"><path class="cls-3" d="M134.971,37.432l-3.4,8.7h-.788l-3.4-8.7Zm-3.809,8.11,2.949-7.632H128.2Z"/></g><path class="cls-4" d="M109.653,37.647a3.533,3.533,0,0,0-1.968-1.025,2.453,2.453,0,0,0-2.1.836l-4.948,4.831-.7-.683,5.049-4.93a3.04,3.04,0,0,1,2.8-.978,4.883,4.883,0,0,1,2.53,1.3,4.7,4.7,0,0,1,1.333,2.472,2.885,2.885,0,0,1-1,2.735l-5.049,4.93-.7-.683,4.948-4.831a2.354,2.354,0,0,0,.858-2.043A3.359,3.359,0,0,0,109.653,37.647Z"/><g class="cls-1"><path class="cls-5" d="M115.564,52.778l.33.322-.549.535a1.238,1.238,0,0,0-.435.862,1.608,1.608,0,0,0,.592,1.121l.417.409,1.275-1.245.329.321-1.275,1.245,4.483,4.378a3.117,3.117,0,0,1,1.047,1.591,1.578,1.578,0,0,1-.59,1.311l-.3.289-.329-.322.2-.2a1.471,1.471,0,0,0,.507-.906q.028-.443-.933-1.382l-4.483-4.378-.744.726-.328-.321.743-.726-.33-.322a2.156,2.156,0,0,1-.789-1.471,1.781,1.781,0,0,1,.616-1.311Z"/></g><path class="cls-2" d="M109.7,75.19a2.605,2.605,0,0,1,.894,1.673,1.974,1.974,0,0,1-.688,1.58,1.818,1.818,0,0,1-1.567.572,3.078,3.078,0,0,1-1.709-.919,4.724,4.724,0,0,0,.473-1.088,1.081,1.081,0,0,0-.308-1.158.951.951,0,0,0-.574-.264,2.453,2.453,0,0,0-.9.086l-.481.116a4.85,4.85,0,0,1-1.084.243,1.726,1.726,0,0,1-1.377-.52,1.753,1.753,0,0,1-.653-1.413,2.709,2.709,0,0,1,.983-1.695,2.415,2.415,0,0,1,.645-.491c.22-.092.46-.182.723-.267l.4.387a4.2,4.2,0,0,0-.756.211,3.012,3.012,0,0,0-.689.5,2.078,2.078,0,0,0-.729,1.265,1.232,1.232,0,0,0,.422,1.055,1.657,1.657,0,0,0,.818.429,4.483,4.483,0,0,0,1.364-.211l.57-.143a2.281,2.281,0,0,1,1.03-.05,1.574,1.574,0,0,1,.772.433,1.371,1.371,0,0,1,.431,1.187,2.906,2.906,0,0,1-.456,1.22,2.774,2.774,0,0,0,1.313.648,1.378,1.378,0,0,0,1.068-.433,1.355,1.355,0,0,0,.452-1.192,2.416,2.416,0,0,0-.794-1.393l-4.783-4.671.393-.383Z"/><g class="cls-1"><path class="cls-3" d="M171.765,54.579l-3.4,8.7h-.788l-3.4-8.7Zm-3.809,8.11,2.949-7.632h-5.916Z"/></g><path class="cls-4" d="M147.107,54.794a3.524,3.524,0,0,0-1.968-1.025,2.452,2.452,0,0,0-2.1.835l-4.948,4.832-.7-.684,5.049-4.93a3.038,3.038,0,0,1,2.8-.978,4.891,4.891,0,0,1,2.53,1.3,4.707,4.707,0,0,1,1.333,2.471,2.885,2.885,0,0,1-1,2.736l-5.048,4.93-.7-.683,4.948-4.832a2.35,2.35,0,0,0,.857-2.042A3.356,3.356,0,0,0,147.107,54.794Z"/><g class="cls-1"><path class="cls-6" d="M127.023,75.1l3.887,3.8-.329.322-3.888-3.8Zm3.638-2.688,3,2.931-.329.322-3-2.931ZM133,69.271l3.887,3.8-.329.322-3.887-3.8Z"/></g><path class="cls-2" d="M191.491,55.066a2.579,2.579,0,0,1,.579-1.8,2.07,2.07,0,0,1,1.63-.642,1.81,1.81,0,0,1,1.522.677,2.928,2.928,0,0,1,.543,1.83,5.027,5.027,0,0,0-1.122.443,1.1,1.1,0,0,0-.621,1.032.915.915,0,0,0,.215.583,2.385,2.385,0,0,0,.7.56l.423.25a4.815,4.815,0,0,1,.944.577,1.649,1.649,0,0,1,.6,1.318,1.759,1.759,0,0,1-.561,1.452,2.847,2.847,0,0,1-1.923.518,2.406,2.406,0,0,1-.812-.1q-.333-.128-.7-.309v-.548a4.172,4.172,0,0,0,.687.374,3.1,3.1,0,0,0,.847.122,2.179,2.179,0,0,0,1.433-.391,1.24,1.24,0,0,0,.466-1.037,1.589,1.589,0,0,0-.269-.869,4.364,4.364,0,0,0-1.116-.793l-.508-.291a2.239,2.239,0,0,1-.764-.677,1.5,1.5,0,0,1-.233-.839A1.381,1.381,0,0,1,194,55.369a3.051,3.051,0,0,1,1.205-.548,2.639,2.639,0,0,0-.459-1.364,1.376,1.376,0,0,0-1.069-.432,1.418,1.418,0,0,0-1.182.531,2.392,2.392,0,0,0-.448,1.533v6.605h-.555Z"/><g class="cls-1"><path class="cls-2" d="M168.4,89.987a2.706,2.706,0,0,1,1.713-.873,2.07,2.07,0,0,1,1.617.671,1.733,1.733,0,0,1,.587,1.53,2.969,2.969,0,0,1-.942,1.67,5.011,5.011,0,0,0-1.114-.462,1.143,1.143,0,0,0-1.186.3.921.921,0,0,0-.271.56,2.309,2.309,0,0,0,.09.878l.117.47a4.569,4.569,0,0,1,.249,1.06,1.644,1.644,0,0,1-.531,1.344,1.843,1.843,0,0,1-1.448.639,2.82,2.82,0,0,1-1.735-.961,2.363,2.363,0,0,1-.5-.63q-.144-.323-.274-.7l.4-.388a3.916,3.916,0,0,0,.216.738,2.918,2.918,0,0,0,.51.672,2.165,2.165,0,0,0,1.3.713,1.294,1.294,0,0,0,1.08-.412,1.6,1.6,0,0,0,.44-.8,4.192,4.192,0,0,0-.216-1.332l-.147-.556a2.139,2.139,0,0,1-.051-1.006,1.523,1.523,0,0,1,.443-.754,1.444,1.444,0,0,1,1.216-.42,3.058,3.058,0,0,1,1.25.445,2.658,2.658,0,0,0,.662-1.283,1.312,1.312,0,0,0-.443-1.043,1.427,1.427,0,0,0-1.22-.441,2.514,2.514,0,0,0-1.427.775l-4.782,4.671-.393-.383Z"/></g><path class="cls-6" d="M196.658,90.775h-5.5V90.32h5.5Zm0,8.249h-5.5v-.455h5.5Zm-.627-3.836h-4.245v-.455h4.245Z"/><path class="cls-3" d="M143.554,99.036l-3.9-8.5.558-.544,8.7,3.809Zm-3.178-8.364,3.44,7.432L148,94.019Z"/><g class="cls-1"><path class="cls-4" d="M118.059,89.135a3.563,3.563,0,0,0-2.134.634,2.345,2.345,0,0,0-.881,2.042v6.833h-.989V91.672a2.9,2.9,0,0,1,1.272-2.626,4.926,4.926,0,0,1,5.464,0,2.9,2.9,0,0,1,1.273,2.626v6.972h-.99V91.811a2.355,2.355,0,0,0-.872-2.036A3.529,3.529,0,0,0,118.059,89.135Z"/></g><g class="cls-1"><path class="cls-5" d="M129.03,116.168v-.455h.776a1.3,1.3,0,0,0,.932-.309,1.606,1.606,0,0,0,.394-1.2v-.577h-1.8v-.455h1.8V106.98a3.076,3.076,0,0,1,.411-1.848,1.658,1.658,0,0,1,1.368-.519h.418v.455h-.287a1.543,1.543,0,0,0-1.015.291q-.34.293-.34,1.621v6.191h1.051v.455h-1.051v.455a2.135,2.135,0,0,1-.508,1.585,1.868,1.868,0,0,1-1.384.5Z"/></g><g class="cls-1"><path class="cls-3" d="M182.221,115.812l-3.9-8.5.558-.544,8.7,3.809Zm-3.178-8.364,3.44,7.433,4.183-4.086Z"/></g><path class="cls-4" d="M156.645,105.912a3.556,3.556,0,0,0-2.134.634,2.345,2.345,0,0,0-.881,2.042v6.833h-.989v-6.973a2.9,2.9,0,0,1,1.272-2.625,4.926,4.926,0,0,1,5.464,0,2.9,2.9,0,0,1,1.273,2.625v6.973h-.99v-6.833a2.354,2.354,0,0,0-.872-2.036A3.523,3.523,0,0,0,156.645,105.912Z"/><g class="cls-1"><path class="cls-2" d="M114.059,127.329a2.592,2.592,0,0,1-.894-1.673,1.974,1.974,0,0,1,.688-1.579,1.817,1.817,0,0,1,1.566-.573,3.075,3.075,0,0,1,1.709.919,4.757,4.757,0,0,0-.473,1.089,1.081,1.081,0,0,0,.308,1.157.955.955,0,0,0,.574.265,2.48,2.48,0,0,0,.9-.087l.481-.115a4.8,4.8,0,0,1,1.084-.243,1.728,1.728,0,0,1,1.377.519,1.753,1.753,0,0,1,.653,1.413,2.7,2.7,0,0,1-.982,1.7,2.394,2.394,0,0,1-.646.491c-.219.093-.46.182-.721.268l-.4-.388a4.325,4.325,0,0,0,.756-.21,3.09,3.09,0,0,0,.688-.5,2.086,2.086,0,0,0,.73-1.265,1.235,1.235,0,0,0-.422-1.056,1.668,1.668,0,0,0-.819-.429,4.512,4.512,0,0,0-1.363.211l-.571.144a2.293,2.293,0,0,1-1.03.049,1.563,1.563,0,0,1-.772-.433,1.37,1.37,0,0,1-.43-1.187,2.917,2.917,0,0,1,.455-1.22,2.773,2.773,0,0,0-1.312-.647,1.378,1.378,0,0,0-1.069.433,1.35,1.35,0,0,0-.451,1.191,2.414,2.414,0,0,0,.793,1.393l4.783,4.671-.393.383Z"/></g><path class="cls-6" d="M139.544,128.127l3.888,3.8-.329.322-3.888-3.8Zm3.64-2.688,3,2.931-.33.322-3-2.931Zm2.334-3.145,3.888,3.8-.33.322-3.887-3.8Z"/><path class="cls-4" d="M194,123.018a3.556,3.556,0,0,0-2.134.634,2.344,2.344,0,0,0-.881,2.042v6.833h-.989v-6.973a2.9,2.9,0,0,1,1.272-2.626,4.926,4.926,0,0,1,5.464,0A2.9,2.9,0,0,1,198,125.554v6.973h-.99v-6.833a2.357,2.357,0,0,0-.872-2.037A3.529,3.529,0,0,0,194,123.018Z"/><path class="cls-5" d="M165.825,133.273v-.454h.776a1.3,1.3,0,0,0,.932-.309,1.606,1.606,0,0,0,.393-1.2v-.577h-1.8v-.455h1.8v-6.191a3.073,3.073,0,0,1,.412-1.848,1.657,1.657,0,0,1,1.368-.519h.418v.454h-.287a1.543,1.543,0,0,0-1.015.292q-.341.291-.34,1.621v6.191h1.05v.455h-1.05v.454a2.14,2.14,0,0,1-.508,1.586,1.868,1.868,0,0,1-1.385.5Z"/><path class="cls-6" d="M101.918,111.02l3.888,3.8-.329.322-3.888-3.8Zm3.639-2.688,3,2.931-.329.322-3-2.931Zm2.334-3.145,3.888,3.8-.33.322-3.887-3.8Z"/><g class="cls-1"><path class="cls-2" d="M82.859,138.878A2.7,2.7,0,0,1,84.573,138a2.069,2.069,0,0,1,1.617.672,1.726,1.726,0,0,1,.586,1.529,2.956,2.956,0,0,1-.941,1.669,5.087,5.087,0,0,0-1.114-.462,1.146,1.146,0,0,0-1.186.3.921.921,0,0,0-.271.561,2.307,2.307,0,0,0,.089.878l.119.471a4.552,4.552,0,0,1,.248,1.059,1.64,1.64,0,0,1-.532,1.344,1.838,1.838,0,0,1-1.448.639,2.819,2.819,0,0,1-1.734-.961,2.3,2.3,0,0,1-.5-.631c-.1-.214-.188-.449-.275-.705l.4-.387a4.056,4.056,0,0,0,.216.738,2.972,2.972,0,0,0,.511.672,2.159,2.159,0,0,0,1.3.713,1.3,1.3,0,0,0,1.08-.412,1.609,1.609,0,0,0,.44-.8,4.218,4.218,0,0,0-.216-1.331L82.8,143A2.166,2.166,0,0,1,82.753,142a1.532,1.532,0,0,1,.444-.754,1.446,1.446,0,0,1,1.216-.421,3.081,3.081,0,0,1,1.249.446,2.659,2.659,0,0,0,.663-1.282,1.314,1.314,0,0,0-.444-1.044,1.425,1.425,0,0,0-1.22-.441,2.5,2.5,0,0,0-1.426.776l-4.783,4.67-.392-.383Z"/></g><path class="cls-3" d="M56.585,147.926l-3.9-8.5.557-.544,8.7,3.809Zm-3.178-8.364,3.44,7.432,4.183-4.085Z"/><path class="cls-4" d="M94.06,164.911a3.561,3.561,0,0,0,2.134-.634,2.342,2.342,0,0,0,.881-2.042V155.4h.99v6.972A2.9,2.9,0,0,1,96.792,165a4.931,4.931,0,0,1-5.464,0,2.9,2.9,0,0,1-1.272-2.627V155.4h.989v6.833a2.354,2.354,0,0,0,.873,2.036A3.52,3.52,0,0,0,94.06,164.911Z"/><g class="cls-1"><path class="cls-5" d="M73.509,157.75l-.329.322-.549-.536a1.289,1.289,0,0,0-.882-.424,1.681,1.681,0,0,0-1.149.576l-.418.409,1.275,1.245-.329.321-1.275-1.245L65.37,162.8a3.216,3.216,0,0,1-1.629,1.022,1.652,1.652,0,0,1-1.343-.577l-.3-.288.329-.322.2.2a1.526,1.526,0,0,0,.928.5c.3.019.772-.285,1.414-.911l4.483-4.378-.743-.726.329-.321.743.725.33-.321a2.241,2.241,0,0,1,1.507-.771,1.863,1.863,0,0,1,1.342.6Z"/></g><g class="cls-1"><path class="cls-2" d="M15.62,157.1a2.583,2.583,0,0,1,.579-1.8,2.073,2.073,0,0,1,1.63-.641,1.81,1.81,0,0,1,1.522.677,2.934,2.934,0,0,1,.543,1.83,5.076,5.076,0,0,0-1.122.443,1.1,1.1,0,0,0-.621,1.032.913.913,0,0,0,.215.583,2.369,2.369,0,0,0,.7.559l.424.251a4.756,4.756,0,0,1,.943.578,1.645,1.645,0,0,1,.6,1.317,1.755,1.755,0,0,1-.561,1.451,2.846,2.846,0,0,1-1.923.519,2.468,2.468,0,0,1-.812-.1c-.223-.086-.457-.189-.7-.31v-.548a4.183,4.183,0,0,0,.686.373,3.073,3.073,0,0,0,.848.123A2.18,2.18,0,0,0,20,163.044a1.233,1.233,0,0,0,.465-1.037,1.58,1.58,0,0,0-.268-.869,4.385,4.385,0,0,0-1.116-.793l-.508-.291a2.228,2.228,0,0,1-.764-.677,1.5,1.5,0,0,1-.233-.839,1.379,1.379,0,0,1,.555-1.137,3.063,3.063,0,0,1,1.206-.548,2.63,2.63,0,0,0-.459-1.364,1.376,1.376,0,0,0-1.069-.432,1.417,1.417,0,0,0-1.182.531,2.392,2.392,0,0,0-.448,1.533v6.6H15.62Z"/></g><g class="cls-1"><path class="cls-4" d="M31.224,138.026a3.554,3.554,0,0,0-2.134.634,2.342,2.342,0,0,0-.881,2.042v6.833h-.99v-6.973a2.9,2.9,0,0,1,1.273-2.626,4.931,4.931,0,0,1,5.464,0,2.9,2.9,0,0,1,1.272,2.626v6.973h-.989V140.7a2.354,2.354,0,0,0-.873-2.036A3.52,3.52,0,0,0,31.224,138.026Z"/></g><path class="cls-5" d="M3.82,148.281v-.454H4.6a1.293,1.293,0,0,0,.931-.309,1.6,1.6,0,0,0,.394-1.2v-.577h-1.8v-.455h1.8v-6.192a3.07,3.07,0,0,1,.412-1.848,1.657,1.657,0,0,1,1.367-.518h.418v.454H7.832a1.542,1.542,0,0,0-1.015.292q-.341.291-.341,1.62v6.192H7.527v.455H6.476v.454a2.14,2.14,0,0,1-.507,1.586,1.872,1.872,0,0,1-1.385.5Z"/><path class="cls-6" d="M41.082,155.022h5.5v.455h-5.5Zm0,8.25h5.5v.454h-5.5Zm.627-4.414h4.245v.455H41.709Z"/><path class="cls-2" d="M54.206,174.645a2.583,2.583,0,0,1,.579-1.8,2.073,2.073,0,0,1,1.63-.641,1.81,1.81,0,0,1,1.522.677,2.934,2.934,0,0,1,.543,1.83,5.076,5.076,0,0,0-1.122.443,1.1,1.1,0,0,0-.621,1.032.915.915,0,0,0,.215.583,2.369,2.369,0,0,0,.7.559l.424.251a4.756,4.756,0,0,1,.943.578,1.645,1.645,0,0,1,.6,1.317,1.755,1.755,0,0,1-.561,1.451,2.846,2.846,0,0,1-1.923.519,2.468,2.468,0,0,1-.812-.1c-.223-.086-.457-.189-.7-.31v-.548a4.183,4.183,0,0,0,.686.373,3.073,3.073,0,0,0,.848.123,2.18,2.18,0,0,0,1.433-.391,1.237,1.237,0,0,0,.466-1.037,1.589,1.589,0,0,0-.269-.869,4.385,4.385,0,0,0-1.116-.793l-.508-.291a2.228,2.228,0,0,1-.764-.677,1.5,1.5,0,0,1-.233-.839,1.379,1.379,0,0,1,.555-1.137,3.063,3.063,0,0,1,1.206-.548,2.63,2.63,0,0,0-.459-1.364,1.376,1.376,0,0,0-1.069-.432,1.417,1.417,0,0,0-1.182.531,2.392,2.392,0,0,0-.448,1.533v6.6h-.555Z"/><g class="cls-1"><path class="cls-4" d="M82.412,206.723a3.557,3.557,0,0,0-2.133.633A2.344,2.344,0,0,0,79.4,209.4v6.832h-.989v-6.972a2.9,2.9,0,0,1,1.272-2.626,4.926,4.926,0,0,1,5.464,0,2.9,2.9,0,0,1,1.273,2.626v6.972h-.99V209.4a2.357,2.357,0,0,0-.872-2.037A3.522,3.522,0,0,0,82.412,206.723Z"/></g><path class="cls-5" d="M54.583,216.977v-.454h.776a1.293,1.293,0,0,0,.931-.309,1.6,1.6,0,0,0,.394-1.2v-.577h-1.8v-.455h1.8v-6.192a3.064,3.064,0,0,1,.412-1.847,1.655,1.655,0,0,1,1.367-.519h.418v.454H58.6a1.542,1.542,0,0,0-1.015.292q-.34.291-.341,1.62v6.192H58.29v.455H57.239v.454a2.14,2.14,0,0,1-.507,1.586,1.872,1.872,0,0,1-1.385.5Z"/><g class="cls-1"><path class="cls-6" d="M76.8,175.926l3.887-3.8.33.322-3.888,3.8Zm3.22,2.28,3-2.931.329.322-3,2.931Zm2.752,3.553,3.888-3.8.329.321-3.887,3.8Z"/></g><g class="cls-1"><path class="cls-3" d="M35.036,174.159l-3.4,8.7h-.788l-3.4-8.7Zm-3.809,8.109,2.949-7.631H28.26Z"/></g><path class="cls-4" d="M9.717,174.372a3.533,3.533,0,0,0-1.968-1.025,2.457,2.457,0,0,0-2.1.836L.7,179.015l-.7-.683L5.049,173.4a3.037,3.037,0,0,1,2.8-.978,4.893,4.893,0,0,1,2.531,1.3,4.714,4.714,0,0,1,1.333,2.472,2.885,2.885,0,0,1-1,2.736l-5.049,4.93-.7-.683,4.948-4.832a2.352,2.352,0,0,0,.858-2.042A3.358,3.358,0,0,0,9.717,174.372Z"/><g class="cls-1"><path class="cls-5" d="M15.63,189.505l.33.322-.549.536a1.228,1.228,0,0,0-.434.861,1.6,1.6,0,0,0,.591,1.122l.418.408,1.274-1.245.329.321-1.275,1.245,4.484,4.378a3.121,3.121,0,0,1,1.047,1.592,1.579,1.579,0,0,1-.591,1.31l-.3.289-.329-.322.2-.2a1.475,1.475,0,0,0,.507-.907q.028-.441-.933-1.381l-4.484-4.378-.742.725-.329-.321.743-.725-.33-.322a2.156,2.156,0,0,1-.789-1.472,1.786,1.786,0,0,1,.616-1.311Z"/></g><path class="cls-2" d="M9.766,211.917a2.592,2.592,0,0,1,.894,1.673,1.978,1.978,0,0,1-.688,1.579,1.818,1.818,0,0,1-1.566.573,3.085,3.085,0,0,1-1.709-.919,4.715,4.715,0,0,0,.472-1.089,1.08,1.08,0,0,0-.308-1.158.957.957,0,0,0-.574-.264,2.474,2.474,0,0,0-.9.087l-.481.115a4.792,4.792,0,0,1-1.085.243,1.725,1.725,0,0,1-1.376-.519,1.757,1.757,0,0,1-.654-1.414,2.709,2.709,0,0,1,.983-1.694,2.358,2.358,0,0,1,.646-.491c.219-.093.46-.183.721-.268l.4.388a4.232,4.232,0,0,0-.756.21,3.014,3.014,0,0,0-.688.5,2.081,2.081,0,0,0-.73,1.265,1.232,1.232,0,0,0,.422,1.055,1.658,1.658,0,0,0,.819.43,4.516,4.516,0,0,0,1.363-.211l.57-.144a2.31,2.31,0,0,1,1.03-.05,1.575,1.575,0,0,1,.773.434,1.37,1.37,0,0,1,.43,1.187,2.911,2.911,0,0,1-.456,1.22,2.78,2.78,0,0,0,1.313.647,1.375,1.375,0,0,0,1.068-.433,1.348,1.348,0,0,0,.451-1.191,2.4,2.4,0,0,0-.793-1.393l-4.782-4.671.392-.384Z"/><g class="cls-1"><path class="cls-3" d="M71.83,191.305l-3.4,8.7h-.788l-3.4-8.7Zm-3.809,8.109,2.949-7.63H65.054Z"/></g><path class="cls-4" d="M47.172,191.52A3.527,3.527,0,0,0,45.2,190.5a2.456,2.456,0,0,0-2.1.835l-4.948,4.832-.7-.683,5.049-4.931a3.039,3.039,0,0,1,2.8-.978,4.894,4.894,0,0,1,2.531,1.3,4.7,4.7,0,0,1,1.332,2.472,2.884,2.884,0,0,1-1,2.735l-5.049,4.93-.7-.683,4.948-4.832a2.353,2.353,0,0,0,.858-2.042A3.359,3.359,0,0,0,47.172,191.52Z"/><g class="cls-1"><path class="cls-6" d="M27.089,211.83l3.888,3.8-.33.321-3.887-3.8Zm3.639-2.687,3,2.931-.33.321-3-2.931ZM33.062,206l3.888,3.8-.33.322-3.887-3.8Z"/></g><path class="cls-2" d="M91.556,191.792a2.583,2.583,0,0,1,.579-1.8,2.073,2.073,0,0,1,1.63-.641,1.81,1.81,0,0,1,1.522.677,2.934,2.934,0,0,1,.543,1.83,5.076,5.076,0,0,0-1.122.443,1.1,1.1,0,0,0-.621,1.032.915.915,0,0,0,.215.583,2.382,2.382,0,0,0,.7.559l.424.251a4.756,4.756,0,0,1,.943.578,1.645,1.645,0,0,1,.6,1.317,1.752,1.752,0,0,1-.561,1.451,2.846,2.846,0,0,1-1.923.519,2.468,2.468,0,0,1-.812-.1c-.223-.086-.457-.189-.7-.31v-.548a4.183,4.183,0,0,0,.686.373,3.073,3.073,0,0,0,.848.123,2.18,2.18,0,0,0,1.433-.391A1.237,1.237,0,0,0,96.4,196.7a1.589,1.589,0,0,0-.269-.869,4.385,4.385,0,0,0-1.116-.793l-.508-.291a2.228,2.228,0,0,1-.764-.677,1.5,1.5,0,0,1-.233-.839,1.377,1.377,0,0,1,.556-1.137,3.051,3.051,0,0,1,1.205-.548,2.63,2.63,0,0,0-.459-1.364,1.376,1.376,0,0,0-1.069-.432,1.417,1.417,0,0,0-1.182.531,2.392,2.392,0,0,0-.448,1.533v6.6h-.555Z"/><g class="cls-1"><path class="cls-2" d="M68.465,226.714a2.707,2.707,0,0,1,1.713-.874,2.073,2.073,0,0,1,1.618.672,1.731,1.731,0,0,1,.586,1.529,2.964,2.964,0,0,1-.941,1.67,5,5,0,0,0-1.115-.462,1.145,1.145,0,0,0-1.186.3.915.915,0,0,0-.27.56,2.308,2.308,0,0,0,.088.879l.119.47a4.558,4.558,0,0,1,.249,1.059,1.642,1.642,0,0,1-.532,1.344,1.838,1.838,0,0,1-1.448.639,2.813,2.813,0,0,1-1.735-.96,2.356,2.356,0,0,1-.5-.631c-.1-.215-.187-.449-.275-.7l.4-.388a3.992,3.992,0,0,0,.216.739,2.909,2.909,0,0,0,.511.671,2.155,2.155,0,0,0,1.3.713,1.293,1.293,0,0,0,1.081-.412,1.6,1.6,0,0,0,.439-.8,4.19,4.19,0,0,0-.216-1.331l-.147-.557a2.135,2.135,0,0,1-.051-1,1.509,1.509,0,0,1,.444-.754,1.443,1.443,0,0,1,1.215-.421,3.067,3.067,0,0,1,1.25.445,2.66,2.66,0,0,0,.663-1.282,1.311,1.311,0,0,0-.444-1.043,1.422,1.422,0,0,0-1.22-.441,2.5,2.5,0,0,0-1.427.775l-4.782,4.671-.393-.384Z"/></g><path class="cls-6" d="M96.723,227.5h-5.5v-.455h5.5Zm0,8.25h-5.5V235.3h5.5Zm-.627-3.837H91.851v-.454H96.1Z"/><path class="cls-3" d="M43.619,235.763l-3.9-8.5.557-.544,8.7,3.809ZM40.441,227.4l3.44,7.433,4.183-4.085Z"/><g class="cls-1"><path class="cls-4" d="M18.124,225.862a3.554,3.554,0,0,0-2.134.634,2.344,2.344,0,0,0-.881,2.042v6.833H14.12V228.4a2.9,2.9,0,0,1,1.272-2.626,4.931,4.931,0,0,1,5.464,0,2.9,2.9,0,0,1,1.273,2.626v6.973h-.99v-6.833a2.356,2.356,0,0,0-.872-2.036A3.523,3.523,0,0,0,18.124,225.862Z"/></g><g class="cls-1"><path class="cls-5" d="M29.1,252.894v-.454h.776a1.3,1.3,0,0,0,.932-.309,1.609,1.609,0,0,0,.394-1.2v-.577h-1.8V249.9h1.8v-6.192a3.076,3.076,0,0,1,.411-1.848,1.656,1.656,0,0,1,1.367-.519h.418v.455h-.286a1.536,1.536,0,0,0-1.015.292q-.341.291-.34,1.62V249.9H32.8v.454h-1.05v.455a2.136,2.136,0,0,1-.508,1.586,1.872,1.872,0,0,1-1.385.5Z"/></g><g class="cls-1"><path class="cls-3" d="M82.287,252.54l-3.9-8.5.557-.544,8.7,3.809Zm-3.179-8.365,3.44,7.432,4.183-4.085Z"/></g><path class="cls-4" d="M56.711,242.639a3.56,3.56,0,0,0-2.134.633,2.346,2.346,0,0,0-.881,2.043v6.833h-.99v-6.973a2.9,2.9,0,0,1,1.273-2.626,4.931,4.931,0,0,1,5.464,0,2.9,2.9,0,0,1,1.273,2.626v6.973h-.99v-6.833a2.356,2.356,0,0,0-.872-2.036A3.523,3.523,0,0,0,56.711,242.639Z"/><g class="cls-1"><path class="cls-2" d="M14.123,264.055a2.6,2.6,0,0,1-.894-1.673,1.977,1.977,0,0,1,.688-1.579,1.818,1.818,0,0,1,1.566-.573,3.084,3.084,0,0,1,1.71.919,4.714,4.714,0,0,0-.473,1.089,1.082,1.082,0,0,0,.308,1.158.959.959,0,0,0,.574.263,2.453,2.453,0,0,0,.9-.086l.481-.115a4.8,4.8,0,0,1,1.084-.243,1.725,1.725,0,0,1,1.377.519,1.758,1.758,0,0,1,.654,1.414,2.719,2.719,0,0,1-.984,1.694,2.415,2.415,0,0,1-.645.491c-.221.093-.46.182-.722.267l-.4-.388a4.272,4.272,0,0,0,.755-.209,3.022,3.022,0,0,0,.688-.5,2.087,2.087,0,0,0,.731-1.266,1.234,1.234,0,0,0-.422-1.055,1.672,1.672,0,0,0-.819-.429,4.512,4.512,0,0,0-1.363.211l-.571.144a2.308,2.308,0,0,1-1.03.049,1.559,1.559,0,0,1-.772-.433,1.373,1.373,0,0,1-.431-1.187,2.906,2.906,0,0,1,.456-1.22,2.78,2.78,0,0,0-1.313-.647,1.377,1.377,0,0,0-1.068.432,1.352,1.352,0,0,0-.451,1.192,2.414,2.414,0,0,0,.794,1.393l4.782,4.671-.393.383Z"/></g><path class="cls-6" d="M39.61,264.852l3.887,3.8-.329.321-3.888-3.8Zm3.639-2.687,3,2.931-.33.321-3-2.931Zm2.334-3.145,3.887,3.8-.329.322-3.888-3.8Z"/><path class="cls-4" d="M94.061,259.745a3.56,3.56,0,0,0-2.134.633,2.346,2.346,0,0,0-.881,2.043v6.832h-.99v-6.972a2.9,2.9,0,0,1,1.273-2.626,4.926,4.926,0,0,1,5.464,0,2.9,2.9,0,0,1,1.273,2.626v6.972h-.99v-6.832a2.359,2.359,0,0,0-.872-2.037A3.522,3.522,0,0,0,94.061,259.745Z"/><path class="cls-5" d="M65.89,270v-.455h.776a1.3,1.3,0,0,0,.932-.308,1.609,1.609,0,0,0,.394-1.2v-.577h-1.8V267h1.8v-6.192a3.068,3.068,0,0,1,.412-1.848,1.653,1.653,0,0,1,1.366-.519h.418v.455H69.9a1.536,1.536,0,0,0-1.015.292q-.341.291-.34,1.62V267H69.6v.454h-1.05v.455a2.138,2.138,0,0,1-.508,1.586,1.872,1.872,0,0,1-1.385.5Z"/><path class="cls-6" d="M1.984,247.747l3.887,3.8-.329.321-3.887-3.8Zm3.639-2.688,3,2.931-.329.322-3-2.932Zm2.334-3.145,3.887,3.8-.329.322-3.888-3.8Z"/><g class="cls-1"><path class="cls-2" d="M182.794,138.878a2.712,2.712,0,0,1,1.714-.874,2.068,2.068,0,0,1,1.617.672,1.728,1.728,0,0,1,.586,1.529,2.961,2.961,0,0,1-.941,1.67,4.981,4.981,0,0,0-1.115-.462,1.141,1.141,0,0,0-1.185.3.916.916,0,0,0-.271.56,2.293,2.293,0,0,0,.089.879l.119.47a4.558,4.558,0,0,1,.249,1.059,1.637,1.637,0,0,1-.533,1.343,1.836,1.836,0,0,1-1.448.64,2.818,2.818,0,0,1-1.735-.961,2.326,2.326,0,0,1-.5-.63c-.1-.215-.188-.449-.275-.705l.4-.388a3.972,3.972,0,0,0,.216.738,2.95,2.95,0,0,0,.511.672,2.155,2.155,0,0,0,1.295.713,1.292,1.292,0,0,0,1.081-.412,1.6,1.6,0,0,0,.44-.8,4.218,4.218,0,0,0-.216-1.331l-.148-.557a2.162,2.162,0,0,1-.051-1,1.524,1.524,0,0,1,.444-.754,1.441,1.441,0,0,1,1.216-.421,3.069,3.069,0,0,1,1.249.445,2.664,2.664,0,0,0,.663-1.282,1.307,1.307,0,0,0-.444-1.043,1.422,1.422,0,0,0-1.22-.441,2.5,2.5,0,0,0-1.426.775l-4.783,4.67-.392-.383Z"/></g><path class="cls-3" d="M156.52,147.926l-3.9-8.5.557-.544,8.7,3.808Zm-3.179-8.364,3.44,7.432,4.184-4.085Z"/><path class="cls-4" d="M194,164.911a3.564,3.564,0,0,0,2.135-.634,2.344,2.344,0,0,0,.88-2.042V155.4H198v6.972A2.9,2.9,0,0,1,196.727,165a4.931,4.931,0,0,1-5.464,0,2.9,2.9,0,0,1-1.272-2.627V155.4h.989v6.833a2.354,2.354,0,0,0,.873,2.036A3.52,3.52,0,0,0,194,164.911Z"/><g class="cls-1"><path class="cls-5" d="M173.444,157.75l-.33.322-.548-.536a1.284,1.284,0,0,0-.883-.424,1.681,1.681,0,0,0-1.148.576l-.418.408,1.275,1.246-.329.321-1.275-1.245L165.3,162.8a3.217,3.217,0,0,1-1.628,1.023,1.657,1.657,0,0,1-1.343-.578l-.295-.288.329-.322.2.2a1.531,1.531,0,0,0,.929.5q.453.028,1.414-.911l4.483-4.378-.742-.726.329-.321.742.725.33-.321a2.241,2.241,0,0,1,1.507-.771,1.863,1.863,0,0,1,1.342.6Z"/></g><g class="cls-1"><path class="cls-2" d="M115.555,157.1a2.583,2.583,0,0,1,.579-1.8,2.073,2.073,0,0,1,1.63-.641,1.81,1.81,0,0,1,1.522.677,2.928,2.928,0,0,1,.543,1.83,5.076,5.076,0,0,0-1.122.443,1.1,1.1,0,0,0-.621,1.032.913.913,0,0,0,.215.583,2.369,2.369,0,0,0,.7.559l.423.251a4.73,4.73,0,0,1,.944.578,1.645,1.645,0,0,1,.6,1.317,1.755,1.755,0,0,1-.561,1.451,2.846,2.846,0,0,1-1.923.519,2.464,2.464,0,0,1-.812-.1c-.223-.086-.457-.189-.7-.31v-.548a4.134,4.134,0,0,0,.687.373,3.066,3.066,0,0,0,.847.123,2.179,2.179,0,0,0,1.433-.391,1.24,1.24,0,0,0,.466-1.037,1.589,1.589,0,0,0-.269-.869,4.364,4.364,0,0,0-1.116-.793l-.508-.291a2.228,2.228,0,0,1-.764-.677,1.5,1.5,0,0,1-.233-.839,1.38,1.38,0,0,1,.556-1.137,3.051,3.051,0,0,1,1.2-.548,2.639,2.639,0,0,0-.459-1.364,1.376,1.376,0,0,0-1.069-.432,1.418,1.418,0,0,0-1.182.531,2.392,2.392,0,0,0-.448,1.533v6.6h-.555Z"/></g><g class="cls-1"><path class="cls-4" d="M131.159,138.026a3.559,3.559,0,0,0-2.135.634,2.344,2.344,0,0,0-.88,2.042v6.833h-.99v-6.973a2.9,2.9,0,0,1,1.273-2.626,4.931,4.931,0,0,1,5.464,0,2.9,2.9,0,0,1,1.272,2.626v6.973h-.989V140.7a2.354,2.354,0,0,0-.873-2.036A3.52,3.52,0,0,0,131.159,138.026Z"/></g><path class="cls-5" d="M103.755,148.281v-.454h.776a1.293,1.293,0,0,0,.931-.309,1.6,1.6,0,0,0,.394-1.2v-.577h-1.8v-.455h1.8v-6.192a3.077,3.077,0,0,1,.412-1.848,1.659,1.659,0,0,1,1.367-.518h.418v.454h-.287a1.54,1.54,0,0,0-1.014.292q-.34.291-.341,1.62v6.192h1.051v.455h-1.051v.454a2.14,2.14,0,0,1-.507,1.586,1.872,1.872,0,0,1-1.385.5Z"/><path class="cls-6" d="M141.017,155.022h5.5v.455h-5.5Zm0,8.25h5.5v.454h-5.5Zm.627-4.414h4.245v.455h-4.245Z"/><path class="cls-2" d="M154.142,174.645a2.583,2.583,0,0,1,.579-1.8,2.073,2.073,0,0,1,1.63-.641,1.812,1.812,0,0,1,1.522.677,2.934,2.934,0,0,1,.543,1.83,5.076,5.076,0,0,0-1.122.443,1.1,1.1,0,0,0-.621,1.032.909.909,0,0,0,.215.583,2.369,2.369,0,0,0,.7.559l.423.251a4.728,4.728,0,0,1,.943.578,1.639,1.639,0,0,1,.6,1.317,1.752,1.752,0,0,1-.561,1.451,2.843,2.843,0,0,1-1.922.519,2.464,2.464,0,0,1-.812-.1q-.334-.129-.7-.31v-.548a4.183,4.183,0,0,0,.686.373,3.073,3.073,0,0,0,.848.123,2.182,2.182,0,0,0,1.433-.391,1.24,1.24,0,0,0,.466-1.037,1.6,1.6,0,0,0-.269-.869,4.4,4.4,0,0,0-1.117-.793l-.507-.291a2.219,2.219,0,0,1-.764-.677,1.5,1.5,0,0,1-.233-.839,1.379,1.379,0,0,1,.555-1.137,3.063,3.063,0,0,1,1.206-.548,2.639,2.639,0,0,0-.459-1.364,1.377,1.377,0,0,0-1.069-.432,1.416,1.416,0,0,0-1.182.531,2.386,2.386,0,0,0-.448,1.533v6.6h-.555Z"/><g class="cls-1"><path class="cls-4" d="M182.347,206.723a3.562,3.562,0,0,0-2.134.633,2.346,2.346,0,0,0-.881,2.043v6.832h-.989v-6.972a2.9,2.9,0,0,1,1.272-2.626,4.926,4.926,0,0,1,5.464,0,2.9,2.9,0,0,1,1.273,2.626v6.972h-.989V209.4a2.357,2.357,0,0,0-.873-2.037A3.522,3.522,0,0,0,182.347,206.723Z"/></g><path class="cls-5" d="M154.517,216.977v-.454h.776a1.3,1.3,0,0,0,.932-.309,1.606,1.606,0,0,0,.393-1.2v-.577h-1.8v-.455h1.8v-6.192a3.071,3.071,0,0,1,.412-1.847,1.656,1.656,0,0,1,1.367-.519h.419v.454h-.287a1.542,1.542,0,0,0-1.015.292q-.341.291-.34,1.62v6.192h1.05v.455h-1.05v.454a2.14,2.14,0,0,1-.508,1.586,1.872,1.872,0,0,1-1.385.5Z"/><g class="cls-1"><path class="cls-6" d="M176.732,175.926l3.889-3.8.329.322-3.888,3.8Zm3.221,2.28,3-2.931.329.322-3,2.931Zm2.752,3.553,3.888-3.8.33.322-3.888,3.8Z"/></g><g class="cls-1"><path class="cls-3" d="M134.971,174.159l-3.4,8.7h-.788l-3.4-8.7Zm-3.809,8.109,2.949-7.631H128.2Z"/></g><path class="cls-4" d="M109.652,174.373a3.53,3.53,0,0,0-1.968-1.025,2.453,2.453,0,0,0-2.1.835l-4.948,4.832-.7-.683,5.049-4.931a3.038,3.038,0,0,1,2.8-.978,4.888,4.888,0,0,1,2.53,1.3,4.693,4.693,0,0,1,1.333,2.471,2.882,2.882,0,0,1-1,2.736l-5.049,4.93-.7-.683,4.948-4.832a2.353,2.353,0,0,0,.857-2.042A3.358,3.358,0,0,0,109.652,174.373Z"/><g class="cls-1"><path class="cls-5" d="M115.565,189.505l.329.321-.549.536a1.23,1.23,0,0,0-.434.862,1.612,1.612,0,0,0,.591,1.121l.418.408,1.275-1.244.328.32-1.274,1.246,4.483,4.377a3.117,3.117,0,0,1,1.046,1.591,1.579,1.579,0,0,1-.59,1.312l-.3.288-.329-.321.2-.2a1.478,1.478,0,0,0,.507-.907q.029-.441-.933-1.381l-4.484-4.378-.743.725-.329-.321.743-.725-.329-.322a2.156,2.156,0,0,1-.79-1.471,1.79,1.79,0,0,1,.616-1.312Z"/></g><path class="cls-2" d="M109.7,211.916a2.6,2.6,0,0,1,.894,1.674,1.979,1.979,0,0,1-.688,1.579,1.822,1.822,0,0,1-1.567.573,3.087,3.087,0,0,1-1.709-.92,4.724,4.724,0,0,0,.473-1.088,1.081,1.081,0,0,0-.308-1.158.96.96,0,0,0-.574-.264,2.458,2.458,0,0,0-.9.087l-.481.115a4.85,4.85,0,0,1-1.084.243,1.726,1.726,0,0,1-1.377-.52,1.757,1.757,0,0,1-.654-1.413,2.714,2.714,0,0,1,.984-1.7,2.385,2.385,0,0,1,.645-.49c.22-.094.46-.183.722-.268l.4.388a4.149,4.149,0,0,0-.755.21,2.991,2.991,0,0,0-.689.5,2.083,2.083,0,0,0-.73,1.265,1.237,1.237,0,0,0,.422,1.055,1.666,1.666,0,0,0,.819.43,4.521,4.521,0,0,0,1.364-.211l.57-.144a2.3,2.3,0,0,1,1.03-.05,1.578,1.578,0,0,1,.772.433,1.376,1.376,0,0,1,.431,1.188,2.921,2.921,0,0,1-.456,1.219,2.77,2.77,0,0,0,1.313.648,1.375,1.375,0,0,0,1.067-.433,1.356,1.356,0,0,0,.453-1.192,2.422,2.422,0,0,0-.794-1.393l-4.783-4.671.393-.383Z"/><g class="cls-1"><path class="cls-3" d="M171.765,191.305l-3.4,8.7h-.788l-3.4-8.7Zm-3.809,8.109,2.949-7.63h-5.916Z"/></g><path class="cls-4" d="M147.107,191.52a3.53,3.53,0,0,0-1.968-1.025,2.455,2.455,0,0,0-2.1.835l-4.947,4.832-.7-.683,5.049-4.931a3.037,3.037,0,0,1,2.8-.978,4.891,4.891,0,0,1,2.531,1.3,4.7,4.7,0,0,1,1.332,2.471,2.882,2.882,0,0,1-1,2.736l-5.048,4.93-.7-.683,4.948-4.832a2.349,2.349,0,0,0,.857-2.042A3.356,3.356,0,0,0,147.107,191.52Z"/><g class="cls-1"><path class="cls-6" d="M127.023,211.83l3.888,3.8-.329.321-3.888-3.8Zm3.639-2.687,3,2.931-.329.321-3-2.931ZM133,206l3.888,3.8-.329.322-3.887-3.8Z"/></g><path class="cls-2" d="M191.491,191.792a2.583,2.583,0,0,1,.579-1.8,2.073,2.073,0,0,1,1.63-.641,1.81,1.81,0,0,1,1.522.677,2.928,2.928,0,0,1,.543,1.83,5.076,5.076,0,0,0-1.122.443,1.1,1.1,0,0,0-.621,1.032.915.915,0,0,0,.215.583,2.369,2.369,0,0,0,.7.559l.423.251a4.73,4.73,0,0,1,.944.578,1.645,1.645,0,0,1,.6,1.317,1.755,1.755,0,0,1-.561,1.451,2.846,2.846,0,0,1-1.923.519,2.464,2.464,0,0,1-.812-.1q-.333-.129-.7-.31v-.548a4.134,4.134,0,0,0,.687.373,3.066,3.066,0,0,0,.847.123,2.179,2.179,0,0,0,1.433-.391,1.24,1.24,0,0,0,.466-1.037,1.589,1.589,0,0,0-.269-.869,4.364,4.364,0,0,0-1.116-.793l-.508-.291a2.228,2.228,0,0,1-.764-.677,1.5,1.5,0,0,1-.233-.839A1.38,1.38,0,0,1,194,192.1a3.051,3.051,0,0,1,1.205-.548,2.639,2.639,0,0,0-.459-1.364,1.376,1.376,0,0,0-1.069-.432,1.418,1.418,0,0,0-1.182.531,2.392,2.392,0,0,0-.448,1.533v6.6h-.555Z"/><g class="cls-1"><path class="cls-2" d="M168.4,226.714a2.712,2.712,0,0,1,1.715-.874,2.074,2.074,0,0,1,1.616.672,1.73,1.73,0,0,1,.587,1.53,2.967,2.967,0,0,1-.941,1.669,5.021,5.021,0,0,0-1.115-.462,1.145,1.145,0,0,0-1.186.3.917.917,0,0,0-.27.561,2.289,2.289,0,0,0,.089.878l.118.47a4.558,4.558,0,0,1,.249,1.059,1.642,1.642,0,0,1-.532,1.344,1.837,1.837,0,0,1-1.447.639,2.815,2.815,0,0,1-1.736-.96,2.34,2.34,0,0,1-.5-.631c-.1-.215-.187-.449-.275-.7l.4-.388a3.992,3.992,0,0,0,.216.739,2.965,2.965,0,0,0,.511.672,2.163,2.163,0,0,0,1.295.713,1.294,1.294,0,0,0,1.081-.413,1.6,1.6,0,0,0,.439-.8,4.208,4.208,0,0,0-.215-1.331l-.148-.556a2.14,2.14,0,0,1-.051-1.006,1.513,1.513,0,0,1,.444-.754,1.442,1.442,0,0,1,1.215-.421,3.067,3.067,0,0,1,1.25.445,2.647,2.647,0,0,0,.662-1.282,1.306,1.306,0,0,0-.443-1.043,1.425,1.425,0,0,0-1.22-.441,2.5,2.5,0,0,0-1.427.775l-4.782,4.671-.393-.383Z"/></g><path class="cls-6" d="M196.658,227.5h-5.5v-.455h5.5Zm0,8.25h-5.5V235.3h5.5Zm-.627-3.837h-4.245v-.454h4.245Z"/><path class="cls-3" d="M143.555,235.763l-3.9-8.5.557-.545,8.7,3.809Zm-3.179-8.365,3.44,7.432L148,230.746Z"/><g class="cls-1"><path class="cls-4" d="M118.059,225.862a3.556,3.556,0,0,0-2.134.634,2.344,2.344,0,0,0-.881,2.042v6.833h-.989V228.4a2.9,2.9,0,0,1,1.272-2.626,4.931,4.931,0,0,1,5.464,0,2.9,2.9,0,0,1,1.273,2.626v6.973h-.99v-6.833a2.354,2.354,0,0,0-.872-2.036A3.523,3.523,0,0,0,118.059,225.862Z"/></g><g class="cls-1"><path class="cls-5" d="M129.03,252.894v-.454h.776a1.3,1.3,0,0,0,.932-.309,1.609,1.609,0,0,0,.394-1.2v-.577h-1.8V249.9h1.8v-6.192a3.076,3.076,0,0,1,.411-1.848,1.658,1.658,0,0,1,1.368-.519h.418v.455h-.287a1.538,1.538,0,0,0-1.015.292q-.34.291-.34,1.62V249.9h1.051v.454h-1.051v.455a2.136,2.136,0,0,1-.508,1.586,1.871,1.871,0,0,1-1.384.5Z"/></g><g class="cls-1"><path class="cls-3" d="M182.221,252.539l-3.9-8.5.558-.544,8.7,3.808Zm-3.178-8.364,3.44,7.432,4.183-4.085Z"/></g><path class="cls-4" d="M156.645,242.639a3.562,3.562,0,0,0-2.134.633,2.346,2.346,0,0,0-.881,2.043v6.833h-.989v-6.973a2.9,2.9,0,0,1,1.272-2.626,4.931,4.931,0,0,1,5.464,0,2.9,2.9,0,0,1,1.273,2.626v6.973h-.99v-6.833a2.354,2.354,0,0,0-.872-2.036A3.523,3.523,0,0,0,156.645,242.639Z"/><g class="cls-1"><path class="cls-2" d="M114.058,264.055a2.6,2.6,0,0,1-.894-1.673,1.972,1.972,0,0,1,.689-1.579,1.816,1.816,0,0,1,1.565-.573,3.087,3.087,0,0,1,1.71.919,4.714,4.714,0,0,0-.473,1.089,1.083,1.083,0,0,0,.308,1.158.957.957,0,0,0,.574.264,2.458,2.458,0,0,0,.9-.087l.481-.115a4.8,4.8,0,0,1,1.084-.243,1.728,1.728,0,0,1,1.377.519,1.756,1.756,0,0,1,.653,1.414,2.707,2.707,0,0,1-.982,1.694,2.394,2.394,0,0,1-.646.491c-.219.093-.461.183-.723.268l-.4-.388a4.2,4.2,0,0,0,.756-.21,3.014,3.014,0,0,0,.688-.5,2.08,2.08,0,0,0,.731-1.265,1.236,1.236,0,0,0-.422-1.056,1.668,1.668,0,0,0-.819-.429,4.512,4.512,0,0,0-1.363.211l-.571.144a2.28,2.28,0,0,1-1.03.049,1.559,1.559,0,0,1-.772-.433,1.37,1.37,0,0,1-.43-1.187,2.922,2.922,0,0,1,.455-1.22,2.773,2.773,0,0,0-1.312-.647,1.377,1.377,0,0,0-1.069.433,1.349,1.349,0,0,0-.451,1.191,2.417,2.417,0,0,0,.793,1.393l4.783,4.671-.393.384Z"/></g><path class="cls-6" d="M139.544,264.853l3.888,3.8-.329.322-3.888-3.8Zm3.639-2.688,3,2.931-.329.322-3-2.931Zm2.334-3.145,3.888,3.8-.329.322-3.887-3.8Z"/><path class="cls-4" d="M194,259.745a3.562,3.562,0,0,0-2.134.633,2.346,2.346,0,0,0-.881,2.043v6.832h-.989v-6.972a2.9,2.9,0,0,1,1.272-2.626,4.926,4.926,0,0,1,5.464,0A2.9,2.9,0,0,1,198,262.281v6.972h-.99v-6.832a2.357,2.357,0,0,0-.872-2.037A3.522,3.522,0,0,0,194,259.745Z"/><path class="cls-5" d="M165.825,270v-.455h.776a1.3,1.3,0,0,0,.932-.308,1.608,1.608,0,0,0,.393-1.2v-.577h-1.8V267h1.8v-6.192a3.075,3.075,0,0,1,.412-1.848,1.657,1.657,0,0,1,1.368-.519h.418v.455h-.287a1.538,1.538,0,0,0-1.015.292q-.341.291-.34,1.62V267h1.05v.454h-1.05v.455a2.142,2.142,0,0,1-.508,1.586,1.872,1.872,0,0,1-1.385.5Z"/><path class="cls-6" d="M101.919,247.747l3.888,3.8-.33.321-3.887-3.8Zm3.639-2.687,3,2.93-.329.321-3-2.931Zm2.334-3.146,3.887,3.8-.329.322-3.887-3.8Z"/></svg>