<svg id="Card_Back" data-name="Card Back" xmlns="http://www.w3.org/2000/svg" viewBox="0 0 306 396"><defs><style>.cls-1{fill:#231f20;}.cls-2{opacity:0.25;}.cls-3{fill:#ae3325;}.cls-4{fill:#007065;}.cls-5{fill:#3352a3;}.cls-6{fill:#bf1e67;}.cls-7{fill:#19733b;}</style></defs><title>goalCards_backArtboard 1</title><g id="Layer_7" data-name="Layer 7"><rect class="cls-1" width="306" height="396"/></g><g class="cls-2"><path class="cls-3" d="M128.05,3.16a4.29,4.29,0,0,1,2.65-1.29,3.33,3.33,0,0,1,2.5,1,2.46,2.46,0,0,1,.91,2.24,4.28,4.28,0,0,1-1.46,2.45,8.1,8.1,0,0,0-1.72-.68,1.83,1.83,0,0,0-1.83.44,1.31,1.31,0,0,0-.42.83,3.09,3.09,0,0,0,.14,1.28l.18.69a6.76,6.76,0,0,1,.39,1.56,2.37,2.37,0,0,1-.83,2,2.9,2.9,0,0,1-2.23.94,4.47,4.47,0,0,1-2.69-1.41,3.53,3.53,0,0,1-.77-.93c-.15-.31-.29-.66-.43-1l.62-.57a5.24,5.24,0,0,0,.33,1.08,4.3,4.3,0,0,0,.79,1,3.44,3.44,0,0,0,2,1,2,2,0,0,0,1.67-.6,2.29,2.29,0,0,0,.68-1.17,5.73,5.73,0,0,0-.33-2L128,9.21a3,3,0,0,1-.08-1.48,2.23,2.23,0,0,1,.69-1.1A2.29,2.29,0,0,1,130.46,6a4.91,4.91,0,0,1,1.93.65,3.8,3.8,0,0,0,1-1.88,1.87,1.87,0,0,0-.68-1.53,2.32,2.32,0,0,0-1.89-.65,4,4,0,0,0-2.21,1.14l-7.39,6.85-.6-.56Z"/></g><path class="cls-4" d="M87.45,16.43,81.43,4l.86-.79L95.74,8.74ZM82.54,4.16l5.31,10.9,6.47-6Z"/><path class="cls-5" d="M145.37,41.34a5.67,5.67,0,0,0,3.29-.93,3.37,3.37,0,0,0,1.37-3v-10h1.52V37.62a4.19,4.19,0,0,1-2,3.85,8,8,0,0,1-8.45,0,4.19,4.19,0,0,1-2-3.85V27.39h1.53v10a3.4,3.4,0,0,0,1.34,3A5.65,5.65,0,0,0,145.37,41.34Z"/><g class="cls-2"><path class="cls-6" d="M113.6,30.83l-.51.48-.84-.79a2,2,0,0,0-1.37-.62,2.64,2.64,0,0,0-1.77.84l-.65.6,2,1.83-.51.47-2-1.83L101,38.24a5.12,5.12,0,0,1-2.52,1.49,2.62,2.62,0,0,1-2.08-.84L96,38.47l.5-.48.32.29a2.4,2.4,0,0,0,1.43.73c.47,0,1.2-.42,2.19-1.34l6.93-6.42-1.15-1.06.51-.47,1.15,1.06.51-.47a3.55,3.55,0,0,1,2.32-1.13,3,3,0,0,1,2.08.88Z"/></g><g class="cls-2"><path class="cls-3" d="M24.14,29.88a3.64,3.64,0,0,1,.9-2.64,3.26,3.26,0,0,1,2.51-.94,2.88,2.88,0,0,1,2.36,1A4.22,4.22,0,0,1,30.75,30a8,8,0,0,0-1.74.65,1.61,1.61,0,0,0-1,1.52,1.3,1.3,0,0,0,.33.85,3.77,3.77,0,0,0,1.08.82l.66.37a7.49,7.49,0,0,1,1.46.85A2.39,2.39,0,0,1,32.5,37a2.5,2.5,0,0,1-.87,2.13,4.55,4.55,0,0,1-3,.76,3.79,3.79,0,0,1-1.25-.15,10.53,10.53,0,0,1-1.09-.45v-.8a5.62,5.62,0,0,0,1.06.54,5,5,0,0,0,1.31.18,3.5,3.5,0,0,0,2.21-.57,1.74,1.74,0,0,0,.72-1.52,2.27,2.27,0,0,0-.41-1.28,6.82,6.82,0,0,0-1.73-1.16l-.78-.43a3.39,3.39,0,0,1-1.18-1A2.12,2.12,0,0,1,27.16,32,2,2,0,0,1,28,30.32a4.66,4.66,0,0,1,1.86-.8,3.82,3.82,0,0,0-.71-2,2.2,2.2,0,0,0-1.65-.63,2.26,2.26,0,0,0-1.83.77A3.4,3.4,0,0,0,25,29.91V39.6h-.86Z"/></g><g class="cls-2"><path class="cls-5" d="M48.25,1.91A5.67,5.67,0,0,0,45,2.84a3.35,3.35,0,0,0-1.36,3v10H42.07V5.63a4.17,4.17,0,0,1,2-3.85,7.93,7.93,0,0,1,8.45,0,4.17,4.17,0,0,1,2,3.85V15.85H52.91v-10a3.42,3.42,0,0,0-1.34-3A5.72,5.72,0,0,0,48.25,1.91Z"/></g><path class="cls-6" d="M5.9,17v-.67H7.1a2.07,2.07,0,0,0,1.44-.45,2.26,2.26,0,0,0,.61-1.76v-.85H6.36v-.67H9.15V3.47A4.29,4.29,0,0,1,9.79.76,2.61,2.61,0,0,1,11.9,0h.65V.67H12.1a2.51,2.51,0,0,0-1.57.42c-.35.29-.52,1.08-.52,2.38v9.08h1.62v.67H10v.67a3,3,0,0,1-.79,2.32A3,3,0,0,1,7.08,17Z"/><path class="cls-7" d="M63.49,26.83H72v.67h-8.5Zm0,12.1H72v.67h-8.5Zm1-6.47H71v.67H64.46Z"/><path class="cls-3" d="M83.77,55.61a3.64,3.64,0,0,1,.9-2.64A3.32,3.32,0,0,1,87.19,52a2.87,2.87,0,0,1,2.35,1,4.14,4.14,0,0,1,.84,2.69,7.9,7.9,0,0,0-1.74.65,1.59,1.59,0,0,0-1,1.51,1.34,1.34,0,0,0,.34.86,3.66,3.66,0,0,0,1.08.82l.65.37a7.09,7.09,0,0,1,1.46.84,2.37,2.37,0,0,1,.92,1.93,2.48,2.48,0,0,1-.87,2.13,4.55,4.55,0,0,1-3,.76A3.84,3.84,0,0,1,87,65.44c-.35-.13-.71-.28-1.09-.45v-.81a7.24,7.24,0,0,0,1.06.55,5,5,0,0,0,1.31.18,3.55,3.55,0,0,0,2.22-.57,1.82,1.82,0,0,0,.72-1.53,2.24,2.24,0,0,0-.42-1.27,6.82,6.82,0,0,0-1.73-1.16L88.33,60a3.39,3.39,0,0,1-1.18-1,2.12,2.12,0,0,1-.36-1.23,2,2,0,0,1,.86-1.67,4.79,4.79,0,0,1,1.86-.8,3.78,3.78,0,0,0-.71-2,2.19,2.19,0,0,0-1.65-.63,2.24,2.24,0,0,0-1.83.78,3.4,3.4,0,0,0-.69,2.25v9.69h-.86Z"/><g class="cls-2"><path class="cls-5" d="M127.36,102.66a5.67,5.67,0,0,0-3.29.93,3.37,3.37,0,0,0-1.37,3v10h-1.52V106.38a4.19,4.19,0,0,1,2-3.85,8,8,0,0,1,8.45,0,4.19,4.19,0,0,1,2,3.85v10.23H132v-10a3.39,3.39,0,0,0-1.34-3A5.65,5.65,0,0,0,127.36,102.66Z"/></g><path class="cls-6" d="M84.36,117.7V117h1.19a2.07,2.07,0,0,0,1.44-.46,2.26,2.26,0,0,0,.61-1.76V114H84.82v-.66H87.6v-9.08a4.27,4.27,0,0,1,.64-2.71,2.61,2.61,0,0,1,2.11-.76H91v.66h-.44a2.43,2.43,0,0,0-1.57.43c-.35.29-.53,1.08-.53,2.38v9.08h1.62V114H88.46v.67a3.06,3.06,0,0,1-.78,2.33,3,3,0,0,1-2.14.73Z"/><g class="cls-2"><path class="cls-7" d="M118.69,57.49l6-5.57.51.48-6,5.56Zm5,3.35,4.64-4.3.51.47-4.64,4.3Zm4.26,5.21,6-5.57.5.47-6,5.57Z"/></g><g class="cls-2"><path class="cls-4" d="M54.15,54.9,48.89,67.67H47.67L42.42,54.9ZM48.26,66.79,52.82,55.6H43.67Z"/></g><path class="cls-5" d="M15,55.21a5.65,5.65,0,0,0-3-1.5,3.91,3.91,0,0,0-3.25,1.23L1.08,62,0,61l7.8-7.23a4.85,4.85,0,0,1,4.33-1.43A7.62,7.62,0,0,1,16,54.26a6.78,6.78,0,0,1,2.06,3.63,4.11,4.11,0,0,1-1.54,4L8.75,69.13l-1.08-1L15.32,61a3.35,3.35,0,0,0,1.32-3A4.86,4.86,0,0,0,15,55.21Z"/><g class="cls-2"><path class="cls-6" d="M24.16,77.41l.5.47-.84.79a1.78,1.78,0,0,0-.68,1.26,2.34,2.34,0,0,0,.92,1.65l.64.59,2-1.82.51.47-2,1.82,6.93,6.43a4.57,4.57,0,0,1,1.62,2.33,2.27,2.27,0,0,1-.91,1.92l-.46.43-.51-.48.31-.29A2.13,2.13,0,0,0,33,91.65c0-.43-.45-1.1-1.45-2l-6.92-6.42-1.15,1.06L23,83.8l1.15-1.06-.51-.48a3.11,3.11,0,0,1-1.22-2.15,2.58,2.58,0,0,1,.95-1.93Z"/></g><path class="cls-3" d="M15.09,110.28a3.74,3.74,0,0,1,1.38,2.45,2.81,2.81,0,0,1-1.06,2.32,2.91,2.91,0,0,1-2.42.84,4.86,4.86,0,0,1-2.64-1.35,6.94,6.94,0,0,0,.73-1.59,1.61,1.61,0,0,0-1.36-2.09,3.81,3.81,0,0,0-1.39.13l-.75.17a7.83,7.83,0,0,1-1.67.35,2.76,2.76,0,0,1-2.13-.76,2.51,2.51,0,0,1-1-2.07,3.94,3.94,0,0,1,1.52-2.49,3.84,3.84,0,0,1,1-.72c.34-.13.71-.27,1.11-.39l.62.57a5.77,5.77,0,0,0-1.17.31,4.59,4.59,0,0,0-1.07.73,3,3,0,0,0-1.12,1.85,1.76,1.76,0,0,0,.65,1.55,2.6,2.6,0,0,0,1.26.63,7.32,7.32,0,0,0,2.11-.31l.88-.21a3.8,3.8,0,0,1,1.59-.07,2.5,2.5,0,0,1,1.2.63A2,2,0,0,1,12,112.5a4.1,4.1,0,0,1-.7,1.79,4.28,4.28,0,0,0,2,.95,2.21,2.21,0,0,0,1.65-.63,1.94,1.94,0,0,0,.7-1.75,3.46,3.46,0,0,0-1.23-2L7.07,104l.61-.57Z"/><g class="cls-2"><path class="cls-4" d="M111,80.05l-5.26,12.77h-1.22L99.28,80.05Zm-5.89,11.89,4.56-11.19h-9.14Z"/></g><path class="cls-5" d="M72.9,80.37a5.53,5.53,0,0,0-3-1.51,3.89,3.89,0,0,0-3.25,1.23L59,87.17l-1.08-1,7.8-7.23A4.84,4.84,0,0,1,70,77.51a7.66,7.66,0,0,1,3.91,1.9A6.84,6.84,0,0,1,76,83a4.12,4.12,0,0,1-1.55,4l-7.8,7.23-1.08-1,7.64-7.09a3.36,3.36,0,0,0,1.33-3A4.83,4.83,0,0,0,72.9,80.37Z"/><g class="cls-2"><path class="cls-7" d="M41.86,110.15l6,5.57-.51.47-6-5.57Zm5.63-3.94,4.64,4.3-.51.47L47,106.68Zm3.6-4.61,6,5.56-.51.48-6-5.57Z"/></g><path class="cls-3" d="M141.5,80.76a3.64,3.64,0,0,1,.89-2.64,3.28,3.28,0,0,1,2.52-.94,2.86,2.86,0,0,1,2.35,1,4.14,4.14,0,0,1,.84,2.69,7.65,7.65,0,0,0-1.73.65,1.59,1.59,0,0,0-1,1.51,1.33,1.33,0,0,0,.33.86,4,4,0,0,0,1.08.82l.65.36a7.72,7.72,0,0,1,1.46.85,2.34,2.34,0,0,1,.92,1.93A2.5,2.5,0,0,1,149,90a4.55,4.55,0,0,1-3,.76,4.22,4.22,0,0,1-1.26-.14c-.34-.13-.71-.28-1.09-.46v-.8a7.24,7.24,0,0,0,1.06.55,5,5,0,0,0,1.31.18,3.47,3.47,0,0,0,2.22-.58A1.79,1.79,0,0,0,149,88a2.24,2.24,0,0,0-.42-1.27,6.68,6.68,0,0,0-1.72-1.16l-.79-.43a3.39,3.39,0,0,1-1.18-1,2.12,2.12,0,0,1-.36-1.23,2,2,0,0,1,.86-1.67,5,5,0,0,1,1.86-.81,3.66,3.66,0,0,0-.71-2,2.17,2.17,0,0,0-1.65-.63,2.23,2.23,0,0,0-1.82.78,3.35,3.35,0,0,0-.7,2.25v9.69h-.85Z"/><g class="cls-2"><path class="cls-3" d="M105.81,132a4.3,4.3,0,0,1,2.65-1.28,3.27,3.27,0,0,1,2.5,1,2.45,2.45,0,0,1,.9,2.24,4.26,4.26,0,0,1-1.45,2.45,7.8,7.8,0,0,0-1.72-.68,1.86,1.86,0,0,0-1.84.44,1.32,1.32,0,0,0-.41.82,3.12,3.12,0,0,0,.13,1.29l.19.69a6.69,6.69,0,0,1,.38,1.56,2.36,2.36,0,0,1-.82,2,2.91,2.91,0,0,1-2.24.93A4.39,4.39,0,0,1,101.4,142a3.45,3.45,0,0,1-.78-.92c-.14-.31-.29-.66-.42-1l.61-.57a7.47,7.47,0,0,0,.33,1.08,5.13,5.13,0,0,0,.79,1,3.43,3.43,0,0,0,2,1,2.07,2.07,0,0,0,1.67-.6,2.43,2.43,0,0,0,.68-1.18,6.09,6.09,0,0,0-.34-2l-.23-.82a3,3,0,0,1-.07-1.47,2.2,2.2,0,0,1,.68-1.11,2.29,2.29,0,0,1,1.88-.61,4.8,4.8,0,0,1,1.93.65,3.92,3.92,0,0,0,1-1.88,1.89,1.89,0,0,0-.69-1.53,2.29,2.29,0,0,0-1.89-.65,4,4,0,0,0-2.2,1.14L99,139.42l-.61-.56Z"/></g><path class="cls-7" d="M149.48,133.14H141v-.67h8.5Zm0,12.09H141v-.66h8.5Zm-1-5.62H142v-.67h6.56Z"/><path class="cls-4" d="M67.41,145.25l-6-12.47.86-.8,13.45,5.59ZM62.5,133l5.32,10.9,6.46-6Z"/><g class="cls-2"><path class="cls-5" d="M28,130.73a5.72,5.72,0,0,0-3.3.93,3.37,3.37,0,0,0-1.36,3v10H21.82V134.45a4.19,4.19,0,0,1,2-3.85,8,8,0,0,1,8.44,0,4.19,4.19,0,0,1,2,3.85v10.23H32.67v-10a3.39,3.39,0,0,0-1.35-3A5.62,5.62,0,0,0,28,130.73Z"/></g><g class="cls-2"><path class="cls-6" d="M45,170.38v-.67h1.2a2.11,2.11,0,0,0,1.44-.45,2.3,2.3,0,0,0,.6-1.76v-.85H45.43V166h2.78V156.9a4.35,4.35,0,0,1,.64-2.71,2.66,2.66,0,0,1,2.11-.76h.65v.67h-.44a2.45,2.45,0,0,0-1.57.43c-.35.28-.53,1.07-.53,2.37V166H50.7v.67H49.07v.67a3,3,0,0,1-.78,2.32,3,3,0,0,1-2.14.74Z"/></g><g class="cls-2"><path class="cls-4" d="M127.17,169.86l-6-12.47.86-.8,13.45,5.58Zm-4.91-12.27,5.32,10.9,6.46-6Z"/></g><path class="cls-5" d="M87.64,155.34a5.67,5.67,0,0,0-3.29.93,3.36,3.36,0,0,0-1.37,3v10H81.46V159.06a4.19,4.19,0,0,1,2-3.85,7.93,7.93,0,0,1,8.45,0,4.19,4.19,0,0,1,2,3.85v10.22H92.3v-10a3.39,3.39,0,0,0-1.34-3A5.65,5.65,0,0,0,87.64,155.34Z"/><g class="cls-2"><path class="cls-3" d="M21.83,186.75a3.8,3.8,0,0,1-1.39-2.46A2.83,2.83,0,0,1,21.51,182a2.91,2.91,0,0,1,2.42-.84,4.86,4.86,0,0,1,2.64,1.35,6.74,6.74,0,0,0-.73,1.59,1.53,1.53,0,0,0,.48,1.7,1.49,1.49,0,0,0,.88.39,3.81,3.81,0,0,0,1.39-.13l.75-.17a7.25,7.25,0,0,1,1.67-.35,2.76,2.76,0,0,1,2.13.76,2.51,2.51,0,0,1,1,2.07,3.94,3.94,0,0,1-1.52,2.49,3.84,3.84,0,0,1-1,.72q-.51.19-1.11.39l-.62-.57a6,6,0,0,0,1.17-.31,4.59,4.59,0,0,0,1.07-.73,3,3,0,0,0,1.12-1.85,1.76,1.76,0,0,0-.65-1.55,2.6,2.6,0,0,0-1.26-.63,7.32,7.32,0,0,0-2.11.31l-.88.21a3.8,3.8,0,0,1-1.59.07,2.5,2.5,0,0,1-1.2-.63,2,2,0,0,1-.66-1.75,4.2,4.2,0,0,1,.7-1.79,4.34,4.34,0,0,0-2-.94,2.13,2.13,0,0,0-1.65.63,2,2,0,0,0-.7,1.75,3.57,3.57,0,0,0,1.23,2l7.39,6.85-.6.56Z"/></g><path class="cls-7" d="M61.22,187.92l6,5.57-.51.47-6-5.57ZM66.84,184l4.64,4.3-.51.47-4.64-4.3Zm3.61-4.62,6,5.57-.5.47-6-5.56Z"/><path class="cls-5" d="M145.37,180.43a5.72,5.72,0,0,0-3.3.93,3.35,3.35,0,0,0-1.36,3v10h-1.53V184.15a4.2,4.2,0,0,1,2-3.86,8,8,0,0,1,8.45,0,4.21,4.21,0,0,1,2,3.86v10.22H150v-10a3.4,3.4,0,0,0-1.35-3A5.69,5.69,0,0,0,145.37,180.43Z"/><path class="cls-6" d="M101.83,195.47v-.67H103a2.07,2.07,0,0,0,1.44-.45,2.3,2.3,0,0,0,.61-1.76v-.85h-2.79v-.67h2.79V182a4.36,4.36,0,0,1,.63-2.71,2.65,2.65,0,0,1,2.12-.76h.64v.67H108a2.45,2.45,0,0,0-1.57.43c-.35.28-.52,1.07-.52,2.37v9.08h1.62v.67h-1.62v.67a3,3,0,0,1-.79,2.32,3,3,0,0,1-2.14.74Z"/><path class="cls-7" d="M3.07,162.83l6,5.57-.5.47-6-5.57Zm5.62-3.94,4.64,4.3-.51.47-4.64-4.3Zm3.61-4.61,6,5.56-.51.47-6-5.56Z"/><g class="cls-2"><path class="cls-3" d="M282.5,3.16a4.26,4.26,0,0,1,2.65-1.29,3.34,3.34,0,0,1,2.5,1,2.45,2.45,0,0,1,.9,2.24,4.26,4.26,0,0,1-1.45,2.45,8.32,8.32,0,0,0-1.72-.68,1.83,1.83,0,0,0-1.84.45,1.29,1.29,0,0,0-.41.82,3.06,3.06,0,0,0,.13,1.28l.19.69a6.82,6.82,0,0,1,.38,1.56,2.35,2.35,0,0,1-.82,2,2.92,2.92,0,0,1-2.24.94,4.45,4.45,0,0,1-2.68-1.41,3.84,3.84,0,0,1-.78-.93,10,10,0,0,1-.42-1l.61-.57a5.71,5.71,0,0,0,.34,1.08,4.27,4.27,0,0,0,.78,1,3.43,3.43,0,0,0,2,1,2,2,0,0,0,1.67-.6A2.36,2.36,0,0,0,283,12a6.14,6.14,0,0,0-.34-2l-.22-.81a2.93,2.93,0,0,1-.08-1.48,2.14,2.14,0,0,1,.68-1.1A2.3,2.3,0,0,1,284.9,6a4.8,4.8,0,0,1,1.93.65,3.88,3.88,0,0,0,1-1.88,1.91,1.91,0,0,0-.69-1.53,2.3,2.3,0,0,0-1.88-.65,4,4,0,0,0-2.21,1.14l-7.39,6.85-.61-.56Z"/></g><path class="cls-4" d="M241.89,16.43,235.87,4l.86-.79,13.46,5.58ZM237,4.16l5.32,10.9,6.46-6Z"/><path class="cls-5" d="M299.81,41.34a5.72,5.72,0,0,0,3.3-.93,3.37,3.37,0,0,0,1.36-3v-10H306V37.62a4.19,4.19,0,0,1-2,3.85,8,8,0,0,1-8.44,0,4.19,4.19,0,0,1-2-3.85V27.39h1.53v10a3.39,3.39,0,0,0,1.35,3A5.62,5.62,0,0,0,299.81,41.34Z"/><g class="cls-2"><path class="cls-6" d="M268.05,30.84l-.51.47-.85-.79a2,2,0,0,0-1.36-.62,2.68,2.68,0,0,0-1.78.84l-.64.6,2,1.83-.51.47-2-1.83-6.93,6.43A5,5,0,0,1,253,39.73a2.6,2.6,0,0,1-2.07-.84l-.46-.42.51-.48.31.29a2.37,2.37,0,0,0,1.44.73c.46,0,1.19-.42,2.18-1.34l6.93-6.42-1.15-1.06.51-.47,1.15,1.06.51-.47a3.55,3.55,0,0,1,2.33-1.13,2.91,2.91,0,0,1,2.07.88Z"/></g><g class="cls-2"><path class="cls-3" d="M178.59,29.88a3.64,3.64,0,0,1,.89-2.64A3.28,3.28,0,0,1,182,26.3a2.86,2.86,0,0,1,2.35,1,4.11,4.11,0,0,1,.84,2.68,8.17,8.17,0,0,0-1.73.65,1.61,1.61,0,0,0-1,1.52,1.3,1.3,0,0,0,.33.85,3.5,3.5,0,0,0,1.08.82l.65.37A7.21,7.21,0,0,1,186,35a2.33,2.33,0,0,1,.92,1.93,2.52,2.52,0,0,1-.86,2.13,4.55,4.55,0,0,1-3,.76,3.85,3.85,0,0,1-1.26-.15,11.52,11.52,0,0,1-1.09-.45v-.8a5.94,5.94,0,0,0,1.06.54,5,5,0,0,0,1.31.18,3.53,3.53,0,0,0,2.22-.57,1.79,1.79,0,0,0,.72-1.52,2.28,2.28,0,0,0-.42-1.28,6.68,6.68,0,0,0-1.72-1.16l-.79-.43a3.39,3.39,0,0,1-1.18-1A2.12,2.12,0,0,1,181.6,32a2,2,0,0,1,.86-1.67,4.79,4.79,0,0,1,1.86-.8,3.66,3.66,0,0,0-.71-2,2.17,2.17,0,0,0-1.65-.63,2.24,2.24,0,0,0-1.82.77,3.35,3.35,0,0,0-.7,2.25V39.6h-.85Z"/></g><g class="cls-2"><path class="cls-5" d="M202.7,1.91a5.72,5.72,0,0,0-3.3.93,3.35,3.35,0,0,0-1.36,3v10h-1.53V5.63a4.18,4.18,0,0,1,2-3.85,7.91,7.91,0,0,1,8.44,0,4.18,4.18,0,0,1,2,3.85V15.85h-1.53v-10a3.4,3.4,0,0,0-1.35-3A5.69,5.69,0,0,0,202.7,1.91Z"/></g><path class="cls-6" d="M160.35,17v-.67h1.2a2.09,2.09,0,0,0,1.44-.45,2.3,2.3,0,0,0,.61-1.76v-.85h-2.79v-.67h2.79V3.47a4.36,4.36,0,0,1,.63-2.71A2.63,2.63,0,0,1,166.35,0H167V.67h-.44a2.51,2.51,0,0,0-1.57.42c-.35.29-.53,1.08-.53,2.38v9.08h1.63v.67h-1.63v.67a3,3,0,0,1-.78,2.32,3,3,0,0,1-2.14.74Z"/><path class="cls-7" d="M217.94,26.83h8.49v.67h-8.49Zm0,12.1h8.49v.67h-8.49Zm1-6.47h6.56v.67H218.9Z"/><path class="cls-3" d="M238.22,55.61a3.68,3.68,0,0,1,.89-2.64,3.32,3.32,0,0,1,2.52-.94A2.89,2.89,0,0,1,244,53a4.19,4.19,0,0,1,.83,2.69,7.65,7.65,0,0,0-1.73.65,1.59,1.59,0,0,0-1,1.51,1.33,1.33,0,0,0,.33.86,4,4,0,0,0,1.08.82l.66.37a7.36,7.36,0,0,1,1.46.84,2.4,2.4,0,0,1,.92,1.93,2.5,2.5,0,0,1-.87,2.13,4.55,4.55,0,0,1-3,.76,4,4,0,0,1-1.26-.14q-.51-.19-1.08-.45v-.81a6.75,6.75,0,0,0,1.06.55,5,5,0,0,0,1.31.18,3.5,3.5,0,0,0,2.21-.57,1.77,1.77,0,0,0,.72-1.53,2.31,2.31,0,0,0-.41-1.27,7,7,0,0,0-1.73-1.16l-.78-.43a3.3,3.3,0,0,1-1.18-1,2.12,2.12,0,0,1-.36-1.23,2,2,0,0,1,.85-1.67,4.77,4.77,0,0,1,1.87-.8,3.87,3.87,0,0,0-.71-2,2.2,2.2,0,0,0-1.65-.63,2.24,2.24,0,0,0-1.83.78,3.4,3.4,0,0,0-.69,2.25v9.69h-.86Z"/><g class="cls-2"><path class="cls-5" d="M281.81,102.66a5.72,5.72,0,0,0-3.3.93,3.37,3.37,0,0,0-1.36,3v10h-1.53V106.38a4.19,4.19,0,0,1,2-3.85,8,8,0,0,1,8.44,0,4.19,4.19,0,0,1,2,3.85v10.23h-1.53v-10a3.38,3.38,0,0,0-1.35-3A5.62,5.62,0,0,0,281.81,102.66Z"/></g><path class="cls-6" d="M238.8,117.7V117H240a2.07,2.07,0,0,0,1.44-.46,2.3,2.3,0,0,0,.61-1.76V114h-2.79v-.66h2.79v-9.08a4.34,4.34,0,0,1,.63-2.71,2.63,2.63,0,0,1,2.12-.76h.64v.66H245a2.45,2.45,0,0,0-1.57.43c-.35.29-.53,1.08-.53,2.38v9.08h1.63V114H242.9v.67a3.06,3.06,0,0,1-.78,2.33,3,3,0,0,1-2.14.73Z"/><g class="cls-2"><path class="cls-7" d="M273.13,57.49l6-5.57.51.48-6,5.57Zm5,3.35,4.64-4.3.51.47-4.64,4.3Zm4.25,5.21,6-5.57.51.47-6,5.57Z"/></g><g class="cls-2"><path class="cls-4" d="M208.59,54.9l-5.26,12.77h-1.22L196.86,54.9ZM202.7,66.79l4.56-11.19h-9.14Z"/></g><path class="cls-5" d="M169.46,55.22a5.53,5.53,0,0,0-3-1.51,3.92,3.92,0,0,0-3.25,1.23L155.53,62l-1.08-1,7.8-7.23a4.84,4.84,0,0,1,4.33-1.43,7.59,7.59,0,0,1,3.91,1.91,6.78,6.78,0,0,1,2.06,3.62,4.12,4.12,0,0,1-1.55,4l-7.8,7.23-1.08-1,7.64-7.08a3.36,3.36,0,0,0,1.33-3A4.83,4.83,0,0,0,169.46,55.22Z"/><g class="cls-2"><path class="cls-6" d="M178.6,77.41l.51.47-.85.79a1.77,1.77,0,0,0-.67,1.26,2.3,2.3,0,0,0,.91,1.64l.65.6,2-1.82.51.47-2,1.82,6.92,6.42a4.46,4.46,0,0,1,1.62,2.34,2.24,2.24,0,0,1-.91,1.92l-.46.42-.51-.47.32-.29a2.16,2.16,0,0,0,.78-1.33c0-.43-.45-1.1-1.44-2l-6.93-6.42-1.15,1.06-.51-.47,1.15-1.06-.51-.48a3.11,3.11,0,0,1-1.22-2.16,2.58,2.58,0,0,1,.95-1.92Z"/></g><path class="cls-3" d="M169.54,110.28a3.72,3.72,0,0,1,1.38,2.45,2.83,2.83,0,0,1-1.06,2.32,2.93,2.93,0,0,1-2.42.84,4.85,4.85,0,0,1-2.65-1.35,6.54,6.54,0,0,0,.73-1.59,1.61,1.61,0,0,0-1.36-2.09,3.81,3.81,0,0,0-1.39.13l-.74.17a8.8,8.8,0,0,1-1.68.35,2.76,2.76,0,0,1-2.13-.76,2.56,2.56,0,0,1-1-2.07,3.94,3.94,0,0,1,1.52-2.49,4,4,0,0,1,1-.72c.34-.13.71-.27,1.12-.39l.61.57a6,6,0,0,0-1.17.31,4.52,4.52,0,0,0-1.06.73,3,3,0,0,0-1.13,1.85,1.76,1.76,0,0,0,.65,1.55,2.63,2.63,0,0,0,1.27.63,7.35,7.35,0,0,0,2.11-.31l.88-.21a3.63,3.63,0,0,1,1.59-.07,2.51,2.51,0,0,1,1.19.63,2,2,0,0,1,.67,1.74,4.13,4.13,0,0,1-.71,1.79,4.32,4.32,0,0,0,2,.95,2.21,2.21,0,0,0,1.65-.63,1.94,1.94,0,0,0,.7-1.75,3.46,3.46,0,0,0-1.23-2L161.51,104l.61-.57Z"/><g class="cls-2"><path class="cls-4" d="M265.46,80.05,260.2,92.82H259l-5.25-12.77Zm-5.89,11.89,4.56-11.19H255Z"/></g><path class="cls-5" d="M227.35,80.36a5.61,5.61,0,0,0-3-1.5,3.88,3.88,0,0,0-3.25,1.23l-7.65,7.08-1.08-1,7.8-7.23a4.88,4.88,0,0,1,4.33-1.44,7.71,7.71,0,0,1,3.91,1.91A6.78,6.78,0,0,1,230.43,83a4.1,4.1,0,0,1-1.55,4l-7.8,7.23-1.08-1,7.65-7.09a3.35,3.35,0,0,0,1.32-3A4.86,4.86,0,0,0,227.35,80.36Z"/><g class="cls-2"><path class="cls-7" d="M196.31,110.15l6,5.57-.51.47-6-5.57Zm5.62-3.94,4.64,4.3-.51.47-4.64-4.3Zm3.61-4.61,6,5.57-.51.47-6-5.57Z"/></g><path class="cls-3" d="M295.94,80.76a3.64,3.64,0,0,1,.9-2.64,3.27,3.27,0,0,1,2.51-.94,2.88,2.88,0,0,1,2.36,1,4.25,4.25,0,0,1,.84,2.69,7.72,7.72,0,0,0-1.74.65,1.59,1.59,0,0,0-1,1.51,1.33,1.33,0,0,0,.33.86,4,4,0,0,0,1.08.82l.66.36a7.72,7.72,0,0,1,1.46.85,2.37,2.37,0,0,1,.92,1.93,2.48,2.48,0,0,1-.87,2.13,4.55,4.55,0,0,1-3,.76,4.15,4.15,0,0,1-1.25-.14c-.35-.13-.71-.28-1.09-.46v-.8a7.24,7.24,0,0,0,1.06.55,5,5,0,0,0,1.31.18,3.44,3.44,0,0,0,2.21-.58,1.74,1.74,0,0,0,.72-1.52,2.24,2.24,0,0,0-.41-1.27,6.82,6.82,0,0,0-1.73-1.16l-.78-.43a3.39,3.39,0,0,1-1.18-1,2.12,2.12,0,0,1-.36-1.23,2,2,0,0,1,.86-1.67,4.88,4.88,0,0,1,1.86-.81,3.82,3.82,0,0,0-.71-2,2.2,2.2,0,0,0-1.65-.63,2.24,2.24,0,0,0-1.83.78,3.4,3.4,0,0,0-.69,2.25v9.69h-.86Z"/><g class="cls-2"><path class="cls-3" d="M260.25,132a4.32,4.32,0,0,1,2.65-1.28,3.26,3.26,0,0,1,2.5,1,2.46,2.46,0,0,1,.91,2.24,4.34,4.34,0,0,1-1.46,2.45,7.6,7.6,0,0,0-1.72-.68,1.83,1.83,0,0,0-1.83.44,1.28,1.28,0,0,0-.42.82,3.15,3.15,0,0,0,.14,1.29l.18.69a6.24,6.24,0,0,1,.38,1.55,2.33,2.33,0,0,1-.82,2,2.92,2.92,0,0,1-2.23.93,4.41,4.41,0,0,1-2.69-1.41,3.37,3.37,0,0,1-.77-.92c-.15-.32-.29-.66-.43-1l.62-.57a5.48,5.48,0,0,0,.33,1.08,4.2,4.2,0,0,0,.79,1,3.4,3.4,0,0,0,2,1.05,2.06,2.06,0,0,0,1.67-.6,2.35,2.35,0,0,0,.68-1.18,5.66,5.66,0,0,0-.33-2l-.23-.82a3,3,0,0,1-.08-1.47,2.22,2.22,0,0,1,.69-1.11,2.27,2.27,0,0,1,1.87-.61,4.9,4.9,0,0,1,1.94.65,3.8,3.8,0,0,0,1-1.88,1.85,1.85,0,0,0-.68-1.53,2.29,2.29,0,0,0-1.89-.65,4,4,0,0,0-2.21,1.14l-7.39,6.85-.6-.56Z"/></g><path class="cls-7" d="M303.93,133.14h-8.5v-.67h8.5Zm0,12.09h-8.5v-.66h8.5Zm-1-5.62H296.4v-.67H303Z"/><path class="cls-4" d="M221.86,145.25l-6-12.47.86-.8,13.45,5.59ZM216.94,133l5.32,10.9,6.47-6Z"/><g class="cls-2"><path class="cls-5" d="M182.46,130.73a5.68,5.68,0,0,0-3.3.93,3.37,3.37,0,0,0-1.36,3v10h-1.53V134.45a4.19,4.19,0,0,1,2-3.85,8,8,0,0,1,8.45,0,4.19,4.19,0,0,1,2,3.85v10.23h-1.53v-10a3.38,3.38,0,0,0-1.34-3A5.64,5.64,0,0,0,182.46,130.73Z"/></g><g class="cls-2"><path class="cls-6" d="M199.41,170.38v-.67h1.2a2.07,2.07,0,0,0,1.44-.45,2.26,2.26,0,0,0,.61-1.76v-.85h-2.79V166h2.79V156.9a4.36,4.36,0,0,1,.63-2.71,2.68,2.68,0,0,1,2.12-.76h.64v.67h-.44a2.45,2.45,0,0,0-1.57.43c-.35.28-.52,1.07-.52,2.37V166h1.62v.67h-1.62v.67a3,3,0,0,1-.79,2.32,3,3,0,0,1-2.14.74Z"/></g><g class="cls-2"><path class="cls-4" d="M281.61,169.86l-6-12.47.86-.8,13.46,5.58Zm-4.91-12.27,5.32,10.9,6.46-6Z"/></g><path class="cls-5" d="M242.09,155.34a5.72,5.72,0,0,0-3.3.93,3.36,3.36,0,0,0-1.36,3v10H235.9V159.06a4.17,4.17,0,0,1,2-3.85,7.91,7.91,0,0,1,8.44,0,4.19,4.19,0,0,1,2,3.85v10.22h-1.53v-10a3.37,3.37,0,0,0-1.35-3A5.62,5.62,0,0,0,242.09,155.34Z"/><g class="cls-2"><path class="cls-3" d="M176.27,186.75a3.74,3.74,0,0,1-1.38-2.46A2.82,2.82,0,0,1,176,182a2.93,2.93,0,0,1,2.42-.84,4.85,4.85,0,0,1,2.65,1.35,6.37,6.37,0,0,0-.73,1.59,1.61,1.61,0,0,0,1.36,2.09A3.82,3.82,0,0,0,183,186l.74-.17a7.48,7.48,0,0,1,1.68-.35,2.76,2.76,0,0,1,2.13.76,2.56,2.56,0,0,1,1,2.07,3.94,3.94,0,0,1-1.52,2.49,4,4,0,0,1-1,.72c-.34.13-.71.26-1.12.39l-.61-.57a6.87,6.87,0,0,0,1.17-.31,4.52,4.52,0,0,0,1.06-.73,3,3,0,0,0,1.13-1.85,1.76,1.76,0,0,0-.65-1.55,2.63,2.63,0,0,0-1.27-.63,7.35,7.35,0,0,0-2.11.31l-.88.21a3.79,3.79,0,0,1-1.59.07,2.51,2.51,0,0,1-1.19-.63,2,2,0,0,1-.67-1.75,4.14,4.14,0,0,1,.71-1.78,4.32,4.32,0,0,0-2-1,2.17,2.17,0,0,0-1.65.63,1.94,1.94,0,0,0-.7,1.75,3.46,3.46,0,0,0,1.23,2l7.39,6.85-.61.56Z"/></g><path class="cls-7" d="M215.66,187.92l6,5.57-.51.47-6-5.57Zm5.62-3.94,4.64,4.3-.51.47-4.64-4.3Zm3.61-4.62,6,5.57-.51.47-6-5.56Z"/><path class="cls-5" d="M299.81,180.43a5.72,5.72,0,0,0-3.3.93,3.35,3.35,0,0,0-1.36,3v10h-1.53V184.15a4.21,4.21,0,0,1,2-3.86,8,8,0,0,1,8.44,0,4.21,4.21,0,0,1,2,3.86v10.22h-1.53v-10a3.4,3.4,0,0,0-1.35-3A5.69,5.69,0,0,0,299.81,180.43Z"/><path class="cls-6" d="M256.28,195.47v-.67h1.19a2.07,2.07,0,0,0,1.44-.45,2.26,2.26,0,0,0,.61-1.76v-.85h-2.78v-.67h2.78V182a4.35,4.35,0,0,1,.64-2.71,2.61,2.61,0,0,1,2.11-.76h.65v.67h-.44a2.43,2.43,0,0,0-1.57.43c-.35.28-.53,1.07-.53,2.37v9.08H262v.67h-1.62v.67a3,3,0,0,1-.78,2.32,3,3,0,0,1-2.14.74Z"/><path class="cls-7" d="M157.51,162.83l6,5.57-.51.47-6-5.57Zm5.62-3.94,4.64,4.3-.51.47-4.63-4.3Zm3.61-4.62,6,5.57-.51.47-6-5.56Z"/><g class="cls-2"><path class="cls-3" d="M128.06,203.69a4.17,4.17,0,0,1,2.64-1.28,3.28,3.28,0,0,1,2.5,1,2.46,2.46,0,0,1,.91,2.24,4.25,4.25,0,0,1-1.46,2.45,8.1,8.1,0,0,0-1.72-.68,1.84,1.84,0,0,0-1.83.45,1.26,1.26,0,0,0-.42.82,3.15,3.15,0,0,0,.14,1.29l.18.69a6.53,6.53,0,0,1,.39,1.55,2.36,2.36,0,0,1-.83,2,2.9,2.9,0,0,1-2.23.94,4.42,4.42,0,0,1-2.68-1.41,3.28,3.28,0,0,1-.78-.93c-.15-.31-.29-.65-.43-1l.62-.57a5.43,5.43,0,0,0,.33,1.09,4.47,4.47,0,0,0,.79,1,3.4,3.4,0,0,0,2,1,2.07,2.07,0,0,0,1.67-.61,2.29,2.29,0,0,0,.68-1.17,5.66,5.66,0,0,0-.33-1.95l-.23-.82a3,3,0,0,1-.08-1.48,2.23,2.23,0,0,1,.69-1.1,2.29,2.29,0,0,1,1.88-.62,5.07,5.07,0,0,1,1.93.65,3.76,3.76,0,0,0,1-1.88,1.87,1.87,0,0,0-.68-1.53,2.28,2.28,0,0,0-1.89-.64,3.9,3.9,0,0,0-2.2,1.13l-7.4,6.85-.6-.56Z"/></g><path class="cls-4" d="M87.45,217l-6-12.47.86-.8,13.45,5.58Zm-4.91-12.27,5.31,10.9,6.47-6Z"/><path class="cls-5" d="M145.37,241.87a5.67,5.67,0,0,0,3.29-.93,3.37,3.37,0,0,0,1.37-3v-10h1.52v10.23a4.19,4.19,0,0,1-2,3.85,8,8,0,0,1-8.45,0,4.19,4.19,0,0,1-2-3.85V227.92h1.53v10a3.39,3.39,0,0,0,1.34,3A5.65,5.65,0,0,0,145.37,241.87Z"/><g class="cls-2"><path class="cls-6" d="M113.6,231.37l-.5.47-.85-.79a2,2,0,0,0-1.37-.62,2.65,2.65,0,0,0-1.77.85l-.65.6,2,1.82-.5.47-2-1.82L101,238.77a5.08,5.08,0,0,1-2.52,1.5,2.68,2.68,0,0,1-2.08-.85L96,239l.51-.47.31.29a2.38,2.38,0,0,0,1.43.72c.47,0,1.2-.42,2.19-1.33l6.93-6.43-1.15-1.06.51-.47,1.15,1.06.51-.47a3.55,3.55,0,0,1,2.32-1.13,3,3,0,0,1,2.08.88Z"/></g><g class="cls-2"><path class="cls-3" d="M24.14,230.41a3.64,3.64,0,0,1,.9-2.64,3.26,3.26,0,0,1,2.51-.94,2.88,2.88,0,0,1,2.36,1,4.25,4.25,0,0,1,.84,2.68,8,8,0,0,0-1.74.65,1.61,1.61,0,0,0-1,1.52,1.28,1.28,0,0,0,.33.85,3.77,3.77,0,0,0,1.08.82l.66.37a7.49,7.49,0,0,1,1.46.85,2.39,2.39,0,0,1,.92,1.93,2.49,2.49,0,0,1-.87,2.13,4.55,4.55,0,0,1-3,.76,4.15,4.15,0,0,1-1.25-.14c-.35-.13-.71-.28-1.09-.46V239a5.62,5.62,0,0,0,1.06.54,5,5,0,0,0,1.31.18,3.5,3.5,0,0,0,2.21-.57,1.74,1.74,0,0,0,.72-1.52,2.21,2.21,0,0,0-.41-1.27,6.49,6.49,0,0,0-1.73-1.17l-.78-.42a3.52,3.52,0,0,1-1.18-1,2.08,2.08,0,0,1-.36-1.23,2,2,0,0,1,.86-1.67,4.81,4.81,0,0,1,1.86-.8,3.82,3.82,0,0,0-.71-2,2.2,2.2,0,0,0-1.65-.63,2.24,2.24,0,0,0-1.83.78,3.35,3.35,0,0,0-.69,2.24v9.69h-.86Z"/></g><g class="cls-2"><path class="cls-5" d="M48.25,202.44a5.67,5.67,0,0,0-3.29.93,3.36,3.36,0,0,0-1.36,3v10H42.07V206.16a4.17,4.17,0,0,1,2-3.85,7.93,7.93,0,0,1,8.45,0,4.17,4.17,0,0,1,2,3.85v10.22H52.91v-10a3.39,3.39,0,0,0-1.34-3A5.65,5.65,0,0,0,48.25,202.44Z"/></g><path class="cls-6" d="M5.9,217.48v-.67H7.1a2.07,2.07,0,0,0,1.44-.45,2.26,2.26,0,0,0,.61-1.76v-.85H6.36v-.67H9.15V204a4.29,4.29,0,0,1,.64-2.71,2.64,2.64,0,0,1,2.11-.76h.65v.67H12.1a2.45,2.45,0,0,0-1.57.43c-.35.28-.52,1.07-.52,2.37v9.08h1.62v.67H10v.67a3,3,0,0,1-.79,2.32,3,3,0,0,1-2.14.74Z"/><path class="cls-7" d="M63.49,227.37H72V228h-8.5Zm0,12.1H72v.66h-8.5Zm1-6.48H71v.67H64.46Z"/><path class="cls-3" d="M83.77,256.15a3.68,3.68,0,0,1,.9-2.65,3.32,3.32,0,0,1,2.52-.94,2.85,2.85,0,0,1,2.35,1,4.11,4.11,0,0,1,.84,2.68,8.44,8.44,0,0,0-1.74.65,1.59,1.59,0,0,0-1,1.51,1.32,1.32,0,0,0,.34.86,3.5,3.5,0,0,0,1.08.82l.65.37a7.59,7.59,0,0,1,1.46.84,2.38,2.38,0,0,1,.92,1.94,2.47,2.47,0,0,1-.87,2.12,4.54,4.54,0,0,1-3,.77A3.79,3.79,0,0,1,87,266c-.35-.13-.71-.28-1.09-.45v-.81a7.24,7.24,0,0,0,1.06.55,5,5,0,0,0,1.31.18,3.55,3.55,0,0,0,2.22-.57,1.8,1.8,0,0,0,.72-1.52,2.28,2.28,0,0,0-.42-1.28,6.82,6.82,0,0,0-1.73-1.16l-.78-.43a3.39,3.39,0,0,1-1.18-1,2.12,2.12,0,0,1-.36-1.23,2,2,0,0,1,.86-1.67,4.79,4.79,0,0,1,1.86-.8,3.7,3.7,0,0,0-.71-2,2.15,2.15,0,0,0-1.65-.64,2.24,2.24,0,0,0-1.83.78,3.4,3.4,0,0,0-.69,2.25v9.69h-.86Z"/><g class="cls-2"><path class="cls-5" d="M127.36,303.19a5.67,5.67,0,0,0-3.29.93,3.37,3.37,0,0,0-1.37,3v10h-1.52V306.91a4.19,4.19,0,0,1,2-3.85,8,8,0,0,1,8.45,0,4.19,4.19,0,0,1,2,3.85v10.23H132v-10a3.4,3.4,0,0,0-1.34-3A5.72,5.72,0,0,0,127.36,303.19Z"/></g><path class="cls-6" d="M84.36,318.23v-.66h1.19a2,2,0,0,0,1.44-.46,2.25,2.25,0,0,0,.61-1.76v-.84H84.82v-.67H87.6v-9.08a4.27,4.27,0,0,1,.64-2.71,2.61,2.61,0,0,1,2.11-.76H91V302h-.44a2.49,2.49,0,0,0-1.57.43c-.35.29-.53,1.08-.53,2.38v9.08h1.62v.67H88.46v.66a3.06,3.06,0,0,1-.78,2.33,3,3,0,0,1-2.14.73Z"/><g class="cls-2"><path class="cls-7" d="M118.69,258l6-5.57.5.47-6,5.57Zm5,3.34,4.64-4.3.51.47-4.64,4.3Zm4.26,5.21,6-5.57.51.47-6,5.57Z"/></g><g class="cls-2"><path class="cls-4" d="M54.15,255.43,48.89,268.2H47.67l-5.25-12.77Zm-5.89,11.9,4.56-11.2H43.67Z"/></g><path class="cls-5" d="M15,255.75a5.59,5.59,0,0,0-3-1.51,3.91,3.91,0,0,0-3.25,1.23l-7.65,7.08-1.08-1,7.8-7.23a4.85,4.85,0,0,1,4.33-1.43A7.56,7.56,0,0,1,16,254.8a6.71,6.71,0,0,1,2.06,3.62,4.1,4.1,0,0,1-1.55,4l-7.8,7.23-1.08-1,7.65-7.08a3.37,3.37,0,0,0,1.32-3A4.86,4.86,0,0,0,15,255.75Z"/><g class="cls-2"><path class="cls-6" d="M24.16,277.94l.51.47-.85.79a1.73,1.73,0,0,0-.67,1.26,2.29,2.29,0,0,0,.91,1.65l.64.6,2-1.83.51.47-2,1.83,6.93,6.42a4.57,4.57,0,0,1,1.62,2.33,2.27,2.27,0,0,1-.91,1.92l-.46.43-.51-.47.31-.29a2.19,2.19,0,0,0,.79-1.33c0-.44-.45-1.11-1.45-2l-6.92-6.42-1.15,1.06-.51-.47,1.15-1.06-.51-.47a3.15,3.15,0,0,1-1.22-2.16,2.55,2.55,0,0,1,.95-1.92Z"/></g><path class="cls-3" d="M15.09,310.81a3.74,3.74,0,0,1,1.38,2.45,2.79,2.79,0,0,1-1.06,2.32,2.91,2.91,0,0,1-2.42.84,4.86,4.86,0,0,1-2.64-1.35,6.74,6.74,0,0,0,.73-1.59,1.53,1.53,0,0,0-.48-1.7,1.49,1.49,0,0,0-.88-.39,4,4,0,0,0-1.39.13l-.75.17a7.25,7.25,0,0,1-1.67.35,2.76,2.76,0,0,1-2.13-.76,2.51,2.51,0,0,1-1-2.07,3.94,3.94,0,0,1,1.52-2.49,3.84,3.84,0,0,1,1-.72q.51-.19,1.11-.39l.62.57a6.59,6.59,0,0,0-1.17.31,4.59,4.59,0,0,0-1.07.73,3,3,0,0,0-1.12,1.86,1.75,1.75,0,0,0,.65,1.54,2.6,2.6,0,0,0,1.26.63,7.32,7.32,0,0,0,2.11-.31l.88-.21a3.8,3.8,0,0,1,1.59-.07,2.5,2.5,0,0,1,1.2.63A2,2,0,0,1,12,313a4.2,4.2,0,0,1-.7,1.79,4.34,4.34,0,0,0,2,.94,2.13,2.13,0,0,0,1.65-.63,1.94,1.94,0,0,0,.7-1.75,3.51,3.51,0,0,0-1.23-2L7.07,304.5l.61-.56Z"/><g class="cls-2"><path class="cls-4" d="M111,280.58l-5.26,12.77h-1.22l-5.25-12.77Zm-5.89,11.89,4.56-11.19h-9.14Z"/></g><path class="cls-5" d="M72.9,280.9a5.53,5.53,0,0,0-3-1.51,3.92,3.92,0,0,0-3.25,1.23L59,287.7l-1.09-1,7.81-7.23A4.84,4.84,0,0,1,70,278,7.63,7.63,0,0,1,73.93,280,6.78,6.78,0,0,1,76,283.57a4.12,4.12,0,0,1-1.55,4l-7.8,7.23-1.08-1,7.64-7.09a3.36,3.36,0,0,0,1.33-3A4.83,4.83,0,0,0,72.9,280.9Z"/><g class="cls-2"><path class="cls-7" d="M41.86,310.68l6,5.57-.51.47-6-5.56Zm5.63-3.94,4.64,4.3-.51.47L47,307.21Zm3.61-4.61,6,5.57-.5.47-6-5.57Z"/></g><path class="cls-3" d="M141.5,281.29a3.64,3.64,0,0,1,.89-2.64,3.32,3.32,0,0,1,2.52-.94,2.86,2.86,0,0,1,2.35,1,4.16,4.16,0,0,1,.84,2.69,8.17,8.17,0,0,0-1.73.65,1.59,1.59,0,0,0-1,1.51,1.31,1.31,0,0,0,.33.86,3.77,3.77,0,0,0,1.08.82l.65.37a7.59,7.59,0,0,1,1.46.84,2.34,2.34,0,0,1,.92,1.93,2.5,2.5,0,0,1-.86,2.13,4.55,4.55,0,0,1-3,.76,3.91,3.91,0,0,1-1.26-.14c-.34-.13-.71-.28-1.09-.45v-.81a7.24,7.24,0,0,0,1.06.55,5,5,0,0,0,1.31.18,3.53,3.53,0,0,0,2.22-.57,1.82,1.82,0,0,0,.72-1.53,2.24,2.24,0,0,0-.42-1.27,6.68,6.68,0,0,0-1.72-1.16l-.79-.43a3.39,3.39,0,0,1-1.18-1,2.12,2.12,0,0,1-.36-1.23,2,2,0,0,1,.86-1.67,4.79,4.79,0,0,1,1.86-.8,3.62,3.62,0,0,0-.71-2,2.14,2.14,0,0,0-1.65-.64,2.23,2.23,0,0,0-1.82.78,3.35,3.35,0,0,0-.7,2.25V291h-.85Z"/><g class="cls-2"><path class="cls-3" d="M105.81,332.51a4.3,4.3,0,0,1,2.65-1.28,3.31,3.31,0,0,1,2.5,1,2.45,2.45,0,0,1,.9,2.24,4.26,4.26,0,0,1-1.45,2.45,8.32,8.32,0,0,0-1.72-.68,1.86,1.86,0,0,0-1.84.44,1.34,1.34,0,0,0-.41.83,3.06,3.06,0,0,0,.13,1.28l.19.69a6.82,6.82,0,0,1,.38,1.56,2.36,2.36,0,0,1-.82,2,3,3,0,0,1-2.24.94,4.45,4.45,0,0,1-2.68-1.41,3.62,3.62,0,0,1-.78-.93c-.14-.31-.29-.66-.42-1l.61-.57a7.47,7.47,0,0,0,.33,1.08,4.59,4.59,0,0,0,.79,1,3.43,3.43,0,0,0,2,1,2,2,0,0,0,1.67-.6,2.4,2.4,0,0,0,.68-1.17,6.14,6.14,0,0,0-.34-2l-.23-.81a3,3,0,0,1-.07-1.48,2.14,2.14,0,0,1,.68-1.1,2.27,2.27,0,0,1,1.88-.62,4.86,4.86,0,0,1,1.93.65,3.92,3.92,0,0,0,1-1.88,1.91,1.91,0,0,0-.69-1.53,2.29,2.29,0,0,0-1.89-.65,4,4,0,0,0-2.2,1.14L99,340l-.61-.56Z"/></g><path class="cls-7" d="M149.48,333.67H141V333h8.5Zm0,12.1H141v-.67h8.5Zm-1-5.63H142v-.67h6.56Z"/><path class="cls-4" d="M67.41,345.79l-6-12.48.86-.8L75.7,338.1ZM62.5,333.52l5.32,10.9,6.46-6Z"/><g class="cls-2"><path class="cls-5" d="M28,331.26a5.72,5.72,0,0,0-3.3.93,3.37,3.37,0,0,0-1.36,3v10H21.82V335a4.2,4.2,0,0,1,2-3.85,8,8,0,0,1,8.44,0,4.2,4.2,0,0,1,2,3.85v10.23H32.67v-10a3.39,3.39,0,0,0-1.35-3A5.69,5.69,0,0,0,28,331.26Z"/></g><g class="cls-2"><path class="cls-6" d="M45,370.91v-.67h1.2a2.11,2.11,0,0,0,1.44-.45,2.3,2.3,0,0,0,.6-1.76v-.85H45.43v-.66h2.78v-9.08a4.33,4.33,0,0,1,.64-2.71A2.63,2.63,0,0,1,51,354h.65v.67h-.44a2.45,2.45,0,0,0-1.57.43c-.35.28-.53,1.08-.53,2.38v9.08H50.7v.66H49.07v.67a3.06,3.06,0,0,1-.78,2.33,3,3,0,0,1-2.14.73Z"/></g><g class="cls-2"><path class="cls-4" d="M127.17,370.39l-6-12.47.86-.8,13.45,5.59Zm-4.91-12.27,5.31,10.9,6.47-6Z"/></g><path class="cls-5" d="M87.64,355.87a5.67,5.67,0,0,0-3.29.93,3.37,3.37,0,0,0-1.37,3v10H81.46V359.59a4.19,4.19,0,0,1,2-3.85,8,8,0,0,1,8.45,0,4.19,4.19,0,0,1,2,3.85v10.23H92.3v-10a3.39,3.39,0,0,0-1.34-3A5.65,5.65,0,0,0,87.64,355.87Z"/><g class="cls-2"><path class="cls-3" d="M21.83,387.28a3.78,3.78,0,0,1-1.39-2.45,2.85,2.85,0,0,1,1.07-2.32,2.91,2.91,0,0,1,2.42-.84A4.86,4.86,0,0,1,26.57,383a6.83,6.83,0,0,0-.73,1.6,1.52,1.52,0,0,0,.48,1.69,1.49,1.49,0,0,0,.88.39,3.81,3.81,0,0,0,1.39-.13l.75-.17a8.5,8.5,0,0,1,1.67-.35,2.76,2.76,0,0,1,2.13.76,2.51,2.51,0,0,1,1,2.07,3.94,3.94,0,0,1-1.52,2.49,3.84,3.84,0,0,1-1,.72c-.34.13-.71.27-1.11.39l-.62-.57a6,6,0,0,0,1.17-.31,4.59,4.59,0,0,0,1.07-.73A3,3,0,0,0,33.26,389a1.76,1.76,0,0,0-.65-1.55,2.6,2.6,0,0,0-1.26-.63,7.32,7.32,0,0,0-2.11.31l-.88.21a3.8,3.8,0,0,1-1.59.07,2.5,2.5,0,0,1-1.2-.63,2,2,0,0,1-.66-1.74,4.1,4.1,0,0,1,.7-1.79,4.32,4.32,0,0,0-2-.95,2.21,2.21,0,0,0-1.65.63,2,2,0,0,0-.7,1.75,3.57,3.57,0,0,0,1.23,2l7.39,6.85-.6.56Z"/></g><path class="cls-7" d="M61.22,388.45l6,5.57-.51.47-6-5.57Zm5.62-3.94,4.64,4.3-.51.47L66.33,385Zm3.61-4.61,6,5.56-.5.48-6-5.57Z"/><path class="cls-5" d="M145.37,381a5.72,5.72,0,0,0-3.3.93,3.36,3.36,0,0,0-1.36,3v10h-1.53V384.68a4.19,4.19,0,0,1,2-3.85,7.93,7.93,0,0,1,8.45,0,4.19,4.19,0,0,1,2,3.85v10.23H150v-10a3.37,3.37,0,0,0-1.35-3A5.62,5.62,0,0,0,145.37,381Z"/><path class="cls-6" d="M101.83,396v-.67H103a2.07,2.07,0,0,0,1.44-.45,2.3,2.3,0,0,0,.61-1.76v-.85h-2.79v-.66h2.79v-9.09a4.38,4.38,0,0,1,.63-2.71,2.68,2.68,0,0,1,2.12-.76h.64v.67H108a2.45,2.45,0,0,0-1.57.43c-.35.28-.52,1.08-.52,2.37v9.09h1.62v.66h-1.62v.67a3,3,0,0,1-.79,2.32A2.93,2.93,0,0,1,103,396Z"/><path class="cls-7" d="M3.07,363.36l6,5.57-.5.47-6-5.57Zm5.62-3.94,4.64,4.3-.51.47-4.64-4.3Zm3.61-4.61,6,5.56-.51.48-6-5.57Z"/><g class="cls-2"><path class="cls-3" d="M282.5,203.69a4.2,4.2,0,0,1,2.65-1.28,3.3,3.3,0,0,1,2.5,1,2.45,2.45,0,0,1,.9,2.24,4.23,4.23,0,0,1-1.45,2.45,7.81,7.81,0,0,0-1.72-.67,1.83,1.83,0,0,0-1.84.44,1.29,1.29,0,0,0-.41.82,3.12,3.12,0,0,0,.13,1.29l.19.69a6.13,6.13,0,0,1,.38,1.55,2.35,2.35,0,0,1-.82,2,2.92,2.92,0,0,1-2.24.94,4.45,4.45,0,0,1-2.68-1.41,3.84,3.84,0,0,1-.78-.92c-.14-.32-.29-.66-.42-1l.61-.57a5.92,5.92,0,0,0,.34,1.09,4.2,4.2,0,0,0,.79,1,3.35,3.35,0,0,0,2,1,2.08,2.08,0,0,0,1.67-.61,2.36,2.36,0,0,0,.68-1.17,6.06,6.06,0,0,0-.34-1.95l-.22-.82a2.92,2.92,0,0,1-.08-1.48,2.14,2.14,0,0,1,.68-1.1,2.3,2.3,0,0,1,1.88-.62,5,5,0,0,1,1.93.65,3.88,3.88,0,0,0,1-1.88,1.91,1.91,0,0,0-.69-1.53,2.26,2.26,0,0,0-1.88-.64,3.92,3.92,0,0,0-2.21,1.13l-7.39,6.85-.61-.56Z"/></g><path class="cls-4" d="M241.89,217l-6-12.47.86-.8,13.46,5.58ZM237,204.69l5.32,10.9,6.46-6Z"/><path class="cls-5" d="M299.81,241.87a5.72,5.72,0,0,0,3.3-.93,3.37,3.37,0,0,0,1.36-3v-10H306v10.23a4.19,4.19,0,0,1-2,3.85,8,8,0,0,1-8.44,0,4.19,4.19,0,0,1-2-3.85V227.92h1.53v10a3.38,3.38,0,0,0,1.35,3A5.62,5.62,0,0,0,299.81,241.87Z"/><g class="cls-2"><path class="cls-6" d="M268.05,231.37l-.51.47-.85-.79a2,2,0,0,0-1.36-.62,2.69,2.69,0,0,0-1.78.85l-.64.59,2,1.83-.51.47-2-1.82-6.93,6.42a5,5,0,0,1-2.52,1.5,2.65,2.65,0,0,1-2.07-.85l-.46-.42.51-.47.31.29a2.4,2.4,0,0,0,1.44.72c.46,0,1.19-.42,2.18-1.33l6.93-6.43-1.14-1.06.5-.47,1.15,1.06.51-.47a3.55,3.55,0,0,1,2.33-1.13,3,3,0,0,1,2.07.88Z"/></g><g class="cls-2"><path class="cls-3" d="M178.59,230.41a3.64,3.64,0,0,1,.89-2.64,3.28,3.28,0,0,1,2.52-.94,2.86,2.86,0,0,1,2.35,1,4.13,4.13,0,0,1,.84,2.68,8.17,8.17,0,0,0-1.73.65,1.61,1.61,0,0,0-1,1.52,1.28,1.28,0,0,0,.33.85,3.5,3.5,0,0,0,1.08.82l.65.37a7.21,7.21,0,0,1,1.46.85,2.33,2.33,0,0,1,.92,1.93,2.51,2.51,0,0,1-.86,2.13,4.55,4.55,0,0,1-3,.76,4.22,4.22,0,0,1-1.26-.14c-.34-.13-.71-.28-1.09-.46V239a5.94,5.94,0,0,0,1.06.54,5,5,0,0,0,1.31.18,3.53,3.53,0,0,0,2.22-.57,1.79,1.79,0,0,0,.72-1.52,2.22,2.22,0,0,0-.42-1.27,6.36,6.36,0,0,0-1.72-1.17l-.79-.42a3.52,3.52,0,0,1-1.18-1,2.08,2.08,0,0,1-.36-1.23,2,2,0,0,1,.86-1.67,4.94,4.94,0,0,1,1.86-.8,3.66,3.66,0,0,0-.71-2,2.17,2.17,0,0,0-1.65-.63,2.22,2.22,0,0,0-1.82.78,3.3,3.3,0,0,0-.7,2.24v9.69h-.85Z"/></g><g class="cls-2"><path class="cls-5" d="M202.7,202.44a5.72,5.72,0,0,0-3.3.93,3.36,3.36,0,0,0-1.36,3v10h-1.53V206.16a4.18,4.18,0,0,1,2-3.85,7.91,7.91,0,0,1,8.44,0,4.18,4.18,0,0,1,2,3.85v10.22h-1.53v-10a3.37,3.37,0,0,0-1.35-3A5.62,5.62,0,0,0,202.7,202.44Z"/></g><path class="cls-6" d="M160.35,217.48v-.67h1.2a2.09,2.09,0,0,0,1.44-.45,2.3,2.3,0,0,0,.61-1.76v-.85h-2.79v-.67h2.79V204a4.36,4.36,0,0,1,.63-2.71,2.67,2.67,0,0,1,2.12-.76H167v.67h-.44a2.45,2.45,0,0,0-1.57.43c-.35.28-.53,1.07-.53,2.37v9.08h1.63v.67h-1.63v.67a3,3,0,0,1-.78,2.32,3,3,0,0,1-2.14.74Z"/><path class="cls-7" d="M217.94,227.37h8.49V228h-8.49Zm0,12.1h8.49v.66h-8.49Zm1-6.48h6.56v.67H218.9Z"/><path class="cls-3" d="M238.22,256.15a3.72,3.72,0,0,1,.89-2.65,3.32,3.32,0,0,1,2.52-.94,2.87,2.87,0,0,1,2.36,1,4.16,4.16,0,0,1,.83,2.68,8.17,8.17,0,0,0-1.73.65,1.59,1.59,0,0,0-1,1.51,1.31,1.31,0,0,0,.33.86,3.77,3.77,0,0,0,1.08.82l.66.37a7.9,7.9,0,0,1,1.46.84,2.41,2.41,0,0,1,.92,1.94,2.5,2.5,0,0,1-.87,2.12,4.54,4.54,0,0,1-3,.77,3.9,3.9,0,0,1-1.26-.15q-.51-.2-1.08-.45v-.81a6.75,6.75,0,0,0,1.06.55,5,5,0,0,0,1.31.18,3.5,3.5,0,0,0,2.21-.57,1.75,1.75,0,0,0,.72-1.52,2.35,2.35,0,0,0-.41-1.28,7,7,0,0,0-1.73-1.16l-.78-.43a3.3,3.3,0,0,1-1.18-1,2.12,2.12,0,0,1-.36-1.23,2,2,0,0,1,.85-1.67,4.77,4.77,0,0,1,1.87-.8,3.79,3.79,0,0,0-.71-2,2.17,2.17,0,0,0-1.65-.64,2.24,2.24,0,0,0-1.83.78,3.4,3.4,0,0,0-.69,2.25v9.69h-.86Z"/><g class="cls-2"><path class="cls-5" d="M281.81,303.19a5.72,5.72,0,0,0-3.3.93,3.37,3.37,0,0,0-1.36,3v10h-1.53V306.91a4.19,4.19,0,0,1,2-3.85,8,8,0,0,1,8.44,0,4.19,4.19,0,0,1,2,3.85v10.23h-1.53v-10a3.39,3.39,0,0,0-1.35-3A5.69,5.69,0,0,0,281.81,303.19Z"/></g><path class="cls-6" d="M238.8,318.23v-.66H240a2,2,0,0,0,1.44-.46,2.29,2.29,0,0,0,.61-1.76v-.84h-2.79v-.67h2.79v-9.08a4.34,4.34,0,0,1,.63-2.71,2.63,2.63,0,0,1,2.12-.76h.64V302H245a2.51,2.51,0,0,0-1.57.43c-.35.29-.53,1.08-.53,2.38v9.08h1.63v.67H242.9v.66a3.06,3.06,0,0,1-.78,2.33,3,3,0,0,1-2.14.73Z"/><g class="cls-2"><path class="cls-7" d="M273.13,258l6-5.57.51.47-6,5.57Zm5,3.34,4.64-4.3.51.47-4.64,4.3Zm4.25,5.21,6-5.57.51.47-6,5.57Z"/></g><g class="cls-2"><path class="cls-4" d="M208.59,255.43l-5.26,12.77h-1.22l-5.25-12.77Zm-5.89,11.9,4.56-11.2h-9.14Z"/></g><path class="cls-5" d="M169.46,255.75a5.56,5.56,0,0,0-3-1.51,4,4,0,0,0-3.25,1.23l-7.64,7.08-1.09-1,7.81-7.23a4.84,4.84,0,0,1,4.33-1.43,7.71,7.71,0,0,1,3.91,1.91,6.78,6.78,0,0,1,2.06,3.62,4.12,4.12,0,0,1-1.55,4l-7.8,7.23-1.08-1,7.64-7.08a3.36,3.36,0,0,0,1.33-3A4.83,4.83,0,0,0,169.46,255.75Z"/><g class="cls-2"><path class="cls-6" d="M178.6,277.94l.51.47-.85.79a1.77,1.77,0,0,0-.67,1.26,2.32,2.32,0,0,0,.91,1.65l.65.59,2-1.82.51.47-2,1.83,6.93,6.42a4.48,4.48,0,0,1,1.61,2.33,2.24,2.24,0,0,1-.91,1.92l-.46.43-.51-.48.32-.29a2.11,2.11,0,0,0,.78-1.33c0-.43-.45-1.1-1.44-2l-6.93-6.42-1.15,1.06-.51-.47,1.15-1.06-.51-.47a3.15,3.15,0,0,1-1.22-2.16,2.58,2.58,0,0,1,.95-1.93Z"/></g><path class="cls-3" d="M169.54,310.81a3.74,3.74,0,0,1,1.38,2.45,2.82,2.82,0,0,1-1.06,2.32,2.93,2.93,0,0,1-2.42.84,4.85,4.85,0,0,1-2.65-1.35,6.37,6.37,0,0,0,.73-1.59,1.61,1.61,0,0,0-1.36-2.09,4,4,0,0,0-1.39.13l-.74.17a8.08,8.08,0,0,1-1.68.35,2.76,2.76,0,0,1-2.13-.76,2.56,2.56,0,0,1-1-2.07,3.94,3.94,0,0,1,1.52-2.49,4,4,0,0,1,1-.72c.34-.13.71-.26,1.12-.39l.61.57a6,6,0,0,0-1.17.31,4.52,4.52,0,0,0-1.06.73,3,3,0,0,0-1.13,1.86,1.75,1.75,0,0,0,.65,1.54,2.63,2.63,0,0,0,1.27.63,7.35,7.35,0,0,0,2.11-.31l.88-.21a3.79,3.79,0,0,1,1.59-.07,2.51,2.51,0,0,1,1.19.63,2,2,0,0,1,.67,1.75,4.14,4.14,0,0,1-.71,1.78,4.32,4.32,0,0,0,2,.95,2.13,2.13,0,0,0,1.65-.63,1.94,1.94,0,0,0,.7-1.75,3.46,3.46,0,0,0-1.23-2l-7.39-6.85.61-.56Z"/><g class="cls-2"><path class="cls-4" d="M265.46,280.58l-5.26,12.77H259l-5.25-12.77Zm-5.89,11.89,4.56-11.19H255Z"/></g><path class="cls-5" d="M227.35,280.9a5.59,5.59,0,0,0-3-1.51,3.91,3.91,0,0,0-3.25,1.23l-7.65,7.08-1.08-1,7.8-7.23a4.85,4.85,0,0,1,4.33-1.43,7.56,7.56,0,0,1,3.91,1.91,6.71,6.71,0,0,1,2.06,3.62,4.1,4.1,0,0,1-1.55,4l-7.8,7.23-1.08-1,7.65-7.09a3.35,3.35,0,0,0,1.32-3A4.81,4.81,0,0,0,227.35,280.9Z"/><g class="cls-2"><path class="cls-7" d="M196.31,310.68l6,5.57-.51.47-6-5.56Zm5.62-3.94,4.64,4.3-.51.47-4.64-4.3Zm3.61-4.61,6,5.57-.51.47-6-5.57Z"/></g><path class="cls-3" d="M295.94,281.29a3.64,3.64,0,0,1,.9-2.64,3.31,3.31,0,0,1,2.51-.94,2.88,2.88,0,0,1,2.36,1,4.28,4.28,0,0,1,.84,2.69,8.23,8.23,0,0,0-1.74.65,1.59,1.59,0,0,0-1,1.51,1.31,1.31,0,0,0,.33.86,3.77,3.77,0,0,0,1.08.82l.66.37a7.59,7.59,0,0,1,1.46.84,2.37,2.37,0,0,1,.92,1.93,2.48,2.48,0,0,1-.87,2.13,4.55,4.55,0,0,1-3,.76,3.84,3.84,0,0,1-1.25-.14c-.35-.13-.71-.28-1.09-.45v-.81a7.24,7.24,0,0,0,1.06.55,5,5,0,0,0,1.31.18,3.5,3.5,0,0,0,2.21-.57,1.77,1.77,0,0,0,.72-1.53,2.24,2.24,0,0,0-.41-1.27,6.82,6.82,0,0,0-1.73-1.16l-.78-.43a3.39,3.39,0,0,1-1.18-1,2.12,2.12,0,0,1-.36-1.23,2,2,0,0,1,.86-1.67,4.73,4.73,0,0,1,1.86-.8,3.79,3.79,0,0,0-.71-2,2.17,2.17,0,0,0-1.65-.64,2.24,2.24,0,0,0-1.83.78,3.4,3.4,0,0,0-.69,2.25V291h-.86Z"/><g class="cls-2"><path class="cls-3" d="M260.25,332.51a4.32,4.32,0,0,1,2.65-1.28,3.29,3.29,0,0,1,2.5,1,2.46,2.46,0,0,1,.91,2.24,4.28,4.28,0,0,1-1.46,2.45,8.1,8.1,0,0,0-1.72-.68,1.83,1.83,0,0,0-1.83.44,1.31,1.31,0,0,0-.42.83,3.09,3.09,0,0,0,.14,1.28l.18.69a6.76,6.76,0,0,1,.39,1.56,2.37,2.37,0,0,1-.83,2,2.93,2.93,0,0,1-2.23.94,4.47,4.47,0,0,1-2.69-1.41,3.53,3.53,0,0,1-.77-.93c-.15-.31-.29-.66-.43-1l.62-.57a5.48,5.48,0,0,0,.33,1.08,4.3,4.3,0,0,0,.79,1,3.41,3.41,0,0,0,2,1,2,2,0,0,0,1.67-.6,2.33,2.33,0,0,0,.68-1.17,5.73,5.73,0,0,0-.33-2l-.23-.81a3,3,0,0,1-.08-1.48,2.23,2.23,0,0,1,.69-1.1,2.28,2.28,0,0,1,1.87-.62,4.9,4.9,0,0,1,1.94.65,3.8,3.8,0,0,0,1-1.88,1.87,1.87,0,0,0-.68-1.53A2.29,2.29,0,0,0,263,332a4,4,0,0,0-2.21,1.14L253.44,340l-.6-.56Z"/></g><path class="cls-7" d="M303.93,333.67h-8.5V333h8.5Zm0,12.1h-8.5v-.67h8.5Zm-1-5.63H296.4v-.67H303Z"/><path class="cls-4" d="M221.86,345.79l-6-12.48.86-.8,13.45,5.59ZM217,333.52l5.31,10.9,6.47-6Z"/><g class="cls-2"><path class="cls-5" d="M182.46,331.26a5.68,5.68,0,0,0-3.3.93,3.37,3.37,0,0,0-1.36,3v10h-1.53V335a4.2,4.2,0,0,1,2-3.85,8,8,0,0,1,8.45,0,4.2,4.2,0,0,1,2,3.85v10.23h-1.53v-10a3.38,3.38,0,0,0-1.34-3A5.71,5.71,0,0,0,182.46,331.26Z"/></g><g class="cls-2"><path class="cls-6" d="M199.41,370.91v-.67h1.2a2.07,2.07,0,0,0,1.44-.45,2.26,2.26,0,0,0,.61-1.76v-.85h-2.79v-.66h2.79v-9.08a4.34,4.34,0,0,1,.63-2.71,2.65,2.65,0,0,1,2.12-.77h.64v.67h-.44a2.45,2.45,0,0,0-1.57.43c-.35.28-.52,1.08-.52,2.38v9.08h1.62v.66h-1.62v.67a3.06,3.06,0,0,1-.79,2.33,3,3,0,0,1-2.14.73Z"/></g><g class="cls-2"><path class="cls-4" d="M281.61,370.39l-6-12.47.86-.8,13.46,5.59Zm-4.91-12.27L282,369l6.46-6Z"/></g><path class="cls-5" d="M242.09,355.87a5.72,5.72,0,0,0-3.3.93,3.37,3.37,0,0,0-1.36,3v10H235.9V359.59a4.17,4.17,0,0,1,2-3.85,8,8,0,0,1,8.44,0,4.19,4.19,0,0,1,2,3.85v10.23h-1.53v-10a3.38,3.38,0,0,0-1.35-3A5.62,5.62,0,0,0,242.09,355.87Z"/><g class="cls-2"><path class="cls-3" d="M176.27,387.28a3.72,3.72,0,0,1-1.38-2.45,2.83,2.83,0,0,1,1.06-2.32,2.93,2.93,0,0,1,2.42-.84A4.85,4.85,0,0,1,181,383a6.45,6.45,0,0,0-.73,1.6,1.6,1.6,0,0,0,1.36,2.08,3.82,3.82,0,0,0,1.39-.13l.74-.17a8.8,8.8,0,0,1,1.68-.35,2.76,2.76,0,0,1,2.13.76,2.56,2.56,0,0,1,1,2.07,3.94,3.94,0,0,1-1.52,2.49,4,4,0,0,1-1,.72c-.34.13-.71.27-1.12.39l-.61-.57a6,6,0,0,0,1.17-.31,4.24,4.24,0,0,0,1.06-.73,3,3,0,0,0,1.13-1.85,1.76,1.76,0,0,0-.65-1.55,2.63,2.63,0,0,0-1.27-.63,7.35,7.35,0,0,0-2.11.31l-.88.21a3.63,3.63,0,0,1-1.59.07,2.51,2.51,0,0,1-1.19-.63,2,2,0,0,1-.67-1.74,4.13,4.13,0,0,1,.71-1.79,4.32,4.32,0,0,0-2-.95,2.21,2.21,0,0,0-1.65.63,1.94,1.94,0,0,0-.7,1.75,3.46,3.46,0,0,0,1.23,2l7.39,6.85-.61.57Z"/></g><path class="cls-7" d="M215.66,388.45l6,5.57-.51.47-6-5.57Zm5.62-3.94,4.64,4.3-.51.47-4.64-4.3Zm3.61-4.61,6,5.56-.51.48-6-5.57Z"/><path class="cls-5" d="M299.81,381a5.72,5.72,0,0,0-3.3.93,3.36,3.36,0,0,0-1.36,3v10h-1.53V384.68a4.19,4.19,0,0,1,2-3.85,7.91,7.91,0,0,1,8.44,0,4.19,4.19,0,0,1,2,3.85v10.23h-1.53v-10a3.37,3.37,0,0,0-1.35-3A5.62,5.62,0,0,0,299.81,381Z"/><path class="cls-6" d="M256.28,396v-.67h1.19a2.07,2.07,0,0,0,1.44-.45,2.26,2.26,0,0,0,.61-1.76v-.85h-2.78v-.66h2.78v-9.09a4.37,4.37,0,0,1,.64-2.71,2.64,2.64,0,0,1,2.11-.76h.65v.67h-.44a2.43,2.43,0,0,0-1.57.43c-.35.28-.53,1.08-.53,2.37v9.09H262v.66h-1.62v.67a3,3,0,0,1-.78,2.32,3,3,0,0,1-2.14.74Z"/><path class="cls-7" d="M157.51,363.36l6,5.57-.51.47-6-5.57Zm5.62-3.94,4.64,4.3-.51.47-4.63-4.3Zm3.61-4.61,6,5.56-.51.48-6-5.57Z"/></svg>