<svg xmlns="http://www.w3.org/2000/svg" xmlns:xlink="http://www.w3.org/1999/xlink" viewBox="0 0 617.04 270.14"><defs><style>.cls-1{opacity:0.33;}.cls-2{fill:#fff;}.cls-3{fill:url(#linear-gradient);}.cls-4{fill:none;stroke:#000;stroke-miterlimit:10;}.cls-5{fill:#555758;}.cls-6{fill:#a31957;}.cls-7{fill:#231f20;}.cls-8{fill:#136534;}</style><linearGradient id="linear-gradient" x1="5.04" y1="13.3" x2="617.04" y2="13.3" gradientTransform="translate(0 120)" gradientUnits="userSpaceOnUse"><stop offset="0" stop-color="#e6e6e6"/><stop offset="0.01" stop-color="#bababa"/><stop offset="0.02" stop-color="#8f8f8f"/><stop offset="0.03" stop-color="#686868"/><stop offset="0.04" stop-color="#484848"/><stop offset="0.05" stop-color="#2e2e2e"/><stop offset="0.06" stop-color="#191919"/><stop offset="0.08" stop-color="#0b0b0b"/><stop offset="0.1" stop-color="#030303"/><stop offset="0.13"/><stop offset="0.4" stop-color="gray"/><stop offset="0.6" stop-color="#333"/><stop offset="0.87"/><stop offset="0.9" stop-color="#030303"/><stop offset="0.92" stop-color="#0b0b0b"/><stop offset="0.94" stop-color="#191919"/><stop offset="0.95" stop-color="#2e2e2e"/><stop offset="0.96" stop-color="#484848"/><stop offset="0.97" stop-color="#686868"/><stop offset="0.98" stop-color="#8f8f8f"/><stop offset="0.99" stop-color="#bababa"/><stop offset="1" stop-color="#e6e6e6"/></linearGradient></defs><title>aAsset 1</title><g id="Layer_2" data-name="Layer 2"><g id="Grant_Cards" data-name="Grant Cards"><g id="Grant_Card_Backgrounds" data-name="Grant Card Backgrounds"><g class="cls-1"><path d="M24,6.54H588a24,24,0,0,1,24,24.1V246a24.09,24.09,0,0,1-24,24.1H24A24,24,0,0,1,0,246V30.64A24.09,24.09,0,0,1,24,6.54Z"/></g><path class="cls-2" d="M29,1.5H593a24,24,0,0,1,24,24.1V241a24.09,24.09,0,0,1-24,24.1H29A24,24,0,0,1,5,241V25.6A24.09,24.09,0,0,1,29,1.5Z"/><path class="cls-3" d="M593,11.5a14.06,14.06,0,0,1,14,14.1V241a14.19,14.19,0,0,1-14,14.1H29A14.06,14.06,0,0,1,15,241V25.6A14.19,14.19,0,0,1,29,11.5H593m0-10H29A24.09,24.09,0,0,0,5,25.6H5V241a24.09,24.09,0,0,0,24,24.1H593A24,24,0,0,0,617,241V25.6A24,24,0,0,0,593,1.5Z"/><path d="M49.44,82.6h523.2A42.42,42.42,0,0,1,615,125v16.6a42.42,42.42,0,0,1-42.4,42.4H49.44A42.42,42.42,0,0,1,7,141.6V125A42.42,42.42,0,0,1,49.44,82.6Z"/><path class="cls-3" d="M593,11.5a14.06,14.06,0,0,1,14,14.1V241a14.19,14.19,0,0,1-14,14.1H29A14.06,14.06,0,0,1,15,241V25.6A14.19,14.19,0,0,1,29,11.5H593m0-10H29A24.09,24.09,0,0,0,5,25.6H5V241a24.09,24.09,0,0,0,24,24.1H593A24,24,0,0,0,617,241V25.6A24,24,0,0,0,593,1.5Z"/><path class="cls-4" d="M592,.5H28A24.09,24.09,0,0,0,4,24.6H4V240a24.09,24.09,0,0,0,24,24.1H592A24,24,0,0,0,616,240V24.6A24,24,0,0,0,592,.5Z"/></g><g id="_05_ca_01" data-name=" 05 ca 01"><path d="M98.24,237.5l-3.1-4.9h-2.6v4.9h-2.8V223.1h6c3.7,0,5.3,2,5.3,4.8a4.15,4.15,0,0,1-3,4.4h0l3.6,5.2Zm-2.4-7.5c1.8,0,2.4-.9,2.4-2.2s-.6-2.1-2.4-2.1h-3.3V230Zm86.7-207.3h15.7v3.7h-12v8a12.09,12.09,0,0,1,1.8-.5,11.14,11.14,0,0,1,1.7-.2,10.24,10.24,0,0,1,7.8,3,11.65,11.65,0,0,1,2.9,8.2c0,3.5-1,6.3-3,8.2s-4.8,2.9-8.4,3a24.33,24.33,0,0,1-3.8-.3,26.19,26.19,0,0,1-4-1.1V50.2a14,14,0,0,0,7.7,2.1,6.85,6.85,0,0,0,7.4-6.3V44.9a6.85,6.85,0,0,0-6.3-7.4h-1.1a11.24,11.24,0,0,0-3.2.4,17.55,17.55,0,0,0-3.2,1.2V22.7Zm32.7,31v6.4h-1.8V43.5h1.8v1.8a4.28,4.28,0,0,1,1.4-1.6,3.64,3.64,0,0,1,2.1-.5,3.73,3.73,0,0,1,3.2,1.7,7.29,7.29,0,0,1,1.2,4.5,8.35,8.35,0,0,1-1.2,4.6,3.73,3.73,0,0,1-3.2,1.7,5.37,5.37,0,0,1-2.1-.5A3.39,3.39,0,0,1,215.24,53.7Zm6-4.2a5.73,5.73,0,0,0-.8-3.4,2.61,2.61,0,0,0-3.6-.8,3,3,0,0,0-.8.8,5.73,5.73,0,0,0-.8,3.4,5.73,5.73,0,0,0,.8,3.4,2.61,2.61,0,0,0,3.6.8,3,3,0,0,0,.8-.8A5.73,5.73,0,0,0,221.24,49.5Zm13.8-.9v6.9h-1.8V53.7a3.86,3.86,0,0,1-1.5,1.6,4.42,4.42,0,0,1-2.2.5,3.19,3.19,0,0,1-2.6-1,4.19,4.19,0,0,1-1-2.8,3.93,3.93,0,0,1,1.2-3.1,5.37,5.37,0,0,1,3.6-1h2.5v-.2a2.65,2.65,0,0,0-.8-2.1,3.57,3.57,0,0,0-2.3-.8,5.66,5.66,0,0,0-1.8.3,8.65,8.65,0,0,0-1.7.7V43.9a6,6,0,0,1,1.9-.6,11,11,0,0,1,1.8-.2,4.52,4.52,0,0,1,3.5,1.3A6.61,6.61,0,0,1,235,48.6Zm-3.6.9a6.15,6.15,0,0,0-3,.5,1.92,1.92,0,0,0-.8,1.9,2.72,2.72,0,0,0,.6,1.7,2.24,2.24,0,0,0,1.7.6,3,3,0,0,0,2.4-1.2,5.61,5.61,0,0,0,.9-3.1v-.4Zm9.5,4.2v6.4h-1.8V43.5h1.8v1.8a4.28,4.28,0,0,1,1.4-1.6,3.64,3.64,0,0,1,2.1-.5,3.73,3.73,0,0,1,3.2,1.7,7.29,7.29,0,0,1,1.2,4.5,8.35,8.35,0,0,1-1.2,4.6,3.51,3.51,0,0,1-3.2,1.7,5.37,5.37,0,0,1-2.1-.5A3.39,3.39,0,0,1,240.94,53.7Zm6-4.2a5.73,5.73,0,0,0-.8-3.4,2.73,2.73,0,0,0-3.6-.9,3.82,3.82,0,0,0-.9.9,5.73,5.73,0,0,0-.8,3.4,5.73,5.73,0,0,0,.8,3.4,2.73,2.73,0,0,0,3.6.9,3.82,3.82,0,0,0,.9-.9A5.73,5.73,0,0,0,246.94,49.5Zm14.6-.5v1h-8.2a5.1,5.1,0,0,0,1.1,3.1,3.93,3.93,0,0,0,2.8,1.1,6.93,6.93,0,0,0,2-.3,10.84,10.84,0,0,0,1.9-.8V55a11.76,11.76,0,0,1-2,.7,13.55,13.55,0,0,1-2,.2,5,5,0,0,1-4.1-1.7,6.31,6.31,0,0,1-1.5-4.5,7.25,7.25,0,0,1,1.4-4.7,4.48,4.48,0,0,1,3.9-1.7,3.87,3.87,0,0,1,3.4,1.6A6.48,6.48,0,0,1,261.54,49Zm-1.8-.6a4.2,4.2,0,0,0-.8-2.6,2.81,2.81,0,0,0-2.1-1,3.41,3.41,0,0,0-2.4.9,4.21,4.21,0,0,0-1,2.6Zm11.4-3.1a4.88,4.88,0,0,0-.7-.3,2.2,2.2,0,0,0-.8-.1,2.59,2.59,0,0,0-2.3,1.1,4.83,4.83,0,0,0-.8,3.1v6.4h-1.8v-12h1.8v1.9a3.91,3.91,0,0,1,1.4-1.7,3.42,3.42,0,0,1,2.2-.5h.4a.9.9,0,0,1,.5.1Zm9.3-1.5v1.9a4.42,4.42,0,0,0-1.6-.6,8.81,8.81,0,0,0-1.7-.2,3.51,3.51,0,0,0-2,.5,1.75,1.75,0,0,0-.7,1.4,1.61,1.61,0,0,0,.5,1.1,4.38,4.38,0,0,0,1.9.7l.6.2a5.67,5.67,0,0,1,2.7,1.3,3.24,3.24,0,0,1,.8,2.3,3.57,3.57,0,0,1-1.2,2.7,4.81,4.81,0,0,1-3.3,1,11,11,0,0,1-1.8-.2,7.62,7.62,0,0,1-2-.6v-2a7,7,0,0,0,2,.8,5.82,5.82,0,0,0,1.9.3,3,3,0,0,0,1.9-.5,1.65,1.65,0,0,0,.3-2.4c0-.1-.1-.1-.1-.2a5.39,5.39,0,0,0-2.1-.8l-.6-.2a5.45,5.45,0,0,1-2.4-1.2,2.93,2.93,0,0,1-.7-2.2,2.88,2.88,0,0,1,1.1-2.6,4.37,4.37,0,0,1,3.1-.9,6.48,6.48,0,0,1,1.9.2A2.83,2.83,0,0,1,280.44,43.8ZM33,46.5l-3.1-4.9h-2.6v4.9h-2.9V32.1h6c3.7,0,5.3,2,5.3,4.8a4.34,4.34,0,0,1-3,4.5h0l3.6,5.2H33ZM30.64,39c1.8,0,2.4-.9,2.4-2.2s-.6-2.1-2.4-2.1h-3.3V39Zm10.7,1.5v3.4h7.8v2.6H38.54V32.1h10.6v2.6h-7.8v3.2h6.5v2.6ZM67,32.1h2.8v9.3c0,3.7-2.2,5.4-5,5.4a4.37,4.37,0,0,1-4.1-2.2h0a4.46,4.46,0,0,1-4.1,2.2c-2.8,0-5-1.7-5-5.4V32.1h2.8v9.3c0,2,1.1,2.8,2.5,2.8s2.4-.8,2.4-2.8V32.1H62v9.3c0,2,1,2.8,2.4,2.8s2.5-.8,2.5-2.8V32.1Zm15.1,14.4V42.2h-7v4.3h-2.8V38.1c0-3.8,2.2-6.3,6.3-6.3s6.3,2.4,6.3,6.3v8.4Zm0-8.4c0-2.3-1.1-3.6-3.5-3.6s-3.5,1.3-3.5,3.6v1.6h7Zm14.2,8.4-3-4.9h-2.6v4.9h-2.9V32.1h6c3.7,0,5.3,2,5.3,4.8a4.34,4.34,0,0,1-3,4.5h0l3.6,5.2h-3.4ZM93.94,39c1.8,0,2.4-.9,2.4-2.2s-.6-2.1-2.4-2.1h-3.3V39Zm8,7.5V32.1H107c5,0,7.7,2.9,7.7,7.2s-2.7,7.2-7.7,7.2Zm5.1-2.6c3.3,0,4.8-1.8,4.8-4.6s-1.5-4.6-4.8-4.6h-2.3v9.2Zm17.2-7.6c0-1.1-.8-1.9-2.4-1.9s-2.4.8-2.4,1.9c0,3,7.7.2,7.7,6,0,2.8-2.1,4.5-5.3,4.5s-5.3-1.7-5.3-4.5h2.8c0,1.2.9,1.9,2.6,1.9s2.6-.8,2.6-1.9c0-3-7.7-.2-7.7-6,0-2.7,2-4.5,5.1-4.5s5,1.8,5.1,4.4Zm5,1.4a1.69,1.69,0,0,1,1.7-1.7,1.75,1.75,0,0,1,1.7,1.7,1.69,1.69,0,0,1-1.7,1.7,1.83,1.83,0,0,1-1.7-1.7Zm0,7.4a1.69,1.69,0,0,1,1.7-1.7,1.75,1.75,0,0,1,1.7,1.7,1.69,1.69,0,0,1-1.7,1.7,1.83,1.83,0,0,1-1.7-1.7ZM33,217.5l-3.1-4.9h-2.6v4.9h-2.9V203.1h6c3.7,0,5.3,2,5.3,4.8a4.15,4.15,0,0,1-3,4.4h0l3.6,5.2Zm-2.4-7.5c1.8,0,2.4-.9,2.4-2.2s-.6-2.1-2.4-2.1h-3.3V210Zm10.7,1.5v3.4h7.8v2.6H38.54V203.1h10.6v2.6h-7.8v3.2h6.5v2.6Zm17.6-4.2c0-1.1-.8-1.9-2.4-1.9s-2.4.9-2.4,1.9c0,3,7.7.2,7.7,6,0,2.8-2.1,4.5-5.3,4.5s-5.3-1.7-5.3-4.4H54c0,1.1.9,1.9,2.6,1.9s2.6-.8,2.6-1.9c0-3-7.7-.2-7.7-6,0-2.7,2-4.5,5.1-4.5s5,1.8,5.1,4.4Zm12.3,10.5a7.5,7.5,0,1,1,7.5-7.5A7.55,7.55,0,0,1,71.24,217.8Zm4.8-7.5a4.8,4.8,0,0,0-9.6.2,4.78,4.78,0,0,0,4.8,4.7,4.61,4.61,0,0,0,4.8-4.5v-.4Zm14.4-7.2h2.8v8.7c0,3.7-2.2,6-6,6s-6.2-2.3-6.2-6v-8.7h2.8v8.7c0,2.1,1.1,3.4,3.3,3.4s3.3-1.3,3.3-3.4Zm14.1,14.4-3.1-4.9h-2.6v4.9H96V203.1h6c3.7,0,5.3,2,5.3,4.8a4.15,4.15,0,0,1-3,4.4h0l3.5,5.1Zm-2.4-7.5c1.8,0,2.4-.9,2.4-2.2s-.6-2.1-2.4-2.1h-3.3V210Zm19.3-1.7a4.54,4.54,0,0,0-4.4-2.9,4.9,4.9,0,1,0,4.5,6.9h3a7.47,7.47,0,1,1-5.2-9.2,7.56,7.56,0,0,1,5.2,5.2Zm8.2,3.2v3.4h7.8v2.6h-10.6V203.1h10.6v2.6h-7.8v3.2h6.5v2.6Zm17.6-4.2c0-1.1-.8-1.9-2.4-1.9s-2.4.9-2.4,1.9c0,3,7.7.2,7.7,6,0,2.8-2.1,4.5-5.3,4.5s-5.3-1.7-5.4-4.4h2.8c0,1.1.9,1.9,2.6,1.9s2.6-.8,2.6-1.9c0-3-7.7-.2-7.7-6,0-2.7,2-4.5,5.1-4.5s5,1.8,5.1,4.4ZM33,237.5l-3.1-4.9h-2.6v4.9h-2.9V223.1h6c3.7,0,5.3,2,5.3,4.8a4.15,4.15,0,0,1-3,4.4h0l3.6,5.2Zm-2.4-7.5c1.8,0,2.4-.9,2.4-2.2s-.6-2.1-2.4-2.1h-3.3V230Zm10.7,1.5v3.4h7.8v2.6H38.54V223.1h10.6v2.6h-7.8v3.2h6.5v2.6ZM64,236l2.8,3.8h-3.3l-1.7-2.5a7.89,7.89,0,0,1-3,.5,7.5,7.5,0,1,1,7.7-7.6A7.94,7.94,0,0,1,64,236Zm-3.8-1h0l-2.3-3.1h3.3l1.2,1.8h0a5,5,0,0,0,1.2-3.4,4.8,4.8,0,0,0-9.6.2,4.78,4.78,0,0,0,4.8,4.7,7.84,7.84,0,0,0,1.4-.2ZM78,223.1h2.8v8.7c0,3.7-2.2,6-6,6s-6.1-2.3-6.1-6v-8.7h2.8v8.7c0,2.1,1.1,3.4,3.3,3.4s3.3-1.3,3.3-3.4Zm5.6,14.4V223.1h2.8v14.4Zm22.9-6v3.4h7.8v2.6h-10.6V223.1h10.6v2.6h-7.8v3.2H113v2.6Zm10.6,6V223.1h5.1c5,0,7.7,2.9,7.7,7.2s-2.6,7.2-7.7,7.2Zm5.1-2.6c3.3,0,4.8-1.8,4.8-4.6s-1.5-4.6-4.8-4.6h-2.3v9.2Z"/><path class="cls-2" d="M105.74,108.7a9.33,9.33,0,0,0-9.1-5.9c-5.8,0-9.8,4.2-9.8,10s4,10,9.8,10a9.47,9.47,0,0,0,9.1-5.9h6.1c-1.7,6.7-7.5,11.2-15.2,11.2-9.2,0-15.7-6.5-15.7-15.3s6.5-15.3,15.7-15.3c7.7,0,13.5,4.5,15.2,11.3Zm29.8,18.8v-8.8h-14.4v8.8h-5.6V110.3c0-7.9,4.5-12.8,12.8-12.8s12.9,4.9,12.9,12.8v17.2Zm0-17.2c0-4.7-2.3-7.4-7.2-7.4s-7.2,2.7-7.2,7.4v3.2h14.4Zm29.7,17.2V109.8c0-4.4-2.3-6.9-6.8-6.9s-6.8,2.6-6.8,6.9v17.7h-5.8V109.8c0-7.6,4.4-12.3,12.5-12.3s12.5,4.7,12.5,12.3v17.7Zm34.3-18.8a9.33,9.33,0,0,0-9.1-5.9c-5.9,0-9.8,4.2-9.8,10s4,10,9.8,10a9.47,9.47,0,0,0,9.1-5.9h6.1c-1.7,6.7-7.5,11.2-15.2,11.2-9.2,0-15.7-6.5-15.7-15.3s6.6-15.3,15.7-15.3c7.7,0,13.5,4.5,15.2,11.3Zm16.3,6.4v7.1h15.9v5.3H210V98.1h21.7v5.4h-15.9v6.6h13.3v5.1h-13.3Zm38.4,12.4-6.3-9.9h-5.3v9.9h-5.8V98.1h12.3c7.5,0,10.8,4.1,10.8,9.7,0,4.3-1.9,7.7-6.1,9.1v.1l7.2,10.5Zm-4.9-15.3c3.6,0,4.9-1.9,4.9-4.4s-1.2-4.4-4.9-4.4h-6.7v8.8ZM277,127.5V98.1h12c7.6,0,11.1,4.2,11.1,10s-3.4,10-11.1,10h-6.3v9.4Zm12.1-14.8c3.8,0,5.1-2,5.1-4.7s-1.3-4.6-5.1-4.6h-6.3v9.3Zm32.3,14.8-6.3-9.9h-5.3v9.9H304V98.1h12.3c7.5,0,10.8,4.1,10.8,9.7,0,4.3-1.9,7.7-6.1,9.1v.1l7.2,10.5Zm-4.9-15.3c3.6,0,4.9-1.9,4.9-4.4s-1.2-4.4-4.9-4.4h-6.7v8.8Zm21.5,2.9v7.1h15.9v5.3h-21.7V98.1h21.7v5.4H338v6.6h13.3v5.1H338Zm29.5,12.4-10.7-29.4h6.3l7.6,22.6h.1l7.6-22.6h6.1l-10.6,29.4Zm26.7-12.4v7.1h15.9v5.3h-21.7V98.1h21.7v5.4h-15.9v6.6h13.3v5.1h-13.3Zm39.6,12.4V109.8c0-4.4-2.3-6.9-6.8-6.9s-6.8,2.6-6.8,6.9v17.7h-5.8V109.8c0-7.6,4.5-12.3,12.5-12.3s12.5,4.7,12.5,12.3v17.7Zm17.1,0V103.4h-8.8V98h23.3v5.4h-8.8v24.1Zm18.8,0V98.1h5.8v29.4Zm26,.6c-9.2,0-15.7-6.5-15.7-15.3s6.5-15.3,15.7-15.3,15.7,6.5,15.7,15.3S504.94,128.1,495.74,128.1Zm9.8-15.3c0-5.8-4-10-9.8-10s-9.8,4.2-9.8,10,4,10,9.8,10S505.54,118.6,505.54,112.8Zm29,14.7V109.8c0-4.4-2.3-6.9-6.8-6.9s-6.8,2.6-6.8,6.9v17.7h-5.8V109.8c0-7.6,4.5-12.3,12.5-12.3s12.5,4.7,12.5,12.3v17.7ZM263,150.4a9.31,9.31,0,0,0-8.4-4.6c-5.9,0-9.8,4.2-9.8,9.9s4,10,9.8,10c4.6,0,8-2.2,9.4-6v-.1h-11.2v-5.1h17.4v2.7c-.7,8.1-7,13.8-15.6,13.8-9.2,0-15.7-6.5-15.7-15.3s6.5-15.3,15.7-15.3c7.2,0,12.7,4,14.8,9.9Zm28.9,20.1-6.3-9.9h-5.3v9.9h-5.8V141.1h12.3c7.5,0,10.8,4.1,10.8,9.7,0,4.3-1.9,7.7-6.1,9.1v.1l7.2,10.5ZM287,155.2c3.6,0,4.9-1.9,4.9-4.4s-1.2-4.4-4.9-4.4h-6.7v8.8Zm35,15.3v-8.8h-14.4v8.8H302V153.3c0-7.9,4.5-12.8,12.8-12.8s12.9,4.9,12.9,12.8v17.2Zm0-17.2c0-4.7-2.3-7.4-7.2-7.4s-7.2,2.7-7.2,7.4v3.2H322Zm29.7,17.2V152.8c0-4.4-2.3-6.9-6.8-6.9s-6.8,2.6-6.8,6.9v17.7h-5.8V152.8c0-7.6,4.5-12.3,12.5-12.3s12.5,4.7,12.5,12.3v17.7Zm17.1,0V146.4H360V141h23.3v5.4h-8.8v24.1Z"/><path class="cls-5" d="M234.84,236.9h-33l11.7-35h9.7Zm-22.7-6.9h12.3l-6.1-20Z"/><path class="cls-6" d="M389.54,199.1v4.8h-3.9a2.74,2.74,0,0,0-2.1.6,2.21,2.21,0,0,0-.6,1.9V208H389v5.2h-6.1v19c0,2.6-.7,4.4-2.1,5.6s-3.5,1.7-6.2,1.7h-5.4v-4.8h3.9a2.74,2.74,0,0,0,2.1-.6,2.21,2.21,0,0,0,.6-1.9v-19h-3.5V208h3.5v-1.6c0-2.6.7-4.4,2.1-5.6s3.5-1.7,6.2-1.7Z"/><path class="cls-7" d="M190.54,218a9.16,9.16,0,0,1,5.3,3,8.37,8.37,0,0,1,1.9,5.7,9.5,9.5,0,0,1-3.6,8c-2.4,1.9-5.8,2.8-10.2,2.8a22.82,22.82,0,0,1-4.5-.4,28.52,28.52,0,0,1-4.8-1.3v-4.6a13.33,13.33,0,0,0,4.3,1.7,19.93,19.93,0,0,0,4.9.6c3,0,5.2-.6,6.8-1.8a5.91,5.91,0,0,0,2.3-5.1,5.53,5.53,0,0,0-2.2-4.8,9.18,9.18,0,0,0-6-1.7h-4.1v-3.9h4.3a8.81,8.81,0,0,0,5.3-1.4,5,5,0,0,0,1.9-4,4.64,4.64,0,0,0-1.9-4.1,8.16,8.16,0,0,0-5.5-1.4,29.84,29.84,0,0,0-4.2.4,39.16,39.16,0,0,0-4.9,1.3v-4.2a41.93,41.93,0,0,1,5.1-1.1,34.25,34.25,0,0,1,4.4-.4c3.6,0,6.4.8,8.5,2.4a7.79,7.79,0,0,1,3.1,6.6,6.85,6.85,0,0,1-1.7,4.9A7.6,7.6,0,0,1,190.54,218ZM261,232.9h7.7V206.2l-8.4,1.7v-4.3l8.4-1.7h4.7v31h7.7v4H261Zm85.9,0h7.7V206.2l-8.4,1.7v-4.3l8.4-1.7h4.7v31H367v4h-20.1v-4ZM315,52.9h7.7V26.2l-8.4,1.7V23.5l8.4-1.7h4.7v31h7.7v4H315Z"/><path class="cls-8" d="M289.94,201.9h19.4v6.8h-19.4Zm0,28.1h19.4v6.8h-19.4Zm2.2-14.8h15V222h-15Zm51.8-193.3h19.4v6.8h-19.4Zm0,28.1h19.4v6.8h-19.4Zm2.2-14.8h15V42h-15Z"/></g></g></g></svg>