<svg id="Layer_1" data-name="Layer 1" xmlns="http://www.w3.org/2000/svg" viewBox="0 0 425.723 279.3"><defs><style>.cls-1{opacity:0.4;}.cls-2,.cls-3{fill:#fff;}.cls-3,.cls-7{stroke:#000;}.cls-3,.cls-5{stroke-miterlimit:10;}.cls-3{stroke-width:6px;}.cls-4{fill:#136534;stroke:#136534;}.cls-4,.cls-5{stroke-width:0.5px;}.cls-5{fill:#555758;stroke:#555758;}.cls-6{fill:#fffee1;}.cls-7{fill:none;stroke-linecap:round;stroke-linejoin:round;stroke-width:2px;}</style></defs><title>grantCard</title><g id="Grant_Cards_face_" data-name="Grant Cards face "><g id="Grant_Card_Backgrounds" data-name="Grant Card Backgrounds"><g class="cls-1"><rect y="6.6" width="419.123" height="272.7"/></g><rect class="cls-2" x="7.75" y="3" width="414.973" height="270"/><rect class="cls-3" x="7.75" y="3" width="414.973" height="270"/><rect x="7.75" y="3" width="414" height="119.857"/><path d="M38.835,185.24,36.61,181.7H34.721v3.537H32.672V174.772h4.386c2.657,0,3.826,1.456,3.826,3.457a3.118,3.118,0,0,1-2.177,3.234v.032l2.561,3.745ZM37.09,179.8c1.3,0,1.729-.672,1.729-1.569s-.432-1.552-1.729-1.552H34.721V179.8Z" transform="translate(4.15 1)"/><path d="M44.817,180.839v2.512h5.666v1.889H42.768V174.772h7.715v1.905H44.817v2.336h4.738v1.826Z" transform="translate(4.15 1)"/><path d="M57.49,177.8c-.015-.8-.608-1.377-1.744-1.377-1.153,0-1.729.624-1.729,1.392,0,2.177,5.586.16,5.586,4.354,0,2.033-1.552,3.3-3.889,3.3-2.322,0-3.842-1.233-3.89-3.234h2c.016.832.64,1.393,1.889,1.393s1.888-.561,1.888-1.393c0-2.177-5.57-.176-5.57-4.353,0-1.938,1.473-3.3,3.7-3.3a3.368,3.368,0,0,1,3.686,3.017h0c.007.067.011.134.014.2Z" transform="translate(4.15 1)"/><path d="M66.338,185.448a5.443,5.443,0,1,1,5.57-5.441,5.314,5.314,0,0,1-5.179,5.446h0C66.6,185.456,66.468,185.454,66.338,185.448Zm3.49-5.441a3.49,3.49,0,1,0-3.49,3.552,3.367,3.367,0,0,0,3.493-3.236C69.835,180.217,69.834,180.112,69.828,180.007Z" transform="translate(4.15 1)"/><path d="M80.194,174.772h2v6.307a4.017,4.017,0,0,1-3.63,4.37h0a3.968,3.968,0,0,1-.755,0c-2.865,0-4.449-1.681-4.449-4.369v-6.307h2.049v6.307a2.394,2.394,0,1,0,4.785.17v-6.478Z" transform="translate(4.15 1)"/><path d="M90.322,185.24,88.1,181.7H86.21v3.537H84.16V174.772h4.385c2.658,0,3.826,1.456,3.826,3.457a3.118,3.118,0,0,1-2.177,3.234v.032l2.561,3.745Zm-1.744-5.44c1.3,0,1.728-.672,1.728-1.569s-.432-1.552-1.728-1.552h-2.37V179.8Z" transform="translate(4.15 1)"/><path d="M102.467,178.565a3.328,3.328,0,0,0-3.233-2.1,3.545,3.545,0,1,0,3.233,4.978h2.161a5.444,5.444,0,1,1,0-2.882Z" transform="translate(4.15 1)"/><path d="M108.336,180.839v2.512H114v1.889h-7.715V174.772H114v1.905h-5.667v2.336h4.739v1.826Z" transform="translate(4.15 1)"/><path d="M121.009,177.8c-.015-.8-.608-1.377-1.744-1.377-1.153,0-1.729.624-1.729,1.392,0,2.177,5.586.16,5.586,4.354,0,2.033-1.552,3.3-3.889,3.3-2.321,0-3.842-1.233-3.89-3.234h2c.016.832.64,1.393,1.889,1.393s1.888-.561,1.888-1.393c0-2.177-5.57-.176-5.57-4.353,0-1.938,1.473-3.3,3.7-3.3a3.368,3.368,0,0,1,3.686,3.017h0c.007.067.011.134.014.2Z" transform="translate(4.15 1)"/><path d="M39.338,201.24l-2.379-3.54H34.938v3.537H32.747V190.772h4.691c2.842,0,4.092,1.456,4.092,3.457a3.129,3.129,0,0,1-2.328,3.234v.032l2.739,3.745Zm-1.866-5.44c1.387,0,1.849-.672,1.849-1.569s-.462-1.552-1.849-1.552H34.938V195.8Z" transform="translate(4.15 1)"/><path d="M46.22,196.839v2.512h6.061v1.889H44.029V190.772h8.252v1.905H46.22v2.336h5.068v1.826Z" transform="translate(4.15 1)"/><path d="M64.214,200.12l2.157,2.768H63.837L62.5,201.064a7.2,7.2,0,0,1-2.328.384c-3.492,0-5.958-2.305-5.958-5.441s2.466-5.443,5.958-5.443,5.958,2.305,5.958,5.443A5.2,5.2,0,0,1,64.214,200.12Zm-3-.689V199.4l-1.764-2.224h2.534l.959,1.28h.034a3.678,3.678,0,1,0-6.54-2.448,3.5,3.5,0,0,0,3.44,3.559h0c.1,0,.2,0,.292-.007a4.411,4.411,0,0,0,1.049-.129Z" transform="translate(4.15 1)"/><path d="M75.478,190.772h2.141v6.307c0,2.673-1.678,4.369-4.691,4.369-3.065,0-4.76-1.681-4.76-4.369v-6.307h2.191v6.307a2.561,2.561,0,0,0,5.119,0Z" transform="translate(4.15 1)"/><path d="M80.22,201.24V190.772h2.192V201.24Z" transform="translate(4.15 1)"/><path d="M91.879,201.24,89.5,197.7H87.48v3.537H85.288V190.772h4.69c2.843,0,4.092,1.456,4.092,3.457a3.129,3.129,0,0,1-2.328,3.234v.032l2.739,3.745Zm-1.866-5.44c1.386,0,1.849-.672,1.849-1.569s-.463-1.552-1.849-1.552H87.479V195.8Z" transform="translate(4.15 1)"/><path d="M98.761,196.839v2.512h6.06v1.889H96.569V190.772h8.252v1.905h-6.06v2.336h5.068v1.826Z" transform="translate(4.15 1)"/><path d="M107.321,201.24V190.772h3.972c3.92,0,5.974,2.1,5.974,5.235s-2.054,5.233-5.974,5.233Zm3.972-1.889c2.585,0,3.749-1.312,3.749-3.344s-1.164-3.33-3.749-3.33h-1.781v6.674Z" transform="translate(4.15 1)"/><path d="M119.253,194.805a1.356,1.356,0,1,1,1.444,1.262h-.091a1.3,1.3,0,0,1-1.352-1.245Zm0,5.378a1.356,1.356,0,1,1,1.444,1.262h-.091a1.3,1.3,0,0,1-1.352-1.245Z" transform="translate(4.15 1)"/></g><g id="_02_papers" data-name=" 02 papers"><g id="_02_ep_01" data-name=" 02 ep 01"><path class="cls-2" d="M35.327,58.748v-15.7H46.92v3.6h-7.7v2.568h6.313v3.12H39.215v2.809h7.7v3.6Z" transform="translate(4.15 1)"/><path class="cls-2" d="M49.63,58.748v-15.7H55.8c4.272,0,6.169,2.328,6.169,5.52s-1.9,5.544-6.169,5.544H53.52v4.633Zm6.241-8.233c1.656,0,2.16-.816,2.16-1.944,0-1.1-.5-1.92-2.16-1.92H53.519v3.864Z" transform="translate(4.15 1)"/><path class="cls-2" d="M64.078,58.748v-15.7h3.889v15.7Z" transform="translate(4.15 1)"/><path class="cls-2" d="M71.182,58.748v-15.7h5.544c5.52,0,8.4,3.144,8.4,7.848s-2.881,7.849-8.4,7.849Zm5.544-3.6c3.145,0,4.465-1.633,4.465-4.249s-1.32-4.248-4.465-4.248H75.07v8.5Z" transform="translate(4.15 1)"/><path class="cls-2" d="M87.549,58.748v-15.7H99.142v3.6h-7.7v2.568H97.75v3.12H91.438v2.809h7.7v3.6Z" transform="translate(4.15 1)"/><path class="cls-2" d="M105.381,58.748h-3.888V48.811c0-4.2,2.448-6.072,5.617-6.072a4.906,4.906,0,0,1,4.32,2.136h.048a4.877,4.877,0,0,1,4.32-2.136c3.169,0,5.617,1.872,5.617,6.072v9.937h-3.888V48.811c0-1.824-.888-2.472-2.065-2.472-1.152,0-2.064.648-2.064,2.472v9.937H109.51V48.811c0-1.824-.912-2.472-2.064-2.472-1.177,0-2.065.648-2.065,2.472Z" transform="translate(4.15 1)"/><path class="cls-2" d="M124.268,58.748v-15.7h3.889v15.7Z" transform="translate(4.15 1)"/><path class="cls-2" d="M138.933,59.06a8.163,8.163,0,1,1,8.353-8.161,7.97,7.97,0,0,1-7.767,8.168h0C139.324,59.072,139.128,59.069,138.933,59.06Zm4.416-8.161a4.418,4.418,0,0,0-8.832-.266V50.9a4.418,4.418,0,1,0,8.832.266h0c0-.089,0-.177,0-.265Z" transform="translate(4.15 1)"/><path class="cls-2" d="M149.708,58.748v-15.7H153.6v12.1h7.416v3.6Z" transform="translate(4.15 1)"/><path class="cls-2" d="M170.205,59.06a8.163,8.163,0,1,1,8.353-8.161,7.97,7.97,0,0,1-7.767,8.168h0C170.6,59.072,170.4,59.069,170.205,59.06Zm4.416-8.161a4.418,4.418,0,0,0-8.832-.266V50.9a4.418,4.418,0,1,0,8.832.266h0c0-.089,0-.177,0-.265Z" transform="translate(4.15 1)"/><path class="cls-2" d="M192.238,48.259a4.168,4.168,0,0,0-3.7-1.92,4.286,4.286,0,0,0-4.423,4.143c0,.139,0,.278.007.417a4.284,4.284,0,0,0,4,4.554h0a4.983,4.983,0,0,0,4.478-2.274v-.048h-5.017v-3.12h9.289v1.7a8.071,8.071,0,1,1-.36-3.456Z" transform="translate(4.15 1)"/><path class="cls-2" d="M201.933,58.748v-6.5l-5.733-9.2h4.585l3.072,5.472h.048l3.072-5.472h4.488l-5.64,9.072v6.625Z" transform="translate(4.15 1)"/><path class="cls-2" d="M98.747,70.971a6.629,6.629,0,1,0-5.976,9.5c3.408,0,5.88-1.944,6.5-4.993V75.43H91.787V73.851H101.1v.816a8.048,8.048,0,1,1-.457-3.7Z" transform="translate(4.15 1)"/><path class="cls-2" d="M114.131,81.748,109.883,75.8h-4.777v5.953h-1.728v-15.7h6.937c3.7,0,5.328,2.064,5.328,4.848a4.457,4.457,0,0,1-3.936,4.776v.048l4.512,6.025Zm-3.792-7.537c2.616,0,3.552-1.44,3.552-3.312s-.936-3.264-3.552-3.264h-5.233v6.576Z" transform="translate(4.15 1)"/><path class="cls-2" d="M129.947,81.748v-5.28H119.794v5.28h-1.68V72.459c0-4.128,2.4-6.72,6.768-6.72,4.393,0,6.793,2.592,6.793,6.72v9.289Zm0-9.289c0-3.168-1.728-5.136-5.089-5.136-3.312,0-5.064,1.968-5.064,5.136v2.424h10.153Z" transform="translate(4.15 1)"/><path class="cls-2" d="M145.619,81.748V72.219c0-3.024-1.681-4.9-4.849-4.9-3.192,0-4.873,1.872-4.873,4.9v9.529h-1.728V72.219c0-3.96,2.352-6.48,6.6-6.48,4.225,0,6.577,2.52,6.577,6.48v9.529Z" transform="translate(4.15 1)"/><path class="cls-2" d="M154.066,81.748V67.635h-5.329V66.051h12.385v1.584h-5.328V81.748Z" transform="translate(4.15 1)"/><g id="Green_Token" data-name="Green Token"><g id="token_green" data-name="token green"><path class="cls-4" d="M279.728,213.24a1,1,0,0,0,1,1h52a1,1,0,0,0,1-1v-52a1,1,0,0,0-1-1h-52a1,1,0,0,0-1,1Z" transform="translate(4.15 1)"/><path class="cls-2" d="M294.258,203.3a3.526,3.526,0,0,0,1-.14,2.143,2.143,0,0,0,.74-.38v-.86h-1.52v-.91h2.7v2.28a3.292,3.292,0,0,1-1.3.72,4.834,4.834,0,0,1-1.65.29,3.088,3.088,0,0,1-2.33-.84,3.28,3.28,0,0,1-.81-2.37,2.85,2.85,0,0,1,3.17-3.16,2.591,2.591,0,0,1,2.77,1.61l-1.19.36a1.473,1.473,0,0,0-.61-.71,1.908,1.908,0,0,0-1-.24,1.73,1.73,0,0,0-1.39.55,2.355,2.355,0,0,0-.48,1.59,2.443,2.443,0,0,0,.49,1.62A1.73,1.73,0,0,0,294.258,203.3Z" transform="translate(4.15 1)"/><path class="cls-2" d="M302.578,204.23l-1.44-2.35h-1.52v2.35h-1.3v-6.22h3.1a2.7,2.7,0,0,1,1.71.48,1.622,1.622,0,0,1,.6,1.36,1.731,1.731,0,0,1-1.37,1.75l1.68,2.6Zm-.16-4.29q0-.9-1.14-.9h-1.66v1.83h1.7a1.23,1.23,0,0,0,.82-.24A.881.881,0,0,0,302.418,199.94Z" transform="translate(4.15 1)"/><path class="cls-2" d="M304.818,204.23v-6.22h4.87v1h-3.57v1.56h3.3v1h-3.3v1.63h3.75v1Z" transform="translate(4.15 1)"/><path class="cls-2" d="M310.828,204.23v-6.22h4.86v1h-3.57v1.56h3.36v1h-3.36v1.63h3.75v1Z" transform="translate(4.15 1)"/><path class="cls-2" d="M320.6,204.23l-2.7-4.77c0,.47.08.84.08,1.12v3.65h-1.15v-6.22h1.48l2.74,4.81a8.9,8.9,0,0,1-.08-1.21v-3.6h1.15v6.19Z" transform="translate(4.15 1)"/><path class="cls-2" d="M300.648,171.67H313.2v4.41H300.65Zm0,18.2H313.2v4.4H300.65Zm1.43-9.58h9.68v4.4h-9.68Z" transform="translate(4.15 1)"/></g></g><g id="Gray_Token" data-name="Gray Token"><g id="token_gray" data-name="token gray"><g id="Outlines"><path class="cls-5" d="M218.591,210.969h48.06c2.65,0,3.73-1.86,2.4-4.16l-24.03-41.58c-1.32-2.29-3.48-2.29-4.8,0l-24.03,41.58C214.861,209.109,215.941,210.969,218.591,210.969Z" transform="translate(4.15 1)"/></g><path class="cls-2" d="M248.371,194.529h-11.65l4.13-12.4h3.43Zm-8-2.42h4.36l-2.16-7.07Z" transform="translate(4.15 1)"/><path class="cls-2" d="M235.641,200.779a2.755,2.755,0,0,0,.76-.11,1.7,1.7,0,0,0,.57-.29v-.67H235.8v-.75h2.1v1.78a2.707,2.707,0,0,1-1,.61,3.731,3.731,0,0,1-1.29.22,2.37,2.37,0,0,1-1.8-.65,2.509,2.509,0,0,1-.64-1.85,2.22,2.22,0,0,1,2.47-2.45,2,2,0,0,1,2.15,1.25l-.93.28a1.053,1.053,0,0,0-.47-.55,1.39,1.39,0,0,0-.75-.19,1.317,1.317,0,0,0-1.08.43,1.832,1.832,0,0,0-.37,1.23,1.923,1.923,0,0,0,.38,1.27A1.342,1.342,0,0,0,235.641,200.779Z" transform="translate(4.15 1)"/><path class="cls-2" d="M242.111,201.5l-1.12-1.82h-1.18v1.82h-1v-4.81h2.41a2.1,2.1,0,0,1,1.33.37,1.281,1.281,0,0,1,.46,1.06,1.319,1.319,0,0,1-1.06,1.36l1.3,2Zm-.12-3.34c0-.46-.3-.69-.89-.69h-1.29v1.42h1.32a.944.944,0,0,0,.64-.19.672.672,0,0,0,.22-.541Z" transform="translate(4.15 1)"/><path class="cls-2" d="M247.261,201.5l-.43-1.27H245l-.43,1.23h-1l1.8-4.77h1.19l1.75,4.81Zm-1.35-4.07v.07a1.094,1.094,0,0,1-.08.28c-.03.1-.23.69-.59,1.73h1.39l-.48-1.38-.15-.46Z" transform="translate(4.15 1)"/><path class="cls-2" d="M250.641,199.529v2h-1v-2l-1.71-2.84h1.04l1.16,2,1.17-2h1Z" transform="translate(4.15 1)"/></g></g><g id="Gray_Token-2" data-name="Gray Token-2"><g id="token_gray-2" data-name="token gray-2"><g id="Outlines-2"><path class="cls-5" d="M348.57,210.969h48.06c2.65,0,3.73-1.86,2.4-4.16L375,165.229c-1.32-2.29-3.48-2.29-4.8,0l-24.03,41.58C344.84,209.109,345.92,210.969,348.57,210.969Z" transform="translate(4.15 1)"/></g><path class="cls-2" d="M378.35,194.529H366.7l4.13-12.4h3.43Zm-8-2.42h4.36l-2.16-7.07Z" transform="translate(4.15 1)"/><path class="cls-2" d="M365.62,200.779a2.755,2.755,0,0,0,.76-.11,1.7,1.7,0,0,0,.57-.29v-.67h-1.17v-.75h2.1v1.78a2.707,2.707,0,0,1-1,.61,3.731,3.731,0,0,1-1.29.22,2.37,2.37,0,0,1-1.8-.65,2.509,2.509,0,0,1-.64-1.85,2.22,2.22,0,0,1,2.47-2.45,2,2,0,0,1,2.15,1.25l-.93.28a1.057,1.057,0,0,0-.47-.55,1.39,1.39,0,0,0-.75-.19,1.317,1.317,0,0,0-1.08.43,1.832,1.832,0,0,0-.37,1.23,1.923,1.923,0,0,0,.38,1.27A1.34,1.34,0,0,0,365.62,200.779Z" transform="translate(4.15 1)"/><path class="cls-2" d="M372.09,201.5l-1.12-1.82h-1.18v1.82h-1v-4.81h2.41a2.1,2.1,0,0,1,1.33.37,1.281,1.281,0,0,1,.46,1.06,1.321,1.321,0,0,1-1.06,1.36l1.3,2Zm-.12-3.34c0-.46-.3-.69-.89-.69h-1.29v1.42h1.32a.944.944,0,0,0,.64-.19.672.672,0,0,0,.22-.541Z" transform="translate(4.15 1)"/><path class="cls-2" d="M377.24,201.5l-.43-1.27h-1.83l-.43,1.23h-1l1.8-4.77h1.19l1.75,4.81Zm-1.35-4.07v.07a1.094,1.094,0,0,1-.08.28c-.03.1-.23.69-.59,1.73h1.39l-.48-1.38-.15-.46Z" transform="translate(4.15 1)"/><path class="cls-2" d="M380.62,199.529v2h-1v-2l-1.71-2.84h1.04l1.16,2,1.17-2h1Z" transform="translate(4.15 1)"/></g></g></g><g id="_02_paperToken_01" data-name=" 02 paperToken 01"><polygon class="cls-6" points="310.367 87.24 310.345 51.26 346.325 51.239 346.346 86.634 345.76 87.22 345.326 87.24 310.367 87.24"/><path class="cls-2" d="M341.176,51.24l.02,33.98-.02.02h-33.96l-.02-33.98,33.98-.02m2-2h-2l-33.98.02h-2v2l.02,33.98v2H342l.586-.586.586-.586.02-.849-.02-33.98v-2Z" transform="translate(4.15 1)"/><path d="M340.2,52.24v32h-32v-32h32m1-2h-34a1,1,0,0,0-1,1v34a1,1,0,0,0,1,1h34a1,1,0,0,0,1-1v-34A1,1,0,0,0,341.2,50.24Z" transform="translate(4.15 1)"/><g id="_" data-name=" "><line class="cls-7" x1="314.846" y1="78.865" x2="341.846" y2="78.865"/><line class="cls-7" x1="314.846" y1="72.235" x2="341.846" y2="72.235"/><line class="cls-7" x1="314.846" y1="65.615" x2="341.846" y2="65.615"/></g><path d="M310.9,61.175V55.3h2.41c1.53,0,2.21.84,2.21,2s-.68,2-2.21,2h-1.25v1.89Zm2.43-2.95c.76,0,1-.4,1-.94s-.26-.92-1-.92h-1.27v1.86Z" transform="translate(4.15 1)"/><path d="M320.2,61.247v-1.76h-2.91v1.76H316.2V57.8a2.329,2.329,0,0,1,2.084-2.551h0a2.949,2.949,0,0,1,3.06,2.087,2.239,2.239,0,0,1,0,.463v3.45Zm0-3.45a1.452,1.452,0,1,0-2.88,0v.64h2.88Z" transform="translate(4.15 1)"/><path d="M322.386,61.175V55.3h2.4c1.53,0,2.22.84,2.22,2s-.69,2-2.22,2h-1.25v1.89Zm2.42-2.95c.76,0,1-.4,1-.94s-.26-.92-1-.92h-1.27v1.86Z" transform="translate(4.15 1)"/><path d="M328.946,58.71v1.41h3.19v1.06H327.8V55.3h4.34v1.07h-3.19v1.31h2.66v1Z" transform="translate(4.15 1)"/><path d="M336.616,61.18l-1.25-2H334.3v2h-1.1V55.3h2.47c1.49,0,2.15.81,2.15,1.94a1.762,1.762,0,0,1-1.23,1.82h0l1.45,2.1Zm-1-3.06c.73,0,1-.38,1-.88s-.24-.87-1-.87H334.3v1.75Z" transform="translate(4.15 1)"/></g><g id="_02_paperToken_02" data-name=" 02 paperToken 02"><polygon class="cls-6" points="270.367 87.24 270.345 51.26 306.325 51.239 306.346 86.634 305.76 87.22 305.326 87.24 270.367 87.24"/><path class="cls-2" d="M301.176,51.24l.02,33.98-.02.02h-33.96l-.02-33.98,33.98-.02m2-2h-2l-33.98.02h-2v2l.02,33.98v2H302l.586-.586.586-.586.02-.849-.02-33.98v-2Z" transform="translate(4.15 1)"/><path d="M300.2,52.24v32h-32v-32h32m1-2h-34a1,1,0,0,0-1,1v34a1,1,0,0,0,1,1h34a1,1,0,0,0,1-1v-34A1,1,0,0,0,301.2,50.24Z" transform="translate(4.15 1)"/><g id="_2" data-name=" 2"><line class="cls-7" x1="274.846" y1="78.865" x2="301.846" y2="78.865"/><line class="cls-7" x1="274.846" y1="72.235" x2="301.846" y2="72.235"/><line class="cls-7" x1="274.846" y1="65.615" x2="301.846" y2="65.615"/></g><path d="M270.9,61.175V55.3h2.41c1.53,0,2.21.84,2.21,2s-.68,2-2.21,2h-1.25v1.89Zm2.43-2.95c.76,0,1-.4,1-.94s-.26-.92-1-.92h-1.27v1.86Z" transform="translate(4.15 1)"/><path d="M280.2,61.247v-1.76h-2.91v1.76H276.2V57.8a2.329,2.329,0,0,1,2.084-2.551h0a2.949,2.949,0,0,1,3.06,2.087,2.239,2.239,0,0,1,0,.463v3.45Zm0-3.45a1.452,1.452,0,1,0-2.88,0v.64h2.88Z" transform="translate(4.15 1)"/><path d="M282.386,61.175V55.3h2.4c1.53,0,2.22.84,2.22,2s-.69,2-2.22,2h-1.25v1.89Zm2.42-2.95c.76,0,1-.4,1-.94s-.26-.92-1-.92h-1.27v1.86Z" transform="translate(4.15 1)"/><path d="M288.946,58.71v1.41h3.19v1.06H287.8V55.3h4.34v1.07h-3.19v1.31h2.66v1Z" transform="translate(4.15 1)"/><path d="M296.616,61.18l-1.25-2H294.3v2h-1.1V55.3h2.47c1.49,0,2.15.81,2.15,1.94a1.762,1.762,0,0,1-1.23,1.82h0l1.45,2.1Zm-1-3.06c.73,0,1-.38,1-.88s-.24-.87-1-.87H294.3v1.75Z" transform="translate(4.15 1)"/></g></g></g></svg>