<?xml version="1.0" encoding="utf-8"?>
<!-- Generator: Adobe Illustrator 23.0.3, SVG Export Plug-In . SVG Version: 6.00 Build 0)  -->
<svg version="1.1" id="Ebene_3" xmlns="http://www.w3.org/2000/svg" xmlns:xlink="http://www.w3.org/1999/xlink" x="0px" y="0px"
	 viewBox="0 0 72 72" style="enable-background:new 0 0 72 72;" xml:space="preserve">
<style type="text/css">
	
		.st0{opacity:0.33;stroke:#000000;stroke-width:1.8;stroke-linecap:round;stroke-linejoin:round;stroke-miterlimit:10;enable-background:new    ;}
	.st1{fill:#FCEA2B;stroke:#FCEA2B;stroke-width:1.8;stroke-linecap:round;stroke-linejoin:round;stroke-miterlimit:10;}
	.st2{fill:#F1B31C;stroke:#F1B31C;stroke-width:1.8;stroke-linecap:round;stroke-linejoin:round;stroke-miterlimit:10;}
	.st3{fill:none;stroke:#000000;stroke-width:2;stroke-linecap:round;stroke-linejoin:round;stroke-miterlimit:10;}
	.st4{fill:#3352A3;stroke:#000000;stroke-width:2;stroke-linecap:round;stroke-linejoin:round;stroke-miterlimit:10;}
</style>
<g id="_xDB80__xDC32_">
	<polygon class="st0" points="32.2,14 43.4,25.2 43.4,64 10,64 10,14 	"/>
	<polygon class="st1" points="35.2,12 46.4,23.2 46.4,62 13,62 13,12 	"/>
	<polygon class="st2" points="15.7,62 12.6,62 46.4,62 46.4,36.6 20.9,62 	"/>
	<polyline class="st3" points="46.4,31 46.4,23.2 35.1,23.2 35.1,12 12.6,12 12.6,62 46.4,62 46.4,52.2 	"/>
	<line class="st3" x1="35.1" y1="12" x2="46.4" y2="23.2"/>
	<line class="st3" x1="41" y1="30" x2="18" y2="30"/>
	<line class="st3" x1="28" y1="24" x2="18" y2="24"/>
	<line class="st3" x1="41" y1="36" x2="18" y2="36"/>
	<line class="st3" x1="28" y1="42" x2="18" y2="42"/>
	<line class="st3" x1="28" y1="48" x2="18" y2="48"/>
	<line class="st3" x1="28" y1="54" x2="18" y2="54"/>
	<polygon class="st4" points="34,49 34,54 39,54 63,30 58,25 	"/>
</g>
</svg>
