<?xml version="1.0" encoding="utf-8"?>
<!-- Generator: Adobe Illustrator 23.0.3, SVG Export Plug-In . SVG Version: 6.00 Build 0)  -->
<svg version="1.1" id="emoji" xmlns="http://www.w3.org/2000/svg" xmlns:xlink="http://www.w3.org/1999/xlink" x="0px" y="0px"
	 viewBox="0 0 72 72" style="enable-background:new 0 0 72 72;" xml:space="preserve">
<style type="text/css">
	.st0{opacity:0.33;}
	.st1{stroke:#000000;stroke-miterlimit:10;}
	.st2{stroke:#000000;stroke-width:2;stroke-miterlimit:10;}
	.st3{stroke:#000000;stroke-width:2;stroke-linecap:round;stroke-linejoin:round;stroke-miterlimit:10;}
	.st4{fill:#60301A;}
	.st5{fill:#555758;}
	.st6{fill:#006600;}
	.st7{fill:none;stroke:#60301A;stroke-width:2;stroke-miterlimit:10;}
	.st8{fill:none;stroke:#60301A;stroke-width:2;stroke-linecap:round;stroke-linejoin:round;stroke-miterlimit:10;}
	.st9{fill:none;stroke:#555758;stroke-width:2;stroke-miterlimit:10;}
	.st10{fill:none;stroke:#555758;stroke-width:2;stroke-linecap:round;stroke-linejoin:round;stroke-miterlimit:10;}
	.st11{fill:none;stroke:#006600;stroke-width:2;stroke-miterlimit:10;}
	.st12{fill:none;stroke:#006600;stroke-width:2;stroke-linecap:round;stroke-linejoin:round;stroke-miterlimit:10;}
	.st13{fill:#FCEA2B;stroke:#000000;stroke-width:1.5;stroke-linecap:round;stroke-miterlimit:10;}
</style>
<g id="_xDB80__xDC40_" class="st0">
	<circle class="st1" cx="19" cy="18" r="3"/>
	<circle class="st1" cx="54" cy="27.3" r="3"/>
	<circle class="st1" cx="28" cy="48" r="3"/>
	<polygon class="st1" points="13.4,28.1 16.5,25.4 21.4,25.2 24.3,28 25,32 12.9,32 	"/>
	<polygon class="st1" points="48.5,37.4 51.6,34.7 56.4,34.5 59.4,37.3 60.1,41.3 48,41.3 	"/>
	<polygon class="st1" points="22.5,58.1 25.6,55.4 30.4,55.2 33.4,58 34.1,62 22,62 	"/>
	<circle class="st2" cx="19" cy="18" r="3"/>
	<path class="st3" d="M13,31c0,0,1-4.3,3-5.3s4-1,6,0s3,5.3,3,5.3"/>
	<circle class="st2" cx="54" cy="27.3" r="3"/>
	<path class="st3" d="M48,40.3c0,0,1-4.3,3-5.3s4-1,6,0s3,5.3,3,5.3"/>
	<circle class="st2" cx="28" cy="48" r="3"/>
	<path class="st3" d="M22,61c0,0,1-4.3,3-5.3s4-1,6,0s3,5.3,3,5.3"/>
</g>
<g id="_xDB80__xDC40__1_">
	<circle class="st4" cx="21" cy="17" r="3"/>
	<circle class="st5" cx="56" cy="26.3" r="3"/>
	<circle class="st6" cx="30" cy="47" r="3"/>
	<polygon class="st4" points="15.4,27.1 18.5,24.4 23.4,24.2 26.3,27 27,31 14.9,31 	"/>
	<polygon class="st5" points="50.5,36.4 53.6,33.7 58.4,33.5 61.4,36.3 62.1,40.3 50,40.3 	"/>
	<polygon class="st6" points="24.5,57.1 27.6,54.4 32.4,54.2 35.4,57 36.1,61 24,61 	"/>
	<circle class="st7" cx="21" cy="17" r="3"/>
	<path class="st8" d="M15,30c0,0,1-4.3,3-5.3s4-1,6,0s3,5.3,3,5.3"/>
	<circle class="st9" cx="56" cy="26.3" r="3"/>
	<path class="st10" d="M50,39.3c0,0,1-4.3,3-5.3s4-1,6,0s3,5.3,3,5.3"/>
	<circle class="st11" cx="30" cy="47" r="3"/>
	<path class="st12" d="M24,60c0,0,1-4.3,3-5.3s4-1,6,0s3,5.3,3,5.3"/>
	<path class="st13" d="M53,20.1C48.7,15.2,42.4,12,35.4,12c-2.8,0-5.4,0.5-7.9,1.4"/>
	<path class="st13" d="M39.4,57.6C47.6,56,54.3,50,56.9,42.2"/>
	<path class="st13" d="M12.1,33C12,33.7,12,34.3,12,35c0,8,4.1,15,10.2,19.1"/>
</g>
</svg>
