<svg xmlns="http://www.w3.org/2000/svg" viewBox="0 0 178.831 133.664"><defs><style>.cls-1{fill:#020201;}.cls-2{fill:#8a391c;}.cls-3{fill:#3251a1;}.cls-4{fill:#f9e82b;}.cls-5{fill:#fae82b;}.cls-6{fill:#020202;}.cls-7{fill:#555657;}.cls-8{fill:#a11f57;}.cls-9{fill:#020101;}.cls-10{fill:#3351a2;}.cls-11{fill:#106333;}.cls-12{fill:#a11956;}.cls-13{fill:#f9e72a;}.cls-14{fill:#010102;}.cls-15{fill:#545657;}.cls-16{fill:#f8e62a;}.cls-17{fill:#8b3a1c;}.cls-18{fill:#030202;}.cls-19{fill:#cfcecd;}</style></defs><title>gamecrafterAsset 2</title><g id="Layer_2" data-name="Layer 2"><g id="Layer_1-2" data-name="Layer 1"><path class="cls-1" d="M84.44,133.951c-.893.206-1.434-.123-1.519-1.027a15.229,15.229,0,0,1,1.427-8.823,9.364,9.364,0,0,1,7.255-4.935A13.6,13.6,0,0,1,93.745,119a2.118,2.118,0,0,1,.968.31c1.3.724,2.555,1.538,3.881,2.209a9.246,9.246,0,0,0,8.815-.111,20.148,20.148,0,0,0,2.864-1.647,3.9,3.9,0,0,1,2.878-.728,9.969,9.969,0,0,1,7.433,3.781,11.172,11.172,0,0,1,2.195,5.855,36.067,36.067,0,0,1,.024,4.35,1.034,1.034,0,0,1-1.478.932,1.563,1.563,0,0,1-.5-1.4,26.711,26.711,0,0,0-.017-3.419,9.619,9.619,0,0,0-1.861-5.12,7.461,7.461,0,0,0-5.118-2.845c.336,1.017.742,1.988.974,3a3.978,3.978,0,0,1-3.238,5.128c-.314.075-.633.136-.967.208a3,3,0,0,0,.019.317,2.982,2.982,0,0,1-1.048,2.977,13.82,13.82,0,0,1-2.046,1.162,29.13,29.13,0,0,1-8.2.139c-.322-.037-.642-.092-.963-.139-.193-.083-.383-.172-.578-.249a3.579,3.579,0,0,1-2.528-2.853,9.793,9.793,0,0,1-.01-1.376c-.143-.024-.309-.054-.476-.081-2.926-.478-4.334-2.524-3.651-5.407.229-.962.63-1.884.961-2.851a7.408,7.408,0,0,0-6.145,4.3,13,13,0,0,0-1.035,6.933A1.653,1.653,0,0,1,84.44,133.951Zm27.5-11.824c-2.915,3.184-5.819,6.225-7.615,10.157a13.276,13.276,0,0,0,2.84-.413c1.483-.425,1.814-1.246,1.188-2.654-.467-1.052-.087-1.59,1.045-1.689a11.31,11.31,0,0,0,2.535-.522,1.51,1.51,0,0,0,.983-1.513A7.3,7.3,0,0,0,111.943,122.127Zm-17.928.095-.216-.014a20.1,20.1,0,0,0-.8,2.642A1.9,1.9,0,0,0,94.7,127.3a11.159,11.159,0,0,0,1.9.238c.988.054,1.391.68.991,1.57a4.676,4.676,0,0,0-.326,1.047,1.2,1.2,0,0,0,.559,1.306,7.447,7.447,0,0,0,3.877.833C99.745,128.353,96.863,125.3,94.015,122.222Zm8.926,7.789,4.889-6.565a11.254,11.254,0,0,1-9.7.1Z" transform="translate(-8.941 -8.386)"/><path class="cls-1" d="M110.127,86.415a3.893,3.893,0,0,1,2.315,3.662,1.025,1.025,0,0,0,.362.842,12.04,12.04,0,0,1,3.571,7.508c.147,1.387.02,1.583-1.171,2.145.042,1.25.17,2.489.111,3.719a16.2,16.2,0,0,1-4.674,11.141,10.659,10.659,0,0,1-15.609-.308,16.851,16.851,0,0,1-4.326-13.019c.031-.521.1-1.039.16-1.577-.588-.234-1.194-.431-1.76-.709A8,8,0,0,1,84.42,92.49,1.044,1.044,0,0,1,85,91.378a1.123,1.123,0,0,1,1.231.248c.482.384,1.017.7,1.535,1.039.338.221.565.17.87-.166a40.053,40.053,0,0,1,6.153-5.577,7.625,7.625,0,0,1,.959-.51,2.8,2.8,0,0,1,.8.415c.471.494.277,1.128-.38,1.609a32.974,32.974,0,0,0-6.584,6.115,1.145,1.145,0,0,1-1.329.434c-.447-.124-.885-.282-1.327-.424l-.073-.046.041.078a9.262,9.262,0,0,0,.637,1.349,7.117,7.117,0,0,0,5.008,2.834,6.262,6.262,0,0,0,3.98-.844c-1.145-.311-2.235-.577-3.3-.912a.93.93,0,0,1-.595-1.215.968.968,0,0,1,1.187-.665c.4.088.783.217,1.175.32a17.211,17.211,0,0,0,7.875.375,10.65,10.65,0,0,0,7.25-4.975,1.455,1.455,0,0,0,.172-1.517,4.27,4.27,0,0,0-.634-.965C108.872,87.5,109.024,86.823,110.127,86.415ZM92.749,100.878c0,1.489-.113,2.929.022,4.345a13.661,13.661,0,0,0,4.072,8.836,8.575,8.575,0,0,0,6.449,2.611,8.8,8.8,0,0,0,6.468-3.247c3.158-3.648,4-7.939,3.342-12.61a.943.943,0,0,0-.377-.513,13.108,13.108,0,0,1-1.587-1.159c-1.016-1.06-1.95-2.2-2.948-3.339a15.161,15.161,0,0,1-8.217,2.371.754.754,0,0,0-.411.173A10.481,10.481,0,0,1,92.749,100.878Zm21.61-2.131a10.414,10.414,0,0,0-2.895-6.342c-.5.658-.98,1.259-1.425,1.882a.468.468,0,0,0,.029.421,11.947,11.947,0,0,0,3.341,3.654A6.347,6.347,0,0,0,114.359,98.747Z" transform="translate(-8.941 -8.386)"/><path class="cls-2" d="M110.127,86.415c-1.1.408-1.255,1.081-.474,1.963a4.27,4.27,0,0,1,.634.965,1.455,1.455,0,0,1-.172,1.517,10.65,10.65,0,0,1-7.25,4.975,17.211,17.211,0,0,1-7.875-.375c-.392-.1-.779-.232-1.175-.32a.968.968,0,0,0-1.187.665.93.93,0,0,0,.595,1.215c1.068.335,2.158.6,3.3.912a6.262,6.262,0,0,1-3.98.844,7.117,7.117,0,0,1-5.008-2.834,9.262,9.262,0,0,1-.637-1.349l.032-.032c.442.142.88.3,1.327.424a1.145,1.145,0,0,0,1.329-.434,32.974,32.974,0,0,1,6.584-6.115c.657-.481.851-1.115.38-1.609a2.8,2.8,0,0,0-.8-.415l1.773-1.076q.015,3.022.028,6.045c.006,1.014.4,1.416,1.406,1.417q4.041.006,8.082,0c1.059,0,1.422-.377,1.427-1.441q.015-3.081.033-6.161Z" transform="translate(-8.941 -8.386)"/><path class="cls-3" d="M84.44,133.951a1.653,1.653,0,0,0,.459-1.583,13,13,0,0,1,1.035-6.933,7.408,7.408,0,0,1,6.145-4.3c-.331.967-.732,1.889-.961,2.851-.683,2.883.725,4.929,3.651,5.407.167.027.333.057.476.081a9.793,9.793,0,0,0,.01,1.376,3.579,3.579,0,0,0,2.528,2.853c.195.077.385.166.578.249a3.6,3.6,0,0,1-.4.043q-6.533,0-13.065,0A4.169,4.169,0,0,1,84.44,133.951Z" transform="translate(-8.941 -8.386)"/><path class="cls-3" d="M107.522,133.957a13.82,13.82,0,0,0,2.046-1.162,2.982,2.982,0,0,0,1.048-2.977,3,3,0,0,1-.019-.317c.334-.072.653-.133.967-.208a3.978,3.978,0,0,0,3.238-5.128c-.232-1.011-.638-1.982-.974-3a7.461,7.461,0,0,1,5.118,2.845,9.619,9.619,0,0,1,1.861,5.12,26.711,26.711,0,0,1,.017,3.419,1.563,1.563,0,0,0,.5,1.4,4.4,4.4,0,0,1-.457.048q-6.472,0-12.946,0A3.646,3.646,0,0,1,107.522,133.957Z" transform="translate(-8.941 -8.386)"/><path class="cls-1" d="M108.5,85.2q-.017,3.081-.033,6.161c-.005,1.064-.368,1.44-1.427,1.441q-4.041.006-8.082,0c-1.006,0-1.4-.4-1.406-1.417q-.015-3.023-.028-6.045c.021-1,.056-2.01.054-3.015,0-.516.068-.984.589-1.219a1.144,1.144,0,0,1,1.311.332c.573.514,1.172,1,1.811,1.54.284-.713.548-1.369.808-2.027a1.061,1.061,0,0,1,1-.824,1.078,1.078,0,0,1,1.06.822c.251.6.513,1.2.807,1.892.533-.47,1.04-.9,1.525-1.349a1.187,1.187,0,0,1,1.352-.4c.55.237.624.73.625,1.262C108.462,83.3,108.484,84.248,108.5,85.2Zm-5.343-1.422c-.168.412-.3.733-.429,1.052a1.059,1.059,0,0,1-1.873.443c-.387-.329-.776-.654-1.208-1.018v6.476h6.75v-6.44l-.583.507c-.176.153-.345.313-.527.458a1,1,0,0,1-1.633-.361C103.491,84.561,103.352,84.22,103.155,83.774Z" transform="translate(-8.941 -8.386)"/><path class="cls-2" d="M111.943,122.127a7.3,7.3,0,0,1,.976,3.366,1.51,1.51,0,0,1-.983,1.513,11.31,11.31,0,0,1-2.535.522c-1.132.1-1.512.637-1.045,1.689.626,1.408.3,2.229-1.188,2.654a13.276,13.276,0,0,1-2.84.413C106.124,128.352,109.028,125.311,111.943,122.127Z" transform="translate(-8.941 -8.386)"/><path class="cls-2" d="M94.015,122.222c2.848,3.079,5.73,6.131,7.678,10.074a7.447,7.447,0,0,1-3.877-.833,1.2,1.2,0,0,1-.559-1.306,4.676,4.676,0,0,1,.326-1.047c.4-.89,0-1.516-.991-1.57a11.159,11.159,0,0,1-1.9-.238A1.9,1.9,0,0,1,93,124.85a20.1,20.1,0,0,1,.8-2.642Z" transform="translate(-8.941 -8.386)"/><path class="cls-4" d="M92.749,100.878a10.481,10.481,0,0,0,6.813-2.532.754.754,0,0,1,.411-.173A15.161,15.161,0,0,0,108.19,95.8c1,1.141,1.932,2.279,2.948,3.339a13.108,13.108,0,0,0,1.587,1.159.943.943,0,0,1,.377.513c.662,4.671-.184,8.962-3.342,12.61a8.8,8.8,0,0,1-6.468,3.247,8.575,8.575,0,0,1-6.449-2.611,13.661,13.661,0,0,1-4.072-8.836C92.636,103.807,92.749,102.367,92.749,100.878Zm10.2,11.292a7.7,7.7,0,0,0,3.383-.805,1.034,1.034,0,0,0,.593-1.387,1.019,1.019,0,0,0-1.423-.471,5.391,5.391,0,0,1-4.974.013,1.029,1.029,0,0,0-1.444.421,1.042,1.042,0,0,0,.591,1.429A7.549,7.549,0,0,0,102.949,112.17Zm-3.977-8.024a2,2,0,1,0,.046-4,2,2,0,1,0-.046,4Zm8.02,0a2,2,0,1,0-2.011-2.031A1.963,1.963,0,0,0,106.992,104.146Z" transform="translate(-8.941 -8.386)"/><path class="cls-2" d="M114.359,98.747a6.347,6.347,0,0,1-.95-.385,11.947,11.947,0,0,1-3.341-3.654.468.468,0,0,1-.029-.421c.445-.623.921-1.224,1.425-1.882A10.414,10.414,0,0,1,114.359,98.747Z" transform="translate(-8.941 -8.386)"/><path class="cls-2" d="M86.9,94.593l-.041-.078.073.046Z" transform="translate(-8.941 -8.386)"/><path class="cls-4" d="M103.155,83.774c.2.446.336.787.5,1.117a1,1,0,0,0,1.633.361c.182-.145.351-.3.527-.458l.583-.507v6.44h-6.75V84.251c.432.364.821.689,1.208,1.018a1.059,1.059,0,0,0,1.873-.443C102.858,84.507,102.987,84.186,103.155,83.774Z" transform="translate(-8.941 -8.386)"/><path class="cls-1" d="M102.949,112.17a7.549,7.549,0,0,1-3.274-.8,1.042,1.042,0,0,1-.591-1.429,1.029,1.029,0,0,1,1.444-.421,5.391,5.391,0,0,0,4.974-.013,1.019,1.019,0,0,1,1.423.471,1.034,1.034,0,0,1-.593,1.387A7.7,7.7,0,0,1,102.949,112.17Z" transform="translate(-8.941 -8.386)"/><path class="cls-1" d="M98.972,104.146a2,2,0,1,1,.046-4,2,2,0,1,1-.046,4Z" transform="translate(-8.941 -8.386)"/><path class="cls-1" d="M106.992,104.146A2,2,0,1,1,109,102.178,1.98,1.98,0,0,1,106.992,104.146Z" transform="translate(-8.941 -8.386)"/><path class="cls-5" d="M48.357,128.791,46.3,130.077c-.742-.77-1.439-.663-1.933.286a14.461,14.461,0,0,1-2.606,3.6,4.732,4.732,0,0,1-4.828,1.288c-.831-.215-.832-.211-.832-1.087V133.2a3.632,3.632,0,0,0,2.759-2.675,1.109,1.109,0,0,1,.473-.559c.595-.339,1.232-.6,1.827-.942a1.426,1.426,0,0,0,.571-.589A1.02,1.02,0,0,0,40.4,127.12a15.1,15.1,0,0,0-6.752-1.043,9.044,9.044,0,0,0-3.874,1.012c-.766-.01-1.188.225-1.319.735-.136.527.09.919.759,1.313.476.28.961.546,1.427.842a.9.9,0,0,1,.359.4,4.1,4.1,0,0,0,3.071,2.825c0,.546.021,1.079-.014,1.608a.524.524,0,0,1-.3.382,4.685,4.685,0,0,1-4.609-.9,13.542,13.542,0,0,1-3-3.936c-.515-.963-1.168-1.063-1.929-.29l-2.3-1.6a1,1,0,0,0,.906-1.062c-.009-.618-.413-.85-.922-1a11.345,11.345,0,0,1-5.449-3.079c-1.293-1.434-2.361-3.071-3.528-4.619.044-.084.09-.167.132-.252a21.793,21.793,0,0,1,4.682-6.7,6.794,6.794,0,0,1,4.893-2.124,1.047,1.047,0,0,0,.369,1.177A1.129,1.129,0,0,0,24.3,110.8a8.083,8.083,0,0,1,4.554-1.026c1.719.2,2.431,1.209,1.965,2.86A10.561,10.561,0,0,1,30.2,114.1a1.021,1.021,0,0,0,.409,1.421.986.986,0,0,0,1.36-.459c.246-.448.424-.933.632-1.4a.761.761,0,0,1,.085.207,17.069,17.069,0,0,1-.751,7.792c-.418,1.106.079,1.7,1.268,1.638a26.43,26.43,0,0,1,3.593.056c1.125.1,1.678-.441,1.322-1.5a18.244,18.244,0,0,1-.829-7.118,15.609,15.609,0,0,1,.321-1.765c.3.8.569,1.611.927,2.383a.964.964,0,0,0,1.379.51,1.038,1.038,0,0,0,.38-1.472,11.085,11.085,0,0,1-.7-1.923,1.685,1.685,0,0,1,1.14-2.1,4.013,4.013,0,0,1,1.048-.259,8.339,8.339,0,0,1,4.551,1.075,1.006,1.006,0,0,0,1.585-.921c.005-.075.022-.149.034-.224l.743-.024a7.543,7.543,0,0,1,7.765,4.975,31.084,31.084,0,0,1,1,4.092c-.552.818-1.127,1.622-1.652,2.457a12.107,12.107,0,0,1-7.166,5.21c-.483.141-.891.339-.965.909A1.065,1.065,0,0,0,48.357,128.791ZM26.365,116.4a2,2,0,0,0,2.013-1.982,2.009,2.009,0,1,0-2.013,1.982Zm18.018-3.784a1.979,1.979,0,0,0-1.982,2.008,2.016,2.016,0,1,0,1.982-2.008Z" transform="translate(-8.941 -8.386)"/><path class="cls-6" d="M48.357,128.791a1.065,1.065,0,0,1-.676-1.135c.074-.57.482-.768.965-.909a12.107,12.107,0,0,0,7.166-5.21c.525-.835,1.1-1.639,1.652-2.457.6-.837,1.212-1.664,1.784-2.519a.845.845,0,0,0,.032-.627c-.248-.841-.564-1.663-.8-2.507a43.911,43.911,0,0,1-1.415-8.094c-.137-1.638-.251-3.233.739-4.676a1.223,1.223,0,0,0,.091-.209A22.217,22.217,0,0,0,59.13,87.54a13.6,13.6,0,0,0-2.2-5.661,3.137,3.137,0,0,0-1.643-1.274,1.764,1.764,0,0,0-1.882.484,23.021,23.021,0,0,1-5.445,5.747c-1.438,1.1-2.969,2.078-4.488,3.064a.993.993,0,0,1-1.559-.785,1.111,1.111,0,0,1,.679-1.035c.9-.554,1.78-1.127,2.79-1.769-6.667-2.49-13.157-3.335-19.677-.062.753.57,1.525,1.051,2.3,1.531a1.013,1.013,0,0,1,.472,1.451,1.039,1.039,0,0,1-1.5.292c-.59-.351-1.179-.707-1.751-1.086A28.381,28.381,0,0,1,17.287,81a1.729,1.729,0,0,0-1.921-.765,3.1,3.1,0,0,0-1.866,1.42,16.675,16.675,0,0,0-2.469,8.178,21.212,21.212,0,0,0,2.316,11.8,1.259,1.259,0,0,1,.183.59c-.077,1.752-.088,3.513-.289,5.251a38.1,38.1,0,0,1-1.95,8.39.88.88,0,0,0,.055.69c.5.74,1.057,1.444,1.592,2.161,1.167,1.548,2.235,3.185,3.528,4.619a11.345,11.345,0,0,0,5.449,3.079c.509.148.913.38.922,1a1,1,0,0,1-.906,1.062,14,14,0,0,1-8.372-5.389c-1.367-1.859-2.689-3.752-4.076-5.6a1.757,1.757,0,0,1-.277-1.888,37.835,37.835,0,0,0,2.344-12.585,1.808,1.808,0,0,0-.194-.809A23.849,23.849,0,0,1,9.135,88.58a20.048,20.048,0,0,1,2.006-6.93,5.822,5.822,0,0,1,3.576-3.327,4.207,4.207,0,0,1,3.545.631,1.425,1.425,0,0,1,.379.419,21.586,21.586,0,0,0,5.242,5.6,16.951,16.951,0,0,1,7.124-2.6,28.8,28.8,0,0,1,15.428,2.221,2.083,2.083,0,0,1,.349.192,3.24,3.24,0,0,1,.265.215,21.866,21.866,0,0,0,4.858-5.309,1.743,1.743,0,0,1,.576-.533,4.378,4.378,0,0,1,5.821,1.2,13.433,13.433,0,0,1,2.544,5.629,23.983,23.983,0,0,1-1.741,16.654,1.279,1.279,0,0,0-.149.594,40.473,40.473,0,0,0,1.764,10.633c.221.687.474,1.365.738,2.038a1.21,1.21,0,0,1-.123,1.238c-1.524,2.169-3,4.371-4.562,6.514a13.986,13.986,0,0,1-7.85,5.113A2.482,2.482,0,0,1,48.357,128.791Z" transform="translate(-8.941 -8.386)"/><path class="cls-6" d="M40.4,127.12a1.02,1.02,0,0,1,1.328,1.311,1.426,1.426,0,0,1-.571.589c-.595.339-1.232.6-1.827.942a1.109,1.109,0,0,0-.473.559A3.632,3.632,0,0,1,36.1,133.2v.964c0,.876,0,.872.832,1.087a4.732,4.732,0,0,0,4.828-1.288,14.461,14.461,0,0,0,2.606-3.6c.494-.949,1.191-1.056,1.933-.286a4.2,4.2,0,0,1-.186,1.244,13.173,13.173,0,0,1-3.14,4.229,20.733,20.733,0,0,1-2.051,1.418,7.682,7.682,0,0,1-5.364-.024.972.972,0,0,0-.587,0,7.563,7.563,0,0,1-5.626-.089,12.929,12.929,0,0,1-5.069-5.788,2.555,2.555,0,0,1-.045-.989c.761-.773,1.414-.673,1.929.29a13.542,13.542,0,0,0,3,3.936,4.685,4.685,0,0,0,4.609.9.524.524,0,0,0,.3-.382c.035-.529.014-1.062.014-1.608A4.1,4.1,0,0,1,31,130.384a.9.9,0,0,0-.359-.4c-.466-.3-.951-.562-1.427-.842-.669-.394-.895-.786-.759-1.313.131-.51.553-.745,1.319-.735.389.239.764.5,1.167.711a3.767,3.767,0,0,1,2.18,2.3c.306,1.028,1.186,1.3,2.526,1.118.7-.093,1.153-.578,1.315-1.588a1.513,1.513,0,0,1,.955-1.229C38.755,128,39.572,127.548,40.4,127.12Z" transform="translate(-8.941 -8.386)"/><path class="cls-5" d="M29.341,136.854a7.563,7.563,0,0,0,5.626.089.972.972,0,0,1,.587,0,7.682,7.682,0,0,0,5.364.024,4.121,4.121,0,0,1-.671,2.869c-.386-.867-.869-1.075-1.66-.656a6.577,6.577,0,0,1-6.5-.006c-.834-.439-1.434-.128-1.637.8A5.285,5.285,0,0,1,29.341,136.854Z" transform="translate(-8.941 -8.386)"/><path class="cls-6" d="M30.451,139.973c.2-.926.8-1.237,1.637-.8a6.577,6.577,0,0,0,6.5.006c.791-.419,1.274-.211,1.66.656a1.291,1.291,0,0,1-.867,1.215,8.641,8.641,0,0,1-8.251-.1A1.141,1.141,0,0,1,30.451,139.973Z" transform="translate(-8.941 -8.386)"/><path class="cls-7" d="M12.938,118.719c-.535-.717-1.09-1.421-1.592-2.161a.88.88,0,0,1-.055-.69,38.1,38.1,0,0,0,1.95-8.39c.2-1.738.212-3.5.289-5.251a1.259,1.259,0,0,0-.183-.59,21.212,21.212,0,0,1-2.316-11.8A16.675,16.675,0,0,1,13.5,81.658a3.1,3.1,0,0,1,1.866-1.42A1.729,1.729,0,0,1,17.287,81a28.381,28.381,0,0,0,7.931,7.434c.572.379,1.161.735,1.751,1.086a1.039,1.039,0,0,0,1.5-.292A1.013,1.013,0,0,0,28,87.78c-.773-.48-1.545-.961-2.3-1.531,6.52-3.273,13.01-2.428,19.677.062-1.01.642-1.894,1.215-2.79,1.769a1.111,1.111,0,0,0-.679,1.035.993.993,0,0,0,1.559.785c1.519-.986,3.05-1.966,4.488-3.064A23.021,23.021,0,0,0,53.4,81.089a1.764,1.764,0,0,1,1.882-.484,3.137,3.137,0,0,1,1.643,1.274,13.6,13.6,0,0,1,2.2,5.661A22.217,22.217,0,0,1,57.9,100.448a1.223,1.223,0,0,1-.091.209c-.99,1.443-.876,3.038-.739,4.676a43.911,43.911,0,0,0,1.415,8.094c.234.844.55,1.666.8,2.507a.845.845,0,0,1-.032.627c-.572.855-1.185,1.682-1.784,2.519a31.084,31.084,0,0,0-1-4.092,7.543,7.543,0,0,0-7.765-4.975l-.743.024a2.385,2.385,0,0,0-.509-.526,9.494,9.494,0,0,0-6.526-1.308,3.767,3.767,0,0,0-3.243,2.845,9.858,9.858,0,0,0-.07,1.919,15.609,15.609,0,0,0-.321,1.765,18.244,18.244,0,0,0,.829,7.118c.356,1.06-.2,1.6-1.322,1.5A26.43,26.43,0,0,0,33.2,123.3c-1.189.059-1.686-.532-1.268-1.638a17.069,17.069,0,0,0,.751-7.792.743.743,0,0,0-.085-.206c.031-.089.061-.178.093-.267a3.991,3.991,0,0,0-1.031-4.579,5.041,5.041,0,0,0-3.005-1.091,10.4,10.4,0,0,0-5.46,1.372c-.22.114-.369.365-.551.552a6.794,6.794,0,0,0-4.893,2.124,21.793,21.793,0,0,0-4.682,6.7C13.028,118.552,12.982,118.635,12.938,118.719ZM55.946,83.958a5.945,5.945,0,0,0,0-.743.867.867,0,0,0-.778-.853.948.948,0,0,0-1.139.631,4.311,4.311,0,0,0-.129.672c-.622,4.1-2.585,7.245-6.452,9.025a1.082,1.082,0,0,0-.787,1.071c.031.6.45.807.951.992a23.659,23.659,0,0,1,2.85,1.173c1.886.989,3.484,2.272,4.039,4.489a.962.962,0,0,0,1.209.594c.557-.166.713-.46.7-1.322.112-.216.242-.425.332-.65A17.157,17.157,0,0,0,57.487,88.4,46.441,46.441,0,0,0,55.946,83.958Zm-41.678,16.16a.961.961,0,0,0,.972.934,1.025,1.025,0,0,0,1.032-.891,5.091,5.091,0,0,1,1.369-2.341,12.369,12.369,0,0,1,5.47-3.077c.5-.15.886-.415.935-.953a1.073,1.073,0,0,0-.755-1.093,12.478,12.478,0,0,1-1.612-.856,11.373,11.373,0,0,1-4.936-8.454c-.089-.656-.337-.972-.867-1.03-.593-.065-.894.151-1.123.805a2.51,2.51,0,0,0-.334.424,19.034,19.034,0,0,0-1.891,11.987,33.689,33.689,0,0,0,1.351,4.349C13.92,100.048,13.948,100.44,14.268,100.118Z" transform="translate(-8.941 -8.386)"/><path class="cls-6" d="M22.645,109.646c.182-.187.331-.438.551-.552a10.4,10.4,0,0,1,5.46-1.372,5.041,5.041,0,0,1,3.005,1.091,3.991,3.991,0,0,1,1.031,4.579c-.032.089-.062.178-.093.267-.208.468-.386.953-.632,1.4a.986.986,0,0,1-1.36.459A1.021,1.021,0,0,1,30.2,114.1a10.561,10.561,0,0,0,.618-1.469c.466-1.651-.246-2.661-1.965-2.86A8.083,8.083,0,0,0,24.3,110.8a1.129,1.129,0,0,1-1.283.028A1.047,1.047,0,0,1,22.645,109.646Z" transform="translate(-8.941 -8.386)"/><path class="cls-6" d="M37.608,112.967a9.858,9.858,0,0,1,.07-1.919,3.767,3.767,0,0,1,3.243-2.845,9.494,9.494,0,0,1,6.526,1.308,2.385,2.385,0,0,1,.509.526c-.012.075-.029.149-.034.224a1.006,1.006,0,0,1-1.585.921,8.339,8.339,0,0,0-4.551-1.075,4.013,4.013,0,0,0-1.048.259,1.685,1.685,0,0,0-1.14,2.1,11.085,11.085,0,0,0,.7,1.923,1.038,1.038,0,0,1-.38,1.472.964.964,0,0,1-1.379-.51C38.177,114.578,37.913,113.763,37.608,112.967Z" transform="translate(-8.941 -8.386)"/><path class="cls-8" d="M40.4,127.12c-.826.428-1.643.877-2.483,1.277a1.513,1.513,0,0,0-.955,1.229c-.162,1.01-.619,1.5-1.315,1.588-1.34.18-2.22-.09-2.526-1.118a3.767,3.767,0,0,0-2.18-2.3c-.4-.21-.778-.472-1.167-.711a9.044,9.044,0,0,1,3.874-1.012A15.1,15.1,0,0,1,40.4,127.12Z" transform="translate(-8.941 -8.386)"/><path class="cls-6" d="M26.365,116.4a2.007,2.007,0,1,1,2.013-1.982A2,2,0,0,1,26.365,116.4Z" transform="translate(-8.941 -8.386)"/><path class="cls-6" d="M44.383,112.618a2.015,2.015,0,1,1-1.982,2.008A1.979,1.979,0,0,1,44.383,112.618Z" transform="translate(-8.941 -8.386)"/><path class="cls-5" d="M14.268,100.118c-.32.322-.348-.07-.389-.2a33.689,33.689,0,0,1-1.351-4.349,19.034,19.034,0,0,1,1.891-11.987,2.464,2.464,0,0,1,.334-.423,3.15,3.15,0,0,0-.008.4,13.678,13.678,0,0,0,3.229,7.671c.73.84,1.606,1.553,2.322,2.235-1.145.774-2.415,1.508-3.539,2.422A6.453,6.453,0,0,0,14.268,100.118Z" transform="translate(-8.941 -8.386)"/><path class="cls-5" d="M55.946,83.958A46.441,46.441,0,0,1,57.487,88.4a17.157,17.157,0,0,1-.742,10.635c-.09.225-.22.434-.332.65-.946-3.158-3.378-4.837-6.212-6.165.148-.115.249-.2.354-.274a12.519,12.519,0,0,0,3.479-3.823A15.882,15.882,0,0,0,55.946,83.958Z" transform="translate(-8.941 -8.386)"/><path class="cls-6" d="M55.946,83.958a15.882,15.882,0,0,1-1.912,5.467,12.519,12.519,0,0,1-3.479,3.823c-.1.076-.206.159-.354.274,2.834,1.328,5.266,3.007,6.212,6.165.014.862-.142,1.156-.7,1.322a.962.962,0,0,1-1.209-.594c-.555-2.217-2.153-3.5-4.039-4.489a23.659,23.659,0,0,0-2.85-1.173c-.5-.185-.92-.394-.951-.992a1.082,1.082,0,0,1,.787-1.071c3.867-1.78,5.83-4.923,6.452-9.025a4.311,4.311,0,0,1,.129-.672.948.948,0,0,1,1.139-.631.867.867,0,0,1,.778.853A5.945,5.945,0,0,1,55.946,83.958Z" transform="translate(-8.941 -8.386)"/><path class="cls-6" d="M14.268,100.118a6.453,6.453,0,0,1,2.489-4.227c1.124-.914,2.394-1.648,3.539-2.422-.716-.682-1.592-1.395-2.322-2.235a13.678,13.678,0,0,1-3.229-7.671,3.15,3.15,0,0,1,.008-.4c.229-.655.53-.871,1.123-.806.53.058.778.374.867,1.03a11.373,11.373,0,0,0,4.936,8.454,12.478,12.478,0,0,0,1.612.856,1.073,1.073,0,0,1,.755,1.093c-.049.538-.434.8-.935.953a12.369,12.369,0,0,0-5.47,3.077,5.091,5.091,0,0,0-1.369,2.341,1.025,1.025,0,0,1-1.032.891A.961.961,0,0,1,14.268,100.118Z" transform="translate(-8.941 -8.386)"/><path class="cls-9" d="M153.174,135.006h-.834c-.345-.4-.765-.8-.527-1.4.609-1.54,1.166-3.106,1.884-4.594a33.732,33.732,0,0,1,1.939-3.142l.043-.078-.077.042a7.417,7.417,0,0,0-2.719,2.716,25.536,25.536,0,0,0-1.32,3.068,1.005,1.005,0,1,1-1.934-.549c.057-.245.124-.487.192-.728a12.628,12.628,0,0,1,2.311-4.249l.046-.08-.084.044a3.031,3.031,0,0,0-.59.35q-.984.941-1.931,1.92a1.125,1.125,0,0,1-1.5.252,1.026,1.026,0,0,1-.089-1.5,20.928,20.928,0,0,1,1.51-1.6c.4-.39.836-.737,1.256-1.1l.129-.114-.174.055a8.36,8.36,0,0,0-4.189,4.533,12.347,12.347,0,0,0-.445,4.588,2.306,2.306,0,0,1-.347,1.581c-1.139.385-1.73-.281-1.657-1.339.085-1.218.028-2.445.111-3.662a7.489,7.489,0,0,1,1.163-3.374.876.876,0,0,0,.083-.854,51.029,51.029,0,0,0-4.524-9.207,1.285,1.285,0,0,1-.231-1.351c.276-.541.787-.55,1.307-.548q6,.025,11.995.041h.7c-.285-.52-.516-.96-.769-1.386a.458.458,0,0,0-.279-.171,3.5,3.5,0,0,1-2.3-1.813,13.437,13.437,0,0,1-1.524-4.726,7.867,7.867,0,0,0-.627-2.025,33.589,33.589,0,0,1-2.373-7.5,2.191,2.191,0,0,1-.021-.695,1.025,1.025,0,0,1,.828-.939.992.992,0,0,1,1.142.5c.17.3.285.629.454,1.011.143-.675.237-1.3.411-1.906A12.483,12.483,0,0,1,157,86.68a17.406,17.406,0,0,1,15.229.413,12.487,12.487,0,0,1,6.735,8.692c.1-.059.19-.116.282-.17a1.019,1.019,0,0,1,1.626.9,18.066,18.066,0,0,1-.606,3.125c-.337,1.229-.843,2.413-1.165,3.645-.233.892-.225,1.844-.43,2.745-.339,1.486-.69,2.977-1.172,4.42a3.464,3.464,0,0,1-2.241,2.51c-1.026.252-1.244,1-1.756,1.757h.711q6.085-.02,12.17-.042a1.253,1.253,0,0,1,1.261.535c.289.5.045.923-.22,1.348a48.169,48.169,0,0,0-4.561,9.376,1.077,1.077,0,0,0,.052.788A9.234,9.234,0,0,1,184.1,131.4c-.008.738,0,1.476,0,2.213,0,1.35-.359,1.645-1.7,1.4a15.247,15.247,0,0,1-.316-1.781c-.064-1,.068-2.032-.083-3.02a8.024,8.024,0,0,0-4.2-5.759.784.784,0,0,0-.277-.085c.948.929,1.96,1.906,2.953,2.9a1.019,1.019,0,0,1,.163,1.286.867.867,0,0,1-1.1.414,2.2,2.2,0,0,1-.724-.537c-.745-.667-1.48-1.346-2.218-2.02l-.232-.117-.074-.043.044.072.213.153a2.094,2.094,0,0,0,.2.405,10.8,10.8,0,0,1,2.1,4.364,1,1,0,0,1-.074.767,1.662,1.662,0,0,1-.926.559.848.848,0,0,1-.914-.732,9.471,9.471,0,0,0-1.615-3.514,5.9,5.9,0,0,0-2.248-2.03c.092.155.159.292.247.415a27.5,27.5,0,0,1,3.366,6.549,1.562,1.562,0,0,1-.207,1.755l-1.274.007c-.109-.263-.233-.521-.324-.79a26.341,26.341,0,0,0-4.491-8.082.947.947,0,0,0-1.348-.33,10.986,10.986,0,0,1-6.34.952c-1.381-.234-2.731-.65-4.2-1.009a19.709,19.709,0,0,0-4.649,8.018,7.3,7.3,0,0,1-.489,1.033Zm1.676-25.176h-.131l.063.067a11.882,11.882,0,0,0,2.585,5,8.414,8.414,0,0,0,12.205,1.22,12.277,12.277,0,0,0,3.634-5.312c.137-.373.25-.754.39-1.177-4.613,1.344-6.405,1.088-9.782-1.364a9.658,9.658,0,0,1-3.325,1.854A8.557,8.557,0,0,1,154.85,109.83Zm-7.714,14.489a1.036,1.036,0,0,0,.137-.093,11.965,11.965,0,0,1,7.234-3.118,1.933,1.933,0,0,1,1.462.41,21.567,21.567,0,0,0,2.184,1.544,10.8,10.8,0,0,0,7.731,1.625,13.915,13.915,0,0,0,6.283-3.131,1.821,1.821,0,0,1,1.329-.456,11.355,11.355,0,0,1,5.24,1.567c.854.522,1.646,1.145,2.424,1.693l3.656-7.637H184.2c-3.921.007-7.843.019-11.764.012a1.278,1.278,0,0,0-.968.4,10.361,10.361,0,0,1-7.607,3.09,10.58,10.58,0,0,1-7.2-3.122,1.293,1.293,0,0,0-.8-.341c-3.941-.028-7.882-.029-11.823-.033-.181,0-.362.026-.53.04Zm17.073-37.011c-.6,0-1.207-.043-1.8.012a15.786,15.786,0,0,0-2,.332c-5.378,1.212-9.3,5.42-9.208,11,.02,1.139,0,1.124,1.161,1.1a.971.971,0,0,0,1-.739c.542-1.367,1.155-2.707,1.794-4.032.388-.8.764-.932,1.609-.654a11.13,11.13,0,0,0,6.132.207,37.581,37.581,0,0,1,9-1.338,1.224,1.224,0,0,1,1.321.8c.635,1.663,1.3,3.317,1.907,4.989.289.791.45.945,1.234.715.373-.109.788-.212.807-.767a10.339,10.339,0,0,0-4.411-9.128A13.355,13.355,0,0,0,164.209,87.308Zm13.343,14.145a7.055,7.055,0,0,1-4.042.03,27.934,27.934,0,0,0-4.533-.54,4.571,4.571,0,0,0-4.257,2.357,1,1,0,0,1-1.663.144c-.129-.144-.233-.31-.355-.461a4.545,4.545,0,0,0-2.518-1.689,12.738,12.738,0,0,0-6.036.163,6.436,6.436,0,0,1-2.973.271c-.33-.067-.658-.143-.985-.214-.02.093-.043.135-.033.166a9.4,9.4,0,0,0,4.83,5.963,6.522,6.522,0,0,0,3.691.786,7.294,7.294,0,0,0,4.411-2.25,1.015,1.015,0,0,1,1.61.08,6.637,6.637,0,0,0,6.275,2.062,7.8,7.8,0,0,0,4.776-3.169A10.332,10.332,0,0,0,177.552,101.453Zm-22.133-2.344c3.062-.159,6.037-.358,8.352,2.061,2.66-2.856,5.963-2.384,9.371-1.917-.461-1.188-.921-2.307-1.327-3.446a.741.741,0,0,0-.94-.578c-1.816.281-3.662.425-5.449.828-2.819.635-5.609,1.24-8.492.441a.414.414,0,0,0-.365.156C156.178,97.447,155.815,98.253,155.419,99.109Z" transform="translate(-8.941 -8.386)"/><path class="cls-10" d="M153.366,134.808a7.3,7.3,0,0,0,.489-1.033,19.709,19.709,0,0,1,4.649-8.018c1.465.359,2.815.775,4.2,1.009a10.986,10.986,0,0,0,6.34-.952.947.947,0,0,1,1.348.33,26.341,26.341,0,0,1,4.491,8.082c.091.269.215.527.324.79a4.187,4.187,0,0,1-.458.049q-10.479,0-20.958,0c-.134,0-.269-.022-.4-.034Z" transform="translate(-8.941 -8.386)"/><path class="cls-11" d="M145.721,135.012a2.306,2.306,0,0,0,.347-1.581,12.347,12.347,0,0,1,.445-4.588,8.36,8.36,0,0,1,4.189-4.533c.016.019.031.039.045.059-.42.367-.859.714-1.256,1.1a20.928,20.928,0,0,0-1.51,1.6,1.026,1.026,0,0,0,.089,1.5,1.125,1.125,0,0,0,1.5-.252q.945-.98,1.931-1.92a3.031,3.031,0,0,1,.59-.35l.038.036a12.628,12.628,0,0,0-2.311,4.249c-.068.241-.135.483-.192.728a1.005,1.005,0,1,0,1.934.549,25.536,25.536,0,0,1,1.32-3.068,7.417,7.417,0,0,1,2.719-2.716l.034.036a33.732,33.732,0,0,0-1.939,3.142c-.718,1.488-1.275,3.054-1.884,4.594-.238.6.182,1,.527,1.4-1.588.016-3.175.036-4.763.043C146.958,135.051,146.339,135.025,145.721,135.012Z" transform="translate(-8.941 -8.386)"/><path class="cls-11" d="M176.477,135.009a1.562,1.562,0,0,0,.207-1.755,27.5,27.5,0,0,0-3.366-6.549c-.088-.123-.155-.26-.247-.415a5.9,5.9,0,0,1,2.248,2.03,9.471,9.471,0,0,1,1.615,3.514.848.848,0,0,0,.914.732,1.662,1.662,0,0,0,.926-.559,1,1,0,0,0,.074-.767,10.8,10.8,0,0,0-2.1-4.364,2.094,2.094,0,0,1-.2-.405.526.526,0,0,1,.049-.065c.738.674,1.473,1.353,2.218,2.02a2.2,2.2,0,0,0,.724.537.867.867,0,0,0,1.1-.414,1.019,1.019,0,0,0-.163-1.286c-.993-1-2-1.972-2.953-2.9a.784.784,0,0,1,.277.085,8.024,8.024,0,0,1,4.2,5.759c.151.988.019,2.015.083,3.02a15.247,15.247,0,0,0,.316,1.781Z" transform="translate(-8.941 -8.386)"/><path class="cls-11" d="M153.366,134.808l.018.223-.21-.025Z" transform="translate(-8.941 -8.386)"/><path class="cls-12" d="M147.136,124.319l-3.625-7.554c.168-.014.349-.04.53-.04,3.941,0,7.882.005,11.823.033a1.293,1.293,0,0,1,.8.341,10.58,10.58,0,0,0,7.2,3.122,10.361,10.361,0,0,0,7.607-3.09,1.278,1.278,0,0,1,.968-.4c3.921.007,7.843,0,11.764-.012h.618l-3.656,7.637c-.778-.548-1.57-1.171-2.424-1.693a11.355,11.355,0,0,0-5.24-1.567,1.821,1.821,0,0,0-1.329.456,13.915,13.915,0,0,1-6.283,3.131,10.8,10.8,0,0,1-7.731-1.625,21.567,21.567,0,0,1-2.184-1.544,1.933,1.933,0,0,0-1.462-.41,11.965,11.965,0,0,0-7.234,3.118A1.036,1.036,0,0,1,147.136,124.319Z" transform="translate(-8.941 -8.386)"/><path class="cls-12" d="M164.209,87.308a13.355,13.355,0,0,1,8.538,2.492,10.339,10.339,0,0,1,4.411,9.128c-.019.555-.434.658-.807.767-.784.23-.945.076-1.234-.715-.611-1.672-1.272-3.326-1.907-4.989a1.224,1.224,0,0,0-1.321-.8,37.581,37.581,0,0,0-9,1.338,11.13,11.13,0,0,1-6.132-.207c-.845-.278-1.221-.15-1.609.654-.639,1.325-1.252,2.665-1.794,4.032a.971.971,0,0,1-1,.739c-1.158.028-1.141.043-1.161-1.1-.1-5.578,3.83-9.786,9.208-11a15.786,15.786,0,0,1,2-.332C163,87.265,163.607,87.308,164.209,87.308Z" transform="translate(-8.941 -8.386)"/><path class="cls-11" d="M177.552,101.453a10.332,10.332,0,0,1-1.8,3.7,7.8,7.8,0,0,1-4.776,3.169,6.637,6.637,0,0,1-6.275-2.062,1.015,1.015,0,0,0-1.61-.08,7.294,7.294,0,0,1-4.411,2.25,6.522,6.522,0,0,1-3.691-.786,9.4,9.4,0,0,1-4.83-5.963c-.01-.031.013-.073.033-.166.327.071.655.147.985.214a6.436,6.436,0,0,0,2.973-.271,12.738,12.738,0,0,1,6.036-.163,4.545,4.545,0,0,1,2.518,1.689c.122.151.226.317.355.461a1,1,0,0,0,1.663-.144,4.571,4.571,0,0,1,4.257-2.357,27.934,27.934,0,0,1,4.533.54A7.055,7.055,0,0,0,177.552,101.453Zm-9.506,4.719a1.89,1.89,0,0,0,2.017-1.917,1.992,1.992,0,0,0-1.977-2.061,1.936,1.936,0,0,0-2,2.016A1.865,1.865,0,0,0,168.046,106.172Zm-8.044,0a1.86,1.86,0,0,0,2.033-1.941,1.935,1.935,0,0,0-1.983-2.036,2,2,0,0,0-1.994,1.991A1.882,1.882,0,0,0,160,106.171Z" transform="translate(-8.941 -8.386)"/><path class="cls-13" d="M154.85,109.829a8.551,8.551,0,0,0,5.639.294,9.658,9.658,0,0,0,3.325-1.854c3.377,2.452,5.169,2.708,9.782,1.364-.14.423-.253.8-.39,1.177a12.277,12.277,0,0,1-3.634,5.312,8.414,8.414,0,0,1-12.205-1.22,11.882,11.882,0,0,1-2.585-5C154.805,109.875,154.828,109.853,154.85,109.829Zm9.184,4.334c1.064-.227,2.129-.413,3.169-.691a1,1,0,0,0,.817-1.3,1.018,1.018,0,0,0-1.466-.593,7.332,7.332,0,0,1-5.011-.008,1,1,0,0,0-1.427.57.982.982,0,0,0,.77,1.326C161.906,113.743,162.951,113.928,164.034,114.163Z" transform="translate(-8.941 -8.386)"/><path class="cls-13" d="M155.419,99.109c.4-.856.759-1.662,1.15-2.455a.414.414,0,0,1,.365-.156c2.883.8,5.673.194,8.492-.441,1.787-.4,3.633-.547,5.449-.828a.741.741,0,0,1,.94.578c.406,1.139.866,2.258,1.327,3.446-3.408-.467-6.711-.939-9.371,1.917C161.456,98.751,158.481,98.95,155.419,99.109Z" transform="translate(-8.941 -8.386)"/><path class="cls-11" d="M150.7,124.31l.174-.055-.129.114C150.733,124.349,150.718,124.329,150.7,124.31Z" transform="translate(-8.941 -8.386)"/><path class="cls-11" d="M176.552,126.471l-.213-.153.03-.029.232.117A.526.526,0,0,0,176.552,126.471Z" transform="translate(-8.941 -8.386)"/><path class="cls-13" d="M154.782,109.9l-.063-.067h.131C154.828,109.853,154.805,109.875,154.782,109.9Z" transform="translate(-8.941 -8.386)"/><path class="cls-11" d="M155.6,125.832l.077-.042-.043.078Z" transform="translate(-8.941 -8.386)"/><path class="cls-11" d="M152.094,126.054l.084-.044-.046.08Z" transform="translate(-8.941 -8.386)"/><path class="cls-11" d="M176.339,126.318l-.044-.072.074.043Z" transform="translate(-8.941 -8.386)"/><path class="cls-9" d="M168.046,106.172a1.865,1.865,0,0,1-1.964-1.962,1.936,1.936,0,0,1,2-2.016,1.992,1.992,0,0,1,1.977,2.061A1.89,1.89,0,0,1,168.046,106.172Z" transform="translate(-8.941 -8.386)"/><path class="cls-9" d="M160,106.171a1.882,1.882,0,0,1-1.944-1.986,2,2,0,0,1,1.994-1.991,1.935,1.935,0,0,1,1.983,2.036A1.86,1.86,0,0,1,160,106.171Z" transform="translate(-8.941 -8.386)"/><path class="cls-9" d="M164.034,114.163c-1.083-.235-2.128-.42-3.148-.7a.982.982,0,0,1-.77-1.326,1,1,0,0,1,1.427-.57,7.332,7.332,0,0,0,5.011.008,1.018,1.018,0,0,1,1.466.593,1,1,0,0,1-.817,1.3C166.163,113.75,165.1,113.936,164.034,114.163Z" transform="translate(-8.941 -8.386)"/><path class="cls-14" d="M58.6,35.091c-.1,1.6-.215,3.2-.288,4.807-.062,1.356-.067,2.714-.107,4.071a1.351,1.351,0,0,1-2.675.329q-1.443-5.264-2.877-10.53a4.154,4.154,0,0,1,.128-2.455c.484-1.468.92-2.952,1.4-4.517-1.043,0-2.02,0-3,0-.741,0-1.118-.248-1.231-.8-.108-.527.177-.942.835-1.211,1.486-.607,2.965-1.234,4.463-1.809a1.235,1.235,0,0,0,.87-.982,19.135,19.135,0,0,1,5.128-9.351,14.841,14.841,0,0,1,10.39-4.251,12.037,12.037,0,0,1,7.283,1.976A11.946,11.946,0,0,1,83.709,18a14.259,14.259,0,0,1,.277,1.72.792.792,0,0,0,.564.749c3.462,1.4,6.915,2.814,10.371,4.225.107.044.215.087.322.132a1.012,1.012,0,0,1,.694,1.143.973.973,0,0,1-1.095.822q-4.107,0-8.213,0H85.9c.1,1.269.231,2.512.282,3.759A24.508,24.508,0,0,1,83.8,42.107c-.629,1.343-1.429,2.605-2.151,3.905a34.722,34.722,0,0,1-4.666,5.347c-1.115.9-2.22,1.818-3.347,2.7a1.032,1.032,0,0,1-1.6-.07,45.7,45.7,0,0,1-6.725-7.377,29.1,29.1,0,0,1-4.581-9.629c-.284-1.162-.451-2.353-.671-3.53-.017-.87-.091-1.743-.037-2.609.082-1.341.252-2.677.388-4.052-1.183,0-2.4.021-3.623-.011-.416-.011-.568.139-.677.514-.446,1.543-.948,3.071-1.374,4.619a3.076,3.076,0,0,0-.08,1.461c.382,1.6.851,3.178,1.288,4.765.1.36.2.718.306,1.077a1.663,1.663,0,0,0,.079-.548c.073-1.215.1-2.436.246-3.643a.916.916,0,0,1,1.061-.916A.978.978,0,0,1,58.6,35.091ZM89.527,24.78l.021-.083c-.192-.082-.382-.165-.575-.245-2.043-.839-4.085-1.683-6.133-2.512a1.209,1.209,0,0,1-.769-1.049,28.66,28.66,0,0,0-.951-4.41,8.451,8.451,0,0,0-5.84-5.624,12.877,12.877,0,0,0-8.056.36c-3.838,1.374-6.287,4.21-7.955,7.809-.385.831-.674,1.706-1.008,2.561l.136.1c1.07-.433,2.135-.881,3.214-1.292a.822.822,0,0,0,.548-.659c.206-.8.436-1.607.7-2.395a.981.981,0,0,1,1.312-.71,1.028,1.028,0,0,1,.583,1.381c-.275.967-.548,1.936-.771,2.915a1.321,1.321,0,0,1-.876,1.047c-1.93.759-3.848,1.547-5.766,2.336a2.359,2.359,0,0,0-.455.328l.092.142ZM62.451,27.605a17.408,17.408,0,0,0-.232,6.622,23.425,23.425,0,0,0,2.9,8.287,38.477,38.477,0,0,0,7.369,9.164.6.6,0,0,0,.971,0c1.449-1.37,2.975-2.668,4.336-4.12a23.959,23.959,0,0,0,5.009-8.312,24.707,24.707,0,0,0,1.363-6.692c.038-.522.034-1.048.02-1.571-.013-.542-.054-1.083-.1-1.623-.04-.5-.1-1-.148-1.493a7.3,7.3,0,0,1-4.827,5.826,17.251,17.251,0,0,1-11.015.354A7.171,7.171,0,0,1,62.451,27.605Zm19.473-.775h-17.4a4.919,4.919,0,0,0,3,4.849,11.516,11.516,0,0,0,4.514.98,14.188,14.188,0,0,0,6.667-.977A5.153,5.153,0,0,0,81.924,26.83Z" transform="translate(-8.941 -8.386)"/><path class="cls-3" d="M65.309,46.616a45.7,45.7,0,0,0,6.725,7.377,1.032,1.032,0,0,0,1.6.07c1.127-.886,2.232-1.8,3.346-2.7a17.207,17.207,0,0,1,5.739,1.216,6.628,6.628,0,0,1,4.252,4.914c.254,1.182.4,2.388.593,3.583q-5.467-.021-10.935-.043-10.962-.047-21.924-.1c-.078,0-.154-.012-.232-.018a1.3,1.3,0,0,0,.539-1.138,32,32,0,0,1,.2-4.794,7.693,7.693,0,0,1,6.915-6.859c.509-.066.947-.189,1.121-.75a1.111,1.111,0,0,0-.509-1.245Z" transform="translate(-8.941 -8.386)"/><path class="cls-14" d="M84.072,46.149A9.166,9.166,0,0,1,87.583,47.2c.52.288,1.012.628,1.591.99V46.311c0-1.513-.015-3.027.011-4.539a.952.952,0,0,0-.461-.889,5.748,5.748,0,0,1-2.428-6.1,5.683,5.683,0,0,1,4.386-4.617A5.993,5.993,0,0,1,95.587,40.9a.885.885,0,0,0-.44.835q.019,9.021.008,18.042c0,.964-.337,1.288-1.3,1.258a1.335,1.335,0,0,1-.716-1.339c.017-5.785.01-11.57.01-17.354v-.708H91.181v.712q0,8.736,0,17.471c0,.754-.4,1.226-1.019,1.224-.675,0-.991-.383-.991-1.21,0-2.7.008-5.4-.013-8.094a1.524,1.524,0,0,0-.29-.9,7.079,7.079,0,0,0-4.477-2.585c-.578-.089-1-.31-1.121-.913C83.168,46.85,83.452,46.44,84.072,46.149ZM92.218,39.6l.006.061a5.535,5.535,0,0,0,1.87-.229,3.74,3.74,0,0,0,2.07-3.347,4.017,4.017,0,0,0-3.19-4.036,4.11,4.11,0,0,0-4.562,2.485c-.849,1.944.585,5.61,3.4,5.069A2.21,2.21,0,0,1,92.218,39.6Z" transform="translate(-8.941 -8.386)"/><path class="cls-15" d="M84.072,46.149c-.62.291-.9.7-.8,1.189.125.6.543.824,1.121.913a7.079,7.079,0,0,1,4.477,2.585,1.524,1.524,0,0,1,.29.9c.021,2.7.011,5.4.013,8.094,0,.827.316,1.209.991,1.21.619,0,1.019-.47,1.019-1.224q0-8.735,0-17.471v-.712h1.968v.708c0,5.784.007,11.569-.01,17.354a1.335,1.335,0,0,0,.716,1.339q-2.93.063-5.86.121a2.2,2.2,0,0,1-.433-.081c-.194-1.2-.339-2.4-.593-3.583a6.628,6.628,0,0,0-4.252-4.914,17.207,17.207,0,0,0-5.739-1.216,34.674,34.674,0,0,0,4.667-5.347Z" transform="translate(-8.941 -8.386)"/><path class="cls-3" d="M58.6,35.091a.978.978,0,0,0-.961-.977.916.916,0,0,0-1.061.916c-.145,1.207-.173,2.428-.246,3.643a1.663,1.663,0,0,1-.079.548c-.1-.359-.207-.717-.306-1.077-.437-1.587-.906-3.166-1.288-4.765a3.076,3.076,0,0,1,.08-1.461c.426-1.548.928-3.076,1.374-4.619.109-.375.261-.525.677-.514,1.219.032,2.44.011,3.623.011-.136,1.375-.306,2.711-.388,4.052-.054.866.02,1.739.037,2.609Z" transform="translate(-8.941 -8.386)"/><path class="cls-14" d="M62.732,46.127a1.111,1.111,0,0,1,.509,1.245c-.174.561-.612.684-1.121.75a7.693,7.693,0,0,0-6.915,6.859,32,32,0,0,0-.2,4.794,1.3,1.3,0,0,1-.539,1.138c-.909.157-1.4-.115-1.479-.9a15.627,15.627,0,0,1,1.139-8.34,9.429,9.429,0,0,1,8.024-5.577A3.049,3.049,0,0,1,62.732,46.127Z" transform="translate(-8.941 -8.386)"/><path class="cls-3" d="M89.527,24.78H56.979l-.092-.142a2.359,2.359,0,0,1,.455-.328c1.918-.789,3.836-1.577,5.766-2.336a1.321,1.321,0,0,0,.876-1.047c.223-.979.5-1.948.771-2.915a1.028,1.028,0,0,0-.583-1.381.981.981,0,0,0-1.312.71c-.265.788-.495,1.59-.7,2.395a.822.822,0,0,1-.548.659c-1.079.411-2.144.859-3.214,1.292l-.136-.1c.334-.855.623-1.73,1.008-2.561,1.668-3.6,4.117-6.435,7.955-7.809a12.877,12.877,0,0,1,8.056-.36,8.451,8.451,0,0,1,5.84,5.624,28.66,28.66,0,0,1,.951,4.41,1.209,1.209,0,0,0,.769,1.049c2.048.829,4.09,1.673,6.133,2.512.193.08.383.163.575.245Z" transform="translate(-8.941 -8.386)"/><path class="cls-15" d="M62.451,27.605A7.171,7.171,0,0,0,68.1,34.042a17.251,17.251,0,0,0,11.015-.354,7.3,7.3,0,0,0,4.827-5.826c.05.5.108,1,.148,1.493.042.54.083,1.081.1,1.623.014.523.018,1.049-.02,1.571a24.707,24.707,0,0,1-1.363,6.692A23.959,23.959,0,0,1,77.8,47.553c-1.361,1.452-2.887,2.75-4.336,4.12a.6.6,0,0,1-.971,0,38.477,38.477,0,0,1-7.369-9.164,23.425,23.425,0,0,1-2.9-8.287A17.408,17.408,0,0,1,62.451,27.605ZM72.932,39.032a7.437,7.437,0,0,0,3.31-.764,1.025,1.025,0,0,0,.619-1.418,1.013,1.013,0,0,0-1.476-.443,5.3,5.3,0,0,1-4.862.011,1.017,1.017,0,0,0-1.511.463,1.04,1.04,0,0,0,.662,1.4A7.476,7.476,0,0,0,72.932,39.032Z" transform="translate(-8.941 -8.386)"/><path class="cls-16" d="M81.924,26.83A5.153,5.153,0,0,1,78.7,31.682a14.188,14.188,0,0,1-6.667.977,11.516,11.516,0,0,1-4.514-.98,4.919,4.919,0,0,1-3-4.849ZM66.942,29.024a2,2,0,0,0,1.974,2.021,2.017,2.017,0,1,0,0-4.033A1.981,1.981,0,0,0,66.942,29.024Zm12.016.012a2.017,2.017,0,1,0-2,2.009A2.009,2.009,0,0,0,78.958,29.036Z" transform="translate(-8.941 -8.386)"/><path class="cls-15" d="M92.218,39.6a2.21,2.21,0,0,0-.407,0c-2.814.541-4.248-3.125-3.4-5.069a4.11,4.11,0,0,1,4.562-2.485,4.017,4.017,0,0,1,3.19,4.036,3.74,3.74,0,0,1-2.07,3.347,5.535,5.535,0,0,1-1.87.229Zm-2.161-5.968h4.186C92.884,32.374,91.541,32.342,90.057,33.634Z" transform="translate(-8.941 -8.386)"/><path class="cls-14" d="M72.931,39.032a7.475,7.475,0,0,1-3.257-.747,1.04,1.04,0,0,1-.662-1.4,1.017,1.017,0,0,1,1.511-.463,5.3,5.3,0,0,0,4.862-.011,1.013,1.013,0,0,1,1.476.443,1.025,1.025,0,0,1-.619,1.418A7.438,7.438,0,0,1,72.931,39.032Z" transform="translate(-8.941 -8.386)"/><path class="cls-14" d="M66.942,29.024a1.981,1.981,0,0,1,1.972-2.012,2.017,2.017,0,1,1-1.972,2.012Z" transform="translate(-8.941 -8.386)"/><path class="cls-14" d="M78.958,29.036a2.017,2.017,0,1,1-1.974-2.024A2.018,2.018,0,0,1,78.958,29.036Z" transform="translate(-8.941 -8.386)"/><path class="cls-17" d="M161.188,42.806a2.816,2.816,0,0,1,.642,2.482c-.116.005-.232.014-.348.014q-7.976,0-15.949-.006a1.342,1.342,0,0,0-1.428.925c-.681,1.685-1.43,3.342-2.152,5.01l-2.009.575c.165-.9-.226-1.292-1.123-1.409a12.105,12.105,0,0,1-3.268-.7c-1.644-.717-3.177-1.685-4.762-2.539a1.91,1.91,0,0,0-.79-.324,11.737,11.737,0,0,0-6.244,1.508,11.089,11.089,0,0,0-3.043,2.912q-.915-1.034-1.828-2.068c.21-.014.422-.021.631-.044a.983.983,0,0,0,.844-1.307c-.081-.236-.232-.448-.319-.683-.394-1.067-.827-2.123-1.146-3.213a.887.887,0,0,1,.879-1.249,9.27,9.27,0,0,1,2.054.237,1.037,1.037,0,0,0,1.345-1.018,62.689,62.689,0,0,1,.76-6.269c.849-4.11,1.867-8.186,2.836-12.271a22.514,22.514,0,0,1,2.255-6.142c.511-.886.853-1.019,1.821-.694a1.131,1.131,0,0,0,1.382-.42,4.334,4.334,0,0,1,.636-.669,11.278,11.278,0,0,1,4.112-2.107,9.829,9.829,0,0,1,9.372,1.728,15.251,15.251,0,0,1,4.622,6.53c.938,2.453,1.617,5.008,2.357,7.533a97.044,97.044,0,0,1,2.439,12.17c.163,1.032.4,1.245,1.452,1.192a2.451,2.451,0,0,1,2.124.692C160.019,43.919,160.781,43.745,161.188,42.806Zm-9.7-11.442a16.439,16.439,0,0,0-.84-5.49c-.259-.781-.583-.973-1.388-.882-.135.016-.271.012-.407.015a48.045,48.045,0,0,1-8.008-.348,14.768,14.768,0,0,1-5.046-1.483,3.438,3.438,0,0,1-2.182-2.787.831.831,0,0,0-.9-.752c-.617-.017-.849.222-1.169.993-.92,2.218-1.842,4.436-2.832,6.623a5.332,5.332,0,0,1-1.247,1.726,1.737,1.737,0,0,0-.682,1.388c.01.891.014,1.784.09,2.671a16.058,16.058,0,0,0,3.959,9.547,10.7,10.7,0,0,0,16.748-.17A16.59,16.59,0,0,0,151.484,31.364Z" transform="translate(-8.941 -8.386)"/><path class="cls-18" d="M141.953,51.231c.722-1.668,1.471-3.325,2.152-5.01a1.342,1.342,0,0,1,1.428-.925q7.974.017,15.949.006c.116,0,.232-.009.348-.014l7.8.022a4.557,4.557,0,0,1,.523.009,1.013,1.013,0,0,1,.89,1.506q-3.429,8.09-6.869,16.173a1.175,1.175,0,0,1-1.263.707q-9.748-.014-19.5-.006-7.887,0-15.774.005c-.551,0-1.07-.031-1.314-.619a1.175,1.175,0,0,1,.454-1.376l10-.017c.823,0,.878-.046,1.042-.883l1.275-2.939Zm-2.2,10.447c.217.009.347.02.476.02q10.92-.012,21.84-.016a.583.583,0,0,0,.632-.433c.91-2.178,1.836-4.349,2.759-6.521,1.034-2.432,2.071-4.864,3.136-7.366h-.631c-2.485-.011-4.969-.029-7.453-.032-4.718,0-9.436,0-14.153-.01a.658.658,0,0,0-.726.476c-1.635,3.89-3.292,7.77-4.942,11.653C140.38,60.173,140.078,60.9,139.75,61.678Z" transform="translate(-8.941 -8.386)"/><path class="cls-18" d="M161.188,42.806c-.407.939-1.169,1.113-1.846.375a2.451,2.451,0,0,0-2.124-.692c-1.051.053-1.289-.16-1.452-1.192a97.044,97.044,0,0,0-2.439-12.17c-.74-2.525-1.419-5.08-2.357-7.533a15.251,15.251,0,0,0-4.622-6.53,9.829,9.829,0,0,0-9.372-1.728,11.278,11.278,0,0,0-4.112,2.107,4.334,4.334,0,0,0-.636.669,1.131,1.131,0,0,1-1.382.42c-.968-.325-1.31-.192-1.821.694a22.514,22.514,0,0,0-2.255,6.142c-.969,4.085-1.987,8.161-2.836,12.271a62.689,62.689,0,0,0-.76,6.269,1.037,1.037,0,0,1-1.345,1.018,9.27,9.27,0,0,0-2.054-.237.887.887,0,0,0-.879,1.249c.319,1.09.752,2.146,1.146,3.213.087.235.238.447.319.683a.983.983,0,0,1-.844,1.307c-.209.023-.421.03-.631.044l0,0L118.726,49a11.877,11.877,0,0,1-1.851-4.894c-.211-2.2.964-3.455,3.173-3.495.346-.006.694,0,1.051,0,.162-1.181.248-2.382.5-3.547.981-4.522,2.011-9.034,3.031-13.548a28.883,28.883,0,0,1,2.13-6.372,9.353,9.353,0,0,1,1.067-1.722,2.8,2.8,0,0,1,2.789-1.063.775.775,0,0,0,.558-.152c4.6-4.017,13.161-5.77,18.987,1.916a26.433,26.433,0,0,1,4.113,8.776,106.055,106.055,0,0,1,3.365,15.247.752.752,0,0,0,.024.123,14.58,14.58,0,0,1,2.183.74C160.539,41.369,161.243,41.836,161.188,42.806Z" transform="translate(-8.941 -8.386)"/><path class="cls-18" d="M120.714,51.253a11.089,11.089,0,0,1,3.043-2.912A11.737,11.737,0,0,1,130,46.833a1.91,1.91,0,0,1,.79.324c1.585.854,3.118,1.822,4.762,2.539a12.105,12.105,0,0,0,3.268.7c.9.117,1.288.51,1.123,1.409a1.008,1.008,0,0,1-1.076.634c-1.144-.161-2.288-.342-3.416-.588a15.84,15.84,0,0,1-1.909-.683c.413.516.73.905,1.04,1.3q1.755,2.236,3.508,4.476a1.071,1.071,0,0,1-.727,1.241c-.566.183-.946-.121-1.285-.552-1.08-1.37-2.178-2.726-3.27-4.087l-3.4-4.239a7.17,7.17,0,0,0-1.975,2.533,2.119,2.119,0,0,0,.082,1.955.819.819,0,0,0,.829.479c1.2-.035,2.405-.025,3.608-.008a1.027,1.027,0,0,1,1.031,1.376c-.153.571-.322,1.138-.494,1.742,1.268.289,2.492.566,3.715.848a1.01,1.01,0,0,1,.888.94.951.951,0,0,1-.7,1.071,3.212,3.212,0,0,1-.673-.01q-2.324-.513-4.639-1.059a1.028,1.028,0,0,1-.86-1.417c.112-.445.235-.887.368-1.39-.988,0-1.918.016-2.847-.01a1.819,1.819,0,0,1-.884-.212,4.06,4.06,0,0,1-1.632-3.925,23.582,23.582,0,0,1,1.083-2.73l.022-.055-.032.044a6.552,6.552,0,0,0-3.933,3.139c-1.456,2.469-1.527,5.187-1.4,7.943a4.1,4.1,0,0,1-.266,1.111c-1.217.379-1.644.107-1.763-1.168a14.72,14.72,0,0,1,1.733-9.084A.608.608,0,0,0,120.714,51.253Z" transform="translate(-8.941 -8.386)"/><path class="cls-17" d="M126.31,49.491a23.582,23.582,0,0,0-1.083,2.73,4.06,4.06,0,0,0,1.632,3.925,1.819,1.819,0,0,0,.884.212c.929.026,1.859.01,2.847.01-.133.5-.256.945-.368,1.39a1.028,1.028,0,0,0,.86,1.417q2.316.544,4.639,1.059a3.212,3.212,0,0,0,.673.01,2.093,2.093,0,0,0,.36.218c.35.127.708.233,1.062.347-.164.837-.219.882-1.042.883l-10,.017-6.074-.036a4.067,4.067,0,0,0,.267-1.111c-.129-2.756-.058-5.474,1.4-7.943A6.552,6.552,0,0,1,126.3,49.48Z" transform="translate(-8.941 -8.386)"/><path class="cls-17" d="M118.726,49l.158.181Z" transform="translate(-8.941 -8.386)"/><path class="cls-18" d="M151.484,31.364a16.59,16.59,0,0,1-3.9,11.051,10.7,10.7,0,0,1-16.748.17,16.058,16.058,0,0,1-3.959-9.547c-.076-.887-.08-1.78-.09-2.671a1.737,1.737,0,0,1,.682-1.388,5.332,5.332,0,0,0,1.247-1.726c.99-2.187,1.912-4.405,2.832-6.623.32-.771.552-1.01,1.169-.993a.831.831,0,0,1,.9.752,3.438,3.438,0,0,0,2.182,2.787,14.768,14.768,0,0,0,5.046,1.483,48.045,48.045,0,0,0,8.008.348c.136,0,.272,0,.407-.015.805-.091,1.129.1,1.388.882A16.439,16.439,0,0,1,151.484,31.364Zm-22.614-.8a2.581,2.581,0,0,0-.061.395c.013.562.013,1.126.059,1.685a14.486,14.486,0,0,0,3.31,8.4c3.819,4.524,9.761,4.617,13.719.21a13.992,13.992,0,0,0,3.458-8.21c.09-.907.014-1.83.014-2.73l-.913.349c0,.37.005.757,0,1.143a3.794,3.794,0,0,1-3.861,3.812c-.5,0-1.01-.02-1.514,0a3.941,3.941,0,0,1-3.9-2.112c-.026.013-.05.018-.06.032-.089.124-.175.252-.264.376a3.782,3.782,0,0,1-3.2,1.7q-1.018.008-2.038,0a3.761,3.761,0,0,1-3.712-3.141c-.1-.605-.088-1.228-.129-1.867Zm1.584-2.064c1.186.1,1.419.358,1.42,1.557,0,.562,0,1.125,0,1.688a1.749,1.749,0,0,0,1.765,1.834q1.019.028,2.038,0a1.788,1.788,0,0,0,1.787-1.832c.008-.349-.01-.7.006-1.048a.975.975,0,0,1,1.029-1.019c.407-.012.815-.008,1.222,0a1.022,1.022,0,0,1,1.118,1.068c.021.329,0,.66,0,.99a1.748,1.748,0,0,0,1.815,1.843c.64.014,1.281.013,1.922,0a1.8,1.8,0,0,0,1.854-1.884c.008-.7-.009-1.4,0-2.1a.968.968,0,0,1,.877-1.052c.623-.043,1.251-.01,1.907-.01l-.325-1.5c-.157-.008-.272-.015-.388-.019-2.458-.085-4.929-.044-7.372-.286-3.078-.305-6.07-1-8.376-3.281Z" transform="translate(-8.941 -8.386)"/><path class="cls-19" d="M139.75,61.678c.328-.78.63-1.5.938-2.229,1.65-3.883,3.307-7.763,4.942-11.653a.658.658,0,0,1,.726-.476c4.717.014,9.435.005,14.153.01,2.484,0,4.968.021,7.453.032h.631c-1.065,2.5-2.1,4.934-3.136,7.366-.923,2.172-1.849,4.343-2.759,6.521a.583.583,0,0,1-.632.433q-10.92-.006-21.84.016C140.1,61.7,139.967,61.687,139.75,61.678Z" transform="translate(-8.941 -8.386)"/><path class="cls-19" d="M138.091,56.945l1,.925-1.275,2.939c-.354-.114-.712-.22-1.062-.347a2.093,2.093,0,0,1-.36-.218.951.951,0,0,0,.7-1.071,1.01,1.01,0,0,0-.888-.94c-1.223-.282-2.447-.559-3.715-.848.172-.6.341-1.171.494-1.742a1.027,1.027,0,0,0-1.031-1.376c-1.2-.017-2.406-.027-3.608.008a.819.819,0,0,1-.829-.479,2.119,2.119,0,0,1-.082-1.955,7.17,7.17,0,0,1,1.975-2.533l3.4,4.239c1.092,1.361,2.19,2.717,3.27,4.087.339.431.719.735,1.285.552A1.071,1.071,0,0,0,138.091,56.945Z" transform="translate(-8.941 -8.386)"/><path class="cls-17" d="M126.3,49.48l.032-.044-.022.055Z" transform="translate(-8.941 -8.386)"/><path class="cls-13" d="M128.87,30.566l.9.046c.041.639.031,1.262.129,1.867a3.761,3.761,0,0,0,3.712,3.141q1.02.009,2.038,0a3.782,3.782,0,0,0,3.2-1.7c.089-.124.175-.252.264-.376.01-.014.034-.019.06-.032a3.941,3.941,0,0,0,3.9,2.112c.5-.024,1.009,0,1.514,0a3.794,3.794,0,0,0,3.861-3.812c.006-.386,0-.773,0-1.143l.913-.349c0,.9.076,1.823-.014,2.73a13.992,13.992,0,0,1-3.458,8.21c-3.958,4.407-9.9,4.314-13.719-.21a14.486,14.486,0,0,1-3.31-8.4c-.046-.559-.046-1.123-.059-1.685A2.581,2.581,0,0,1,128.87,30.566Zm10.218,9.427a7.669,7.669,0,0,0,3.412-.8,1.061,1.061,0,0,0,.551-1.407.991.991,0,0,0-1.388-.44,5.473,5.473,0,0,1-5.027.005,1,1,0,0,0-1.424.464,1.018,1.018,0,0,0,.579,1.387A7.411,7.411,0,0,0,139.088,39.993Z" transform="translate(-8.941 -8.386)"/><path class="cls-13" d="M130.454,28.5l2.31-5.049c2.306,2.282,5.3,2.976,8.376,3.281,2.443.242,4.914.2,7.372.286.116,0,.231.011.388.019l.325,1.5c-.656,0-1.284-.033-1.907.01a.968.968,0,0,0-.877,1.052c-.014.7,0,1.4,0,2.1a1.8,1.8,0,0,1-1.854,1.884c-.641.012-1.282.013-1.922,0a1.748,1.748,0,0,1-1.815-1.843c0-.33.016-.661,0-.99a1.022,1.022,0,0,0-1.118-1.068c-.407-.007-.815-.011-1.222,0a.975.975,0,0,0-1.029,1.019c-.016.349,0,.7-.006,1.048a1.788,1.788,0,0,1-1.787,1.832q-1.019.03-2.038,0a1.749,1.749,0,0,1-1.765-1.834c-.006-.563,0-1.126,0-1.688C131.873,28.86,131.64,28.605,130.454,28.5Zm14.7,1.486a2.019,2.019,0,1,0-2.039,2.019A2.044,2.044,0,0,0,145.155,29.988Zm-8.019.039a2.008,2.008,0,1,0-2.016,1.981A2.025,2.025,0,0,0,137.136,30.027Z" transform="translate(-8.941 -8.386)"/><path class="cls-18" d="M139.088,39.993a7.411,7.411,0,0,1-3.3-.792,1.018,1.018,0,0,1-.579-1.387,1,1,0,0,1,1.424-.464,5.473,5.473,0,0,0,5.027-.005.991.991,0,0,1,1.388.44,1.061,1.061,0,0,1-.551,1.407A7.669,7.669,0,0,1,139.088,39.993Z" transform="translate(-8.941 -8.386)"/><path class="cls-18" d="M145.155,29.988a2.019,2.019,0,1,1-2.03-2.035A2.034,2.034,0,0,1,145.155,29.988Z" transform="translate(-8.941 -8.386)"/><path class="cls-18" d="M137.136,30.027a2.008,2.008,0,1,1-4.015-.085,2.008,2.008,0,1,1,4.015.085Z" transform="translate(-8.941 -8.386)"/></g></g></svg>