<?xml version="1.0" encoding="utf-8"?>
<!-- Generator: Adobe Illustrator 23.0.3, SVG Export Plug-In . SVG Version: 6.00 Build 0)  -->
<svg version="1.1" id="emoji" xmlns="http://www.w3.org/2000/svg" xmlns:xlink="http://www.w3.org/1999/xlink" x="0px" y="0px"
	 viewBox="0 0 72 72" style="enable-background:new 0 0 72 72;" xml:space="preserve">
<style type="text/css">
	.st0{opacity:0.33;}
	.st1{stroke:#000000;stroke-miterlimit:10;}
	.st2{fill:none;stroke:#000000;stroke-width:2;stroke-linecap:round;stroke-linejoin:round;stroke-miterlimit:10;}
	.st3{stroke:#000000;stroke-width:2;stroke-linecap:round;stroke-linejoin:round;stroke-miterlimit:10;}
	.st4{fill:none;stroke:#000000;stroke-width:2;stroke-miterlimit:10;}
	.st5{stroke:#000000;stroke-width:2;stroke-miterlimit:10;}
	.st6{fill:#A82667;}
	.st7{fill:#FCEA2B;}
	.st8{fill:#EDB319;}
	.st9{fill:#A31957;}
	.st10{fill:#84154D;}
</style>
<g id="_xD83C__xDF81__2_" class="st0">
	<path class="st1" d="M48,17c-1.7-3-3.7-4.5-5.9-4.5c-2.6,0-5.3,2.1-8.1,6.1c-0.4,0.5-0.7,1-1,1.5c-0.3-0.5-0.6-1-1-1.5
		c-2.7-4.1-5.5-6.1-8.1-6.1c-2.3,0-4.3,1.5-5.9,4.5c-1.2,2.3-1.1,4-0.5,5c1.1,1.7,3.8,2.7,7.7,3.4c3,0.5,6.1,0.6,7.7,0.6l0,0H33h0.1
		c1.6,0,4.8-0.1,7.7-0.6c3.9-0.7,6.6-1.7,7.7-3.4C49.2,21,49.3,19.3,48,17z"/>
	<rect x="13" y="39" class="st1" width="39" height="25"/>
	<polygon class="st1" points="50.4,38.5 14,38.6 14,44.1 41.1,48 52,49.5 52,38.6 	"/>
	<polygon class="st1" points="26.7,63 39.3,63 39.3,47.3 26.7,44.8 	"/>
	<rect x="11" y="24" class="st1" width="44" height="14"/>
	<rect x="26.7" y="25" class="st1" width="12.6" height="13"/>
	<line class="st2" x1="51.1" y1="24.4" x2="14.4" y2="24.4"/>
	<polyline class="st3" points="14.4,24.4 11,24.4 11,38.5 13.4,38.5 13.4,63.6 52.6,63.6 52.6,38.5 55,38.5 55,24.4 51.1,24.4 	"/>
	<polygon class="st1" points="39.3,38.5 26.7,38.5 26.7,45.9 39.3,47.7 	"/>
	<line class="st2" x1="13.4" y1="38.5" x2="53.4" y2="38.5"/>
	<path class="st3" d="M48,21.3c0.4-1,0.5-2.4-0.5-4.2c-1.6-3-3.5-4.5-5.7-4.5c-2.5,0-5.1,2.1-7.8,6.1c-0.3,0.5-0.7,1-0.9,1.5
		c-0.3-0.5-0.6-1-0.9-1.5c-2.6-4.1-5.3-6.1-7.8-6.1c-2.2,0-4.1,1.5-5.7,4.5c-0.9,1.7-0.9,3-0.6,4"/>
	<line class="st4" x1="39.3" y1="63" x2="39.3" y2="47.3"/>
	<line class="st4" x1="26.7" y1="44.8" x2="26.7" y2="63"/>
	<line class="st4" x1="39.3" y1="38" x2="39.3" y2="25"/>
	<line class="st4" x1="26.7" y1="25" x2="26.7" y2="38"/>
	<polyline class="st5" points="39.3,47.7 39.3,38.5 26.7,38.5 26.7,45.9 	"/>
</g>
<g id="_xD83C__xDF81__1_">
	<path class="st6" d="M51,14c-1.7-3-3.7-4.5-5.9-4.5c-2.6,0-5.3,2.1-8.1,6.1c-0.4,0.5-0.7,1-1,1.5c-0.3-0.5-0.6-1-1-1.5
		c-2.7-4.1-5.5-6.1-8.1-6.1c-2.3,0-4.3,1.5-5.9,4.5c-1.2,2.3-1.1,4-0.5,5c1.1,1.7,3.8,2.7,7.7,3.4c3,0.5,6.1,0.6,7.7,0.6l0,0H36h0.1
		c1.6,0,4.8-0.1,7.7-0.6c3.9-0.7,6.6-1.7,7.7-3.4C52.2,18,52.3,16.3,51,14z"/>
	<rect x="16" y="36" class="st7" width="39" height="25"/>
	<polygon class="st8" points="53.4,35.5 17,35.6 17,41.1 44.1,45 55,46.5 55,35.6 	"/>
	<polygon class="st9" points="29.7,60 42.3,60 42.3,44.3 29.7,41.8 	"/>
	<rect x="14" y="21" class="st7" width="44" height="14"/>
	<rect x="29.7" y="22" class="st9" width="12.6" height="13"/>
	<line class="st2" x1="54.1" y1="21.4" x2="17.4" y2="21.4"/>
	<polyline class="st2" points="17.4,21.4 14,21.4 14,35.5 16.4,35.5 16.4,60.6 55.6,60.6 55.6,35.5 58,35.5 58,21.4 54.1,21.4 	"/>
	<polygon class="st10" points="42.3,35.5 29.7,35.5 29.7,42.9 42.3,44.7 	"/>
	<line class="st2" x1="16.4" y1="35.5" x2="56.4" y2="35.5"/>
	<path class="st2" d="M51,18.3c0.4-1,0.5-2.4-0.5-4.2c-1.6-3-3.5-4.5-5.7-4.5c-2.5,0-5.1,2.1-7.8,6.1c-0.3,0.5-0.7,1-0.9,1.5
		c-0.3-0.5-0.6-1-0.9-1.5c-2.6-4.1-5.3-6.1-7.8-6.1c-2.2,0-4.1,1.5-5.7,4.5c-0.9,1.7-0.9,3-0.6,4"/>
	<line class="st4" x1="42.3" y1="60" x2="42.3" y2="44.3"/>
	<line class="st4" x1="29.7" y1="41.8" x2="29.7" y2="60"/>
	<line class="st4" x1="42.3" y1="35" x2="42.3" y2="22"/>
	<line class="st4" x1="29.7" y1="22" x2="29.7" y2="35"/>
	<polyline class="st4" points="42.3,44.7 42.3,35.5 29.7,35.5 29.7,42.9 	"/>
</g>
</svg>
