<?xml version="1.0" encoding="utf-8"?>
<!-- Generator: Adobe Illustrator 23.0.3, SVG Export Plug-In . SVG Version: 6.00 Build 0)  -->
<svg version="1.1" id="Layer_1" xmlns="http://www.w3.org/2000/svg" xmlns:xlink="http://www.w3.org/1999/xlink" x="0px" y="0px"
	 viewBox="0 0 198 270" style="enable-background:new 0 0 198 270;" xml:space="preserve">
<style type="text/css">
	.st0{opacity:0.4;}
	.st1{fill:#FFFFFF;}
	.st2{fill:#A21E58;}
	.st3{fill:#A31957;stroke:#A31957;stroke-width:0.5;stroke-miterlimit:10;}
	.st4{fill:#A31957;stroke:#A31957;stroke-width:0.11;stroke-miterlimit:10;}
	.st5{fill:#231F20;}
</style>
<title>specialtyCard_pink[face]</title>
<g id="YOUR_ARTWORK_HERE">
	<g id="White_Background">
		<g class="st0">
			<rect x="-7.2" y="7.2" width="198" height="270"/>
		</g>
		<g>
			<rect class="st1" width="198" height="270"/>
		</g>
	</g>
</g>
<g id="Card_Fronts">
	<g id="Pink_Card">
		<g id="Pink_Frame">
			<path class="st2" d="M13.7,270H198V104.5c0,0-0.4,71.9-29.6,115.6C135,269.9,13.7,270,13.7,270z"/>
			<path class="st2" d="M0,129.8V0h198c0,0-70.1,17.5-119.1,43.5C22.8,73.3,0,129.8,0,129.8z"/>
		</g>
		<path class="st2" d="M76.3,175.4c0,1.5-0.4,3-1.2,4.3c-0.9,1.3-2.1,2.3-3.5,2.9c-1.7,0.7-3.6,1.1-5.4,1h-6.9v8.7h-5.8v-24.7H66
			c3.3,0,5.9,0.7,7.7,2C75.5,171,76.5,173.2,76.3,175.4z M70.5,175.5c0-2.6-1.7-3.9-5.2-3.9h-6v8h6.2c1.3,0.1,2.6-0.3,3.7-1.1
			C70.1,177.8,70.6,176.7,70.5,175.5z"/>
		<path class="st2" d="M80.4,192.3v-24.7h5.8v24.7H80.4z"/>
		<path class="st2" d="M108.5,192.3l-12.1-19c0.2,1.5,0.3,3,0.3,4.4v14.6h-5.1v-24.7h6.6l12.3,19.2c-0.2-1.6-0.3-3.2-0.3-4.8v-14.4
			h5.2v24.7H108.5z"/>
		<path class="st2" d="M140,192.3L130,181l-3.4,2.3v9h-5.8v-24.7h5.8v11.2l12.5-11.2h6.8L134,178.1l12.8,14.2L140,192.3z"/>
		<g id="Layer_11">
			<path class="st3" d="M95,47.9L85,68.8c-2.4,5.7-3.8,11.7-4,17.9v56.7c-0.1,5.1,3.9,9.4,9,9.5h18c5.1-0.1,9.1-4.4,9-9.5V86.8
				c-0.2-6.2-1.6-12.2-4-17.9l-10-20.9C100.8,43.3,97.2,43.3,95,47.9z"/>
			<path class="st1" d="M107,81.3v4.1h-3c-0.6-0.1-1.2,0.1-1.7,0.5c-0.4,0.5-0.5,1.1-0.5,1.7v1.4h4.8v4.5h-4.8v16.4
				c0.2,1.8-0.4,3.5-1.7,4.8c-1.4,1.1-3.2,1.6-5,1.5H91V112h3.1c0.6,0.1,1.2-0.1,1.7-0.5c0.4-0.5,0.5-1.1,0.5-1.7V93.4h-2.8v-4.5
				h2.8v-1.4c-0.2-1.8,0.4-3.5,1.7-4.8c1.4-1.1,3.2-1.6,5-1.5H107z"/>
			<path class="st1" d="M94.7,120.7c0,0.3-0.1,0.6-0.2,0.9c-0.1,0.3-0.4,0.5-0.6,0.6c-0.3,0.2-0.7,0.2-1,0.2h-1.2v1.8h-1.1v-5h2.3
				c0.5,0,1,0.1,1.4,0.4C94.5,119.8,94.7,120.2,94.7,120.7z M93.6,120.7c0-0.6-0.3-0.8-0.9-0.8h-1.1v1.6h1.1c0.2,0,0.5-0.1,0.7-0.2
				c0.1-0.1,0.2-0.3,0.2-0.5V120.7z"/>
			<path class="st1" d="M95.4,124.1v-5h1v5H95.4z"/>
			<path class="st1" d="M100.5,124.1l-2.2-3.9v3.9h-0.9v-5h1.2l2.2,3.9c0-0.3,0-0.7,0-1v-2.9h0.9v5L100.5,124.1z"/>
			<path class="st1" d="M106.2,124.1l-1.8-2.3l-0.6,0.5v1.8h-1v-5h1v2.3l2.3-2.3h1.2l-2.2,2.1l2.3,2.9L106.2,124.1z"/>
			<path class="st4" d="M150.1,197.1l-2.3,4.7c-0.6,1.3-0.9,2.7-0.9,4.1v12.8c0,1.1,0.9,2.1,2,2.1h4.1c1.1,0,2-1,2-2.1v-12.8
				c0-1.4-0.3-2.8-0.9-4.1l-2.3-4.7C151.4,196,150.6,196,150.1,197.1z"/>
			<path class="st1" d="M152.8,204.6v0.9h-0.7c-0.1,0-0.3,0-0.4,0.1c-0.1,0.1-0.1,0.2-0.1,0.4v0.3h1.1v1h-1.1v3.7
				c0,0.4-0.1,0.8-0.4,1.1c-0.3,0.2-0.7,0.4-1.1,0.3h-1v-0.9h0.7c0.1,0,0.3,0,0.4-0.1c0.1-0.1,0.1-0.2,0.1-0.4v-3.7h-0.6v-1h0.6
				v-0.3c0-0.4,0.1-0.8,0.4-1.1c0.3-0.2,0.7-0.4,1.1-0.3H152.8z"/>
			<path class="st1" d="M150,213.5c0,0.1,0,0.1,0,0.2c0,0.1-0.1,0.1-0.1,0.1c-0.1,0-0.1,0-0.2,0h-0.3v0.4H149v-1.1h0.5
				c0.1,0,0.2,0,0.3,0.1C149.9,213.3,150,213.4,150,213.5z M149.8,213.5c0-0.1-0.1-0.2-0.2-0.2h-0.3v0.4h0.3c0.1,0,0.1,0,0.2-0.1
				C149.7,213.6,149.8,213.6,149.8,213.5L149.8,213.5z"/>
			<path class="st1" d="M150.1,214.3v-1.1h0.2v1.1H150.1z"/>
			<path class="st1" d="M151.3,214.3l-0.5-0.9v0.9h-0.2v-1.1h0.3l0.5,0.9v-0.9h0.2v1.1H151.3z"/>
			<path class="st1" d="M152.6,214.3l-0.4-0.5l-0.1,0.1v0.4h-0.2v-1.1h0.2v0.5l0.5-0.5h0.3l-0.5,0.5l0.5,0.7H152.6z"/>
		</g>
	</g>
	<path class="st5" d="M43,212.7c0-0.9-0.8-1.6-1.7-1.5c0,0-0.1,0-0.1,0c-1.2,0-1.8,0.7-1.8,1.6c0,2.4,5.2,0.3,5.2,4.2
		c0,1.9-1.4,3-3.4,3s-3.4-1.1-3.4-3h1.4c0,1,0.7,1.6,2,1.6s2-0.6,2-1.6c0-2.4-5.2-0.3-5.2-4.2c0-1.7,1.3-3,3-3c0.1,0,0.1,0,0.2,0
		c1.7-0.1,3.1,1.1,3.2,2.8c0,0,0,0.1,0,0.1L43,212.7z"/>
	<path class="st5" d="M48,219.8v-8.4h-2.9V210h7.3v1.4h-2.9v8.4L48,219.8z"/>
	<path class="st5" d="M59.9,219.8v-3.1h-5.2v3.1h-1.4V214c0-2.6,1.4-4.2,4-4.2s4,1.6,4,4.2v5.8L59.9,219.8z M59.9,214
		c0-1.8-0.9-2.8-2.6-2.8s-2.6,1.1-2.6,2.8v1.3h5.2L59.9,214z"/>
	<path class="st5" d="M68.9,219.8l-2.2-3.5h-2.2v3.5H63V210h4c1.6-0.2,3,0.9,3.2,2.5c0,0.2,0,0.4,0,0.6c0.1,1.4-0.8,2.6-2.1,3l0,0
		l2.4,3.6L68.9,219.8z M67,214.9c1,0,1.7-0.8,1.7-1.7c0-1-0.8-1.7-1.7-1.7c0,0,0,0,0,0h-2.5v3.5H67z"/>
	<path class="st5" d="M74.2,219.8v-8.4h-2.9V210h7.3v1.4h-2.9v8.4L74.2,219.8z"/>
	<path class="st5" d="M93.7,210h1.4v6.4c0,2.4-1.4,3.6-3.2,3.6c-1.1,0.1-2.2-0.6-2.7-1.6l0,0c-0.5,1-1.5,1.7-2.7,1.6
		c-1.8,0-3.2-1.2-3.2-3.6V210h1.4v6.4c0,1.5,0.8,2.2,1.8,2.2s1.8-0.7,1.8-2.2V210h1.4v6.4c0,1.5,0.8,2.2,1.8,2.2s1.8-0.7,1.8-2.2
		L93.7,210z"/>
	<path class="st5" d="M96.9,219.8V210h1.4v9.8L96.9,219.8z"/>
	<path class="st5" d="M102.7,219.8v-8.4h-2.9V210h7.3v1.4h-2.9v8.4L102.7,219.8z"/>
	<path class="st5" d="M115,219.8v-4.3h-5.2v4.3h-1.4V210h1.4v4.1h5.2V210h1.4v9.8L115,219.8z"/>
	<path class="st5" d="M129.2,209.4l-0.3,2.3l0,0c0.5-0.5,1.1-0.8,1.9-0.8c2,0,3.7,1.7,3.7,4.3v0.2c0.1,2.4-1.8,4.5-4.2,4.6
		c-2.4,0.1-4.5-1.8-4.6-4.2h2.9c0.1,0.8,0.7,1.3,1.5,1.3c0.9,0,1.6-0.7,1.6-1.5c0-0.1,0-0.1,0-0.2v-0.2c0.1-0.9-0.5-1.6-1.3-1.7
		c-0.1,0-0.1,0-0.2,0c-0.6,0-1.2,0.4-1.4,1l-2.5-0.8l0.9-7h6.6v2.7H129.2z"/>
	<path class="st5" d="M141.1,222.1v-0.5h9.4v0.5H141.1z"/>
	<path class="st5" d="M151,222.1v-0.5h9.4v0.5H151z"/>
	<path class="st5" d="M56,233.7v2.9h5.4v1.4h-6.8v-9.8h6.8v1.4H56v2.7h4.5v1.4L56,233.7z"/>
	<path class="st5" d="M69.4,238v-3.1h-5.2v3.1h-1.4v-5.8c0-2.6,1.4-4.2,4-4.2s4,1.6,4,4.2v5.8H69.4z M69.4,232.2
		c0-1.8-0.9-2.8-2.6-2.8s-2.6,1-2.6,2.8v1.3h5.2V232.2z"/>
	<path class="st5" d="M80.2,231.6c-0.5-1.4-1.8-2.3-3.2-2.2c-2,0.2-3.6,1.9-3.4,4c0.1,1.8,1.6,3.3,3.4,3.4c1.4,0,2.7-0.9,3.2-2.2
		h1.5c-0.5,2.2-2.5,3.7-4.7,3.6c-2.8,0-5.1-2.3-5.1-5.1s2.3-5.1,5.1-5.1l0,0c2.2-0.1,4.2,1.5,4.7,3.6L80.2,231.6z"/>
	<path class="st5" d="M89.8,238v-4.3h-5.2v4.3h-1.4v-9.8h1.4v4.1h5.2v-4.1h1.4v9.8H89.8z"/>
	<path class="st5" d="M102.9,238l-2.2-3.5h-2.2v3.5H97v-9.8h4c1.6-0.2,3,0.9,3.2,2.5c0,0.2,0,0.4,0,0.6c0.1,1.4-0.8,2.6-2.1,3l0,0
		l2.4,3.6L102.9,238z M101,233.1c1,0,1.7-0.8,1.7-1.7c0-1-0.8-1.7-1.7-1.7c0,0,0,0,0,0h-2.6v3.5H101z"/>
	<path class="st5" d="M110.3,238.2c-2.8,0.1-5.2-2.1-5.3-4.9s2.1-5.2,4.9-5.3s5.2,2.1,5.3,4.9c0,0.1,0,0.1,0,0.2
		c0.1,2.7-1.9,4.9-4.6,5.1C110.5,238.2,110.4,238.2,110.3,238.2z M113.8,233.1c-0.1-1.9-1.8-3.4-3.7-3.2s-3.4,1.8-3.2,3.7
		c0.1,1.8,1.6,3.3,3.5,3.3c1.9,0,3.5-1.5,3.5-3.4C113.8,233.3,113.8,233.2,113.8,233.1z"/>
	<path class="st5" d="M122.8,228.2h1.4v5.9c0,2.5-1.4,4.1-3.9,4.1s-3.9-1.6-3.9-4.1v-5.9h1.4v5.9c0,1.6,0.8,2.6,2.4,2.6
		s2.5-1,2.5-2.6L122.8,228.2z"/>
	<path class="st5" d="M132.1,238v-5.9c0-1.6-0.9-2.7-2.5-2.7s-2.5,1-2.5,2.7v5.9h-1.4v-5.9c0-2.5,1.4-4.1,3.9-4.1s3.9,1.6,3.9,4.1
		v5.9H132.1z"/>
	<path class="st5" d="M135.3,238v-9.8h3.3c3.2,0,4.9,2,4.9,4.9s-1.7,4.9-4.9,4.9H135.3z M138.6,236.6c2.4,0,3.5-1.4,3.5-3.5
		c0.2-1.7-1-3.3-2.7-3.5c-0.2,0-0.5,0-0.7,0h-1.9v7L138.6,236.6z"/>
	<path class="st1" d="M23.6,43.5l-0.4-20.3l4-0.1l0.3,16.6l10.6-0.2l0.1,3.7L23.6,43.5z"/>
	<path class="st1" d="M57,43.3h-3.4v-2.8h-0.1c-0.9,2.1-3.1,3.4-5.4,3.3c-3.7,0.1-7.6-2.5-7.7-7.9c-0.2-4.3,3.2-8,7.5-8.2
		c0.2,0,0.4,0,0.6,0c4.3-0.3,8,2.9,8.3,7.2c0,0.3,0,0.5,0,0.8L57,43.3z M53.2,35.7c0.1-2.5-1.8-4.6-4.3-4.7s-4.6,1.8-4.7,4.3
		c0,0.2,0,0.4,0,0.6c-0.1,2.5,1.8,4.6,4.3,4.7s4.6-1.8,4.7-4.3C53.2,36.1,53.2,35.9,53.2,35.7z"/>
	<path class="st1" d="M60.4,21.5l3.7-0.1l0.2,8.8h0.1c1.1-1.7,3-2.7,5.1-2.6c3.7-0.1,7.6,2.5,7.7,7.9c0.2,4.3-3.2,8-7.5,8.2
		c-0.2,0-0.4,0-0.6,0c-4.3,0.3-8-2.9-8.3-7.2c0-0.3,0-0.6,0-0.8L60.4,21.5z M73.3,35.7c0.1-2.5-1.8-4.6-4.3-4.7s-4.6,1.8-4.7,4.3
		c0,0.2,0,0.4,0,0.6c-0.1,2.5,1.8,4.6,4.3,4.7s4.6-1.8,4.7-4.3C73.3,36,73.3,35.9,73.3,35.7z"/>
</g>
<g id="White_Background_1_">
	<path d="M194,4v262H4V4H194 M198,0H0v270h198V0L198,0z"/>
</g>
</svg>
