<svg xmlns="http://www.w3.org/2000/svg" viewBox="0 0 198 270"><defs><style>.cls-1{fill:#fff;}.cls-2{fill:#231f20;}</style></defs><title>specialtyCard_pink_back</title><g id="YOUR_ARTWORK_HERE" data-name="YOUR ARTWORK HERE"><rect id="White_Background" data-name="White Background" class="cls-1" width="198" height="270"/></g><g id="Card_Backs" data-name="Card Backs"><rect width="198" height="55.95"/><g id="back_pink"><path class="cls-2" d="M18.64,115.37h3.65v1.75H18.64Z" transform="translate(0 0)"/><path class="cls-2" d="M28.28,110.83h.66l2.2,8.24,2.19-8.24h.81L36.32,119l2.19-8.19h.67l-2.39,9h-.92l-2.13-8-2.12,8h-1Z" transform="translate(0 0)"/><path class="cls-2" d="M46.88,116.15v.35H41.4a3.07,3.07,0,0,0,.68,2.26,3.1,3.1,0,0,0,2.23.72,4.33,4.33,0,0,0,1-.16,6.34,6.34,0,0,0,1.28-.46v.58a8.87,8.87,0,0,1-1.31.38,5.64,5.64,0,0,1-1.07.13,3.41,3.41,0,0,1-2.51-.84,3.47,3.47,0,0,1-.91-2.61,3.76,3.76,0,0,1,.83-2.68,3.11,3.11,0,0,1,2.39-.91,2.62,2.62,0,0,1,2.14.86A3.73,3.73,0,0,1,46.88,116.15Zm-.6-.12A2.69,2.69,0,0,0,45.6,114a2.07,2.07,0,0,0-1.56-.58,2.72,2.72,0,0,0-1.8.6,2.9,2.9,0,0,0-.81,2Z" transform="translate(0 0)"/><path class="cls-2" d="M53.42,113.54a2.1,2.1,0,0,0-.39-.11,2.92,2.92,0,0,0-.56,0,2.37,2.37,0,0,0-1.81.76,3,3,0,0,0-.57,2.09v3.54h-.58v-6.71h.58v1.26a2.63,2.63,0,0,1,.81-.92,2.94,2.94,0,0,1,1.7-.5H53a1.65,1.65,0,0,1,.38,0Z" transform="translate(0 0)"/><path class="cls-2" d="M60.38,116.15v.35H54.9a2.53,2.53,0,0,0,2.9,3,4.32,4.32,0,0,0,1-.16,6.48,6.48,0,0,0,1.27-.46v.58a8.22,8.22,0,0,1-1.31.38,5.55,5.55,0,0,1-1.06.13,3.41,3.41,0,0,1-2.51-.84,3.47,3.47,0,0,1-.92-2.61,3.76,3.76,0,0,1,.84-2.68,3.09,3.09,0,0,1,2.38-.91,2.61,2.61,0,0,1,2.14.86A3.73,3.73,0,0,1,60.38,116.15Zm-.6-.12A2.73,2.73,0,0,0,59.1,114a2.11,2.11,0,0,0-1.56-.58,2.76,2.76,0,0,0-1.81.6,2.89,2.89,0,0,0-.8,2Z" transform="translate(0 0)"/><path class="cls-2" d="M69.74,120.4a3.09,3.09,0,0,1-.83,1.24,2,2,0,0,1-1.17.46h-.89v-.47h.76a1.26,1.26,0,0,0,.82-.28,2.67,2.67,0,0,0,.76-1.07l.21-.5-2.88-6.71h.63l2.57,6,2.57-6h.62Z" transform="translate(0 0)"/><path class="cls-2" d="M77.78,112.91a2.71,2.71,0,0,1,2.18,1A4.51,4.51,0,0,1,80,119a2.68,2.68,0,0,1-2.18,1,2.72,2.72,0,0,1-2.2-1,4,4,0,0,1-.79-2.61,3.81,3.81,0,0,1,.8-2.56A2.71,2.71,0,0,1,77.78,112.91Zm0,.48a2.06,2.06,0,0,0-1.74.82,3.46,3.46,0,0,0-.65,2.21,3.59,3.59,0,0,0,.64,2.24,2.27,2.27,0,0,0,3.49,0,3.55,3.55,0,0,0,.64-2.24,3.47,3.47,0,0,0-.64-2.2A2.1,2.1,0,0,0,77.79,113.39Z" transform="translate(0 0)"/><path class="cls-2" d="M83.35,117.12v-4.05H84v4a2.88,2.88,0,0,0,.45,1.84,1.63,1.63,0,0,0,1.33.54,2.77,2.77,0,0,0,1.75-.58,2.44,2.44,0,0,0,.73-2v-3.79h.6v6.71h-.6v-1.26a2.31,2.31,0,0,1-.83.94,3.07,3.07,0,0,1-1.68.48,2.26,2.26,0,0,1-1.71-.68A3,3,0,0,1,83.35,117.12Z" transform="translate(0 0)"/><path class="cls-2" d="M100.32,113.27v.6a4.64,4.64,0,0,0-.78-.36,5.64,5.64,0,0,0-1.12-.12,2.91,2.91,0,0,0-1.6.38,1.2,1.2,0,0,0-.45,1.06.92.92,0,0,0,.42.8,3.37,3.37,0,0,0,1.27.48l.41.09a3.83,3.83,0,0,1,1.55.59,1.45,1.45,0,0,1,.65,1.14,1.91,1.91,0,0,1-.61,1.49A3.29,3.29,0,0,1,98,120a5.33,5.33,0,0,1-1.21-.1c-.33-.09-.68-.19-1-.32v-.69a6.11,6.11,0,0,0,1,.48,5,5,0,0,0,1.26.16,2.41,2.41,0,0,0,1.54-.4,1.29,1.29,0,0,0,.5-1.07.94.94,0,0,0-.33-.8,4.08,4.08,0,0,0-1.54-.59l-.41-.09a3.55,3.55,0,0,1-1.39-.56,1.32,1.32,0,0,1-.6-1.09,1.65,1.65,0,0,1,.72-1.51,3.19,3.19,0,0,1,1.77-.46,5.68,5.68,0,0,1,1.24.09A5.92,5.92,0,0,1,100.32,113.27Z" transform="translate(0 0)"/><path class="cls-2" d="M103.15,117.12v-4.05h.59v4a2.88,2.88,0,0,0,.45,1.84,1.64,1.64,0,0,0,1.33.54,2.75,2.75,0,0,0,1.75-.58,2.44,2.44,0,0,0,.74-2v-3.79h.59v6.71H108v-1.26a2.39,2.39,0,0,1-.83.94,3.1,3.1,0,0,1-1.68.48,2.23,2.23,0,0,1-1.71-.68A3,3,0,0,1,103.15,117.12Z" transform="translate(0 0)"/><path class="cls-2" d="M115.63,113.54a1.72,1.72,0,0,0-.39-.11,2.81,2.81,0,0,0-.55,0,2.39,2.39,0,0,0-1.82.76,3,3,0,0,0-.57,2.09v3.54h-.58v-6.71h.58v1.26a2.77,2.77,0,0,1,.82-.92,2.94,2.94,0,0,1,1.7-.5h.44a1.5,1.5,0,0,1,.37,0Z" transform="translate(0 0)"/><path class="cls-2" d="M117.85,118.26v4.07h-.58v-9.26h.58v1.53a3,3,0,0,1,.88-1.2,2.49,2.49,0,0,1,1.38-.49,2.71,2.71,0,0,1,2.13,1,4.25,4.25,0,0,1,0,5.1,2.71,2.71,0,0,1-2.13,1,2.49,2.49,0,0,1-1.38-.49A3,3,0,0,1,117.85,118.26Zm4.61-1.83a3.1,3.1,0,0,0-.74-2.34,2.27,2.27,0,0,0-1.57-.7,2.24,2.24,0,0,0-1.55.7,4.07,4.07,0,0,0,0,4.68,2.29,2.29,0,0,0,1.55.7,2.31,2.31,0,0,0,1.57-.7A3.1,3.1,0,0,0,122.46,116.43Z" transform="translate(0 0)"/><path class="cls-2" d="M129.67,113.54a1.77,1.77,0,0,0-.38-.11,2.92,2.92,0,0,0-.56,0,2.37,2.37,0,0,0-1.81.76,3,3,0,0,0-.57,2.09v3.54h-.58v-6.71h.58v1.26a2.63,2.63,0,0,1,.81-.92,2.94,2.94,0,0,1,1.7-.5h.44a1.5,1.5,0,0,1,.37,0Z" transform="translate(0 0)"/><path class="cls-2" d="M131.29,110.45h.59v.76h-.59Zm0,2.62h.59v6.71h-.59Z" transform="translate(0 0)"/><path class="cls-2" d="M139.17,113.27v.6a4,4,0,0,0-.78-.36,5.56,5.56,0,0,0-1.12-.12,2.93,2.93,0,0,0-1.6.38,1.22,1.22,0,0,0-.44,1.06.92.92,0,0,0,.42.8,3.3,3.3,0,0,0,1.27.48l.4.09a3.88,3.88,0,0,1,1.56.59,1.44,1.44,0,0,1,.64,1.14,1.91,1.91,0,0,1-.6,1.49,3.31,3.31,0,0,1-2.08.53,5.28,5.28,0,0,1-1.21-.1c-.33-.09-.68-.19-1-.32v-.69a7,7,0,0,0,1,.48,5.08,5.08,0,0,0,1.27.16,2.44,2.44,0,0,0,1.54-.4,1.32,1.32,0,0,0,.5-1.07.92.92,0,0,0-.34-.8,4,4,0,0,0-1.54-.59l-.41-.09a3.55,3.55,0,0,1-1.39-.56,1.32,1.32,0,0,1-.6-1.09,1.65,1.65,0,0,1,.73-1.51,3.19,3.19,0,0,1,1.77-.46,5.68,5.68,0,0,1,1.24.09A5.79,5.79,0,0,1,139.17,113.27Z" transform="translate(0 0)"/><path class="cls-2" d="M147.71,116.15v.35h-5.48a2.53,2.53,0,0,0,2.9,3,4.32,4.32,0,0,0,1-.16,6.48,6.48,0,0,0,1.27-.46v.58a8.22,8.22,0,0,1-1.31.38,5.55,5.55,0,0,1-1.06.13,3.41,3.41,0,0,1-2.51-.84,3.47,3.47,0,0,1-.92-2.61,3.76,3.76,0,0,1,.84-2.68,3.09,3.09,0,0,1,2.38-.91,2.61,2.61,0,0,1,2.14.86A3.73,3.73,0,0,1,147.71,116.15Zm-.6-.12a2.73,2.73,0,0,0-.68-2.06,2.11,2.11,0,0,0-1.56-.58,2.76,2.76,0,0,0-1.81.6,2.94,2.94,0,0,0-.8,2Z" transform="translate(0 0)"/><path class="cls-2" d="M155.12,114.6v-4.15h.58v9.33h-.58v-1.52a2.92,2.92,0,0,1-.89,1.2,2.44,2.44,0,0,1-1.37.49,2.71,2.71,0,0,1-2.13-1,4.25,4.25,0,0,1,0-5.1,2.71,2.71,0,0,1,2.13-1,2.44,2.44,0,0,1,1.37.49A2.92,2.92,0,0,1,155.12,114.6Zm-4.62,1.83a3.1,3.1,0,0,0,.75,2.34,2.09,2.09,0,0,0,3.12,0,4.07,4.07,0,0,0,0-4.68,2.09,2.09,0,0,0-3.12,0A3.1,3.1,0,0,0,150.5,116.43Z" transform="translate(0 0)"/><path class="cls-2" d="M163.73,114.6a2.91,2.91,0,0,1,.88-1.2,2.47,2.47,0,0,1,1.37-.49,2.72,2.72,0,0,1,2.14,1,4.25,4.25,0,0,1,0,5.1,2.72,2.72,0,0,1-2.14,1,2.47,2.47,0,0,1-1.37-.49,2.91,2.91,0,0,1-.88-1.2v1.52h-.58v-9.33h.58Zm4.61,1.83a3.1,3.1,0,0,0-.75-2.34,2.08,2.08,0,0,0-3.11,0,4,4,0,0,0,0,4.68,2.08,2.08,0,0,0,3.11,0A3.1,3.1,0,0,0,168.34,116.43Z" transform="translate(0 0)"/><path class="cls-2" d="M174.07,120.4a3.19,3.19,0,0,1-.83,1.24,2,2,0,0,1-1.18.46h-.88v-.47h.76a1.27,1.27,0,0,0,.82-.28,2.57,2.57,0,0,0,.75-1.07l.22-.5-2.88-6.71h.63l2.56,6,2.58-6h.62Z" transform="translate(0 0)"/><path class="cls-2" d="M24.59,129.59v3.83H24v-1.83a2.82,2.82,0,0,1-1.32,1.71,3.18,3.18,0,0,1-1.29.29,2.54,2.54,0,0,1-1.7-.53,2,2,0,0,1-.62-1.59,2,2,0,0,1,.81-1.66,4.31,4.31,0,0,1,2.63-.63H24v-.11a2.08,2.08,0,0,0-.54-1.47,2.4,2.4,0,0,0-1.8-.57,4.06,4.06,0,0,0-1.26.21,5.33,5.33,0,0,0-1.07.56v-.59a4.6,4.6,0,0,1,1.07-.47,5.3,5.3,0,0,1,1.39-.2,3.08,3.08,0,0,1,2.1.72A3,3,0,0,1,24.59,129.59Zm-2.21,0a3.54,3.54,0,0,0-2.06.47,1.64,1.64,0,0,0-.63,1.39,1.41,1.41,0,0,0,.52,1.25,2.07,2.07,0,0,0,1.24.38,2,2,0,0,0,1.94-1.07,4.12,4.12,0,0,0,.6-2v-.41Z" transform="translate(0 0)"/><path class="cls-2" d="M33.16,129.36v4.06h-.6v-4a2.9,2.9,0,0,0-.45-1.84,1.65,1.65,0,0,0-1.33-.53,2.76,2.76,0,0,0-1.75.57,2.44,2.44,0,0,0-.73,2v3.8h-.6V126.7h.6V128a2.22,2.22,0,0,1,.83-.93,3,3,0,0,1,1.68-.49,2.26,2.26,0,0,1,1.71.68A3.06,3.06,0,0,1,33.16,129.36Z" transform="translate(0 0)"/><path class="cls-2" d="M38.62,134a3,3,0,0,1-.83,1.23,1.92,1.92,0,0,1-1.17.46h-.88v-.46h.75a1.36,1.36,0,0,0,.83-.28,2.8,2.8,0,0,0,.75-1.08l.21-.49L35.4,126.7H36l2.57,6,2.57-6h.63Z" transform="translate(0 0)"/><path class="cls-2" d="M44.74,124.8v1.9h2.45v.47H44.74v4a1.91,1.91,0,0,0,.22,1.08,1.43,1.43,0,0,0,1.27.67h1v.47h-.93a2.4,2.4,0,0,1-1.5-.48,2.1,2.1,0,0,1-.62-1.74v-4h-.86v-.47h.86v-1.9Z" transform="translate(0 0)"/><path class="cls-2" d="M54.87,129.36v4.06h-.6v-4a2.75,2.75,0,0,0-.47-1.83,1.78,1.78,0,0,0-1.42-.54,2.45,2.45,0,0,0-1.74.6,2.65,2.65,0,0,0-.63,2v3.8h-.6v-9.33H50v3.85a2.14,2.14,0,0,1,.73-.91,2.81,2.81,0,0,1,1.78-.49,2.18,2.18,0,0,1,1.71.72A3.08,3.08,0,0,1,54.87,129.36Z" transform="translate(0 0)"/><path class="cls-2" d="M57.89,124.09h.59v.76h-.59Zm0,2.61h.59v6.72h-.59Z" transform="translate(0 0)"/><path class="cls-2" d="M67.14,129.36v4.06h-.6v-4a2.9,2.9,0,0,0-.45-1.84,1.65,1.65,0,0,0-1.32-.53,2.77,2.77,0,0,0-1.76.57,2.44,2.44,0,0,0-.73,2v3.8h-.6V126.7h.6V128a2.22,2.22,0,0,1,.83-.93,3,3,0,0,1,1.68-.49,2.26,2.26,0,0,1,1.71.68A3.06,3.06,0,0,1,67.14,129.36Z" transform="translate(0 0)"/><path class="cls-2" d="M75.56,132.58c0,1.4-.29,2.31-.86,2.74a3.52,3.52,0,0,1-2.17.65,7.34,7.34,0,0,1-1.18-.09,7.73,7.73,0,0,1-1.08-.26V135a5.68,5.68,0,0,0,1,.39,4.55,4.55,0,0,0,1,.12,3.8,3.8,0,0,0,1.85-.42c.52-.29.77-1.05.77-2.3v-1.05a2.6,2.6,0,0,1-.72,1.09,2.43,2.43,0,0,1-1.6.6,2.69,2.69,0,0,1-2.14-.91,3.78,3.78,0,0,1-.76-2.53,3.83,3.83,0,0,1,.76-2.54,2.68,2.68,0,0,1,2.14-.9,2.27,2.27,0,0,1,1.51.52,3,3,0,0,1,.81,1.07V126.7h.6ZM75,130a3.43,3.43,0,0,0-.6-2.16,2.05,2.05,0,0,0-1.72-.77,2,2,0,0,0-1.69.77,4.13,4.13,0,0,0,0,4.32,2,2,0,0,0,1.69.77,2.05,2.05,0,0,0,1.72-.77A3.43,3.43,0,0,0,75,130Z" transform="translate(0 0)"/><path class="cls-2" d="M82.51,124.09h.59v.76h-.59Zm0,2.61h.59v6.72h-.59Z" transform="translate(0 0)"/><path class="cls-2" d="M91.76,129.36v4.06h-.59v-4a2.9,2.9,0,0,0-.45-1.84,1.65,1.65,0,0,0-1.33-.53,2.74,2.74,0,0,0-1.75.57,2.44,2.44,0,0,0-.74,2v3.8h-.59V126.7h.59V128a2.29,2.29,0,0,1,.83-.93,3,3,0,0,1,1.69-.49,2.26,2.26,0,0,1,1.71.68A3.06,3.06,0,0,1,91.76,129.36Z" transform="translate(0 0)"/><path class="cls-2" d="M99.74,124.8v1.9h2.44v.47H99.74v4a2,2,0,0,0,.21,1.08,1.44,1.44,0,0,0,1.27.67h1v.47h-.92a2.41,2.41,0,0,1-1.51-.48,2.09,2.09,0,0,1-.61-1.74v-4h-.87v-.47h.87v-1.9Z" transform="translate(0 0)"/><path class="cls-2" d="M109.86,129.36v4.06h-.6v-4a2.75,2.75,0,0,0-.47-1.83,1.78,1.78,0,0,0-1.42-.54,2.45,2.45,0,0,0-1.74.6,2.65,2.65,0,0,0-.63,2v3.8h-.6v-9.33h.6v3.85a2.14,2.14,0,0,1,.73-.91,2.83,2.83,0,0,1,1.78-.49,2.18,2.18,0,0,1,1.71.72A3.08,3.08,0,0,1,109.86,129.36Z" transform="translate(0 0)"/><path class="cls-2" d="M112.88,124.09h.59v.76h-.59Zm0,2.61h.59v6.72h-.59Z" transform="translate(0 0)"/><path class="cls-2" d="M120.76,126.9v.61a4.64,4.64,0,0,0-.78-.36,5.56,5.56,0,0,0-1.12-.12,2.94,2.94,0,0,0-1.6.37,1.21,1.21,0,0,0-.44,1.07.92.92,0,0,0,.42.8,3.3,3.3,0,0,0,1.27.48l.4.08a4,4,0,0,1,1.55.6,1.42,1.42,0,0,1,.65,1.13,1.89,1.89,0,0,1-.61,1.5,3.27,3.27,0,0,1-2.07.53,5.28,5.28,0,0,1-1.21-.1c-.33-.09-.68-.2-1-.32v-.69a7,7,0,0,0,1,.48,5.58,5.58,0,0,0,1.26.16,2.4,2.4,0,0,0,1.54-.41,1.28,1.28,0,0,0,.51-1.06.94.94,0,0,0-.34-.81,4,4,0,0,0-1.54-.58l-.41-.09a3.55,3.55,0,0,1-1.39-.56,1.32,1.32,0,0,1-.6-1.09A1.66,1.66,0,0,1,117,127a3.28,3.28,0,0,1,1.77-.46,5.68,5.68,0,0,1,1.24.09A5.79,5.79,0,0,1,120.76,126.9Z" transform="translate(0 0)"/><path class="cls-2" d="M133.37,132.58c0,1.4-.28,2.31-.85,2.74a3.53,3.53,0,0,1-2.18.65,7.22,7.22,0,0,1-1.17-.09,7.73,7.73,0,0,1-1.08-.26V135a5.68,5.68,0,0,0,1,.39,4.55,4.55,0,0,0,1,.12,3.83,3.83,0,0,0,1.85-.42c.51-.29.77-1.05.77-2.3v-1.05a2.72,2.72,0,0,1-.73,1.09,2.39,2.39,0,0,1-1.59.6,2.66,2.66,0,0,1-2.14-.91,3.79,3.79,0,0,1-.77-2.53,3.83,3.83,0,0,1,.77-2.54,2.65,2.65,0,0,1,2.14-.9,2.29,2.29,0,0,1,1.51.52,3.09,3.09,0,0,1,.81,1.07V126.7h.59Zm-.59-2.6a3.37,3.37,0,0,0-.61-2.16,2.27,2.27,0,0,0-3.41,0,4.13,4.13,0,0,0,0,4.32,2.27,2.27,0,0,0,3.41,0A3.37,3.37,0,0,0,132.78,130Z" transform="translate(0 0)"/><path class="cls-2" d="M141.12,129.59v3.83h-.58v-1.83a2.82,2.82,0,0,1-1.32,1.71,3.18,3.18,0,0,1-1.29.29,2.54,2.54,0,0,1-1.7-.53,2,2,0,0,1-.62-1.59,2,2,0,0,1,.81-1.66,4.31,4.31,0,0,1,2.63-.63h1.47v-.11a2.08,2.08,0,0,0-.54-1.47,2.4,2.4,0,0,0-1.8-.57,4.06,4.06,0,0,0-1.26.21,5.33,5.33,0,0,0-1.07.56v-.59a4.6,4.6,0,0,1,1.07-.47,5.3,5.3,0,0,1,1.39-.2,3.08,3.08,0,0,1,2.1.72A3,3,0,0,1,141.12,129.59Zm-2.21,0a3.54,3.54,0,0,0-2.06.47,1.64,1.64,0,0,0-.63,1.39,1.41,1.41,0,0,0,.52,1.25,2.07,2.07,0,0,0,1.24.38,2,2,0,0,0,1.94-1.07,4.12,4.12,0,0,0,.6-2v-.41Z" transform="translate(0 0)"/><path class="cls-2" d="M149.43,128.17a2.45,2.45,0,0,1,1-1.23,3.25,3.25,0,0,1,1.63-.4,2,2,0,0,1,1.51.62,3.25,3.25,0,0,1,.57,2.2v4.06h-.59v-4a3,3,0,0,0-.41-1.88,1.34,1.34,0,0,0-1.09-.49,2.85,2.85,0,0,0-1.76.57,2.35,2.35,0,0,0-.83,2v3.8h-.59v-4a3.16,3.16,0,0,0-.4-1.86,1.34,1.34,0,0,0-1.11-.51,2.82,2.82,0,0,0-1.75.57,2.34,2.34,0,0,0-.83,2v3.8h-.6V126.7h.6V128a2.34,2.34,0,0,1,1-1,3.29,3.29,0,0,1,1.64-.38,2.11,2.11,0,0,1,1.22.4A2.34,2.34,0,0,1,149.43,128.17Z" transform="translate(0 0)"/><path class="cls-2" d="M162.84,129.78v.35h-5.48a2.53,2.53,0,0,0,2.9,3,4.74,4.74,0,0,0,1-.16,5.83,5.83,0,0,0,1.28-.47v.58a7.57,7.57,0,0,1-1.31.39,5.64,5.64,0,0,1-1.06.13,3.45,3.45,0,0,1-2.52-.84,3.49,3.49,0,0,1-.91-2.62,3.75,3.75,0,0,1,.84-2.67,3.1,3.1,0,0,1,2.38-.92,2.61,2.61,0,0,1,2.14.87A3.72,3.72,0,0,1,162.84,129.78Zm-.6-.12a2.71,2.71,0,0,0-.69-2.06A2.11,2.11,0,0,0,160,127a2.75,2.75,0,0,0-1.8.6,2.89,2.89,0,0,0-.81,2Z" transform="translate(0 0)"/><path class="cls-2" d="M167.46,131h-.66v-.92a2.47,2.47,0,0,1,.22-1,3.14,3.14,0,0,1,.76-.9l.58-.53a2.81,2.81,0,0,0,.53-.6,1.14,1.14,0,0,0,.17-.58,1.72,1.72,0,0,0-.43-1.22,1.47,1.47,0,0,0-1.15-.47,3.2,3.2,0,0,0-1.22.18,3.27,3.27,0,0,0-1.17.79l-.14-.65a3.38,3.38,0,0,1,1.15-.64,4.87,4.87,0,0,1,1.32-.16,2.49,2.49,0,0,1,1.61.58,1.88,1.88,0,0,1,.72,1.53,1.77,1.77,0,0,1-.23.87,4.32,4.32,0,0,1-.81.92l-.57.52a3.4,3.4,0,0,0-.43.44,1.45,1.45,0,0,0-.18.31q0,.12-.06.3c0,.12,0,.29,0,.5Zm-.66,1.65h.66v.76h-.66Z" transform="translate(0 0)"/><path class="cls-2" d="M18.92,138.1h.66l2.2,8.24L24,138.1h.81L27,146.3l2.19-8.2h.66l-2.39,9H26.5l-2.13-8-2.12,8H21.3Z" transform="translate(0 0)"/><path class="cls-2" d="M38.12,143v4.05h-.59v-4a2.83,2.83,0,0,0-.47-1.84,1.8,1.8,0,0,0-1.43-.54,2.41,2.41,0,0,0-1.73.6,2.64,2.64,0,0,0-.64,2v3.79h-.59v-9.32h.59v3.85a2.24,2.24,0,0,1,.73-.92,2.9,2.9,0,0,1,1.78-.48,2.18,2.18,0,0,1,1.71.71A3.06,3.06,0,0,1,38.12,143Z" transform="translate(0 0)"/><path class="cls-2" d="M43.59,147.67a3.19,3.19,0,0,1-.83,1.24,1.92,1.92,0,0,1-1.18.46H40.7v-.47h.75a1.28,1.28,0,0,0,.83-.28,2.59,2.59,0,0,0,.75-1.07l.22-.5-2.89-6.71H41l2.56,6,2.57-6h.63Z" transform="translate(0 0)"/><path class="cls-2" d="M55.94,140.18a2.68,2.68,0,0,1,2.18,1,3.83,3.83,0,0,1,.81,2.56,3.91,3.91,0,0,1-.81,2.6,2.68,2.68,0,0,1-2.18,1,2.72,2.72,0,0,1-2.2-1,3.92,3.92,0,0,1-.8-2.6,3.84,3.84,0,0,1,.81-2.57A2.74,2.74,0,0,1,55.94,140.18Zm0,.48a2.09,2.09,0,0,0-1.74.82,3.48,3.48,0,0,0-.65,2.21,3.57,3.57,0,0,0,.64,2.24,2.27,2.27,0,0,0,3.49,0,3.55,3.55,0,0,0,.64-2.24,3.49,3.49,0,0,0-.64-2.2A2.1,2.1,0,0,0,56,140.66Z" transform="translate(0 0)"/><path class="cls-2" d="M65.51,140.81a1.72,1.72,0,0,0-.39-.11,3.9,3.9,0,0,0-.55,0,2.43,2.43,0,0,0-1.82.76,3.07,3.07,0,0,0-.57,2.1v3.53H61.6v-6.71h.58v1.26a2.74,2.74,0,0,1,.82-.91,2.85,2.85,0,0,1,1.7-.51,3,3,0,0,1,.44,0,1.55,1.55,0,0,1,.37,0Z" transform="translate(0 0)"/><path class="cls-2" d="M70.79,140.34h.62l1.69,6,1.68-6h.76l1.69,6,1.69-6h.61l-1.88,6.71h-.83l-1.66-5.88-1.66,5.88h-.81Z" transform="translate(0 0)"/><path class="cls-2" d="M87.82,143v4.05h-.59v-4a2.76,2.76,0,0,0-.48-1.84,1.77,1.77,0,0,0-1.42-.54,2.41,2.41,0,0,0-1.73.6,2.64,2.64,0,0,0-.64,2v3.79h-.59v-9.32H83v3.85a2.24,2.24,0,0,1,.73-.92,2.9,2.9,0,0,1,1.78-.48,2.2,2.2,0,0,1,1.71.71A3.06,3.06,0,0,1,87.82,143Z" transform="translate(0 0)"/><path class="cls-2" d="M93.29,147.67a3.19,3.19,0,0,1-.83,1.24,1.92,1.92,0,0,1-1.18.46H90.4v-.47h.75a1.28,1.28,0,0,0,.83-.28,2.59,2.59,0,0,0,.75-1.07l.22-.5-2.89-6.71h.64l2.56,6,2.57-6h.63Z" transform="translate(0 0)"/><path class="cls-2" d="M108.55,143v4.05H108v-4a2.81,2.81,0,0,0-.46-1.84,1.62,1.62,0,0,0-1.32-.54,2.78,2.78,0,0,0-1.76.58,2.44,2.44,0,0,0-.73,2v3.79h-.59v-6.71h.59v1.26a2.39,2.39,0,0,1,.83-.94,3.1,3.1,0,0,1,1.68-.48,2.19,2.19,0,0,1,1.71.68A3,3,0,0,1,108.55,143Z" transform="translate(0 0)"/><path class="cls-2" d="M114.13,140.18a2.7,2.7,0,0,1,2.18,1,3.88,3.88,0,0,1,.8,2.56,4,4,0,0,1-.8,2.6,3,3,0,0,1-4.38,0,3.92,3.92,0,0,1-.8-2.6,3.84,3.84,0,0,1,.81-2.57A2.71,2.71,0,0,1,114.13,140.18Zm0,.48a2.12,2.12,0,0,0-1.74.82,4.19,4.19,0,0,0,0,4.45,2.26,2.26,0,0,0,3.48,0,3.55,3.55,0,0,0,.65-2.24,3.49,3.49,0,0,0-.65-2.2A2.07,2.07,0,0,0,114.13,140.66Z" transform="translate(0 0)"/><path class="cls-2" d="M120.4,138.43v1.91h2.44v.47H120.4v4a2,2,0,0,0,.21,1.07,1.44,1.44,0,0,0,1.28.67h1v.47h-.92a2.36,2.36,0,0,1-1.5-.48,2.07,2.07,0,0,1-.62-1.73v-4h-.86v-.47h.86v-1.91Z" transform="translate(0 0)"/><path class="cls-2" d="M127.08,144.65h-.66v-.92a2.4,2.4,0,0,1,.22-1,3.14,3.14,0,0,1,.76-.9l.58-.54a2.81,2.81,0,0,0,.53-.6,1.11,1.11,0,0,0,.17-.57,1.72,1.72,0,0,0-.43-1.22,1.44,1.44,0,0,0-1.15-.47,3.44,3.44,0,0,0-1.22.17,3.3,3.3,0,0,0-1.17.8l-.14-.65a3.62,3.62,0,0,1,1.15-.65,5.3,5.3,0,0,1,1.32-.16,2.55,2.55,0,0,1,1.61.58,1.88,1.88,0,0,1,.72,1.54,1.83,1.83,0,0,1-.23.87,4.58,4.58,0,0,1-.81.92l-.57.52a3.4,3.4,0,0,0-.43.44,1.19,1.19,0,0,0-.18.3c0,.09,0,.19-.06.31s0,.28,0,.49Zm-.66,1.65h.66v.75h-.66Z" transform="translate(0 0)"/><path class="cls-2" d="M18.64,161.74h3.65v1.74H18.64Z" transform="translate(0 0)"/><path class="cls-2" d="M29,157.2h.67v8.94H29Z" transform="translate(0 0)"/><path class="cls-2" d="M38.32,162.09v4h-.59v-4a2.88,2.88,0,0,0-.45-1.84,1.63,1.63,0,0,0-1.33-.54,2.75,2.75,0,0,0-1.75.58,2.44,2.44,0,0,0-.74,2v3.79h-.59v-6.71h.59v1.26a2.33,2.33,0,0,1,.84-.94,3.05,3.05,0,0,1,1.68-.48,2.26,2.26,0,0,1,1.71.68A3,3,0,0,1,38.32,162.09Z" transform="translate(0 0)"/><path class="cls-2" d="M46.3,157.53v1.9h2.44v.47H46.3v4a2,2,0,0,0,.21,1.07,1.42,1.42,0,0,0,1.27.67h1v.47h-.92a2.41,2.41,0,0,1-1.51-.48,2.07,2.07,0,0,1-.61-1.73v-4h-.87v-.47h.87v-1.9Z" transform="translate(0 0)"/><path class="cls-2" d="M56.42,162.09v4h-.59v-4a2.76,2.76,0,0,0-.48-1.84,1.77,1.77,0,0,0-1.42-.54,2.41,2.41,0,0,0-1.73.6,2.64,2.64,0,0,0-.64,2v3.79H51v-9.32h.59v3.85a2.24,2.24,0,0,1,.73-.92,2.9,2.9,0,0,1,1.78-.48,2.2,2.2,0,0,1,1.71.71A3.08,3.08,0,0,1,56.42,162.09Z" transform="translate(0 0)"/><path class="cls-2" d="M59.44,156.82H60v.75h-.59Zm0,2.61H60v6.71h-.59Z" transform="translate(0 0)"/><path class="cls-2" d="M67.32,159.63v.6a5.93,5.93,0,0,0-.78-.36,7.53,7.53,0,0,0-1.12-.12,2.93,2.93,0,0,0-1.6.38,1.24,1.24,0,0,0-.44,1.07.93.93,0,0,0,.42.8,3.66,3.66,0,0,0,1.27.48l.4.08a4.2,4.2,0,0,1,1.56.59,1.44,1.44,0,0,1,.64,1.14,1.87,1.87,0,0,1-.61,1.49,3.19,3.19,0,0,1-2.07.54,5.17,5.17,0,0,1-1.21-.11c-.33-.08-.68-.19-1.05-.31v-.69a7,7,0,0,0,1,.48,5.57,5.57,0,0,0,1.27.15,2.42,2.42,0,0,0,1.54-.4,1.32,1.32,0,0,0,.5-1.06.94.94,0,0,0-.34-.81,4.18,4.18,0,0,0-1.54-.59l-.41-.09a3.56,3.56,0,0,1-1.39-.55,1.35,1.35,0,0,1-.59-1.09,1.67,1.67,0,0,1,.72-1.52,3.19,3.19,0,0,1,1.77-.46,5.68,5.68,0,0,1,1.24.09A5.79,5.79,0,0,1,67.32,159.63Z" transform="translate(0 0)"/><path class="cls-2" d="M79.94,165.31c0,1.39-.29,2.31-.86,2.74a3.52,3.52,0,0,1-2.17.65,7.34,7.34,0,0,1-1.18-.09,6.56,6.56,0,0,1-1.08-.27v-.63a4.51,4.51,0,0,0,1,.39,4.06,4.06,0,0,0,1,.13,3.72,3.72,0,0,0,1.85-.43c.51-.28.77-1.05.77-2.29v-1a2.52,2.52,0,0,1-.73,1.08,2.29,2.29,0,0,1-1.59.6,2.67,2.67,0,0,1-2.14-.9,4.61,4.61,0,0,1,0-5.07,2.67,2.67,0,0,1,2.14-.9,2.32,2.32,0,0,1,1.51.51,3,3,0,0,1,.81,1.08v-1.43h.6Zm-.6-2.6a3.42,3.42,0,0,0-.61-2.17,2.27,2.27,0,0,0-3.41,0,3.48,3.48,0,0,0-.61,2.17,3.43,3.43,0,0,0,.61,2.16,2.27,2.27,0,0,0,3.41,0A3.37,3.37,0,0,0,79.34,162.71Z" transform="translate(0 0)"/><path class="cls-2" d="M87.69,162.31v3.83H87.1v-1.82a2.76,2.76,0,0,1-1.32,1.7,3,3,0,0,1-1.29.3,2.51,2.51,0,0,1-1.7-.54,2.2,2.2,0,0,1,.19-3.24,4.34,4.34,0,0,1,2.64-.63h1.47v-.11a2.06,2.06,0,0,0-.55-1.47,2.39,2.39,0,0,0-1.79-.58,4.09,4.09,0,0,0-1.27.22,5.33,5.33,0,0,0-1.07.56v-.6a4.72,4.72,0,0,1,1.07-.46,5,5,0,0,1,1.39-.2A3.08,3.08,0,0,1,87,160,3,3,0,0,1,87.69,162.31Zm-2.22.05a3.46,3.46,0,0,0-2.06.47,1.62,1.62,0,0,0-.63,1.38,1.44,1.44,0,0,0,.52,1.26,2.3,2.3,0,0,0,3.19-.69,4.12,4.12,0,0,0,.6-2v-.41Z" transform="translate(0 0)"/><path class="cls-2" d="M96,160.89a2.44,2.44,0,0,1,1.06-1.22,3.09,3.09,0,0,1,1.62-.4,1.93,1.93,0,0,1,1.51.62,3.23,3.23,0,0,1,.57,2.2v4h-.58v-4a3,3,0,0,0-.42-1.88,1.35,1.35,0,0,0-1.09-.5,2.87,2.87,0,0,0-1.76.57,2.39,2.39,0,0,0-.83,2v3.79h-.59v-4a3.12,3.12,0,0,0-.4-1.86,1.35,1.35,0,0,0-1.11-.52,2.85,2.85,0,0,0-1.75.58,2.33,2.33,0,0,0-.83,2v3.79h-.6v-6.71h.6v1.26a2.29,2.29,0,0,1,1-1,3.19,3.19,0,0,1,1.64-.38,2.11,2.11,0,0,1,1.22.4A2.35,2.35,0,0,1,96,160.89Z" transform="translate(0 0)"/><path class="cls-2" d="M109.4,162.51v.35h-5.48a2.53,2.53,0,0,0,2.9,3,4.62,4.62,0,0,0,1-.15,6.39,6.39,0,0,0,1.28-.47v.58a6.56,6.56,0,0,1-1.31.38,5.71,5.71,0,0,1-1.06.14,3.41,3.41,0,0,1-2.51-.84,3.51,3.51,0,0,1-.92-2.62,3.72,3.72,0,0,1,.84-2.67,3.1,3.1,0,0,1,2.38-.92,2.61,2.61,0,0,1,2.14.87A3.72,3.72,0,0,1,109.4,162.51Zm-.6-.12a2.75,2.75,0,0,0-.68-2.06,2.15,2.15,0,0,0-1.56-.58,2.76,2.76,0,0,0-1.81.6,2.91,2.91,0,0,0-.8,2Z" transform="translate(0 0)"/><path class="cls-2" d="M112.28,165.39h.65v.26l-.51,1.92H112l.26-1.92Z" transform="translate(0 0)"/><path class="cls-2" d="M120.63,156.82h.59v.75h-.59Zm0,2.61h.59v6.71h-.59Z" transform="translate(0 0)"/><path class="cls-2" d="M125.05,157.53v1.9h2.45v.47h-2.45v4a2,2,0,0,0,.21,1.07,1.44,1.44,0,0,0,1.28.67h1v.47h-.93a2.36,2.36,0,0,1-1.5-.48,2.07,2.07,0,0,1-.62-1.73v-4h-.86v-.47h.86v-1.9Z" transform="translate(0 0)"/><path class="cls-2" d="M130,157.2h.65v.9l-.51,1.92h-.4l.26-1.92Z" transform="translate(0 0)"/><path class="cls-2" d="M138.12,159.63v.6a5.93,5.93,0,0,0-.78-.36,7.53,7.53,0,0,0-1.12-.12,2.93,2.93,0,0,0-1.6.38,1.24,1.24,0,0,0-.44,1.07.93.93,0,0,0,.42.8,3.66,3.66,0,0,0,1.27.48l.4.08a4.2,4.2,0,0,1,1.56.59,1.41,1.41,0,0,1,.64,1.14,1.89,1.89,0,0,1-.6,1.49,3.24,3.24,0,0,1-2.08.54,5.17,5.17,0,0,1-1.21-.11c-.33-.08-.68-.19-1.05-.31v-.69a7,7,0,0,0,1,.48,5.57,5.57,0,0,0,1.27.15,2.42,2.42,0,0,0,1.54-.4,1.32,1.32,0,0,0,.5-1.06.94.94,0,0,0-.34-.81A4.18,4.18,0,0,0,136,163l-.41-.09a3.5,3.5,0,0,1-1.38-.55,1.34,1.34,0,0,1-.6-1.09,1.67,1.67,0,0,1,.72-1.52,3.19,3.19,0,0,1,1.77-.46,5.68,5.68,0,0,1,1.24.09A5.79,5.79,0,0,1,138.12,159.63Z" transform="translate(0 0)"/><path class="cls-2" d="M20.09,178.26v4.07h-.58v-9.26h.58v1.53a2.91,2.91,0,0,1,.88-1.2,2.47,2.47,0,0,1,1.37-.49,2.72,2.72,0,0,1,2.14,1,4.25,4.25,0,0,1,0,5.1,2.72,2.72,0,0,1-2.14,1,2.47,2.47,0,0,1-1.37-.49A2.91,2.91,0,0,1,20.09,178.26Zm4.61-1.83a3.14,3.14,0,0,0-.74-2.34,2.31,2.31,0,0,0-1.57-.7,2.27,2.27,0,0,0-1.55.7,4,4,0,0,0,0,4.68,2.27,2.27,0,0,0,1.55.7,2.31,2.31,0,0,0,1.57-.7A3.14,3.14,0,0,0,24.7,176.43Z" transform="translate(0 0)"/><path class="cls-2" d="M30.54,172.91a2.72,2.72,0,0,1,2.18,1,4.56,4.56,0,0,1,0,5.16,3,3,0,0,1-4.38,0,4,4,0,0,1-.8-2.61,3.81,3.81,0,0,1,.81-2.56A2.68,2.68,0,0,1,30.54,172.91Zm0,.48a2.09,2.09,0,0,0-1.74.82,4.16,4.16,0,0,0,0,4.45,2.27,2.27,0,0,0,3.49,0,3.61,3.61,0,0,0,.64-2.24,3.53,3.53,0,0,0-.64-2.2A2.1,2.1,0,0,0,30.55,173.39Z" transform="translate(0 0)"/><path class="cls-2" d="M40.27,173.27v.6a5.93,5.93,0,0,0-.78-.36,5.56,5.56,0,0,0-1.12-.12,2.93,2.93,0,0,0-1.6.38,1.23,1.23,0,0,0-.44,1.07.91.91,0,0,0,.42.79,3.37,3.37,0,0,0,1.27.48l.4.09a4,4,0,0,1,1.56.59,1.41,1.41,0,0,1,.64,1.14,1.91,1.91,0,0,1-.6,1.49,3.22,3.22,0,0,1-2.08.53,5.28,5.28,0,0,1-1.21-.1c-.33-.09-.68-.19-1-.32v-.69a6.59,6.59,0,0,0,1,.48,5.08,5.08,0,0,0,1.27.16,2.42,2.42,0,0,0,1.54-.4A1.32,1.32,0,0,0,40,178a.94.94,0,0,0-.33-.8,4.13,4.13,0,0,0-1.55-.59l-.41-.09a3.5,3.5,0,0,1-1.38-.56,1.32,1.32,0,0,1-.6-1.09,1.65,1.65,0,0,1,.72-1.51,3.19,3.19,0,0,1,1.77-.46,5.68,5.68,0,0,1,1.24.09A5.79,5.79,0,0,1,40.27,173.27Z" transform="translate(0 0)"/><path class="cls-2" d="M47.27,173.27v.6a7.54,7.54,0,0,0-.78-.36,5.56,5.56,0,0,0-1.12-.12,2.93,2.93,0,0,0-1.6.38,1.2,1.2,0,0,0-.44,1.07.93.93,0,0,0,.41.79,3.37,3.37,0,0,0,1.27.48l.41.09a4,4,0,0,1,1.55.59,1.42,1.42,0,0,1,.65,1.14,1.88,1.88,0,0,1-.61,1.49,3.21,3.21,0,0,1-2.07.53,5.22,5.22,0,0,1-1.21-.1c-.34-.09-.68-.19-1-.32v-.69a6.52,6.52,0,0,0,1,.48,5.06,5.06,0,0,0,1.26.16,2.41,2.41,0,0,0,1.54-.4A1.3,1.3,0,0,0,47,178a.94.94,0,0,0-.34-.8,4.08,4.08,0,0,0-1.54-.59l-.41-.09a3.55,3.55,0,0,1-1.39-.56,1.32,1.32,0,0,1-.6-1.09,1.65,1.65,0,0,1,.72-1.51,3.25,3.25,0,0,1,1.78-.46,5.57,5.57,0,0,1,1.23.09A5.5,5.5,0,0,1,47.27,173.27Z" transform="translate(0 0)"/><path class="cls-2" d="M50.17,170.46h.59v.75h-.59Zm0,2.61h.59v6.71h-.59Z" transform="translate(0 0)"/><path class="cls-2" d="M54.56,174.6a2.91,2.91,0,0,1,.88-1.2,2.49,2.49,0,0,1,1.37-.49,2.72,2.72,0,0,1,2.14,1,4.25,4.25,0,0,1,0,5.1,2.72,2.72,0,0,1-2.14,1,2.49,2.49,0,0,1-1.37-.49,2.91,2.91,0,0,1-.88-1.2v1.52H54v-9.32h.58Zm4.61,1.83a3.14,3.14,0,0,0-.74-2.34,2.31,2.31,0,0,0-1.57-.7,2.29,2.29,0,0,0-1.55.7,4.07,4.07,0,0,0,0,4.68,2.29,2.29,0,0,0,1.55.7,2.31,2.31,0,0,0,1.57-.7A3.14,3.14,0,0,0,59.17,176.43Z" transform="translate(0 0)"/><path class="cls-2" d="M62.46,170.46h.6v9.32h-.6Z" transform="translate(0 0)"/><path class="cls-2" d="M71.88,176.15v.35H66.4a2.52,2.52,0,0,0,2.9,3,4.18,4.18,0,0,0,1-.16,6.34,6.34,0,0,0,1.28-.46v.58a7.54,7.54,0,0,1-1.31.38,5.64,5.64,0,0,1-1.06.13,3.07,3.07,0,0,1-3.43-3.45,3.76,3.76,0,0,1,.84-2.68,3.09,3.09,0,0,1,2.38-.91,2.64,2.64,0,0,1,2.14.86A3.73,3.73,0,0,1,71.88,176.15Zm-.6-.12a2.69,2.69,0,0,0-.69-2.06,2.07,2.07,0,0,0-1.56-.58,2.74,2.74,0,0,0-1.8.6,2.9,2.9,0,0,0-.81,2Z" transform="translate(0 0)"/><path class="cls-2" d="M81.91,170.46v.46h-.84a1.43,1.43,0,0,0-1,.32,1.57,1.57,0,0,0-.43,1.23v.6h2v.47h-2v6.24H79v-6.24H77.91v-.47H79v-.47a2.15,2.15,0,0,1,.55-1.63,2.1,2.1,0,0,1,1.5-.51Z" transform="translate(0 0)"/><path class="cls-2" d="M86.12,172.91a2.68,2.68,0,0,1,2.17,1,4.51,4.51,0,0,1,0,5.16,2.66,2.66,0,0,1-2.17,1,2.72,2.72,0,0,1-2.2-.95,4,4,0,0,1-.8-2.61,3.86,3.86,0,0,1,.8-2.56A2.72,2.72,0,0,1,86.12,172.91Zm0,.48a2.12,2.12,0,0,0-1.74.82,4.19,4.19,0,0,0,0,4.45,2.26,2.26,0,0,0,3.48,0,3.55,3.55,0,0,0,.65-2.24,3.47,3.47,0,0,0-.65-2.2A2.07,2.07,0,0,0,86.12,173.39Z" transform="translate(0 0)"/><path class="cls-2" d="M95.68,173.54a1.77,1.77,0,0,0-.38-.11,2.92,2.92,0,0,0-.56,0,2.41,2.41,0,0,0-1.82.76,3.08,3.08,0,0,0-.56,2.09v3.54h-.58v-6.71h.58v1.26a2.52,2.52,0,0,1,.81-.91,2.87,2.87,0,0,1,1.7-.51h.44a1.5,1.5,0,0,1,.37.05Z" transform="translate(0 0)"/><path class="cls-2" d="M106.82,174.53a2.4,2.4,0,0,1,1.06-1.22,3.09,3.09,0,0,1,1.62-.4,2,2,0,0,1,1.51.61,3.28,3.28,0,0,1,.57,2.21v4.05H111v-4a3,3,0,0,0-.42-1.88,1.34,1.34,0,0,0-1.09-.49,2.82,2.82,0,0,0-1.75.57,2.35,2.35,0,0,0-.84,2v3.79h-.59v-4a3.1,3.1,0,0,0-.4-1.85,1.31,1.31,0,0,0-1.11-.52,2.79,2.79,0,0,0-1.75.58,2.35,2.35,0,0,0-.83,2v3.79h-.59v-6.71h.59v1.26a2.36,2.36,0,0,1,1-1.05,3.29,3.29,0,0,1,1.64-.37,2.18,2.18,0,0,1,1.22.39A2.38,2.38,0,0,1,106.82,174.53Z" transform="translate(0 0)"/><path class="cls-2" d="M114.52,177.12v-4.05h.6v4a2.88,2.88,0,0,0,.45,1.84,1.63,1.63,0,0,0,1.33.54,2.77,2.77,0,0,0,1.75-.58,2.44,2.44,0,0,0,.73-2v-3.79h.6v6.71h-.6v-1.26a2.31,2.31,0,0,1-.83.94,3.05,3.05,0,0,1-1.68.48,2.22,2.22,0,0,1-1.71-.68A3,3,0,0,1,114.52,177.12Z" transform="translate(0 0)"/><path class="cls-2" d="M123.09,170.46h.59v9.32h-.59Z" transform="translate(0 0)"/><path class="cls-2" d="M127.5,171.16v1.91h2.44v.47H127.5v4a2,2,0,0,0,.21,1.07,1.43,1.43,0,0,0,1.28.67h.95v.47H129a2.36,2.36,0,0,1-1.5-.48,2.06,2.06,0,0,1-.62-1.73v-4H126v-.47h.87v-1.91Z" transform="translate(0 0)"/><path class="cls-2" d="M132.15,170.46h.6v.75h-.6Zm0,2.61h.6v6.71h-.6Z" transform="translate(0 0)"/><path class="cls-2" d="M136.55,178.26v4.07H136v-9.26h.58v1.53a2.91,2.91,0,0,1,.88-1.2,2.47,2.47,0,0,1,1.37-.49,2.72,2.72,0,0,1,2.14,1,4.25,4.25,0,0,1,0,5.1,2.72,2.72,0,0,1-2.14,1,2.47,2.47,0,0,1-1.37-.49A2.91,2.91,0,0,1,136.55,178.26Zm4.61-1.83a3.1,3.1,0,0,0-.75-2.34,2.27,2.27,0,0,0-1.56-.7,2.31,2.31,0,0,0-1.56.7,4.07,4.07,0,0,0,0,4.68,2.31,2.31,0,0,0,1.56.7,2.27,2.27,0,0,0,1.56-.7A3.1,3.1,0,0,0,141.16,176.43Z" transform="translate(0 0)"/><path class="cls-2" d="M144.45,170.46H145v9.32h-.59Z" transform="translate(0 0)"/><path class="cls-2" d="M153.86,176.15v.35h-5.48a3.07,3.07,0,0,0,.68,2.26,3.1,3.1,0,0,0,2.23.72,4.33,4.33,0,0,0,1-.16,6.34,6.34,0,0,0,1.28-.46v.58a7.8,7.8,0,0,1-1.31.38,5.64,5.64,0,0,1-1.07.13,3.41,3.41,0,0,1-2.51-.84,3.47,3.47,0,0,1-.91-2.61,3.76,3.76,0,0,1,.83-2.68,3.11,3.11,0,0,1,2.39-.91,2.65,2.65,0,0,1,2.14.86A3.73,3.73,0,0,1,153.86,176.15Zm-.6-.12a2.69,2.69,0,0,0-.68-2.06,2.07,2.07,0,0,0-1.56-.58,2.72,2.72,0,0,0-1.8.6,2.9,2.9,0,0,0-.81,2Z" transform="translate(0 0)"/><path class="cls-2" d="M20.09,191.89V196h-.58V186.7h.58v1.54A2.78,2.78,0,0,1,21,187a2.49,2.49,0,0,1,1.37-.5,2.75,2.75,0,0,1,2.14,1,4.27,4.27,0,0,1,0,5.11,2.72,2.72,0,0,1-2.14,1,2.49,2.49,0,0,1-1.37-.5A2.78,2.78,0,0,1,20.09,191.89Zm4.61-1.82a3.12,3.12,0,0,0-.74-2.34,2.27,2.27,0,0,0-1.57-.7,2.22,2.22,0,0,0-1.55.7,4,4,0,0,0,0,4.67,2.22,2.22,0,0,0,1.55.7,2.27,2.27,0,0,0,1.57-.7A3.11,3.11,0,0,0,24.7,190.07Z" transform="translate(0 0)"/><path class="cls-2" d="M33.62,189.78v.35H28.14a3.09,3.09,0,0,0,.68,2.27,3.09,3.09,0,0,0,2.22.72,4.91,4.91,0,0,0,1-.16,5.75,5.75,0,0,0,1.27-.47v.58a7.32,7.32,0,0,1-1.31.39,6.51,6.51,0,0,1-1.06.13,3.41,3.41,0,0,1-2.51-.84,3.51,3.51,0,0,1-.92-2.62,3.75,3.75,0,0,1,.84-2.67,3.11,3.11,0,0,1,2.38-.92,2.61,2.61,0,0,1,2.14.87A3.72,3.72,0,0,1,33.62,189.78Zm-.6-.12a2.75,2.75,0,0,0-.68-2.06,2.14,2.14,0,0,0-1.56-.57,2.76,2.76,0,0,0-1.81.6,2.93,2.93,0,0,0-.8,2Z" transform="translate(0 0)"/><path class="cls-2" d="M38.78,186.54a2.7,2.7,0,0,1,2.18,1,3.9,3.9,0,0,1,.8,2.56,3.94,3.94,0,0,1-.8,2.6,2.7,2.7,0,0,1-2.18,1,2.75,2.75,0,0,1-2.2-1,4,4,0,0,1-.8-2.61,3.84,3.84,0,0,1,.81-2.57A2.71,2.71,0,0,1,38.78,186.54Zm0,.49a2.06,2.06,0,0,0-1.74.82,3.45,3.45,0,0,0-.65,2.2,3.51,3.51,0,0,0,.64,2.24,2.25,2.25,0,0,0,3.49,0,4.17,4.17,0,0,0,0-4.44A2.09,2.09,0,0,0,38.79,187Z" transform="translate(0 0)"/><path class="cls-2" d="M45,191.89V196h-.58V186.7H45v1.54a2.86,2.86,0,0,1,.88-1.2,2.51,2.51,0,0,1,1.38-.5,2.75,2.75,0,0,1,2.13,1,4.27,4.27,0,0,1,0,5.11,2.71,2.71,0,0,1-2.13,1,2.51,2.51,0,0,1-1.38-.5A2.86,2.86,0,0,1,45,191.89Zm4.62-1.82a3.08,3.08,0,0,0-.75-2.34,2.27,2.27,0,0,0-1.57-.7,2.24,2.24,0,0,0-1.55.7,4.05,4.05,0,0,0,0,4.67,2.24,2.24,0,0,0,1.55.7,2.27,2.27,0,0,0,1.57-.7A3.07,3.07,0,0,0,49.64,190.07Z" transform="translate(0 0)"/><path class="cls-2" d="M52.93,184.09h.59v9.33h-.59Z" transform="translate(0 0)"/><path class="cls-2" d="M62.34,189.78v.35H56.86a2.53,2.53,0,0,0,2.9,3,4.91,4.91,0,0,0,1-.16,5.75,5.75,0,0,0,1.27-.47v.58a7.32,7.32,0,0,1-1.31.39,6.51,6.51,0,0,1-1.06.13,3.41,3.41,0,0,1-2.51-.84,3.51,3.51,0,0,1-.92-2.62,3.75,3.75,0,0,1,.84-2.67,3.11,3.11,0,0,1,2.38-.92,2.61,2.61,0,0,1,2.14.87A3.72,3.72,0,0,1,62.34,189.78Zm-.6-.12a2.75,2.75,0,0,0-.68-2.06A2.14,2.14,0,0,0,59.5,187a2.76,2.76,0,0,0-1.81.6,2.89,2.89,0,0,0-.8,2Z" transform="translate(0 0)"/><path class="cls-2" d="M69.89,184.8v1.9h2.44v.47H69.89v4a2,2,0,0,0,.21,1.08,1.46,1.46,0,0,0,1.28.67h1v.47h-.92a2.42,2.42,0,0,1-1.5-.48,2.1,2.1,0,0,1-.62-1.74v-4h-.86v-.47h.86v-1.9Z" transform="translate(0 0)"/><path class="cls-2" d="M77.11,186.54a2.7,2.7,0,0,1,2.18,1,3.9,3.9,0,0,1,.8,2.56,3.94,3.94,0,0,1-.8,2.6,2.7,2.7,0,0,1-2.18,1,2.75,2.75,0,0,1-2.2-1,4,4,0,0,1-.8-2.61,3.84,3.84,0,0,1,.81-2.57A2.71,2.71,0,0,1,77.11,186.54Zm0,.49a2.09,2.09,0,0,0-1.74.82,3.45,3.45,0,0,0-.64,2.2,3.51,3.51,0,0,0,.64,2.24,2.24,2.24,0,0,0,3.48,0,4.12,4.12,0,0,0,0-4.44A2.06,2.06,0,0,0,77.11,187Z" transform="translate(0 0)"/><path class="cls-2" d="M86.41,186.7H87l1.69,6,1.68-6h.76l1.69,6,1.69-6h.61l-1.89,6.72h-.82l-1.66-5.89-1.66,5.89h-.81Z" transform="translate(0 0)"/><path class="cls-2" d="M98,184.09h.59v.76H98Zm0,2.61h.59v6.72H98Z" transform="translate(0 0)"/><path class="cls-2" d="M107.22,189.36v4.06h-.59v-4a2.9,2.9,0,0,0-.45-1.84,1.65,1.65,0,0,0-1.33-.53,2.74,2.74,0,0,0-1.75.57,2.44,2.44,0,0,0-.74,2v3.8h-.59V186.7h.59V188a2.31,2.31,0,0,1,.84-.93,3,3,0,0,1,1.68-.49,2.26,2.26,0,0,1,1.71.68A3.06,3.06,0,0,1,107.22,189.36Z" transform="translate(0 0)"/><path class="cls-2" d="M110.53,192.66h.65v.76h-.65Z" transform="translate(0 0)"/><path class="cls-2" d="M119,184.47h2.36a5.74,5.74,0,0,1,3.86,1.08,5.29,5.29,0,0,1,0,6.78,5.78,5.78,0,0,1-3.86,1.09H119Zm.65.51v8h1.91a4.51,4.51,0,0,0,3.19-1,5,5,0,0,0,0-6,4.51,4.51,0,0,0-3.19-1Z" transform="translate(0 0)"/><path class="cls-2" d="M131.71,186.54a2.68,2.68,0,0,1,2.18,1,3.85,3.85,0,0,1,.81,2.56,3.89,3.89,0,0,1-.81,2.6,2.68,2.68,0,0,1-2.18,1,2.73,2.73,0,0,1-2.19-1,4.59,4.59,0,0,1,0-5.18A2.74,2.74,0,0,1,131.71,186.54Zm0,.49a2.09,2.09,0,0,0-1.74.82,3.45,3.45,0,0,0-.64,2.2,3.57,3.57,0,0,0,.63,2.24,2.1,2.1,0,0,0,1.75.83,2.07,2.07,0,0,0,1.74-.83,4.12,4.12,0,0,0,0-4.44A2.06,2.06,0,0,0,131.72,187Z" transform="translate(0 0)"/><path class="cls-2" d="M143,189.78v.35h-5.48a2.53,2.53,0,0,0,2.9,3,4.91,4.91,0,0,0,1-.16,5.75,5.75,0,0,0,1.27-.47v.58a7.47,7.47,0,0,1-1.3.39,6.73,6.73,0,0,1-1.07.13,3.41,3.41,0,0,1-2.51-.84,3.51,3.51,0,0,1-.92-2.62,3.75,3.75,0,0,1,.84-2.67,3.12,3.12,0,0,1,2.39-.92,2.64,2.64,0,0,1,2.14.87A3.78,3.78,0,0,1,143,189.78Zm-.6-.12a2.75,2.75,0,0,0-.68-2.06,2.11,2.11,0,0,0-1.56-.57,2.76,2.76,0,0,0-1.81.6,2.93,2.93,0,0,0-.8,2Z" transform="translate(0 0)"/><path class="cls-2" d="M149.69,186.9v.61a4.64,4.64,0,0,0-.78-.36,5.56,5.56,0,0,0-1.12-.12,2.94,2.94,0,0,0-1.6.37,1.21,1.21,0,0,0-.44,1.07.92.92,0,0,0,.42.8,3.24,3.24,0,0,0,1.27.48l.4.08a4.14,4.14,0,0,1,1.55.59,1.45,1.45,0,0,1,.65,1.14,1.89,1.89,0,0,1-.61,1.5,3.27,3.27,0,0,1-2.07.53,5.92,5.92,0,0,1-1.21-.1c-.33-.09-.68-.2-1.05-.32v-.69a7,7,0,0,0,1,.48,5.58,5.58,0,0,0,1.26.16,2.4,2.4,0,0,0,1.54-.41,1.28,1.28,0,0,0,.51-1.06.94.94,0,0,0-.34-.81,4,4,0,0,0-1.54-.58l-.41-.09a3.55,3.55,0,0,1-1.39-.56,1.32,1.32,0,0,1-.6-1.09,1.66,1.66,0,0,1,.73-1.52,3.28,3.28,0,0,1,1.77-.46,5.68,5.68,0,0,1,1.24.09A5.79,5.79,0,0,1,149.69,186.9Z" transform="translate(0 0)"/><path class="cls-2" d="M20.12,198.43v1.91h2.44v.47H20.12v4a2,2,0,0,0,.21,1.07,1.44,1.44,0,0,0,1.28.67h.95v.47h-.92a2.36,2.36,0,0,1-1.5-.48,2.07,2.07,0,0,1-.62-1.73v-4h-.86v-.47h.86v-1.91Z" transform="translate(0 0)"/><path class="cls-2" d="M30.24,203v4.05h-.59v-4a2.83,2.83,0,0,0-.47-1.84,1.79,1.79,0,0,0-1.43-.54,2.43,2.43,0,0,0-1.73.6,2.68,2.68,0,0,0-.64,2v3.79h-.59v-9.32h.59v3.85a2.27,2.27,0,0,1,.74-.92,2.88,2.88,0,0,1,1.78-.48,2.17,2.17,0,0,1,1.7.71A3.06,3.06,0,0,1,30.24,203Z" transform="translate(0 0)"/><path class="cls-2" d="M38.37,203.22v3.83h-.58v-1.82a2.76,2.76,0,0,1-1.32,1.7,3,3,0,0,1-1.29.3,2.5,2.5,0,0,1-1.7-.54,2,2,0,0,1-.62-1.58,2,2,0,0,1,.81-1.67,4.31,4.31,0,0,1,2.63-.62h1.47v-.11a2.05,2.05,0,0,0-.54-1.47,2.4,2.4,0,0,0-1.8-.58,4.08,4.08,0,0,0-1.26.22,5.33,5.33,0,0,0-1.07.56v-.6a4.54,4.54,0,0,1,1.07-.46,4.92,4.92,0,0,1,1.39-.2,3.08,3.08,0,0,1,2.1.72A3,3,0,0,1,38.37,203.22Zm-2.21,0a3.45,3.45,0,0,0-2.06.48,1.61,1.61,0,0,0-.63,1.38,1.44,1.44,0,0,0,.52,1.26,2.07,2.07,0,0,0,1.24.37,2,2,0,0,0,1.94-1.06,4.15,4.15,0,0,0,.6-2v-.42Z" transform="translate(0 0)"/><path class="cls-2" d="M42.11,198.43v1.91h2.44v.47H42.11v4a2,2,0,0,0,.21,1.07,1.43,1.43,0,0,0,1.28.67h.95v.47h-.92a2.36,2.36,0,0,1-1.5-.48,2,2,0,0,1-.62-1.73v-4h-.87v-.47h.87v-1.91Z" transform="translate(0 0)"/><path class="cls-2" d="M54.2,197.73v.46h-.84a1.43,1.43,0,0,0-1,.32,1.58,1.58,0,0,0-.43,1.24v.59h2v.47h-2v6.24h-.6v-6.24H50.2v-.47h1.13v-.47a2.13,2.13,0,0,1,.55-1.63,2.09,2.09,0,0,1,1.49-.51Z" transform="translate(0 0)"/><path class="cls-2" d="M61.48,203.42v.35H56a3.05,3.05,0,0,0,.67,2.26,3.1,3.1,0,0,0,2.23.72,4.7,4.7,0,0,0,1-.15,6.39,6.39,0,0,0,1.28-.47v.58a6.76,6.76,0,0,1-1.31.38,5.82,5.82,0,0,1-1.06.14,3.42,3.42,0,0,1-2.52-.84,3.51,3.51,0,0,1-.91-2.62,3.81,3.81,0,0,1,.83-2.68,3.13,3.13,0,0,1,2.39-.91,2.63,2.63,0,0,1,2.14.87A3.7,3.7,0,0,1,61.48,203.42Zm-.6-.12a2.71,2.71,0,0,0-.68-2.06,2.11,2.11,0,0,0-1.56-.58,2.72,2.72,0,0,0-1.8.6,2.9,2.9,0,0,0-.81,2Z" transform="translate(0 0)"/><path class="cls-2" d="M69.72,203.42v.35H64.25a3.05,3.05,0,0,0,.67,2.26,3.1,3.1,0,0,0,2.23.72,4.7,4.7,0,0,0,1-.15,6.39,6.39,0,0,0,1.28-.47v.58a6.76,6.76,0,0,1-1.31.38,5.82,5.82,0,0,1-1.06.14,3.42,3.42,0,0,1-2.52-.84,3.51,3.51,0,0,1-.91-2.62,3.81,3.81,0,0,1,.83-2.68,3.13,3.13,0,0,1,2.39-.91,2.63,2.63,0,0,1,2.14.87A3.7,3.7,0,0,1,69.72,203.42Zm-.6-.12a2.71,2.71,0,0,0-.68-2.06,2.11,2.11,0,0,0-1.56-.58,2.72,2.72,0,0,0-1.8.6,2.9,2.9,0,0,0-.81,2Z" transform="translate(0 0)"/><path class="cls-2" d="M72.34,197.73h.59v9.32h-.59Z" transform="translate(0 0)"/><path class="cls-2" d="M84.36,200.81a2.1,2.1,0,0,0-.39-.11,4,4,0,0,0-.55,0,2.43,2.43,0,0,0-1.82.76,3.07,3.07,0,0,0-.57,2.1v3.53h-.58v-6.71H81v1.26a2.71,2.71,0,0,1,.81-.91A3.32,3.32,0,0,1,84,200.2a1.58,1.58,0,0,1,.38,0Z" transform="translate(0 0)"/><path class="cls-2" d="M91.32,203.42v.35H85.84a3.05,3.05,0,0,0,.68,2.26,3.09,3.09,0,0,0,2.22.72,4.78,4.78,0,0,0,1-.15,6.3,6.3,0,0,0,1.27-.47v.58a6.56,6.56,0,0,1-1.31.38,5.71,5.71,0,0,1-1.06.14,3.41,3.41,0,0,1-2.51-.84,3.51,3.51,0,0,1-.92-2.62,3.76,3.76,0,0,1,.84-2.68,3.1,3.1,0,0,1,2.38-.91,2.61,2.61,0,0,1,2.14.87A3.7,3.7,0,0,1,91.32,203.42Zm-.6-.12a2.75,2.75,0,0,0-.68-2.06,2.11,2.11,0,0,0-1.56-.58,2.76,2.76,0,0,0-1.81.6,2.94,2.94,0,0,0-.8,2Z" transform="translate(0 0)"/><path class="cls-2" d="M99,203.22v3.83h-.58v-1.82a2.8,2.8,0,0,1-1.32,1.7,3.08,3.08,0,0,1-1.3.3,2.49,2.49,0,0,1-1.69-.54,2,2,0,0,1-.62-1.58,2,2,0,0,1,.81-1.67,4.29,4.29,0,0,1,2.63-.62h1.47v-.11a2,2,0,0,0-.55-1.47,2.37,2.37,0,0,0-1.79-.58,4.08,4.08,0,0,0-1.26.22,5.08,5.08,0,0,0-1.07.56v-.6a4.54,4.54,0,0,1,1.07-.46,4.92,4.92,0,0,1,1.39-.2,3.08,3.08,0,0,1,2.1.72A3,3,0,0,1,99,203.22Zm-2.21,0a3.45,3.45,0,0,0-2.06.48,1.61,1.61,0,0,0-.63,1.38,1.44,1.44,0,0,0,.52,1.26,2.07,2.07,0,0,0,1.24.37,2,2,0,0,0,1.94-1.06,4.15,4.15,0,0,0,.6-2v-.42Z" transform="translate(0 0)"/><path class="cls-2" d="M102.14,197.73h.59v9.32h-.59Z" transform="translate(0 0)"/><path class="cls-2" d="M105.91,197.73h.6v.75h-.6Zm0,2.61h.6v6.71h-.6Z" transform="translate(0 0)"/><path class="cls-2" d="M113.8,200.54v.6a7.54,7.54,0,0,0-.78-.36,7.68,7.68,0,0,0-1.12-.12,2.93,2.93,0,0,0-1.6.38,1.21,1.21,0,0,0-.45,1.07.93.93,0,0,0,.42.8,3.56,3.56,0,0,0,1.27.47l.41.09a4.14,4.14,0,0,1,1.55.59,1.42,1.42,0,0,1,.65,1.14,1.88,1.88,0,0,1-.61,1.49,3.21,3.21,0,0,1-2.07.54,5.26,5.26,0,0,1-1.22-.11c-.33-.08-.67-.19-1-.31v-.69a6.11,6.11,0,0,0,1,.48,5.49,5.49,0,0,0,1.26.15,2.41,2.41,0,0,0,1.54-.4,1.3,1.3,0,0,0,.51-1.07,1,1,0,0,0-.34-.8,4.25,4.25,0,0,0-1.54-.59l-.41-.09a3.56,3.56,0,0,1-1.39-.55,1.34,1.34,0,0,1-.6-1.09,1.67,1.67,0,0,1,.72-1.52,3.23,3.23,0,0,1,1.78-.46,5.57,5.57,0,0,1,1.23.09A5.5,5.5,0,0,1,113.8,200.54Z" transform="translate(0 0)"/><path class="cls-2" d="M117.33,198.43v1.91h2.45v.47h-2.45v4a1.88,1.88,0,0,0,.22,1.07,1.41,1.41,0,0,0,1.27.67h1v.47h-.93a2.4,2.4,0,0,1-1.5-.48,2.07,2.07,0,0,1-.62-1.73v-4h-.86v-.47h.86v-1.91Z" transform="translate(0 0)"/><path class="cls-2" d="M122,197.73h.59v.75H122Zm0,2.61h.59v6.71H122Z" transform="translate(0 0)"/><path class="cls-2" d="M130.73,200.66v.59a4.62,4.62,0,0,0-.88-.41,4,4,0,0,0-1.15-.18,2.87,2.87,0,0,0-2.23.75,3.27,3.27,0,0,0-.68,2.29,3.31,3.31,0,0,0,.68,2.31,2.91,2.91,0,0,0,2.23.74,3.86,3.86,0,0,0,1-.13,4.44,4.44,0,0,0,1-.38v.55a4.67,4.67,0,0,1-1,.33,5.53,5.53,0,0,1-1.06.11,3.75,3.75,0,0,1-2.52-.8,3.46,3.46,0,0,1-.93-2.73,3.42,3.42,0,0,1,.93-2.72,3.7,3.7,0,0,1,2.52-.8,4.37,4.37,0,0,1,1.1.14A3.87,3.87,0,0,1,130.73,200.66Z" transform="translate(0 0)"/><path class="cls-2" d="M135.17,204.65h-.65v-.92a2.25,2.25,0,0,1,.22-1,3.14,3.14,0,0,1,.76-.9l.58-.54a3.13,3.13,0,0,0,.53-.6,1.1,1.1,0,0,0,.16-.57,1.76,1.76,0,0,0-.42-1.22,1.45,1.45,0,0,0-1.15-.47,3.51,3.51,0,0,0-1.23.17,3.39,3.39,0,0,0-1.17.8l-.13-.65a3.52,3.52,0,0,1,1.15-.65,5.16,5.16,0,0,1,1.31-.16,2.55,2.55,0,0,1,1.62.58,1.87,1.87,0,0,1,.71,1.54,1.72,1.72,0,0,1-.23.87,4,4,0,0,1-.81.92l-.57.52a4.23,4.23,0,0,0-.43.44.92.92,0,0,0-.17.3,1.31,1.31,0,0,0-.06.31c0,.12,0,.28,0,.49Zm-.66,1.65h.66v.75h-.66Z" transform="translate(0 0)"/><path class="cls-2" d="M144,198.1h.66l2.2,8.24,2.19-8.24h.81l2.18,8.2,2.19-8.2h.66l-2.39,9h-.92l-2.13-8-2.12,8h-1Z" transform="translate(0 0)"/><path class="cls-2" d="M163.23,203v4.05h-.59v-4a2.83,2.83,0,0,0-.47-1.84,1.8,1.8,0,0,0-1.43-.54,2.41,2.41,0,0,0-1.73.6,2.64,2.64,0,0,0-.64,2v3.79h-.59v-9.32h.59v3.85a2.24,2.24,0,0,1,.73-.92,2.9,2.9,0,0,1,1.78-.48,2.18,2.18,0,0,1,1.71.71A3.06,3.06,0,0,1,163.23,203Z" transform="translate(0 0)"/><path class="cls-2" d="M168.7,207.67a3.19,3.19,0,0,1-.83,1.24,1.92,1.92,0,0,1-1.18.46h-.88v-.47h.75a1.28,1.28,0,0,0,.83-.28,2.59,2.59,0,0,0,.75-1.07l.22-.5-2.89-6.71h.64l2.56,6,2.57-6h.63Z" transform="translate(0 0)"/><path class="cls-2" d="M22,213.82a2.68,2.68,0,0,1,2.18,1,4.51,4.51,0,0,1,0,5.16,2.68,2.68,0,0,1-2.18,1,2.75,2.75,0,0,1-2.2-.95,4,4,0,0,1-.8-2.61,3.81,3.81,0,0,1,.81-2.56A2.71,2.71,0,0,1,22,213.82Zm0,.48a2.06,2.06,0,0,0-1.74.82,3.48,3.48,0,0,0-.65,2.21,3.59,3.59,0,0,0,.64,2.24,2.27,2.27,0,0,0,3.49,0,3.55,3.55,0,0,0,.64-2.24,3.47,3.47,0,0,0-.64-2.2A2.1,2.1,0,0,0,22.05,214.3Z" transform="translate(0 0)"/><path class="cls-2" d="M31.61,214.45a1.89,1.89,0,0,0-.39-.11,2.81,2.81,0,0,0-.55,0,2.39,2.39,0,0,0-1.82.76,3,3,0,0,0-.57,2.09v3.54H27.7V214h.58v1.26a2.77,2.77,0,0,1,.82-.92,2.91,2.91,0,0,1,1.7-.5h.43a1.58,1.58,0,0,1,.38,0Z" transform="translate(0 0)"/><path class="cls-2" d="M36.89,214h.62l1.69,6,1.68-6h.76l1.69,6L45,214h.61l-1.89,6.71h-.82l-1.66-5.89-1.66,5.89h-.81Z" transform="translate(0 0)"/><path class="cls-2" d="M53.92,216.64v4.05h-.6v-4a2.75,2.75,0,0,0-.47-1.83,1.77,1.77,0,0,0-1.42-.54,2.41,2.41,0,0,0-1.73.6,2.62,2.62,0,0,0-.64,2v3.79h-.6v-9.33h.6v3.86a2.18,2.18,0,0,1,.73-.92,2.9,2.9,0,0,1,1.78-.48,2.18,2.18,0,0,1,1.71.71A3.06,3.06,0,0,1,53.92,216.64Z" transform="translate(0 0)"/><path class="cls-2" d="M59.39,221.31a3.19,3.19,0,0,1-.83,1.24,2,2,0,0,1-1.18.46H56.5v-.47h.75a1.28,1.28,0,0,0,.83-.28,2.76,2.76,0,0,0,.75-1.07l.21-.5L56.16,214h.64l2.56,6,2.57-6h.63Z" transform="translate(0 0)"/><path class="cls-2" d="M74.65,216.64v4.05h-.6v-4a2.9,2.9,0,0,0-.45-1.84,1.65,1.65,0,0,0-1.32-.53,2.72,2.72,0,0,0-1.76.58,2.42,2.42,0,0,0-.73,2v3.79h-.6V214h.6v1.26a2.39,2.39,0,0,1,.83-.94,3.1,3.1,0,0,1,1.68-.48,2.25,2.25,0,0,1,1.71.67A3,3,0,0,1,74.65,216.64Z" transform="translate(0 0)"/><path class="cls-2" d="M80.23,213.82a2.66,2.66,0,0,1,2.17,1,4.51,4.51,0,0,1,0,5.16,2.66,2.66,0,0,1-2.17,1,2.73,2.73,0,0,1-2.2-.95,4,4,0,0,1-.8-2.61,3.86,3.86,0,0,1,.8-2.56A2.72,2.72,0,0,1,80.23,213.82Zm0,.48a2.09,2.09,0,0,0-1.74.82,3.48,3.48,0,0,0-.64,2.21,3.53,3.53,0,0,0,.64,2.24,2.26,2.26,0,0,0,3.48,0,3.55,3.55,0,0,0,.65-2.24,3.47,3.47,0,0,0-.65-2.2A2.07,2.07,0,0,0,80.23,214.3Z" transform="translate(0 0)"/><path class="cls-2" d="M86.5,212.07V214h2.44v.46H86.5v4a2,2,0,0,0,.21,1.07,1.44,1.44,0,0,0,1.28.67h1v.47H88a2.36,2.36,0,0,1-1.5-.48,2.09,2.09,0,0,1-.62-1.73v-4H85V214h.86v-1.91Z" transform="translate(0 0)"/><path class="cls-2" d="M93.17,218.29h-.65v-.93a2.39,2.39,0,0,1,.22-1,3.28,3.28,0,0,1,.76-.91l.58-.53a2.81,2.81,0,0,0,.53-.6,1.14,1.14,0,0,0,.17-.58,1.72,1.72,0,0,0-.43-1.22,1.46,1.46,0,0,0-1.15-.46,2.9,2.9,0,0,0-2.39,1l-.14-.66a3.57,3.57,0,0,1,1.15-.64,4.87,4.87,0,0,1,1.32-.16,2.49,2.49,0,0,1,1.61.58,1.88,1.88,0,0,1,.72,1.54,1.76,1.76,0,0,1-.23.86,4.16,4.16,0,0,1-.82.93l-.56.51a2.86,2.86,0,0,0-.43.45,1,1,0,0,0-.18.3c0,.08,0,.19-.06.31a4.82,4.82,0,0,1,0,.49Zm-.65,1.64h.65v.76h-.65Z" transform="translate(0 0)"/></g><path class="cls-1" d="M37,33.62V19.23h5.88c3.74,0,5.41,2.07,5.41,4.88S46.59,29,42.85,29H39.79v4.62Zm5.92-7.22c1.87,0,2.51-1,2.51-2.29s-.64-2.26-2.51-2.26h-3.1V26.4Z" transform="translate(0 0)"/><path class="cls-1" d="M57.32,33.91a7.3,7.3,0,0,1-7.65-7.49,7.3,7.3,0,0,1,7.65-7.48A7.31,7.31,0,0,1,65,26.42,7.31,7.31,0,0,1,57.32,33.91Zm4.8-7.49a4.8,4.8,0,1,0-9.59,0,4.8,4.8,0,1,0,9.59,0Z" transform="translate(0 0)"/><path class="cls-1" d="M74.44,23.39c0-1.1-.84-1.89-2.4-1.89s-2.38.85-2.38,1.91c0,3,7.68.22,7.68,6,0,2.79-2.13,4.53-5.34,4.53s-5.28-1.7-5.35-4.45H69.4c0,1.15.88,1.92,2.6,1.92s2.59-.77,2.59-1.92c0-3-7.65-.24-7.65-6C66.94,20.84,69,19,72,19s5,1.78,5.08,4.42Z" transform="translate(0 0)"/><path class="cls-1" d="M82.71,33.62V21.85H78.42V19.23h11.4v2.62H85.53V33.62Z" transform="translate(0 0)"/><path class="cls-1" d="M89.51,28.91V26.38h6.6v2.53Z" transform="translate(0 0)"/><path class="cls-1" d="M109.33,23.81a4.53,4.53,0,0,0-4.11-2.25,4.63,4.63,0,0,0-4.8,4.86,4.65,4.65,0,0,0,4.8,4.89,4.49,4.49,0,0,0,4.57-2.95v0h-5.45V25.81h8.51v1.34a7.67,7.67,0,0,1-15.29-.73,7.73,7.73,0,0,1,14.9-2.61Z" transform="translate(0 0)"/><path class="cls-1" d="M124.55,33.62V29.31h-7v4.31h-2.75V25.19c0-3.85,2.2-6.25,6.27-6.25s6.31,2.4,6.31,6.25v8.43Zm0-8.43c0-2.31-1.14-3.63-3.52-3.63s-3.49,1.32-3.49,3.63v1.56h7Z" transform="translate(0 0)"/><path class="cls-1" d="M132.67,33.62h-2.82V24.36c0-3.7,2.18-5.42,5-5.42a4.44,4.44,0,0,1,4.07,2.18H139a4.42,4.42,0,0,1,4.07-2.18c2.83,0,5,1.72,5,5.42v9.26h-2.81V24.36c0-2-1.06-2.8-2.45-2.8s-2.44.84-2.44,2.8v9.26h-2.81V24.36c0-2-1.06-2.8-2.45-2.8s-2.44.82-2.44,2.8Z" transform="translate(0 0)"/><path class="cls-1" d="M153.7,27.57V31h7.79v2.6h-10.6V19.23h10.6v2.62H153.7v3.21h6.52v2.51Z" transform="translate(0 0)"/><path class="cls-1" d="M36.9,53.39V39H42c5,0,7.68,2.88,7.68,7.2S47,53.39,42,53.39ZM42,50.8c3.32,0,4.82-1.81,4.82-4.6s-1.5-4.58-4.82-4.58H39.71V50.8Z" transform="translate(0 0)"/><path class="cls-1" d="M52.12,53.39V39h2.82V53.39Z" transform="translate(0 0)"/><path class="cls-1" d="M65.14,43.16c0-1.1-.83-1.89-2.39-1.89s-2.38.86-2.38,1.91c0,3,7.68.22,7.68,6,0,2.79-2.14,4.53-5.35,4.53S57.42,52,57.35,49.26H60.1c0,1.14.88,1.91,2.6,1.91s2.6-.77,2.6-1.91c0-3-7.66-.25-7.66-6,0-2.66,2-4.53,5.08-4.53s5,1.78,5.09,4.42Z" transform="translate(0 0)"/><path class="cls-1" d="M81.84,44.22a4.58,4.58,0,0,0-4.44-2.89,4.63,4.63,0,0,0-4.8,4.87,4.65,4.65,0,0,0,4.8,4.88,4.58,4.58,0,0,0,4.44-2.9h3a7.48,7.48,0,1,1,0-4Z" transform="translate(0 0)"/><path class="cls-1" d="M96.25,39H99v8.67c0,3.68-2.15,6-6,6s-6.11-2.31-6.11-6V39h2.81v8.67c0,2.14,1.1,3.41,3.28,3.41s3.3-1.27,3.3-3.41Z" transform="translate(0 0)"/><path class="cls-1" d="M108.84,43.16c0-1.1-.84-1.89-2.4-1.89s-2.38.86-2.38,1.91c0,3,7.68.22,7.68,6,0,2.79-2.13,4.53-5.35,4.53s-5.28-1.69-5.34-4.44h2.75c0,1.14.88,1.91,2.59,1.91s2.6-.77,2.6-1.91c0-3-7.66-.25-7.66-6,0-2.66,2-4.53,5.09-4.53s5,1.78,5.08,4.42Z" transform="translate(0 0)"/><path class="cls-1" d="M121.2,43.16c0-1.1-.84-1.89-2.4-1.89s-2.38.86-2.38,1.91c0,3,7.68.22,7.68,6,0,2.79-2.13,4.53-5.34,4.53s-5.28-1.69-5.35-4.44h2.75c0,1.14.88,1.91,2.6,1.91s2.59-.77,2.59-1.91c0-3-7.65-.25-7.65-6,0-2.66,2-4.53,5.08-4.53s5,1.78,5.08,4.42Z" transform="translate(0 0)"/><path class="cls-1" d="M126.54,53.39V39h2.82V53.39Z" transform="translate(0 0)"/><path class="cls-1" d="M139.46,53.68a7.48,7.48,0,1,1,7.66-7.48A7.31,7.31,0,0,1,139.46,53.68Zm4.8-7.48a4.8,4.8,0,1,0-9.6,0,4.8,4.8,0,1,0,9.6,0Z" transform="translate(0 0)"/><path class="cls-1" d="M158.62,53.39V44.72c0-2.13-1.1-3.39-3.3-3.39s-3.3,1.26-3.3,3.39v8.67H149.2V44.72c0-3.69,2.18-6,6.12-6s6.12,2.31,6.12,6v8.67Z" transform="translate(0 0)"/><path class="cls-2" d="M33.53,65.46a2.91,2.91,0,0,0-2.82-1.83,3.1,3.1,0,0,0,0,6.2A2.91,2.91,0,0,0,33.53,68h1.9a4.65,4.65,0,0,1-4.72,3.51,4.77,4.77,0,1,1,0-9.53,4.65,4.65,0,0,1,4.72,3.5Z" transform="translate(0 0)"/><path class="cls-2" d="M38.66,71.3H37V61.36h1.67v4h0a2.31,2.31,0,0,1,2-1.11c1.6,0,3.11,1,3.11,3.5v3.6H42.16V67.7c0-1.31-.7-1.94-1.75-1.94a1.7,1.7,0,0,0-1.75,1.94Z" transform="translate(0 0)"/><path class="cls-2" d="M48.85,71.49a3.65,3.65,0,1,1,3.72-3.65A3.56,3.56,0,0,1,48.85,71.49Zm2-3.65a2,2,0,1,0-2,2.09A2,2,0,0,0,50.88,67.84Z" transform="translate(0 0)"/><path class="cls-2" d="M57.32,71.49A3.65,3.65,0,1,1,61,67.84,3.56,3.56,0,0,1,57.32,71.49Zm2-3.65a2,2,0,1,0-2,2.09A2,2,0,0,0,59.35,67.84Z" transform="translate(0 0)"/><path class="cls-2" d="M66.08,66.37c0-.42-.43-.71-1.08-.71s-1.1.33-1.1.8c0,1.22,4-.09,4,2.76,0,1.31-1.14,2.27-2.9,2.27s-2.87-.94-2.91-2.23h1.68c0,.46.42.77,1.2.77s1.25-.34,1.25-.81c0-1.22-4,.15-4-2.76,0-1.31,1.08-2.26,2.76-2.26s2.72,1,2.76,2.17Z" transform="translate(0 0)"/><path class="cls-2" d="M70.67,68.43v0a1.92,1.92,0,0,0,2,1.51,1.94,1.94,0,0,0,1.64-.66h1.77a3.49,3.49,0,0,1-3.41,2.18,3.65,3.65,0,1,1,3.69-3.65v.59Zm0-1.36v0h3.87v0a2.06,2.06,0,0,0-3.87,0Z" transform="translate(0 0)"/><path class="cls-2" d="M88.72,71.3H87.19V70h0a2.55,2.55,0,0,1-2.45,1.47,3.41,3.41,0,0,1-3.42-3.65A3.55,3.55,0,0,1,85,64.2a3.51,3.51,0,0,1,3.7,3.7Zm-1.67-3.46a2,2,0,1,0-2,2.09A2,2,0,0,0,87.05,67.84Z" transform="translate(0 0)"/><path class="cls-2" d="M101.38,74.26H99.71V70.34h0a2.65,2.65,0,0,1-2.31,1.15A3.42,3.42,0,0,1,94,67.84a3.55,3.55,0,0,1,3.73-3.64,3.51,3.51,0,0,1,3.7,3.7Zm-5.75-6.42a2,2,0,1,0,2.05-2.08A2,2,0,0,0,95.63,67.84Z" transform="translate(0 0)"/><path class="cls-2" d="M108.12,64.38h1.67V68A3.42,3.42,0,1,1,103,68v-3.6h1.67V68c0,1.32.7,2,1.75,2s1.75-.63,1.75-2Z" transform="translate(0 0)"/><path class="cls-2" d="M112.84,68.43v0a1.91,1.91,0,0,0,2,1.51,1.93,1.93,0,0,0,1.64-.66h1.78a3.51,3.51,0,0,1-3.42,2.18,3.65,3.65,0,1,1,3.7-3.65v.59Zm0-1.36v0h3.87v0a1.92,1.92,0,0,0-1.94-1.36A1.9,1.9,0,0,0,112.88,67.07Z" transform="translate(0 0)"/><path class="cls-2" d="M123.55,66.37c0-.42-.43-.71-1.08-.71s-1.1.33-1.1.8c0,1.22,4-.09,4,2.76,0,1.31-1.14,2.27-2.9,2.27s-2.87-.94-2.92-2.23h1.69c0,.46.42.77,1.2.77s1.25-.34,1.25-.81c0-1.22-4,.15-4-2.76,0-1.31,1.08-2.26,2.76-2.26s2.72,1,2.76,2.17Z" transform="translate(0 0)"/><path class="cls-2" d="M132.33,68.64a2.83,2.83,0,1,1-5.66,0V62.07h1.67v2.31h3.57V65.9h-3.57v2.74c0,.93.47,1.29,1.16,1.29s1.16-.35,1.16-1.29v-.18h1.67Z" transform="translate(0 0)"/><path class="cls-2" d="M133.56,62.45a1.11,1.11,0,1,1,1.11,1.11A1.1,1.1,0,0,1,133.56,62.45Zm.28,8.85V64.38h1.67V71.3Z" transform="translate(0 0)"/><path class="cls-2" d="M140.77,71.49a3.65,3.65,0,1,1,3.73-3.65A3.56,3.56,0,0,1,140.77,71.49Zm2-3.65a2,2,0,1,0-2,2.09A2,2,0,0,0,142.8,67.84Z" transform="translate(0 0)"/><path class="cls-2" d="M151,71.3V67.7c0-1.31-.7-1.94-1.75-1.94s-1.75.63-1.75,1.94v3.6h-1.67V67.7a3.42,3.42,0,1,1,6.84,0v3.6Z" transform="translate(0 0)"/><path class="cls-2" d="M163.8,68.64a2.83,2.83,0,1,1-5.66,0V62.07h1.67v2.31h3.57V65.9h-3.57v2.74c0,.93.47,1.29,1.16,1.29s1.16-.35,1.16-1.29v-.18h1.67Z" transform="translate(0 0)"/><path class="cls-2" d="M168.52,71.49a3.65,3.65,0,1,1,3.72-3.65A3.56,3.56,0,0,1,168.52,71.49Zm2-3.65a2,2,0,1,0-2,2.09A2,2,0,0,0,170.55,67.84Z" transform="translate(0 0)"/><path class="cls-2" d="M27.68,84.94H26.15V83.65h0a2.54,2.54,0,0,1-2.45,1.47,3.41,3.41,0,0,1-3.42-3.64A3.55,3.55,0,0,1,24,77.84a3.51,3.51,0,0,1,3.7,3.7ZM26,81.48a2,2,0,1,0-2,2.09A2,2,0,0,0,26,81.48Z" transform="translate(0 0)"/><path class="cls-2" d="M34.42,84.94v-3.6c0-1.32-.7-2-1.75-2s-1.75.63-1.75,2v3.6H29.25v-3.6a3.17,3.17,0,0,1,3.42-3.5,3.16,3.16,0,0,1,3.42,3.5v3.6Z" transform="translate(0 0)"/><path class="cls-2" d="M41.41,80c0-.42-.44-.72-1.08-.72s-1.11.34-1.11.8c0,1.22,4-.08,4,2.76,0,1.32-1.13,2.27-2.9,2.27s-2.87-.94-2.91-2.22h1.68c0,.46.42.77,1.21.77s1.24-.34,1.24-.82c0-1.22-4,.16-4-2.76,0-1.3,1.08-2.25,2.76-2.25s2.72,1,2.76,2.17Z" transform="translate(0 0)"/><path class="cls-2" d="M50.65,78v4c0,1.12.6,1.6,1.4,1.6s1.4-.47,1.4-1.6V78h1.67v4c0,2.17-1.26,3.15-2.9,3.15a2.69,2.69,0,0,1-2.38-1.22h0a2.66,2.66,0,0,1-2.38,1.22c-1.64,0-2.9-1-2.9-3.15V78h1.66v4c0,1.13.59,1.6,1.4,1.6S49,83.09,49,82V78Z" transform="translate(0 0)"/><path class="cls-2" d="M58.16,82.07v0a1.92,1.92,0,0,0,2,1.51A1.94,1.94,0,0,0,61.78,83h1.78a3.51,3.51,0,0,1-3.42,2.17,3.64,3.64,0,1,1,3.7-3.64v.59Zm.05-1.36v0h3.86v0a2,2,0,0,0-3.86,0Z" transform="translate(0 0)"/><path class="cls-2" d="M69.55,81v-.07c0-1.12-.56-1.53-1.38-1.53s-1.37.41-1.37,1.53v4H65.14v-4a3,3,0,1,1,6.06,0v0Z" transform="translate(0 0)"/><path class="cls-2" d="M76.2,76.09a1.11,1.11,0,1,1,1.1,1.1A1.1,1.1,0,0,1,76.2,76.09Zm.28,8.85V78h1.66v6.92Z" transform="translate(0 0)"/><path class="cls-2" d="M85.13,84.94v-3.6c0-1.32-.7-2-1.75-2s-1.75.63-1.75,2v3.6H80v-3.6a3.42,3.42,0,1,1,6.84,0v3.6Z" transform="translate(0 0)"/><path class="cls-2" d="M99.45,84.94H97.93V83.65h0a2.55,2.55,0,0,1-2.45,1.47A3.4,3.4,0,0,1,92,81.48a3.55,3.55,0,0,1,3.72-3.64,3.51,3.51,0,0,1,3.7,3.7Zm-1.66-3.46a2,2,0,1,0-2,2.09A2,2,0,0,0,97.79,81.48Z" transform="translate(0 0)"/><path class="cls-2" d="M105,81.54a3.5,3.5,0,0,1,3.7-3.7,3.55,3.55,0,0,1,3.73,3.64A3.41,3.41,0,0,1,109,85.12,2.65,2.65,0,0,1,106.66,84h0V87.9H105Zm1.67-.06a2,2,0,1,0,2-2.09A2,2,0,0,0,106.63,81.48Z" transform="translate(0 0)"/><path class="cls-2" d="M117.13,85.12a3.64,3.64,0,1,1,3.73-3.64A3.55,3.55,0,0,1,117.13,85.12Zm2-3.64a2,2,0,1,0-2,2.09A2,2,0,0,0,119.16,81.48Z" transform="translate(0 0)"/><path class="cls-2" d="M125.9,80c-.05-.42-.44-.72-1.08-.72s-1.11.34-1.11.8c0,1.22,4-.08,4,2.76,0,1.32-1.13,2.27-2.9,2.27s-2.87-.94-2.91-2.22h1.68c0,.46.42.77,1.21.77s1.24-.34,1.24-.82c0-1.22-4,.16-4-2.76,0-1.3,1.08-2.25,2.76-2.25s2.72,1,2.76,2.17Z" transform="translate(0 0)"/><path class="cls-2" d="M134.67,82.28a2.83,2.83,0,1,1-5.65,0V75.71h1.66V78h3.57v1.51h-3.57v2.75c0,.92.48,1.29,1.16,1.29s1.17-.35,1.17-1.29V82.1h1.66Z" transform="translate(0 0)"/><path class="cls-2" d="M135.58,81.94V80.33h4.2v1.61Z" transform="translate(0 0)"/><path class="cls-2" d="M146.48,83.89h0A2.64,2.64,0,0,1,144.14,85a3.33,3.33,0,0,1-3.42-3.56,3.55,3.55,0,0,1,3.72-3.64,3.5,3.5,0,0,1,3.7,3.7v2.85a3.34,3.34,0,0,1-3.67,3.69A3.27,3.27,0,0,1,141,85.7h1.68a1.81,1.81,0,0,0,1.83.93c1.24,0,2-.57,2-2.18Zm-2-4.5a2,2,0,0,0-2,2.09,2,2,0,0,0,4.08,0A2,2,0,0,0,144.44,79.39Z" transform="translate(0 0)"/><path class="cls-2" d="M156.86,84.94h-1.52V83.65h0a2.54,2.54,0,0,1-2.45,1.47,3.41,3.41,0,0,1-3.42-3.64,3.55,3.55,0,0,1,3.73-3.64,3.5,3.5,0,0,1,3.69,3.7Zm-1.66-3.46a2,2,0,1,0-2,2.09A2,2,0,0,0,155.2,81.48Z" transform="translate(0 0)"/><path class="cls-2" d="M162.91,84.94V81c0-1.12-.6-1.6-1.4-1.6s-1.4.46-1.4,1.6v4h-1.67V81c0-2.17,1.26-3.15,2.9-3.15a2.69,2.69,0,0,1,2.38,1.22h0a2.66,2.66,0,0,1,2.38-1.22c1.64,0,2.9,1,2.9,3.15v4h-1.66V81c0-1.14-.59-1.6-1.41-1.6s-1.38.48-1.38,1.6v4Z" transform="translate(0 0)"/><path class="cls-2" d="M172.08,82.07v0a1.91,1.91,0,0,0,2,1.51,1.93,1.93,0,0,0,1.64-.66h1.78a3.51,3.51,0,0,1-3.42,2.17,3.64,3.64,0,1,1,3.7-3.64v.59Zm0-1.36v0H176v0a1.92,1.92,0,0,0-1.94-1.36A1.9,1.9,0,0,0,172.12,80.71Z" transform="translate(0 0)"/><path class="cls-2" d="M69.85,95.06a3.5,3.5,0,0,1-3.7,3.7,3.55,3.55,0,0,1-3.72-3.64,3.41,3.41,0,0,1,3.41-3.65,2.64,2.64,0,0,1,2.31,1.15h0v-4h1.67Zm-1.67.06a2,2,0,1,0-2,2.08A2,2,0,0,0,68.18,95.12Z" transform="translate(0 0)"/><path class="cls-2" d="M71.39,89.72a1.11,1.11,0,1,1,1.1,1.11A1.1,1.1,0,0,1,71.39,89.72Zm.28,8.86V91.66h1.66v6.92Z" transform="translate(0 0)"/><path class="cls-2" d="M78.89,93.65c0-.42-.43-.72-1.08-.72s-1.1.34-1.1.8c0,1.22,4-.08,4,2.76,0,1.32-1.14,2.27-2.9,2.27s-2.87-.94-2.91-2.23h1.68c0,.46.42.77,1.2.77S79,97,79,96.49c0-1.22-4,.15-4-2.76,0-1.3,1.07-2.26,2.75-2.26s2.72,1,2.76,2.18Z" transform="translate(0 0)"/><path class="cls-2" d="M87.36,94.25A2,2,0,0,0,85.46,93a2.09,2.09,0,0,0,0,4.17A1.94,1.94,0,0,0,87.36,96H89a3.47,3.47,0,0,1-3.58,2.78,3.65,3.65,0,1,1,0-7.29A3.47,3.47,0,0,1,89,94.25Z" transform="translate(0 0)"/><path class="cls-2" d="M95.51,91.66h1.67v3.6a3.42,3.42,0,1,1-6.84,0v-3.6H92v3.6c0,1.31.7,1.94,1.75,1.94s1.75-.63,1.75-1.94Z" transform="translate(0 0)"/><path class="cls-2" d="M102.5,93.65c0-.42-.44-.72-1.08-.72s-1.11.34-1.11.8c0,1.22,4-.08,4,2.76,0,1.32-1.13,2.27-2.9,2.27s-2.87-.94-2.91-2.23h1.68c0,.46.42.77,1.2.77s1.25-.33,1.25-.81c0-1.22-4,.15-4-2.76,0-1.3,1.08-2.26,2.76-2.26s2.72,1,2.76,2.18Z" transform="translate(0 0)"/><path class="cls-2" d="M109.35,93.65c0-.42-.43-.72-1.07-.72s-1.11.34-1.11.8c0,1.22,4-.08,4,2.76,0,1.32-1.13,2.27-2.9,2.27s-2.87-.94-2.91-2.23H107c0,.46.42.77,1.2.77s1.25-.33,1.25-.81c0-1.22-4,.15-4-2.76,0-1.3,1.08-2.26,2.76-2.26s2.71,1,2.76,2.18Z" transform="translate(0 0)"/><path class="cls-2" d="M112.43,89.72a1.1,1.1,0,0,1,1.11-1.12,1.12,1.12,0,0,1,0,2.23A1.1,1.1,0,0,1,112.43,89.72Zm.28,8.86V91.66h1.67v6.92Z" transform="translate(0 0)"/><path class="cls-2" d="M119.64,98.76a3.65,3.65,0,1,1,3.73-3.64A3.55,3.55,0,0,1,119.64,98.76Zm2-3.64a2,2,0,1,0-2,2.08A2,2,0,0,0,121.67,95.12Z" transform="translate(0 0)"/><path class="cls-2" d="M129.84,98.58V95c0-1.32-.71-2-1.76-2s-1.75.63-1.75,2v3.6h-1.66V95a3.42,3.42,0,1,1,6.83,0v3.6Z" transform="translate(0 0)"/><path class="cls-2" d="M133.08,97.65a1.11,1.11,0,1,1,1.11,1.11A1.11,1.11,0,0,1,133.08,97.65Z" transform="translate(0 0)"/></g></svg>