<svg xmlns="http://www.w3.org/2000/svg" viewBox="0 0 306 396"><defs><style>.cls-1{fill:#fff;}.cls-2{opacity:0.08;}.cls-3,.cls-4{opacity:0.33;}.cls-4,.cls-7{fill:#231f20;}.cls-5{fill:#a21e58;}.cls-6{fill:#e366a6;}</style></defs><title>specialtycardArtboard 1</title><g id="Layer_8" data-name="Layer 8"><rect class="cls-1" width="306" height="396"/></g><g id="Card_Fronts" data-name="Card Fronts"><g id="Frame_Shadow" data-name="Frame Shadow" class="cls-2"><path class="cls-3" d="M306,225.21,305,393,0,396s233-3,278-39C305,331.34,306,225.21,306,225.21Z"/><path class="cls-4" d="M.72,171.55V3H299.19S153.72,30,108.72,48C36.72,82.09.72,171.55.72,171.55Z"/></g><g id="Pink"><g id="Pink_Frame" data-name="Pink Frame"><path class="cls-5" d="M33.5,395.74c66.44-1.59,211.44-8.17,245.66-35.54,19.92-18.94,25.2-82.57,26.59-114.35V395.74Z"/><path class="cls-6" d="M305.5,256.07V395.49h-253c20.38-.65,44.88-1.73,70.13-3.5,37.25-2.61,68.82-6.21,93.85-10.69,31.34-5.61,52.47-12.65,62.83-20.94,11.29-10.72,19.29-36.36,23.78-76.19,1.13-10,1.88-19.66,2.38-28.1m.5-28.59S306,334.34,279,360C234,396,0,396,0,396H306V227.48Z"/><path class="cls-5" d="M.25.25H303.18C282.22,4,149.08,28.3,107.91,44.77,41,76.38,4.78,156.71.25,167.27Z"/><path class="cls-6" d="M300.38.5c-27.86,5-152.89,28.17-192.59,44.05C70.49,62.18,43,94.9,26.59,119.24A307.34,307.34,0,0,0,.5,166.06V.5H300.38M306,0H0V168.51S36,79,108,45C153,27,306,0,306,0Z"/></g><path class="cls-7" d="M23.28,336.74h2v9.82c0,3.73-1.89,5.52-4.31,5.52a3.77,3.77,0,0,1-3.63-2.48h0a3.74,3.74,0,0,1-3.62,2.48c-2.45,0-4.32-1.79-4.32-5.52v-9.82h2v9.82c0,2.3,1.06,3.36,2.5,3.36s2.51-1.1,2.51-3.36v-9.82h2v9.82c0,2.26,1.06,3.36,2.5,3.36s2.51-1.06,2.51-3.36Z"/><path class="cls-7" d="M33.66,352.08c-3.93,0-6.71-3.31-6.71-7.82s2.78-7.82,6.71-7.82,6.7,3.32,6.7,7.82S37.59,352.08,33.66,352.08Zm4.72-7.82c0-3.26-1.93-5.65-4.72-5.65s-4.72,2.39-4.72,5.65,1.92,5.66,4.72,5.66S38.38,347.53,38.38,344.26Z"/><path class="cls-7" d="M50.34,351.78l-3-5.38h-3v5.38h-2v-15h5.42c3.1,0,4.45,2.05,4.45,4.83,0,2.26-.89,4-2.85,4.62v.05l3.31,5.54Zm-2.54-7.54c1.83,0,2.44-1.15,2.44-2.67s-.63-2.66-2.44-2.66H44.33v5.33Z"/><path class="cls-7" d="M57.52,351.78V338.91h-4v-2.17h10v2.17h-4v12.87Z"/><path class="cls-7" d="M74.36,351.78v-6.55h-7v6.55h-2v-15h2v6.33h7v-6.33h2v15Z"/><path class="cls-7" d="M101.91,345a8.7,8.7,0,0,1-.5,3.07,6.2,6.2,0,0,1-1.35,2.2,5.45,5.45,0,0,1-2,1.3,6.69,6.69,0,0,1-2.41.43,6.75,6.75,0,0,1-2.33-.4,5.36,5.36,0,0,1-2-1.23,6.12,6.12,0,0,1-1.4-2.15,8.84,8.84,0,0,1-.55-3.15H93a4.19,4.19,0,0,0,.25,1.37,3,3,0,0,0,.58,1,2.26,2.26,0,0,0,.84.56,2.91,2.91,0,0,0,1,.18,2.44,2.44,0,0,0,1.91-.84,3.53,3.53,0,0,0,.75-2.43,3.61,3.61,0,0,0-.72-2.36,2.51,2.51,0,0,0-2-.87H95v-3.73h.52a2.15,2.15,0,0,0,1.91-.84A3.59,3.59,0,0,0,98,335a3.13,3.13,0,0,0-.72-2.24,2.29,2.29,0,0,0-3.39,0,3.23,3.23,0,0,0-.73,2.1H89.61a8.15,8.15,0,0,1,.51-2.82,6.31,6.31,0,0,1,1.29-2.1,5.47,5.47,0,0,1,1.89-1.32,5.91,5.91,0,0,1,2.33-.46,5.84,5.84,0,0,1,2.41.49A5.73,5.73,0,0,1,100,330a6.23,6.23,0,0,1,1.24,2.13,8.12,8.12,0,0,1,.44,2.72,6.06,6.06,0,0,1-.65,3.05,5,5,0,0,1-1.61,1.77,5.41,5.41,0,0,1,1.79,1.93A6.68,6.68,0,0,1,101.91,345Z"/><path class="cls-5" d="M118.05,319.87v4.82H115a2,2,0,0,0-1.63.58,3.12,3.12,0,0,0-.46,1.94v1.6h4.72v5.25H112.9v19.12c0,2.57-.55,4.43-1.64,5.6a6.35,6.35,0,0,1-4.84,1.74H102.2V355.7h3a2,2,0,0,0,1.63-.57,3.17,3.17,0,0,0,.47-1.95V334.06H104.6v-5.25h2.75v-1.6q0-3.85,1.64-5.59a6.28,6.28,0,0,1,4.83-1.75Z"/><path class="cls-7" d="M136.61,352.08c-3.94,0-6.71-3.31-6.71-7.82s2.77-7.82,6.71-7.82,6.7,3.32,6.7,7.82S140.54,352.08,136.61,352.08Zm4.72-7.82c0-3.26-1.93-5.65-4.72-5.65s-4.73,2.39-4.73,5.65,1.93,5.66,4.73,5.66S141.33,347.53,141.33,344.26Z"/><path class="cls-7" d="M153.71,351.78v-9.1c0-2.53-1.15-4.07-3.37-4.07s-3.35,1.54-3.35,4.07v9.1h-2v-9.1c0-3.82,1.91-6.24,5.32-6.24s5.34,2.42,5.34,6.24v9.1Z"/><path class="cls-7" d="M171.9,351.78V347h-7.09v4.76H162.9v-8.85c0-4,1.93-6.49,5.45-6.49s5.51,2.51,5.51,6.49v8.85Zm0-8.85c0-2.71-1.2-4.32-3.55-4.32s-3.54,1.61-3.54,4.32v1.93h7.09Z"/><path class="cls-7" d="M184.61,351.78v-9.1c0-2.53-1.15-4.07-3.37-4.07s-3.35,1.54-3.35,4.07v9.1h-2v-9.1c0-3.82,1.91-6.24,5.32-6.24s5.34,2.42,5.34,6.24v9.1Z"/><path class="cls-7" d="M192.12,351.78v-6.44l-5-8.6h2.35l3.61,6.53h0l3.62-6.53H199l-4.95,8.53v6.51Z"/><path class="cls-7" d="M216.09,341.48a4.36,4.36,0,0,0-4.14-2.87c-2.8,0-4.72,2.39-4.72,5.65s1.92,5.66,4.72,5.66a4.54,4.54,0,0,0,4.56-3.84V346h-5.33v-2.16h7.45V345c-.28,4.12-3,7.06-6.68,7.06-3.93,0-6.71-3.31-6.71-7.82s2.78-7.82,6.71-7.82a6.57,6.57,0,0,1,6.32,5Z"/><path class="cls-7" d="M228.5,351.78l-3-5.38h-3v5.38h-2v-15h5.41c3.11,0,4.45,2.05,4.45,4.83,0,2.26-.88,4-2.85,4.62v.05l3.32,5.54ZM226,344.24c1.83,0,2.45-1.15,2.45-2.67s-.64-2.66-2.45-2.66h-3.47v5.33Z"/><path class="cls-7" d="M241.35,351.78V347h-7.1v4.76h-1.9v-8.85c0-4,1.92-6.49,5.45-6.49s5.51,2.51,5.51,6.49v8.85Zm0-8.85c0-2.71-1.2-4.32-3.55-4.32s-3.55,1.61-3.55,4.32v1.93h7.1Z"/><path class="cls-7" d="M254.06,351.78v-9.1c0-2.53-1.16-4.07-3.37-4.07s-3.36,1.54-3.36,4.07v9.1h-2v-9.1c0-3.82,1.91-6.24,5.32-6.24s5.34,2.42,5.34,6.24v9.1Z"/><path class="cls-7" d="M261.19,351.78V338.91h-4v-2.17h10v2.17h-4v12.87Z"/><path class="cls-5" d="M119.29,270.29a14,14,0,0,1-1.81,7.12,12.24,12.24,0,0,1-5.2,4.84,17.53,17.53,0,0,1-8,1.72H94V298.5H85.34V257.22h18.54q7.43,0,11.41,3.41T119.29,270.29Zm-8.7.14q0-6.49-7.67-6.5H94v13.39h9.17a7.88,7.88,0,0,0,5.51-1.77A6.61,6.61,0,0,0,110.59,270.43Z"/><path class="cls-5" d="M125.36,298.5V257.22H134V298.5Z"/><path class="cls-5" d="M167.17,298.5l-18-31.79a69.17,69.17,0,0,1,.52,7.44V298.5H142V257.22h9.87l18.25,32a68.74,68.74,0,0,1-.52-8.06v-24h7.67V298.5Z"/><path class="cls-5" d="M213.92,298.5l-14.82-19-5.1,3.9V298.5h-8.64V257.22H194v18.72l18.6-18.72h10.08l-17.63,17.46,19.07,23.82Z"/><path class="cls-5" d="M191.83,45V66.8H175.31c-4.21,0-7.14.87-8.81,2.6S164,74.07,164,78.21v7.24h25.52V109.2H164v86.46q0,17.44-8.86,25.33T129,228.88H106.2v-21.8h16.51q6.3,0,8.81-2.6t2.51-8.82V109.2H119.18V85.45H134V78.21q0-17.43,8.86-25.32T169,45Z"/></g><path class="cls-1" d="M17.67,13.44c0-1.45-1.1-2.49-3.16-2.49s-3.13,1.13-3.13,2.52c0,4,10.12.29,10.12,7.89,0,3.68-2.81,6-7,6s-7-2.24-7-5.86H11C11.06,23,12.19,24,14.45,24s3.43-1,3.43-2.52c0-3.95-10.1-.32-10.1-7.89,0-3.51,2.67-6,6.7-6S21,10,21.18,13.44Z"/><path class="cls-1" d="M23.9,19.88a7.25,7.25,0,0,1,7.66-7.66,7.36,7.36,0,0,1,7.72,7.55c0,5.07-3.66,7.54-7.08,7.54a5.48,5.48,0,0,1-4.78-2.38h-.06v8.12H23.9Zm3.46-.11a4.22,4.22,0,1,0,8.44,0,4.22,4.22,0,1,0-8.44,0Z"/><path class="cls-1" d="M44.58,21V21a4,4,0,0,0,4.09,3.13,4,4,0,0,0,3.4-1.36h3.68a7.26,7.26,0,0,1-7.08,4.5A7.36,7.36,0,0,1,41,19.77a7.36,7.36,0,0,1,7.71-7.55,7.31,7.31,0,0,1,7.66,7.55V21Zm.09-2.81v.06h8v-.06a4.25,4.25,0,0,0-8,0Z"/><path class="cls-1" d="M69.67,18a4.28,4.28,0,0,0-8.18,1.8,4.28,4.28,0,0,0,8.18,1.79h3.48a7.2,7.2,0,0,1-7.43,5.75A7.36,7.36,0,0,1,58,19.77a7.36,7.36,0,0,1,7.71-7.55A7.2,7.2,0,0,1,73.15,18Z"/><path class="cls-1" d="M75.32,8.6a2.28,2.28,0,0,1,2.29-2.32A2.26,2.26,0,0,1,79.9,8.6a2.26,2.26,0,0,1-2.29,2.29A2.28,2.28,0,0,1,75.32,8.6Zm.58,18.33V12.6h3.45V26.93Z"/><path class="cls-1" d="M97.48,26.93H94.32V24.26h-.06a5.27,5.27,0,0,1-5.08,3c-3.42,0-7.07-2.47-7.07-7.54a7.36,7.36,0,0,1,7.71-7.55,7.26,7.26,0,0,1,7.66,7.66ZM94,19.77a4.22,4.22,0,1,0-8.44,0,4.22,4.22,0,1,0,8.44,0Z"/><path class="cls-1" d="M100.81,26.93V6.34h3.45V26.93Z"/><path class="cls-1" d="M119.32,21.42c0,4-2.38,5.89-5.86,5.89s-5.86-1.92-5.86-5.89V7.81h3.45V12.6h7.39v3.13h-7.39v5.69c0,1.91,1,2.67,2.41,2.67s2.4-.73,2.4-2.67V21h3.46Z"/><path class="cls-1" d="M132.22,24.84h-.06a4.69,4.69,0,0,1-4.2,2.29c-3.31,0-6.44-2.14-6.44-7.25V12.6H125v7.28c0,2.73,1.45,4,3.62,4s3.63-1.36,3.63-4V12.6h3.45V26.44c0,5-3.16,7-7.13,7-3.34,0-6.1-1.54-6.91-4.93h3.45c.58,1.33,1.71,1.94,3.46,1.94,2.35,0,3.68-1.13,3.68-3.92Z"/></g></svg>