<svg xmlns="http://www.w3.org/2000/svg" viewBox="0 0 36.9 36.9"><defs><style>.cls-1{isolation:isolate;}.cls-2{opacity:0.4;mix-blend-mode:multiply;}.cls-3{fill:#60301a;}.cls-4{fill:#fff;}</style></defs><title>brownAsset 1</title><g class="cls-1"><g id="Layer_2" data-name="Layer 2"><g id="Layer_1-2" data-name="Layer 1"><g id="token_brown" data-name="token brown"><g class="cls-2"><circle cx="17.1" cy="19.8" r="17.1"/></g><circle class="cls-3" cx="18.9" cy="18" r="17.1"/><path d="M18.9,1.7A16.3,16.3,0,1,1,2.6,18,16.3,16.3,0,0,1,18.9,1.7m0-1.7a18,18,0,1,0,18,18,18.053,18.053,0,0,0-18-18Z"/><path class="cls-4" d="M13.6,13.2a4.6,4.6,0,0,1,1.2-3.4,5.681,5.681,0,0,1,3.8-1.1,5.158,5.158,0,0,1,3.6,1.1,4.228,4.228,0,0,1,1.2,3.4v.7a4.552,4.552,0,0,0-2,.5,1.387,1.387,0,0,0-.7,1.2,1.854,1.854,0,0,0,.2.7,4.44,4.44,0,0,0,1.1.8l.6.4A5.725,5.725,0,0,1,24.2,19a4.648,4.648,0,0,1,.5,2.1A3.56,3.56,0,0,1,23.6,24a4.551,4.551,0,0,1-3.2,1,4.869,4.869,0,0,1-1.2-.1,6.468,6.468,0,0,1-1.3-.4V22a3.582,3.582,0,0,0,1.1.4,3.4,3.4,0,0,0,1,.1,1.5,1.5,0,0,0,1.1-.4,1.159,1.159,0,0,0,.4-1,1.135,1.135,0,0,0-.3-.8,2.73,2.73,0,0,0-1.2-.9l-.6-.4a3.447,3.447,0,0,1-1.2-1.2,3.167,3.167,0,0,1-.4-1.6,3.606,3.606,0,0,1,.6-2,3.9,3.9,0,0,1,2-1.3,1.536,1.536,0,0,0-.5-1.3,1.9,1.9,0,0,0-1.3-.5,1.974,1.974,0,0,0-1.4.6,3.371,3.371,0,0,0-.5,1.7V24.7H13.6Z"/><path class="cls-4" d="M13.8,27.1a.864.864,0,0,1-.3.6,1.884,1.884,0,0,1-.8.2H11.3V25.1h1.3a1.2,1.2,0,0,1,.8.2.55.55,0,0,1,.3.5.6.6,0,0,1-.1.4.52.52,0,0,1-.4.2.764.764,0,0,1,.5.2C13.7,26.8,13.8,26.9,13.8,27.1ZM13,25.9a.367.367,0,0,0-.1-.3c-.1-.1-.2-.1-.4-.1h-.7v.7h.8a.756.756,0,0,0,.4-.1Zm.2,1.2c0-.3-.2-.4-.6-.4h-.7v.8h.8a.6.6,0,0,0,.4-.1.367.367,0,0,0,.1-.3Z"/><path class="cls-4" d="M16.1,27.9l-.6-1h-.7v1h-.6V25.1h1.4a2.353,2.353,0,0,1,.8.2.713.713,0,0,1,.3.6.764.764,0,0,1-.2.5c-.1.1-.3.2-.4.3l.7,1.2Zm0-1.9c0-.3-.2-.4-.5-.4h-.7v.8h.7a.6.6,0,0,0,.4-.1C16,26.2,16.1,26.1,16.1,26Z"/><path class="cls-4" d="M19.8,26.5a2.353,2.353,0,0,1-.2.8,1.205,1.205,0,0,1-.5.5,1.854,1.854,0,0,1-.7.2,1.284,1.284,0,0,1-1-.4,1.433,1.433,0,0,1-.4-1,1.159,1.159,0,0,1,.4-1,1.519,1.519,0,0,1,2,0C19.7,25.7,19.8,26.1,19.8,26.5Zm-.6,0a1.445,1.445,0,0,0-.2-.7.713.713,0,0,0-.6-.3.864.864,0,0,0-.6.3.844.844,0,0,0-.2.7,1.445,1.445,0,0,0,.2.7.707.707,0,0,0,1.1,0h0A.908.908,0,0,0,19.2,26.5Z"/><path class="cls-4" d="M23,27.9h-.7l-.4-1.6c0-.2-.1-.4-.1-.6,0,.2-.1.3-.1.4s-.2.7-.4,1.8h-.7l-.7-2.8h.7l.4,1.8.1.4a4.331,4.331,0,0,1,.1-.5c0-.1.2-.7.4-1.7h.6l.3,1.5a5.638,5.638,0,0,1,.1.7v-.2l.1-.4.3-1.5h.6Z"/><path class="cls-4" d="M25.7,27.9l-1.2-2.1v2.1H24V25.1h.7l1.2,2.1V25.1h.5v2.8Z"/></g></g></g></g></svg>