<svg xmlns="http://www.w3.org/2000/svg" viewBox="0 0 150 150"><defs><style>.cls-1{opacity:0.33;}.cls-2{fill:#fff;}.cls-3{fill:#136534;}</style></defs><title>token_greenAsset 3</title><g id="Layer_2" data-name="Layer 2"><g id="Green_Token" data-name="Green Token"><g class="cls-1"><path d="M3.84,147,20.91,78.73a3,3,0,0,0,0-1.46L3.84,9H140.16L123.09,77.27a3,3,0,0,0,0,1.46L140.16,147Z"/><path d="M136.32,12,120.18,76.54a6,6,0,0,0,0,2.92L136.32,144H7.68L23.82,79.46a6,6,0,0,0,0-2.92L7.68,12H136.32M144,6H0L18,78,0,150H144a0,0,0,0,0,0,0L126,78,144,6Z"/></g><path class="cls-2" d="M8.84,142,25.91,73.73a3,3,0,0,0,0-1.46L8.84,4H145.16L128.09,72.27a3,3,0,0,0,0,1.46L145.16,142Z"/><path class="cls-3" d="M141.32,7,125.18,71.54a6,6,0,0,0,0,2.92L141.32,139H12.68L28.82,74.46a6,6,0,0,0,0-2.92L12.68,7H141.32M149,1H5L23,73,5,145H149a0,0,0,0,0,0,0L131,73,149,1Z"/><path d="M149,1,131,73l18,72a0,0,0,0,1,0,0H5L23,73,5,1H149m0-1H5a1,1,0,0,0-.79.38A1,1,0,0,0,4,1.24L22,73,4,144.76a1,1,0,0,0,.18.86A1,1,0,0,0,5,146H149a1,1,0,0,0,1-1,1,1,0,0,0,0-.24L132,73,150,1.24a1,1,0,0,0-.18-.86A1,1,0,0,0,149,0Zm0,2h0Z"/><path class="cls-3" d="M46.59,126.28a8,8,0,0,0,2.39-.36,5,5,0,0,0,1.8-.92v-2.09h-3.7v-2.35h6.6v5.57a8.16,8.16,0,0,1-3.13,1.93,11.73,11.73,0,0,1-4,.7,7.53,7.53,0,0,1-5.68-2,7.94,7.94,0,0,1-2-5.8,7.76,7.76,0,0,1,2-5.73,7.79,7.79,0,0,1,5.75-2q5.33,0,6.78,3.95l-2.93.88A3.44,3.44,0,0,0,49,116.27a4.53,4.53,0,0,0-2.37-.59,4.25,4.25,0,0,0-3.4,1.35A5.82,5.82,0,0,0,42,120.91a5.94,5.94,0,0,0,1.2,4A4.2,4.2,0,0,0,46.59,126.28Z"/><path class="cls-3" d="M66.91,128.55,63.4,122.8H59.68v5.75H56.51V113.41h7.57a6.55,6.55,0,0,1,4.17,1.17,4,4,0,0,1,1.48,3.34,4.3,4.3,0,0,1-.91,2.75,4.25,4.25,0,0,1-2.43,1.52l4.09,6.36Zm-.37-10.5c0-1.45-.93-2.18-2.8-2.18H59.68v4.47h4.15a3,3,0,0,0,2-.6A2.13,2.13,0,0,0,66.54,118.05Z"/><path class="cls-3" d="M72.4,128.55V113.41H84.3v2.45H75.57v3.8h8.08v2.45H75.57v4h9.17v2.45Z"/><path class="cls-3" d="M87.08,128.55V113.41H99v2.45H90.24v3.8h8.08v2.45H90.24v4h9.18v2.45Z"/><path class="cls-3" d="M111,128.55l-6.6-11.66a24.82,24.82,0,0,1,.19,2.73v8.93h-2.81V113.41h3.62l6.69,11.75a24.75,24.75,0,0,1-.19-3v-8.8h2.81v15.14Z"/><path class="cls-3" d="M56.24,19.23h42.5V34.15H56.24Zm0,61.63h42.5V95.78H56.24ZM61.06,48.4H93.87V63.32H61.06Z"/></g></g></svg>