<svg xmlns="http://www.w3.org/2000/svg" viewBox="0 0 149 149"><defs><style>.cls-1{opacity:0.33;}.cls-2{fill:#fff;}.cls-3{fill:#a31957;}</style></defs><title>token_pinkAsset 2</title><g id="Layer_2" data-name="Layer 2"><g id="Pink_token" data-name="Pink token"><g class="cls-1"><path d="M3.2,77,29.08,8h85.84L140.8,77l-25.88,69-85.84,0Z"/><path d="M112.84,11l24.75,66-24.75,66-81.68,0L6.41,77,31.16,11h81.68M117,5H27L0,77l27,72s90,0,90,0l27-72L117,5Z"/></g><path class="cls-2" d="M8.2,72,34.08,3h85.84L145.8,72l-25.88,69-85.84,0Z"/><path class="cls-3" d="M117.84,6l24.75,66-24.75,66-81.68,0L11.41,72,36.16,6h81.68M122,0H32L5,72l27,72s90,0,90,0l27-72L122,0Z"/><path class="cls-3" d="M62.06,119.86a5.28,5.28,0,0,1-.7,2.73,4.71,4.71,0,0,1-2,1.86,6.73,6.73,0,0,1-3.08.65H52.35v5.57H49V114.85h7.11a6.55,6.55,0,0,1,4.37,1.31A4.57,4.57,0,0,1,62.06,119.86Zm-3.34.06c0-1.67-1-2.5-2.94-2.5H52.35v5.13h3.52a3,3,0,0,0,2.11-.67A2.52,2.52,0,0,0,58.72,119.92Z"/><path class="cls-3" d="M64.38,130.67V114.85H67.7v15.82Z"/><path class="cls-3" d="M80.41,130.67l-6.9-12.18a25,25,0,0,1,.2,2.85v9.33H70.77V114.85h3.79l7,12.29a27.31,27.31,0,0,1-.2-3.09v-9.2h2.94v15.82Z"/><path class="cls-3" d="M98.33,130.67l-5.68-7.26-2,1.49v5.77H87.38V114.85H90.7V122l7.13-7.18h3.86l-6.76,6.69,7.31,9.13Z"/><path class="cls-3" d="M98.44,15V25.79H90.27c-2.08,0-3.54.42-4.36,1.28s-1.24,2.31-1.24,4.36V35H97.29V46.76H84.67V89.54q0,8.63-4.39,12.53T67.36,106H56.07V95.18h8.17c2.08,0,3.54-.42,4.36-1.28s1.24-2.31,1.24-4.36V46.76H62.5V35h7.34V31.43q0-8.62,4.39-12.53T87.15,15Z"/></g></g></svg>