<svg xmlns="http://www.w3.org/2000/svg" viewBox="0 0 150 150"><defs><style>.cls-1{opacity:0.33;}.cls-2{fill:#fff;}.cls-3{fill:#3352a3;}</style></defs><title>token_blueAsset 5</title><g id="Layer_2" data-name="Layer 2"><g id="Blue_token" data-name="Blue token"><g class="cls-1"><path d="M3,147V78a69,69,0,1,1,138,0v69Z"/><path d="M72,12a66.1,66.1,0,0,1,66,66v66H6V78A66.06,66.06,0,0,1,72,12m0-6h0A72,72,0,0,0,0,78v72H144V78A72,72,0,0,0,72,6Z"/></g><path class="cls-2" d="M8,142V73a69,69,0,1,1,138,0v69Z"/><path class="cls-3" d="M77,7a66.1,66.1,0,0,1,66,66v66H11V73A66.06,66.06,0,0,1,77,7m0-6h0A72,72,0,0,0,5,73v72H149V73A72,72,0,0,0,77,1Z"/><path d="M77,1a72,72,0,0,1,72,72v72H5V73A72,72,0,0,1,77,1h0m0-1A73.06,73.06,0,0,0,4,73v72a1,1,0,0,0,1,1H149a1,1,0,0,0,1-1V73A73.11,73.11,0,0,0,77,0Z"/><path class="cls-3" d="M78.28,29.67a20.74,20.74,0,0,0-13.47,5q-6.09,5-6.09,15.36v51.64H48V48.92Q48,34.51,56,27.07t22.3-7.42q14.19,0,22.19,7.42t8,21.85v52.73H97.79V50q0-10-6-15.16A20.1,20.1,0,0,0,78.28,29.67Z"/><path class="cls-3" d="M61.77,125.2a3.89,3.89,0,0,1-1.62,3.34,7.56,7.56,0,0,1-4.49,1.18H47.74V113.89H55a7.87,7.87,0,0,1,4.39,1,3.36,3.36,0,0,1,1.49,3,3.47,3.47,0,0,1-.75,2.27,3.86,3.86,0,0,1-2.27,1.26,4.88,4.88,0,0,1,2.92,1.2A3.5,3.5,0,0,1,61.77,125.2Zm-4.25-6.88a1.7,1.7,0,0,0-.68-1.52,3.65,3.65,0,0,0-2-.45H51.05v3.92h3.8a3.37,3.37,0,0,0,2-.49A1.72,1.72,0,0,0,57.52,118.32Zm.92,6.62c0-1.48-1.06-2.22-3.19-2.22h-4.2v4.54h4.33a3.75,3.75,0,0,0,2.33-.58A2.07,2.07,0,0,0,58.44,124.94Z"/><path class="cls-3" d="M64.35,129.72V113.89h3.31v13.27h8.49v2.56Z"/><path class="cls-3" d="M85,129.94a7.17,7.17,0,0,1-5-1.59,5.92,5.92,0,0,1-1.73-4.56v-9.9h3.31v9.64a4.06,4.06,0,0,0,.9,2.85,3.4,3.4,0,0,0,2.62,1,3.57,3.57,0,0,0,2.73-1,4.13,4.13,0,0,0,1-2.91v-9.53h3.31v9.73a5.93,5.93,0,0,1-1.85,4.67A7.63,7.63,0,0,1,85,129.94Z"/><path class="cls-3" d="M95,129.72V113.89h12.44v2.56H98.32v4h8.44V123H98.32v4.17h9.59v2.56Z"/></g></g></svg>