<svg xmlns="http://www.w3.org/2000/svg" viewBox="0 0 92.283 81.548"><defs><style>.cls-1{isolation:isolate;}.cls-2{opacity:0.4;mix-blend-mode:multiply;}.cls-3{fill:#3352a3;}.cls-4{fill:#fff;}</style></defs><title>blueAsset 1</title><g class="cls-1"><g id="Layer_2" data-name="Layer 2"><g id="Layer_1-2" data-name="Layer 1"><g id="YOUR_ARTWORK_HERE" data-name="YOUR ARTWORK HERE"><g class="cls-2"><path d="M24.154,79.548a2.317,2.317,0,0,1-1.737-1L2.23,43.573a2.318,2.318,0,0,1,0-2.008L22.417,6.6a2.315,2.315,0,0,1,1.737-1H64.529a2.313,2.313,0,0,1,1.736,1L86.453,41.569a2.311,2.311,0,0,1,0,2.008L66.265,78.546a2.312,2.312,0,0,1-1.736,1Z"/><path d="M64.42,7.6a.309.309,0,0,1,.168.1l20.08,34.779a.307.307,0,0,1,0,.194L64.588,77.451a.3.3,0,0,1-.167.1H24.262a.308.308,0,0,1-.167-.1L4.016,42.666a.307.307,0,0,1,0-.194L24.1,7.7a.309.309,0,0,1,.168-.1H64.42m.172-4h-40.5a4.3,4.3,0,0,0-3.375,1.949L.467,40.619a4.3,4.3,0,0,0,0,3.9L20.717,79.6a4.306,4.306,0,0,0,3.375,1.948h40.5A4.307,4.307,0,0,0,67.967,79.6l20.25-35.077a4.309,4.309,0,0,0,0-3.9L67.967,5.549A4.308,4.308,0,0,0,64.592,3.6Z"/></g><path class="cls-3" d="M27.754,75.948a2.317,2.317,0,0,1-1.737-1L5.83,39.973a2.318,2.318,0,0,1,0-2.008L26.017,3a2.315,2.315,0,0,1,1.737-1H68.129a2.313,2.313,0,0,1,1.736,1L90.053,37.969a2.311,2.311,0,0,1,0,2.008L69.865,74.946a2.312,2.312,0,0,1-1.736,1Z"/><path d="M68.02,4a.309.309,0,0,1,.168.1l20.08,34.779a.307.307,0,0,1,0,.194L68.188,73.851a.3.3,0,0,1-.167.1H27.862a.308.308,0,0,1-.167-.1L7.616,39.066a.307.307,0,0,1,0-.194L27.7,4.1a.309.309,0,0,1,.168-.1H68.02m.172-4h-40.5a4.3,4.3,0,0,0-3.375,1.949L4.067,37.019a4.3,4.3,0,0,0,0,3.9L24.317,76a4.306,4.306,0,0,0,3.375,1.948h40.5A4.307,4.307,0,0,0,71.567,76l20.25-35.077a4.309,4.309,0,0,0,0-3.9L71.567,1.949A4.308,4.308,0,0,0,68.192,0Z"/><path class="cls-4" d="M37.584,62.027A2.526,2.526,0,0,1,36.52,64.2a4.961,4.961,0,0,1-2.956.769h-5.21V54.651h4.767a5.211,5.211,0,0,1,2.886.656,2.183,2.183,0,0,1,.979,1.938,2.28,2.28,0,0,1-.491,1.482,2.515,2.515,0,0,1-1.5.816,3.221,3.221,0,0,1,1.925.789A2.252,2.252,0,0,1,37.584,62.027Zm-2.793-4.489a1.1,1.1,0,0,0-.447-.99,2.44,2.44,0,0,0-1.326-.293H30.535v2.556h2.5a2.232,2.232,0,0,0,1.341-.318A1.127,1.127,0,0,0,34.791,57.538Zm.606,4.32q0-1.45-2.1-1.449H30.535v2.959H33.38a2.5,2.5,0,0,0,1.533-.378,1.345,1.345,0,0,0,.488-1.132Z"/><path class="cls-4" d="M39.284,64.971V54.651h2.18V63.3h5.587v1.67Z"/><path class="cls-4" d="M52.86,65.118a4.729,4.729,0,0,1-3.293-1.04A3.817,3.817,0,0,1,48.426,61.1V54.651h2.18v6.285a2.63,2.63,0,0,0,.588,1.856,2.239,2.239,0,0,0,1.724.634,2.358,2.358,0,0,0,1.8-.663,2.663,2.663,0,0,0,.627-1.9V54.651h2.18V61A3.846,3.846,0,0,1,56.3,64.038,5.028,5.028,0,0,1,52.86,65.118Z"/><path class="cls-4" d="M59.459,64.971V54.651h8.188v1.67H61.639v2.594H67.2v1.669H61.639V63.3h6.312v1.67Z"/><path class="cls-4" d="M34.622,32.19q0-7.515,3.361-11.3t9.973-3.783q6.585,0,9.945,3.783t3.361,11.3V47.221H56.543v-14.4q0-6.2-2.031-8.874t-6.556-2.679q-4.554,0-6.584,2.679t-2.03,8.874v14.4h-4.72Z"/></g></g></g></g></svg>