<svg xmlns="http://www.w3.org/2000/svg" viewBox="0 0 150 150"><defs><style>.cls-1{opacity:0.33;}.cls-2{fill:#fff;}.cls-3{fill:#8c3a1c;}</style></defs><title>token_brownAsset 1</title><g id="Layer_2" data-name="Layer 2"><g id="Brown_Token" data-name="Brown Token"><g class="cls-1"><path d="M54.81,147A51.87,51.87,0,0,1,3,95.19V60.81A51.87,51.87,0,0,1,54.81,9H89.19A51.87,51.87,0,0,1,141,60.81V95.17A51.89,51.89,0,0,1,89.17,147Z"/><path d="M89.19,12A48.87,48.87,0,0,1,138,60.81V95.17A48.88,48.88,0,0,1,89.17,144H54.81A48.87,48.87,0,0,1,6,95.19V60.81A48.87,48.87,0,0,1,54.81,12H89.19m0-6H54.81A54.81,54.81,0,0,0,0,60.81V95.19A54.81,54.81,0,0,0,54.81,150H89.17A54.83,54.83,0,0,0,144,95.17V60.81A54.81,54.81,0,0,0,89.19,6Z"/></g><path class="cls-2" d="M59.81,142A51.87,51.87,0,0,1,8,90.19V55.81A51.87,51.87,0,0,1,59.81,4H94.19A51.87,51.87,0,0,1,146,55.81V90.17A51.89,51.89,0,0,1,94.17,142Z"/><path class="cls-3" d="M94.19,7A48.87,48.87,0,0,1,143,55.81V90.17A48.88,48.88,0,0,1,94.17,139H59.81A48.87,48.87,0,0,1,11,90.19V55.81A48.87,48.87,0,0,1,59.81,7H94.19m0-6H59.81A54.81,54.81,0,0,0,5,55.81V90.19A54.81,54.81,0,0,0,59.81,145H94.17A54.83,54.83,0,0,0,149,90.17V55.81A54.81,54.81,0,0,0,94.19,1Z"/><path d="M94.19,1A54.81,54.81,0,0,1,149,55.81V90.17A54.83,54.83,0,0,1,94.17,145H59.81A54.81,54.81,0,0,1,5,90.19V55.81A54.81,54.81,0,0,1,59.81,1H94.19m0-1H59.81A55.88,55.88,0,0,0,4,55.81V90.19A55.88,55.88,0,0,0,59.81,146H94.17A55.9,55.9,0,0,0,150,90.17V55.81A55.88,55.88,0,0,0,94.19,0Z"/><path class="cls-3" d="M51.28,38.45q0-11.28,6.17-16.86T76.11,16q11.92,0,18,5.69t6.12,16.76v3.6q-6.86.51-10.16,2.49a6.31,6.31,0,0,0-3.3,5.74,5.3,5.3,0,0,0,1.12,3.32c.74,1,2.54,2.33,5.38,4.09l3.15,1.88a21.93,21.93,0,0,1,7.75,7.54,20.23,20.23,0,0,1,2.46,10.23q0,9.6-5.23,14.37T85.66,96.49a30.61,30.61,0,0,1-6.15-.64A46.94,46.94,0,0,1,73,94V81.61a25.28,25.28,0,0,0,5.21,2.08,19.11,19.11,0,0,0,5.1.71,7.58,7.58,0,0,0,5.31-1.83,6.1,6.1,0,0,0,2-4.72,6.72,6.72,0,0,0-1.27-4.11Q88,72,83.57,69.22l-3.2-2a16.73,16.73,0,0,1-5.94-5.92,16.08,16.08,0,0,1-1.93-8,15.46,15.46,0,0,1,3.18-9.9q3.16-4,9.82-6.55c0-2.88-.78-5.07-2.23-6.58S79.7,28,76.92,28q-4.62,0-7,2.79t-2.33,8.33V95H51.28Z"/><path class="cls-3" d="M52,119.57a3.37,3.37,0,0,1-1.41,2.9,6.44,6.44,0,0,1-3.9,1H39.75V109.74h6.3a6.9,6.9,0,0,1,3.82.87,2.94,2.94,0,0,1,1.29,2.59,3,3,0,0,1-.65,2,3.3,3.3,0,0,1-2,1.09,4.25,4.25,0,0,1,2.55,1A3,3,0,0,1,52,119.57Zm-3.69-6a1.47,1.47,0,0,0-.59-1.32,3.2,3.2,0,0,0-1.75-.39H42.63v3.41h3.31a2.88,2.88,0,0,0,1.77-.43A1.5,1.5,0,0,0,48.26,113.59Zm.8,5.76c0-1.29-.92-1.93-2.77-1.93H42.63v3.94h3.76a3.33,3.33,0,0,0,2-.5A1.8,1.8,0,0,0,49.06,119.35Z"/><path class="cls-3" d="M63.65,123.5l-3.19-5.22H57.08v5.22H54.2V109.74h6.87a6,6,0,0,1,3.8,1.06,3.66,3.66,0,0,1,1.34,3,3.93,3.93,0,0,1-.82,2.5,3.86,3.86,0,0,1-2.22,1.38l3.72,5.78ZM63.31,114c0-1.32-.85-2-2.54-2H57.08V116h3.77a2.65,2.65,0,0,0,1.83-.55A1.91,1.91,0,0,0,63.31,114Z"/><path class="cls-3" d="M82,116.56a8,8,0,0,1-.85,3.78,6,6,0,0,1-2.43,2.49,7.57,7.57,0,0,1-3.69.87A6.76,6.76,0,0,1,70,121.79a7.27,7.27,0,0,1-1.84-5.23A7.05,7.05,0,0,1,70,111.39a6.85,6.85,0,0,1,5.11-1.85,6.84,6.84,0,0,1,5.11,1.87A7,7,0,0,1,82,116.56Zm-2.94,0a5.29,5.29,0,0,0-1-3.49,3.63,3.63,0,0,0-3-1.27,3.68,3.68,0,0,0-3,1.26,5.28,5.28,0,0,0-1.06,3.5,5.43,5.43,0,0,0,1.08,3.57,4.06,4.06,0,0,0,5.93,0A5.52,5.52,0,0,0,79.08,116.56Z"/><path class="cls-3" d="M98.16,123.5H94.74l-1.86-8c-.23-.94-.42-1.92-.58-2.94-.15.85-.28,1.5-.38,2s-.79,3.43-2.08,9H86.42l-3.54-13.76H85.8l2,8.89.45,2.15c.18-.91.36-1.77.53-2.6s.82-3.64,2-8.44h3.22l1.74,7.32c.14.55.37,1.79.7,3.72l.24-1.14.52-2.24,1.66-7.66h2.92Z"/><path class="cls-3" d="M111.45,123.5l-6-10.6a24.83,24.83,0,0,1,.17,2.48v8.12h-2.56V109.74h3.3l6.08,10.68a22.3,22.3,0,0,1-.18-2.68v-8h2.56V123.5Z"/></g></g></svg>