<svg xmlns="http://www.w3.org/2000/svg" viewBox="0 0 35.999 35.999"><defs><style>.cls-1{fill:#fffee1;}.cls-2{fill:none;stroke:#000;stroke-linecap:round;stroke-linejoin:round;stroke-width:2px;}</style></defs><title>PaperAsset 3</title><g id="Layer_2" data-name="Layer 2"><g id="Layer_2-2" data-name="Layer 2"><polygon class="cls-1" points="1.022 34.999 1 1.022 34.977 1 34.999 34.977 34.977 34.999 1.022 34.999"/><path d="M34,2V34H2V2H34m.978-2H1.022A1.023,1.023,0,0,0,0,1.022V34.977A1.023,1.023,0,0,0,1.022,36H34.977A1.023,1.023,0,0,0,36,34.977V1.022A1.023,1.023,0,0,0,34.977,0Z"/><g id="_" data-name="ðŸ“"><line class="cls-2" x1="4.5" y1="30.5" x2="31.5" y2="30.5"/><line class="cls-2" x1="4.5" y1="24.875" x2="31.5" y2="24.875"/><line class="cls-2" x1="4.5" y1="19.25" x2="31.5" y2="19.25"/><line class="cls-2" x1="4.5" y1="13.625" x2="31.5" y2="13.625"/></g><path d="M9.256,7.15A1.978,1.978,0,0,1,9,8.15a1.707,1.707,0,0,1-.72.682,2.411,2.411,0,0,1-1.113.24H5.751v2.042h-1.2v-5.8H7.123a2.34,2.34,0,0,1,1.579.48A1.7,1.7,0,0,1,9.256,7.15Zm-1.2.02q0-.912-1.063-.913H5.751V8.138h1.27a1.076,1.076,0,0,0,.762-.249A.933.933,0,0,0,8.051,7.17Z"/><path d="M13.518,11.114l-.507-1.482H10.833l-.507,1.482H9.13l2.084-5.8h1.411l2.077,5.8Zm-1.6-4.906L11.9,6.3c-.027.1-.06.211-.1.337s-.27.821-.7,2.083h1.642L12.18,7.051l-.175-.56Z"/><path d="M20.177,7.15a1.988,1.988,0,0,1-.251,1,1.71,1.71,0,0,1-.719.682,2.418,2.418,0,0,1-1.114.24h-1.42v2.042h-1.2v-5.8h2.567a2.345,2.345,0,0,1,1.581.48A1.7,1.7,0,0,1,20.177,7.15Zm-1.2.02q0-.912-1.063-.913H16.673V8.138h1.27a1.078,1.078,0,0,0,.762-.249A.933.933,0,0,0,18.973,7.17Z"/><path d="M21.017,11.114v-5.8H25.51v.939h-3.3V7.71h3.05v.938h-3.05v1.527h3.464v.939Z"/><path d="M30.483,11.114l-1.326-2.2h-1.4v2.2h-1.2v-5.8h2.856a2.46,2.46,0,0,1,1.577.447,1.55,1.55,0,0,1,.555,1.282,1.675,1.675,0,0,1-.34,1.052,1.6,1.6,0,0,1-.92.582l1.545,2.437Zm-.142-4.022q0-.835-1.054-.835H27.753V7.969h1.566a1.121,1.121,0,0,0,.763-.23A.823.823,0,0,0,30.341,7.092Z"/></g></g></svg>