<svg xmlns="http://www.w3.org/2000/svg" viewBox="0 0 150 150"><defs><style>.cls-1{opacity:0.33;}.cls-2{fill:#fff;}.cls-3{fill:#555758;}</style></defs><title>token_grayAsset 5</title><g id="Layer_2" data-name="Layer 2"><g id="Gray_Token" data-name="Gray Token"><g class="cls-1"><polygon points="3.62 147 29.49 9 114.51 9 140.38 147 3.62 147"/><path d="M112,12l24.75,132H7.23L32,12h80m5-6H27L0,150H144L117,6Z"/></g><polygon class="cls-2" points="8.62 142 34.49 4 119.51 4 145.38 142 8.62 142"/><path class="cls-3" d="M117,7l24.75,132H12.23L37,7h80m5-6H32L5,145H149L122,1Z"/><path d="M122,1l27,144H5L32,1h90m0-1H32a1,1,0,0,0-1,.82l-27,144a1,1,0,0,0,.21.82A1,1,0,0,0,5,146H149a1,1,0,0,0,.77-.36,1,1,0,0,0,.21-.82L123,.82A1,1,0,0,0,122,0Z"/><path class="cls-3" d="M113.43,98.78H41.19L66.72,22.23H87.89ZM63.75,83.86h27L77.33,40.17Z"/><path class="cls-3" d="M54.64,125.05a8.48,8.48,0,0,0,2.51-.38,5,5,0,0,0,1.87-1v-2.19H55.16v-2.44h6.9v5.81a8.46,8.46,0,0,1-3.28,2,12.22,12.22,0,0,1-4.23.73,7.9,7.9,0,0,1-5.94-2.14,8.35,8.35,0,0,1-2.08-6.07,8.11,8.11,0,0,1,2.09-6,8.16,8.16,0,0,1,6-2.08q5.58,0,7.09,4.12l-3.06.92a3.66,3.66,0,0,0-1.55-1.82,4.83,4.83,0,0,0-2.48-.61,4.43,4.43,0,0,0-3.55,1.41,6,6,0,0,0-1.21,4.05,6.21,6.21,0,0,0,1.25,4.15A4.38,4.38,0,0,0,54.64,125.05Z"/><path class="cls-3" d="M75.89,127.42l-3.67-6H68.33v6H65V111.6h7.91a6.88,6.88,0,0,1,4.36,1.21,4.2,4.2,0,0,1,1.54,3.5,4.5,4.5,0,0,1-.94,2.87,4.38,4.38,0,0,1-2.55,1.59l4.28,6.65Zm-.39-11c0-1.52-1-2.28-2.92-2.28H68.33v4.67h4.34a3.11,3.11,0,0,0,2.11-.63A2.22,2.22,0,0,0,75.5,116.45Z"/><path class="cls-3" d="M92.81,127.42l-1.4-4h-6l-1.4,4H80.66l5.78-15.82h3.9l5.75,15.82ZM88.39,114l-.07.25c-.07.27-.16.58-.27.92s-.75,2.24-1.93,5.68h4.55l-1.56-4.55-.48-1.52Z"/><path class="cls-3" d="M103.92,120.93v6.49h-3.3v-6.49L95,111.6h3.47l3.8,6.69,3.84-6.69h3.47Z"/></g></g></svg>