<svg xmlns="http://www.w3.org/2000/svg" viewBox="0 0 18.803 54.8"><defs><style>.cls-1{isolation:isolate;}.cls-2{opacity:0.4;mix-blend-mode:multiply;}.cls-3{fill:#a31957;}.cls-4{fill:#fff;}</style></defs><title>pinkAsset 1</title><g class="cls-1"><g id="Layer_2" data-name="Layer 2"><g id="Layer_1-2" data-name="Layer 1"><g id="Outlines"><g class="cls-2"><path d="M3.5,54.8A3.588,3.588,0,0,1,0,51.1V22.8a22.844,22.844,0,0,1,1.9-8.5l5-10.4c.4-.8.8-1.1,1.1-1.1s.7.3,1.1,1.2l5,10.4A22.844,22.844,0,0,1,16,22.9V51.1a3.588,3.588,0,0,1-3.5,3.7Z"/></g><path class="cls-3" d="M5.3,53a3.588,3.588,0,0,1-3.5-3.7V21a22.844,22.844,0,0,1,1.9-8.5l5-10.4C9.1,1.3,9.5,1,9.8,1s.7.3,1.1,1.2l5,10.4a22.844,22.844,0,0,1,1.9,8.5V49.3A3.588,3.588,0,0,1,14.3,53Z"/><path d="M9.7,2.2c.1.1.1.2.2.4l5,10.4a22.7,22.7,0,0,1,1.8,8.1V49.3A2.721,2.721,0,0,1,14.2,52h-9a2.526,2.526,0,0,1-2.5-2.7V21a22.7,22.7,0,0,1,1.8-8.1l5-10.4c.1-.1.2-.2.2-.3M9.8,0c-.7,0-1.4.6-2,1.7l-5,10.4A24.565,24.565,0,0,0,.8,21V49.2a4.653,4.653,0,0,0,4.5,4.7h9a4.653,4.653,0,0,0,4.5-4.7V21a24.565,24.565,0,0,0-2-8.9l-5-10.4C11.2.5,10.5,0,9.8,0Z"/></g><path class="cls-4" d="M13.8,18.3v2.1H12.3a1.884,1.884,0,0,0-.8.2.778.778,0,0,0-.2.8v.7h2.4v2.2H11.3v8.2a3.069,3.069,0,0,1-.8,2.4,4.376,4.376,0,0,1-2.5.8H5.8V33.6H7.4a1.884,1.884,0,0,0,.8-.2.778.778,0,0,0,.2-.8V24.5H7V22.3H8.4v-.7a3.069,3.069,0,0,1,.8-2.4,4.376,4.376,0,0,1,2.5-.8Z"/><path class="cls-4" d="M7.6,37.9c0,.2,0,.3-.1.4l-.3.3a.9.9,0,0,1-.5.1H6.1v.9H5.5V37.1H6.6a1.854,1.854,0,0,1,.7.2A.864.864,0,0,1,7.6,37.9Zm-.5,0c0-.3-.1-.4-.5-.4H6.1v.8h.6a.367.367,0,0,0,.3-.1c0-.1.1-.2.1-.3Z"/><path class="cls-4" d="M8,39.6V37.1h.5v2.5Z"/><path class="cls-4" d="M10.5,39.6,9.4,37.7v2H8.9V37.2h.6l1.1,1.9V37.2h.5v2.5h-.6Z"/><path class="cls-4" d="M13.3,39.6l-.9-1.2-.3.3v.9h-.5V37.1h.5v1.1l1.1-1.1h.6l-1.1,1,1.2,1.5Z"/></g></g></g></svg>