<svg xmlns="http://www.w3.org/2000/svg" viewBox="0 0 56.5 56.5"><defs><style>.cls-1{isolation:isolate;}.cls-2{opacity:0.4;mix-blend-mode:multiply;}.cls-3{fill:#060;}.cls-4{fill:#fff;}</style></defs><title>greenAsset 1</title><g class="cls-1"><g id="Layer_2" data-name="Layer 2"><g id="Layer_1-2" data-name="Layer 1"><g id="token_green" data-name="token green"><g class="cls-2"><polygon points="0 56.5 0 4.6 51.9 4.6 51.9 56.5 51.9 56.5 0 56.5"/></g><polygon class="cls-3" points="3.6 52.9 3.6 1 55.5 1 55.5 52.9 55.5 52.9 3.6 52.9"/><path d="M54.5,2V52H4.5V2h50m1-2H3.5a1,1,0,0,0-1,1V53a1,1,0,0,0,1,1h52a1,1,0,0,0,1-1V1a.945.945,0,0,0-1-1Z"/><path class="cls-4" d="M17.1,43a3.4,3.4,0,0,0,1-.1,1.612,1.612,0,0,0,.7-.4v-.9H17.3v-1H20v2.3a3.528,3.528,0,0,1-1.3.8A4.671,4.671,0,0,1,17,44a2.744,2.744,0,0,1-2.3-.8,3.069,3.069,0,0,1-.8-2.4,2.744,2.744,0,0,1,.8-2.3,2.952,2.952,0,0,1,2.4-.8,2.625,2.625,0,0,1,2.8,1.6l-1.2.4a1.344,1.344,0,0,0-.6-.7,1.163,1.163,0,0,0-1-.2,1.974,1.974,0,0,0-1.4.6,3.022,3.022,0,0,0-.5,1.6,2.2,2.2,0,0,0,.5,1.6A3.255,3.255,0,0,0,17.1,43Z"/><path class="cls-4" d="M25.4,43.9,24,41.5H22.5v2.4H21.2V37.7h3.1a2.618,2.618,0,0,1,1.7.5,1.678,1.678,0,0,1,.6,1.4,1.5,1.5,0,0,1-.4,1.1,1.7,1.7,0,0,1-1,.6l1.7,2.6Zm-.2-4.3c0-.6-.4-.9-1.1-.9H22.4v1.8h1.7a1.884,1.884,0,0,0,.8-.2c.3-.2.4-.4.3-.7Z"/><path class="cls-4" d="M27.6,43.9V37.7h4.9v1H28.9v1.6h3.3v1H28.9v1.6h3.8v1Z"/><path class="cls-4" d="M33.6,43.9V37.7h4.9v1H34.9v1.6h3.3v1H34.9v1.6h3.8v1Z"/><path class="cls-4" d="M43.4,43.9l-2.7-4.8c0,.4.1.7.1,1.1v3.7H39.7V37.7h1.5l2.7,4.8a4.869,4.869,0,0,1-.1-1.2V37.7H45v6.2Z"/><path class="cls-4" d="M23.5,11.4H36v4.4H23.5Zm0,18.2H36V34H23.5ZM24.9,20h9.7v4.4H24.9Z"/></g></g></g></g></svg>