<svg xmlns="http://www.w3.org/2000/svg" viewBox="0 0 56.734 50"><defs><style>.cls-1{isolation:isolate;}.cls-2{opacity:0.4;mix-blend-mode:multiply;}.cls-3{fill:#555758;}.cls-4{fill:#fff;}</style></defs><title>grayAsset 1</title><g class="cls-1"><g id="Layer_2" data-name="Layer 2"><g id="Layer_1-2" data-name="Layer 1"><g id="token_gray" data-name="token gray"><g id="Outlines"><g class="cls-2"><path d="M1.969,50a2.034,2.034,0,0,1-1.8-.7,1.746,1.746,0,0,1,.3-1.9l24-41.6a1.877,1.877,0,0,1,1.5-1.2,1.877,1.877,0,0,1,1.5,1.2l24,41.6c.5.8.6,1.5.3,1.9-.3.5-.9.7-1.8.7Z"/></g><path class="cls-3" d="M5.569,46.4a2.034,2.034,0,0,1-1.8-.7,1.746,1.746,0,0,1,.3-1.9l24-41.6a1.877,1.877,0,0,1,1.5-1.2,1.877,1.877,0,0,1,1.5,1.2l24,41.6c.5.8.6,1.5.3,1.9-.3.5-.9.7-1.8.7Z"/><path d="M29.669,2c.1,0,.3.2.7.7l24,41.6a2.322,2.322,0,0,1,.3.9,1.925,1.925,0,0,1-1,.2H5.569a2.427,2.427,0,0,1-1-.2,1.67,1.67,0,0,1,.3-.9l24.1-41.6c.3-.6.6-.7.7-.7m0-2a3,3,0,0,0-2.4,1.7l-24,41.6c-1.3,2.3-.3,4.2,2.4,4.2h48.1c2.7,0,3.7-1.9,2.4-4.2L31.969,1.7a2.866,2.866,0,0,0-2.3-1.7Z"/></g><path class="cls-4" d="M35.369,31h-11.6l4.1-12.4h3.4Zm-8-2.4h4.4l-2.2-7.1Z"/><path class="cls-4" d="M22.669,37.2a2.2,2.2,0,0,0,.8-.1l.6-.3v-.7h-1.2v-.8h2.1v1.8a2.075,2.075,0,0,1-1,.6,5.853,5.853,0,0,1-1.3.2,2.41,2.41,0,0,1-1.8-.7,2.107,2.107,0,0,1-.6-1.8,2.31,2.31,0,0,1,2-2.5h.5a1.962,1.962,0,0,1,2.1,1.3l-.9.3a1.205,1.205,0,0,0-.5-.5,1.884,1.884,0,0,0-.8-.2,1.5,1.5,0,0,0-1.1.4,1.922,1.922,0,0,0-.4,1.2,2.01,2.01,0,0,0,.4,1.3A1.069,1.069,0,0,0,22.669,37.2Z"/><path class="cls-4" d="M29.069,38l-1.1-1.8h-1.2V38h-1V33.2h2.4a2.01,2.01,0,0,1,1.3.4,1.606,1.606,0,0,1,.5,1.1,1.391,1.391,0,0,1-1.1,1.4l1.3,2Zm-.1-3.4c0-.5-.3-.7-.9-.7h-1.3v1.4h1.3a1.072,1.072,0,0,0,.6-.2C28.969,35,28.969,34.8,28.969,34.6Z"/><path class="cls-4" d="M34.269,38l-.4-1.3h-1.8l-.4,1.2h-1l1.8-4.8h1.2l1.8,4.8h-1.2Zm-1.4-4.1h0c0,.2,0,.3-.1.3a17.629,17.629,0,0,0-.6,1.7h1.4l-.5-1.4-.1-.5Z"/><path class="cls-4" d="M37.669,36v2h-1V36l-1.7-2.8h1l1.2,2,1.2-2h1Z"/></g></g></g></g></svg>