<svg id="Card_Backs" data-name="Card Backs" xmlns="http://www.w3.org/2000/svg" viewBox="0 0 612 144"><defs><style>.cls-1{fill:#231f20;}.cls-2{fill:#a31957;}.cls-3{fill:#3352a3;}.cls-4{fill:#555758;}.cls-5{fill:#8c3a1c;}.cls-6{fill:#136534;}</style></defs><title>qwertyArtboard 1</title><path class="cls-1" d="M19.83,34.23V71.77C19.83,86,26.14,92,34.6,92,44,92,50,85.78,50,71.77V34.23h8.28v37c0,19.48-10.26,27.47-24,27.47-13,0-22.76-7.43-22.76-27.09V34.23Z"/><path class="cls-1" d="M72.51,97.64V34.23h8.94l20.32,32.08a179.86,179.86,0,0,1,11.38,20.6l.19-.09c-.75-8.47-.94-16.18-.94-26.06V34.23h7.71V97.64h-8.27L91.7,65.47A202,202,0,0,1,79.85,44.3l-.28.09c.47,8,.66,15.62.66,26.16V97.64Z"/><path class="cls-2" d="M162.17,26.16v7h-8.08q-4.54,0-6.32,1.84c-1.17,1.22-1.76,3.43-1.76,6.61v4.55h13.91v6.57H146v48q0,8.59-4,12.52t-12.68,3.93h-8v-7h8.08c3,0,5.14-.62,6.32-1.84s1.77-3.43,1.77-6.61v-49h-8.09V46.19h8.09V42.61q0-8.59,4-12.52t12.68-3.93Z"/><path class="cls-1" d="M175.72,34.23V71.77C175.72,86,182,92,190.49,92c9.4,0,15.42-6.21,15.42-20.22V34.23h8.28v37c0,19.48-10.25,27.47-24,27.47-13,0-22.76-7.43-22.76-27.09V34.23Z"/><path class="cls-3" d="M269.32,28.28a31.19,31.19,0,0,0-18.94,6.33q-8.58,6.31-8.58,19.47v65.45h-15V52.68q0-18.27,11.14-27.68t31.42-9.42q20,0,31.28,9.42t11.28,27.68v66.85h-15V54.08q0-12.64-8.44-19.22A30.24,30.24,0,0,0,269.32,28.28Z"/><path class="cls-1" d="M324.55,35.08A117.45,117.45,0,0,1,342,33.76c11.76,0,20.13,2.73,25.68,7.91s8.94,12.51,8.94,22.76-3.2,18.81-9.13,24.65-15.71,9.12-28,9.12a132.1,132.1,0,0,1-14.86-.75Zm8.18,56.07a52.45,52.45,0,0,0,8.28.47c17.49,0,27-9.79,27-26.91.09-14.95-8.38-24.46-25.68-24.46a46.46,46.46,0,0,0-9.6.85Z"/><path class="cls-4" d="M380.78,97.64,407,29.06h10.52l26.13,68.58ZM412.2,38.2,393.37,89.92h37.71Z"/><path class="cls-5" d="M453,45.41q0-9.18,5.49-14.22t15.5-5q9.56,0,14.58,5.33t5.17,15.62q-6.93.36-10.79,3A8.14,8.14,0,0,0,479,57.17a6.75,6.75,0,0,0,1.33,4A15.94,15.94,0,0,0,484.69,65l2.62,1.7q7.62,4.86,9.83,8.13a13.67,13.67,0,0,1,2.2,7.85q0,7.91-5.17,12.11T479.31,99a33.7,33.7,0,0,1-6.06-.57,51.71,51.71,0,0,1-6.48-1.68V89.19a47.43,47.43,0,0,0,6.89,2,30.92,30.92,0,0,0,6.21.67q5.33,0,8.08-2.19a7.61,7.61,0,0,0,2.76-6.36,8.21,8.21,0,0,0-1.36-4.82q-1.35-1.94-6-4.78l-4.23-2.53a19.57,19.57,0,0,1-6.41-5.81,13.14,13.14,0,0,1-2-7.28,13.47,13.47,0,0,1,3.84-9.78q3.84-3.94,10.77-5.28A10.2,10.2,0,0,0,482,35.76q-3-2.57-8.2-2.57-6,0-9.1,3.19t-3.12,9.21V97.64H453Z"/><path class="cls-1" d="M510.81,34.23H519V90.77h27.09v6.87H510.81Z"/><path class="cls-6" d="M557.29,29.06H599.6v7.81H557.29Zm0,60.77H599.6v7.81H557.29Zm4.83-32.66h32.66V65H562.12Z"/></svg>