<?xml version="1.0" encoding="utf-8"?>
<!-- Generator: Adobe Illustrator 23.0.2, SVG Export Plug-In . SVG Version: 6.00 Build 0)  -->
<svg version="1.1" id="Layer_1" xmlns="http://www.w3.org/2000/svg" xmlns:xlink="http://www.w3.org/1999/xlink" x="0px" y="0px"
	 viewBox="0 0 1152 270" style="enable-background:new 0 0 1152 270;" xml:space="preserve">
<style type="text/css">
	.st0{fill:#231F20;}
	.st1{fill:#A31E58;}
	.st2{fill:#3453A2;}
	.st3{fill:#027166;}
	.st4{fill:#AE3325;}
	.st5{fill:#1C733C;}
</style>
<g>
	<path class="st0" d="M56.5,77.2V145c0,25.7,11.4,36.6,26.7,36.6c17,0,27.9-11.2,27.9-36.6V77.2h15V144c0,35.2-18.5,49.7-43.4,49.7
		c-23.5,0-41.2-13.4-41.2-49V77.2H56.5z"/>
	<path class="st0" d="M151.7,191.8V77.2h16.2l36.7,58c8.5,13.4,15.1,25.5,20.6,37.2l0.3-0.2c-1.4-15.3-1.7-29.3-1.7-47.1v-48h13.9
		v114.6h-15l-36.4-58.2c-8-12.8-15.6-25.9-21.4-38.3l-0.5,0.2c0.9,14.5,1.2,28.2,1.2,47.3v49H151.7z"/>
	<path class="st1" d="M313.8,62.6v12.7h-14.6c-5.5,0-9.3,1.1-11.4,3.3c-2.1,2.2-3.2,6.2-3.2,12v8.2h25.2v11.9h-25.2v86.8
		c0,10.4-2.4,17.9-7.2,22.6c-4.8,4.7-12.5,7.1-22.9,7.1H240v-12.7h14.6c5.5,0,9.3-1.1,11.4-3.3c2.1-2.2,3.2-6.2,3.2-12v-88.5h-14.6
		V98.8h14.6v-6.5c0-10.4,2.4-17.9,7.2-22.6c4.8-4.7,12.5-7.1,22.9-7.1H313.8z"/>
	<path class="st0" d="M338.3,77.2V145c0,25.7,11.4,36.6,26.7,36.6c17,0,27.9-11.2,27.9-36.6V77.2h15V144c0,35.2-18.5,49.7-43.4,49.7
		c-23.5,0-41.2-13.4-41.2-49V77.2H338.3z"/>
	<path class="st2" d="M507.5,66.4c-12.5,0-23.9,3.8-34.2,11.4c-10.3,7.6-15.5,19.4-15.5,35.2v118.3h-27.2V110.5
		c0-22,6.7-38.7,20.1-50.1c13.4-11.3,32.4-17,56.8-17c24.1,0,43,5.7,56.5,17c13.6,11.3,20.4,28,20.4,50.1v120.9h-27.2V113
		c0-15.2-5.1-26.8-15.3-34.7C531.9,70.4,520.4,66.4,507.5,66.4z"/>
	<path class="st0" d="M607.4,78.7c9-1.4,19.7-2.4,31.5-2.4c21.3,0,36.4,4.9,46.4,14.3c10.2,9.4,16.2,22.6,16.2,41.2
		c0,18.7-5.8,34-16.5,44.6c-10.7,10.7-28.4,16.5-50.7,16.5c-10.5,0-19.4-0.5-26.9-1.4V78.7z M622.2,180.1c3.7,0.7,9.2,0.8,15,0.8
		c31.6,0,48.8-17.7,48.8-48.6c0.2-27-15.1-44.2-46.4-44.2c-7.7,0-13.4,0.7-17.3,1.5V180.1z"/>
	<path class="st3" d="M709.1,191.8l47.3-124h19l47.3,124H709.1z M765.9,84.3l-34,93.5H800L765.9,84.3z"/>
	<path class="st4" d="M839.5,97.4c0-11.1,3.3-19.6,9.9-25.7c6.6-6.1,16-9.1,28-9.1c11.5,0,20.3,3.2,26.4,9.6
		c6.1,6.4,9.2,15.8,9.3,28.2c-8.4,0.4-14.9,2.3-19.5,5.4c-4.7,3.2-7,7.4-7,12.7c0,2.6,0.8,5,2.4,7.3c1.6,2.2,4.2,4.5,7.8,6.9
		l4.7,3.1c9.2,5.9,15.1,10.8,17.8,14.7c2.7,3.9,4,8.7,4,14.2c0,9.5-3.1,16.8-9.3,21.9c-6.2,5.1-15.2,7.6-26.9,7.6
		c-3.5,0-7.2-0.3-11-1c-3.8-0.7-7.7-1.7-11.7-3v-13.6c4.4,1.7,8.6,2.9,12.5,3.7c3.9,0.8,7.6,1.2,11.2,1.2c6.4,0,11.3-1.3,14.6-3.9
		c3.3-2.6,5-6.5,5-11.5c0-3.5-0.8-6.4-2.4-8.7c-1.6-2.3-5.2-5.2-10.8-8.6l-7.6-4.6c-5.3-3.3-9.2-6.8-11.6-10.5s-3.6-8.1-3.6-13.2
		c0-7,2.3-12.9,6.9-17.7c4.6-4.8,11.1-7.9,19.5-9.6c-0.4-5.7-2.5-10.1-6.1-13.2c-3.6-3.1-8.6-4.7-14.8-4.7c-7.2,0-12.7,1.9-16.4,5.8
		c-3.8,3.8-5.6,9.4-5.6,16.7v94.1h-15.5V97.4z"/>
	<path class="st0" d="M944.1,77.2h14.8v102.2h49v12.4h-63.8V77.2z"/>
	<path class="st5" d="M1028.2,67.8h76.5v14.1h-76.5V67.8z M1028.2,177.7h76.5v14.1h-76.5V177.7z M1036.9,118.6h59v14.1h-59V118.6z"
		/>
</g>
</svg>
