<?xml version="1.0" encoding="utf-8"?>
<!-- Generator: Adobe Illustrator 23.0.2, SVG Export Plug-In . SVG Version: 6.00 Build 0)  -->
<svg version="1.1" id="Card_Backs" xmlns="http://www.w3.org/2000/svg" xmlns:xlink="http://www.w3.org/1999/xlink" x="0px" y="0px"
	 viewBox="0 0 612 144" style="enable-background:new 0 0 612 144;" xml:space="preserve">
<style type="text/css">
	.st0{fill:#FFFFFF;}
	.st1{fill:#231F20;}
	.st2{fill:#A31957;}
	.st3{fill:#3352A3;}
	.st4{fill:#555758;}
	.st5{fill:#8C3A1C;}
	.st6{fill:#136534;}
</style>
<rect class="st0" width="612" height="144"/>
<path class="st1" d="M19.8,34.2v37.5C19.8,86,26.1,92,34.6,92C44,92,50,85.8,50,71.8V34.2h8.3v37c0,19.5-10.3,27.5-24,27.5
	c-13,0-22.8-7.4-22.8-27.1V34.2H19.8z"/>
<path class="st1" d="M72.5,97.6V34.2h8.9l20.3,32.1c4.2,6.6,8,13.5,11.4,20.6l0.2-0.1c-0.8-8.5-0.9-16.2-0.9-26.1V34.2h7.7v63.4
	h-8.3L91.7,65.5c-4.4-6.8-8.3-13.9-11.8-21.2l-0.3,0.1c0.5,8,0.7,15.6,0.7,26.2v27.1H72.5z"/>
<path class="st2" d="M162.2,26.2v7h-8.1c-3,0-5.1,0.6-6.3,1.8c-1.2,1.2-1.8,3.4-1.8,6.6v4.5h13.9v6.6H146v48c0,5.7-1.3,9.9-4,12.5
	s-6.9,3.9-12.7,3.9h-8v-7h8.1c3,0,5.1-0.6,6.3-1.8s1.8-3.4,1.8-6.6v-49h-8.1v-6.5h8.1v-3.6c0-5.7,1.3-9.9,4-12.5
	c2.7-2.6,6.9-3.9,12.7-3.9H162.2z"/>
<path class="st1" d="M175.7,34.2v37.5C175.7,86,182,92,190.5,92c9.4,0,15.4-6.2,15.4-20.2V34.2h8.3v37c0,19.5-10.3,27.5-24,27.5
	c-13,0-22.8-7.4-22.8-27.1V34.2H175.7z"/>
<path class="st3" d="M269.3,28.3c-6.8,0-13.5,2.2-18.9,6.3c-5.7,4.2-8.6,10.7-8.6,19.5v65.4h-15V52.7c0-12.2,3.7-21.4,11.1-27.7
	s17.9-9.4,31.4-9.4c13.3,0,23.8,3.1,31.3,9.4s11.3,15.5,11.3,27.7v66.8h-15V54.1c0-8.4-2.8-14.8-8.4-19.2
	C283,30.5,276.3,28.2,269.3,28.3z"/>
<path class="st1" d="M324.5,35.1c5.8-0.9,11.6-1.3,17.5-1.3c11.8,0,20.1,2.7,25.7,7.9s8.9,12.5,8.9,22.8s-3.2,18.8-9.1,24.7
	s-15.7,9.1-28,9.1c-5,0-9.9-0.2-14.9-0.8L324.5,35.1z M332.7,91.2c2.7,0.4,5.5,0.5,8.3,0.5c17.5,0,27-9.8,27-26.9
	c0.1-15-8.4-24.5-25.7-24.5c-3.2-0.1-6.4,0.2-9.6,0.8V91.2z"/>
<path class="st4" d="M380.8,97.6L407,29.1h10.5l26.1,68.6H380.8z M412.2,38.2l-18.8,51.7h37.7L412.2,38.2z"/>
<path class="st5" d="M453,45.4c0-6.1,1.8-10.9,5.5-14.2s8.8-5,15.5-5c6.4,0,11.2,1.8,14.6,5.3c3.3,3.6,5.1,8.8,5.2,15.6
	c-4.6,0.2-8.2,1.2-10.8,3c-2.5,1.5-4,4.2-3.9,7c0,1.4,0.5,2.8,1.3,4c1.2,1.5,2.7,2.8,4.4,3.8l2.6,1.7c5.1,3.2,8.4,5.9,9.8,8.1
	c1.5,2.3,2.3,5.1,2.2,7.8c0,5.3-1.7,9.3-5.2,12.1c-3.4,2.8-8.4,4.2-14.9,4.2c-2,0-4.1-0.2-6.1-0.6c-2.2-0.4-4.4-1-6.5-1.7v-7.6
	c2.2,0.8,4.5,1.5,6.9,2c2,0.4,4.1,0.7,6.2,0.7c3.6,0,6.2-0.7,8.1-2.2c1.9-1.6,2.9-3.9,2.8-6.4c0.1-1.7-0.4-3.4-1.4-4.8
	c-0.9-1.3-2.9-2.9-6-4.8l-4.2-2.5c-2.5-1.4-4.7-3.4-6.4-5.8c-1.4-2.2-2.1-4.7-2-7.3c-0.1-3.6,1.3-7.2,3.8-9.8
	c2.6-2.6,6.1-4.4,10.8-5.3c-0.1-2.8-1.3-5.4-3.3-7.3c-2-1.7-4.7-2.6-8.2-2.6c-4,0-7,1.1-9.1,3.2c-2.1,2.1-3.1,5.2-3.1,9.2v52.1H453
	V45.4z"/>
<path class="st1" d="M510.8,34.2h8.2v56.5h27.1v6.9h-35.3V34.2z"/>
<path class="st6" d="M557.3,29.1h42.3v7.8h-42.3V29.1z M557.3,89.8h42.3v7.8h-42.3V89.8z M562.1,57.2h32.7V65h-32.7V57.2z"/>
</svg>
